<?xml version="1.0" encoding="UTF-8"?>
<svg id="F88-PB" xmlns="http://www.w3.org/2000/svg" viewBox="0 0 150 100">
  <defs>
    <style>
      .cls-1 {
        stroke-width: .3px;
      }

      .cls-1, .cls-2, .cls-3, .cls-4, .cls-5 {
        fill: none;
        stroke: #000;
        stroke-miterlimit: 10;
      }

      .cls-2 {
        stroke-width: .12px;
      }

      .cls-3 {
        stroke-width: .13px;
      }

      .cls-6 {
        font-size: 12px;
      }

      .cls-6, .cls-7 {
        font-family: MyriadPro-Regular, 'Myriad Pro';
      }

      .cls-6, .cls-7, .cls-8 {
        fill: #231f20;
      }

      .cls-4 {
        stroke-width: .25px;
      }

      .cls-7 {
        font-size: 9px;
      }

      .cls-5 {
        stroke-width: .23px;
      }
    </style>
  </defs>
  <g>
    <g>
      <line class="cls-3" x1="117.12" y1="32.21" x2="117.12" y2="26.53"/>
      <path d="m117.12,25.75c.14.37.37.82.62,1.11l-.62-.22-.62.22c.25-.28.48-.74.62-1.11Z"/>
    </g>
    <g>
      <line class="cls-2" x1="117.12" y1="40.49" x2="117.12" y2="45.73"/>
      <path d="m117.12,46.45c-.12-.34-.34-.75-.56-1.01l.56.2.56-.2c-.23.26-.44.68-.56,1.01Z"/>
    </g>
    <line class="cls-3" x1="115.94" y1="25.82" x2="118.29" y2="25.82"/>
    <line class="cls-2" x1="115.94" y1="46.45" x2="118.29" y2="46.45"/>
  </g>
  <g>
    <text class="cls-6" transform="translate(57.64 71.25)"><tspan x="0" y="0">F88-PB</tspan></text>
    <g>
      <g>
        <line class="cls-4" x1="76.86" y1="52.42" x2="100.22" y2="52.42"/>
        <path d="m101.75,52.42c-.72.27-1.62.72-2.17,1.21l.44-1.21-.44-1.21c.55.48,1.45.94,2.17,1.21Z"/>
      </g>
      <g>
        <line class="cls-5" x1="44.94" y1="52.42" x2="23.36" y2="52.42"/>
        <path d="m21.95,52.42c.66-.25,1.48-.66,1.99-1.11l-.4,1.11.4,1.11c-.51-.44-1.33-.86-1.99-1.11Z"/>
      </g>
      <line class="cls-4" x1="101.48" y1="51.24" x2="101.48" y2="53.59"/>
      <line class="cls-5" x1="21.95" y1="51.24" x2="21.95" y2="53.59"/>
    </g>
    <g>
      <path class="cls-8" d="m22.71,34.51c.12-.02.25-.01.36.05.03.02.04.05.07.07.02,0,.04,0,.07,0,.22,0,.45-.02.67-.03.16,0,.22.07.22.23,0,.14,0,.27,0,.41,0,.49-.17.62-.66.49-.02,0-.05,0-.07,0,.12.36.11.74.12,1.11.01.81.01,1.62.02,2.44.1.03.21.04.31-.02v-.35c-.02-.1-.03-.21,0-.32.02-.12.01-.24,0-.36v-.2c-.04-.37-.05-.73-.02-1.1,0-.08,0-.18.02-.28v-.47s-.02-.09,0-.14v-.02s0,0,0,.01c.02-.05.05-.1.09-.12.15-.08.26-.2.36-.32,0-.4.02-.79-.02-1.19-.02-.19-.1-.23-.29-.24-.36-.03-.7.09-1.05.06-.14.08-.28.16-.41.26-.02.02-.04.04-.07.07.04,0,.06.04.07.08.07-.05.14-.09.23-.11Z"/>
      <path class="cls-8" d="m78.83,25.79c-.36,0-.71-.01-1.07-.04-.53.04-1.07.1-1.6.13-.03.38-.05.76.02,1.13.05.03.09.05.13.09.26.24.31.59.24.91,0,.03,0,.05,0,.08.02.27.04.54.03.8-.02.39-.04.77-.04,1.16v.03c0,.37.03.74,0,1.1,0,.03-.01.07-.01.1.03.3.01.63-.06.86,0-.02,0-.04,0-.07,0,.11-.03.22-.06.33-.02.05-.05.08-.07.13.04.34.06.69.07,1.04.02,1.69.02,3.38,0,5.07,0,.53.1.67-.47.69,0,0,0,0,0,0-.01.05-.05.09-.09.12.03,0,.06,0,.06,0-.05.02.03,0,0,.04,0,0-.02.02-.03.02-2.26,0-4.52,0-6.78,0-.14.02-.28.05-.43.05-.15,0-.3-.04-.44-.04-.08,0-.16,0-.24,0-.77,0-1.53,0-2.3,0,0,0,0,0,0,0,0,0,0,0,0,0-.97,0-1.95,0-2.92,0-.02,0-.03,0-.05,0-.23.03-.46,0-.69,0-.11,0-.22,0-.33-.01-1.6,0-3.21,0-4.81,0-.05,0-.09-.02-.14-.03,0,0,.03,0,.07-.01-.02,0-.04,0-.07,0-.06,0-.12.01-.18.02-.05,0-.1,0-.15,0-.04,0-.09,0-.17,0-.52,0-1.05,0-1.57,0-.02,0-.03,0-.05,0,0,0-.01,0-.02,0-.62,0-1.24,0-1.86,0-.1,0-.21.02-.31.02-.03,0-.05-.01-.08-.02-5.18,0-10.36,0-15.54,0-.08,0-.16.02-.24.02-.03,0-.06-.01-.1-.02-1.99,0-3.97,0-5.96,0-.03,0-.06.01-.09.02-.06,0-.11-.01-.16-.02h-.09c-1.87,0-3.73,0-5.6,0-.11,0-.23,0-.34,0-.11,0-.14-.04-.15-.09-.1,0-.2-.08-.22-.17,0-.02,0-.03,0-.05-.01.02-.03.03-.05.04,0,.1-.02.2-.02.31.2.15.44.16.68.16,1.92,0,3.84,0,5.76,0,8.53,0,17.05,0,25.58,0,.41,0,.57-.01.63.06.01,0,.02,0,.04,0,.09,0,.2,0,.3,0,.03-.03.08-.05.16-.05.25,0,.5-.01.75-.01,6.05,0,12.1,0,18.16,0,.08,0,.15,0,.23,0,.51-.02.7-.21.73-.73,0-.19,0-.38,0-.56,0-2.35,0-4.71,0-7.06,0-.15,0-.3.01-.45v-.32c0-.96-.03-1.92-.01-2.88,0-.23-.14-.39-.17-.6,0-.02-.03-.05-.05-.05-.3-.02-.22-.24-.22-.41,0-.19,0-.37,0-.56,0-.15.04-.23.21-.22.42.02.85.03,1.27.04.1-.05.19,0,.28.02.21.05-.03.11,0,.16.17.15.36.09.55.07.01-.13.04-.21.2-.24-.01-.05-.02-.1-.03-.16Z"/>
      <path class="cls-8" d="m101.64,38.28c-.01-.06-.04-.12-.04-.18-.01-.24-.15-.38-.37-.44-.07-.02-.13-.04-.19-.07-.04.09-.09.17-.16.26,0,.02,0,.04,0,.05.02.11.04.2.18.18.17-.02.18.09.21.23.13.67.09,1.34.09,2.02,0,1.2,0,2.4,0,3.6.11-.12.07-.26.07-.39,0-1.56,0-3.13,0-4.69,0-.14-.02-.28,0-.43.1.21.13.44.13.67,0,1.84,0,3.68,0,5.52,0,.15-.03.3-.04.45,0,.17-.13.16-.24.16,0,.06-.02.12-.02.19,0,.15,0,.27-.21.27-.09,0-.18.08-.2.15-.04.2-.1.32-.34.23-.04-.01-.07.02-.09.05-.04.08-.01.21-.16.21-.19,0-.37.01-.56.01-.06,0-.09-.05-.09-.1.02-.34-.08-.69.07-1.02.04-.18.05-.39.33-.37.02-.91.06-1.81.04-2.72,0-.05,0-.1,0-.15.06-.39-.1-.63-.5-.71-.03,0-.06-.04-.09-.06-.26,0-.53.02-.79.02-13.61,0-27.22,0-40.83,0-.3,0-.6,0-.9,0-.08,0-.12,0-.16-.01-.08,0-.15,0-.23,0-.07,0-.14-.01-.22-.03-.04.03-.11.03-.24.03-2.78,0-5.56,0-8.35,0-7.83,0-15.67,0-23.5,0-.06,0-.12,0-.19,0-.19.11-.49.07-.58.27-.08.17-.03.41-.03.63,0,.83,0,1.67-.02,2.5,0,.31.07.55.4.64.12-.03.21,0,.21.13.01.27.02.54,0,.82-.01.2-.17.12-.29.12-.17,0-.34,0-.51,0-.12.02-.23,0-.34-.05-.11,0-.21-.02-.32-.04-.02.06-.07.09-.14.1-.25.05-.32,0-.33-.25-.03-.03-.07-.05-.09-.09-.06-.1-.05-.2-.02-.31.03-.11.04-.14.04-.24,0-.13,0-.26-.01-.39-.02-.28-.03-.55.04-.82,0-.02.03-.04.04-.06-.01-.68.02-1.37.01-2.05-.02-1.96,0-3.93,0-5.9,0-.13.02-.26.04-.39-.06-.04-.1-.1-.11-.18-.03.09-.1.11-.29.15,0,2.77,0,5.53,0,8.3,0,.42,0,.83,0,1.25,0,0,0,0,0,.01.02.1.02.19,0,.29,0,.07-.02.15-.01.22,0,0,0,.07,0,.04,0-.03,0,.04,0,.04,0,.03.01.07.03.1,0,.02.01.04.02.06,0,0,0,0,0,0,.01.03.03.06.04.09.03.06.05.11.08.17,0,.01.02.03.02.04,0,0,0,0,0,0,0,0,.02.02.03.03.03.03-.01,0,0,0,.04.02.08.04.11.06.39-.07.77-.04,1.14,0,.31.03.62.04.94.02.05-.4,0-.8.01-1.2,0-.2-.09-.38-.22-.54-.16.04-.29,0-.27-.19.06-.85.03-1.69.04-2.54,0-.07.01-.15,0-.22-.01-.16.1-.18.22-.18,0-.14.02-.25.2-.25.14,0,.28-.01.41-.01,9.79,0,19.58,0,29.37,0,.61,0,1.23,0,1.84,0,.33-.04.66.02,1,.02.54,0,1.08-.02,1.62-.02,13.49,0,26.98,0,40.47,0,.14,0,.28,0,.41,0,.28.02.29.03.31.31.01.22,0,.45,0,.68.01.53-.02,1.05.04,1.58.04.31,0,.62-.09.93.04.26-.15.2-.29.23,0,.42,0,.85,0,1.27,0,.08.02.15.1.18.08,0,.16,0,.24,0,.1,0,.19,0,.29,0,.05,0,.1,0,.15,0,.1-.01.19-.05.29-.03.11-.02.22-.02.33-.02.09-.05.19-.1.27-.16.17-.12.33-.27.47-.42.06-.11.13-.21.17-.34.02-.05.04-.08.06-.12,0-.61,0-1.23.03-1.84,0-.01,0-.02,0-.04.01-1.77.06-3.54-.1-5.31Z"/>
      <path class="cls-8" d="m99.65,38.8h-.01c0,.13.01.26.01.38,0,.1-.05.16-.16.13-.24.02-.48.01-.72.02-.03.04-.06.07-.09.1h.28c-.06.16-.17.11-.26.11-.07,0-.15,0-.22,0-.07.02-.14.02-.23,0,0,0-.01,0-.02,0-.62,0-1.24,0-1.86,0h-.27c-.46.04-.93.07-1.39.02-.14-.01-.28-.02-.42-.02-.91,0-1.82,0-2.72,0-.17.06-.34.1-.52.09-.13-.01-.25-.04-.36-.09h-.48c-.2.02-.41.01-.61,0-2.3,0-4.6,0-6.9,0-.32.01-.64.01-.96,0-.88,0-1.75,0-2.63,0-.14,0-.3.04-.47-.11h.27s-.09-.05-.13-.09c-.2,0-.18-.08-.21-.55-.04-.61-.01-1.23-.01-1.84,0-1.81-.03-3.63.02-5.44.02-.83,0-1.66,0-2.5,0-.18-.02-.37.05-.56.09.01.17.02.25.03,0-.12,0-.23.01-.35-.11,0-.21-.01-.23-.2-.01-.09-.15-.06-.23-.06-.09,0-.12.06-.13.15,0,.14-.06.26-.05.4.05.66,0,1.32.01,1.98,0,.05-.02.07-.03.1.04.02.07.03.1.07.06.1.03.25-.07.32,0,.04,0,.09,0,.13,0,.68.01,1.35.01,2.03,0,2.02,0,4.03,0,6.05,0,.45.14.59.59.62.05,0,.1,0,.15,0,4.99,0,9.98,0,14.97,0,1.77,0,3.54,0,5.3,0,.41,0,.45-.04.55-.45q-.02-.28.21-.3s0-.05.01-.08c-.1-.14-.26-.05-.39-.09Z"/>
      <path class="cls-1" d="m21.97,36.02c-.11-.83.17-1.48.59-1.6.08-.03.24-.05.48.05"/>
      <line class="cls-1" x1="78.62" y1="25.94" x2="101.31" y2="37.86"/>
      <line class="cls-1" x1="78.51" y1="28.02" x2="99.74" y2="38.96"/>
    </g>
    <text class="cls-7" transform="translate(45.61 55.06)"><tspan x="0" y="0">92.5mm</tspan></text>
    <text class="cls-7" transform="translate(103.95 38.74)"><tspan x="0" y="0">24mm</tspan></text>
  </g>
</svg>