<?xml version="1.0" encoding="UTF-8"?>
<svg id="T80-GDKC" xmlns="http://www.w3.org/2000/svg" viewBox="0 0 150 100">
  <defs>
    <style>
      .cls-1 {
        stroke-width: .17px;
      }

      .cls-1, .cls-2, .cls-3, .cls-4 {
        fill: none;
        stroke: #000;
        stroke-miterlimit: 10;
      }

      .cls-5 {
        fill: #010101;
        font-size: 10.06px;
      }

      .cls-5, .cls-6 {
        font-family: MyriadPro-Regular, 'Myriad Pro';
      }

      .cls-6 {
        fill: #231f20;
        font-size: 12px;
      }

      .cls-2 {
        stroke-width: .2px;
      }

      .cls-7 {
        letter-spacing: .01em;
      }

      .cls-3 {
        stroke-width: .19px;
      }

      .cls-8 {
        fill: #3e403e;
      }

      .cls-4 {
        stroke-width: .19px;
      }

      .cls-9 {
        letter-spacing: -.02em;
      }
    </style>
  </defs>
  <g>
    <g>
      <line class="cls-2" x1="74.79" y1="14.77" x2="97.78" y2="14.77"/>
      <path d="m99.01,14.77c-.58.22-1.3.58-1.75.97l.35-.97-.35-.97c.45.39,1.17.76,1.75.97Z"/>
    </g>
    <g>
      <line class="cls-3" x1="38.96" y1="14.77" x2="18.18" y2="14.77"/>
      <path d="m17.05,14.77c.53-.2,1.19-.53,1.6-.89l-.32.89.32.89c-.41-.36-1.07-.69-1.6-.89Z"/>
    </g>
    <line class="cls-2" x1="99.01" y1="13.73" x2="99.01" y2="15.8"/>
    <line class="cls-3" x1="17.05" y1="13.73" x2="17.05" y2="15.8"/>
  </g>
  <g>
    <path class="cls-8" d="m90.14,63.56s0-.06-.01-.08c0-.07,0-.14,0-.21,0-.14.01-.28.03-.42-.03-.11-.05-.23-.03-.37,0-.35,0-.71-.01-1.06,0-.02,0-.04,0-.06,0,0,.02,0,.03-.01,0-.13.01-.26.02-.39-.03-.05-.07-.1-.02-.16-.06-.4-.02-.8-.02-1.21,0-.02.01-.05.02-.07,0-.13-.01-.26-.02-.39,0-.02,0-.05.01-.07-.02-.26.02-.53-.05-.79-.02,0-.04-.01-.06-.02.02,0,.04-.01.06-.02.09-.66,0-1.33.04-1.99-.01-.04-.02-.08-.02-.12-.14-.06-.06-.18-.07-.28.02-.02.03-.02.05-.04,0-.24-.02-.47-.04-.71-.02-.06-.02-.14-.03-.2-.01-.44.13-.87.06-1.31-.11-.65.04-1.31-.02-1.96-.06-.69-.41-1-1.17-.83-.4.09-.76-.26-.85-.71-.12-.6-.13-1.21-.1-1.82.03-.57-.2-.9-.81-.9-1.39,0-2.77-.03-4.16.04-.37.02-.74.02-1.11.03-1.07,0-2.14.05-3.21,0-1.01-.05-2.02.03-3.03.03-.54,0-1.08.02-1.62-.03-.1,0-.2,0-.31,0-.33-.03-.66.1-1,.03-.05,0-.1-.02-.15-.03-.94-.02-1.89.17-2.83,0-.05,0-.1,0-.15,0-.15.06-.29.06-.45.03-.06,0-.12,0-.18,0-1.12.17-2.24.14-3.36.12-1.96-.02-3.91.03-5.87,0-.78-.01-1.57-.08-2.34.07-.2.04-.18-.19-.33-.19-.3,0-.63-.06-.91.03-.24.08-.46.1-.7.1-1.42,0-2.85-.01-4.27.03-.44.01-.91-.01-1.34.16,0,.02-.02.03-.04.03-.66.35-1.36.61-2.02.94-.52.26-1.1.37-1.59.67-.3.18-.33.49-.39.78.01.01.03.03.04.04,0,0-.01.01-.02.02.06.24.02.47-.01.7l.02.02-.02.03c.03.1.06.2.02.31.07,1.26.05,2.52.02,3.77,0,.76,0,1.52.01,2.28,0,.03,0,.06,0,.08,0,.17,0,.35,0,.52.08.65,0,1.29.02,1.94,0,.41-.05.83-.04,1.23,0,.32.04.65.04.97,0,.87.01,1.73,0,2.6,0,.14.06.26.07.4,0,.03,0,.07,0,.1.35.41.84.3,1.27.27.4-.03.78.07,1.17.02.02,0,.05.01.07.02.18-.02.35-.01.52,0,.12.01.24.03.36.06.3-.05.6-.02.9-.06.51-.06,1.01.07,1.53-.03.41-.08.85,0,1.29.05.59.07,1.17-.13,1.77-.07.2.02.41.09.61.02.87,0,1.74-.01,2.61-.02.4-.09.79-.05,1.19,0,.42,0,.84,0,1.25,0,0,0,.02-.02.03-.02.67,0,1.35-.13,2.02.02.66,0,1.33,0,1.99,0,.4-.16.81-.02,1.22-.04.05,0,.11,0,.16-.01.25,0,.51-.09.75.05.03,0,.07,0,.1,0,.24-.12.5-.05.75-.05.05,0,.1,0,.16,0,.15,0,.3,0,.46,0,.08,0,.16,0,.23,0,.61,0,1.22-.02,1.83-.03.06,0,.13,0,.16.07.64-.02,1.27-.04,1.91-.05.46,0,.92-.1,1.38.03.1,0,.2,0,.3.01.11-.13.26-.08.39-.08.89-.02,1.78-.07,2.67-.04,1.6.06,3.19-.08,4.78.01.65.04,1.3.01,1.94.02.62,0,1.24-.02,1.86-.03,1.27,0,2.53,0,3.8-.02.14,0,.28.03.39-.09-.02-.17.15-.15.23-.23h0c.2-.4.08-.83.09-1.23,0-.11.03-.18.06-.22Zm-.41-7.89c-.03.37-.07.73-.12,1.09.03.13.09.26.04.4.03.08.01.15-.02.23.12.73.02,1.47.05,2.21.03.75,0,1.5.02,2.25,0,.22-.11.43-.03.66.02.05,0,.09-.01.11.07.23.06.45,0,.67.08.14.07.32.03.52,0,.07,0,.15,0,.22.03.06.04.11,0,.16,0,.05,0,.1.01.15.02.48-.09.6-.54.59-.56,0-1.11-.01-1.67-.02-.21.05-.39.08-.58-.11-.17-.18-.43-.05-.65,0-.61.15-1.24.12-1.86.11-.22,0-.44.08-.67.02h-.22c-.68.01-1.36.05-2.03.06-.94.01-1.9,0-2.84,0-1.27,0-2.53-.04-3.8.04-.12,0-.26.04-.35-.08-.08,0-.16,0-.24,0-.23.13-.49.09-.74.09-.13,0-.26,0-.39,0-.34.17-.76.18-1.09-.01-.03,0-.05,0-.08,0-.26,0-.51,0-.77,0-.23,0-.46,0-.69,0-.15,0-.31,0-.46,0-.41,0-.81,0-1.22,0-.18,0-.36,0-.54,0-.03,0-.05,0-.08,0-.2,0-.41,0-.61,0-.03,0-.05,0-.08,0-.33,0-.66,0-.99-.01-.15,0-.3,0-.45,0-.74,0-1.48.02-2.22.02-.59.03-1.17.06-1.76.08-.1,0-.23.06-.31-.07-.05,0-.1,0-.15,0-.19.15-.42.1-.6.06-.34-.08-.67-.04-1.01-.07-.06-.02-.1-.05-.14-.08-.12.03-.24.03-.36.02-.04.08-.13.13-.22.12-.99-.08-1.99.12-2.98-.06-.28-.05-.54.09-.83.08-1.53-.03-3.06-.1-4.59-.06-1.35.04-2.69.03-4.04.05-.48,0-.53-.04-.55-.51,0-.37-.07-.74.02-1.1,0-.48,0-.96,0-1.44-.04-.16-.04-.31,0-.47,0-.1,0-.2-.01-.3-.03-.1-.05-.18-.04-.25-.02-.13-.03-.26-.01-.41,0-.05.03-.09.04-.13-.03-.07-.04-.16-.01-.3.01-.07.02-.15.03-.22,0-.05,0-.1,0-.14-.05-.15-.08-.3-.02-.46-.03-.1-.04-.21.01-.31-.04-.08-.03-.16,0-.24,0-.18.01-.35.02-.53-.05-.1-.05-.21-.01-.32-.01-.43-.03-.86-.04-1.3-.08-.31-.04-.62-.02-.93,0-.22,0-.45-.01-.67,0-.08.01-.16.02-.25,0-.07,0-.14,0-.21-.06-.09-.02-.17.04-.25l-.02-.13c-.04-.13-.05-.27-.02-.4,0-.27,0-.55,0-.82-.04-.11-.05-.21-.02-.32,0-.05.01-.1.02-.14,0-.03,0-.06,0-.08-.03-.38-.04-.76-.01-1.14-.09-.36-.17-.72.02-1.07,0-.1.01-.2.02-.3-.02-.04-.01-.05.03-.05.14-.19.32-.31.54-.4.66-.27,1.32-.56,1.97-.84.58-.33,1.17-.6,1.84-.69.05,0,.09-.01.14-.02.09-.14.23-.07.35-.07,1.9,0,3.81-.02,5.71-.02.16,0,.33-.06.46.09.07,0,.15,0,.22,0,.37-.17.76-.06,1.14-.08.34-.01.68.01,1.02.02,1.91,0,3.82,0,5.72-.01,2.27,0,4.54-.01,6.8-.02.03,0,.05-.01.08-.02.06,0,.11,0,.17,0,.12,0,.25,0,.37-.01h.54c.06-.03.12-.03.16.04.38,0,.75,0,1.13,0,.08-.13.2-.08.31-.07.25.04.49.11.74,0,.1-.04.15.06.19.14.02.01.04.01.06,0,.09-.29.31-.11.47-.13.13,0,.25-.01.38-.02.09,0,.18-.01.27,0,.46,0,.69,0,.8.13.01,0,.02,0,.03,0,.07,0,.13-.02.2-.02.02-.09.11-.1.23-.08.1,0,.2,0,.3,0,.13,0,.25,0,.38,0,.1,0,.2-.01.31-.02.06-.02.08.01.09.06.6-.04,1.2-.1,1.81-.09.85.02,1.7.02,2.55.03.42-.12.86-.06,1.28-.07.66-.02,1.32-.01,1.98,0,.11,0,.3-.1.32.14.02,0,.04.02.06.03.13,0,.24.03.21.19-.06.32.05.63.03.96-.03.45-.06.91.06,1.36h0c.06.04.09.08.06.14,0,.03.02.06.03.1.04,0,.05.02.03.06.33.28.7.46,1.15.46.17,0,.35-.05.5.09.11,0,.15.04.1.15.02.12.06.24-.02.36,0,.09.02.17.02.26.05.12,0,.25,0,.37,0,.02.01.03.02.05,0,0,0,.02-.01.03.02.3.06.6,0,.9,0,.06.01.12.02.18,0,.1,0,.19,0,.29,0,.18,0,.37,0,.55.11.4.11.83.07,1.27Z"/>
    <path class="cls-8" d="m97.24,56.43c0-.53,0-1.06.01-1.58,0-.03,0-.06,0-.09-.02-1.04-.05-2.09,0-3.13.11-.15.02-.28-.03-.42-.32-.72-.97-.6-1.54-.57-.25.01-.5.06-.75.06-1.02,0-2.04,0-3.06,0-.57,0-.95.35-.96.94-.01.92,0,1.85,0,2.77,0,.02,0,.04,0,.06.05.06.1.16.09.23-.03.25-.02.49-.03.74,0,.18-.04.36-.09.54v.85s0,.31,0,.31v.22c0,.05,0,.11,0,.16,0,.87.01,1.75.01,2.62,0,.12.05.26-.09.34,0,.03,0,.06,0,.09.21.26.07.56.08.84.08.05.04.1,0,.16.04.04.04.08,0,.13.14.45.04.92.07,1.38,0,.05,0,.09-.04.11.02.14.06.28.07.43,0,.12-.04.24-.1.35,0,.1,0,.23-.02.42.02.43.35.63.64.86.56,0,1.12,0,1.68,0,.13,0,.26,0,.39,0,.1-.06.19-.19.3-.02.48.2.96-.04,1.44.02.05.01.1.03.13.06.04-.02.08-.04.13-.05.09-.03.17-.01.24.02.03-.04.1-.05.16-.06.24,0,.48-.06.72,0,.18-.15.47-.21.48-.53.16-.45.08-.92.08-1.38,0-2.3-.02-4.6-.05-6.9Zm-.3,7.82c0,.49-.55.81-.97.58-.04-.02-.07-.06-.09-.1-.13.06-.26.11-.4.13-.28.05-.48.06-.76,0,0,0,0,0-.01,0-.96,0-1.92,0-2.88.01-.23,0-.37-.07-.39-.31-.11-.17-.03-.36-.05-.54-.09-.12-.1-.21-.03-.26-.03-.16-.03-.32.03-.48,0-.01.01-.02.02-.04-.03-.03-.05-.07-.04-.13.03-.31-.05-.63.05-.95-.03-.2-.03-.4.02-.6,0-.02-.01-.03-.02-.05,0,0,0-.02,0-.03-.07-.35-.04-.71-.03-1.06v-.17c-.04-.84-.02-1.68,0-2.51,0-.05,0-.11,0-.16-.01-.43-.03-.86-.04-1.29-.12-.24-.03-.49-.05-.74,0-.08.01-.12.05-.14-.02-.09-.05-.17-.06-.27-.01-.12,0-.23.03-.34,0-.01,0-.02,0-.04,0-1.05,0-2.1.01-3.15,0-.07.05-.14.07-.21.07-.35.38-.29.59-.3,1.42-.03,2.85-.03,4.27-.03.49,0,.66.23.57.73.15.03.1.16.1.25.02,2.03.02,4.06,0,6.09-.02,1.47.02,2.94.03,4.41,0,.57,0,1.14-.01,1.71Z"/>
    <path class="cls-8" d="m45.1,61.19c-.04-1.08,0-2.15.02-3.22,0-.08,0-.15,0-.23-.08-.67-.06-1.33-.02-2-.09-.19-.03-.39-.03-.59,0-.57.01-1.13.02-1.7,0-.33,0-.66-.01-.99,0-.03,0-.05,0-.08-.01-.82-.03-1.64-.04-2.45-.21-.26-.48-.36-.77-.4-.36.05-.72.09-1.08.12-.35.02-.69.04-1.04.06-.26.09-.52.16-.83.17-.47.02-.94,0-1.41-.02-.06.09-.2.04-.3.05-.77.11-1.54.24-2.31.3-.76.06-1.53.2-2.3.17-.89-.04-1.76.19-2.64.26-.62.05-1.25.18-1.87.19-.7,0-1.4.05-2.07.18-.76.15-1.53.13-2.29.21-1.11.12-2.22.25-3.34.37-.14.01-.28,0-.42-.01-.07,0-.15,0-.22,0-.82.08-1.64.16-2.46.26-.27.03-.45.25-.69.35-.18.36-.07.74-.09,1.11-.03.51-.02,1.01-.02,1.52,0,.03,0,.05,0,.08,0,.23,0,.46.01.69,0,.03,0,.06.01.08,0,.05,0,.09,0,.14,0,.06,0,.11,0,.17,0,.53.06,1.06-.02,1.58,0,.06.01.12.02.18.05.25.03.5.01.74,0,.06,0,.11,0,.17,0,.15,0,.3,0,.45,0,.03,0,.06,0,.08.04.2.04.4.01.6,0,.06,0,.11,0,.17.07,1.19-.02,2.39.01,3.58.03.05.05.1.02.16,0,.15,0,.31-.01.46,0,.08,0,.16,0,.24,0,.05,0,.09,0,.14,0,.18,0,.37,0,.55.03.15.07.29.1.44.21-.03.33.11.45.24.05,0,.1,0,.15.01.54-.02,1.08-.08,1.61-.01.08,0,.15,0,.23-.01.23-.06.46-.01.68.01.08,0,.15,0,.23,0,.31,0,.62,0,.92.01.07,0,.15-.01.22-.02.48-.11.97-.07,1.46-.07,1.33-.01,2.67-.02,4-.02.69,0,1.38,0,2.07,0,.29-.03.59-.03.87-.01.05,0,.09,0,.14.01.43,0,.85,0,1.28,0,.09,0,.16.01.22.03.08,0,.15,0,.23,0,.09,0,.17,0,.25-.01.25-.23.52-.11.78-.03.41-.15.83,0,1.24-.04.28-.12.56-.1.84,0,.08,0,.15,0,.23,0,.31-.17.65-.05.98-.07.24-.01.47,0,.71,0,.14.1.3.07.45.05.22-.16.46-.06.69-.07,1.39-.01,2.77-.03,4.16,0,.79.01.97-.38.99-.97.04-1.13.02-2.26-.03-3.39Zm-.41,3.57c0,.22-.16.31-.35.32-.24.01-.48.02-.72,0-1.12-.06-2.23.16-3.35.13-.82-.02-1.65-.14-2.46-.08-.7.05-1.4.11-2.1.06-.52-.04-1.02.02-1.54.03-.1,0-.18,0-.22-.07-.11.01-.23.03-.34.06-.1.03-.18,0-.25-.03-.14.04-.29.02-.42.02-1.31.04-2.62.03-3.92.04-1,0-2,.02-3,.03-1.6,0-3.2-.05-4.81.03-.47.03-.95-.02-1.43,0-.33.02-.4-.12-.37-.39,0-.71-.01-1.42-.02-2.13-.07-1.15-.07-2.3-.02-3.46,0-.05,0-.09-.01-.14,0-.05,0-.1.01-.15-.04-.1-.03-.21,0-.31-.05-.15-.06-.3,0-.45-.03-.07-.06-.15-.02-.23,0-.05,0-.1,0-.16,0-.05,0-.1,0-.15-.04-.13-.02-.26,0-.38,0-.15.01-.3.02-.46-.02-.13-.05-.26,0-.38,0-.25-.01-.51-.02-.76-.04-.15-.05-.31,0-.46,0-.2,0-.41,0-.61,0-.15,0-.31,0-.46,0-.08,0-.15,0-.23,0-.03,0-.05,0-.08,0-.1,0-.2,0-.3,0-.05,0-.11,0-.16,0-.31-.08-.62.03-.92-.04-.05-.05-.09.02-.11.15-.29.4-.11.61-.14.77-.1,1.53-.24,2.3-.27.69-.02,1.36-.26,2.06-.23.7.03,1.37-.11,2.06-.15.64-.02,1.26-.15,1.88-.29.41-.09.85-.07,1.28-.09.65-.03,1.31-.02,1.97-.08.71-.07,1.41-.22,2.12-.24.82-.03,1.65-.15,2.46-.27.28-.04.56-.01.83-.02.61-.01,1.18-.19,1.79-.19.38,0,.78-.02,1.17-.05.01,0,.02,0,.03,0,.15-.06.31-.09.48-.11,0,0,.02,0,.03,0,.02-.02.05-.03.08-.03.14-.02.28-.04.41.02.01,0,.02,0,.04,0,.02,0,.04,0,.06,0,.07-.01.15-.03.22-.04.29-.03.58-.02.87-.06.24-.06.48-.1.74-.08.03,0,.05,0,.08,0,.02,0,.05,0,.07,0,.26,0,.49-.13.74-.16.75-.07.86.03.82.77,0,.05,0,.1,0,.15,0,.08,0,.16,0,.23,0,.05-.02.11-.03.16.12.45.06.91.02,1.37,0,.15.01.3.02.46.04.08.03.16,0,.23,0,.05,0,.1,0,.15.04.08,0,.12-.07.15,0,.08,0,.16,0,.24.08.03.08.08.05.15,0,.1,0,.2,0,.3v.08c.07.1.05.2.02.3.03.13.04.26-.01.39,0,.36.01.71.02,1.07,0,.03,0,.05,0,.08.03.23.02.46-.01.68,0,.05,0,.11,0,.16,0,.69,0,1.37.01,2.06.01.1.07.2,0,.3,0,.13-.02.25-.02.38.02.08.04.16,0,.23,0,.15,0,.3,0,.46.05.1.09.2.03.31-.22.64.14,1.28,0,1.92,0,.02-.01.05-.02.07,0,.1.01.2.02.3.09.55.03,1.11.04,1.66Z"/>
    <path class="cls-8" d="m99.42,70.75c-.01-.69-.03-1.37-.04-2.06-.09-.15-.04-.31-.03-.47,0-.1,0-.2,0-.3,0-.11-.06-.22.04-.32l.02-1.45s0-.05,0-.07c0-.56-.06-1.12,0-1.68,0-.08-.01-.15-.02-.23-.1-.11-.06-.25-.05-.36.1-.98.03-1.96.06-2.93-.15-.12,0-.26-.03-.39-.02-.2-.03-.4.02-.6-.04-.04-.06-.09-.04-.15v-.61c-.09-.1-.15-.21,0-.3l.03-.47s-.01-.03-.02-.05c0,0,0-.02.01-.03v-.25c-.2-.32-.16-.64-.01-.97,0-.04-.02-.08-.03-.12.01-.04.02-.09.03-.13-.17-.12-.17-.24,0-.36,0-.06,0-.12-.01-.18-.2-.15-.07-.35-.09-.53l.06-.15c-.08-.82-.14-1.63.02-2.44-.03-1.45-.12-2.9,0-4.35,0-.03,0-.06,0-.08-.01-1.76-.02-3.51-.03-5.27-.17-.21-.18-.82-.02-1.06v-.16c-.41-.4-.94-.23-1.42-.26-.31-.02-.62.09-.92-.06-.08,0-.15.02-.23.03-.44.18-.9.01-1.35.08,0,0-.01,0-.01,0-.08.16-.22.19-.37.2-.06.1-.13.19-.2.28,0,.01,0,.02,0,.03,0,.05,0,.1,0,.14,0,.03,0,.06,0,.09,0,.15.01.31.02.46.02.02.04.03.06.05-.02,0-.04.02-.05.02,0,.32,0,.63,0,.95,0,.21.1.36.24.5.12,0,.21.02.18.17.02,0,.03.01.03.03.14.15.41.16.43.43.02,0,.03.01.03.03.11.02.08.13.13.19.25.02.26.27.41.39.19.06.28.22.38.37h.01c.22.12.1.31.11.47,0,.05-.02.1-.03.15.03.05.03.09,0,.14l.02.92s.02.07-.02.09c-.15.11-.02.37-.24.44-.09.17-.23.15-.38.13-.15,0-.3,0-.46,0-.25.04-.51.03-.76,0-.04,0-.08.01-.12.02-.02.17-.14.15-.26.15-1.22,0-2.44.02-3.66.02-.12,0-.3.07-.32-.16-.03,0-.05,0-.07-.02-.14-.06-.24-.15-.3-.3v-.23c-.28-.43-.18-1.03.21-1.3.07-.18.33-.11.4-.29.02-.13.11-.18.21-.24,0-.02.02-.05.02-.07.14-.64.02-1.29.06-1.93,0-.14,0-.28-.01-.42-.06-.06-.13-.11-.17-.18l-.11-.27c-.02-.11-.05-.21-.08-.31-.15-.15-.29-.33-.49-.43-.06-.03-.08-.07-.07-.11-.11-.11-.2-.23-.26-.37-.07,0-.13-.02-.2-.02l-.14.02c-.1.03-.2.03-.31,0-.05,0-.1,0-.15,0h-.08s-.02,0-.03,0c-.06.17-.17.33-.35.47-.12.33-.18.69-.34,1.01,0,.1,0,.2-.01.29.03.11,0,.2-.11.24,0,.11,0,.21-.09.3.02.19,0,.36-.16.49,0,.02-.01.03-.04.04-.04.08-.11.09-.19.09-.91.05-1.82.12-2.73.11-.66,0-1.34.06-1.99.07-.89.02-1.8-.03-2.69,0-.51.01-1.03-.04-1.54,0-.37.02-.52.02-.58-.09-.09.02-.17.04-.26.06-.06.04-.13.06-.24.06-.74,0-1.47.02-2.21.02-1.19,0-2.39,0-3.58,0-.15,0-.3,0-.45,0-.23.03-.47.02-.7,0-.05,0-.1,0-.15,0-.13,0-.26.01-.38.02-.41,0-.81,0-1.22,0-.33.11-.66.14-.99,0-.05,0-.1-.01-.15-.02-.1,0-.2,0-.31,0-.07,0-.15.01-.22.02l-.06.05s-.02-.04-.03-.06c-.64,0-1.27-.01-1.91-.02-.05,0-.1,0-.15,0-.21,0-.41,0-.62,0-.05,0-.1,0-.15,0-.13,0-.26,0-.39,0-.12.03-.25.04-.37,0-.82,0-1.64,0-2.45,0-.07.04-.15.04-.22,0-.05,0-.11,0-.16,0-.02,0-.05,0-.07,0-.1.04-.21.02-.31,0-.07.03-.15.04-.22,0-.1,0-.21,0-.31,0-1.1,0-2.19,0-3.29-.01-.08,0-.16,0-.23,0-.08.03-.15.03-.23,0-.05,0-.1,0-.16,0-.33.02-.66.04-.99,0-.15,0-.31,0-.46,0-.02,0-.05,0-.07,0-.08,0-.15,0-.23,0h-.07c-.21,0-.41,0-.62,0-.02,0-.05,0-.07-.01-.1,0-.2,0-.3,0-.13.04-.27,0-.4.07-.13.07-.24.03-.28-.13.01-.2-.13-.39-.06-.6,0-.03,0-.06,0-.08v-.37s-.02-.04-.03-.05c0,0,0-.02,0-.03,0-.12,0-.25,0-.37,0-.03,0-.06,0-.09l-.02-1.91c-.03-.08-.05-.16,0-.23,0-.07,0-.15,0-.22-.04-.08-.02-.16,0-.24l-.02-.38c0-.06.01-.11.02-.17-.05-.4-.05-.81,0-1.21,0-.06,0-.11,0-.17,0-.38-.02-.76-.03-1.14-.19-.22-.17-.87.02-1.15,0-.59,0-1.17,0-1.76-.17-.03-.13-.16-.13-.27-.07-1.04,0-2.07,0-3.11,0-.56-.37-1.05-.88-1.23-.3-.11-.53-.02-.75.17h0c-.01.34-.02.67-.03,1,0,.27-.34.56-.58.44-.54-.27-1.16-.44-1.46-1.03-.35-.68-.68-1.37-.59-2.17.07-.67.21-1.3.59-1.88.14-.21.22-.46.47-.56.02-.02.05-.04.07-.06,0,0,.02-.02.02-.02.31-.32.7-.34,1.11-.31.35.02.3.2.19.41,0,.16-.03.33-.02.49,0,.19.39.62.54.63.36.01,1.08-.44,1.23-.77.09-.81-.03-1.63,0-2.44,0-.14-.05-.31.14-.39.03-.11,0-.21-.08-.29-.15,0-.3-.02-.46-.03-.03,0-.05.01-.08.02-.2.09-.41.1-.62.1-.4.18-.81.33-1.25.4,0,.01,0,.02,0,.03-.26.12-.53.24-.81.3-.02,0-.05,0-.07,0-.83.24-1.67.46-2.5.71-.67.2-1.33.45-2,.64-.77.22-1.58.34-2.33.6-.54.19-1.1.32-1.64.54-.45.18-.97.17-1.41.37-.61.27-1.28.33-1.89.59-.41.17-.86.27-1.31.31-.06,0-.1,0-.15-.01-.08.04-.18.07-.28.08,0,.09-.06.14-.2.16-.8.11-1.53.46-2.3.66-.61.16-1.24.31-1.85.54-.93.35-1.9.56-2.87.81-.94.24-1.88.48-2.79.79-.54.18-1.11.22-1.61.44-.66.29-1.41.29-2.02.7-.16.11-.35.01-.52.06-.67.2-1.33.43-2.02.58-.63.14-1.23.44-1.74.86h0c-.01.3-.27.46-.43.64-.06.07-.1.05-.13.01-.05.12-.12.24-.18.35.02.01.03.03.01.06,0,.1,0,.2,0,.3,0,.05,0,.1-.01.16-.02.15-.05.3-.05.45,0,1.25,0,2.5-.01,3.75v.08s.01,2.67.01,2.67c0,.06,0,.11,0,.16v.45c.19.55-.04,1.13.11,1.68.02.07-.06.16-.09.24,0,.05.02.09.03.14,0,.02.02.03.02.05,0,0,0,.02,0,.03.02.66.04,1.32-.02,1.99.04.05.04.1.01.15,0,.1,0,.2,0,.3,0,.03,0,.06,0,.08,0,.89,0,1.78,0,2.66.04.13.03.24-.01.32,0,.01,0,.03,0,.04,0,0,0,.01,0,.02.02.1.03.21.04.31,0,.01,0,.02,0,.03s0,.02,0,.03c0,0,0,0,0,0,0,0,0,0,0,0-.01.1-.03.2-.04.3,0,0,0,.01,0,.02,0,0,0,.02,0,.02.02.13.03.29.03.51,0,.15-.01.3-.02.46,0,.06,0,.12,0,.17,0,.05,0,.09,0,.14,0,.1,0,.21,0,.31.09.71.01,1.42.01,2.14,0,.02.02.03.02.05,0,0,0,.02,0,.03,0,.74,0,1.48,0,2.22.13.52.04,1.05.04,1.58,0,1.03.01,2.07.01,3.1,0,.13-.02.25-.02.38.03.17.05.34,0,.51.05.57.03,1.14,0,1.71,0,.04,0,.09,0,.13.08.32.06.63,0,.95.07.12.03.24.02.37.03.05.02.1,0,.15,0,.23.02.46.03.7.13.1.14.2,0,.29-.02.08-.03.15-.05.23.05.13.09.26-.02.39,0,.18-.02.36-.03.54,0,.02.02.03.02.05,0,0,0,.02-.01.03,0,.51.02,1.02.02,1.53.13.5.04,1.02.08,1.52-.01.05-.03.1-.04.14v.18c.03.1.04.21-.02.3,0,.05.01.09.02.14,0,.05,0,.1-.01.14,0,.06,0,.12.01.18,0,.05.01.09.02.14,0,.05,0,.11,0,.16,0,.13,0,.25,0,.38l.02.31s.02.04.02.07c.14,0,.15.21.31.17.62.12,1.24.03,1.85.05.02,0,.03-.02.05-.02.04-.11.12-.11.2-.11.09-.05.18-.1.26-.16.02-.03.04-.06.07-.09-.05-.09,0-.28.16-.45.03-.39.32-.66.47-.99.18-.38.31-.79.52-1.16.16-.51.08-.62-.51-.67-.2-.02-.41,0-.61,0-.16,0-.28-.05-.22-.25,0-.45,0-.9,0-1.36-.04-.23-.13-.45-.05-.7.17-.51.58-.38.95-.37l1.98-.02c.4-.14.81,0,1.22-.04.22-.02.47-.11.69.04.29,0,.57,0,.86,0,.43-.1.85-.11,1.28,0,.06,0,.12.01.18.02.09-.03.2-.04.31-.04.06,0,.12,0,.19.02.05-.04.13-.07.22-.07,1.11,0,2.21,0,3.32.01.21-.13.43,0,.64,0,.78,0,1.56-.06,2.34.01.11,0,.16.06.18.12.08,0,.15,0,.23,0,0-.02,0-.05,0-.07-.02-.05,0-.06.05-.05.23-.03.46-.06.69-.09.63.05,1.26-.05,1.89.05.26-.15.53.1.79,0,.38-.13.76-.05,1.15-.05.05,0,.1,0,.15,0,.05-.02.07.01.08.05.18.03.37-.05.52.11.08.02.05.07.03.12.07.23.05.46.04.69,0,.02.01.04.02.05,0,0,0,.02,0,.03,0,.38.07.76-.02,1.14.22.28.02.36-.21.37-.28.02-.56,0-.84,0-.13.14-.08.31-.07.47.1.06.1.14.06.24,0,.07.02.15.03.22.23.11.27.37.32.56.11.43.36.82.36,1.28h0c.13.06.2.15.17.29.07.13.14.26.21.39.63,0,1.25-.02,1.88-.02.09,0,.22-.02.23.1.1-.06.22-.1.35-.12.1-.24.19-.48.32-.71.18-.33.33-.67.5-1,.07-.15.17-.29.26-.44-.05-.14-.11-.28-.02-.45.06-.11.07-.24.23-.26h0c0-.07-.01-.14.07-.16.01-.14.04-.28-.07-.39-.2,0-.4,0-.6,0-.64,0-.67-.04-.59-.69,0-.49-.01-.99-.03-1.48-.01-.3.16-.4.42-.41.91-.02,1.82-.02,2.72-.03.63,0,1.26,0,1.9,0,.78-.08,1.56-.03,2.35-.05.69-.01,1.38,0,2.07,0,.11,0,.23-.03.33.06,1.14-.09,2.29.07,3.43-.03.62-.06,1.28.03,1.9,0,1.08-.05,2.15,0,3.23-.03,1.41-.04,2.82-.02,4.23-.02,1.24,0,2.49,0,3.73,0,.25-.13.51-.02.76-.03.06,0,.11,0,.17,0,.38,0,.76,0,1.14,0,.05,0,.11,0,.16,0,0,0,.02,0,.03,0,.27-.09.58-.08.85.04.11,0,.22-.01.32-.01.73,0,1.46-.03,2.19-.1.19-.02.34.06.51.05.08,0,.15,0,.23,0,.18-.03.36-.06.54,0,.1,0,.2,0,.3,0,.03,0,.05,0,.08,0,.05,0,.1,0,.15-.01.57-.19,1.08.13,1.08.69,0,.42-.03.84-.01,1.25.01.33-.11.46-.44.52-.24.04-.47.07-.71.05-.3.29.03.58,0,.87.25.31.39.67.44,1.07.22.44.39.9.48,1.39.41.19.85.07,1.28.08.52.02,1.03.07,1.55-.02.06-.18.11-.35.17-.53.05-.39.39-.66.4-1.06,0-.01.03-.03.06-.05.08-.29.19-.56.33-.83.02-.22.07-.43.18-.65.06-.13,0-.28-.2-.33-.26-.06-.52-.08-.78-.08-.29.06-.4-.05-.38-.34.03-.53.03-1.06.05-1.59,0-.12-.02-.27.18-.27.03-.08.07-.14.16-.16,0-.18.14-.15.25-.15,1.65,0,3.3,0,4.95,0,.46.08.92.1,1.38,0,.88,0,1.76,0,2.64-.01.07,0,.15-.01.19.08,1.05-.14,2.1-.08,3.15-.07.4-.1.8-.03,1.2-.04.08,0,.16,0,.24,0,.58,0,1.16-.01,1.74-.03.06,0,.11,0,.15.02.11,0,.21,0,.32,0,0,0,.01,0,.02,0,0,0,.01,0,.02,0,.09,0,.18.01.26.03,0,0,0,0,.02,0,.25-.03.51-.12.76.08.27.22.2.5.2.77,0,.19.02.38.03.54,0,.36,0,.69,0,1.02,0,.24-.1.3-.32.31-.36.01-.54.02-.64-.06-.04.07-.09.13-.14.18-.03.03-.07.05-.1.08h0c-.02.11-.06.21-.1.31-.02.05-.03.1-.04.15.03.07.07.13.09.21.03.09.04.19.06.28.01.04.03.08.04.12.11.12.18.26.23.41.07.02.07.11.1.17.2.37.43.73.56,1.14l.03.14c.07.03.13.07.13.16.03.03.06.06.09.09.06-.01.1.01.12.07.02,0,.03.01.05.03.4-.01.81-.02,1.21-.04.1,0,.17,0,.23.08.15,0,.31,0,.46,0,.3.01.39-.12.37-.42-.02-.52.01-1.04.03-1.56-.04-.08-.04-.16,0-.24,0-.12,0-.25,0-.37-.05-.05-.05-.11,0-.16Zm-.47,1c-.01.35-.02.71-.03,1.06,0,.12-.03.22-.18.23-.39.03-.78.06-1.17.09-.33.03-.47-.13-.45-.45h0c-.09-.03-.06-.12-.1-.18-.02,0-.02-.02-.03-.03-.13-.05-.08-.17-.09-.26-.27-.41-.54-.82-.69-1.3-.02-.01-.05-.03-.05-.04,0-.17-.32-.23-.2-.39.11-.15.34-.12.53-.12.21,0,.43,0,.64,0,.05-.05.1-.1.15-.16.03-.09-.01-.23.15-.23,0-.31,0-.61,0-.92-.09,0-.14-.03-.14-.13.01-.57.05-1.15-.07-1.71-.01-.02-.02-.04-.03-.07-.29-.24-.61-.33-.99-.31-.02,0-.02,0-.04,0-.02,0-.04.01-.06.01-.29,0-.58.07-.87.05-.02,0-.03,0-.04,0-.29-.01-.58.08-.86-.06-.16-.09-.28.07-.43.07-1.12,0-2.24-.01-3.36-.02-.05,0-.1,0-.16,0-.28,0-.56,0-.83,0-.1,0-.21,0-.31.01-.79,0-1.58,0-2.36,0-.05,0-.11,0-.16,0-.05,0-.1,0-.15.01h-.16c-.89.07-1.78-.04-2.67-.04-.84,0-1.7.03-2.54.04-.64,0-1.28.08-1.9.21-.46.09-.62.36-.62.83,0,.09,0,.18-.01.26v.22c0,.08,0,.16,0,.24v.14c0,.16,0,.31,0,.47.04.28-.04.57.1.83.25.24.58.13.87.21.19.05.26.13.17.27-.13.21.09.56-.28.67-.02.08,0,.17-.08.23,0,.08.03.18-.08.23.02.23-.12.4-.16.61.02.05-.01.08-.06.08h0c-.07.35-.16.65-.64.6-.43-.04-.87-.01-1.3,0-.44.01-.46-.38-.55-.62-.23-.59-.3-1.23-.68-1.77-.1-.14-.04-.29.19-.29.23,0,.46,0,.68,0,.09-.07.17-.15.26-.22l.03-.46-.02-.23c0-.61-.06-1.22,0-1.84.02-.22-.47-.55-.81-.55-1.39,0-2.79-.04-4.18.02-1.87.08-3.73-.07-5.6,0-.41.02-.82,0-1.23,0-.07,0-.13,0-.15-.08-.16.12-.35.08-.53.07-.95.04-1.9-.02-2.84.02-.9.04-1.8.02-2.7,0-.76,0-1.52.1-2.28-.03-.34-.06-.69.1-1.05.07-.95-.07-1.91-.03-2.87-.06-1.54-.03-3.08.01-4.63.03-.87,0-1.75.04-2.62.07-.82.02-1.64,0-2.47-.01-.38,0-.76,0-1.14,0h-.02c-.18.12-.22.4-.48.43-.1.48-.05.96-.11,1.44,0,.06,0,.11,0,.17.08.38-.06.78.1,1.15.24.1.46.23.74.2.24-.03.39.05.26.35-.23.55-.24,1.17-.57,1.69-.02.06-.04.12-.07.17-.1.18-.28.3-.47.36-.07.02-.14.02-.21.01-.42.09-.84.12-1.27.09-.16-.01-.26-.13-.32-.24-.26-.48-.49-.98-.6-1.52-.03-.16-.09-.27-.18-.4-.09-.13-.11-.29,0-.42.09-.12.19-.14.36-.09.37.12.64-.1.65-.49.01-.76.01-1.52-.06-2.27-.03-.3-.42-.57-.84-.57-.93,0-1.86,0-2.79,0-.65,0-1.29-.01-1.94,0-.11,0-.18-.02-.23-.07-.1.01-.2.02-.29.01,0,0,0,0-.01.01-.22.13-.49.14-.75.11-.24.05-.49,0-.73-.03-.11.04-.23.05-.36-.02-.02,0-.04-.01-.06-.02-.05,0-.1,0-.15,0-.07,0-.14.03-.21.05-.23.06-.39.04-.48-.04-.13,0-.27,0-.4,0,0,.01,0,.03,0,.04-.27.01-.53.03-.8.04-1.08,0-2.16-.07-3.23-.06-1.36.02-2.72.02-4.07.07-.72.03-1.43.09-2.15-.03-.22-.04-.47.07-.71.04h0c-.12.24-.38.29-.56.45-.08.25-.12.5-.1.76,0,.05.01.1.02.16,0,.05,0,.1,0,.14,0,.06-.01.11-.02.17.07.4.01.8.01,1.21,0,.03,0,.06,0,.09.06.23-.03.53.32.61.28,0,.55-.01.83,0,.21,0,.42-.03.19.32-.14.21-.18.5-.36.72-.02.03-.05.06-.07.09.02.06.01.1-.05.11-.06.36-.29.64-.47.94-.04.07-.09.12-.08.2-.04.29-.29.41-.51.45-.44.07-.88-.04-1.32-.08-.18-.02-.13-.2-.13-.31,0-.48.02-.96.03-1.44-.01-.1-.02-.2.02-.3-.02-.02-.02-.05,0-.07,0-.2-.02-.41-.03-.61,0-.03,0-.06,0-.08-.04-.71-.03-1.42,0-2.13-.15-.25-.18-.51-.03-.77v-.16c-.13-.23-.13-.45,0-.68,0-.06,0-.11.01-.17-.17-.3-.15-.6-.01-.9,0-1.99,0-3.98-.01-5.97-.04-.11-.04-.21.01-.31-.02-.53-.04-1.07-.06-1.6,0-.58-.02-1.15-.04-1.73-.02-1.01.12-2.03-.06-3.04-.04-.23.01-.45.09-.67,0-.2,0-.39,0-.59-.03-.23-.06-.47,0-.7,0-.05,0-.09,0-.14,0-.06.02-.08.05-.08-.01-.05-.03-.1-.05-.15,0,.02.02.04.03.07-.03-.06-.05-.12-.05-.19,0-.03,0-.07.01-.1,0-.03.03-.06.05-.09-.05-.12-.05-.31-.04-.64,0-.07,0-.15,0-.22,0-.3-.01-.61-.02-.91-.2-.23,0-.46,0-.69-.03-.33-.06-.65,0-.98,0-.06,0-.11,0-.17-.05-.43-.01-.86,0-1.29v-.17c-.01-.38-.02-.76-.03-1.14-.11-.05-.07-.15-.07-.23,0-1.43.02-2.86.03-4.29,0-.17,0-.35,0-.52-.02-.23-.04-.46.02-.68-.01-.13-.03-.26-.04-.38,0-.03,0-.06,0-.08,0-.18,0-.35.01-.53-.05-.08-.05-.15.02-.22,0-.14,0-.27,0-.41-.16-.02-.12-.13-.12-.23.02-.38-.03-.76.08-1.13,0-.31.16-.56.29-.83.08-.24.17-.46.44-.55h0c.03-.25.22-.35.41-.45.51-.27,1.04-.45,1.61-.54.07-.01.14-.04.21-.06.39-.12.78-.26,1.17-.34.36-.07.67-.29,1.05-.33.21-.02.4-.11.62-.1.32.01.53-.27.85-.31.7-.09,1.32-.5,2.04-.54.61-.28,1.23-.53,1.91-.53.1-.03.2-.06.3-.09.16-.3.48-.21.73-.3.64-.22,1.32-.3,1.94-.6.22-.11.47-.15.72-.18.83-.13,1.63-.4,2.41-.66,1.18-.38,2.4-.61,3.54-1.12.21-.09.43.02.64-.08.75-.36,1.57-.45,2.36-.68,0-.02.02-.04.05-.05.03-.09.1-.1.18-.07.78-.02,1.49-.36,2.21-.58.59-.18,1.21-.33,1.79-.56.48-.19,1-.27,1.5-.4.28-.28.68-.27,1-.33.36-.07.7-.25,1.07-.27.21.03.39-.09.6-.1.22-.23.55-.27.81-.34.64-.15,1.25-.41,1.89-.54.29-.06.43,0,.42.33-.02.57,0,1.14,0,1.71,0,.22-.08.4-.27.53,0,.02-.01.05-.02.07-.08.28-.28.35-.52.29-.24-.06-.17-.27-.17-.44,0-.15.02-.3.02-.46-.02-.43-.34-.61-.77-.57-.65.06-1.19.31-1.67.72l-.05.07c-.07.26-.27.42-.4.64-.03.07-.07.14-.1.21,0,.12.05.27-.15.29v.02c-.09.22-.04.48-.17.69-.03.13-.05.25-.08.38.03.11.03.22,0,.33v.13c0,.11.01.21.02.32.06,1.17.62,2.06,1.55,2.73.39.28.84.38,1.32.33.25-.02.34-.22.47-.38,0-.28,0-.56-.02-.84-.01-.18.05-.28.23-.3.4-.05.58.16.66.52.02.04.03.08.05.12h0c.12.06.11.17.11.27,0,2.55.02,5.1.03,7.65,0,.08-.02.15-.03.23.01.48.02.97.04,1.45,0,.03,0,.05,0,.08,0,.33.01.66.02.99,0,.03,0,.06,0,.08v.91c.03.08.03.15,0,.23,0,.2,0,.4,0,.61,0,.03,0,.06,0,.08,0,.23,0,.45,0,.68v.08c0,.31.13.56.34.77.89.01,1.77.03,2.66.03,1.1,0,2.2-.02,3.3-.03,2.1,0,4.21-.01,6.31-.02.07,0,.16-.02.2.07.18,0,.35,0,.53,0,.25-.16.51-.04.77-.06.05,0,.1,0,.15,0,.26,0,.51,0,.77,0l.3-.02c.38,0,.77.01,1.15.02h.3c.15,0,.31,0,.46,0,.08,0,.15,0,.23,0,.2,0,.41,0,.61,0,.89.17,1.78-.07,2.68,0,.1,0,.2,0,.31,0,.13,0,.26,0,.38,0,.26.02.51-.26.77-.02.12,0,.25,0,.37,0,.13-.11.26-.12.39,0,.07,0,.15,0,.22,0,.02-.15.13-.12.23-.13.8,0,1.59-.01,2.39-.03.08,0,.15.03.21.06.11,0,.22,0,.33,0,.02-.02.04-.04.08-.04.6,0,1.2,0,1.8,0,.03,0,.05.04.08.07.05,0,.1,0,.15,0,.35-.19.73-.07,1.1-.09.6-.03,1.21,0,1.81-.02.1,0,.16.04.23.1.65-.15,1.32-.05,1.98-.09.15,0,.3,0,.45,0,.2-.08.41-.04.62-.02.08,0,.16,0,.24,0,.08,0,.15,0,.23,0,.05,0,.1,0,.16,0,.23,0,.46,0,.69-.01.27-.06.36-.26.47-.49.25-.48.28-1,.38-1.51-.02-.26-.06-.53.22-.69.54-.18.82-.1,1.07.31.06,0,.13,0,.15.07h0s.05.05.08.08c.02,0,.04.02.06.03.14,0,.16.1.15.21h0c.13.07.22.14.22.31-.01.67-.02,1.34,0,2.01,0,.24-.11.35-.29.43-.6.26-.85.75-.87,1.38,0,.05,0,.1.01.15.13.17.06.35.07.54.22.2.19.61.55.7,1.33.03,2.66.12,4,.05.56-.03,1.11,0,1.67.02.27.01.51-.1.76-.15h0c.01-.09.08-.08.14-.09.17-.26.43-.47.42-.82v-.08l-.04-1.74c-.48-.4-.82-.94-1.34-1.29-.18-.12-.27-.32-.4-.49h0c-.17-.11-.28-.25-.21-.46,0-.12,0-.25,0-.37,0-.03,0-.06,0-.08,0-.13,0-.26,0-.38-.21-.38-.05-.8.35-.82,1-.04,1.99-.06,2.99,0,.05,0,.1,0,.16,0,.07-.02.13-.02.12.08v2.59s0,.06,0,.08c0,.23,0,.45,0,.68,0,.03,0,.06,0,.08,0,.15,0,.3,0,.45,0,.03,0,.06,0,.08v.76c0,.05,0,.11,0,.16,0,.15,0,.3,0,.46,0,.08,0,.16,0,.23,0,.05,0,.1,0,.15,0,.03,0,.06,0,.08,0,.08.01.16.02.24l.03.04s-.02,0-.03.01c0,.11,0,.22,0,.33l.06.03-.05.04c0,1.14,0,2.29,0,3.43.11.54.03,1.08.06,1.62.04.78.01,1.56.02,2.34,0,.87.03,1.74-.04,2.61,0,.2,0,.4,0,.6,0,1.2.05,2.4,0,3.6,0,.18.08.36,0,.54,0,.18.04.35-.01.53,0,.03,0,.05,0,.08,0,.18,0,.36,0,.53.02.13.05.25,0,.38,0,.15,0,.31,0,.46v.16c.02.46.02.91.02,1.37,0,.03,0,.06,0,.08,0,.12,0,.25,0,.37,0,.03,0,.06,0,.08,0,.05,0,.09,0,.14,0,.03,0,.06,0,.09,0,.07,0,.14,0,.21.05.08.05.16,0,.25,0,.2,0,.4,0,.59,0,.06,0,.11,0,.17,0,.32.11.64-.03.96.05.02.08.05.06.1,0,.36-.02.71-.02,1.07v.08s.03.23.03.23c.02.01.04.02.06.03-.02.01-.04.02-.06.03Z"/>
    <path class="cls-8" d="m50.34,45.59s0-.06,0-.08c-.03-1.25-.05-2.49-.02-3.74-.03-.06-.03-.11,0-.16,0-.23,0-.45-.01-.68,0-.1,0-.21,0-.31,0-.58,0-1.17,0-1.75-.04-.06-.02-.11,0-.17,0-.1,0-.2,0-.3,0-.03,0-.06,0-.08-.07-.56,0-1.12,0-1.67-.07-.13-.08-.26,0-.39-.09-.35.05-.71-.03-1.06-.1-.15-.07-.33-.04-.48.08-.47-.16-.78-.48-1.06-.2-.17-.46-.06-.69-.13-.43-.13-.75-.37-1.07-.68-.37-.35-.69-.72-.89-1.18,0-.02-.01-.05-.02-.07-.09-.06-.19-.11-.21-.24,0-.03-.01-.05-.02-.08-.03-.02-.09-.03-.09-.06-.15-.62-.48-1.2-.43-1.87,0-.05.01-.1.06-.12-.02-.4.1-.81-.14-1.2-.07-.12-.17-.16-.25-.25-.56-.03-1.08.07-1.57.36-.29.18-.66.08-.99.18-.87.27-1.76.53-2.64.79-1.02.3-2.02.65-3.05.9-.74.18-1.46.41-2.19.62-1.12.33-2.24.63-3.35,1.01-.93.32-1.9.53-2.84.82-.92.28-1.85.51-2.77.78-.45.13-.91.25-1.37.37-.59.16-1.2.29-1.78.49-1.46.51-2.98.82-4.45,1.32h0c0,.12-.03.2-.14.24,0,.05-.02.1-.02.15,0,1.4,0,2.79,0,4.19,0,.16.07.33,0,.49,0,.07,0,.14,0,.21,0,.03,0,.06,0,.09.02.74.08,1.49-.06,2.23-.04.21.14.38.07.59v.08c.04.12.04.25,0,.37,0,.02.01.04.02.05,0,0,0,.02,0,.03,0,.05,0,.1,0,.15.04.08.03.16,0,.24,0,.18.01.35.02.53.05.1.05.2,0,.3l.03.7s.04.09,0,.13c0,.06,0,.11,0,.17.04.13.01.25-.02.37.06.18.04.36,0,.53.08.13.05.26,0,.39l.02.16c.04.08.03.15-.02.22,0,.23,0,.46,0,.68.03.05.03.1,0,.16,0,.05,0,.1,0,.15.07.54.04,1.07.05,1.61.06.08.12.16.18.23.22.08.48.03.69.17.84-.14,1.68-.16,2.52-.24.78-.07,1.56-.09,2.33-.21.63-.1,1.26-.1,1.88-.18.08,0,.15,0,.23-.01,0-.04.03-.07.08-.06.02,0,.05,0,.07,0,.54.05,1.07-.15,1.61-.07.23,0,.45-.02.68-.02.06-.1.1-.2.24-.2.46-.02.92-.05,1.37-.08.03,0,.05-.01.08-.02.01-.02.02-.04.04-.06.01.02.02.04.04.06h0c.74-.13,1.5-.13,2.25-.17.23,0,.4-.09.59-.16.15-.06.29-.06.45-.04,1.22-.06,2.44-.23,3.67-.17.03-.13.07-.22.24-.21.42.01.84,0,1.25-.04.05-.03.11-.05.18-.05.17,0,.34,0,.51.01.07-.08.21-.07.34-.08.58-.04,1.16-.04,1.73-.11.14-.07.28-.14.43-.19.81-.27,1.73-.12,2.58-.09.06-.04.16-.07.24-.06.69.07,1.22-.39,1.81-.61.31-.11.65-.19.93-.38.34-.24.79-.26,1.1-.57.08-.08.25-.08.38-.11.27-.06.53-.15.59-.47-.02-.07-.03-.13.06-.16.01-.08.02-.15.03-.23,0-.03,0-.06,0-.08-.05-.13,0-.25,0-.38Zm-.48.7s0,.04-.03.05c.01.05-.02.07-.06.07-.11.11-.23.17-.39.15-.16.13-.33.13-.51.11-.09.05-.18.1-.29.13h.18s.01.06.02.09c-.54.23-1.08.45-1.61.68-.05.02-.11.04-.16.06-1.03.66-2.18.65-3.34.63-.09,0-.18,0-.25-.07-.05,0-.1.02-.15.03-.86.24-1.73.36-2.63.35-.18,0-.36.06-.55.06-.05,0-.08-.02-.11-.03-.04.01-.07.03-.11.04,0,0,0,0,0,0,0,0-.01,0-.02,0-.03,0-.06.01-.08.02-.12.03-.24.05-.36.05,0,0-.02,0-.02,0-.08-.01-.16-.02-.24-.03-.69.11-1.39.19-2.09.24-.08,0-.15,0-.23.01-.3.17-.61.07-.92.06-.05,0-.1,0-.16.01-.41.22-.87.08-1.29.17-.81.16-1.63.25-2.45.31-.29.02-.58.05-.86.05-1.05.01-2.06.37-3.11.32-.22-.01-.45.14-.66.06-.16.05-.33.05-.49.07-.03,0-.05,0-.08-.02-.14.06-.32.01-.44.02-1.09.07-2.15.32-3.25.34-1.03.02-2.05.2-3.08.31-.52.06-.65,0-.7-.4v-.61s0-.23,0-.23c0-.07,0-.15,0-.22,0-.05,0-.11,0-.16,0-.1,0-.2.01-.3-.06-.28-.07-.56,0-.84,0-.05,0-.1,0-.16-.13-.06-.11-.14-.04-.23,0-.28.01-.56.02-.84,0-.05,0-.1,0-.16,0-.25,0-.51,0-.76,0-.03,0-.05,0-.08-.02-.1-.05-.2,0-.3-.02-.13-.05-.26.02-.39,0-.1,0-.2-.01-.3,0-.02-.02-.03-.02-.05,0,0,0-.02,0-.03,0-.05.02-.1.02-.15-.05-.13-.08-.25-.02-.38,0-.33,0-.66,0-.99,0-.04,0-.08.02-.1-.01-.08-.03-.16-.02-.25-.08-.03-.14-.09-.13-.21.04-.63.08-1.27.11-1.9,0-.05,0-.09,0-.14,0-.02-.02-.04-.02-.05,0,0,0-.02,0-.03-.01-.22-.02-.45.03-.67.03-.13-.21-.25-.03-.39,0-.64,0-1.27,0-1.91-.07-.21-.07-.42.01-.63-.04-.25-.04-.5,0-.75-.04-.13-.05-.24.11-.3.71-.18,1.37-.56,2.07-.65.9-.13,1.7-.51,2.55-.74.66-.17,1.34-.3,1.97-.62.23-.12.54-.08.8-.16.7-.23,1.42-.38,2.11-.64.41-.16.87-.16,1.27-.33.78-.31,1.63-.33,2.4-.68.28-.13.6-.15.91-.22.15-.03.3-.06.45-.09h0c.12-.28.41-.21.62-.29.35.01.64-.21.98-.25.31-.1.61-.25.92-.28.26-.03.47-.15.7-.23.38.03.74-.14,1.08-.26.51-.18,1.06-.2,1.54-.39.4-.16.79-.31,1.2-.42.79-.23,1.58-.46,2.37-.69.34.02.66-.1.99-.16.13-.13.24-.27.45-.26.32,0,.62-.24.96-.12.09.03.17.05.19.16.09.54-.07,1.09.08,1.62.17.63.23,1.28.66,1.84.28.36.55.74.81,1.12.31.35.75.52,1.09.82.11.09.28.03.37.17.31.01.62-.02.82.32.12.2.06.38.08.58.02.19.01.37.02.56.04.08.02.16,0,.23,0,.15,0,.31.01.46,0,.05-.02.1-.03.16,0,.13,0,.25,0,.38v.08c0,.07,0,.15.01.22.05.18.08.36,0,.54,0,.05,0,.1,0,.15.03.54.11,1.07-.01,1.61,0,.13.1.25.01.38.1.63.05,1.27.06,1.91.01.66.04,1.33-.02,1.99,0,.05.02.1.02.15.03.71.03,1.43-.01,2.14.02.16.08.32-.02.48Z"/>
  </g>
  <g>
    <g>
      <line class="cls-4" x1="119.75" y1="52.77" x2="119.75" y2="72.37"/>
      <path d="m119.75,73.5c-.2-.53-.54-1.2-.89-1.61l.89.32.89-.32c-.36.41-.7,1.07-.89,1.61Z"/>
    </g>
    <g>
      <line class="cls-1" x1="119.75" y1="42" x2="119.75" y2="24.82"/>
      <path d="m119.75,23.78c.18.49.49,1.1.82,1.47l-.82-.3-.82.3c.33-.38.64-.98.82-1.47Z"/>
    </g>
    <line class="cls-4" x1="120.79" y1="73.33" x2="118.72" y2="73.33"/>
    <line class="cls-1" x1="120.79" y1="23.78" x2="118.72" y2="23.78"/>
  </g>
  <text class="cls-5" transform="translate(106.2 50.62)"><tspan x="0" y="0">48mm</tspan></text>
  <text class="cls-5" transform="translate(43.75 17.73)"><tspan x="0" y="0">80mm</tspan></text>
  <text class="cls-6" transform="translate(49.44 87.69)"><tspan x="0" y="0">T80</tspan><tspan class="cls-7" x="18.28" y="0">-</tspan><tspan x="22.13" y="0">GD</tspan><tspan class="cls-9" x="37.87" y="0">K</tspan><tspan x="44.17" y="0">C</tspan></text>
</svg>