<?xml version="1.0" encoding="UTF-8"?>
<svg id="T80-S_II_" data-name="T80-S(II)" xmlns="http://www.w3.org/2000/svg" viewBox="0 0 150 100">
  <defs>
    <style>
      .cls-1 {
        fill: none;
        stroke: #231f20;
        stroke-miterlimit: 10;
        stroke-width: .2px;
      }

      .cls-2 {
        font-size: 12px;
      }

      .cls-2, .cls-3 {
        fill: #231f20;
        font-family: MyriadPro-Regular, 'Myriad Pro';
      }

      .cls-3 {
        font-size: 9px;
      }
    </style>
  </defs>
  <path d="m117.27,19.57c-.29-.19-.29-.44-.29-.67,0-2,0-4,0-6,0-.14-.08-.35.16-.36.22,0,.21.19.21.34,0,2.15,0,4.31,0,6.46,0,.06-.04.12-.08.23Z"/>
  <g>
    <path d="m90.7,20.44c7.73,0,15.46,0,23.19,0,2.95,0,5.91-.02,8.86-.02.38,0,.76.02,1.13.05,1.41.12,2.09.65,2.44,2.02.22.88.35,1.78.5,2.67.25,1.52.48,3.04.75,4.56.06.37-.01.52-.41.55-.96.08-1.92.14-2.87-.05-.74-.15-1.07-.76-.96-1.5.09-.6.56-.57.93-.59.52-.03.58-.23.5-.69-.22-1.26-.4-2.53-.65-3.79-.05-.23-.16-.36-.35-.38-1.5-.14-3.02-.35-4.46.25-.73.3-1.05,1.01-1.11,1.79-.05.65-.06,1.3-.07,1.95,0,.53.21.78.73.87.03,0,.07,0,.1.02.32.11.82-.1.84.51.03.73-.33,1.41-.85,1.55-.38.1-.78.11-1.18.11-4.14,0-8.28,0-12.42,0-.41,0-.82.03-1.22.14-1.02.28-1.38.85-1.13,1.88.24,1,.52,1.98.79,2.97.15.53.22,1.07.22,1.62,0,4.73,0,9.45,0,14.18,0,.82.01.79.78.97.88.22,1.77.39,2.62.74.29.12.43.3.46.61.21,2.01-.86,2.99-2.79,2.95-.12,0-.24-.04-.36-.02-.66.07-1.09-.13-1.37-.81-.27-.66-.96-.38-1.47-.33-.48.04-.81.38-.85.89-.04.41-.04.82-.04,1.23,0,1.15.03,2.29-.04,3.44-.02.38,0,.75.08,1.12.1.49.42.78.91.83.53.05,1.06.07,1.59.09.34.02.58-.19.8-.4.37-.36.74-.72,1.08-1.1.44-.51.99-.69,1.65-.68,1.51.03,1.69.18,1.68,1.68,0,1.04-.04,2.09-.04,3.13,0,.22-.06.26-.26.26-.72,0-1.43.03-2.15.03-11.44,0-22.88,0-34.32.01-4.57,0-9.14,0-13.71,0-.44,0-.89-.04-1.33-.13-1.14-.22-1.86-1.12-1.87-2.43-.03-2.64-.02-5.27-.03-7.91,0-.74,0-1.47-.01-2.21,0-.4.13-.56.59-.5.73.09,1.47.07,2.21.06.33,0,.51.13.6.44.12.43.32.83.38,1.28.09.6.05.66-.54.72-.1,0-.21.02-.31.02-.32,0-.55.1-.54.46.01.32.08.62.5.64.19,0,.38.04.56.05,1.51,0,3.02-.01,4.53.03.61.02.56-.34.57-.72,0-.36-.08-.56-.54-.5-.65.09-.94-.22-.95-.85,0-.19,0-.38,0-.57-.01-.89.16-1.06,1.08-1.06,1.25,0,2.51,0,3.76,0,3.99,0,7.97,0,11.96,0,.84,0,1.68.06,2.52,0,.38-.03.6-.18.71-.54.12-.36.15-.74.15-1.11,0-3.51,0-7.02-.01-10.53,0-1.71,0-3.42-.01-5.14,0-.19-.01-.38-.05-.56-.14-.77-.53-1.08-1.3-1.08-5.77,0-11.54,0-17.32,0-1.44,0-1.57-.14-1.53-1.55.02-.79.09-.85.91-.88.29-.01.59.05.63-.4.06-.61-.01-.76-.63-.77-1.67,0-3.33.02-5,.03-.28,0-.6.02-.58.41.01.34.04.71.51.76.03,0,.07.01.1.02.28.1.69-.14.84.21.12.28-.13.59-.18.89-.01.08-.05.16-.07.25-.22.95-.22.96-1.17,1.01-.69.04-1.37.04-2.06-.04-.2-.02-.36-.05-.35-.32.02-3.29.03-6.57.04-9.86,0-.05,0-.1,0-.15.06-1.74,1.14-2.81,2.88-2.81,6.53,0,13.05.02,19.58.03,4.41,0,8.83,0,13.24,0,0,0,0,0,0,0Zm.05.52h0c-8.35-.01-16.7-.01-25.04-.01-2.7,0-5.39,0-8.09.02-1.35.01-2.2.92-2.19,2.26,0,.6,0,1.2.01,1.79.05,2,.1,4-.02,6-.03.56-.03,1.13-.04,1.69,0,.37.17.52.55.48.55-.07,1.1-.06,1.64,0,.27.03.46-.06.54-.35.08-.28.19-.55.27-.83.08-.28.03-.48-.33-.45-.12.01-.24,0-.36-.01-.53-.07-.76-.43-.73-1.11.03-.53.26-.78.8-.78,1.67-.02,3.33-.02,5-.03,1.03,0,1.19.16,1.14,1.2,0,.02,0,.03,0,.05,0,.43-.09.71-.63.71-.3,0-.75-.07-.88.44-.2.81,0,1.1.86,1.1,4.69,0,9.38,0,14.07,0,1.22,0,2.44-.01,3.66,0,1.01,0,1.45.41,1.56,1.4.03.27.05.55.05.82,0,4.3.02,8.59.02,12.89,0,1.13-.02,2.26-.09,3.39-.06.99-.42,1.33-1.3,1.38-.91.05-1.82.09-2.73.1-3.74.01-7.49,0-11.23,0-1.42,0-2.85.02-4.27,0-.41,0-.56.14-.55.53,0,.15.03.31,0,.46-.08.5.19.61.62.62.81.02.81.03.85.86,0,.1,0,.21.01.31.04.5-.22.74-.69.75-1.84.02-3.67.09-5.51,0-.48-.02-.7-.28-.75-.74-.11-.93.07-1.17,1.02-1.22.34-.02.48-.13.36-.48-.07-.19-.12-.39-.17-.59-.11-.45-.4-.65-.86-.62-.45.02-.89.04-1.34.01-.39-.03-.49.12-.5.5-.05,3.17.08,6.33-.05,9.5-.05,1.24.58,1.94,1.78,2.21.82.18,1.64.09,2.46.09,13.11,0,26.21,0,39.32,0,3,0,6.01-.05,9.01.05.24,0,.3-.08.3-.29,0-1.16,0-2.33,0-3.49,0-.24-.08-.46-.34-.51-.94-.17-1.85-.2-2.54.66-.28.35-.6.66-.9.99-.32.35-.72.51-1.2.5-.38,0-.76.01-1.13,0-1.03-.05-1.54-.53-1.62-1.55-.04-.51-.04-1.03-.04-1.54,0-1.3-.09-2.6.03-3.9.05-.53.23-1.03.78-1.23.68-.26,1.37-.3,2.04.02.12.06.25.22.28.35.11.5.47.58.89.58.4,0,.79.03,1.18,0,1.11-.08,2.01-1.13,1.67-2.5-.05-.2-.21-.3-.41-.35-.9-.24-1.78-.51-2.7-.66-.66-.11-.74-.19-.74-.86,0-2.96,0-5.92,0-8.89,0-1.75-.04-3.5.03-5.24.04-.87-.08-1.69-.3-2.52-.26-.96-.55-1.91-.7-2.89-.14-.95.25-1.6,1.15-1.89.61-.2,1.25-.21,1.88-.21,4.11,0,8.21,0,12.32.01.29,0,.59,0,.86-.11.47-.17.56-.64.57-1.01,0-.4-.42-.22-.66-.24-.6-.04-.91-.31-.95-.92-.05-.75-.05-1.5,0-2.26.1-1.43.84-2.31,2.24-2.53,1.16-.18,2.33-.16,3.5-.09.7.04.96.4,1.06,1.09.14,1.01.3,2.03.5,3.03.23,1.18.26,1.56-1.06,1.7-.3.03-.39.18-.31.49.14.55.42.8,1.13.83.63.03,1.27-.01,1.9.04.4.03.51-.05.47-.47-.23-2.21-.73-4.38-1.12-6.57-.22-1.28-.91-1.98-2.4-1.98-10.98,0-21.95,0-32.93,0Z"/>
    <path d="m34.59,20.94c.5,1.24.95,2.31,1.35,3.41.11.3.47.63.28.9-.15.22-.6.08-.91.08-.48,0-.59.19-.59.66.02,2.25-.02,4.5-.02,6.76,0,1.5.06,3.01.04,4.51-.01.92-.11,1.84.02,2.75.01.1-.05.17-.15.18-.16.01-.13-.1-.13-.21,0-2.83.01-5.66.02-8.5,0-1.12,0-2.24.01-3.36,0-.8-.02-1.6,0-2.4,0-.37-.23-.36-.48-.41-.33-.06-.81.17-.96-.16-.09-.21.2-.6.33-.91.42-1.04.86-2.06,1.18-3.31Z"/>
    <path d="m34.7,63.8c-.59-1.28-.99-2.56-1.53-3.79-.1-.24-.07-.41.25-.41.05,0,.11,0,.16,0,.97-.02,1-.02.94-.99-.09-1.4.11-2.8-.05-4.19-.01-.12.02-.21.16-.21.12,0,.19.06.16.2-.2,1.01.11,2.02.01,3.03-.05.56-.04,1.12-.07,1.68-.02.38.13.52.52.51,1.06-.02,1.08,0,.7,1.01-.4,1.06-.83,2.11-1.24,3.16Z"/>
    <path d="m118.85,15.41c.61-.02,1.19-.19,1.77-.08.31.06.41-.09.45-.35,0-.05,0-.1.01-.15q.08-.95.94-.59c.97.41,1.94.84,2.97,1.14-.13.27-.4.27-.61.36-.92.39-1.85.74-2.76,1.13-.45.19-.59.07-.53-.38,0-.02,0-.03,0-.05q-.02-.91-.91-.92c-.14,0-.27,0-.41-.02-.31-.03-.61-.06-.92-.09Z"/>
    <path d="m57.62,15.39c1.22-.47,2.44-.88,3.58-1.46.31-.16.32.09.33.26.02.6.04,1.19.02,1.79-.03,1.06-.04,1.07-1.02.7-.83-.31-1.66-.64-2.49-.96-.15-.06-.32-.12-.42-.33Z"/>
    <path d="m34.72,20.94c-.99,0-1.99,0-2.98,0-.22,0-.59.04-.6-.23,0-.28.36-.27.58-.27,2-.01,4.01,0,6.01,0,.07,0,.14.01.2.03.15.03.34.02.35.23,0,.22-.19.21-.33.23-.22.02-.44.03-.67.04-.86,0-1.71,0-2.57,0Z"/>
    <path d="m31.09,65.52c.24-.21.51-.22.79-.22,1.94,0,3.87,0,5.81,0,.07,0,.14,0,.21,0,.17,0,.32.07.31.26-.01.18-.17.18-.31.18-.38,0-.75,0-1.13,0-1.58,0-3.15,0-4.73,0-.32,0-.64,0-.93-.23Z"/>
    <path d="m55.09,15.49c0,1.02,0,2.05,0,3.07,0,.16.03.4-.19.4-.18,0-.18-.22-.19-.37-.03-.34-.06-.68-.06-1.02-.03-1.71-.04-3.41.06-5.12,0-.15-.08-.4.17-.41.29-.01.21.26.21.43,0,1.01,0,2.01,0,3.02Z"/>
    <path d="m83.17,15.44c-.61-.01-1.21.21-1.82,0,.6-.16,1.21-.02,1.82,0Z"/>
    <path d="m94.12,15.4c-.36.22-.73.04-1.09,0h1.09Z"/>
    <path d="m105.24,15.4c-.27.1-.53.13-.8,0h.8Z"/>
    <path d="m85.17,63.48c-4.14,0-8.28,0-12.41,0-.56,0-1.13,0-1.67-.22-.29-.12-.41-.3-.43-.62-.11-2.31-.03-4.62-.04-6.93,0-.9.11-.99,1.03-.99,3.38-.01,6.77,0,10.15,0,1.07,0,2.02-.22,2.57-1.25.32-.59.31-1.26.32-1.9.03-1.64.02-3.29,0-4.93,0-.49.15-.78.63-.91.28-.07.55-.18.83-.27.3-.09.72-.08.67-.54-.05-.43-.42-.42-.76-.43-.29,0-.58-.06-.87-.08-.32-.02-.46-.21-.47-.51-.02-.51-.01-1.03-.02-1.54,0-.3.19-.42.43-.5.44-.16.91-.18,1.37-.2.17,0,.36,0,.43-.21.06-.17-.08-.28-.17-.4-.29-.39-.73-.41-1.14-.51-.91-.22-.92-.25-.93-1.16-.02-1.88.11-3.77-.06-5.64-.11-1.25-1.01-2.02-2.28-2.07-.2,0-.41-.03-.61-.06-.91-.12-1.01-.23-1.03-1.12-.02-.63,0-1.27-.02-1.9-.01-.28.1-.38.36-.36.24.01.48.02.72.05,2.42.37,4.84.75,7.26,1.13,2.69.42,5.39.78,8.08,1.21,1.14.18,2.3.39,3.46.45.28.02.38.16.37.38-.07,1.47.43,2.83.83,4.2.17.59.22,1.2.07,1.83-.09.38-.29.55-.67.55-.51,0-1.03-.02-1.54.12-.29.08-.63.14-.57.52.05.36.24.65.69.7.5.05.99.07,1.49.05.39-.02.58.13.62.51.02.24.07.47.07.71,0,3.63.01,7.26.02,10.89,0,.29,0,.58-.04.87-.05.46-.25.78-.73.94-1.46.48-2.11,1.56-2.14,3.04-.03,1.87-.02,3.73-.03,5.6,0,.19,0,.38-.04.56-.09.61-.37.88-1,.88-1.56,0-3.12.07-4.69.05-2.7-.03-5.39,0-8.09,0,0,.01,0,.03,0,.04Zm-.47-.44s0-.01,0-.02c2.94,0,5.87,0,8.81,0,1.39,0,2.78.02,4.17,0,.83-.02.93-.17.92-.99-.02-1.83-.04-3.66-.04-5.49,0-1.6.59-2.85,2.18-3.48.79-.31.79-.33.78-1.2,0-3.73,0-7.47,0-11.2,0-.87.01-.87-.89-.87-.51,0-1.03.08-1.52-.16-.45-.22-.58-.53-.5-1.17.06-.43.27-.66.72-.71.5-.06.99-.09,1.49-.09.45,0,.66-.23.68-.65.03-.57-.02-1.12-.22-1.67-.4-1.13-.8-2.26-.74-3.49.02-.38-.21-.45-.52-.49-4.51-.66-9.03-1.33-13.54-2-1.44-.21-2.88-.45-4.32-.67-1.05-.16-1.11-.11-1.1.91,0,.12,0,.24,0,.36.07,1.12.15,1.19,1.27,1.22,1.24.03,2.15.73,2.51,1.91.17.57.18,1.15.18,1.73,0,1.52,0,3.05,0,4.57,0,.44.12.7.62.71.4,0,.75.23,1.13.34.52.16.61.55.57,1.01-.04.46-.42.48-.75.55-.15.03-.31.03-.46.03-1.09.03-1.15.08-1.1,1.19,0,.03,0,.07,0,.1.05.64.11.7.74.69.34,0,.69-.02,1.01.11.33.14.52.38.56.73.04.34-.1.58-.38.78-.31.21-.65.28-1.01.32-.67.07-.85.27-.9.94-.01.2,0,.41,0,.62-.06,1.59.08,3.19-.05,4.77-.16,1.82-1.21,2.77-3.04,2.78-2.68,0-5.36,0-8.04,0-.81,0-1.61,0-2.42,0-.38,0-.54.16-.54.57.02,2.09.02,4.18.02,6.27,0,.98.15,1.12,1.14,1.12,4.19,0,8.38,0,12.57,0Z"/>
    <path d="m68.78,22.75c3.12,0,6.25,0,9.37,0,.17,0,.34,0,.51,0,.99.03,1.26.29,1.26,1.26,0,2.14,0,4.28-.01,6.41,0,.79-.23,1.03-1,1.16-.17.03-.34.05-.51.05-3.96,0-7.93,0-11.89-.01-.7,0-1.06-.35-1.12-1.04-.04-.43-.07-.86-.28-1.24-.41-.73-1.03-1.1-1.89-1.09-1.72.02-3.43.02-5.15.02-.91,0-1.17-.25-1.18-1.15-.01-.77-.01-1.54,0-2.31.01-1.35.65-2,2.02-2.05.63-.02,1.27,0,1.9,0,2.66,0,5.32,0,7.98,0,0,0,0-.01,0-.02Zm-.12.4c-3.21,0-6.42,0-9.64,0-.35,0-.68.05-1.01.14-.42.12-.61.38-.65.81-.09.89-.04,1.78-.03,2.67,0,.89.16,1.02,1.06,1.04.12,0,.24,0,.36,0,1.53,0,3.06-.02,4.59,0,1.17,0,1.81.48,2.18,1.59.09.26.14.53.18.8.14.98.14.98,1.1.98,3.9,0,7.8,0,11.7.01.86,0,1.04-.13,1.05-1.01.03-2.07,0-4.14.02-6.21,0-.5-.25-.71-.69-.78-.17-.03-.34-.03-.51-.03-3.23,0-6.46,0-9.69,0Z"/>
    <path d="m93.76,22.76c3.81,0,7.63,0,11.44,0,1.02,0,1.29.24,1.31,1.26.02,1.11.02,2.23,0,3.34-.02.86-.06.91-.91.9-.97,0-1.91.09-2.8.54-.3.15-.56.32-.77.57-.48.58-1.07.86-1.85.78-1.78-.18-3.53-.53-5.3-.76-2.87-.38-5.74-.8-8.61-1.23-1.61-.24-3.24-.37-4.84-.69-.48-.1-.7-.33-.73-.77-.07-1.08-.05-2.15.07-3.23.04-.39.27-.58.63-.62.32-.04.65-.07.97-.07,3.8,0,7.59,0,11.39,0h0Zm-.15.4s0,.01,0,.02c-3.47,0-6.93,0-10.4,0-.46,0-.93-.03-1.39,0-.59.03-.75.21-.74.79,0,.79.03,1.58,0,2.36-.02.42.15.57.52.68.76.22,1.55.27,2.33.39,2.85.43,5.69.84,8.54,1.27,2.51.38,5.01.78,7.52,1.16.72.11,1.34-.03,1.82-.66.39-.51.96-.8,1.58-1.01.64-.21,1.3-.29,1.97-.33.71-.04.78-.11.79-.82.02-.98.01-1.95,0-2.93,0-.77-.16-.91-.95-.91-3.86,0-7.72,0-11.58,0Z"/>
    <path d="m63.53,63.45c-1.57-.09-3.25.11-4.93-.02-1.28-.1-1.59-.64-1.7-1.7-.09-.86-.04-1.74-.02-2.62.02-.86.28-1.1,1.13-1.11,1.46-.01,2.92,0,4.38,0,.21,0,.41,0,.62-.02,1.62-.11,2.22-.7,2.36-2.31.07-.83.19-.95,1.05-.96.86,0,1.72-.02,2.57,0,.63.02.84.23.84.86,0,2.36-.03,4.72-.06,7.08,0,.47-.35.73-1.03.76-1.35.07-2.71.07-4.06.04-.34,0-.69,0-1.14,0Zm.09-.4s0-.01,0-.02c1.55,0,3.09,0,4.64,0,1.01,0,1.19-.17,1.19-1.2,0-1.49,0-2.98,0-4.47,0-.51,0-1.03-.02-1.54-.02-.49-.26-.74-.79-.73-.67.02-1.34,0-2.01,0-.84,0-.85,0-.93.82-.09.93-.4,1.74-1.29,2.2-.56.29-1.18.36-1.8.36-1.39.01-2.78,0-4.17,0-1.02,0-1.09.07-1.11,1.06-.01.67-.04,1.34,0,2,.07,1.21.43,1.52,1.64,1.52,1.55,0,3.09,0,4.64,0Z"/>
    <path d="m111.88,28.25c-1.27,0-2.54-.02-3.81,0-.41,0-.62-.15-.67-.53-.16-1.35-.16-2.7-.03-4.05.05-.5.33-.79.86-.87.43-.06.86-.05,1.28-.05,1.91,0,3.81,0,5.72,0,.26,0,.51.04.76.11.62.18.84.42.72,1.04-.24,1.23-.27,2.48-.31,3.72-.01.42-.17.62-.62.62-1.3-.01-2.61,0-3.91,0,0,0,0,0,0,.01Zm.12-.44c1.15.01,2.3,0,3.44,0,.49,0,.58-.19.58-.58,0-.9.03-1.79.24-2.69.28-1.24.11-1.39-1.2-1.38-2.09,0-4.18,0-6.27,0-.26,0-.51.02-.76.11-.23.09-.36.23-.36.5.01,1.08,0,2.15.02,3.23.01.6.26.82.87.82,1.15,0,2.3,0,3.45,0Z"/>
    <text class="cls-3" transform="translate(79.55 16.96)"><tspan x="0" y="0">55mm</tspan></text>
    <text class="cls-3" transform="translate(22.42 45.94)"><tspan x="0" y="0">36mm</tspan></text>
    <line class="cls-1" x1="34.64" y1="54.42" x2="34.64" y2="46.82"/>
    <text class="cls-2" transform="translate(54.79 87.57)"><tspan x="0" y="0">T80-S(II)</tspan></text>
  </g>
</svg>