<?xml version="1.0" encoding="UTF-8"?>
<svg id="P60DY" xmlns="http://www.w3.org/2000/svg" viewBox="0 0 150 100">
  <defs>
    <style>
      .cls-1 {
        letter-spacing: -.03em;
      }

      .cls-2 {
        fill: #231f20;
        font-size: 12px;
      }

      .cls-2, .cls-3 {
        font-family: MyriadPro-Regular, 'Myriad Pro';
      }

      .cls-3 {
        fill: #010101;
        font-size: 9px;
      }

      .cls-4 {
        stroke-width: .13px;
      }

      .cls-4, .cls-5, .cls-6, .cls-7 {
        fill: none;
        stroke: #000;
        stroke-miterlimit: 10;
      }

      .cls-5 {
        stroke-width: .16px;
      }

      .cls-6 {
        stroke-width: .14px;
      }

      .cls-7 {
        stroke-width: .15px;
      }

      .cls-8 {
        fill: #302e2e;
      }
    </style>
  </defs>
  <g>
    <g>
      <line class="cls-6" x1="44.5" y1="42.85" x2="44.5" y2="55.07"/>
      <path d="m44.5,55.9c-.14-.39-.39-.87-.65-1.17l.65.24.65-.24c-.26.3-.51.78-.65,1.17Z"/>
    </g>
    <g>
      <line class="cls-4" x1="44.5" y1="34.48" x2="44.5" y2="26.99"/>
      <path d="m44.5,26.23c.13.36.36.8.6,1.08l-.6-.22-.6.22c.24-.27.47-.72.6-1.08Z"/>
    </g>
    <line class="cls-6" x1="45.42" y1="55.8" x2="43.57" y2="55.8"/>
    <line class="cls-4" x1="45.42" y1="26.23" x2="43.57" y2="26.23"/>
  </g>
  <g>
    <g>
      <line class="cls-5" x1="98.34" y1="15.91" x2="115.6" y2="15.91"/>
      <path d="m116.57,15.91c-.46.17-1.03.46-1.38.77l.28-.77-.28-.77c.35.31.92.6,1.38.77Z"/>
    </g>
    <g>
      <line class="cls-7" x1="74.72" y1="15.91" x2="60.35" y2="15.91"/>
      <path d="m59.46,15.91c.42-.16.94-.42,1.26-.7l-.25.7.25.7c-.32-.28-.84-.55-1.26-.7Z"/>
    </g>
    <line class="cls-5" x1="116.57" y1="14.98" x2="116.57" y2="16.83"/>
    <line class="cls-7" x1="59.46" y1="14.98" x2="59.46" y2="16.83"/>
  </g>
  <path class="cls-8" d="m59.46,26.75c.03-.09.05-.17.08-.26.12-.05,0-.21.12-.27.39,0,.77.11,1.14.18.27.06.57.03.84.16.45.21.9.43,1.4.51.95.15,1.87.43,2.81.64.28.06.46.33.77.3.21-.02.41.05.62.09.42.09.83.21,1.24.33.57.17,1.15.29,1.71.49.51.19,1.04.25,1.55.37.47.11.93.36,1.44.33.06,0,.11.02.13.07.08.19.25.17.4.17.24,0,.47.08.71.1.34.03.6.33.97.27.02,0,.04.01.06.02.09.13.25.07.37.12.4.15.83.27,1.24.35.76.15,1.49.37,2.24.54.51.12,1,.41,1.56.27.07-.02.21-.04.23.1.03.18.15.2.3.19.11-.01.2.04.29.09.17.09.36.15.55.19.39.09.79.13,1.18.25.32.1.62.24.96.31.27.05.54.11.8.22.39.17.83.26,1.25.35.54.12,1.1.17,1.62.39.09.11.22.02.32.06.22.2.51.16.77.24.08,0,.17.01.25.02.03.07.08.11.16.13.59.11,1.15.31,1.72.46.32.08.63.27.98.23.02,0,.04.01.06.02.67.17,1.32.43,2.01.51.18.02.37.02.52.11.48.28,1.02.36,1.55.45.02,0,.04,0,.06.01.61.29,1.31.26,1.92.59.33.18.76.16,1.14.23.02,0,.04,0,.06.01.26.08.51.16.77.24.06,0,.13.01.19.02.05.12.15.12.26.13.39.01.76.08,1.13.22.25.09.49.22.75.27.72.15,1.43.36,2.15.51.46.1.83.41,1.32.43.4,0,.75.28,1.11.32.59.06,1.14.29,1.72.37.09.01.17.07.25.11.14.06.28.18.42.18.47,0,.87.24,1.32.3.45.06.87.24,1.3.38.3.1.63,0,.88.16.35.21.75.26,1.11.43.36.17.79.2.99.61.01.03.07.04.11.05.27.03.44.19.56.43.05.09.18.14.27.2,0,.04.01.08.02.12-.06.28.13.48.24.71,0,.18.25.24.21.44-.09.65-.07,1.31-.07,1.96-.01,2.91,0,5.83,0,8.74,0,.66.06,1.31-.01,1.97-.18.12-.36.05-.55,0,0-.13-.1-.11-.18-.11-.19,0-.38-.02-.56,0-.33.04-.68-.08-1,.06-.09-.08-.2-.07-.31-.05-.37,0-.73,0-1.1-.01-.12,0-.26.05-.36-.04-.21-.18-.45-.18-.7-.15-.32-.09-.63-.17-.95-.26-.13-.24-.36-.15-.52-.1-.18.06-.18.27-.18.44,0,.83-.01,1.67-.02,2.5,0,0-.01,0-.01,0-.2.03-.37.09-.5.26l-.81.86c-.23-.02-.18.16-.2.29-.07.02-.05.08-.07.13-.15.05-.17.16-.22.3-.26.84-.23,1.71-.3,2.56-.06.02-.05.08-.06.13-.29.33-.41.77-.71,1.1-.14.16-.22.35-.43.46-.15.08-.36.23-.38.47-.3.06-.57.23-.88.2-.16-.01-.16.22-.32.19-.79-.02-1.57-.03-2.36,0-.17-.07-.3-.23-.5-.21,0-.05-.04-.06-.07-.07,0-.02-.02-.03-.04-.03-.1-.12-.2-.25-.33-.34-.03-.04-.05-.08-.08-.12-.08-.39-.13-.78-.07-1.18.02-.13-.13-.24,0-.38.23-.28.44-.57.66-.85.02,0,.04-.01.05-.02.49-.28,1.03-.34,1.57-.29.32.03.39,0,.41-.33.01-.04.02-.08.03-.12.05-.02.06-.05.06-.1,0-1.22-.09-2.45.03-3.67.01-.13-.07-.21-.2-.25-.2-.24-.55-.32-.66-.67-.06-.21-.24-.35-.43-.47.02-.17-.11-.13-.19-.13-.57,0-1.14-.05-1.71,0-.36-.01-.72-.04-1.08,0-.24,0-.48,0-.73-.01-.44-.02-.88.05-1.32-.05-.08-.03-.13.03-.19.06-.26,0-.51,0-.77,0-.9,0-1.8-.03-2.7-.03-1.16,0-2.31-.01-3.47.04-.47.02-.95,0-1.42.03-.24.01-.5-.04-.75-.06-.27-.03-.53.02-.8.01-.85-.01-1.7-.04-2.54.01-.52.03-1.04-.06-1.56,0-.31,0-.61-.02-.92-.02-.93,0-1.86.01-2.78.02-.08,0-.16,0-.25,0-.28,0-.56,0-.83,0-.1,0-.21,0-.31.01-.43.01-.86-.06-1.28.06-.13-.14-.26-.05-.39,0-.05-.02-.09-.06-.14-.06-.6,0-1.19.02-1.79.02-.71,0-1.42.14-2.13.09-.58-.04-1.15,0-1.74-.1-.57-.09-1.16-.04-1.74-.03-.18,0-.38-.07-.54.06-.23,0-.47,0-.7.01-.07-.1-.17-.07-.26-.07-1.15,0-2.31,0-3.46.02-.09,0-.22-.04-.27.1-.33,0-.65,0-.98,0-.03-.03-.05-.08-.08-.08-.51,0-1.02-.01-1.54-.02-.07,0-.08.05-.1.1-.06,0-.13,0-.19.01-.41.03-.8-.2-1.22-.11-.12-.04-.27.01-.37-.09-.19-.21-.22-.52-.45-.7,0-.02,0-.04-.02-.05.02-.91-.03-1.81-.1-2.72-.02-.32.05-.65,0-.97,0-.05,0-.09,0-.14.02-1.1-.03-2.2.08-3.29.03-.29-.09-.55-.09-.83.01-1.73.01-3.46.01-5.18,0-.9,0-1.8-.01-2.7,0-.31.19-.58.17-.88-.03-.57.36-.9.72-1.19.35-.29.81-.39,1.3-.27.18.04.33.19.52.17h0c0,.63,0,1.26.02,1.9,0,.12-.03.28.15.3.52.08,1.02-.05,1.49-.23.24-.09.47-.24.68-.39.27-.19.6-.34.58-.76,0-.02.01-.04.02-.06.58-.33.82-.92,1.03-1.47.12-.32.17-.72.2-1.09.03-.38.08-.76-.02-1.14,0-.1-.02-.2-.02-.3-.02-.14-.02-.29-.05-.43-.07-.33,0-.71-.3-.97,0-.04-.01-.08-.02-.12-.06-.19-.04-.44-.31-.5-.12-.08-.27-.13-.26-.32-.28-.59-.71-1.02-1.33-1.23,0-.02-.02-.03-.04-.04-.04-.04-.09-.13-.13-.13-.39.02-.72-.24-1.12-.23-.52.02-.57.05-.56.57,0,.5.03,1-.03,1.5-.04.17-.18.22-.33.27-.32,0-.64,0-.97,0-.07-.07-.15-.1-.25-.07-.13-.17-.37-.12-.52-.26-.11-.18-.03-.5-.38-.51.05-.36-.23-.64-.24-.97-.02-.85.02-1.7,0-2.55,0-.31.12-.64-.07-.93,0-.06-.01-.12-.02-.19Zm48.83,32.23c.12-.04.18-.17.2-.26.08-.25.29-.35.48-.46.17-.1.31-.21.4-.39,0-.02.01-.04.01-.06.19-.04.18-.19.18-.32,0-.56,0-1.12-.01-1.68-.01-.39.04-.78.36-1.02.22-.17.5-.3.81-.2.34.1.69.22,1.01.34.57.22,1.15.21,1.72.29.71.09,1.44.02,2.16.04.31.01.37-.14.38-.39.01-.36-.07-.71-.08-1.06,0-.45.03-.91.05-1.36.06-1.2.02-2.41,0-3.61,0-.78.04-1.55-.07-2.33-.09-.61.1-1.21.09-1.82,0-.42-.08-.84-.08-1.26,0-.26-.03-.61-.3-.78-.17-.11-.25-.28-.38-.41-.27-.28-.58-.51-.92-.7-.17-.09-.36-.15-.51-.27-.18-.15-.41-.1-.61-.19-.4-.18-.84-.31-1.27-.42-.36-.09-.73-.14-1.09-.2-.16-.28-.44-.24-.7-.24-.09-.02-.19.02-.26-.07-.14-.26-.38-.08-.56-.12-.55-.15-1.09-.29-1.64-.45-.4-.12-.88,0-1.2-.37-.02-.03-.1-.01-.15-.02-.15-.25-.38-.08-.58-.11-.28-.08-.59-.13-.85-.23-.59-.23-1.21-.24-1.82-.36-.09-.13-.19-.27-.34-.3-.69-.17-1.39-.31-2.08-.47-.3-.07-.64-.09-.87-.26-.25-.18-.47-.16-.72-.16-.31-.22-.71-.26-1.05-.36-.51-.14-1.05-.19-1.57-.33-.16-.05-.36,0-.49-.16-.25-.19-.56-.17-.84-.24-.13,0-.24-.1-.38-.06-.04-.14-.14-.16-.26-.13-.68-.15-1.35-.33-2.04-.43-.05-.28-.28-.18-.44-.2-.11-.13-.28-.05-.41-.1-.56-.22-1.17-.31-1.75-.45-.28-.07-.56-.14-.84-.21-.36-.09-.65-.38-1.04-.35-.22.01-.41-.03-.59-.13,0-.16-.13-.11-.21-.11-.17,0-.33,0-.5.01-.19-.14-.44-.07-.63-.21-.24-.15-.55-.02-.8-.18-.13-.08-.27-.15-.42-.06-.2-.24-.53-.15-.76-.32-.39-.14-.82-.06-1.21-.19l-.14-.07c-.09-.17-.26-.15-.41-.17-.24-.04-.53-.03-.7-.17-.12-.1-.24-.21-.37-.22-.47-.02-.9-.24-1.37-.27-.04,0-.08,0-.12-.01-.32-.09-.61-.27-.95-.34-.42-.09-.81-.28-1.22-.38-.5-.12-1.01-.2-1.52-.3h-.01c-.13-.25-.34-.07-.51-.11-.38-.16-.79-.21-1.18-.37-.63-.25-1.31-.37-1.98-.53-.43-.1-.88-.15-1.3-.27-.74-.21-1.48-.45-2.22-.68-.3-.16-.65-.05-.96-.19-.17-.13-.39-.05-.57-.15,0-.09,0-.17-.13-.17-.26.01-.51-.14-.76-.13-.4.03-.75-.29-1.15-.15-.09-.04-.18-.08-.27-.12-.14-.25-.38-.07-.56-.11l-.12-.08c-.16-.14-.34-.04-.51-.06-.29-.19-.62-.26-.95-.33.02-.16-.03-.25-.22-.24-.2.01-.41,0-.62,0-.5-.14-1.03-.2-1.51-.44-.05-.02-.21.02-.21.17-.18.02-.18.15-.18.28,0,.28.07.56.09.84.04.55.02,1.1.01,1.65-.01.67.11,1.24.83,1.54.16.07.28.1.43.04.16-.07.09-.21.1-.33.06-.51-.18-1.05.26-1.53.23-.25.6-.53.95-.43.13.04.25.06.37.05.46-.03.88.07,1.21.39.15.14.37.04.49.16.45.48,1.04.84,1.35,1.45.04.07.12.11.18.17.06.1.05.23.08.33.08.27.36.4.38.68-.04.28,0,.55.19.77-.01.06,0,.12.03.18-.04.4-.06.79.06,1.18.05.16.07.34,0,.5-.11.23-.07.47-.05.7-.02.04-.03.08-.05.12-.12.17-.12.37-.14.57,0,.14-.07.27-.11.4-.09.32-.14.64-.5.78,0,0-.01.02,0,.03.06.21-.13.32-.24.37-.18.09-.14.2-.14.33-.04.08-.16.13-.14.25-.43.09-.47.6-.83.76-.06.04-.14.06-.19.09-.22.12-.5.11-.69.3-.05.02-.09.07-.14.07-.57-.03-1.13.03-1.7.05-.08,0-.22-.02-.28-.15-.06-.13-.19-.2-.3-.28.04-.17-.1-.29-.13-.44.12-.38.13-.78.13-1.17,0-.12-.09-.19-.19-.22-.22-.07-.66.1-.79.31-.28.46-.44.95-.43,1.49.01.45.02.91.02,1.36,0,1.06-.02,2.11-.02,3.17,0,1.69,0,3.37.01,5.06,0,1.08,0,2.16,0,3.24-.08.28.12.54.06.83-.05.01-.07.04-.07.09,0,.55-.01,1.1-.01,1.65,0,.13.06.24.15.33.23.24.54.2.82.22.48.04.97-.01,1.46,0,.44.02.89.07,1.32.03.67-.05,1.35-.04,2.02-.05,1.04-.02,2.08.04,3.11-.02.78-.05,1.56-.06,2.34-.03.27.01.55.12.8.07.43-.08.86-.02,1.3-.11.39-.08.83,0,1.25-.02.59-.02,1.17.03,1.76.07.57.04,1.15-.14,1.73.02.04.01.09.02.12,0,.24-.16.51-.08.77-.09.69,0,1.37-.01,2.06-.02.28-.1.56.06.84,0,.08,0,.17.02.25.02.86,0,1.72-.02,2.57-.01,1.17.02,2.34-.04,3.51.03.65.04,1.3-.1,1.96-.05.99.07,1.99.01,2.99.01,1.26,0,2.52-.01,3.78,0,.54,0,1.08.05,1.61.04.6-.02,1.21-.06,1.81-.08.47-.02.95.04,1.42.05.53,0,1.07-.06,1.59.13.06.06.13.13.19.19-.02.28.23.28.38.38.14.2.3.38.51.51,0,.31.25.38.45.51.01.02.02.04.03.06,0,.65-.02,1.3-.02,1.96,0,1.02,0,2.05-.01,3.07-.12.05-.16.21-.31.2-.39.05-.79.05-1.19.05-.12,0-.25-.06-.35.07-.19.1-.39.2-.58.3-.07.04-.12.11-.1.21-.05,0-.1,0-.13.06-.14.34-.12.7-.05,1.04.02.08.09.2.23.15.04.03.08.05.12.08,0,.33.21.44.5.42.67-.05,1.35.02,2.02-.09.27-.04.44-.16.54-.39.04,0,.08-.01.12-.02.36-.02.54-.29.71-.55.31-.21.39-.56.51-.89.25-.11.27-.35.29-.56.06-.66.09-1.33.14-2,0-.04.01-.08.02-.12.1-.04.24.07.3-.13.09-.31.23-.61.35-.91.01,0,.02,0,.02-.02Z"/>
  <path class="cls-8" d="m74.43,32.85c.08,0,.17.01.25.02.03.03.06.09.08.09.27-.03.49.13.75.17.27.04.56.12.83.18.28.07.49.25.76.33.68.21,1.39.31,2.09.42.12.02.24.02.3.13.06.12.15.11.26.13.38.08.77.11,1.15.25.27.1.54.25.81.3.5.09.99.27,1.48.32.61.06,1.12.42,1.72.51.45.06.88.27,1.34.34.71.11,1.36.34,1.93.77.15.1.12.29.18.43-.06.25-.05.51-.01.76.04.24-.15.44-.06.71.06.17.12.41.1.61-.08.57-.12,1.13-.08,1.71.05.58-.05,1.16-.03,1.73,0,.42.05.84.05,1.26,0,2.07,0,4.13-.02,6.2,0,.98.17,1.98-.39,2.89-.29.12-.59.12-.89.12-1.56,0-3.13.01-4.69-.02-.47-.01-.94.06-1.41.04-.21,0-.43,0-.64,0-.04,0-.08,0-.12,0-.28,0-.56,0-.84,0-.17.02-.34.05-.51.07-.09-.09-.21-.09-.32-.08-.32.02-.65.08-.97.05-.79-.08-1.56-.02-2.33.09-.08-.08-.17-.08-.25,0-.39-.02-.77-.08-1.15.07-.07-.06-.12-.17-.25-.12-.22.02-.44-.15-.62-.12-.37.06-.73,0-1.09.02-.83.05-1.66.02-2.49.03-.04,0-.08,0-.12,0-.17,0-.35,0-.52,0-.1-.02-.21-.04-.31-.06-.16.08-.35.03-.52.06-.23,0-.46,0-.69,0-.17,0-.35,0-.52,0-.37.01-.76.09-1.12.03-.39-.07-.77.12-1.16-.02-.16-.05-.38.05-.58.04-.18-.13-.38-.05-.58-.06-.25-.04-.54.05-.7-.23-.08-.15-.13-.31-.2-.47-.02-.76-.03-1.53-.05-2.29,0-.04,0-.09,0-.13.08-.16,0-.33,0-.5,0-2.17-.02-4.34.04-6.5,0-.04.01-.08.02-.12.07,0,.12-.01.12-.1,0-.19.12-.29.27-.35.28-.12.55-.34.82-.38.6-.08.97-.6,1.57-.67.24-.03.45-.31.66-.5.29-.27.54-.58.84-.83.44-.37.79-.79,1.08-1.29.17-.3.33-.6.49-.9.09-.18.17-.33.14-.52.02-.11-.01-.24.16-.3.17-.07.15-.28.16-.43.02-.23.02-.46.13-.66.15-.22.15-.46.12-.7,0-.13.01-.25.02-.38.11-.23.1-.47.04-.71.03-.14-.09-.24-.1-.37,0-.04.02-.08.01-.12-.07-.53,0-1.05.1-1.57.01-.06,0-.13.09-.14.23-.02.4-.19.61-.26.2-.07.38-.09.6.02.25.13.55.02.83.21.23.15.58.1.88.14.15.13.35.04.51.09.3.09.59.2.89.3.31.27.72.2,1.08.3Zm10.61,3.65c-.03-.18-.16-.2-.31-.17l-1.84-.45c-.33-.11-.65-.25-1.01-.2h-.01c-.27-.24-.62-.37-.94-.41-.5-.06-.96-.29-1.47-.28-.46-.13-.93-.27-1.39-.4-.07-.21-.27-.25-.58-.12-.04,0-.07-.01-.11-.02.02-.12-.08-.22-.15-.22-.38,0-.71-.25-1.07-.27-.5-.03-.95-.26-1.45-.28-.06,0-.13-.04-.16-.08-.17-.22-.36-.15-.56-.07-.18-.05-.31-.2-.5-.21-.22-.27-.54-.27-.81-.22-.35.07-.64-.12-.9-.23-.35-.15-.67-.17-1.02-.19-.11,0-.22.03-.32-.07-.3-.29-.52-.27-.79.05-.31.37-.29.44.13.59h0c.09.19.18.38-.16.41-.09,0-.12.07-.12.15,0,.25-.04.51,0,.76.07.42-.01.83-.07,1.24-.07.48-.24.95-.2,1.45.01.18-.02.35-.14.5-.22.08-.21.28-.24.46l-.19.5c-.36.16-.37.54-.53.83-.18.1-.22.31-.33.46-.24.33-.58.57-.83.88-.2.24-.49.37-.68.61-.1.12-.2.24-.33.33-.2.12-.5.07-.63.32-.28.08-.47.33-.76.4-.19.02-.41,0-.41.29-.04,0-.07,0-.11.01-.26-.09-.51.01-.73.1-.13.05-.27.17-.29.39-.08.72-.05,1.43-.05,2.15-.02,1.52,0,3.05,0,4.57,0,.65,0,1.29,0,1.94.01.47.11.55.58.55.25,0,.51.02.76,0,.45-.05.88.18,1.31.08.62-.14,1.24-.03,1.86-.06.89-.04,1.79-.16,2.68.07.06.01.14,0,.18-.03.11-.1.24-.08.36-.08,1.91,0,3.82,0,5.73,0,2.11,0,4.22,0,6.33-.01,1.44,0,2.88,0,4.33,0,.33,0,.44-.12.49-.42.07-.44.06-.89.03-1.33-.02-.29.18-.48.17-.76-.02-1.07-.05-2.14-.03-3.22,0-.28.1-.61-.02-.84-.13-.25-.08-.48-.12-.71-.03-.19.17-.2.16-.37-.03-.64-.02-1.29,0-1.94,0-.15-.19-.25-.11-.38.15-.25.17-.49.1-.77-.04-.16.05-.34-.13-.47-.04-.03-.1-.27.07-.36.1-.06.08-.16.06-.22-.05-.2-.01-.39,0-.58,0-.11,0-.21-.1-.28-.02-.04-.04-.09-.05-.13-.06-.26.2-.43.18-.69-.04-.44-.03-.88,0-1.33.02-.26,0-.47-.3-.53-.07-.11-.18-.15-.29-.2-.34-.14-.72-.11-1.04-.3-.35-.14-.75.03-1.08-.18h-.02Z"/>
  <path class="cls-8" d="m94.68,53.19c-.15-.04-.31-.03-.46,0-.22-.15-.48,0-.7-.09-.23-.1-.43-.07-.63.08h-.03s-.03,0-.03,0c-.2.03-.4.1-.6-.04-.07-.05-.22-.04-.3,0-.18.1-.36.07-.55.06-.35,0-.69.02-1.04.03-.04,0-.07-.01-.11-.02-.29-.26-.55-.54-.53-.97,0-.03-.01-.08-.03-.08-.22-.1-.15-.3-.13-.45.06-.53-.01-1.05,0-1.57.01-.5-.06-1.02.04-1.51.06-.29.1-.57.11-.87,0-.14-.04-.22-.18-.25,0,0,0,0,0,0,0-.28,0-.56,0-.83,0-.04,0-.08,0-.13,0-.02,0-.04.02-.06.17-.33.11-.65.02-.99-.08-.31.05-.64.11-.96.09-.53.03-1.09.04-1.63,0-.07.01-.19-.03-.21-.23-.13-.12-.33-.13-.5,0-.13.05-.27,0-.4,0-.04,0-.09-.01-.13,0-.04.02-.08.03-.12.07-.33-.19-.71.14-1,0,0-.01-.07-.03-.08-.2-.06-.13-.23-.12-.35.04-.35-.06-.7.13-1.06.11-.21.03-.53.1-.8.07-.28.24-.49.4-.72.24-.35.5-.27.77-.25.28.02.56,0,.84.17.67.4,1.48.36,2.2.62.39.14.83.2,1.22.38.4.19.85.22,1.27.33.54.14,1.08.29,1.63.34.04.08.1.13.19.11.06.09.11.19.23.19.56,0,1.05.26,1.59.33.38.05.75.18,1.11.29.48.14.98.21,1.44.44.47.23,1.05.24,1.57.41.58.19,1.2.21,1.79.47.52.23,1.12.34,1.68.46.75.15,1.47.39,2.21.57.42.1.85.2,1.26.36.5.19,1.01.39,1.56.37.07,0,.12.03.16.08.12.15.3.23.47.31,0,0,0,0,0,0,.13.15.34.21.4.47.15.74.03,1.48.07,2.22.03.51-.01,1.01.01,1.52.01.2.13.41.07.62-.14.46-.09.93-.08,1.4,0,1.13,0,2.26-.01,3.39-.05.26-.31.34-.45.52-.13,0-.26,0-.39,0-.42-.15-.72-.47-1.07-.71-.08-.21-.24-.28-.45-.24-.06,0-.13,0-.19-.01-.27-.22-.59-.09-.89-.11-.23-.05-.42.07-.63.12-.13.03-.32-.11-.37.13-.22.09-.42.21-.59.38-.41.02-.64.26-.77.62-.18.31-.45.56-.54.94-.06.25-.84.54-1.13.45-.25-.08-.57-.01-.73-.31-.07-.37-.28-.64-.6-.84,0-.02,0-.03-.02-.03-.02-.14-.06-.27-.22-.32-.18-.04-.33-.14-.48-.26-.28-.23-.66-.1-.99-.2-.06-.18-.21-.12-.32-.12-1.72,0-3.45-.02-5.17,0-.37,0-.75-.08-1.11.07-.06,0-.13,0-.19,0-.14-.11-.3-.04-.44-.04-.46,0-.93-.08-1.39.05Zm1.77-13.73s-.01-.03-.04-.03c-.05-.07-.07-.12-.19-.1-.24.03-.48.02-.72.02,0-.13-.1-.19-.2-.25-.18-.11-.4-.1-.59-.17-.61-.24-1.3-.17-1.9-.47-.3-.15-.68.05-.93-.26-.25-.31-.63-.14-.94-.22-.12-.03-.43-.06-.48.11-.05.19-.21.35-.16.56-.28.02-.06.2-.06.27-.01,1.1,0,2.2,0,3.3,0,.95-.02,1.91-.02,2.86,0,1.4,0,2.8,0,4.2,0,.89,0,1.78,0,2.67,0,.25.1.51.36.48.41-.03.81.04,1.21.06,1.37.08,2.74-.03,4.11-.06,1.62-.03,3.23.05,4.85-.01.57-.02,1.14.04,1.71-.02.27-.03.6-.09.81.03.4.22.93.02,1.24.43.02.02.06.05.08.05.31-.06.45.17.63.34.38.36.68.78.99,1.19.04.06.14.1.21.1.42-.04.68-.29.77-.74.13-.14.1-.35.21-.5.27-.1.51-.28.68-.48.23-.27.46-.45.78-.61.49-.24.99-.27,1.51-.3.32-.02.65.02.97.04.02,0,.04.01.06.01.61.21,1.14.56,1.7.86.05-.14.18-.26.13-.43-.12-.42,0-.83,0-1.25,0-1.11,0-2.23,0-3.34,0-1.13.01-2.26.01-3.39,0-.14.05-.31-.14-.38-.36-.16-.73-.26-1.1-.36-.31-.09-.64-.12-.93-.28-.18-.14-.38-.04-.58-.06-.27-.09-.46-.34-.75-.38-.52-.08-1-.31-1.52-.37-.24-.03-.45-.12-.69-.16-.3-.05-.65.02-.88-.28-.03-.04-.14-.04-.21-.04-.14,0-.27,0-.39-.07-.37-.24-.82-.18-1.22-.35-.37-.15-.81-.23-1.24-.22-.08,0-.19.01-.22-.08-.09-.23-.29-.21-.47-.24-.21-.03-.43-.06-.64-.11-.29-.07-.55-.22-.86-.22-.1,0-.18,0-.27-.07-.21-.16-.48-.17-.71-.23-.29-.07-.59-.09-.85-.26-.19-.24-.46-.04-.68-.12-.04-.03-.09-.06-.13-.08-.6-.15-1.17-.37-1.79-.45-.15-.19-.38-.07-.57-.15Z"/>
  <text class="cls-3" transform="translate(33.35 40.48)"><tspan x="0" y="0">18mm</tspan></text>
  <text class="cls-3" transform="translate(74.16 18.97)"><tspan x="0" y="0">35mm</tspan></text>
  <text class="cls-2" transform="translate(58.58 80.16)"><tspan x="0" y="0">P60</tspan><tspan class="cls-1" x="18.7" y="0">D</tspan><tspan x="26.35" y="0">Y</tspan></text>
</svg>