<?xml version="1.0" encoding="UTF-8"?>
<svg id="P60SY" xmlns="http://www.w3.org/2000/svg" viewBox="0 0 150 100">
  <defs>
    <style>
      .cls-1 {
        font-size: 9px;
      }

      .cls-1, .cls-2 {
        fill: #231f20;
        font-family: MyriadPro-Regular, 'Myriad Pro';
      }

      .cls-2 {
        font-size: 13px;
      }
    </style>
  </defs>
  <path d="m78.86,45.91c-1.46.11-4.05-.07-6.64.15-.67.06-1.35.04-2.03.03-1.49-.03-1.76-.3-1.82-1.83-.05-1.31-.08-2.62-.12-3.93-.09-3.02-.18-6.03-.26-9.05-.02-.56-.03-1.11-.02-1.67,0-1.25.65-2.09,1.75-2.61.61-.29,1.1-.11,1.31.54.11.33.11.7.15,1.06.12,1,.45,1.33,1.41,1.41,2.23.18,4.48-1.78,4.49-3.99.01-1.71-.22-3.41-.52-5.08-.28-1.53-1.2-2.44-2.78-2.69-.71-.11-1.41-.25-2.13-.17-.8.08-.95.29-.83,1.08.24,1.52,0,1.77-1.52,1.53-1.2-.18-1.51-.46-1.67-1.64-.17-1.3-.12-2.62-.12-3.93,0-.58.3-.88.82-1.01.31-.08.62-.13.94-.14,2.86-.08,5.73-.15,8.59-.23,2.78-.07,5.57-.23,8.35-.2,1.76.02,3.38.47,4.61,2,4.78,5.95,9.62,11.85,14.47,17.74,1.18,1.43,1.91,2.96,1.8,4.89-.11,2.02,0,4.05-.04,6.08-.03,1.36.3,1.38-1.4,1.13-1.65-.25-3.28-.63-4.92-.96-.08-.02-.15-.04-.23-.06-1.15-.2-1.26-.12-1.26,1.01,0,.2-.02.4,0,.6.13,1.22-.15,2.21-1.2,3.02-1.18.92-1.26,2.43-1.68,3.73-.17.53-.24,1.08-.39,1.62-.21.77-.71,1.4-1.42,1.67-1.42.54-2.89.9-4.43.45-.89-.26-1.35-.84-1.38-1.71-.03-1.01.43-1.72,1.34-1.98.46-.13.93-.22,1.4-.28.62-.08.9-.38.88-1.03-.03-1.15.06-2.31,0-3.45-.12-1.91-.4-2.38-2.59-2.35-3.26.04-6.53.14-10.91.25Zm2.89-.52s0,.06,0,.09c1.03-.05,2.07-.11,3.1-.14,1.83-.05,3.66-.12,5.49-.1,1.67.02,2.33.66,2.39,2.3.05,1.39,0,2.78.03,4.17.01.68-.31,1.03-.94,1.15-.55.1-1.11.15-1.64.3-.78.21-1.03.64-1.02,1.53.01.8.27,1.19,1.03,1.4,1.11.32,2.2.14,3.3-.09.99-.21,1.61-.83,2.05-1.67.16-.31.21-.68.29-1.03.45-1.93.82-3.9,2.57-5.21.38-.29.45-.73.45-1.18,0-.75-.02-1.51,0-2.26,0-.69.16-.82.86-.78.16,0,.31.05.47.08,1.83.35,3.67.72,5.5,1.05.91.16.93.13.93-.81,0-2.18-.05-4.37.02-6.55.04-1.23-.39-2.25-1.03-3.22-.24-.36-.52-.7-.8-1.04-4.72-5.79-9.49-11.54-14.15-17.38-1.21-1.51-2.76-2.01-4.47-2.01-4.42,0-8.83.17-13.25.28-1.23.03-2.47.08-3.7.13-1.16.05-1.32.21-1.33,1.32-.01.99-.03,1.99.02,2.98.06,1.09.35,1.39,1.39,1.62,1.12.26,1.48.08,1.11-1.07-.02-.08-.05-.15-.06-.23-.09-.84.24-1.23,1.11-1.32,1.17-.12,2.33.05,3.4.47.9.35,1.58,1.06,1.86,2.05.54,1.93.61,3.92.71,5.89.07,1.35-.57,2.45-1.72,3.21-.77.51-1.62.86-2.51,1.07-1.4.33-2.35-.39-2.45-1.79-.03-.46.08-1.08-.45-1.24-.52-.16-.96.3-1.33.65-.17.15-.27.38-.37.6-.25.52-.27,1.07-.25,1.63.15,4.56.3,9.12.43,13.68.05,1.72.1,1.82,1.85,1.78,3.7-.08,7.4-.2,11.1-.31Z"/>
  <path d="m74.42,58.78c.42.61-.11,1.35.48,1.64.41.2.96.11,1.45.19q-1.59.14-1.84,1.97c-1.54-.61-3.05-1.2-4.82-1.9,1.75-.71,3.22-1.3,4.73-1.9Z"/>
  <path d="m53.97,40.08q1.75-.23,1.87-1.67c.2.58-.05,1.23.45,1.46.4.19.92.12,1.48.17-.14.84-.55,1.55-.83,2.3-.29.77-.59,1.53-1,2.59-.71-1.75-1.33-3.24-1.98-4.85Z"/>
  <path d="m55.93,15.63c.7,1.74,1.3,3.22,1.96,4.87-1.19.03-2.27.07-3.36.08-.34,0-.51-.22-.4-.56.11-.34.24-.67.37-1,.43-1.04.87-2.09,1.42-3.39Z"/>
  <path d="m100.64,62.62c-.18-1.38-.14-2.54-.05-3.83,1.66.49,3.09,1.19,4.62,1.98-1.47.6-2.94,1.19-4.56,1.84Z"/>
  <path d="m68.32,65.58v-10c.16.24.03.05.19.09.03,0,.08.03.08.05.3,2.76.08,5.52.13,8.28.01.54,0,1.08-.16,1.6-.08-.01-.16-.02-.24-.03Z"/>
  <path d="m106.78,55.36c.36,1.22.36,9.17.08,10.18-.3-.79-.39-8.23-.08-10.18Z"/>
  <path d="m51.78,46.08h8.31c-.88.38-6.67.47-8.31,0Z"/>
  <path d="m59.98,14.41h-8.29c.2-.13.03,0,.07-.15,0-.03.04-.09.06-.09,2.56-.24,5.13-.03,7.7-.1.15,0,.32,0,.46.34Z"/>
  <path d="m55.87,24.78c-.19-1.2-.08-2.34-.04-3.48.11,1.14.32,2.27.04,3.48Z"/>
  <path d="m71.13,37.53c0-.99,0-1.99,0-2.98.01-1.28.19-1.52,1.48-1.68,1.11-.14,2.18-.45,3.26-.7.66-.15,1.11-.52,1.58-.98,1.85-1.84,2.32-4.17,2.5-6.62.12-1.76,0-3.49-.64-5.16-.08-.22-.13-.46-.17-.69-.2-1.16.17-1.73,1.32-1.96.46-.09.95-.08,1.43-.09,1.51,0,3.03.01,4.54,0,.78,0,1.34.29,1.85.88,4.87,5.72,9.76,11.43,14.67,17.11.58.68.88,1.35.84,2.25-.06,1.15,0,2.3,0,3.45,0,1.25-.02,1.26-1.31,1.08-.32-.05-.63-.09-.94-.16-2.08-.43-3.64.19-4.84,1.94-.86,1.25-1.82,1.46-3.01.53-1.37-1.08-2.89-1.37-4.58-1.28-5.21.3-10.42.57-15.63.83-1.49.07-2.16-.47-2.26-1.97-.09-1.26-.02-2.54-.02-3.81-.02,0-.03,0-.05,0Zm.5.05c-.02.44-.05.87-.06,1.31,0,.83-.06,1.67.01,2.5.1,1.05.61,1.46,1.64,1.51.24.01.48-.01.71-.03,5.09-.26,10.17-.53,15.26-.79,1.71-.09,3.3.18,4.69,1.35.95.8,1.79.59,2.48-.44,1.24-1.85,3.02-2.56,5.26-2.11.31.06.63.12.94.16.72.1.78.06.79-.63.02-1.11-.03-2.22.01-3.33.04-.89-.24-1.57-.84-2.25-2.31-2.62-4.56-5.3-6.83-7.96-2.61-3.05-5.22-6.1-7.82-9.16-.33-.39-.71-.6-1.23-.6-1.91.01-3.82-.03-5.73.02-1.37.04-1.66.48-1.32,1.81.37,1.5.78,2.96.79,4.55,0,1.82-.34,3.56-.84,5.26-.41,1.4-1.52,2.39-2.54,3.4-.21.2-.57.29-.87.35-1.2.25-2.37.7-3.61.76-.65.03-.91.34-.9.99.02,1.11,0,2.22,0,3.34Z"/>
  <text class="cls-2" transform="translate(58.15 83.2)"><tspan x="0" y="0">P60SY</tspan></text>
  <text class="cls-1" transform="translate(42.91 33.07)"><tspan x="0" y="0">18mm</tspan></text>
  <text class="cls-1" transform="translate(75.98 63.46)"><tspan x="0" y="0">20mm</tspan></text>
</svg>