<?xml version="1.0" encoding="UTF-8"?>
<svg id="P60-FZT" xmlns="http://www.w3.org/2000/svg" viewBox="0 0 150 100">
  <defs>
    <style>
      .cls-1 {
        stroke-width: .16px;
      }

      .cls-1, .cls-2 {
        stroke-miterlimit: 10;
      }

      .cls-1, .cls-2, .cls-3 {
        fill: none;
        stroke: #000;
      }

      .cls-2 {
        stroke-width: .14px;
      }

      .cls-4 {
        font-size: 9px;
      }

      .cls-4, .cls-5, .cls-6 {
        fill: #010101;
        font-family: MyriadPro-Regular, 'Myriad Pro';
      }

      .cls-5 {
        font-size: 7.04px;
      }

      .cls-6 {
        font-size: 13px;
      }

      .cls-3 {
        stroke-linecap: round;
        stroke-linejoin: round;
        stroke-width: .29px;
      }
    </style>
  </defs>
  <g>
    <path class="cls-3" d="m77.46,10.45c-.35.15-.43.43-.43.79,0,2.82.01,5.64,0,8.46,0,.48.21.65.65.65,2.13,0,4.25,0,6.38,0,.53,0,.58-.3.58-.72-.01-1.79,0-3.58,0-5.38,0-1.15,0-1.15-1.15-1.15-.36,0-.72,0-1.08,0-1.52,0-2.21-.57-2.51-2.08-.07-.37-.25-.62-.71-.58-.55.04-1.1.01-1.65.01"/>
    <path class="cls-3" d="m75.95,17.4c-.12.76-.08,1.53-.06,2.29,0,.44-.11.65-.58.65-2.05-.01-4.11,0-6.17,0-.93,0-1.86,0-2.8-.04-.63-.02-.8-.26-.79-.81.04-2.51-.09-5.02.14-7.53.04-.45-.33-.94.08-1.36.43-.45,1.01-.2,1.5-.2,2.7-.01,5.4.04,8.1.05.54,0,.65.28.65.73-.03,1.7-.03,3.39-.09,5.09-.01.36.15.73-.06,1.08"/>
    <path class="cls-3" d="m96.96,54.04c.35.15.72.1,1.07.06.56-.07.89.2,1.07.66.75,1.99,2.3,2.74,4.31,2.79.79.02.83.05.64.86-.32,1.39-.66,2.77-1,4.16-.09.37-.35.51-.72.5-1.62-.05-3.25.04-4.88-.06-1.24-.08-2.48,0-3.73-.02-1.98-.02-3.97-.07-5.95-.05-.53,0-.72-.22-.71-.66.04-1.19-.04-2.39.04-3.59.09-1.24,0-2.48.02-3.73.01-.84.12-.93.93-.93,2.63,0,5.26,0,7.89,0h.93"/>
    <path class="cls-3" d="m65.49,32.6c-.12,5.35-.06,10.71-.07,16.06,0,.38,0,.78-.04,1.14-.06.65.15.81.75.8,1.67-.03,3.35-.02,5.02,0,3.11.04,6.21.1,9.32.14,1.1.01,2.2,0,3.3,0,.44,0,.65-.19.65-.65,0-1.98-.01-3.97,0-5.95.02-3.11.05-6.21.07-9.32.02-3.06.01-6.12.09-9.18.03-1.1,0-2.2.05-3.3.03-.68-.19-.93-.86-.93-2.53.01-5.06-.15-7.6-.02-1.52.07-3.06-.04-4.59-.05-1.72-.01-3.44-.01-5.16,0-.73,0-.86.17-.86.93,0,2.49,0,4.97,0,7.46,0,.93-.04,1.86-.07,2.8"/>
    <path class="cls-3" d="m58.1,51.74c-1.05-.09-.95.29-.79.93.52,2.01,1.05,4.01,1.57,6.02.29,1.12.59,2.24.85,3.37.12.53.37.74.94.73,2.13-.03,4.25-.02,6.38-.01,2.53.01,5.07.05,7.6.07,3.49.03,6.98.05,10.47.07.8,0,.83,0,.85-.79.05-1.91.05-3.82.08-5.73,0-.43,0-.86.04-1.29.05-.56,0-1.18-.69-1.43-.6-.22-.86-.78-.97-1.3-.12-.56-.42-.57-.82-.57-1.82.01-3.63-.02-5.45-.04-2.82-.02-5.64,0-8.46-.03-3.85-.04-7.69-.05-11.54-.08"/>
    <path class="cls-3" d="m88.07,13.17c.32-.2.52.01.72.21.43.43.86.86,1.29,1.29.25.25,1.23.36,1.58.22.5-.2.43-.61.43-1.01,0-.65-.03-1.29,0-1.93.03-.51-.14-.66-.65-.66-3.03.02-6.07,0-9.1.02-.57,0-.79-.15-.73-.73.04-.43-.03-.86.02-1.29.06-.58-.23-.72-.73-.72-.79,0-1.58,0-2.44,0v-1.65c-.31-.09-.55-.09-.86,0v1.56c-.26.13-.45.13-.72,0v-1.56c-.31-.09-.55-.09-.86,0v1.65h-1.65c-3.23,0-6.45,0-9.68,0-.86,0-.85,0-.86.86-.02,1.6-.11,3.2-.05,4.8.06,1.75-.05,3.49-.06,5.23-.02,3.75,0,7.5-.03,11.26-.03,2.84,0,5.69-.08,8.53-.09,3.3-.04,6.6-.06,9.89,0,.64-.14.79-.79.79-1.79,0-3.58,0-5.38,0-.36,0-.73.01-.93-.36-.11-.22-.29-.13-.44-.14-.41-.01-.81,0-1.3,0,.02.88.38,1.68.59,2.51.72,2.9,1.47,5.79,2.22,8.68.28,1.08.64,2.14.83,3.23.12.64.44.72.96.72,2.34,0,4.68-.04,7.03,0,5.35.1,10.71.01,16.06.07,4.64.05,9.27.14,13.91.14,2.08,0,4.16,0,6.24.08,1.19.05,1.73-.44,2.06-1.53.61-2.04,1.11-4.11,1.67-6.16.29-1.08.63-2.15.92-3.23.13-.47.2-.95.31-1.47-.72-.2-1.46-.13-2.17-.09-.49.03-.73.43-.79.91.14.35.45.27.72.29.56.04.7.23.57.79-.21.93-.91,1.36-1.72,1.64-1.52.53-3.42-.25-3.67-1.78-.08-.49.03-.7.52-.72.31-.01.77.12.77-.36,0-.45-.36-.76-.84-.78-1.05-.04-2.1-.05-3.15-.08-1.53-.03-3.06-.06-4.59-.03-1.31.02-2.63-.08-3.95-.02-.82.04-1.67.11-2.51-.01-.36-.05-.58-.11-.57-.52.05-3.89.13-7.79.11-11.68,0-.65.27-1.42-.37-2.03.74-.76.32-1.7.38-2.56.1-1.76-.01-3.53.08-5.3.07-1.22.01-2.44.01-3.66v-3.37c0-1.18.74-1.93,1.94-1.93,1,0,2.01,0,3.01,0,.22,0,.52.07.63-.15.31-.61.22-1.3.12-1.92-.09-.52-.64-.63-1.18-.59-.77.06-1.56-.12-2.18.63-.31.38-.93.18-1.41.16-.93-.05-.93-.06-.93-1v-4.09c0-1.06.11-1.17,1.15-1.15.17,0,.33,0,.5,0"/>
  </g>
  <text class="cls-4" transform="translate(69.44 74.67)"><tspan x="0" y="0">60mm</tspan></text>
  <text class="cls-5" transform="translate(42.48 38.96)"><tspan x="0" y="0">63mm</tspan></text>
  <g>
    <g>
      <line class="cls-2" x1="69.06" y1="72.03" x2="55.6" y2="72.03"/>
      <path d="m54.73,72.03c.41-.15.92-.41,1.23-.68l-.25.68.25.68c-.31-.27-.82-.53-1.23-.68Z"/>
    </g>
    <g>
      <line class="cls-2" x1="93.5" y1="72.03" x2="106.55" y2="72.03"/>
      <path d="m107.42,72.03c-.41.15-.92.41-1.23.68l.25-.68-.25-.68c.31.27.82.53,1.23.68Z"/>
    </g>
    <line class="cls-2" x1="54.73" y1="72.89" x2="54.73" y2="71.16"/>
    <line class="cls-2" x1="107.42" y1="72.89" x2="107.42" y2="71.16"/>
  </g>
  <g>
    <g>
      <line class="cls-1" x1="51.85" y1="40.16" x2="51.85" y2="63.63"/>
      <path d="m51.85,64.58c-.17-.45-.45-1-.75-1.34l.75.27.75-.27c-.3.34-.58.9-.75,1.34Z"/>
    </g>
    <g>
      <line class="cls-2" x1="51.85" y1="34.31" x2="51.85" y2="9.46"/>
      <path d="m51.85,8.59c.15.41.41.92.68,1.23l-.68-.25-.68.25c.27-.31.53-.82.68-1.23Z"/>
    </g>
    <line class="cls-1" x1="52.72" y1="64.58" x2="50.99" y2="64.58"/>
    <line class="cls-2" x1="52.72" y1="8.59" x2="50.99" y2="8.59"/>
  </g>
  <text class="cls-6" transform="translate(52.88 89.89)"><tspan x="0" y="0">P60-FZT</tspan></text>
</svg>