<?xml version="1.0" encoding="UTF-8"?>
<svg id="T88DY" xmlns="http://www.w3.org/2000/svg" viewBox="0 0 150 100">
  <defs>
    <style>
      .cls-1 {
        stroke-width: .11px;
      }

      .cls-1, .cls-2, .cls-3, .cls-4, .cls-5 {
        fill: none;
        stroke-miterlimit: 10;
      }

      .cls-1, .cls-2, .cls-4, .cls-5 {
        stroke: #000;
      }

      .cls-6 {
        letter-spacing: -.03em;
      }

      .cls-7 {
        fill: #231f20;
        font-size: 12px;
      }

      .cls-7, .cls-8 {
        font-family: MyriadPro-Regular, 'Myriad Pro';
      }

      .cls-9 {
        letter-spacing: 0em;
      }

      .cls-8 {
        fill: #010101;
        font-size: 9px;
      }

      .cls-2 {
        stroke-width: .12px;
      }

      .cls-3 {
        stroke: #302e2e;
        stroke-width: .55px;
      }

      .cls-4 {
        stroke-width: .11px;
      }

      .cls-5 {
        stroke-width: .12px;
      }

      .cls-10 {
        fill: #302e2e;
      }
    </style>
  </defs>
  <g>
    <g>
      <g>
        <line class="cls-5" x1="98.77" y1="17.11" x2="106.06" y2="17.11"/>
        <path d="m106.76,17.11c-.33.12-.74.33-.99.55l.2-.55-.2-.55c.25.22.66.43.99.55Z"/>
      </g>
      <g>
        <line class="cls-4" x1="74.68" y1="17.11" x2="70.02" y2="17.11"/>
        <path d="m69.38,17.11c.3-.11.68-.3.91-.51l-.18.51.18.51c-.23-.2-.61-.39-.91-.51Z"/>
      </g>
      <line class="cls-5" x1="106.76" y1="16.19" x2="106.76" y2="18.04"/>
      <line class="cls-4" x1="69.38" y1="16.19" x2="69.38" y2="18.04"/>
    </g>
    <g>
      <g>
        <line class="cls-2" x1="54.15" y1="35.3" x2="54.15" y2="25.31"/>
        <path d="m54.15,24.59c.13.34.34.76.57,1.02l-.57-.2-.57.2c.23-.26.44-.68.57-1.02Z"/>
      </g>
      <g>
        <line class="cls-1" x1="54.15" y1="50.98" x2="54.15" y2="63.04"/>
        <path d="m54.15,63.69c-.11-.31-.31-.69-.52-.93l.52.19.52-.19c-.21.24-.4.62-.52.93Z"/>
      </g>
      <line class="cls-2" x1="53.22" y1="24.59" x2="55.07" y2="24.59"/>
      <line class="cls-1" x1="53.22" y1="63.69" x2="55.07" y2="63.69"/>
    </g>
    <text class="cls-8" transform="translate(74.72 19.76)"><tspan x="0" y="0">25mm</tspan></text>
    <text class="cls-8" transform="translate(43.24 45.22)"><tspan x="0" y="0">22mm</tspan></text>
    <g>
      <path class="cls-10" d="m100.76,53.43c-.39-.12-.82-.24-1.23-.34-.39-.1-.72.03-.99.2-.39.24-.45.63-.44,1.02.02.56.01,1.12.01,1.68,0,.14.01.28-.22.32,0,.02,0,.04-.01.06-.1.18-.28.29-.49.39-.23.11-.49.21-.59.46-.04.09-.1.22-.25.26,0,.01-.01.02-.03.02-.14.3-.31.6-.42.91-.07.2-.25.09-.37.13,0,.04-.02.08-.03.12-.05.67-.1,1.33-.17,2-.02.21-.05.45-.36.56-.14.33-.24.67-.62.89-.21.27-.43.53-.87.55-.05,0-.1.01-.15.02-.13.23-.34.35-.67.39-.82.11-1.65.04-2.47.09-.35.02-.6-.08-.61-.42-.05-.03-.1-.05-.15-.08-.17.04-.27-.07-.28-.15-.08-.35-.1-.7.07-1.04.03-.06.1-.05.16-.06-.03-.1.03-.17.12-.21.23-.11.47-.2.71-.3.11-.13.28-.07.42-.07.48,0,.97,0,1.45-.05.18,0,.24-.15.38-.2,0-1.02,0-2.05.02-3.07,0-.65.02-1.3.03-1.96l-.04-.06c-.24-.13-.56-.2-.55-.51-.25-.13-.46-.31-.62-.51-.18-.1-.49-.1-.47-.38-.08-.06-.15-.13-.23-.19-.55-.16-1.12-.14-1.69-.13-.11.23-.22.46-.34.7.49,0,.99,0,1.48,0,.1,0,.26-.04.23.13.23.12.44.27.52.47.13.35.56.43.81.67.16.03.25.12.24.25-.15,1.22-.04,2.44-.04,3.67,0,.05-.02.08-.08.1-.01.04-.03.08-.04.12-.02.33-.11.36-.5.33-.67-.05-1.32.01-1.92.29-.02,0-.04.02-.07.02-.27.29-.53.58-.81.85-.14.14.04.25.01.38-.08.39-.01.79.08,1.18.03.04.06.08.09.12.17.09.28.22.41.34.02,0,.04.01.04.03.05.01.09.03.09.07.25-.02.41.13.61.21.96-.03,1.92-.02,2.88,0,.2.03.2-.2.39-.19.38.03.72-.14,1.08-.2.03-.24.28-.39.47-.47.27-.12.36-.3.53-.46.36-.34.52-.77.87-1.1.01-.05,0-.1.07-.13.08-.86.04-1.73.36-2.56.05-.14.09-.25.26-.3.02-.05,0-.11.08-.13.02-.13-.03-.3.25-.29.33-.29.66-.57.99-.86.15-.16.37-.23.61-.26,0,0,.01,0,.01,0,0-.83,0-1.67.02-2.5,0-.17,0-.39.22-.44.2-.05.48-.15.64.1.39.09.77.17,1.16.26.31-.02.6-.03.86.15.12.09.3.04.45.04.07,0,.13,0,.2,0,.04-.22.08-.43.11-.65-.57-.04-1.14-.07-1.7-.25Z"/>
      <polygon class="cls-10" points="72.59 35.49 72.59 35.49 72.59 35.49 72.59 35.49"/>
      <path class="cls-10" d="m101.59,31.86c0-.12.03-.23.08-.34-.37-.07-.74-.15-1.09-.27-.32-.11-.65-.17-.98-.22-.41-.07-.78-.21-1.17-.31-.48-.12-.97-.16-1.45-.25-.24-.04-.47-.1-.68-.19-.12-.05-.23-.1-.36-.09-.19.02-.33,0-.37-.19-.03-.14-.2-.12-.28-.1-.69.14-1.28-.15-1.91-.27-.91-.17-1.81-.4-2.74-.54-.5-.08-1.02-.2-1.51-.35-.15-.05-.34,0-.45-.12-.03,0-.05,0-.08-.02-.44.05-.76-.25-1.18-.27-.29-.02-.57-.1-.87-.1-.19,0-.39.02-.49-.17-.03-.05-.09-.07-.16-.07-.62.03-1.19-.22-1.76-.33-.62-.12-1.28-.18-1.9-.37-.68-.2-1.39-.33-2.08-.49-.5-.12-1-.24-1.52-.33-.25-.04-.5-.11-.75-.09-.37.03-.59-.24-.94-.3-1.15-.21-2.28-.48-3.44-.64-.62-.08-1.16-.3-1.71-.51-.33-.13-.69-.1-1.02-.16-.45-.08-.92-.18-1.39-.18-.14.05,0,.21-.15.27-.03.09-.07.17-.1.26,0,.06.01.12.02.19.24.3.08.63.09.93.03.85-.03,1.7,0,2.55.01.33.36.61.29.97.42,0,.33.33.46.51.18.14.47.09.63.26.12-.02.22,0,.31.07.39,0,.79,0,1.18,0,.18-.05.35-.1.4-.27.07-.5.05-1,.04-1.5,0-.52.06-.55.69-.57.49-.01.89.25,1.37.23.05,0,.11.08.16.13.03,0,.04.01.05.04.77.21,1.29.64,1.63,1.23-.02.19.17.24.32.32.33.06.31.31.38.5,0,.04.02.08.02.12.38.26.28.64.37.97.04.14.05.29.07.43l.03.3c.13.38.07.76.03,1.14-.04.37-.1.77-.25,1.09-.26.55-.56,1.15-1.26,1.47,0,.02-.02.04-.02.06.03.42-.37.57-.71.76-.26.15-.54.3-.83.39-.58.18-1.19.31-1.83.23-.22-.03-.18-.19-.19-.3-.01-.63-.02-1.27-.02-1.9-.24.03-.42-.12-.64-.16-.6-.11-1.16-.01-1.59.27-.44.29-.92.62-.88,1.19.02.3-.21.57-.21.88.02.9.02,1.8.02,2.7,0,1.73,0,3.46-.02,5.18,0,.28.14.55.11.83-.14,1.09-.08,2.19-.1,3.29,0,.04,0,.09-.01.14.07.32-.02.65,0,.97.08.91.14,1.81.12,2.72.01.02.02.03.02.05.28.18.31.49.54.7.13.1.31.05.46.09.51-.09.98.14,1.48.11.08,0,.16,0,.24-.01.01-.05.03-.1.12-.1.63,0,1.25,0,1.88.02.03,0,.06.06.09.08.4,0,.79,0,1.19,0,.06-.14.22-.1.33-.1,1.41-.01,2.82-.01,4.23-.02.11,0,.24-.02.32.07.29,0,.57,0,.86-.01.2-.14.44-.06.66-.06.71-.01,1.43-.06,2.13.03.71.09,1.42.05,2.12.1.87.05,1.73-.09,2.6-.09.53,0,1.05,0,1.58-.02-.03-.04-.06-.08-.07-.12-.03-.09-.02-.18.01-.27-.01-.01-.02-.02-.04-.03-.01,0-.03-.02-.04-.03-.07-.05-.11-.12-.14-.19-.69-.04-1.38-.08-2.07-.07-.51.01-1.05-.07-1.53.02-.53.09-1.06.02-1.59.11-.31.05-.65-.06-.98-.07-.95-.03-1.9-.02-2.85.03-1.26.06-2.53,0-3.8.02-.82.01-1.64,0-2.47.05-.53.03-1.08-.02-1.62-.03-.6-.02-1.19.03-1.78,0-.34-.02-.72.02-1-.22-.12-.1-.19-.2-.19-.33,0-.55,0-1.1.01-1.65,0-.05.03-.08.09-.09.07-.28-.17-.54-.08-.83,0-1.08,0-2.16,0-3.24,0-1.69-.01-3.37-.01-5.06,0-1.06.02-2.11.02-3.17,0-.45,0-.91-.02-1.36-.02-.55.18-1.04.52-1.49.16-.21.7-.38.97-.31.13.03.23.1.23.22,0,.4,0,.79-.15,1.17.04.15.21.27.16.44.14.08.3.15.37.28.07.13.24.15.34.15.69-.02,1.38-.08,2.07-.05.05,0,.11-.04.17-.07.24-.19.57-.18.85-.3.07-.03.17-.04.24-.09.44-.16.5-.67,1.02-.76-.01-.12.12-.16.18-.25,0-.13-.05-.24.17-.33.13-.06.37-.16.29-.37,0,0,0-.03.01-.03.45-.14.5-.46.61-.78.04-.13.12-.26.13-.4.02-.2.02-.4.17-.57l.06-.12c-.03-.24-.07-.47.06-.7.09-.16.06-.34,0-.5-.15-.39-.12-.78-.07-1.18-.05-.05-.06-.11-.04-.18-.24-.23-.29-.49-.23-.77-.02-.28-.37-.42-.47-.68-.04-.1-.03-.23-.1-.33-.08-.06-.18-.1-.22-.17-.38-.61-1.09-.97-1.65-1.45-.14-.12-.41-.02-.6-.16-.41-.31-.92-.42-1.48-.39-.15,0-.3-.01-.45-.05-.43-.1-.88.18-1.16.43-.54.48-.24,1.02-.32,1.53-.02.12.08.26-.13.33-.19.07-.33.03-.53-.04-.87-.29-1.02-.87-1.01-1.54.01-.55.03-1.1-.02-1.65-.02-.28-.11-.56-.11-.84,0-.13,0-.26.21-.28,0-.15.2-.2.25-.17.58.25,1.23.3,1.85.44.25,0,.5,0,.75,0,.23-.01.28.08.27.24.4.07.81.15,1.16.33.21.02.44-.08.63.06l.15.08c.23.05.51-.14.69.11l.33.12c.5-.14.92.18,1.41.15.31-.02.61.14.93.13.16,0,.15.08.15.17.22.1.49.02.69.15.37.14.8.03,1.17.19.9.23,1.8.47,2.71.68.52.12,1.07.17,1.59.27.81.16,1.65.27,2.42.53.48.16.98.21,1.44.37.2.05.47-.13.62.11h.01c.62.1,1.25.18,1.86.3.51.1.99.29,1.49.38.41.07.76.25,1.16.34h.14c.57.05,1.1.26,1.67.28.17,0,.31.12.46.22.21.14.56.12.86.17.18.03.39,0,.5.17.06.02.11.05.17.07.48.13,1,.05,1.48.19.28.17.69.08.93.32.19-.09.36-.03.51.05.3.16.67.04.97.18.02.01.05.02.08.03-.05-.11-.09-.23-.1-.35Z"/>
      <path class="cls-10" d="m104.43,42.37c0-.42-.06-.84-.07-1.26-.01-.57.1-1.15.04-1.73-.06-.58,0-1.14.09-1.71.03-.19-.05-.43-.12-.61-.11-.27.12-.47.07-.71-.05-.25-.06-.5.01-.76-.08-.14-.03-.33-.22-.43-.71-.43-1.49-.66-2.36-.77-.56-.07-1.09-.28-1.63-.34-.74-.09-1.35-.44-2.1-.51-.6-.05-1.2-.23-1.81-.32-.33-.05-.66-.2-.99-.3-.46-.14-.94-.16-1.4-.25-.13-.02-.24-.01-.31-.13-.07-.11-.22-.11-.37-.13-.86-.11-1.72-.2-2.56-.42-.32-.08-.58-.26-.92-.33-.33-.06-.68-.14-1.01-.18-.31-.04-.59-.2-.91-.17-.03,0-.06-.06-.09-.09-.1,0-.2-.01-.3-.02-.44-.1-.94-.03-1.32-.3-.36-.1-.72-.21-1.08-.3-.2-.05-.44.04-.63-.09-.36-.04-.8,0-1.07-.14-.34-.18-.71-.08-1.02-.21-.26-.11-.48-.09-.73-.02-.26.07-.46.24-.75.26-.11,0-.09.08-.1.14-.11.52-.2,1.04-.12,1.57,0,.04-.01.08-.02.12,0,.13.15.23.12.37.07.24.08.48-.05.71,0,.13-.01.25-.02.38.04.25.04.49-.14.7-.13.21-.14.43-.16.66-.01.15.02.36-.19.43-.21.07-.16.19-.19.3.04.2-.06.35-.17.52-.19.31-.38.61-.59.9-.35.49-.78.92-1.32,1.29-.37.25-.67.56-1.03.83-.25.19-.51.47-.8.5-.73.07-1.18.6-1.91.67-.33.04-.66.25-1,.38-.18.06-.33.16-.32.35,0,.09-.05.11-.14.1,0,.04-.01.08-.02.12-.07,2.17-.04,4.34-.05,6.5,0,.17.09.33,0,.5,0,.04,0,.09,0,.13.02.76.04,1.53.06,2.29.08.16.14.32.24.47.19.28.56.19.86.23.24,0,.48-.07.7.06.24.01.52-.09.71-.04.48.14.94-.06,1.42.02.44.07.91-.01,1.36-.03.21,0,.42,0,.63,0,.28,0,.56,0,.85,0,.21-.03.43.03.63-.06.13.02.25.04.38.06.21,0,.42,0,.63,0,.05,0,.1,0,.14,0,1.02,0,2.03.02,3.05-.03.45-.02.89.04,1.34-.02.23-.03.49.14.76.12.15-.05.21.06.3.12.46-.15.93-.09,1.4-.07.1-.09.2-.08.31,0,.95-.11,1.89-.17,2.85-.09.34.03.7-.01,1.05-.04-.04-.07-.08-.14-.1-.22-.02-.06-.02-.12-.04-.18,0-.03-.01-.06-.02-.09,0,0,0,0-.02-.02-.05-.06-.07-.13-.08-.2-.7,0-1.41,0-2.11,0-2.33,0-4.67,0-7,0-.15,0-.31-.02-.44.08-.05.03-.15.04-.22.03-1.08-.23-2.19-.11-3.27-.07-.76.03-1.52-.08-2.27.06-.53.1-1.06-.14-1.6-.08-.31.03-.62,0-.93,0-.57,0-.7-.08-.71-.55-.02-.65,0-1.29,0-1.94,0-1.52-.02-3.05,0-4.57.01-.72-.03-1.43.07-2.15.03-.22.2-.34.36-.39.28-.08.58-.19.89-.1.04,0,.09,0,.13-.01,0-.29.27-.27.5-.29.35-.07.58-.32.93-.4.17-.25.53-.19.78-.32.15-.09.28-.21.4-.33.23-.24.59-.37.82-.61.31-.31.72-.55,1.02-.88.14-.15.18-.36.4-.46.2-.29.2-.67.64-.83.08-.17.15-.34.23-.5.04-.18.03-.38.29-.46.14-.15.19-.32.17-.5-.05-.5.16-.97.25-1.45.08-.41.17-.81.09-1.24-.05-.25,0-.5,0-.76,0-.09.04-.15.15-.15.41-.03.31-.22.2-.41h0c-.51-.15-.53-.23-.16-.6.33-.32.59-.34.96-.05.12.09.25.06.39.07.42.01.82.04,1.24.19.31.11.66.3,1.09.23.33-.05.73-.05.99.22.24.01.4.16.62.21.24-.08.48-.15.68.07.04.04.13.08.2.08.61.03,1.16.26,1.77.28.44.02.84.26,1.3.27.08,0,.2.1.18.22.05,0,.09.01.14.02.39-.14.63-.1.71.12.57.13,1.13.27,1.7.4.62,0,1.19.22,1.8.28.39.04.82.17,1.15.4h.02c.44-.04.84.1,1.24.21.75.15,1.5.3,2.25.45.18-.03.33,0,.37.17h.03c.41.21.9.04,1.32.19.39.19.86.16,1.28.3.14.05.27.09.36.2.37.07.39.27.37.53-.03.44-.04.89,0,1.33.03.27-.29.43-.21.69.02.04.04.09.07.13.12.07.13.17.12.28,0,.19-.06.38,0,.58.02.07.05.17-.08.22-.21.09-.13.32-.08.36.22.14.12.32.16.47.08.28.07.52-.12.77-.1.13.13.23.13.38-.01.65-.02,1.29,0,1.94,0,.17-.24.19-.2.37.05.23,0,.46.15.71.14.23.03.56.02.84-.03,1.07,0,2.15.03,3.22,0,.28-.24.48-.21.76.04.44.06.88-.03,1.33-.05.24-.15.36-.38.4.01.02.03.04.04.06.03.07.03.13.01.2,0,.03-.02.06-.04.09,0,0,0,.01,0,.02,0,0,0-.02.01-.03,0,.01,0,.03-.01.04,0,.05,0,.1,0,.14,0,.06-.01.12-.02.18.26,0,.53-.03.78-.11.68-.9.47-1.91.48-2.89.02-2.07.03-4.13.02-6.2Z"/>
      <path class="cls-10" d="m106.76,37.29c0-.06-.18-.2,0-.25-.07-.36-.11-.72-.14-1.09-.18.2-.35.39-.43.65-.08.27.02.59-.12.8-.23.36-.11.71-.16,1.06-.02.11-.1.29.15.35.02,0,.05.07.03.08-.41.29-.08.67-.18,1-.01.04-.02.08-.03.12,0,.04.01.09.02.13.07.13,0,.27,0,.4.02.17-.11.38.16.5.05.02.03.14.03.21,0,.55.07,1.1-.04,1.63-.07.32-.23.65-.13.96.11.35.19.66-.02.99-.01.02-.01.04-.02.06,0,.04,0,.08,0,.13,0,.28,0,.56-.01.83h0c.17.03.23.11.22.25,0,.29-.05.58-.13.87-.13.49-.03,1.01-.05,1.51-.02.52.07,1.05,0,1.57,0,.06-.03.14-.02.21.26-.13.55-.2.86-.27,0-.79,0-1.58,0-2.37,0-1.4-.01-2.8,0-4.2,0-.95.03-1.91.03-2.86,0-1.1-.02-2.2,0-3.3Z"/>
      <path class="cls-10" d="m103.3,51.34s-.03-.08-.06-.12c-.02-.02-.03-.04-.05-.06,0,0-.01.02-.01.02-.68-.3-1.33-.66-2.08-.86-.03,0-.05,0-.08-.01-.4-.01-.8-.06-1.19-.04-.63.03-1.24.06-1.84.3-.39.16-.68.35-.96.61-.21.2-.5.38-.83.48-.14.15-.1.36-.26.5-.12.45-.43.7-.95.74-.09,0-.21-.04-.26-.1-.37-.42-.74-.84-1.21-1.19-.22-.17-.4-.4-.77-.34-.03,0-.07-.02-.1-.05-.21-.22-.48-.27-.77-.3-.07,0-.14.01-.22,0-.05,0-.1-.02-.14-.02,0,0,0,0,0,0-.02,0-.04.01-.07.02-.01,0-.03,0-.04,0-.04,0-.07,0-.11.01,0,0,0,0,0,0-.02,0-.07,0-.1,0-.1.18-.21.36-.31.55.12,0,.25-.02.31.12.4.1.86-.03,1.21.2.18.12.37.22.59.26.2.04.25.17.27.32.02,0,.03.01.03.03.38.2.64.47.73.84.2.29.59.23.9.31.36.1,1.31-.19,1.38-.45.11-.38.44-.63.66-.94.16-.36.44-.6.94-.62.21-.17.45-.29.72-.38.06-.24.29-.1.45-.13.25-.06.49-.18.77-.12.36.02.75-.11,1.09.11.08,0,.16,0,.23.01.26-.04.46.03.56.24.14.08.27.17.41.25.01,0,.02-.02.04-.02.04.01.09,0,.13.02.15-.03.31-.06.46-.07.12,0,.26,0,.39.03,0,0,.01,0,.02,0,.05-.02.09-.03.14-.03,0-.03,0-.06,0-.1Z"/>
      <path class="cls-3" d="m101.96,53.92c3.74,1.25,4.59-2.74,4.31-4.91"/>
      <path class="cls-3" d="m101.35,31.8c.45.03,3.17.25,4.4,1.91.74,1,.72,2.24.7,3.14-.01.71-.13,1.29-.23,1.69"/>
    </g>
  </g>
  <text class="cls-7" transform="translate(58.79 84.78)"><tspan x="0" y="0">T88</tspan><tspan class="cls-6" x="18.28" y="0">D</tspan><tspan class="cls-9" x="25.93" y="0">Y</tspan></text>
</svg>