<?xml version="1.0" encoding="UTF-8"?>
<svg id="T80SISHAN" xmlns="http://www.w3.org/2000/svg" viewBox="0 0 150 100">
  <defs>
    <style>
      .cls-1 {
        fill: #a09e9d;
      }

      .cls-2 {
        fill: #1b1616;
      }

      .cls-3 {
        fill: #544f4f;
      }

      .cls-4 {
        fill: #cac9c8;
      }

      .cls-5 {
        fill: #231e1e;
      }

      .cls-6 {
        fill: #231f20;
        font-size: 12px;
      }

      .cls-6, .cls-7 {
        font-family: MyriadPro-Regular, 'Myriad Pro';
      }

      .cls-8 {
        fill: #feffff;
      }

      .cls-9 {
        fill: #24201f;
      }

      .cls-7 {
        fill: #010101;
        font-size: 9px;
      }

      .cls-10 {
        stroke-width: .15px;
      }

      .cls-10, .cls-11, .cls-12, .cls-13 {
        fill: none;
        stroke: #000;
        stroke-miterlimit: 10;
      }

      .cls-14 {
        fill: #292524;
      }

      .cls-15 {
        fill: #221d1d;
      }

      .cls-11 {
        stroke-width: .1px;
      }

      .cls-12 {
        stroke-width: .1px;
      }

      .cls-13 {
        stroke-width: .15px;
      }
    </style>
  </defs>
  <g>
    <g>
      <path class="cls-9" d="m60.39,19.41c.07.07.14.14.2.21.04.04.08.1.09.15.03.13,0,.27.05.39.14.39.28.79.47,1.17.11.21.17.44.21.66.05.22-.02.46-.03.69-.12.01-.25.02-.37.03,0-.12,0-.23-.01-.35,0-.17-.01-.35-.02-.52l-.09-.27s0-.02,0-.03c-.07-.18-.14-.35-.21-.53,0-.03-.02-.06-.03-.08-.11-.26-.21-.52-.32-.78-.01-.03-.03-.06-.04-.1-.1-.33-.14-.36-.41-.32-.14.02-.28.04-.42.06,0,.05,0,.1,0,.15,0,.06,0,.13,0,.19,0,7.87,0,15.73,0,23.6,0,.09.04.18.03.27-.02.3.05.39.36.45.07.01.14.03.22.04.43-.01.87-.02,1.3-.04.13,0,.23-.09.21-.25-.02-.2-.04-.41-.05-.61,0-.09,0-.17,0-.26,0-.03,0-.06,0-.09,0-.04,0-.09,0-.13.01-.03.03-.06.04-.09-.01-.13-.03-.26-.04-.39-.07,0-.13,0-.19,0-.26-.04-.32-.11-.32-.37,0-.26,0-.53,0-.79.12.06.25.12.37.17,0,.1,0,.2,0,.3,0,.29,0,.3.29.3.15,0,.26.06.27.21.02.32.05.64.04.96,0,.21-.04.41.07.61.02.03,0,.08,0,.12-.03.26-.16.45-.37.59-.1.04-.2.08-.3.12-.56,0-1.12,0-1.67.01-.03,0-.06-.02-.09-.03-.16-.1-.38-.14-.45-.35-.06-.17-.2-.29-.17-.52.05-.38.02-.77.02-1.16,0-7.41,0-14.82,0-22.22,0-.16.01-.32,0-.47-.03-.36.03-.68.38-.87.16.01.32.03.48.04.03,0,.06,0,.09,0,.07,0,.14,0,.22,0,.03,0,.05.02.08.02.04.03.09.06.13.09Z"/>
      <path class="cls-15" d="m115.62,19.31c.06.04.12.07.18.11.03.05.07.09.1.14-.17.11.03.2.02.31-.03.16-.08.31-.08.47-.01.45,0,.89,0,1.34,0,6.77,0,13.54,0,20.31,0,.37,0,.73,0,1.1-.02.02-.05.05-.07.07.02.02.05.04.07.06,0,.03,0,.06,0,.09-.17.1-.17.16,0,.26.03.15.07.29.09.44.01.1,0,.2,0,.29-.19,0-.2-.16-.26-.29-.04-.1-.13-.18-.2-.27,0-.06,0-.13,0-.19,0-7.78,0-15.56,0-23.35,0-.06,0-.13,0-.19.2,0,.23-.16.23-.29,0-.06-.13-.16-.2-.17-.14-.01-.26.06-.25.24-.1,0-.21.02-.31,0-.17-.02-.26.05-.29.22-.25.6-.5,1.21-.75,1.81-.19-.03-.27.07-.25.25.03.34.08.68.08,1.02.01,1.14,0,2.29,0,3.43,0,.98-.03,1.97-.04,2.95,0,.15-.02.3-.05.45,0,.04-.08.07-.13.1,0-.3-.02-.6-.02-.9,0-2.1,0-4.2,0-6.3.11-.12.12-.23,0-.35,0-.03,0-.06,0-.09.13-.1.13-.2,0-.3,0-.07,0-.14,0-.22.04-.14.36-.15.17-.39.04-.1.08-.2.12-.3.03-.01.05-.03.08-.04-.02-.02-.03-.04-.05-.05,0-.01.02-.02.02-.04.01-.04.03-.08.04-.13.06-.17.13-.35.19-.52l.03-.04h0c.07-.04.26-.01.09-.17,0-.04,0-.09.01-.13.01-.03.03-.05.04-.08.04-.08.08-.17.12-.25.02-.03.03-.06.05-.09.06-.07.11-.14.17-.22.01-.02.03-.03.04-.05.02,0,.03-.02.05-.03.02,0,.03,0,.05-.01.03,0,.05-.02.08-.03v-.02s.08,0,.13.01c0,.13.05.19.18.11.03,0,.06,0,.08.01.01,0,.03,0,.04-.01h0c.09-.03.25.09.26-.12.01,0,.03-.01.04-.02.03,0,.06,0,.09,0,0,0,0,.02,0,.02.02.01.03.02.05.03Z"/>
      <path class="cls-9" d="m114.29,19.72s.03,0,.04-.01c-.04.08-.08.17-.12.25.03-.08.05-.16.08-.24Z"/>
      <path class="cls-9" d="m115.62,19.31s-.03-.02-.05-.03c.02.01.03.02.05.03Z"/>
      <path class="cls-15" d="m95.05,30.31l.13.4s.05.05.08.08c.3.16.59.25.95.25,3.28-.02,6.55-.02,9.83-.02,2.23,0,4.46.02,6.69,0,.26,0,.51-.13.77-.2.03-.02.06-.04.09-.06-.02-.02-.05-.04-.07-.06,0-.12,0-.23,0-.35.15.03.31.06.46.09,0,.01,0,.03.01.04,0,.04,0,.09,0,.13-.04.04-.08.08-.12.11,0,.06,0,.11,0,.17-.05.06-.09.13-.14.19-.07.04-.14.08-.22.13-.07.03-.14.07-.2.1-.1.04-.21.08-.31.12-.04,0-.09,0-.13,0-5.51,0-11.02,0-16.53,0-.31,0-.62-.02-.92-.03-.08-.06-.16-.12-.24-.19-.33-.25-.54-.55-.49-.99.12.03.25.06.37.09Z"/>
      <path class="cls-5" d="m115.23,44.87l.35-.12c.07-.08.14-.15.2-.23.02-.04.04-.09.06-.13.03-.03.05-.07.08-.1,0,0,0,0,0,0-.19,0-.2-.16-.26-.29-.04-.1-.13-.18-.2-.27,0,.19,0,.37-.01.56,0,.22-.17.16-.3.17-.04,0-.09,0-.13,0-.06,0-.12,0-.17,0-.03,0-.06,0-.09,0-.36,0-.73,0-1.09,0-.15,0-.32-.23-.33-.42-.02-.35-.04-.71-.04-1.06,0-.28.07-.35.34-.37.07,0,.14-.03.2-.05.02-.12.05-.24.05-.36,0-2.74,0-5.47,0-8.21,0-.12.03-.24.06-.35.07-.28,0-.52-.22-.7-.2-.17-.43-.3-.7-.15-.08.02-.15.06-.23.06-4.57,0-9.13,0-13.7,0-.19,0-.37,0-.56,0-.03,0-.06,0-.09,0-.03,0-.06,0-.09,0-.03,0-.06,0-.09,0-.14,0-.29,0-.43,0-.03,0-.06,0-.09,0-.04-.01-.09-.02-.13-.04-.09-.03-.17-.06-.26-.09-.08.02-.17.05-.25.07-.07.04-.14.08-.22.13l-.13.16c-.04.1-.09.2-.13.3,0,.06,0,.11,0,.17,0,.07,0,.14,0,.22.01.16.03.32.04.47.01.2.03.4.04.6.01.12.03.23.04.35,0,.06,0,.12,0,.17,0,.03,0,.06,0,.09l.04.09c0,.07,0,.14,0,.22.01.09.03.17.04.26,0,.04,0,.09,0,.13,0,.07,0,.14,0,.22l.04.39c.05.09.1.17.15.26.01,0,.02.01.03.03.05.05.1.1.14.15.05.03.11.05.16.08.01,0,.03,0,.04,0,.1-.16.22-.17.43-.04.18-.06.36-.12.54-.17.05-.01.12.02.18.04-.02.06-.04.13-.06.19,0,.03-.02.05-.03.08,0,0,0,0,.01.01-.01,0-.02,0-.03,0-.42.5-.84,1.01-1.27,1.51-.17.2-.33.39-.5.58-.07.07-.15.15-.22.22l-.02.05s-.01-.03-.02-.05c-.03-.02-.05-.04-.08-.05-.05,0-.1.01-.14.03-.16.07-.27-.02-.39-.11,0,.03,0,.06,0,.09l.1.17c.08.06.15.13.24.17.1.05.21.09.31.14.13-.05.26-.1.39-.14.01-.01.02-.02.03-.03.14-.2.26-.42.42-.61.26-.32.53-.63.79-.95.05-.06.09-.12.14-.17l.22-.26s.02-.02.03-.03c.03-.05.07-.09.1-.14.06-.06.12-.12.17-.17.07-.11.14-.23.21-.34.01-.29-.1-.5-.38-.6l-.52.04s-.08.05-.13.08c-.41.21-.6.11-.66-.36,0-.01-.02-.02-.02-.03,0,0,0-.01,0-.02-.06-.65-.12-1.3-.18-1.95-.02-.07-.03-.14-.05-.22,0-.13,0-.26,0-.39,0-.06,0-.12,0-.17,0-.04,0-.09,0-.13.04-.1.08-.2.12-.3.04.01.09.03.13.04.09,0,.17,0,.26,0,.1,0,.2,0,.3,0,4.94,0,9.88,0,14.82,0,.18,0,.37-.03.55-.07.25-.05.34.04.3.29-.04.2-.04.4-.04.6,0,2.39,0,4.79,0,7.18,0,.27,0,.53.01.8,0,.17-.06.2-.2.17-.07,0-.14,0-.21.01-.05.07-.09.14-.14.21,0,.03-.01.07-.02.1,0,.12,0,.25,0,.37,0,.09,0,.18,0,.27,0,.12,0,.25,0,.37l-.03.31s0,.06,0,.09c.04.17.09.35.13.52.03.03.06.06.08.09.08.07.16.14.23.21.07.04.14.08.21.11.52,0,1.03.01,1.55.02.04,0,.08-.02.12-.02Z"/>
      <path class="cls-15" d="m93.65,19.34s.07-.04.11-.06c.14,0,.28.02.43.02.23.15.46.3.69.44.02.03.05.06.07.09.07.15.15.31.2.47.03.11.07.25.03.33-.18.34-.09.7-.13,1.05-.11.03-.22.06-.34.08-.01,0-.03,0-.04,0,0-.19,0-.37,0-.56v-.13s0-.09,0-.13c.01-.1.03-.2.04-.3.11-.12.12-.25.05-.39-.12-.25-.28-.44-.56-.53-.12,0-.23.02-.35.02-.24.01-.49.03-.73.04-.43,0-.85,0-1.28,0-3.31,0-6.61,0-9.92,0-.07,0-.14,0-.22,0-.2,0-.4,0-.6,0-.19-.16-.36-.06-.52.06-.02.01-.03.02-.05.03-.27.24-.37.55-.34.91,0,.14,0,.29-.01.43-.12.01-.25.03-.37.04v-.78c.06-.31.2-.57.42-.8.23-.24.5-.36.83-.37.06,0,.12,0,.17,0,.22.08.45.18.69.09.2,0,.4,0,.61,0,.01,0,.03,0,.04.01.07.03.13.07.2.08.53,0,1.07,0,1.6,0,2.71,0,5.42,0,8.12,0,.08,0,.16-.05.24-.08v-.02c.21,0,.43.02.65.01.09,0,.18-.03.27-.05h0Z"/>
      <path class="cls-9" d="m92.72,19.4c-.08.03-.16.08-.24.08-2.71,0-5.42,0-8.12,0-.53,0-1.07,0-1.6,0-.07,0-.13-.05-.2-.08.08,0,.16-.01.24-.01,3.24,0,6.49,0,9.73,0,.06,0,.13,0,.19,0Z"/>
      <path class="cls-8" d="m81.22,19.29c-.06,0-.12,0-.17,0,.04-.04.09-.07.13-.11.01.03.03.07.04.1Z"/>
      <path class="cls-15" d="m61.39,30.18c0,.13-.01.28.04.39.05.11.17.19.26.28.03,0,.06.02.09.03.07.03.14.06.22.09.06.03.13.07.19.07.28,0,.57-.02.85-.03.3,0,.6,0,.91,0,4.88,0,9.76,0,14.64,0,.22,0,.44,0,.66-.01.15-.06.31-.11.46-.18.05-.02.06-.11.09-.17,0-.1.01-.2.02-.3,0-.2,0-.4,0-.6,0-.04.02-.09.03-.13.11.06.23.11.34.17,0,.01,0,.03.01.04,0,.09,0,.17,0,.26.02.07.05.15.07.22.12.25-.02.45-.13.66-.16.1-.32.21-.49.31l-.07.04c-.08.03-.17.07-.25.1-.09,0-.17,0-.26,0-5.75,0-11.51,0-17.26,0-.07-.04-.13-.07-.2-.11-.03-.02-.05-.04-.08-.06-.06-.04-.11-.09-.17-.13-.09-.1-.18-.2-.27-.3-.03-.2-.07-.39-.09-.59-.02-.19,0-.38-.01-.57,0-.03,0-.06.01-.09.06.05.13.1.19.14.06.04.12.08.17.12,0,.1.01.2.02.3,0,.01,0,.03,0,.04Z"/>
      <path class="cls-2" d="m61.37,29.84c-.06-.04-.12-.08-.17-.12-.07-.05-.13-.1-.19-.14,0-.75,0-1.49,0-2.24,0-1.54,0-3.08,0-4.62.12-.01.25-.02.37-.03-.01.2-.03.4-.03.6,0,.26.03.51.03.77,0,1.84,0,3.69,0,5.53,0,.09,0,.17,0,.26Z"/>
      <path class="cls-3" d="m61.39,30.18v-.04s.02,0,.03.01c-.01,0-.02.02-.03.03Z"/>
      <path class="cls-2" d="m61.34,34.28c.01,2.16.03,4.32.04,6.47,0,.3,0,.6,0,.9-.12-.06-.25-.12-.37-.17,0-.01,0-.03-.01-.04,0-.87,0-1.75,0-2.62,0-1.46,0-2.91,0-4.37.11-.06.22-.12.33-.17Z"/>
      <path class="cls-9" d="m113.89,21.81c0,.64,0,1.28,0,1.92,0,2.08,0,4.16,0,6.24,0,.07,0,.14,0,.21,0,.03.01.06.02.09.02.06.04.11.05.17-.15-.03-.31-.06-.46-.09,0-.12,0-.23,0-.35.04-.03.12-.06.13-.1.03-.15.05-.3.05-.45.02-.98.04-1.97.04-2.95,0-1.14,0-2.29,0-3.43,0-.34-.05-.68-.08-1.02-.01-.18.06-.27.25-.25Z"/>
      <path class="cls-9" d="m115.46,20c0-.07,0-.13-.01-.21-.07,0-.14,0-.21-.01,0-.18.11-.25.25-.24.08,0,.21.11.2.17,0,.13-.04.29-.23.29Z"/>
      <path class="cls-9" d="m113.47,21.85c.06-.13.11-.26.17-.39.2.24-.12.25-.17.39Z"/>
      <path class="cls-5" d="m115.83,43.3c0,.09,0,.17,0,.26-.17-.1-.17-.16,0-.26Z"/>
      <path class="cls-9" d="m113.48,22.8c0-.12,0-.23,0-.35.12.11.12.23,0,.35Z"/>
      <path class="cls-9" d="m115.96,19.85s-.03,0-.04.01c.01-.1-.19-.19-.02-.31.02.1.04.2.06.29Z"/>
      <path class="cls-9" d="m113.47,22.37c0-.1,0-.2,0-.3.13.1.13.2,0,.3Z"/>
      <path class="cls-9" d="m114.37,19.61c.06-.07.11-.14.17-.22-.06.07-.11.14-.17.22Z"/>
      <path class="cls-9" d="m115.19,19.39c.09-.04.17-.08.26-.12-.01.2-.17.09-.26.12Z"/>
      <path class="cls-9" d="m114.07,20.34c.03-.06.06-.11.09-.17.17.16-.02.13-.09.17Z"/>
      <path class="cls-9" d="m114.97,19.3s.06.06.09.09c-.13.07-.18.01-.18-.11.03,0,.06.02.09.03Z"/>
      <path class="cls-5" d="m115.83,43.09s0,.09,0,.13c-.02-.02-.05-.04-.07-.06.02-.02.05-.05.07-.07Z"/>
      <path class="cls-9" d="m113.76,21.16s.02-.06.03-.09c.02.02.03.04.05.05-.03.01-.05.03-.08.04Z"/>
      <path class="cls-9" d="m113.81,21.03s.03-.08.04-.13c-.01.04-.03.08-.04.13Z"/>
      <path class="cls-9" d="m114.68,19.31s.05-.02.08-.03c-.03,0-.05.02-.08.03Z"/>
      <path class="cls-9" d="m115.15,19.41s.03,0,.04-.01c-.01,0-.03,0-.04.01Z"/>
      <path class="cls-9" d="m114.04,20.38s.02-.03.03-.04c0,.01-.02.03-.03.04Z"/>
      <path class="cls-9" d="m114.58,19.35s.03-.02.05-.03c-.02,0-.03.02-.05.03Z"/>
      <path class="cls-9" d="m113.51,30.7s.05.04.07.06c-.03.02-.06.04-.09.06,0-.04.01-.08.02-.12Z"/>
      <path d="m94.71,21.77c.11-.03.22-.06.34-.08v7.51c-.11.04-.21.09-.32.13,0-.01-.01-.03-.02-.04,0-.1.02-.2.02-.3,0-1.38,0-2.77,0-4.15,0-1.02,0-2.04-.01-3.06Z"/>
      <path class="cls-2" d="m94.72,29.32c.1-.04.21-.09.31-.13,0,.37,0,.75,0,1.12-.12-.03-.25-.06-.37-.09.02-.3.04-.6.05-.91Z"/>
      <path class="cls-8" d="m94.19,19.3c-.14,0-.28-.02-.43-.02.03-.06.07-.18.1-.18.14,0,.32-.02.32.2Z"/>
      <path class="cls-8" d="m113.72,31.3c-.12.07-.17,0-.22-.1.07-.04.14-.08.22-.13,0,.05,0,.09,0,.14v.09Z"/>
      <path class="cls-8" d="m113.98,30.61c-.03.06-.05.12-.08.17-.02-.02-.03-.04-.05-.06.04-.04.08-.08.12-.11Z"/>
      <path class="cls-9" d="m113.86,30.73s.03.04.05.06c-.02.04-.03.07-.05.11,0-.06,0-.11,0-.17Z"/>
      <path class="cls-15" d="m95.71,34.45c.03.4.05.8.08,1.21.01.04.02.09.03.13.01.12.03.23.04.35,0,.04.01.08.02.13.04.42.08.84.12,1.26.03.39.07.78.1,1.17,0,.11.02.22.03.33-.02.01-.04.03-.06.04.02.01.04.03.06.04,0,.06,0,.11,0,.17l-.07.05s.07.02.11.03c.04.06.09.11.13.17.02.03.03.06.05.08-.05,0-.1.01-.14.03-.16.07-.27-.02-.39-.11-.01-.06-.03-.11-.04-.17,0-.02,0-.03,0-.05.06-.1.16-.19.18-.3,0-.04-.14-.12-.21-.18-.02-.07-.04-.14-.06-.22,0-.03,0-.06,0-.09,0-.07,0-.14,0-.22.12-.13.12-.19-.04-.26-.03-.07-.09-.13-.09-.2,0-.23,0-.47,0-.7.06.03.12.07.18.1,0-.14-.02-.18-.18-.27-.01-.13-.03-.26-.04-.39.02-.02.05-.04.07-.06-.03-.02-.05-.05-.08-.07,0-.03-.01-.05-.02-.08.08-.12.11-.24-.03-.35-.03-.2-.06-.4-.09-.6.06,0,.12,0,.19-.01.05-.2,0-.32-.19-.37-.01-.12-.03-.23-.04-.35.14-.16.11-.44-.06-.56,0-.13-.02-.26-.02-.39.07-.06.14-.12.21-.18-.05-.05-.11-.11-.16-.16,0-.13,0-.27-.19-.26-.13.01-.25.05-.38.08-.03,0-.06,0-.08,0-.02-.02-.04-.05-.06-.07-.02.02-.05.05-.07.07-.01,0-.03,0-.04.01-.08,0-.16,0-.24,0-4.55,0-9.09,0-13.64,0-.09,0-.17,0-.26,0-.17-.16-.37-.22-.59-.26-.05,0-.1-.08-.14-.12h0s.03-.02.04-.04c.09-.03.17-.07.26-.1.09.02.17.04.26.06.03.01.06.02.09.04,0,0,0,.02,0,.03.07.19.33.3.61.27.2-.02.41-.04.61-.04,3.4,0,6.8,0,10.19,0,.14,0,.28.04.43.04.49,0,.99-.05,1.48-.03.37.01.74.1,1.11-.08.12-.06.18-.09.17-.22.14,0,.29-.01.42.03.27.1.4.33.46.6-.03.09-.06.17-.09.26h-.02c-.17.06-.17.19,0,.34h.02s0,.08,0,.13c.01.1.03.2.04.3Z"/>
      <path class="cls-15" d="m97.81,37.26c-.1.02-.2.03-.3.05l-.09-.05c.1-.16.22-.17.43-.04v.02s-.03.02-.05.03Z"/>
      <path class="cls-8" d="m96.36,39.63s-.03-.06-.05-.08c.13-.03.26-.06.39-.08-.07.07-.15.15-.22.22-.01,0-.03,0-.04,0-.03-.02-.05-.04-.08-.05Z"/>
      <path class="cls-8" d="m96.69,34.24c-.22-.07-.08-.26-.12-.39v-.09s.05,0,.08,0c.01.16.03.32.04.47Z"/>
      <path class="cls-8" d="m96.77,35.19c-.16,0-.15-.13-.16-.22,0-.04.07-.08.11-.12.01.12.03.23.04.35Z"/>
      <path class="cls-1" d="m112.9,43.86c-.02-.07-.03-.14-.05-.22.03-.03.05-.06.08-.1,0,.1-.02.21-.03.31Z"/>
      <path class="cls-8" d="m95.79,39.81c.01-.06.02-.11.04-.17.03.06.07.11.1.17-.05,0-.09,0-.14,0Z"/>
      <path class="cls-1" d="m112.93,43.18c-.11-.09-.1-.18,0-.27,0,.09,0,.18,0,.27Z"/>
      <path class="cls-8" d="m97.3,33.24s-.04.05-.06.07c-.02-.04-.05-.08-.07-.11.04.01.09.03.13.04Z"/>
      <path class="cls-8" d="m98.47,32.85s.03-.04.04-.06c.01.02.03.04.04.06-.03,0-.06,0-.09,0Z"/>
      <path class="cls-8" d="m98.29,32.85s.03-.04.04-.06c.01.02.03.04.04.06-.03,0-.06,0-.09,0Z"/>
      <path class="cls-8" d="m97.78,32.85l.04-.06s.03.04.04.06c-.03,0-.06,0-.09,0Z"/>
      <path class="cls-1" d="m112.92,42.53s-.04-.03-.06-.04c.02-.02.05-.04.07-.06,0,.03-.01.07-.02.1Z"/>
      <path class="cls-9" d="m96.44,39.68s.03,0,.04,0c0,.02-.01.03-.02.05,0-.02-.01-.03-.02-.05Z"/>
      <path class="cls-9" d="m96.9,39.94s-.02.02-.03.03c.01-.01.02-.02.03-.03Z"/>
      <path class="cls-9" d="m98.5,37.91s-.02.02-.03.03c0-.01.02-.02.03-.03Z"/>
      <path class="cls-9" d="m97.08,37.03l-.03-.03s.02.01.03.03Z"/>
      <path class="cls-8" d="m98.47,37.37s0-.02.02-.02c0,0,0,0,.01.01-.01,0-.02,0-.03,0Z"/>
      <path class="cls-2" d="m80.19,28.97c0,.27,0,.55-.01.82-.11-.06-.23-.11-.34-.17,0-.19-.01-.37-.02-.56,0-1.03,0-2.07,0-3.1,0-1.29,0-2.57,0-3.86,0-.1-.02-.19-.03-.29,0-.19,0-.37.01-.56.12-.01.25-.03.37-.04,0,.01,0,.03.01.04,0,.06,0,.12,0,.17,0,1.66,0,3.33,0,4.99,0,.85,0,1.71,0,2.56Z"/>
      <path class="cls-8" d="m94.71,29.28c-.04-.13-.12-.27-.12-.4,0-1.49,0-2.98,0-4.46,0-.78,0-1.57,0-2.35,0-.1.06-.2.08-.3.01,0,.03,0,.04,0,0,1.02.01,2.04.01,3.06,0,1.38,0,2.77,0,4.15,0,.1-.01.2-.02.3Z"/>
      <path class="cls-8" d="m80.58,19.84s-.03.02-.05.03c.02-.01.03-.02.05-.03Z"/>
      <path class="cls-5" d="m79.63,32.86s.09.11.14.12c.22.04.42.1.59.26-.01,0-.03,0-.04.01-.1,0-.2,0-.3,0q-.33-.02-.39.29c-.01.06-.03.12-.05.18-.17.1-.17.16,0,.26-.01.07-.03.14-.04.22-.15.07-.07.17-.04.26-.02.23-.03.46-.05.69,0,.01,0,.02,0,.04-.02.04-.03.09-.05.13-.16.1-.19.44-.05.56-.03.24-.05.49-.08.73-.02.16-.06.32-.09.48-.11.08-.18.15-.03.26-.03.3-.07.6-.1.9-.1.05-.18.11-.04.22v.04c-.08.08-.22.15-.03.26.01.27.02.55.03.82,0,.05,0,.1,0,.15l-.13.23c-.07.03-.14.06-.21.08-.13-.13-.25-.13-.3,0-.05-.01-.11-.03-.16-.04-.06-.04-.12-.08-.18-.12l-.13-.13c-.22-.27-.43-.55-.65-.82-.1-.12-.2-.23-.29-.35-.18-.21-.35-.43-.53-.64-.1-.12-.2-.24-.29-.36-.03-.04-.06-.08-.09-.12.01-.14.03-.29.04-.43.06-.11.12-.23.18-.34.03-.01.06-.03.08-.04.23-.08.43,0,.62.13.08.05.19.08.28.12.06-.03.12-.05.17-.08.04-.41.08-.83.13-1.24.06-.51.14-1.03.21-1.54.02-.12.03-.25.08-.36.07-.14.14-.26.03-.41-.13-.17-.26-.16-.41-.04-.09,0-.17,0-.26,0-.08,0-.16,0-.24,0-3.75,0-7.51,0-11.26,0-1.24,0-2.47,0-3.71,0-.09,0-.17,0-.26,0l-.13-.04c-.26-.03-.19.19-.21.3-.04.25-.04.52-.06.77-.11.06-.22.12-.33.17,0-.03,0-.06-.01-.09,0-.24,0-.49,0-.73.03-.49.26-.79.67-.89.06-.01.15-.03.19,0,.23.16.5.12.75.12,4.26,0,8.52,0,12.79-.01.55,0,1.09.01,1.64,0,.15,0,.3-.07.45-.09.11-.01.22,0,.33,0,.02.01.03.03.05.04.21.08.32.25.44.44.15.24.03.4-.09.57-.01.02-.01.04-.02.06-.04.31-.07.63-.14.94-.04.18.04.35-.05.55-.1.25-.06.56-.08.85-.01.07-.03.15-.04.22,0,.09,0,.17,0,.26,0,.07.01.14.02.21-.05.07-.09.14-.14.22-.16.14-.35.21-.56.17-.12-.02-.23-.08-.35-.13-.03-.01-.06-.03-.09-.04-.11-.06-.23-.2-.34,0,0,.01,0,.03,0,.04.05.13.08.28.16.39.25.33.52.64.79.95.23.28.46.57.69.85.09.1.19.18.29.28.03.02.06.03.09.05h0s.03.03.05.04c.01,0,.03-.01.04-.02h0s.01-.05.02-.08c.03-.29.06-.58.08-.86.05-.03.1-.05.15-.08-.04-.03-.07-.06-.11-.1,0-.11,0-.23,0-.34.01-.05.02-.09.03-.14,0-.07,0-.15,0-.22.02-.04.04-.08.06-.12,0-.03,0-.06,0-.08,0-.03-.01-.06-.02-.09.02-.1.03-.2.05-.3.02-.1.03-.2.05-.3.01-.17.02-.35.03-.52.02-.16.04-.32.05-.47l.03-.13c.01-.1.03-.2.04-.3.01-.14.03-.29.04-.43,0-.03,0-.06,0-.09.01-.09.03-.17.04-.26.04-.36.08-.71.13-1.07,0-.06,0-.12,0-.18.06-.27.11-.55.39-.69Z"/>
      <path class="cls-5" d="m82.61,31.43s-.08-.08-.12-.11c-.07-.06-.15-.13-.22-.19-.07-.07-.14-.13-.2-.2-.09-.06-.18-.13-.27-.19-.01-.01-.03-.03-.04-.04,0-.09,0-.17-.01-.26l.02-.09c.23-.05.23-.25.24-.42.02-.27,0-.54,0-.81,0-1.68,0-3.36,0-5.04,0-.11.02-.23.05-.34.01-.04.08-.06.11-.1,0,2.06,0,4.12,0,6.18,0,.04,0,.08,0,.13.08.25.15.5.23.74.11.07.22.13.34.2.03.01.06.02.09.04.1.03.2.06.3.09.21,0,.42-.01.62-.01,2.47,0,4.95,0,7.42,0,.19,0,.37,0,.56,0,.07,0,.15,0,.22,0,.14-.05.28-.1.43-.15.14-.03.25-.08.27-.24,0-.21,0-.41,0-.62.02-.06.05-.12.07-.18,0-2.36,0-4.72,0-7.07,0-.18-.04-.37-.04-.55,0-.33-.1-.44-.43-.44-3.15,0-6.31,0-9.46,0-.33,0-.36.03-.48.34-.14.23-.15.48-.15.74-.2,0-.21-.15-.25-.28-.03-.09-.1-.16-.16-.24l.27-.55s.02-.04.03-.06c.18-.24.43-.35.72-.39.27,0,.55,0,.82.01.11,0,.23,0,.34-.01,1.58,0,3.16,0,4.74,0,.7,0,1.39,0,2.09,0,.26,0,.52,0,.78,0,.09,0,.17,0,.26,0,.04,0,.09,0,.13,0l.52.03c.1.05.2.09.3.14.05.06.12.1.16.17.09.17.18.33.23.51.03.14-.01.29-.03.43,0,.2,0,.4,0,.6,0,.15,0,.3,0,.45,0,1.98,0,3.96-.01,5.94,0,.4.07.81-.09,1.2-.06.07-.12.14-.17.22-.03.03-.06.05-.1.08-.06.03-.11.06-.17.09-.07.04-.14.07-.22.11-.05.03-.11.05-.16.08-.14.01-.28.03-.43.03-1.85,0-3.7,0-5.54,0-1.21,0-2.41,0-3.62,0Z"/>
      <path class="cls-5" d="m94.88,32.78c0,.13-.05.16-.17.22-.37.18-.73.09-1.11.08-.49-.01-.99.02-1.48.03-.14,0-.28-.04-.43-.04-3.4,0-6.8,0-10.19,0-.2,0-.41.02-.61.04-.28.03-.54-.08-.61-.27.06,0,.11,0,.17,0,.03,0,.06,0,.09,0,.33,0,.66,0,.99,0h.17c.09,0,.17,0,.26,0,3.13,0,6.27,0,9.4,0,.37,0,.73,0,1.1,0,.04,0,.09,0,.13,0,.68,0,1.36,0,2.04,0,.07-.02.14-.05.21-.07.01,0,.03,0,.04,0Z"/>
      <path class="cls-14" d="m82.17,23.66s-.1.06-.11.1c-.03.11-.05.22-.05.34,0,1.68,0,3.36,0,5.04,0,.27.01.54,0,.81-.01.17,0,.37-.24.42,0-.09-.01-.17-.01-.26,0-2.24,0-4.48,0-6.72,0-.35,0-.7,0-1.05.05.08.13.15.16.24.05.13.06.29.25.28,0,.27,0,.54,0,.81Z"/>
      <path class="cls-8" d="m113.1,32.57s.03,0,.03.02c0,0,0,.02-.01.04-.01,0-.03,0-.03-.02,0,0,0-.02.01-.04Z"/>
      <path class="cls-5" d="m96.17,39.37s-.07-.02-.11-.03l.07-.05s.02.06.04.09Z"/>
      <path class="cls-5" d="m95.82,35.79s-.02-.09-.03-.13c.01.04.02.09.03.13Z"/>
      <path class="cls-8" d="m95.88,36.27s-.01-.08-.02-.13c.03.02.06.04.09.06-.02.02-.05.04-.07.06Z"/>
      <path class="cls-5" d="m96.13,39.12s-.04-.03-.06-.04c.02-.01.04-.03.06-.04v.09Z"/>
      <path class="cls-8" d="m97.81,37.26s.03-.02.05-.03c-.02,0-.03.02-.05.03Z"/>
      <path class="cls-5" d="m95.74,39.12c0-.06,0-.12,0-.17,0-.03,0-.06.01-.09.08.06.22.13.21.18-.02.11-.11.2-.18.3-.01,0-.02,0-.04,0,0-.07,0-.14-.01-.22Z"/>
      <path class="cls-5" d="m95.41,35.45s0-.03-.01-.04c0-.09,0-.17,0-.26,0-.03,0-.06.01-.09.19.05.24.18.19.37-.06,0-.13,0-.19.01Z"/>
      <path class="cls-5" d="m95.28,33.76l.04-.35c.05.05.11.11.16.16-.07.06-.14.12-.21.18Z"/>
      <path class="cls-5" d="m95.36,34.71c-.02-.19-.04-.37-.06-.56.17.12.2.4.06.56Z"/>
      <path class="cls-5" d="m95.65,33.68c0,.12,0,.23,0,.35-.17-.15-.17-.28,0-.35Z"/>
      <path class="cls-5" d="m95.58,37.17c0-.06,0-.12,0-.17.17.09.19.12.18.27-.06-.03-.12-.06-.18-.1Z"/>
      <path class="cls-5" d="m95.52,36.4c0-.12-.02-.23-.03-.35.13.11.1.23.03.35Z"/>
      <path class="cls-5" d="m95.71,38.34l-.04-.26c.15.07.16.13.04.26Z"/>
      <path class="cls-5" d="m94.66,33.24s-.09,0-.13,0c.02-.02.05-.05.07-.07.02.02.04.05.06.07Z"/>
      <path class="cls-5" d="m95.54,36.61s0-.09,0-.13c.03.02.05.05.08.07-.02.02-.05.04-.07.06Z"/>
      <path class="cls-5" d="m79.63,32.86s.03-.02.04-.03c-.01.01-.03.02-.04.03Z"/>
      <path class="cls-9" d="m95.75,39.33s.02,0,.04,0c0,.02,0,.03,0,.05-.01-.02-.02-.03-.03-.05Z"/>
      <path class="cls-9" d="m79.4,35.32c-.02.19-.03.37-.05.56-.14-.12-.12-.46.05-.56Z"/>
      <path class="cls-8" d="m78.85,37s-.07-.03-.07-.04c.03-.16.07-.32.1-.48-.01.17-.02.35-.03.52Z"/>
      <path class="cls-8" d="m79.01,35.58c-.13-.14-.11-.31.04-.43-.01.14-.03.29-.04.43Z"/>
      <path class="cls-9" d="m78.59,40.12c-.07-.02-.14-.04-.22-.06.05-.13.17-.13.3,0-.03.02-.06.04-.09.06Z"/>
      <path class="cls-9" d="m79.58,33.72c0,.09,0,.17,0,.26-.17-.1-.17-.16,0-.26Z"/>
      <path class="cls-9" d="m79.01,38.51c-.01.09-.02.17-.03.26-.19-.11-.05-.18.03-.26Z"/>
      <path class="cls-9" d="m79.19,37.09c-.01.09-.02.17-.03.26-.15-.11-.07-.19.03-.26Z"/>
      <path class="cls-8" d="m78.67,37.65s.05-.03.08-.04c0,.03.01.06.02.09,0,.03,0,.06,0,.08-.02.04-.04.08-.06.12-.01-.08-.02-.17-.03-.25Z"/>
      <path class="cls-9" d="m78.64,38.77c.01-.06.03-.12.04-.17.04.03.07.06.11.1-.05.03-.1.05-.15.08Z"/>
      <path class="cls-8" d="m79.06,35.06c-.16-.11-.07-.19.04-.26-.01.09-.03.17-.04.26Z"/>
      <path class="cls-9" d="m79.06,38.25l-.04.22c-.14-.1-.06-.16.04-.22Z"/>
      <path class="cls-9" d="m79.53,34.2c-.01.09-.02.17-.04.26-.03-.09-.11-.19.04-.26Z"/>
      <path class="cls-14" d="m77.25,36.91c.06-.03.12-.05.17-.08-.06.03-.12.05-.17.08Z"/>
      <path class="cls-14" d="m75.99,37.52l.04-.04s.06.08.09.12c-.05-.03-.09-.05-.14-.08Z"/>
      <path class="cls-8" d="m79.23,33.73c-.1-.06-.11-.12,0-.18,0,.06,0,.12,0,.18Z"/>
      <path class="cls-8" d="m78.68,38.25s.02-.09.03-.14c-.01.05-.02.09-.03.14Z"/>
      <path class="cls-8" d="m78.94,36.01l.03-.13-.03.13Z"/>
      <path class="cls-9" d="m79.01,39.59c0,.05,0,.1,0,.15,0-.05,0-.1,0-.15Z"/>
      <path class="cls-8" d="m76.86,37.17s-.06-.03-.09-.04c.03.01.06.03.09.04Z"/>
      <path class="cls-8" d="m78.37,39.64s.06.03.09.05c-.03-.02-.06-.03-.09-.05Z"/>
      <path class="cls-8" d="m78.45,39.68h.09s0,.02,0,.03c0,0,0,0,0,0-.01,0-.03.01-.04.02-.02-.02-.03-.03-.05-.05Z"/>
      <path class="cls-14" d="m78.77,37.78s0-.06,0-.08c0,.03,0,.06,0,.08Z"/>
      <path class="cls-14" d="m78.54,39.72s0-.03,0-.04c0-.01.01-.03.02-.04,0,.03-.01.06-.02.08Z"/>
      <path class="cls-14" d="m78.5,39.73s.03-.01.04-.02c-.01,0-.03.01-.04.02Z"/>
      <path class="cls-9" d="m79.45,35.15s.02.01.04.02c-.01,0-.02.01-.03.02,0-.01,0-.02,0-.04Z"/>
      <path class="cls-8" d="m76.43,37.13s.01.02.01.03c0,0,0,0-.01.01,0-.01,0-.03,0-.04Z"/>
      <path class="cls-3" d="m83.6,21.34c.11,0,.23,0,.34-.01-.11,0-.23,0-.34.01Z"/>
      <path class="cls-8" d="m92.75,31.13c0,.05,0,.1,0,.15-.06-.02-.12-.04-.18-.07.06-.03.11-.06.17-.09Z"/>
      <path class="cls-4" d="m92.64,30.02c.02-.06.05-.12.07-.18-.02.06-.05.12-.07.18Z"/>
      <path class="cls-14" d="m82.22,29.92s-.04.03-.05.04c0-.04,0-.08,0-.13.02.03.03.06.05.08Z"/>
    </g>
    <g>
      <g>
        <line class="cls-10" x1="74.85" y1="52.07" x2="60.42" y2="52.07"/>
        <path d="m59.49,52.07c.44-.16.98-.44,1.32-.73l-.27.73.27.73c-.34-.29-.88-.57-1.32-.73Z"/>
      </g>
      <g>
        <line class="cls-10" x1="101.04" y1="52.07" x2="115.03" y2="52.07"/>
        <path d="m115.96,52.07c-.44.16-.98.44-1.32.73l.27-.73-.27-.73c.34.29.88.57,1.32.73Z"/>
      </g>
      <line class="cls-13" x1="59.49" y1="53" x2="59.49" y2="51.15"/>
      <line class="cls-13" x1="115.96" y1="53" x2="115.96" y2="51.15"/>
    </g>
    <g>
      <g>
        <line class="cls-12" x1="46.16" y1="37.92" x2="46.16" y2="44.27"/>
        <path d="m46.16,44.9c-.11-.3-.3-.66-.49-.89l.49.18.49-.18c-.2.23-.38.59-.49.89Z"/>
      </g>
      <g>
        <line class="cls-12" x1="46.16" y1="26.03" x2="46.16" y2="19.88"/>
        <path d="m46.16,19.26c.11.3.3.66.49.89l-.49-.18-.49.18c.2-.23.38-.59.49-.89Z"/>
      </g>
      <line class="cls-11" x1="47.09" y1="44.9" x2="45.23" y2="44.9"/>
      <line class="cls-11" x1="47.09" y1="19.26" x2="45.23" y2="19.26"/>
    </g>
    <text class="cls-7" transform="translate(75.99 54.72)"><tspan x="0" y="0">40mm</tspan></text>
    <text class="cls-7" transform="translate(34.04 33.85)"><tspan x="0" y="0">14mm</tspan></text>
  </g>
  <text class="cls-6" transform="translate(46.99 77.9)"><tspan x="0" y="0">T80SISHAN</tspan></text>
</svg>