<?xml version="1.0" encoding="UTF-8"?>
<svg id="P60NMS" xmlns="http://www.w3.org/2000/svg" viewBox="0 0 150 100">
  <defs>
    <style>
      .cls-1 {
        stroke-width: .17px;
      }

      .cls-1, .cls-2, .cls-3 {
        fill: none;
        stroke: #000;
        stroke-miterlimit: 10;
      }

      .cls-4 {
        font-size: 9px;
      }

      .cls-4, .cls-5 {
        fill: #010101;
        font-family: MyriadPro-Regular, 'Myriad Pro';
      }

      .cls-2 {
        stroke-width: .18px;
      }

      .cls-3 {
        stroke-width: .2px;
      }

      .cls-5 {
        font-size: 13px;
      }

      .cls-6 {
        fill: #474745;
      }

      .cls-7 {
        fill: #231f20;
      }
    </style>
  </defs>
  <text class="cls-5" transform="translate(52.17 91.49)"><tspan x="0" y="0">P60NMS</tspan></text>
  <path class="cls-7" d="m121.06,55.64c-.07-.03-.14-.05-.21-.09-.71.11-1.43,0-2.15.03-.59.13-1.15.71-1.03,1.15.16.58.7.48,1.14.51.04,0,.07-.01.11-.02.25,0,.05.16.09.24,0,.07,0,.14,0,.21.02.1.03.19-.08.23-.01.04-.02.07-.03.11.02.07-.02.1-.09.12,0,0,0,0,0,0,.02.17-.06.28-.22.34,0,0,0,0,0,0-.05.1-.09.21-.23.21-.22.13-.4.33-.67.36-.66.53-1.51.6-2.37.1-.45-.26-.85-.58-1.17-.98-.19-.24-.27-.52-.18-.79.09-.28.39-.11.59-.14.26-.03.54.02.64-.31.16-.56-.09-1-.68-1.21-.89-.22-1.79-.04-2.69-.11-.09,0-.19-.01-.28-.02-.07,0-.15,0-.22,0-1.1,0-2.2,0-3.3,0-.26,0-.53,0-.79,0-.53.02-1.06.06-1.6-.01-.15,0-.3,0-.45,0-.57.08-1.13.23-1.72.13-.26-.01-.26.17-.24.34.05.43-.12.66-.55.75-.65.12-1.29.28-1.94.4-.23.04-.44,0-.68-.15-.62-.38-.5-.97-.53-1.53,0-.16,0-.31,0-.47,0-.19,0-.38,0-.57-.02,0-.05,0-.05-.02-.08-.68-.15-1.35.03-2.02,0-.04,0-.08-.01-.12-.03-.02-.06-.03-.09-.05.03-.02.06-.03.09-.05.01-.04.03-.07.04-.11,0-.04,0-.09,0-.13,0-.3,0-.6,0-.89,0-.08,0-.16,0-.24,0-.22,0-.44.01-.67,0-.08,0-.16,0-.24,0-.26,0-.52,0-.78-.34-.49-.11-.99-.01-1.49-.01-.49-.03-.98-.04-1.47-.1-.57-.19-1.15.04-1.71,0-1.21,0-2.41,0-3.62,0-.04,0-.09,0-.13,0-.41,0-.82,0-1.23,0-.04,0-.09,0-.13,0-.56,0-1.13-.01-1.69,0-.04,0-.09.01-.13,0-1.17,0-2.34-.01-3.51,0-.04,0-.08,0-.13,0-1.06,0-2.11,0-3.17,0-.04,0-.09.01-.13-.02-.87-.04-1.74-.06-2.6-.13-.09-.12-.16.02-.23,0-.4.01-.79.02-1.19,0-.59.51-1.39,1.06-1.47.49-.08.94-.34,1.47-.29.34.04.76-.3,1.01-.03.22.24.06.69.07,1.04,0,.39.17.6.58.59.34,0,.68,0,1.02,0,.39-.18.19-.55.27-.83,0-.07,0-.14,0-.21,0-.12,0-.24,0-.36,0-.26-.01-.53-.02-.79-.35-.3-.12-.6,0-.91,0-.15.02-.3.03-.45-.02-.29-.33-.37-.42-.61-.03,0-.05-.01-.06-.04-.18-.14-.46-.18-.48-.48h0c-.15-.03-.29-.05-.44-.07-.08,0-.15,0-.23,0-.34.04-.68.05-1.02-.02-.08,0-.15,0-.23.01-.12.05-.23.06-.33-.03-.08.01-.16.02-.24.03-.07.02-.14.04-.21.06-.11.52-.39.82-.96.86-.44.04-.86-.18-.86-.63-.02-1.48,0-2.95,0-4.43,0-.44.27-.52.61-.58.99-.17,1.78.14,2.36.96.12.17.28.3.43.45.68.12,1.37.11,2.06.06,0-.11.02-.22.02-.33.3-.77.03-1.56.1-2.34.02-.21-.11-.45.11-.63.01-.07.02-.15.03-.22-.01-.08-.02-.16-.04-.23-.07-.05-.15-.11-.22-.16-.3.05-.61.01-.91-.04-.19,0-.39,0-.58.01-.19.11-.37,0-.56,0-.12,0-.24,0-.35-.01l-.12.03c-.15,0-.3,0-.45-.01-.07,0-.15-.02-.22-.02-.08.01-.16.02-.24.04-.11,0-.23,0-.34,0-.34,0-.68,0-1.03,0-.08,0-.15,0-.23,0-.72,0-1.44.01-2.16.02-.08,0-.16,0-.24.01h-.21c-.08,0-.16,0-.25,0-.03,0-.07,0-.1,0-.26.15-.53.25-.8.02-.08,0-.15-.01-.23-.02-.04,0-.08,0-.12,0-.15,0-.3,0-.45,0-.08,0-.16,0-.24,0-.07,0-.15,0-.22,0-.15.03-.31.06-.46,0-.11,0-.22,0-.34,0-.04,0-.08,0-.12,0h-.79s-.08,0-.12,0c-.26,0-.53,0-.79-.01-.34.2-.68.24-1.02.02-.15,0-.31,0-.46,0-.11.05-.23.05-.34,0-.38,0-.76,0-1.13-.01-.04,0-.08,0-.12,0-.15,0-.3,0-.45.01-.04,0-.08,0-.12,0-.11,0-.23,0-.34,0-.04,0-.07,0-.11,0-.42,0-.84,0-1.25,0-.04,0-.07,0-.11,0-.23,0-.46-.01-.69-.02-.04,0-.08,0-.12,0-.07,0-.15,0-.22,0-.04,0-.08,0-.12,0-.49,0-.99,0-1.48.01-.03,0-.07,0-.1,0-.5,0-.99,0-1.49,0-.07,0-.15,0-.22-.01-.08,0-.15,0-.23,0-1.08.19-2.17.05-3.25.08-1.38.05-2.77.02-4.15.03-.11,0-.22-.03-.33-.05-.46-.02-.91-.05-1.37-.07-.15.08-.29.09-.45.02-.15,0-.31.02-.46.02-.52.14-1.04.04-1.57.05-2.4.03-4.79.01-7.19.04-.53,0-1.07.2-1.6-.03-.07,0-.14,0-.22,0-.27.07-.54.05-.8,0-.07,0-.15,0-.22,0-.08,0-.16,0-.23,0-.19,0-.38.01-.58.02l-.05.02-.05-.03c-.12,0-.23,0-.35-.01-.19.07-.38.06-.57,0-.31.01-.62.02-.92.03l-.05.02-.04-.03c-.08.02-.16.03-.24.05-.15.08-.31.05-.46.03h-.05s-.05,0-.05,0c-2.1.02-4.19.02-6.29.07-1.26.03-2.53-.04-3.79.04-1.29.09-2.58-.09-3.87.02-.02,0-.04,0-.06,0l-5.45-.05c-.64.05-1.28.07-1.92-.05-.12.02-.23.04-.35.06-.65.04-1.3.08-1.94.12l-.24.02c0,.06-.04.08-.1.06l-.34.04c-.07.16-.2.26-.34.36-.65.64-.65,1.54-.9,2.34-.32.98-.5,2-.8,2.99-.35,1.2-.61,2.42-.92,3.64-.15.61-.32,1.21-.48,1.82.08.24-.15.34-.25.49,0,.11,0,.21,0,.32.03.12.09.25-.06.34-.07.32-.02.48.39.45.77-.05,1.54-.03,2.31-.04.11-.2.43-.15.5-.4.3-.94.25-1.02-.67-1.04-.35,0-.46-.13-.46-.47,0-.38.15-.69.38-.96,1.02-1.21,3.21-1.07,4.25-.1.36.34.45.81.32,1.24-.11.37-.52.13-.79.16-.32.03-.4.21-.43.47-.09.56.37.77.69,1.06,1.25,0,2.51,0,3.76,0h.05s.05.01.05.01c.12,0,.24,0,.36,0,1.11,0,2.23.03,3.34-.02,1.2-.06,2.39.04,3.58.13.5.2.1.6.2.89,0,.3,0,.6,0,.9,0,.04,0,.09,0,.13-.05,1.33.1,2.66-.08,3.98-.09.64.3,1.01.95,1.02.32,0,.64.02.96,0,.35-.02.46.14.46.47,0,.42-.13.87.24,1.23.57,0,1.13,0,1.7,0,.3-.08.25-.32.25-.54q0-1.13,1.12-1.17c.44-.26.92-.08,1.37-.1.93-.04,1.85-.03,2.78-.02.17,0,.38-.1.52.11.18.26.03.55.1.82.02.02.04.04.06.07,0,0-.02.02-.03.03,0,.12,0,.23,0,.35.06.11.07.22,0,.33v.24c.08.15.07.3.02.45,0,.26,0,.53.01.79v.24c-.01.08-.03.15-.04.23.1.64.1,1.28,0,1.92,0,.08,0,.16,0,.24.09.15.07.3.03.46,0,.07,0,.14.01.21,0,.08.02.16.02.24,0,.03.02.06.03.09.43.1.11.31.06.48-.08.09-.25.16-.11.33l-.05.38c0,.1-.01.2-.02.3.09.15.08.31.05.47v.67s0,.46,0,.46c0,.15,0,.3,0,.45,0,.46-.01.91-.02,1.37,0,.11,0,.23,0,.34.1.19.06.38.03.57,0,.15-.01.3-.02.44.06.15.06.31.02.46.04.4-.22.45-.54.46-1.66.02-3.31.05-4.97.09-.41,0-.44-.24-.46-.55-.03-.39.11-.79-.12-1.15-.12-.03-.28.08-.34-.11-.08,0-.15,0-.23,0-.3.19-.6.18-.91.03-.39-.05-.52.2-.58.52-.08.41.22.98-.18,1.21-.33.19-.85.06-1.28.08-.04,0-.08,0-.11.01-.16.17-.37.1-.57.11.03.28-.11.54-.1.83.01,2.52,0,5.05,0,7.57.1.28.09.55,0,.83,0,.14,0,.28-.01.42.01.03.02.05.03.08,0,0-.02.02-.03.03v.69c.07.11.07.23.05.35,0,.07,0,.14,0,.21.04.22.11.45.1.67-.04,1.2.17,2.38.26,3.56,0,.1,0,.21,0,.31,0,.08,0,.17,0,.25.12,1.25.24,2.49.36,3.74.17-.02.27.09.34.23,1.22,0,2.44,0,3.66,0,.86-.15,1.73-.07,2.59-.09,2.95-.04,5.9-.04,8.86-.04,4.6,0,9.2.02,13.8.02,5.24,0,10.49-.01,15.73-.02.02,0,.04,0,.06.01,1.52,0,3.03-.01,4.55-.02,1.41-.15,2.83-.05,4.24-.07,3.92-.04,7.83-.04,11.75-.04.7,0,1.4.02,2.1.03h.67c.15,0,.31,0,.46,0,.04,0,.08-.02.12-.02.29-.13.59-.2.9-.23.03-.39.45-.47.62-.79.36-.69.43-1.45.64-2.17.54-1.89,1.07-3.78,1.53-5.69.25-1.02.81-1.96.78-3.06,0-.2.09-.39.27-.5-.04-.13-.08-.26-.11-.4Zm-1.97,6.22c-.4,1.51-.79,3.03-1.2,4.54-.2.74-.54,1.38-1.36,1.62-.87.15-1.76.05-2.63.07-1.01.02-2.02,0-3.04-.01-.08,0-.16,0-.23,0-.26.04-.53.05-.79,0-.08,0-.16,0-.24,0-1.11.02-2.23-.01-3.34.08-1.03.09-2.06-.21-3.05,0-.96.2-1.89-.16-2.84.07-.54.13-1.11-.18-1.68-.09-.33.29-.66-.03-1-.01-.81.04-1.61.01-2.42.01-.61,0-1.21,0-1.82,0-.08,0-.15,0-.23-.01-.76.03-1.52.07-2.28.1-.22-.01-.45-.02-.67-.03-1.29,0-2.58,0-3.87,0-.08,0-.15,0-.23,0-2.32,0-4.63,0-6.95,0-.83,0-1.65.04-2.48-.03l-.24.02c-.76-.09-1.52.3-2.27,0-.49,0-.98,0-1.47,0-.04-.02-.09-.04-.13-.06-.07,0-.13,0-.2.01-1.03.06-2.05.1-3.08.01-.08,0-.16-.01-.24-.02-.45,0-.9,0-1.35-.01-.08,0-.16,0-.23,0-.53,0-1.06,0-1.58.01-.08,0-.16-.02-.23-.02-.08,0-.15,0-.23,0-.27,0-.53.01-.8.02-.15,0-.3,0-.45,0-.04,0-.08,0-.12,0-.15,0-.3,0-.45-.01-.08,0-.15,0-.23,0-.53.03-1.06.08-1.59.01-.34,0-.67.01-1.01.02-.4.13-.82.03-1.22.05-.97.05-1.95.16-2.92.12-1.64-.06-3.28-.12-4.92-.05-1.06.04-2.12-.1-3.17.08-.21.03-.51.13-.62-.22h0c-.08,0-.1-.04-.09-.12-.15-1.69-.22-3.38-.43-5.07-.12-.95-.32-1.92-.24-2.89-.21-.1-.21-.21-.01-.33-.01-3.35-.02-6.69-.04-10.04,0-.31.1-.45.43-.43.39.02.77-.04,1.16-.08.59-.06.7-.38.72-.85.03-.91.21-1.04,1.12-.88.17.03.22.09.22.25,0,.23,0,.45,0,.68,0,.66.23.87.92.87.24-.23.53-.1.8-.1.99-.01,1.98,0,2.97.02.64-.09,1.33.19,1.93-.25.07-.18-.11-.42.13-.56,0-.08,0-.15,0-.23-.17-.15-.17-.3,0-.45,0-.3,0-.6,0-.91,0-.04,0-.08,0-.13,0-.34,0-.67,0-1.01,0-.04,0-.08,0-.13,0-1.02,0-2.04,0-3.06-.04-.1-.04-.19.07-.24.09-.11.17-.22.26-.33,0-.11-.01-.23-.02-.34h0c-.24-.22-.55-.4-.34-.8,0-.34.01-.68.02-1.02v-.13c0-.26,0-.52,0-.78,0-.08,0-.16,0-.24,0-.3,0-.6,0-.9-.06-.16,0-.31.02-.47,0-.49-.02-.98-.03-1.47,0-.04,0-.08,0-.12.04-.55-.02-1.06-.59-1.36-.19,0-.38,0-.56,0-.15,0-.31,0-.46,0h-.56c-.08,0-.16,0-.23,0-.3.07-.6.04-.89,0-.12,0-.24,0-.36-.01-.1.05-.21.06-.32.02h-.01c-.76.05-1.52.24-2.29.18-.72.18-.52.78-.58,1.27.09.32-.04.44-.37.47-.99.08-1.02.06-.95-1.26,0-.03-.01-.07,0-.1,0-.04-.02-.08-.03-.11-.08-.08-.15-.15-.23-.23-.42,0-.83,0-1.25,0-.76,0-.93-.26-.68-1.02-.07-1.83.04-3.67-.09-5.5-.03-.42-.24-.52-.63-.54-1.62-.09-3.23-.06-4.85-.03-.8,0-1.6.02-2.4.02-.22,0-.45,0-.67-.01-.9.01-1.8.02-2.7.03-.12,0-.27.02-.36-.11-.22-.11-.3-.3-.22-.53.09-.27.33-.12.48-.12.49.01.66-.21.66-.68,0-1.08-.86-2.02-1.95-2.21-.86-.15-1.67-.15-2.5.21-1.04.45-1.4,1.21-1.5,2.02-.07.53.21.75.89.77.15,0,.33-.05.41.12.07.16-.13.2-.17.32,0,.07,0,.11-.08.12h-.01c-.66.3-1.35.08-2.02.13-.14.01-.12-.15-.02-.25.01-.07.02-.15.03-.22,0-.08,0-.16,0-.24.13-.49.25-.98.38-1.47.31-1.15.63-2.3.93-3.46.44-1.71.86-3.43,1.32-5.13.27-.99.71-1.29,1.74-1.29.47,0,.95,0,1.42,0,.55-.13,1.11-.1,1.67-.03.08,0,.17,0,.25-.01.03.01.06.02.09.04.16.02.31.03.47.05.16-.25.42-.13.62-.14,3.84-.01,7.67,0,11.51,0,1.15,0,2.31,0,3.46,0,.73.19,1.48.06,2.21.04.28-.01.58-.04.87-.07,1.51-.14,3.03-.1,4.54-.08.08,0,.16-.01.23-.02,1-.17,2.02-.07,3.02-.08,2.95-.04,5.89-.02,8.84-.03,3.38,0,6.76-.02,10.14-.02.17,0,.34.01.51.02,1.56.04,3.12-.13,4.68.08.27.04.49-.12.77-.09.78.07,1.56.12,2.34.09,1.88-.06,3.75-.14,5.63-.1,1.04-.18,2.09-.06,3.14-.09,1.37-.04,2.75-.01,4.12,0,.12,0,.27-.06.34.11.08.85.05,1.69.02,2.54,0,.25-.14.31-.36.41-1.01.42-1.53-.27-2.1-.87-.25-.26-.44-.6-.84-.66-.61-.03-1.2.23-1.82.13-.59.34-.62.91-.6,1.5,0,.42.01.84.02,1.26-.09.63-.15,1.26-.04,1.89.03.17.07.34.04.49-.13.66.34.99.75,1.31.4.31,1.62-.23,1.8-.73-.02-.07.01-.11.08-.12h0c.68-.21,1.36-.2,2.04,0h.01s.08.07.12.1c.31.07.35.41.55.58.21.29.2.6.11.92,0,.68,0,1.36-.03,2.04,0,.22-.22.21-.4.21-.21,0-.44.01-.46-.28-.02-.24,0-.49,0-.74-.02-.58-.3-.91-.83-.77-1.01.26-2.12.19-3.02.87-.42.32-.65.74-.67,1.21-.05,1.01,0,2.03,0,3.04,0,1.13-.01,2.26-.02,3.39.08.11.09.23.05.36,0,.15-.02.3-.03.44.01.03.02.05.03.08,0,.01,0,.03,0,.04,0,.11-.02.22-.03.34.08.12.06.24,0,.36,0,.1,0,.21-.01.31.02.03.04.05.05.08,0,0-.02.03-.03.04,0,.12,0,.23-.01.35.05.07.06.14.01.22,0,.15,0,.31-.01.46,0,.04,0,.08.01.12,0,.15-.02.31-.02.46,0,.02.02.05.02.07,0,0-.01.02-.02.03.01.14.03.27.04.41,0,.05.01.11.02.16-.01.34-.03.68-.04,1.02.12.3.02.6,0,.9,0,.12,0,.23.01.35.05.11.06.23-.01.33,0,.11,0,.23.01.34,0,.04,0,.08,0,.12,0,.12,0,.23,0,.35.08.11.09.22.04.34,0,.07-.02.13-.03.2l.04.95-.05.44s0,.08.01.12c0,.07,0,.15,0,.22,0,.15.01.31.02.46,0,.07,0,.14,0,.22-.01.46.09.92,0,1.38,0,.15-.01.3-.02.44,0,.15,0,.31.01.46,0,.11,0,.22,0,.33.04.12.06.23,0,.35,0,.22,0,.44,0,.67,0,.04,0,.09,0,.13,0,.41-.01.82-.02,1.24,0,.08,0,.16,0,.24,0,.11-.01.23-.02.34.11.22.06.46.04.69,0,.07,0,.14,0,.21,0,.04,0,.09,0,.13v.44s0,.13,0,.13c0,.11,0,.22,0,.32,0,.04,0,.09,0,.13-.01.23-.03.45-.04.68.09.26.07.53.03.8,0,.11-.02.22-.03.33,0,.08.01.16.02.24-.02.26-.04.53-.06.79.2.21.04.46.07.69,0,.26,0,.52,0,.78,0,.04,0,.09,0,.13,0,.15,0,.29,0,.44,0,.08,0,.16.01.24,0,1.16,1.03,1.81,2.39,1.33.52-.18,1.06-.33,1.6-.43.27-.05.57-.16.5-.54-.08-.44.15-.51.51-.47.21.02.41,0,.62,0,.71-.17,1.43-.07,2.14-.05.08,0,.16-.01.24-.02,2.15-.02,4.29-.04,6.44-.05.24,0,.49-.05.71.1.25.04.45.18.43.43-.02.2-.29.19-.45.23-.84.23-.99.64-.6,1.43,1.07,2.21,4.03,2.04,5.3.59.4-.46.54-1.01.46-1.61-.07-.45-.51-.27-.77-.39-.15-.07-.45.04-.44-.21.01-.16.15-.37.4-.47.36-.14.72-.13,1.05-.07.31.05.63.07.97.12-.51,1.92-1.01,3.83-1.52,5.73Z"/>
  <path class="cls-6" d="m38.46,14.92c.78,0,1.56-.02,2.34-.03"/>
  <path class="cls-7" d="m32.39,27.72c-.07,0-.12.02-.18.02-.05,0-.06-.04-.02-.06.03-.01.07,0,.11,0,.03,0,.05.02.08.04Z"/>
  <path class="cls-7" d="m48.69,29.82c0-.07,0-.15,0-.22,0-.08-.01-.15-.02-.23,0-.11,0-.23,0-.34,0-.01.03-.03.03-.04-.02-.03-.04-.05-.06-.07,0-.83,0-1.66-.01-2.49,0-.2.07-.41-.07-.6.06-.1.24-.18.05-.32.01-.07.03-.15.04-.22.05-.11.05-.22,0-.34.01-.12.02-.24.03-.35.06-.19,0-.37-.03-.56.01-.08.02-.16.04-.24,0-.23,0-.46,0-.69,0-.51.35-.63.75-.69.18-.03.37-.02.56-.03.04,0,.08,0,.12.01.07,0,.14,0,.22,0,.04,0,.08,0,.12,0,.07,0,.15,0,.22,0,.23,0,.45.19.68.02.15-.01.3-.02.45-.03,2.81.08,5.61-.02,8.42-.1.07,0,.15-.01.22-.02.42.05.84.06,1.26,0,.11,0,.22,0,.33,0,.42,0,.84-.01,1.26-.02.3,0,.6,0,.91,0,2.16.06,4.32.07,6.48-.06.08,0,.15,0,.23,0,.26.2.54.01.8.02,1.35.05,2.7.11,4.05.08,1.48-.04,2.96-.05,4.43-.05,1.09,0,2.18.01,3.27.03.81.02,1.63.01,2.45.02.12,0,.27.06.34-.11.11,0,.23-.01.34-.02.23.08.45.05.68,0,.08,0,.15,0,.23,0,.8.06,1.59.06,2.39,0,.07,0,.15,0,.22,0,.49.1,1-.05,1.5.09.19.05.39.14.55-.07.08,0,.16,0,.23,0,.12.22.34.11.5.12.57,0,1.18-.14,1.71-.07.83.11,1.64-.09,2.45.06.44.21.44.63.44,1.02,0,1.93,0,3.85,0,5.78,0,1.57,0,3.14.01,4.71,0,.12,0,.23,0,.35,0,.6,0,1.21,0,1.81,0,.04,0,.08,0,.12,0,.72,0,1.44,0,2.15,0,.04,0,.08,0,.12,0,.11,0,.22,0,.34,0,.08,0,.16,0,.23,0,.19,0,.37-.01.56-.17.3-.16.61,0,.91,0,.83.02,1.66.02,2.5,0,.08,0,.16,0,.24,0,2.65,0,5.3,0,7.96-.17.19-.17.38,0,.57,0,.08,0,.15,0,.23-.27.75-.01,1.52-.09,2.28.05.25-.12.4-.26.56-.24,0-.49,0-.73.02-.7.04-1.41-.1-2.1.1-.16,0-.32,0-.48.01-1.36-.16-2.72-.12-4.08-.03-2.84,0-5.67,0-8.51,0-.37-.13-.75-.08-1.12-.08-2.64,0-5.27.03-7.91.03-1.16,0-2.32-.03-3.49.05-1.92,0-3.84-.02-5.77-.01-1.43,0-2.87-.03-4.29.06-.71.04-1.4,0-2.1-.02-1.65,0-3.31.05-4.96,0-.89-.02-1.8.18-2.68-.08-.13-.1-.25-.2-.24-.38,0-.8,0-1.6,0-2.4,0-.07,0-.14,0-.21,0-.04,0-.09,0-.13-.06-.48.14-.78.6-.9,1.89.11,3.79,0,5.68-.04.12-.01.23-.03.35-.04.3.11.6.07.9.04,1.45.11,2.39-.6,2.68-1.6.16-.54.17-1.1.14-1.66.05-.35.05-.69-.01-1.04,0-.26,0-.52,0-.78,0-.16.01-.31.02-.47-.02-.91-.05-1.42.91-1.49.33-.02.61-.25.96-.26.17,0,.21-.2.19-.36-.02-.18-.13-.27-.3-.27-.36,0-.72.01-1.07,0-.57,0-.88-.29-.76-.85.1-.46-.1-1.04.44-1.36.56-.02,1.13.13,1.67-.1,0-.43-.44-.78-1.09-.76-.54.02-.82-.21-.95-.7,0-.04,0-.09-.01-.13,0-.11,0-.22-.01-.32,0-.08-.01-.16-.02-.24,0-.11.01-.22.02-.33,0-.08,0-.16.01-.24,0-.15,0-.29,0-.44,0-.16,0-.31-.01-.47,0-.3.01-.6.02-.9,0-.04,0-.08,0-.13,0-.34,0-.67-.01-1.01.03-.08-.02-.1-.07-.12-.03-.66-.36-1.1-.91-1.49-.83-.59-1.73-.39-2.61-.42-2.13,0-4.25,0-6.38,0-.19-.11-.36-.23-.38-.47,0-.23.04-.46-.05-.68,0-.08.02-.15.02-.23,0-.08,0-.16,0-.24,0-.15,0-.3,0-.44.03-.08.03-.16-.03-.23,0-.08,0-.16-.01-.24.08-.15.07-.3.02-.45Zm.45,1.08c0,.47-.13.96.09,1.42.16.19.37.11.56.08h.22c.87.11,1.74.06,2.61.02,1.38-.06,2.76.01,4.14,0,.38,0,.73.2,1.11.11.81.41,1.41.98,1.5,1.95-.02.08.01.11.09.11.02.27.03.53.05.8,0,.08,0,.16,0,.24,0,.11,0,.22,0,.33-.02.23-.06.46,0,.69,0,.11,0,.22,0,.33,0,.08,0,.16,0,.24,0,.11,0,.22,0,.33,0,.04,0,.09-.01.13v.33c-.02.35-.09.7.07,1.03,0,.22.21.29.34.29.46.02.85.25,1.27.35.21.05.47.02.43.31-.05.33.27.75-.22.99-.61.02-1.22-.13-1.82.1-.11.33-.04.68-.05,1.02-.06.24,0,.36.27.29h.23c.49.13,1.01-.09,1.49.14.3.82.15,1-.58,1.33-.45.2-1.04.03-1.37.51-.11.11-.09.23-.04.35,0,.07,0,.15,0,.22-.08.15-.06.31-.02.46,0,.15,0,.29,0,.44,0,.04,0,.09,0,.13.01.08.02.15.04.23-.01.08-.03.15-.04.23,0,.11,0,.22-.01.33,0,.04,0,.09.01.13,0,.11.02.22.03.34-.06.19-.08.37-.01.56.01.24.03.47.04.71-.02.03-.04.07-.07.1-.12.65-.25,1.28-.81,1.75-.88.73-1.88.95-2.99.85-.5-.22-1.03-.07-1.55-.08-.97-.02-1.94-.05-2.91.06-.64.03-1.3-.11-1.92.14-.36.15-.16.45-.17.69,0,.41,0,.83,0,1.24,0,.12,0,.24,0,.35,0,.07,0,.14.01.2-.02.25-.15.58.2.67.35.1.74.17,1.1.12,1.21-.17,2.42-.1,3.63-.13,1.07-.03,2.14.09,3.2-.07,1.4,0,2.8-.02,4.21-.03.08,0,.15,0,.23.01.08,0,.16,0,.23.01.04,0,.07,0,.11-.01.27,0,.53-.01.8-.02.15.03.3.08.45.02h.23s.08,0,.12,0c.15,0,.3.01.45.02.07.16.15.15.23,0,.19-.01.38-.03.56-.04.27.04.53.05.8,0,.3,0,.6,0,.91,0,.04,0,.08,0,.12,0,.34,0,.68,0,1.02.01.41.2.83.19,1.25,0,.11-.01.23-.03.34-.04.16-.08.28.31.46.05.08,0,.15-.01.23-.02.11.19.22.19.34.01.15,0,.3-.02.45-.03.54.06,1.07.25,1.61,0,.75,0,1.51.01,2.26.02.04,0,.08,0,.12,0,.15,0,.3,0,.45-.01.23.05.46.04.69,0,.22,0,.45,0,.67,0,.54.06,1.08.04,1.61.01.11,0,.22,0,.34,0,.26.21.52.2.79,0,.76,0,1.52,0,2.28-.01.23.07.46.04.69,0,.19,0,.37.01.56.02.04,0,.07,0,.11,0,.53,0,1.06.01,1.59.02.19.17.38.17.57,0,.11,0,.23,0,.34,0,.46.27.91.05,1.37-.03l.34.03c.54.31,1.06-.04,1.6-.03.07,0,.15,0,.22,0,.04,0,.08,0,.12,0,.53,0,1.06,0,1.59,0,.08,0,.15,0,.23.01.23,0,.45,0,.68,0,.11,0,.23,0,.34,0,.34,0,.68,0,1.02,0,.08,0,.16,0,.24,0,.57,0,1.13,0,1.7,0,.04,0,.08,0,.12,0,.19,0,.37,0,.56-.01.04,0,.09,0,.13,0,.37,0,.75,0,1.12,0,.15.03.23-.02.21-.19l.02-4.32c.11-.79.11-1.58.04-2.38,0-.07.01-.15.02-.22,0-.04,0-.09,0-.13v-.22c.03-.38.04-.76-.01-1.14,0-.3,0-.6-.01-.91.05-.19.1-.38,0-.57,0-.15,0-.3,0-.45.04-.19.04-.38-.02-.57,0-.11.02-.23.03-.34,0-.04-.01-.08-.02-.12v-.23c.07-.09.05-.17-.02-.24,0-3.71,0-7.42,0-11.13,0-.27.11-.59-.2-.79.09-.06.19-.1.19-.23,0-2.29.01-4.57.02-6.86,0-.26-.08-.47-.25-.65-.11-.15-.28-.09-.42-.09-1.64,0-3.27.01-4.91.03-.96.01-1.92-.08-2.87.05-3,0-6,0-9,.01-2.04,0-4.08,0-6.12.01-.23-.01-.45-.04-.68-.04-3.28,0-6.57.02-9.85.03-1.38,0-2.76-.03-4.13.1h-.02c-2.18.01-4.36,0-6.55.04-.99.02-1.98-.08-2.97.1l-.14.12c-.07,0-.09.04-.07.11-.01.41-.02.83-.03,1.24-.2.57-.13,1.14-.02,1.7.01.19.02.37.04.56-.09.34-.24.68-.01,1.03,0,.08,0,.15-.01.23,0,.34-.24.68-.01,1.02,0,.45.03.91.02,1.36,0,.06,0,.11,0,.16"/>
  <path class="cls-7" d="m90.38,66.64c-4.18,0-8.36-.02-12.54,0-1.01,0-2.02.02-3.03-.06-.98.06-1.96-.13-2.94.07-.2,0-.4,0-.6,0-.03-.02-.06-.06-.09-.06-1.73,0-3.46,0-5.19-.02-.22,0-.22.16-.26.3-.12,0-.24.27-.37,0-.21-.25-.56-.03-.79-.21-.53,0-1.06-.08-1.57.12-.04,0-.09,0-.13.01-.04-.02-.08-.03-.11-.05,0-.07-.03-.12-.11-.12-.23,0-.47,0-.7,0-.75-.16-1.5-.05-2.24,0-1.03.01-2.05.02-3.08.03-.66-.01-1.31-.03-1.97-.03-1.69,0-3.38,0-5.08,0-.17-.16-.24-.34-.26-.59-.13-1.39-.31-2.77-.42-4.15-.04-.54-.1-1.08-.15-1.62,0-.08,0-.16,0-.24,0-.15,0-.29,0-.44,0-.08-.01-.16-.02-.24,0-.18.02-.37.02-.55,0-.12,0-.24,0-.36,0-.18,0-.37,0-.55.03-.07-.01-.11-.07-.13,0-.43-.03-.87-.01-1.3.02-.57.36-.87,1.01-.87,1.03,0,2.06-.01,3.08-.12.69.04,1.37.05,2.06,0,.07,0,.15,0,.22,0,.34.03.69.07,1.03,0,.19,0,.38,0,.57,0,.23,0,.46,0,.68,0,.15,0,.3,0,.45.01,1.2,0,2.4.02,3.59,0,.88-.02,1.77.07,2.65-.06.08,0,.16.02.24.02.19.01.38.03.56.03,1.91,0,3.82,0,5.73,0,.32,0,.6.07.85.34-.22.01-.39.03-.56.03-3.82.01-7.64.01-11.45.04-.96,0-1.92-.06-2.87.06-1.02,0-2.05,0-3.07,0-.3,0-.6-.01-.9,0-.98,0-1.95,0-2.93.03-.48.01-.6.18-.44.55,0,.08.01.15.02.23v.13c-.01.08-.03.17-.05.25-.03,0-.06.02-.09.03.03.01.06.02.09.03,0,.05.02.1.03.14-.19.15-.2.3,0,.44.02.16.03.31.05.47v.22c-.02.22-.02.45-.03.67,0,.04,0,.09,0,.13,0,.19-.04.37-.02.56.15,2.05.5,4.08.57,6.13-.04.15,0,.24.16.26h.02c1.03.11,2.05.1,3.08,0,.08,0,.17,0,.25-.01.75.03,1.49.14,2.24-.03.65.19,1.31.13,1.96,0,.42.05.83.05,1.25,0,.08,0,.15,0,.23,0,.42.07.84.04,1.25,0,.23,0,.45,0,.68,0,1.36,0,2.72,0,4.08-.01,1.1-.01,2.2.06,3.3.04.83,0,1.67.21,2.51-.02.15,0,.3,0,.46,0,.08,0,.15,0,.23,0,.08,0,.15,0,.23,0,.11,0,.23,0,.34,0,.08,0,.15,0,.23,0,.42.06.83.03,1.25,0,.11,0,.23,0,.34.01.15.05.3.03.45-.01.3,0,.61,0,.91,0,.11.05.23.05.34,0,.23,0,.45,0,.68,0,.04,0,.08,0,.12,0,.34,0,.68,0,1.02,0,.11,0,.23.01.34.02.19,0,.38,0,.57,0,.3.07.6.02.91,0,2.73,0,5.46,0,8.19,0,.53.04,1.06.04,1.59-.01.08,0,.15,0,.23.01.42.05.83.04,1.25,0,.08,0,.15,0,.23,0,1.19.24,2.4.08,3.58.07,1.07-.01,2.14,0,3.21-.06.5-.03,1.01.11,1.5-.1.04-.04.08-.08.13-.11.15-.09.07-.23.06-.35,0-.26,0-.52,0-.78,0-.08-.01-.16-.02-.24,0-.11,0-.22.01-.33.02-.12.05-.24-.03-.35,0-.08,0-.15,0-.23.08-.15.04-.3,0-.46,0-.15,0-.3,0-.45.08-.23.08-.46.03-.69v-.44s0-.09,0-.13l-.02-.67v-.12c0-.07,0-.15.02-.22,0-.12.01-.24.02-.35,0-.15-.02-.3-.03-.44.04-.12.05-.24-.06-.33-.09-.1-.15-.22-.26-.29-.67-.45-1.13-1.06-1.43-1.8-.16-.4-.16-.82-.23-1.23,0-.28-.2-.22-.36-.22-.83,0-1.67.01-2.5.02h-.44c-.08,0-.15-.02-.23-.02-5.48,0-10.97-.01-16.45,0-.75,0-1.5-.16-2.23-.08-1.02.12-2.03.02-3.04.08-.12,0-.23,0-.25-.16-.02-.19.11-.2.25-.21.38-.04.76.07,1.13-.05.08,0,.16,0,.24,0,.19.07.37.08.56.01.12,0,.24-.02.35-.02.56.11,1.12.09,1.68-.01.2,0,.4.01.59.02.22.11.44.02.65-.02.2,0,.4,0,.6.01.79.11,1.57.08,2.35-.01.12.01.24.02.37.03.26.07.52.05.78-.02.19.01.39.03.58.04,2.39.01,4.79.04,7.18.03.83,0,1.66.09,2.48-.05.08,0,.16,0,.24,0,.19.11.4.05.61.05,1.58,0,3.15-.02,4.73-.03,0,0,.03.04.03.04,0,.07.02.1.09.09.49.05.43.48.45.76.06,1.09.58,1.88,1.49,2.42.23.14.37.31.36.58.01.42-.14.85.09,1.26,0,.53.01,1.06.02,1.6-.23.53-.13,1.06-.01,1.59.01.07.03.15.04.22,0,.04-.01.09-.02.13,0,.52.03,1.05,0,1.56-.03.41-.1.87-.7.84-2.3,0-4.61,0-6.91.01-.5,0-1.01-.05-1.51.06Z"/>
  <path class="cls-7" d="m96.41,16.5c.32-.03.59.11.87.23,0,0,.01.04.01.04h.04c.03.07.06.14.09.2,0,0-.01.02-.01.02h.03s.01.05.03.08c-.02.17-.04.34.04.5.01.1.02.21.04.31-.16.33-.05.68-.04,1.02,0,.12.02.24.02.35-.01.01-.04.03-.03.03,0,.03.03.05.04.08,0,.08,0,.15,0,.23-.12.45-.02.91-.08,1.37.02.58-.5.65-.81.62-.69-.06-1.38.06-2.07-.04-1.83-.1-3.67-.02-5.5-.02-4.88,0-9.76.02-14.64.03-.31-.03-.62-.07-.91.08-.69-.25-1.37-.13-2.05.03-.04,0-.08-.02-.12-.02-.63-.17-1.27-.09-1.9-.04-.08,0-.16-.02-.25-.02-1.17-.02-2.34-.08-3.5.06-1.79,0-3.58,0-5.36.01-.7,0-1.39-.01-2.09,0-.71.01-1.42.05-2.13.08-.9-.02-1.8-.04-2.7.1-.07-.18-.22-.1-.34-.09-1.37,0-2.74,0-4.11,0-.28-.27-.36-.59-.36-.97,0-1.04-.01-2.08-.02-3.11,0-.04,0-.09,0-.13.12-.27.12-.66.58-.59.85.09,1.69-.13,2.53-.18.03,0,.06-.03.09-.05.04,0,.09,0,.13,0,.2.18.44.12.67.12.19,0,.38,0,.57-.01.12-.02.24-.04.36-.06.11,0,.22-.01.33-.02.08,0,.16.01.24.02.14,0,.28,0,.42,0,.2,0,.39-.01.59-.02,2.16.17,4.32-.01,6.48-.12.26,0,.53-.01.79-.02.12,0,.23,0,.35,0,.15,0,.3,0,.45,0,.04,0,.07,0,.11,0,.07,0,.15,0,.22-.01.19.11.37.23.58.04.11-.02.22-.03.33-.05,1.38-.03,2.75.14,4.14.02,1.24-.1,2.5,0,3.75,0,.82,0,1.65-.01,2.47-.02.19,0,.38-.01.57-.02.53,0,1.06,0,1.59.01.07,0,.15,0,.22,0,.07,0,.15.03.22.03,2.89,0,5.78.01,8.67-.03,1.05-.02,2.11.13,3.15-.06.11,0,.23-.01.34-.02.26.11.53.03.79.01.08,0,.16,0,.24,0,.11,0,.22,0,.33,0,.31,0,.61,0,.92-.01.07,0,.15,0,.22,0,.08,0,.15,0,.23,0,.19.04.38.09.57,0,.08,0,.15-.01.23-.02.15.06.3.08.46,0,.08,0,.15,0,.23,0,.57.06,1.14.06,1.7,0,.08,0,.15,0,.23,0,.08,0,.15,0,.23,0,.08,0,.15,0,.23,0,.08,0,.15,0,.23,0Zm-47.22,4.75c.27.13.54.16.82.05.19,0,.38,0,.58-.01.64.06,1.29.1,1.93-.01.11,0,.23,0,.34,0,.53.04,1.06.07,1.59,0,.08,0,.15,0,.23,0,1.02,0,2.03.04,3.05,0,.92-.03,1.84.09,2.75-.12.08.01.16.02.23.03,1.51-.03,3.03.07,4.55.01,2.05-.08,4.11.06,6.17.07,1.25,0,2.49-.07,3.74-.09,1.7-.03,3.4-.04,5.1-.05.08,0,.15,0,.23,0,1.48.04,2.96.06,4.44,0,.07,0,.15,0,.22,0,.04,0,.08,0,.12,0,.07,0,.15,0,.22-.01,1.44-.02,2.88.09,4.32-.06.42,0,.84,0,1.26,0,.07,0,.14.01.22.02.08,0,.17,0,.25,0,.08.04.15.04.22-.02.42,0,.83,0,1.25,0,.11.04.23.06.34,0,.3.03.61.08.91,0,.08,0,.15,0,.23,0,.72,0,1.44.01,2.16.03.2,0,.32-.01.33-.26.03-.56.19-1.11.1-1.68,0-.04,0-.09,0-.13,0-.07,0-.14,0-.21,0-.12,0-.24,0-.35,0-.07,0-.14,0-.21,0-.08,0-.16,0-.24,0-.19,0-.37,0-.56.02-.12.06-.25-.1-.31-.13-.12-.29-.16-.46-.16-.73,0-1.46,0-2.19,0-1.1,0-2.2-.04-3.3.11-.31.04-.63-.19-.94,0-.09-.19-.26-.11-.4-.11-1.06,0-2.12.02-3.17.02-3.03,0-6.05,0-9.08,0-2.66,0-5.33,0-7.99,0-1.28,0-2.56-.03-3.84.08-1.06,0-2.12.02-3.18.02-.34-.07-.68-.05-1.02.01-.08,0-.16-.01-.23-.02-.64,0-1.29.01-1.93.02-.11,0-.22,0-.34.01-.57.02-1.14-.07-1.71.06-.41-.05-.8.24-1.22.1-.04-.11-.13-.11-.23-.11-1.87.02-3.74.04-5.6.06-.3,0-.62-.1-.9.1-.08-.01-.11.02-.09.1,0,.15,0,.29,0,.44,0,.08,0,.16,0,.24,0,.53,0,1.05,0,1.58,0,.08,0,.16,0,.24,0,.07,0,.14,0,.22,0,.04,0,.08,0,.13,0,.15,0,.3,0,.45-.17.18-.21.35.04.49l.03.03Z"/>
  <path class="cls-7" d="m47.86,24.02c0-1.21,0-2.43,0-3.64-.18-.46-.18-.91,0-1.36-.08-.61.07-1.23-.12-1.83-.11-.03-.19-.1-.23-.22,0,0,0,0,0,0-.99-.05-1.97-.1-2.96-.14-.07,0-.15,0-.22,0-.26.02-.52.35-.79,0-.08,0-.15,0-.23,0-.04,0-.08,0-.12.01-.61.04-.6.49-.6.93,0,.04,0,.09,0,.13,0,.04.02.08.02.12.03.01.06.03.09.04-.03.01-.06.02-.09.03,0,.12-.02.24-.03.36,0,.08,0,.16,0,.24,0,.41,0,.83.01,1.24.03.11.07.26-.06.29-.28.05-.57.04-.85.06,0,0-.02-.04-.02-.04.02-.03.05-.05.07-.07,0-.36,0-.72-.03-1.07-.05-.63.12-1.28-.1-1.9-.22-.29-.51-.36-.87-.32-.24.03-.49-.02-.73-.04-.08,0-.15,0-.23,0-.34,0-.67.02-1.01.02-.87,0-.95.06-1.1.81,0,.07,0,.15-.01.22,0,.08.01.16.02.24,0,.07-.02.14-.02.22,0,.04,0,.08,0,.13,0,.11,0,.22,0,.33,0,.04.02.09.03.13,0,.22,0,.44,0,.67-.05.22.25.54-.19.65-.18,0-.37,0-.55,0-.33.04-.17-.16-.14-.29-.04-.53-.04-1.07,0-1.6,0-.07,0-.15,0-.22-.01-.07-.02-.15-.04-.22,0-.08,0-.16,0-.24-.05-.37-.06-.77-.61-.7-.68-.2-1.38.05-2.06-.11-.35.06-.51.26-.6.61-.36,1.35-.66,2.72-1.1,4.05-.21.66.21,1.17.88,1.06.54-.09,1.11,0,1.6.19,1.29.48,2.24,1.37,2.8,2.65.1.22.2.45.5.47,1.02-.01,2.04-.02,3.07-.03h.02c.04-.12.13-.1.21-.12.08-.11.16-.22.24-.33,0-.04.01-.08.02-.12-.01-.81-.02-1.62-.03-2.43,0-.28.07-.39.38-.4.64-.01.51.48.54.81.08.78-.1,1.58.13,2.35.4.31.85.26,1.31.22.2-.02.4.02.6.02.19-.01.38-.07.57,0,.72-.13,1.43.05,2.15-.02.12-.21.46-.25.47-.56-.17-.42-.19-.83.01-1.25Zm-.49-1.21c0,.78,0,1.56-.01,2.34.02.27-.19.24-.35.24-.86,0-1.72,0-2.58,0-.26,0-.53,0-.79-.01-.64.06-.68,0-.66-.68.03-.74.07-1.49.1-2.23-.05-.1-.1-.21-.13-.32-.05,0-.11-.01-.17-.02-.5-.11-1.03-.12-1.54.07-.01.08-.02.17-.03.25,0,.76-.02,1.52.03,2.27.04.52-.21.66-.64.67-.58,0-1.17,0-1.75,0-.04,0-.08,0-.11,0-.15.02-.3.09-.46.01-.09,0-.2.02-.19-.13-.05-.11-.1-.22-.15-.33-.07-.01-.1-.05-.08-.12-.5-1.03-1.28-1.78-2.31-2.26-.08-.01-.18,0-.21-.12h-.01c-.78-.06-1.52-.39-2.31-.35-.21.01-.21-.03-.19-.33.02-.07.03-.15.05-.22-.02-.38.07-.73.29-1.04.02-.03.03-.06.04-.09.02-.04.05-.09.07-.13.04-.9.45-1.71.6-2.58.04-.2.19-.35.38-.35.55-.02,1.09-.04,1.64,0,.49.03.41.44.42.78.04.23.07.46-.01.69v.44s0,.09-.01.13c.01.18.02.37.03.55,0,.04,0,.09,0,.13-.04.43.12.6.58.58,1.33-.06,1.16.22,1.18-1.17,0-.55,0-1.09,0-1.64,0-.21-.01-.42.25-.5.89-.11,1.78-.18,2.67,0,.18.13.14.33.15.51.03.73.06,1.47.1,2.2.02.36.12.65.6.58.3-.04.6-.01.9-.01.09-.12.2-.22.35-.24,0-.83,0-1.66,0-2.49-.13-.45,0-.68.51-.67,1.15.02,2.3.02,3.45.02.28.1.32.33.32.59,0,.85,0,1.69-.01,2.54,0,.08,0,.17,0,.25,0,.22,0,.43,0,.65l-.03.31c.03.16.03.33.01.49,0,.02,0,.04,0,.06,0,.07,0,.14,0,.21.02.02.03.05.04.09,0,.12,0,.25,0,.37Z"/>
  <path class="cls-7" d="m112.69,66.55c-1.07,0-2.14,0-3.21,0-1.24-.13-2.49-.09-3.74,0-1.54,0-3.08.01-4.62.01-.91,0-.91,0-1.01-.91-.01-.04-.02-.08-.03-.13.01-.07.02-.15.04-.22,0-.12,0-.24,0-.36,0-.11,0-.22,0-.33,0-.08-.02-.16-.02-.24,0-.3,0-.6,0-.9,0-.04,0-.09,0-.13,0-.19,0-.37-.01-.56,0-.04,0-.08,0-.12,0-.07.02-.14.02-.22,0-.08,0-.16,0-.24,0-.11,0-.22,0-.33.05-.15.06-.31,0-.46,0-.07,0-.15,0-.22.05-.15.05-.31-.02-.45,0-.17.02-.34.03-.51.04-.68.2-.82.89-1,1.2-.32,2.38-.71,3.58-1.04.76-.21,1.53-.37,2.3-.55.23,0,.46.04.68,0,1.41-.24,2.82.05,4.23,0,.51.03.56.52.71.82.59,1.16,1.54,1.89,2.7,2.32.45.16.98.19,1.5.18.71-.02.95.26.78.93-.33,1.32-.68,2.63-1.04,3.95-.07.25-.2.48-.46.61-1.09.06-2.19-.1-3.28.09Zm-12.14-3.31c0,.23,0,.46,0,.69.02.19.04.38.06.57l-.04.12c-.02.45-.06.9,0,1.35.02.04.04.07.06.11.44.23.9.08,1.36.08.68-.05,1.37.11,2.05-.06.08,0,.15,0,.23,0,.48.15.97.06,1.45-.01.06,0,.12,0,.17,0,.17.18.4.09.59.09.55,0,1.1,0,1.65-.01.72.05,1.44.07,2.16-.09.11,0,.23,0,.34,0,.07,0,.15,0,.22.01.04,0,.08,0,.12,0,.07,0,.14,0,.22,0,.08,0,.16,0,.25,0,.19,0,.37,0,.56.01.11,0,.23-.01.34-.02.08,0,.15,0,.23.01.11,0,.23,0,.34,0,.08,0,.15,0,.23,0,.23.04.45.07.68,0,.15,0,.3,0,.45,0,.15,0,.3,0,.46,0,.11,0,.23,0,.34,0,.3-.04.67.19.88-.22.35-1.29.66-2.6,1.07-3.87.19-.6-.03-.66-.53-.66-2.11.01-3.57-1.03-4.49-2.88-.11-.22-.21-.39-.46-.43-.76-.1-1.52-.12-2.28-.02-.85.04-1.72-.15-2.54.07-1.8.49-3.58,1.07-5.4,1.49-.53.12-.88.38-.77,1.01.04.24.01.49.02.74v.58c0,.11,0,.22,0,.33v.24c0,.07,0,.14,0,.21,0,.04,0,.09,0,.13,0,.15,0,.29,0,.44Z"/>
  <g>
    <g>
      <line class="cls-2" x1="92.59" y1="74.5" x2="120.07" y2="74.5"/>
      <path d="m121.17,74.5c-.52.19-1.16.52-1.56.87l.31-.87-.31-.87c.4.35,1.04.68,1.56.87Z"/>
    </g>
    <g>
      <line class="cls-1" x1="64.74" y1="74.5" x2="29.87" y2="74.5"/>
      <path d="m28.86,74.5c.48-.18,1.06-.48,1.43-.8l-.29.8.29.8c-.37-.32-.96-.62-1.43-.8Z"/>
    </g>
    <line class="cls-2" x1="121.17" y1="73.57" x2="121.17" y2="75.43"/>
    <line class="cls-1" x1="28.86" y1="73.58" x2="28.86" y2="75.43"/>
  </g>
  <text class="cls-4" transform="translate(63.81 76.91)"><tspan x="0" y="0">104mm</tspan></text>
  <g>
    <g>
      <line class="cls-3" x1="76.7" y1="10.39" x2="103.84" y2="10.39"/>
      <path d="m105.06,10.39c-.58.21-1.29.58-1.74.97l.35-.97-.35-.97c.44.39,1.16.75,1.74.97Z"/>
    </g>
    <g>
      <line class="cls-1" x1="51.61" y1="10.39" x2="29.87" y2="10.39"/>
      <path d="m28.86,10.39c.48-.18,1.06-.48,1.43-.8l-.29.8.29.8c-.37-.32-.96-.62-1.43-.8Z"/>
    </g>
    <line class="cls-3" x1="105.06" y1="9.46" x2="105.06" y2="11.31"/>
    <line class="cls-1" x1="28.86" y1="9.46" x2="28.86" y2="11.31"/>
  </g>
  <text class="cls-4" transform="translate(52.33 12.79)"><tspan x="0" y="0">60mm</tspan></text>
</svg>