<?xml version="1.0" encoding="UTF-8"?>
<svg id="T80-XK" xmlns="http://www.w3.org/2000/svg" viewBox="0 0 150 100">
  <defs>
    <style>
      .cls-1 {
        fill: #231f20;
        font-size: 12px;
      }

      .cls-1, .cls-2 {
        font-family: MyriadPro-Regular, 'Myriad Pro';
      }

      .cls-2 {
        fill: #010101;
        font-size: 9px;
      }

      .cls-3 {
        stroke-width: .16px;
      }

      .cls-3, .cls-4, .cls-5, .cls-6 {
        fill: none;
        stroke: #000;
        stroke-miterlimit: 10;
      }

      .cls-4 {
        stroke-width: .17px;
      }

      .cls-5 {
        stroke-width: .16px;
      }

      .cls-7 {
        letter-spacing: -.02em;
      }

      .cls-6 {
        stroke-width: .17px;
      }

      .cls-8 {
        fill: #3e3f3e;
      }
    </style>
  </defs>
  <g>
    <g>
      <line class="cls-6" x1="99.82" y1="15.7" x2="119.71" y2="15.7"/>
      <path d="m120.75,15.7c-.49.18-1.1.49-1.48.82l.3-.82-.3-.82c.38.33.99.64,1.48.82Z"/>
    </g>
    <g>
      <line class="cls-3" x1="72.71" y1="15.7" x2="56.14" y2="15.7"/>
      <path d="m55.19,15.7c.45-.17,1.01-.45,1.35-.75l-.27.75.27.75c-.35-.3-.9-.59-1.35-.75Z"/>
    </g>
    <line class="cls-6" x1="120.75" y1="14.77" x2="120.75" y2="16.62"/>
    <line class="cls-3" x1="55.19" y1="14.77" x2="55.19" y2="16.62"/>
  </g>
  <text class="cls-2" transform="translate(74.09 18.42)"><tspan x="0" y="0">80mm</tspan></text>
  <g>
    <g>
      <line class="cls-4" x1="41.37" y1="50.98" x2="41.37" y2="69.87"/>
      <path d="m41.37,70.9c-.18-.48-.48-1.08-.81-1.45l.81.29.81-.29c-.32.37-.63.97-.81,1.45Z"/>
    </g>
    <g>
      <line class="cls-5" x1="41.37" y1="38.19" x2="41.37" y2="26.54"/>
      <path d="m41.37,25.6c.16.44.44.99.74,1.33l-.74-.27-.74.27c.3-.34.58-.89.74-1.33Z"/>
    </g>
    <line class="cls-4" x1="42.3" y1="70.74" x2="40.45" y2="70.74"/>
    <line class="cls-5" x1="42.3" y1="25.6" x2="40.45" y2="25.6"/>
  </g>
  <text class="cls-2" transform="translate(29.25 46.86)"><tspan x="0" y="0">55mm</tspan></text>
  <g>
    <path class="cls-8" d="m120.75,27.46c-.02-.35-.04-.7-.06-1.06-.03-.08-.05-.15-.08-.23h0c-.08-.07-.11-.13-.11-.19-.04-.03-.08-.07-.12-.11-.03.06-.09.05-.16-.02-.03-.02-.05-.03-.08-.05-.82-.09-1.65-.11-2.47-.1-.09,0-.25.09-.27-.11h-.33c-.15,0-.29,0-.44,0l-.2.02s-.08.01-.12-.02h-.13c-.08.02-.17.04-.25,0-.08.01-.17.02-.25.04.02.03.03.07,0,.07-.34.04-.58.25-.82.47-.08.42-.18.84-.13,1.28.09.09.09.17,0,.26,0,.11,0,.21,0,.32,0,.02,0,.05,0,.07,0,.15,0,.3,0,.45.02.05.02.09-.02.13,0,.04,0,.08,0,.12,0,.02,0,.05,0,.07,0,.06,0,.12,0,.19,0,.02,0,.05,0,.07v1.98s0,.05-.01.07c0,.08,0,.17.01.25.07.02.07.08.06.12-.12.7-.06,1.4-.07,2.1,0,.07-.04.14-.06.21.06.1.02.21.02.32.04.14.1.27-.04.39,0,.72-.04,1.45.03,2.17,0,.02,0,.05,0,.07,0,.04,0,.08-.01.12,0,.02,0,.05,0,.07.03.7.02,1.41,0,2.11.03.07.03.13,0,.2,0,.08-.01.17-.02.25.04.08.05.17.02.26l-.02.32c.05.11.04.21,0,.31.11.24-.1.47-.01.71.03.01.06.02.03.06,0,.08,0,.16-.01.24,0,.03,0,.06,0,.09.06.19.03.38,0,.57.03.06.04.13,0,.19,0,.15,0,.29,0,.44.04.1.07.19-.03.27,0,.06,0,.13-.01.19,0,.02,0,.05,0,.07v.24c-.05.17-.11.3-.3.13h-.13c-.06.02-.13.03-.2,0-.06,0-.13,0-.19,0-.07,0-.13,0-.2,0-.04,0-.08,0-.12,0h-.13s-.09,0-.13,0c-.04,0-.08,0-.13,0-.38,0-.77,0-1.15,0-.11,0-.22,0-.33,0h-.64c-.3,0-.6,0-.9,0-.04,0-.08,0-.13,0-.39,0-.77,0-1.16,0-.08,0-.17,0-.25,0-1.32,0-2.63,0-3.95,0-1,0-2,0-2.99-.02-.28,0-.55.03-.82.02-.17,0-.31-.05-.31-.26,0-.08-.01-.17-.02-.25-.05-.38-.14-.77.04-1.15-.01-.3-.06-.6-.02-.9,0-.07,0-.14.01-.21-.04-.1-.03-.21,0-.31,0-.02,0-.05,0-.07,0-.02-.01-.05-.02-.07-.02,0-.03-.01-.05-.02.02,0,.03-.01.05-.02.06-.33-.09-.66.04-.98-.01,0-.03,0-.03,0-.08-.4-.13-.8.02-1.19,0-.07,0-.13,0-.2,0-.02,0-.05,0-.07,0-.06,0-.12,0-.19,0-.02,0-.04,0-.07,0-.04,0-.09,0-.13,0-.01-.02-.03-.02-.04,0,0,0-.02,0-.02,0-.17,0-.34,0-.51-.04-.11-.03-.21,0-.32v-.13c-.03-.41-.1-.82.03-1.22,0-.06,0-.13,0-.19-.12-.28-.1-.56,0-.83,0-.54-.02-1.07.03-1.61-.15-.05-.09-.19-.08-.27.08-.74.02-1.47,0-2.21-.01-.51.06-1.01.07-1.52.01-.73,0-1.47,0-2.2,0-.06,0-.13-.02-.19-.06-.14-.09-.27-.11-.41-.21-.04-.43-.11-.63-.25-.02-.02-.05-.03-.07-.04-.37-.08-.76-.03-1.14-.04-.79-.02-1.58.08-2.37-.01-.24-.03-.49.09-.73-.02-.04,0-.08-.01-.13-.02-.02,0-.04,0-.06,0-.04,0-.08,0-.12,0-.83.09-1.66.01-2.49,0-.57,0-1.03.15-1.2.76,0,.02-.06.02-.09.02-.02.13-.11.24-.07.38.08.06.07.13.01.2,0,.38-.02.76-.02,1.14.03.09.03.17,0,.26v2.56s0,.05,0,.07c0,.17.01.34.02.51,0,.02,0,.05-.01.07,0,.07-.02.13-.03.2.02.01.07.02.07.04,0,.05-.04.06-.08.07.07.15.03.31,0,.46.04.09.04.17,0,.25.05.3.01.59,0,.89.02,1.07.09,2.15-.02,3.22,0,.32,0,.64-.01.96.04.09.02.18,0,.27,0,.17,0,.33,0,.5,0,.02,0,.05,0,.07,0,.36,0,.72-.01,1.08,0,.04-.01.09-.02.13v.13s.03.03.03.05c0,0,0,.02,0,.03,0,.19,0,.38,0,.57,0,.02,0,.05,0,.07,0,.13,0,.25,0,.38,0,.04,0,.09,0,.13,0,.53,0,1.07,0,1.6.03.04.03.09,0,.13-.01.09-.02.17-.03.26.08.49.03.54-.41.57-.48.04-.94-.04-1.41-.09-.52-.05-1.05-.03-1.58-.03-.09,0-.18-.01-.26-.02-.22.03-.43.17-.64-.01-.04,0-.08,0-.13,0-.16.19-.33,0-.5.01-.54.05-1.08.05-1.62.04-.63-.01-1.26-.02-1.89-.04-.41-.01-.83,0-1.24-.05-.07.03-.13.02-.2,0-.04.02-.08.03-.12,0-.19,0-.39,0-.58,0-.26.04-.51,0-.77,0-.04,0-.08,0-.12,0-.07,0-.13,0-.2,0-.06,0-.12,0-.19,0-1.17.02-2.34.01-3.52-.04-.27-.01-.54.06-.82.05-.58-.02-1.16-.04-1.74-.08-.12,0-.2-.02-.23-.08-.1,0-.19,0-.29,0,0,0,0,.02,0,.03-.05.14-.19.08-.31.09-.85.01-1.7-.03-2.54,0-.39.01-.79-.03-1.18.05-.06.01-.13.02-.16-.07h-.13c-.3,0-.6-.01-.89-.02h-.13c-.27.08-.55,0-.83.01-.2,0-.39-.02-.59.05-.09.03-.23.08-.31-.06-.07,0-.13,0-.2-.01-.17-.01-.35.09-.52-.01h-.01c-.11-.01-.1-.08-.09-.16-.03-.12-.02-.25,0-.37,0-.02,0-.05,0-.07,0-.17,0-.34,0-.51v-.07c0-.06,0-.12,0-.18,0-.02,0-.05,0-.07,0-.06,0-.12,0-.18-.08-.21-.1-.4-.03-.63.06-.21.03-.44.04-.66,0-.08,0-.16,0-.24-.02-.11-.04-.22,0-.34,0-.13.01-.25.02-.38,0-.02,0-.04,0-.07,0-.1,0-.21,0-.31-.04-.05-.04-.1,0-.15v-.11c-.1-.65,0-1.3-.01-1.94,0-.06,0-.12,0-.18,0-.39,0-.78-.01-1.16l.04-.83v-.07c.01-.66.01-1.32.02-1.98,0-.02-.01-.03-.02-.05,0,0,0-.02.01-.03,0-.11,0-.21,0-.32-.02,0-.03-.02-.05-.03.02,0,.03-.02.05-.03,0-.24,0-.47,0-.71-.1-.13-.1-.26,0-.39,0-.25.02-.51.02-.76,0-.02,0-.05,0-.07,0-.13,0-.25,0-.38,0-.04,0-.09,0-.14v-.19c-.14-.22-.01-.44,0-.66.02-.29-.03-.59.03-.88v-.26s-.01-.03-.01-.04c0,0,0-.01,0-.02,0-.05,0-.09.01-.14-.19-.49-.02-1-.08-1.5-.2-.18-.4-.37-.57-.57-.02,0-.04,0-.06-.01-.5-.09-1.01-.11-1.52-.11-1.22.01-2.43-.01-3.65.02-.78.02-1.56-.03-2.34-.02-.37,0-.68.11-.99.28-.02.01-.02.07-.06.06-.04.05-.08.09-.13.14.05.04.01.08,0,.14-.11.34-.19.7-.13,1.05.08.54.01,1.08.03,1.62,0,.02,0,.05,0,.07,0,.1,0,.21,0,.31,0,.02,0,.05,0,.07-.01.4.04.8-.02,1.2,0,.05,0,.1.01.15,0,.25-.01.51-.02.76.06.15.04.3,0,.45.03.11.04.21,0,.32.02.86.05,1.71-.01,2.57-.09.21-.04.44-.06.66-.04.41,0,.83,0,1.24.06.09.04.18.03.28,0,.08,0,.17,0,.25,0,.04,0,.09,0,.13v.65c0,.06,0,.12,0,.18v.07c0,.06,0,.12,0,.18v.07c0,.23,0,.46,0,.7v.07c0,.4-.01.81-.01,1.21,0,.09,0,.17,0,.26,0,.18.02.36.03.54h0l-.04.23c.04.09.06.18,0,.27,0,.04,0,.07-.01.11.05.11.11.22-.01.32,0,.11,0,.21,0,.32v.13c0,.06,0,.12,0,.19,0,.02,0,.05,0,.07v.25c0,.17,0,.35,0,.52,0,.11,0,.21.01.32.05.24,0,.47-.01.71,0,.04,0,.08,0,.12,0,.05,0,.09,0,.14,0,.08,0,.17,0,.25.12.19-.03.39,0,.58v.12s0,.09,0,.14c.04.3-.14.59,0,.89.02.22.01.43-.02.64,0,.06,0,.13,0,.19.04.1.05.21-.02.31,0,.07.02.14.02.21.05.08.05.17.01.26l-.04.11c.03.06.02.08,0,.1,0,.06.02.11.02.17,0,.07.01.14.01.21,0,.03,0,.07,0,.1,0,.03,0,.08-.01.11,0,0,0,0,0,.01.03.26.02.51,0,.76.04.19.03.4,0,.59,0,0,0,0,0,.01.04.75,0,1.51,0,2.26-.02,1.04,0,2.09-.01,3.13,0,.02,0,.03,0,.05,0,.87,0,1.74,0,2.61,0,.44,0,.87,0,1.31,0,.09,0,.17-.12.19v.7s.15.07.05.16c-.07.07-.06.15-.06.23.01.57.04,1.15-.01,1.72,0,.05,0,.09,0,.14,0,.17,0,.34,0,.51,0,.02.01.03.01.05,0,0,0,.02,0,.02.02.15.03.3-.01.45.09.19.16.38.03.57l-.02.58c.03.07.05.14,0,.2,0,0,0,0,0,.01,0,.1.02.2.02.3,0,0,0,.01,0,.02,0,0,0,.01,0,.02,0,.03,0,.07,0,.1,0,0,0,.02,0,.02,0,.01,0,.02,0,.04,0,.12-.01.23-.03.33.03.21-.02.42,0,.63.07.5,0,.99.02,1.49,0,.29.01.59-.05.88v.24s0,.1,0,.14c0,.04,0,.09,0,.13q0,.85.85.83c.35-.16.74.05,1.09-.12.15-.17.36-.31.43-.5.16-.41.34-.81.58-1.18.14-.21.32-.42.34-.69.01-.2-.12-.26-.28-.27-.22-.02-.45-.02-.67-.02-.13,0-.21-.03-.21-.17,0-.54,0-1.07,0-1.61,0-.13.1-.11.19-.11.08-.18.23-.14.38-.13.22-.26.48-.03.71-.07.06,0,.12,0,.19,0h1.93c.06,0,.13,0,.19,0,.89,0,1.77,0,2.66,0,.03,0,.07.04.1.06.06.04.11.09.19.08.13,0,.31-.07.23.19v.12c.06.11.02.22,0,.33,0,.34,0,.68,0,1.02.03.37-.3.28-.46.29-.21.01-.34.08-.45.23.18.62.36,1.23.54,1.85.13.08.16.22.22.35v.02c.08.08.11.17.1.27.02.04.04.08.07.13.58,0,1.15-.02,1.73,0,.24,0,.38-.08.46-.3.23-.63.47-1.25.71-1.88,0-.02,0-.04,0-.06,0-.04.01-.06.05-.06h0c.02-.08.04-.16.06-.24.03-.18-.03-.27-.24-.28-.66-.04-.66-.05-.61-.74.01-.16-.09-.32,0-.47v-.12s-.01-.03-.02-.05c0,0,.01-.01.02-.02,0-.07,0-.13,0-.2-.03-.06-.03-.13,0-.19.03-.15.07-.33.25-.3.69.08,1.39.03,2.08.05.36-.08.72-.07,1.08-.02,2.05,0,4.1.02,6.15.02.64-.07,1.27,0,1.91.01.13,0,.29-.16.4.04.25,0,.51.04.76,0,.32-.06.7.1.97-.23.03-.04.18-.06.27.06.07.1.18.19.34.18.41-.01.82,0,1.24,0,.02,0,.05,0,.07,0,.11,0,.21,0,.32-.01.04-.03.09-.03.13,0,.06,0,.13,0,.19,0,.99-.01,1.98-.03,2.97.04.8.05,1.62,0,2.42,0,.13,0,.25.01.38.02l.19.02c.62-.01,1.25-.1,1.87.04.21.03.41-.04.62-.03.47.02.95.07,1.42.01.37-.05.73.06,1.09.05.09,0,.19.05.2.17.16,0,.11.12.11.21,0,.43,0,.85,0,1.28,0,.41-.21.53-.63.39-.28-.05-.39.07-.33.34.03.14.04.29.1.42.34.65.49,1.37.74,2.06.65,0,1.29,0,1.94-.01.1,0,.21-.03.31-.04,0,0,0-.01,0-.01-.02-.09.03-.13.11-.14.04-.58.27-1.11.51-1.63.12-.26.27-.53.25-.84-.21-.17-.45-.1-.67-.09-.22,0-.35-.05-.31-.29.06-.34-.01-.68.03-1.02.03-.2,0-.45.07-.67.02-.07.06-.11.13-.11.34,0,.68-.02,1.02-.01.9.01,1.79.04,2.69.06.21-.13.43-.01.64-.04.04,0,.08,0,.13,0,.24,0,.47,0,.71.01.23.03.46.06.7.04.09,0,.19,0,.25.08.15,0,.13.11.13.2,0,.52,0,1.04,0,1.56,0,.19-.05.28-.26.27-.19-.01-.38,0-.58-.01-.11,0-.23,0-.26.15.08.33.45.52.44.89,0,.02,0,.04.02.06.26.41.38.89.63,1.31.11.19.23.34.45.35.48.02.97.02,1.45.02.12,0,.16-.05.17-.17.02-.25.05-.5.08-.74,0-.06,0-.13-.01-.19,0-.07,0-.13.01-.2-.03-.3-.06-.6.04-.9-.06-.03-.07-.07-.02-.12-.01-.14-.03-.28-.04-.42,0,0,0,0,0,0,0,0,0,0,0,0,.01-.12.03-.24.04-.35-.08-.11-.02-.2.01-.31-.02-.22-.03-.43-.05-.65,0-.05,0-.06.05-.06,0-.32,0-.65.01-.97-.16-.14-.05-.27.02-.39-.01-.04-.02-.08-.03-.12-.03-.05-.02-.09.01-.13,0-.06,0-.12,0-.18v-.21s-.02-1.56-.02-1.56c0,0-.01,0-.02,0,0,0,.01,0,.02-.01,0-.03.01-.06.02-.09,0-.07,0-.13,0-.2,0,0-.02-.01-.02-.01-.02,0-.04,0-.05-.01.02,0,.04-.01.05-.02l.05-.39s-.05-.09-.03-.15c0-.06,0-.12,0-.18,0-.02,0-.05,0-.07-.03-.07-.03-.13.02-.19-.01-.04-.07-.08,0-.12,0-.07,0-.14,0-.21,0-.02-.01-.04-.02-.06,0-.04,0-.08,0-.13-.04-.04-.03-.08-.02-.13,0-.59.02-1.19.02-1.78-.02-.07-.07-.14.01-.2-.1-.43-.01-.78.44-.95.2-.11.4-.22.6-.34.17-.14.37-.25.58-.32.04-.02.07-.04.11-.06h0c-.01-.08.03-.15.09-.16.35-.09.61-.34.91-.5.32-.17.66-.36,1.01-.49.26-.1.41-.35.7-.38.27-.19.56-.33.83-.51.47-.33,1.03-.54,1.53-.84.57-.34,1.15-.67,1.73-1.01.3-.18.6-.4.91-.54.44-.21.86-.46,1.3-.66.15-.07.35-.1.44-.21.35-.41.87-.53,1.31-.79.21-.13.38-.37.66-.38-.02-.13.13-.2.16-.2.49-.07.77-.55,1.24-.64,0,0,.02-.01.02-.01.08-.16.26-.11.39-.17h0s.04-.04.06-.06c0,0,0,0,0,0,.1-.21.28-.27.5-.27.02-.02.04-.04.06-.06.02-.07.07-.07.13-.06h0s.03-.06.07-.05h.01c.03-.22.27-.2.37-.33.03-.06-.03-.15.07-.19,0-.45.06-.91,0-1.36-.04-.37.08-.73.05-1.09,0-.06,0-.12,0-.18,0-.01,0-.03,0-.04,0,0,.01,0,.02-.01,0-.04,0-.09,0-.13-.11-.21-.07-.43-.02-.64l.02-.57s0-.05,0-.07v-1.22c-.11-.26-.11-.51,0-.77v-.12s.01-.1.02-.14c0-.08,0-.16,0-.24-.04-.9-.04-1.8.04-2.7,0-.15,0-.3,0-.45-.03-.07-.02-.13.01-.2,0-.81,0-1.62,0-2.43-.1-.09-.09-.17,0-.26,0-.15.02-.3.02-.44v-.07c0-.48,0-.95-.01-1.43-.02,0-.03,0-.05-.01.02,0,.03,0,.05-.01l.02-.02c-.09-.45-.15-.89,0-1.34,0-.19,0-.39,0-.58,0-.02,0-.04,0-.07-.04-.07-.01-.13.02-.2v-.02s0-.02,0-.02c0-.09-.01-.18-.02-.27,0-.04,0-.08,0-.13-.02-.11-.03-.22,0-.32,0-.01-.01-.03-.01-.04,0,0,0-.01,0-.02,0-.17,0-.34,0-.51-.03-.04-.03-.08,0-.13.01-1.09.02-2.18.03-3.27,0-.02,0-.05,0-.07Zm-26.37-.15c0-.18,0-.35,0-.62.31.3.57.54.82.78.38.12.78.02,1.16.07.16,0,.26-.13.38-.22.15-.18.3-.38.51-.51.21-.13.18,0,.14.13,0,.15,0,.3,0,.45,0,.02,0,.04,0,.07.18.21.42.13.64.12.18,0,.33,0,.46.12.06.03.04.09.05.14h0s.05.04.05.04c-.01,0-.03.02-.04.02,0,.04.02.07.05.08.02,0,.03,0,.05,0-.02,0-.03,0-.05,0-.12.23-.05.49-.06.73.1.15.04.32.04.49,0,.4.01.81,0,1.21,0,.33-.15.48-.49.48-1.06,0-2.13.01-3.19,0-.18,0-.35-.05-.53-.07-.11.03-.21.03-.32,0-.15,0-.31-.02-.46,0-.33.05-.42-.1-.37-.39h0c-.07-.02-.08-.05-.01-.08,0-.34,0-.67.01-1.01-.08-.05-.09-.09,0-.13,0-.04.02-.08.02-.12,0-.02.02-.04.03-.07-.05-.15-.03-.29-.02-.44-.08-.24-.11-.48-.09-.73.01-.12,0-.28.19-.29.24.02.47-.11.74-.02.16.06.29-.07.29-.27Zm25.93.42c0,.21.03.43-.02.64.04.08.04.17.02.25,0,.09-.01.17-.02.26.04.08.04.17,0,.25,0,.19,0,.38,0,.57,0,.02,0,.04,0,.07,0,.1,0,.21,0,.31.03.11.04.22-.01.33,0,1.43-.02,2.86-.03,4.29.04.09.03.18,0,.27,0,.08,0,.16,0,.24v.27c0,.15,0,.29,0,.44,0,.02,0,.05,0,.07-.1.32.04.64-.02.95,0,.02,0,.05,0,.07,0,.23,0,.46,0,.69.02.11.04.23,0,.34,0,.03,0,.07-.01.1,0,.07,0,.14.01.22,0,.06,0,.11,0,.17.06.11-.06.18-.05.27,0,.21.09.42.02.63.03.04.03.08,0,.13,0,.64.03,1.28-.02,1.92.08.11.04.22,0,.33,0,.06,0,.12,0,.18.03.07.03.13,0,.2,0,.15-.01.29-.02.44,0,.09,0,.18,0,.27,0,.04-.01.08-.02.12,0,.02.01.03.02.05,0,0,0,.02,0,.03,0,.09.01.18.02.27l.04.02s-.03.01-.04.02c0,.09-.02.18-.02.27l.02.13c0,.19,0,.38-.01.57v.07c.02.11.02.21-.01.32.04.06.04.13.02.2,0,.07,0,.13.01.2h.05s-.04.05-.04.05c0,.05,0,.1,0,.14,0,.01.02.02.03.03,0,0-.02,0-.03,0h0c0,.1,0,.18-.01.27,0,.13,0,.25,0,.38,0,.02,0,.05-.01.07v.31c.08.56,0,1.12.02,1.68,0,.15,0,.3,0,.45,0,.51-.16.73-.63.92-.41.16-.77.43-1.15.65,0,.01-.01.02-.03.02-.16.08-.32.16-.48.24-.01.01-.02.02-.04.02-.21.16-.41.3-.65.41-.28.12-.53.31-.84.38-.02.02-.04.04-.06.06h0c-.14.21-.32.35-.58.37-.03.02-.06.05-.08.07-.47.25-.87.62-1.4.79-.15.05-.3.13-.41.28-.05.07-.14.14-.23.16-.77.25-1.37.81-2.1,1.14-.47.21-.93.48-1.36.77-.38.26-.8.4-1.17.64-.31.2-.6.43-.94.59-.11.05-.2.13-.32.12-.38.26-.79.48-1.22.65-.11.13-.17.31-.39.31-.04.02-.08.05-.13.07,0,.04-.03.06-.07.05-.26.04-.46.18-.66.33-.13.15-.26.32-.49.31h-.01c-.05.1-.15.11-.24.14-.6.24-.67.73-.65,1.29.02.38-.01.77-.02,1.15.05.11.02.22.01.34,0,.08,0,.16,0,.25v.14c0,.06,0,.12-.01.18,0,.02,0,.05,0,.07,0,.04,0,.08.01.12.04.04.04.09.01.14,0,.32,0,.64-.01.96,0,.02,0,.05,0,.07,0,.04,0,.08,0,.12,0,.15,0,.31,0,.46l-.02.24c.04.07.04.14.02.21,0,.06,0,.12,0,.18,0,.17,0,.35,0,.52v.18s0,.1,0,.15v.37s0,.05.01.07c0,.06,0,.12,0,.18,0,.16,0,.31,0,.47,0,.17,0,.33-.01.5v.07s0,.08,0,.12c0,.13,0,.26,0,.4,0,.1,0,.21,0,.31,0,.1.09.23-.09.27.11.72.08,1.44.03,2.16v.08c0,.1,0,.2,0,.3v.08s0,.08,0,.12c0,.02,0,.05,0,.07.02.08-.02.12-.1.11-.37.1-.75-.04-1.12.06-.07.02-.1-.09-.1-.17-.32-.56-.67-1.1-.83-1.73-.12,0-.13-.09-.11-.18.02-.09.09-.07.15-.08.22,0,.44-.01.66-.02.14-.31.05-.63.08-.95,0-.22,0-.43.01-.65,0-.04,0-.08.01-.11,0-.05,0-.1,0-.14,0-.08,0-.16.01-.24,0-.05,0-.1,0-.15-.03-.09-.06-.18-.1-.27-.02-.01-.04-.03-.06-.04-.02,0-.04,0-.06-.01-.36,0-.71-.19-1.08-.14-.01,0-.02-.01-.03-.02-.02,0-.04,0-.07.01-.01,0-.03,0-.04,0-.03,0-.06,0-.09-.01,0,0-.02,0-.02,0,0,0-.01,0-.02.01-.01,0-.03,0-.04,0-.04.02-.08.02-.13.02-.45-.02-.91-.04-1.36-.06-.95-.06-1.9-.06-2.85-.02-.22,0-.44-.03-.66-.03h0c-.02.18-.15.16-.27.17-.27.04-.21.3-.31.45.04.02.07.03.04.08,0,.04,0,.08-.01.12,0,.02,0,.05,0,.07,0,.06,0,.12,0,.19-.01.39.08.78-.03,1.17-.01.22-.06.46.25.53.2.04.41-.08.59.06.04.06.02.11-.01.17.04.07.02.12-.05.16-.22.55-.44,1.1-.66,1.65,0,.05-.04.07-.08.08-.4.11-.8-.02-1.2,0-.06,0-.13.02-.19.03-.14.09-.15.02-.13-.1-.33-.56-.5-1.18-.7-1.79-.04-.14,0-.25.19-.24.07,0,.14-.04.21-.03.3.03.38-.09.37-.38-.01-.5.02-1.01.04-1.51.01-.26-.02-.5-.19-.71-.4-.16-.8-.17-1.22-.13-.44.04-.9.04-1.34-.02-.33-.04-.64-.06-.97,0-.3.05-.6-.07-.92-.06-.72.02-1.45,0-2.17-.03-.27-.01-.55,0-.83.01-.08,0-.14,0-.19-.04-.49.04-.98.01-1.47.01-.61,0-1.22,0-1.82,0-.32,0-.65-.01-.97-.02h0c-.44,0-.89,0-1.33,0-.05,0-.09-.02-.12-.04-.12,0-.23-.01-.35-.03-.03,0-.07-.01-.11-.02-.18.04-.36.11-.56.13-.12,0-.25,0-.36-.03-.16,0-.33-.02-.5-.03-.35-.02-.7.07-1.05-.04-.07,0-.13,0-.2.01-.11.1-.21.1-.32,0-.04,0-.09,0-.13,0-.24.17-.47-.03-.7,0-.04,0-.08,0-.12-.01-.17.02-.35.03-.52,0-.04,0-.08,0-.12,0-.26.03-.52.12-.78,0-.08,0-.17,0-.25,0-.99.03-1.98.01-2.96-.02-.35-.01-.7,0-1.05,0-.8,0-1.6-.02-2.41.03-.58.03-1.16,0-1.73,0-.33.18-.4.5-.45.82-.03.2,0,.4,0,.6.05.03.07.07.04.12,0,.17-.02.34-.03.51,0,.01.01.03.02.04,0,0,0,.01-.01.02,0,.1,0,.2,0,.31.01.07.03.14.04.21.05.05.09.09.14.14.19,0,.38-.01.57-.01.06,0,.13,0,.13.1s-.03.14-.13.13c-.2.56-.39,1.12-.59,1.69.05.15-.03.19-.16.18-.42,0-.85,0-1.27,0-.17,0-.32-.02-.34-.24-.04-.05-.05-.1-.04-.16-.12-.12-.1-.28-.13-.42,0-.04,0-.07-.01-.11-.07-.08-.08-.17-.07-.27-.02-.03-.04-.06-.06-.09-.22-.17-.27-.43-.33-.68.04-.08.07-.1.19-.08.45.06.59-.08.64-.61,0-.02,0-.05,0-.07-.04-.12-.02-.25,0-.37-.04-.09-.03-.18,0-.27v-.12s0-.09,0-.13c0-.25-.01-.51-.02-.76-.17-.44-.34-.59-.83-.5-.37.06-.72,0-1.08-.02-.32,0-.64.01-.96.02-.07.1-.18.06-.26.05-.88-.1-1.77-.03-2.66-.06-.03,0-.06-.01-.09-.02-.04,0-.09,0-.13,0-.26.02-.52.03-.77.05l-.12.03c-.04.1-.12.05-.19.05-.29.11-.24.39-.26.6-.04.44-.02.89-.02,1.33,0,.04,0,.09,0,.13,0,.08,0,.17,0,.25,0,.27.11.4.4.39.54-.01.53,0,.3.51-.17.38-.4.73-.61,1.09-.02.08.03.19-.07.25h0c0,.06,0,.1-.06.13-.16.13-.34.08-.51.07-.04,0-.08,0-.12,0-.09,0-.17,0-.26,0-.06.01-.12.03-.18.03-.41-.01-.48-.13-.32-.54,0-.04,0-.08-.01-.13-.01-.01-.03-.03-.04-.04l.05-.02.02-.13c-.13-.11-.14-.22.03-.3l-.02-.39v-.07c-.02-.11-.04-.21.02-.32,0-.06,0-.13,0-.19,0-.04,0-.09,0-.13-.04-.15-.04-.29.02-.44-.03-.07-.02-.14,0-.21-.06-.29-.06-.58.01-.87-.01-.2-.04-.4,0-.6,0-.01-.01-.02-.01-.04,0,0,.01,0,.02-.01,0-.02,0-.05.01-.07,0,0,0,0,0-.01,0-.02-.01-.04-.01-.06,0-.01,0-.02,0-.04,0-.02-.02-.05-.02-.07,0,0,0-.01,0-.02,0-.05-.02-.12-.02-.17h0c-.02-.05-.03-.11-.03-.2.03-.39-.03-.79.07-1.17v-.32s-.03-.09,0-.13c0-.45,0-.89.01-1.34,0-.07,0-.13,0-.2,0-.17,0-.34,0-.52-.12-.19-.15-.38.02-.56v-.14c-.04-.07-.04-.13-.01-.2,0-.1,0-.21-.01-.31,0-.02,0-.05,0-.07,0-.06,0-.12,0-.18-.04-.07-.03-.14.01-.2,0-.06,0-.12.01-.18-.01-.08,0-.19-.05-.24-.15-.17-.08-.28.05-.4v-.21c-.04-.12-.05-.24,0-.36,0-.13,0-.26,0-.39-.03-.04-.03-.08,0-.12,0-.05,0-.09,0-.14,0-.02-.01-.04-.01-.05,0,0,.01-.01.02-.02,0-.1,0-.2,0-.3,0-.03-.02-.05-.03-.08-.03-.06-.02-.12.02-.18,0-.43-.07-.86.03-1.29,0-.28,0-.55,0-.83-.03-.05-.03-.09.01-.13-.01-.19-.06-.38.01-.57v-.07c0-.08,0-.16,0-.24,0-.05,0-.09,0-.14,0-.15,0-.29,0-.44-.01-.06-.02-.12,0-.16,0-.01,0-.02-.01-.03,0-.03-.01-.06-.01-.1,0-.05-.01-.06-.01-.1,0-.05.01-.11.02-.16h0c0-.07,0-.16,0-.3,0-.13.01-.26.02-.38v-.3c0-.35-.07-.7.02-1.04,0-.25.02-.51.03-.76,0-.02,0-.05,0-.07v-.44s-.03-.09,0-.13v-.92h0s0-.02.02-.02c0-.07,0-.14,0-.21-.06-.12-.03-.25-.02-.37,0-.02,0-.05,0-.07,0-.17,0-.34,0-.51,0-.02,0-.05,0-.07,0-.17,0-.34,0-.51,0-.04,0-.09,0-.13,0-.34,0-.68.04-1.01,0-.05,0-.1,0-.15-.05-.08-.03-.16-.01-.24,0-.02,0-.05,0-.07,0-.34,0-.68-.01-1.02-.02-.05,0-.09.03-.12,0-.04,0-.09-.01-.13v-.06c-.04-.1-.05-.21-.01-.32,0-.02,0-.05,0-.07,0-.04-.01-.08-.02-.12-.02-.62-.07-1.25,0-1.87,0-.04,0-.08,0-.12,0-.02,0-.05-.01-.07.16-.51-.05-1.02.02-1.52-.03-.18-.05-.35.04-.52v-.26c0-.15-.06-.3-.01-.45,0-.04,0-.08,0-.12-.03-.04-.02-.09,0-.13v-.19s0-.05,0-.07c0-.1,0-.21,0-.31-.06-.11-.16-.21,0-.32v-.58c-.05-.13-.03-.26,0-.4,0-.04,0-.08,0-.12-.06-.13-.02-.26,0-.39,0-.11,0-.21,0-.32-.03-.05-.02-.09,0-.13-.03-.07,0-.12.03-.18-.06-.06-.07-.13-.04-.21v-.12s0-.09,0-.13v-.12c-.02-.07-.02-.13.01-.19,0-.23,0-.47-.01-.7-.03-.11-.05-.22,0-.32,0-.04,0-.08,0-.12,0-.04,0-.09,0-.13,0-.19.01-.38.02-.57,0-.02.01-.04.02-.06,0-.05,0-.1,0-.15-.08-.14-.07-.29,0-.43,0-1.09,0-2.18.01-3.27-.11-.26-.13-.51.01-.76,0-.05,0-.1,0-.14-.1-.25-.15-.5-.01-.75,0-.03,0-.06-.01-.09-.02,0-.03,0-.05-.01.02,0,.03-.01.05-.02,0-.03,0-.06,0-.09-.02,0-.03-.01-.05-.02.02,0,.03-.01.05-.02,0-.05,0-.09,0-.14-.18-.27.1-.39.18-.57h0c.06-.1.12-.18.25-.19h.02c.38-.2.79-.07,1.18-.07.28,0,.58-.11.86.07-.02.32.03.64-.08.96.05.16-.02.2-.17.2-.2,0-.39-.01-.58.09-.33.19-.37.48-.37.81,0,.08,0,.17-.01.25,0,.06,0,.13-.01.19.06.13.06.26.01.39,0,.3,0,.6-.01.9.03.09.04.18-.02.27,0,.08-.01.16-.02.24.07.13.04.26.03.4,0,.03,0,.06,0,.09.2.5.66.37,1.05.43h.19c.9,0,1.8,0,2.7,0,.04,0,.09,0,.13-.01.55-.03,1.11,0,1.66-.05.15-.01.26-.08.38-.14.03-.1.06-.21.08-.31,0-.17-.07-.35.04-.52l.02-.19s0-.05,0-.07c0-.32,0-.64.01-.96-.08-.2,0-.41-.06-.62-.06-.25,0-.53,0-.8-.03-.04-.06-.08-.09-.12-.11-.1-.3-.09-.37-.26h-.01c-.22-.03-.45.08-.66-.08,0,0,0-.02,0-.02,0,0,.02-.01.03-.02-.04-.3.06-.6-.06-.89-.1-.14-.2-.07-.3,0-.13.09-.26.18-.39.26h-.01c-.27.45-.61.74-1.16.77-.35.01-.63-.08-.84-.34-.26-.31-.55-.6-.92-.8.19-.25.41-.13.59-.09.43.09.86-.03,1.29-.02,1,.03,2.01,0,3.01,0,.17,0,.37-.14.52.06.53.07.61.18.66.8.09,1.18.02,2.35.02,3.53,0,.05-.03.1-.04.15.01.03.02.06.04.09,0,.4,0,.8,0,1.2,0,.33.03.66-.02.99.03.1.03.2.01.29,0,.64-.02,1.29-.02,1.93,0,.94.01,1.88.01,2.83,0,1.54-.02,3.09-.03,4.63,0,.08.03.18-.1.2.04.21-.17.42-.01.63.22.1.15.35.25.51.1.13.25.14.4.14.21,0,.43-.05.64.04.02,0,.05,0,.07,0,.16-.09.34-.05.51-.05.48.06.96-.01,1.45,0,.14,0,.28,0,.41,0,.52,0,1.04-.01,1.56,0,.1,0,.21-.06.29.05.38-.06.75,0,1.14-.03.32-.03.67.04,1,.04.68-.11,1.35-.06,2.03-.01h1.87s1.34,0,1.34,0c.41,0,.82,0,1.22,0,.71,0,1.42,0,2.13.02.18,0,.38-.1.56.04,1.11,0,2.22.03,3.33-.01.34-.01.66.07.97.06.37-.02.73.03,1.09.01.12-.1.26-.04.39-.04.06,0,.13,0,.19,0h.32c.06,0,.13,0,.19,0,.02-.02.06-.06.06-.06.42.22.86.06,1.29.06.73,0,1.45,0,2.18,0,.12-.11.33-.12.35-.33,0-.02.01-.04.02-.06,0-.04-.01-.09-.02-.13-.03-.04-.03-.09,0-.13,0-.04.02-.09.03-.13-.08-.12-.04-.25,0-.37-.06-.09-.02-.18-.02-.27-.16-.17-.14-.34.01-.5,0-.09,0-.17-.01-.26-.02-.28-.05-.55,0-.83v-.26s-.01-.08.02-.12c-.02-.13-.03-.26-.05-.39.02-.36-.08-.74.06-1.09,0-.19,0-.39,0-.58-.09,0-.08-.07-.07-.13,0-.02,0-.04,0-.05,0-.31-.04-.61.07-.91,0-.08,0-.16-.01-.24-.03-.07-.02-.14.01-.21-.04-.38-.02-.76.01-1.13-.03-.13-.05-.27-.01-.41,0-.08,0-.16,0-.24-.03-.07-.02-.14,0-.21-.01-.23-.06-.47.05-.69-.14-.19-.08-.39-.06-.59-.03-.08-.02-.16.01-.24,0-.07,0-.14,0-.21,0-.06,0-.13,0-.19,0-.02,0-.03,0-.05,0,0,.02,0,.03-.01-.06-.44.02-.88,0-1.32,0-.2,0-.41,0-.61-.02,0-.03-.02-.05-.02.02-.01.03-.03.05-.04,0-.02.01-.04.02-.06-.11-.17-.11-.34-.02-.52,0-.19.01-.38.02-.57-.02-.09-.03-.18,0-.26,0-.06,0-.12,0-.18,0-.05,0-.09,0-.14,0-.32,0-.64,0-.96-.12-.25-.05-.51-.05-.76,0-.14-.14-.33.06-.45v-.39s0-.06.04-.07c.02-.37.42-.71.8-.63.3.06.59.03.88.03.53,0,.62.07.62.6,0,.11-.01.21-.02.32.08.3-.02.45-.34.39-.19-.03-.35.07-.52.13-.02.02-.04.04-.07.06,0,.05.01.11-.07.13-.04.17-.1.33-.09.51v.07c0,.81,0,1.61,0,2.42,0,.49.15.63.64.64.47.01.95.02,1.42.04.51.01,1.03.03,1.54.05.12,0,.21-.11.33-.05.36.02.73-.07,1.08.04.26-.04.52-.09.77-.13,0-.03.02-.06.07-.05.02-.03.04-.05.06-.08.08-.61.04-1.22.04-1.84,0-.28.01-.58.05-.87.03-.27.02-.55-.09-.81-.2-.22-.45-.28-.74-.21-.2.05-.28-.04-.26-.24,0-.02,0-.05,0-.07,0-.06,0-.12,0-.19,0-.02,0-.05.01-.07,0-.13-.04-.26.01-.39-.02-.02-.02-.04,0-.05-.02-.05-.04-.11-.05-.16-.13-.03-.27-.08-.39.03h0c-.17.23-.35.46-.61.61-.03.02-.06.05-.09.07-.19.29-.42.49-.81.47-.31-.01-.52-.04-.71-.36-.22-.36-.59-.64-.9-.96.08-.05.19-.04.3-.02.34,0,.68,0,1.02,0h.07s.07,0,.07,0c.02-.03.03-.03.05,0h.01c.67.01,1.33-.05,2,.05.04,0,.08-.01.12-.02.09-.03.17-.07.25.03.48,0,.97,0,1.45.02.29.01.49.16.48.49.27.12.04.31.06.47,0,.04.01.08.02.12.03.26.02.51-.04.76,0,.04,0,.08,0,.13,0,.02,0,.05,0,.07,0,.08,0,.17,0,.25,0,.09,0,.17,0,.26,0,.74,0,1.49,0,2.23.03.07.04.14,0,.21,0,.1,0,.21,0,.31.04.11.03.22-.02.33,0,.04,0,.08,0,.12.04.07.05.13,0,.2,0,.06-.01.12-.02.18,0,.05.01.1.02.15.04.51.02,1.02,0,1.53l.02.07v.5s-.02.06-.02.09c0,.08.01.16.02.24.03.13.03.27,0,.4,0,.04,0,.07,0,.11,0,.05,0,.1.01.15,0,.04,0,.07,0,.11,0,.6.02,1.2-.04,1.81,0,.21,0,.43,0,.64.03.15.02.3-.01.46v1.4s0,.05,0,.07c0,.42,0,.85-.01,1.27.03.09.03.18-.03.26.04.21.08.42.02.63,0,.05,0,.1,0,.15,0,.14,0,.29,0,.43v.07c0,.06,0,.13,0,.19.03.04.02.09,0,.13,0,.04-.01.08-.02.11l.04.34.02.31c.1.06.25.08.26.24.17-.07.33-.05.5-.03.26-.05.51-.03.77,0,.11,0,.21,0,.32,0,.24-.02.47-.05.7.04h.98c.59-.06,1.19-.04,1.78-.03.93.09,1.86.04,2.79.03,1.92-.02,3.85.02,5.77,0,.25,0,.5-.05.75-.07.1,0,.15-.05.2-.13.02-.17-.02-.35.07-.51v-.44c0-.24,0-.48,0-.72.06-.25-.12-.51.03-.76,0-.07.02-.16,0-.22-.17-.39-.04-.76.04-1.13,0-.04,0-.08,0-.12,0-.02,0-.05,0-.07,0-.17,0-.34,0-.51,0-.02,0-.05,0-.07,0-.32,0-.64,0-.96-.14-.27-.07-.55-.05-.82.02-.33-.03-.65-.01-.98,0-.07-.04-.15.07-.18l.02-.12s0-.1,0-.15v-.63c-.04-.11-.01-.22.03-.33,0-.15,0-.29-.01-.44-.04-.13-.03-.26,0-.39,0-.17-.06-.34,0-.51,0-.03,0-.06,0-.09,0-.21.02-.41.02-.62-.05-.13-.02-.26,0-.38,0-.32,0-.64,0-.96-.1-.39-.11-.77,0-1.16v-.13s-.09-.08-.09-.12c.07-.55.01-1.1.02-1.65,0-.07-.05-.17.07-.21.02-.23-.04-.47.01-.7-.03-.09-.04-.18,0-.27,0-.19,0-.38.01-.57-.12-.1-.1-.19.03-.25.1-.51.29-.63.92-.64.64,0,1.27.1,1.91.06.31-.15.64-.02.96-.03.13,0,.29-.08.42.03.18.03.36.01.55.05.27.05.3.19.3.4.19.12.11.29.1.45,0,.06,0,.11-.01.17.07.2.01.4,0,.6Zm-58.27-.39c.24,0,.52-.1.71.15.05.07.2.11.05.22,0,.04,0,.09,0,.13,0,.07.01.13.02.2,0,.62,0,1.24,0,1.86.17.23.01.4-.1.58h0c-.11.17-.25.17-.46.15-.43-.05-.86-.02-1.29-.03-.25,0-.5-.01-.75-.02h-.19s-.09,0-.13,0h-.19c-.67.08-1.34-.02-2.01,0-.15,0-.31-.04-.26-.26,0-.04,0-.08.01-.12,0-.01-.01-.03-.02-.04,0,0,0-.02.01-.02,0-.11-.01-.21-.02-.32-.05-.11-.03-.21.03-.31-.02-.04-.03-.07-.05-.11,0-.04.02-.07.03-.11-.18-.14.01-.28,0-.43,0-.07,0-.13-.01-.2-.03-.15-.04-.3.02-.45,0-.04-.01-.09-.02-.13,0-.11-.01-.23-.01-.34,0-.33.09-.41.43-.44.24-.02.48.07.71-.06h0c0-.15,0-.3,0-.45,0-.26.12-.25.29-.15.06.04.13.08.17.14.39.63.98.6,1.59.48.1-.02.2-.03.31-.04h0c.2-.36.55-.65.82-.71v.47c-.03.25.09.31.33.32Z"/>
    <path class="cls-8" d="m68.34,53.44c-.02-.06-.03-.11-.04-.18-.01-.1,0-.21.03-.3,0-.02.01-.04.02-.06-.02-.02-.03-.05-.03-.09,0-.05-.01-.1,0-.15,0,0,0-.02.01-.02,0-.12,0-.24,0-.36-.04-.02-.06-.04,0-.06,0-.1,0-.2.01-.29h0l.02-.11c-.15-.28-.11-.55,0-.82l-.03-.26c-.07-.01-.08-.07-.07-.12.1-.32.07-.64.08-.96,0-.04,0-.09,0-.13v-.07c0-.55.02-1.11.04-1.66,0-.04,0-.09,0-.13,0-.04,0-.09,0-.13-.15-.15-.06-.3,0-.45,0-.13,0-.25,0-.38v-.07c0-.19-.01-.38-.02-.57-.1-.23-.03-.48-.04-.71-.04-.19-.2-.28-.33-.39-.07.06-.15.09-.24.07-.53-.09-1.07-.09-1.6,0-.04,0-.09,0-.13,0-.76-.08-1.52-.07-2.28-.06-.59.01-1.19.04-1.78.03-.75-.01-1.51,0-2.26-.04-.71-.04-1.41.05-2.11,0-.21-.02-.38.11-.58.13-.02,0-.04,0-.06.02-.02.02-.04.04-.06.06-.13.48-.03.98-.09,1.47,0,.02,0,.05,0,.07,0,.13-.01.25-.02.38.02.06.04.13,0,.2v.19s0,.05,0,.07c0,.06,0,.12,0,.18,0,.02,0,.05,0,.07v.19s0,.09,0,.13c0,.11-.02.21-.03.32,0,.01.01.03.02.04,0,0,0,.02,0,.02,0,.21,0,.43.01.64.04,0,.09.02.07.07,0,.02-.04.03-.07.05,0,.03,0,.07,0,.1h.05s-.02.02-.02.02c0,0-.02,0-.03-.01l-.04.28c.08.2.04.4,0,.6.06.28.02.55,0,.83.08.53,0,1.06.03,1.59,0,.06-.01.1-.04.14v.06c0,.12.03.24.03.36,0,.05-.02.09-.03.13.03.01.04.04.02.1.01.08.03.16-.02.24,0,.09.08.18,0,.27,0,.06,0,.13.01.19.01.56.04,1.11-.03,1.67l-.02,1.28v.27c.03.19.03.38,0,.56v.07c0,.1,0,.21,0,.31.04.09.03.17,0,.26,0,.31.01.62.01.92-.02.08-.03.16-.05.24.04.15.07.29.02.44,0,.04,0,.08,0,.13v.07c0,.07,0,.13-.01.2.05.06.04.12.01.18.04.07,0,.14-.01.21.06.14.08.29.02.44.02.15.01.31-.03.46l.02.02-.02.03c.06.37,0,.74,0,1.11.04.04.05.09.02.14-.05.26-.04.52.11.75l.06.06h0c.91.11,1.82.04,2.73.07.22,0,.47-.16.67.06.42-.07.85,0,1.27-.05.49,0,.99,0,1.48,0,.04,0,.09,0,.13,0,.45,0,.91-.07,1.35.05.51-.12,1.02.02,1.53,0,.04-.1.12-.06.19-.06.47,0,.95.01,1.42.02.49-.06.56-.37.53-.79-.02-.23.05-.46.07-.69-.02-.05-.02-.1,0-.15-.03-.74-.04-1.49,0-2.23,0-.02.01-.05.02-.07,0-.06-.01-.13-.02-.19,0-.02,0-.05,0-.07-.05-.21,0-.42,0-.63-.04-.07-.04-.14,0-.21v-.26s-.09-.01-.08-.07c0-.02.04-.03.07-.05,0-.05.01-.1.02-.14-.04,0-.08-.02-.08-.07,0-.07.04-.09.1-.09,0-.05,0-.1,0-.15,0-.01-.02-.02-.02-.04,0,0,0-.01,0-.02-.05-.14-.04-.29-.03-.44v-.13c.02-.06.02-.13.02-.19-.02-.04-.04-.08,0-.13,0-.04,0-.09.01-.13-.04-.08-.04-.17,0-.25-.02-.06-.02-.13,0-.19,0-.54-.02-1.07-.02-1.61l.04-.52c-.06-.19-.07-.38,0-.56,0-.17-.02-.35,0-.52Zm-.32-3.59s.03.09,0,.13c-.13.57.06,1.15-.01,1.72,0,.22.02.45.02.67,0,.05-.01.08-.02.12.01.07.02.15.03.22,0,.07,0,.15,0,.22,0,.11.02.21.01.32,0,.09-.02.17-.04.24,0,.08-.04.18-.01.24,0,.02-.01.06-.02.09,0,.03-.01.07-.02.1,0,.03,0,.06,0,.09,0,.04,0,.08,0,.12.08.76.02,1.53.02,2.29,0,1.59-.02,3.17-.03,4.76,0,.58,0,1.15,0,1.73,0,.07.03.15-.07.19,0,.16.06.34-.11.46-.02.11-.1.13-.19.12-.28-.03-.57.06-.85-.01-.06,0-.12,0-.19,0-.04.03-.09.03-.13,0-.04,0-.08,0-.13,0-.04,0-.09,0-.13,0-.06,0-.13,0-.19,0-.21.16-.43.07-.64,0-.04,0-.08,0-.12,0-.15.01-.3.03-.45-.01-.04,0-.08,0-.12,0-.74.06-1.47,0-2.21,0-1.68,0-3.37,0-5.05,0-.28,0-.3-.13-.27-.33,0-.23,0-.46,0-.69-.05-.09-.02-.17.03-.25,0-.08-.01-.16-.02-.24-.01-.18-.04-.36,0-.55-.01-.16-.04-.33,0-.49-.05-.05-.02-.09,0-.14,0-.04,0-.08-.01-.11-.06-.05-.04-.1,0-.15v-.44s0-.05,0-.07c0-.08,0-.17.01-.25-.04-.09-.03-.18,0-.26,0-.34-.01-.68-.02-1.02-.08-.26-.11-.51.02-.77.01-.04.03-.08.04-.12l-.03-.22s0-.08,0-.12c0-.07,0-.13,0-.2v-.19c-.02-.07-.02-.13.03-.19,0-.04,0-.09,0-.13,0-.04,0-.08,0-.12-.07-.13,0-.26-.04-.39-.08-.23-.15-.47,0-.7.08-.32-.06-.64.02-.96,0-.02,0-.05,0-.07,0-.04-.01-.08-.02-.12-.03-.09-.02-.17,0-.26,0-.06,0-.12.01-.18,0-.03-.02-.06-.02-.08,0-.12,0-.25,0-.37-.01-.18-.02-.28.03-.33-.02-.09-.02-.18,0-.26-.02-.08,0-.22.04-.31.09-.09-.08-.17-.01-.25,0-.78.01-1.55.01-2.33,0-.34-.01-.68-.01-1.02,0-.1-.04-.23.13-.24,0-.04,0-.08,0-.13,0-.09.01-.18.02-.26,0-.04-.01-.08-.02-.12-.03-.01-.08-.02-.08-.03,0-.33-.14-.68.08-.99,0-.38,0-.77,0-1.15,0-.02,0-.05,0-.07,0-.17-.05-.34.01-.51,0-.04,0-.06.04-.07h0c.04-.09.11-.12.21-.12.49,0,.99,0,1.48,0,.04,0,.07.03.11.05.04,0,.09,0,.13,0,.36-.07.72-.1,1.08,0,.02,0,.05,0,.07,0,.44-.13.89-.04,1.34-.05.69-.01,1.37,0,2.06,0,.04,0,.09,0,.13,0,.63,0,1.27.02,1.9-.01.56-.03,1.11.05,1.67,0,.06,0,.1.01.13.07.07.13.29.02.34.2.09.07.06.16.02.24v.2s0,.08,0,.13c.06.15-.03.29,0,.44.03.02.04.05,0,.07,0,.07-.01.14-.02.21v.02s0,.01,0,.01c0,.09.02.19.02.28.04.08.05.17,0,.25.03.13.03.27-.02.4v.02s0,.02,0,.02c.01.13.04.27,0,.4.03.49.11.99,0,1.48,0,.04,0,.08.01.12Z"/>
    <path class="cls-8" d="m102.8,51.71s0-.05,0-.07c-.06-.6-.02-1.2-.02-1.8,0-.29.02-.59.03-.88v-.07c0-.06-.01-.13-.02-.19-.07,0-.15-.07-.12-.11.11-.23,0-.5.13-.72,0-.52-.1-1.04.05-1.55l-.02-.02v-.03c-.05-.07-.02-.14.01-.21-.03-.23-.24-.37-.31-.57-.12-.05-.18-.21-.34-.2-1.38-.01-2.77.02-4.15-.05-.07,0-.14,0-.21-.01-.11.03-.21.03-.32,0h-.12c-1.2.02-2.41,0-3.61-.02-.72,0-1.44,0-2.16-.05-.05,0-.09,0-.14,0-.79,0-1.58,0-2.37-.01-.06,0-.12,0-.18,0-.63,0-1.25.02-1.88.02-.05,0-.1,0-.13-.02-.03.01-.05.04-.09.05-.08.03-.16.03-.24.01-.06,0-.11-.03-.17-.05-.06.02-.14.02-.26-.03-.06-.02-.12-.02-.19-.02l-.12.02c-.08.11-.2.06-.29.05-.35-.03-.71-.03-1.06,0-.02,0-.04-.04-.06-.06-.04,0-.09,0-.13,0-.13.04-.26.02-.39,0-.17-.08-.34.02-.52-.02-.46.05-.93.05-1.39,0-.16-.02-.29.03-.44.03-1.21-.02-2.41-.03-3.62-.05-.47,0-.94,0-1.41,0-.93.01-1.86-.02-2.79-.03-1.14,0-2.27-.03-3.41-.02-.21,0-.43.06-.66.05-.33.2-.55.44-.48.88.04.22,0,.44,0,.67.04.05.01.09-.03.12v.58c.08.08.23.14.04.26l-.03.27c.04.08.04.17.01.25,0,.13,0,.25,0,.38,0,.02,0,.05,0,.07v.13c.04.11.06.2-.08.26.01.25.03.5.04.76,0,.02,0,.05,0,.07.02.81.02,1.62-.01,2.43,0,.05,0,.09,0,.14v.12s0,.05,0,.07c0,.04,0,.08,0,.12v.07s0,.08,0,.12c.01.05.02.09.02.12,0,.02.02.04.03.06.03.09.02.17,0,.25,0,.03-.02.06-.04.08,0,.41-.02.81-.03,1.22,0,.04,0,.09,0,.13,0,.15,0,.3,0,.44,0,.02,0,.05,0,.07,0,.04,0,.08,0,.12,0,.02,0,.05,0,.07l.02.02s.01,0,.02,0c0,0-.01,0-.02,0-.01.05-.03.11-.04.16.02.06.04.12,0,.19v.18c0,.05,0,.1,0,.15v.12s.02.03.03.04c0,0,0,.02,0,.02v.11c-.03.41.08.83-.06,1.23,0,.66,0,1.32.01,1.98v.21c-.01.49,0,.98,0,1.46v.13c0,.13,0,.25,0,.38.03.05.03.09,0,.13,0,.34,0,.68,0,1.02.03.04.02.09,0,.13,0,.17,0,.34-.01.51,0,.02,0,.05,0,.07.03.38.09.48.51.44.34-.03.68.05,1.01,0,.27-.14.55-.03.82-.03.89,0,1.78,0,2.67.02.57.02,1.14.02,1.71.05.54.03,1.1-.05,1.65-.03.53.02,1.05.01,1.58,0,.18-.04.37-.06.57-.04.07,0,.14.02.21.03.13-.02.25-.03.39-.02.04,0,.07.01.1.02.2,0,.41,0,.61.01.58.03,1.15.09,1.73.09.58,0,1.17,0,1.75.02.22,0,.36,0,.46.03.23.01.46.02.68.02.45-.08.9-.07,1.35.02,1.6-.04,3.21.08,4.81,0,.28,0,.56.01.84.02.06,0,.13,0,.19,0,.21-.02.42-.04.63.02.06-.04.13-.03.2-.02.05-.02.09,0,.12.04.05-.02.09-.03.14-.05.47.03.94-.04,1.4.05,1.17,0,2.35.02,3.52.01.26,0,.52.1.78,0,.88-.06,1.75.01,2.63,0,.16-.13.36-.22.4-.45,0-.27,0-.54-.01-.81,0-.15.02-.29.11-.41,0-.4,0-.81-.01-1.21,0-1-.08-2.01.02-3.01.02-.18-.11-.37.05-.54-.03-.08-.09-.16-.04-.25-.11-.76.01-1.52-.02-2.28-.03-.69,0-1.39.04-2.09,0-.09.05-.1.12-.11h.01s.01-.06.02-.08c-.11-.47-.02-.94-.02-1.4Zm-.41-4.37s-.02.04-.03.06v.15s0,.24,0,.24c0,.02,0,.05,0,.07v1.15c0,.09,0,.18,0,.26,0,.23,0,.46,0,.69,0,.05,0,.1,0,.15,0,.06,0,.12-.01.18.03.04.02.08,0,.13,0,.04.01.08.02.12.02.07.03.14-.02.2.04.11-.01.21-.02.32.08.12.01.25.02.38,0,.09,0,.18,0,.27.02.02.02.04,0,.05,0,.07-.01.13-.02.2,0,.04,0,.09,0,.13.02.22.06.45-.04.66h0c.07.05.03.11.02.17.02.16.02.25,0,.31,0,.03,0,.06.01.09,0,.09-.01.19-.02.28,0,0,0,0,0,0,0,.01,0,.02,0,.03-.04.49.08.98,0,1.47,0,.02,0,.05,0,.07,0,.06,0,.12,0,.18,0,.02,0,.05,0,.07.04.34.02.68,0,1.02,0,.02,0,.05,0,.07,0,.45,0,.89-.01,1.34v.07c0,.17,0,.34,0,.51.02.03.01.06-.02.07,0,.04-.01.08-.02.13.06.04.1.07.01.13-.02.13.03.27-.04.39.06.08.12.16.05.26v.11s.01.03.01.04c0,0,0,.02,0,.02v.13c.03.08.04.16-.02.24,0,.07,0,.15-.01.22.03.34.14.69-.05,1.01.11.2.03.42.04.63.06.08.16.16.02.26l-.03.19s0,.09,0,.14c0,.25,0,.51,0,.76.09.84,0,.88-.75.84-1.05-.05-2.09-.02-3.14-.01-.5,0-.99-.05-1.48-.06h-.13s-.13.01-.13.01c-.09,0-.17-.01-.26-.02-1.35.08-2.71-.04-4.06,0-.53.02-1.06.06-1.57,0-.75-.08-1.51-.05-2.26-.07-.89-.03-1.78,0-2.67.01-.1,0-.19-.02-.27-.06-.12,0-.25,0-.37-.01-.2.01-.4.04-.6.05-.05,0-.09,0-.13,0-.36.06-.73-.07-1.09-.04h-.12c-2.08.05-4.15-.03-6.23-.07-.1,0-.21,0-.31,0-.12,0-.25.09-.35.03-.08.01-.17.02-.24,0-.02,0-.04-.01-.06-.02-.03.01-.06.02-.1.02-1.21-.03-2.42.04-3.62-.08-.13,0-.26,0-.39,0-.19.06-.38.02-.57,0-.06,0-.13,0-.19,0-.13,0-.26,0-.38,0-.07,0-.13,0-.2,0-.08.04-.17.02-.25,0-.09,0-.17,0-.26,0-.15.08-.31,0-.46,0-.15,0-.13-.1-.11-.2,0-.22,0-.44,0-.65l-.02-.03s.02,0,.02,0c0-.09.01-.18.02-.27-.02-.05-.02-.09,0-.13,0-.07,0-.13,0-.2-.14-.08-.11-.16,0-.24,0-.03-.01-.07-.02-.1-.02,0-.03,0-.05,0,0,0,.02-.01.02-.02,0,0,.02,0,.02.01,0-.04,0-.08,0-.12-.02,0-.03,0-.05-.01.02,0,.03,0,.05-.01,0-.07.01-.14.02-.21-.02-.09-.03-.18,0-.26-.02-.09-.02-.17.01-.25,0-.02,0-.04,0-.06,0-.07,0-.13,0-.2,0-.02-.02-.04-.02-.07,0-.06,0-.12,0-.18-.07-.64,0-1.29,0-1.93.05-.68.04-1.37.04-2.05-.07-.13-.12-.26.02-.38,0-.62,0-1.24,0-1.86v-.14c0-.19,0-.38,0-.57-.16-.14-.06-.23.03-.33,0-.01,0-.03,0-.04-.01-.09-.01-.18,0-.27-.03-.08-.03-.2-.03-.41,0-.85,0-1.7,0-2.54,0-.04.03-.08.04-.12,0-.04,0-.08.01-.12,0-.02,0-.05,0-.07,0-.3,0-.6,0-.89,0-.07,0-.13.01-.2,0-.08,0-.17,0-.25v-.07c0-.45,0-.9,0-1.36-.02,0-.03-.01-.05-.02.02,0,.04-.01.05-.02v-.59s0-.26,0-.26c-.02-.2-.05-.4.09-.57.12-.14.23-.23.45-.12.31.15.66.03.99.06.4-.08.79-.09,1.19,0h1.04s.07,0,.07,0c.1,0,.21,0,.31.01.02,0,.05,0,.07,0,.04,0,.08,0,.12,0,.02,0,.05,0,.07,0,.08,0,.17,0,.25,0,.02,0,.05,0,.07,0,.15,0,.3,0,.44,0,.02,0,.05,0,.07,0,.06,0,.13,0,.19,0,.02,0,.05,0,.07,0,.06,0,.13,0,.19,0,.3.02.61-.09.91.05.02,0,.03,0,.05.02.07-.02.14-.03.21-.05.04,0,.08,0,.12,0,.06-.02.13-.03.18.03.26,0,.52,0,.77-.05,1.41-.02,2.82-.03,4.22.06.41-.04.83.05,1.23.03.28-.02.57.11.84-.03.73,0,1.45,0,2.18-.01.05,0,.11,0,.12.07,0,0,0,0,0,0,.12-.01.19,0,.24.02.04,0,.07.01.11.02.05,0,.1,0,.14,0,.11,0,.21,0,.32-.02.09-.02.18-.03.26-.02.1,0,.2,0,.3,0,.02-.03.05-.06.1-.06.3.02.6-.05.89.05.08,0,.17,0,.25.01.26-.02.52-.03.77,0h.38s.05,0,.07,0c.1,0,.21,0,.31,0,.02,0,.05,0,.07,0,.68.02,1.36.03,2.04.05.3-.14.62-.03.93-.03.44,0,.88-.05,1.32.04.56,0,1.12,0,1.68,0,.47,0,.94,0,1.42-.01.11,0,.21.02.26.14.14-.1.29-.07.44-.04.08-.07.16-.14.2.04.02,0,.04,0,.06,0,.04-.09.11-.12.2-.12.86,0,1.72,0,2.58,0,.03,0,.06.05.09.07.43-.12.72.12.74.58,0,.12,0,.24.03.37.01,0,.03.02.04.02-.01,0-.03.01-.04.02,0,.07,0,.13-.01.2.03.13.01.26,0,.39l.02.06.05.04-.05.02Z"/>
    <path class="cls-8" d="m55.56,48.46s.02,0,.02.01c0,0-.01.02-.02.02-.03,0-.04-.02,0-.03Z"/>
    <path class="cls-8" d="m55.35,41.03s-.01.01-.02.01c0,0,0,0-.01,0,.01,0,.02,0,.03,0Z"/>
    <path class="cls-8" d="m68.3,51.93s.02-.01.02-.01.02,0,.02.01c-.02,0-.03,0-.05,0Z"/>
    <path class="cls-8" d="m103.56,55.62c0-.06,0-.13,0-.19,0,0,0-.02,0-.02,0-.01-.01-.03-.02-.04,0-.24,0-.47,0-.71.05-.1.05-.21,0-.31,0-.13,0-.26,0-.38,0-.02,0-.05,0-.07,0-.06,0-.12,0-.19.02-.05.02-.09-.02-.13.01-.3.02-.6.03-.9,0-.02,0-.05,0-.07,0-.04,0-.08,0-.12.05-.09.01-.18-.03-.26.07-.47.03-.94.02-1.41,0-.02,0-.05,0-.07,0-.1,0-.21,0-.31,0-.07,0-.13,0-.2,0-.08,0-.17,0-.25.07-.22.04-.43.02-.65,0-.13,0-.26,0-.39,0,0,.01-.02.01-.02v-.02c.06-.3,0-.61,0-.91,0,0,.01-.03.01-.03l-.02-.02c0-.18,0-.35,0-.53,0,0,.01-.01.01-.02,0-.01,0-.02-.01-.04,0-.05,0-.09,0-.14.03-.04.03-.08,0-.12.01-.35.03-.7.03-1.05,0-.28,0-.54.29-.7.17-.02.33-.06.5-.06,1.2-.04,2.41.05,3.61.02.73-.02,1.46.02,2.19.04.52.01,1.06,0,1.58-.05.04,0,.09,0,.13,0,.13,0,.25.15.39,0,.04,0,.08-.01.12-.02.32.06.65.06.98.06,1.68,0,3.37.02,5.05.04,0,0,0,0,0,0,0,.04.02.07.07.05.04,0,.08.02.13.02.01.09.1.04.14.07,0,.02.01.03.03.04.06.8-.01,1.59.03,2.39.02.33-.13.51-.38.66-.12.07-.24.14-.36.19-.25.12-.58.16-.75.35-.39.43-.95.55-1.37.89-.28.23-.66.33-.96.52-.37.23-.76.43-1.13.66-.34.21-.72.33-1.01.61,0,0,0,0,0,0-.41.13-.75.39-1.09.63,0,0,0,0,0,0-.1.05-.22.08-.31.14-.18.11-.46.09-.53.37-.01.02-.03.04-.04.06-.42.09-.75.35-1.12.57-.84.49-1.7.95-2.54,1.45-.6.35-1.19.73-1.82,1.03-.28.14-.59.26-.82.49,0,0,0,0,0,0-.03.02-.05.03-.08.05-.02,0-.03,0-.05.02-.05-.01-.1-.02-.13.04,0,0-.02.01-.02.01-.2-.02-.41.04-.6-.06,0,0-.02-.01-.02-.01-.04-.04-.08-.07-.12-.11-.02-.1-.03-.21-.05-.31,0,0,0-.02,0-.02,0-.01-.01-.03-.02-.04,0-.13,0-.26,0-.39.02-.04.03-.09,0-.13Zm5.68-2.1c.06-.04.12-.07.14-.15h0c.44-.14.8-.44,1.23-.59.03-.01.04-.11.06-.17.25-.12.5-.23.76-.35.25-.09.45-.25.65-.43.02-.02.05-.05.07-.07.05,0,.11.02.12-.06.02,0,.04-.01.06-.02.14-.03.3-.02.39-.18.26-.03.37-.28.58-.4.25,0,.42-.19.63-.29.15-.07.37-.04.42-.27.31-.18.63-.36.94-.54.35-.11.62-.38.96-.51.28-.11.52-.26.71-.51.06-.03.13-.05.19-.08.29-.13.62-.19.84-.47.07-.1.22-.18.34-.2.24-.04.28-.2.28-.39,0-.5,0-1,0-1.49,0-.06,0-.12,0-.18,0-.05,0-.1,0-.15,0-.06,0-.11-.01-.17,0-.07-.03-.09-.09-.07-.23-.12-.48-.04-.71-.1-.35,0-.71-.08-1.06.03-.71,0-1.42.02-2.13-.06-.09-.11-.15-.1-.17.05l-.21-.03c-.24-.05-.47,0-.7.01-.2-.05-.4-.03-.6-.02-.38.03-.76.07-1.13-.07-.4.18-.81.02-1.22.05-.41.02-.82,0-1.23.01-.04,0-.08,0-.12.01-.49,0-.99,0-1.48-.01-.04,0-.09,0-.13,0-.19-.02-.39-.02-.58.01-.06,0-.13-.01-.19-.02-.32,0-.64,0-.96,0-.04,0-.09,0-.13.01-.48-.05-.97-.03-1.45-.01-.15,0-.33.03-.28.26,0,.43-.04.85,0,1.28,0,.02,0,.05,0,.07,0,.17-.01.34-.02.51-.08.06-.07.16-.06.23.07.72-.03,1.43.03,2.15,0,.1,0,.2,0,.31.01.09.02.18.04.27-.06.08-.05.16-.04.25-.06.04-.05.08,0,.12.02.15-.04.3.03.44-.02.07-.05.13-.01.21-.07.36-.02.72-.02,1.08,0,.05,0,.1,0,.14,0,.04,0,.08,0,.12,0,.02,0,.05,0,.07,0,.11,0,.21,0,.32-.07.02-.06.08-.06.13-.04.79.06,1.57-.01,2.36-.01.12.03.22.06.34.06.17.21.17.27.11.24-.25.58-.32.84-.51.02,0,.03,0,.04-.02.32-.19.64-.38.95-.56.12-.07.25-.1.34-.21h.02c.26-.03.4-.24.57-.4.33-.09.63-.24.9-.45.32-.23.73-.3,1.02-.58h0c.11-.04.24-.04.34-.14.02,0,.03-.02.03-.04Z"/>
    <path class="cls-8" d="m56.93,35.23c0-.09,0-.17-.01-.26.1-.47.02-.94.05-1.41.04-.51-.21-1.12.41-1.47.02-.02.04-.03.06-.05.76,0,1.51.04,2.26.02.87-.03,1.75.01,2.62-.03.4-.02.81.32.83.65.02.44.01.89.01,1.34,0,.6.01,1.21.02,1.81-.02.17-.03.33,0,.5-.03.09-.03.18,0,.27,0,.12-.01.25-.02.37-.03.07-.02.14.02.2,0,.04.01.08.02.12,0,0-.03,0-.03.01,0,.02,0,.04,0,.05-.02.06-.03.12,0,.18-.05.15-.07.32-.08.46-.02.27-.13.57.05.83,0,.05,0,.09,0,.14-.16.36-.09.72-.02,1.08,0,.87.01,1.73-.02,2.6-.02.37,0,.75-.1,1.12-.03.03-.05.07-.08.1-.65.42-1.38.3-2.07.25-.43-.03-.85.06-1.29-.04-.3-.06-.71.02-1.06.02-.52,0-1.05.14-1.54-.13-.1-.06-.04-.18-.08-.26.03-.09.02-.17-.02-.26,0-.05,0-.09-.01-.14.07-.06.05-.14.02-.21,0-.06,0-.11,0-.17.06-.28.04-.56,0-.84,0-.04,0-.08,0-.12,0-.02,0-.05,0-.07,0-.08,0-.17,0-.25.02-.18.02-.35-.02-.53,0-.04,0-.07,0-.11.03-.05.03-.1,0-.15,0-.04.01-.08.02-.11,0-.02,0-.05,0-.07,0-.06,0-.12,0-.18,0-.04,0-.09,0-.13.03-.24.07-.48-.04-.71.12-.2.11-.42.06-.64,0-.04,0-.08-.01-.12.03-.07.05-.13,0-.2,0-.04,0-.08,0-.12.03-.04.03-.09,0-.13,0-.09.01-.17.02-.26.03-.06.04-.13,0-.19,0-.15-.01-.3-.02-.45,0-.02,0-.05,0-.07,0-.08,0-.16,0-.25,0-.09.01-.18.02-.26,0-.09,0-.17.01-.26.03-.13.03-.25,0-.38,0-.19,0-.38,0-.58,0-.17.01-.34.02-.51Zm5.82-.58c0-.08,0-.17,0-.25.03-.32.07-.65,0-.97,0-.06.01-.13.02-.19.02-.11.05-.23-.05-.32,0-.44,0-.44-.43-.44-.07,0-.15,0-.22,0-.01-.03-.03-.07-.07-.05-.06,0-.13,0-.19.01-.04,0-.09,0-.13,0h-.26c-.49,0-.97-.02-1.46-.02-.33,0-.66-.06-.99.05-.4.01-.8,0-1.2-.04-.18-.02-.38.03-.37.3-.03.13-.04.26,0,.39,0,.04.01.08.02.12,0,.07,0,.13,0,.2,0,.06,0,.12,0,.19,0,.02,0,.05,0,.07,0,.06,0,.13,0,.19-.12.19-.13.38,0,.57,0,.04,0,.09,0,.13-.03.06-.04.13,0,.2,0,.23,0,.47,0,.7-.18.13-.01.29-.02.43-.02.48,0,.96,0,1.44,0,.25,0,.51,0,.76,0,.02,0,.04,0,.06v.26c-.05.06-.04.12,0,.19,0,.05.02.09.02.14-.06.13-.05.25-.02.38,0,.06,0,.12-.01.18,0,.07,0,.13-.01.2,0,.21.01.42.02.64.03.17-.21.33-.02.51,0,.06,0,.13,0,.19,0,.05,0,.1,0,.15-.05.23-.03.46.02.68,0,.05-.01.1-.02.15,0,.27,0,.55,0,.82,0,.02,0,.05,0,.07v.12c-.06.13-.04.29-.07.43-.06.29.11.46.4.46.3,0,.6-.03.89-.01,1.23.07,2.47,0,3.7.03.39,0,.47-.1.42-.51,0-.13,0-.25.01-.38.03-.13.03-.27.02-.4,0-.34.08-.69-.03-1.02.1-.12,0-.25.03-.37,0,0,.01-.02.01-.02,0-.01-.01-.03-.02-.04,0-.04.01-.08.02-.13,0-.04,0-.09,0-.13v-.31s0-.05,0-.07c0-.19,0-.38,0-.57,0-.07,0-.13,0-.2v-.76s0-.05,0-.07c0-.19,0-.38,0-.57,0-.02,0-.05,0-.07.01-1.11.02-2.22.03-3.34,0-.04-.01-.08-.02-.13Z"/>
    <path class="cls-8" d="m119.13,28.63c-.01.17-.02.33-.03.5-.07-.03-.09,0-.09.07,0,.06.03.09.1.07,0,.31.04.62-.01.92-.11.06-.08.16-.08.25,0,.58,0,1.16.01,1.74,0,.16-.1.33.04.48,0,.09.02.17.03.26-.16.08-.09.23-.09.34,0,.45-.04.9-.02,1.35.03,1.04.01,2.07.02,3.11,0,.05,0,.09,0,.14,0,.6,0,1.19,0,1.79,0,.12,0,.25,0,.37-.04.02-.05.05-.02.08,0,.08,0,.17.01.25,0,.02-.01.05-.02.07,0,.28,0,.55,0,.83,0,.02,0,.05,0,.07,0,.04,0,.08,0,.12-.04.07-.02.13,0,.2.01.07.02.13.03.2-.04.03-.04.08-.03.12,0,.06,0,.12,0,.18,0,.02,0,.05.01.07-.03.28-.04.56,0,.84-.17.08-.08.24-.09.36-.02.33.05.67-.14.97-.44.08-.88.13-1.32.11-.26-.07-.53-.02-.79-.02-.03,0-.05-.01-.08-.02,0-.03-.02-.05-.05-.04-.15-.09-.23-.23-.26-.4,0-.31,0-.62.01-.93.07-1.56.04-3.11.04-4.67v-.24s0-.05,0-.07c0-.3.01-.59.02-.89,0-.13-.01-.27-.02-.4,0-.1,0-.21,0-.31,0-.07,0-.13,0-.2,0-.13,0-.25.01-.38,0-.02,0-.05,0-.07,0-.51,0-1.02,0-1.53,0-.02,0-.05,0-.07,0-.23,0-.47.01-.7.08-.43.07-.86.01-1.29,0-.1.02-.2.02-.31,0-.02,0-.05,0-.07,0-.04-.02-.07-.03-.11,0-.05,0-.1,0-.15.01-.21.02-.42.03-.63.03-.14.01-.27-.04-.4.03-.08.05-.16.03-.24.02-.07.02-.13-.02-.19.01-.81.03-1.63.04-2.44,0-.02,0-.04,0-.07.02-.04.04-.09.07-.13.85-.34,1.69-.33,2.54.02,0,0,0,0,0,0,.01.08.04.14.14.12,0,.23.02.46.02.68-.05.09-.04.18,0,.27Zm-.48,7.89s0-.05-.01-.07c0-.04,0-.08,0-.12.04-.09.03-.17.01-.26,0-.04,0-.08,0-.12,0-.02,0-.05,0-.07,0-.04,0-.08-.01-.12v-.07c0-.11,0-.21.01-.32.04-.08.04-.14-.05-.19.07-.43.05-.86.05-1.28,0-.07,0-.13,0-.2,0-.04,0-.08,0-.13.08-.28.06-.56.03-.84.03-.23,0-.46-.03-.69,0-.05.01-.09.02-.14.04-.06.04-.12,0-.18,0,0,0-.01,0-.02,0-.01-.01-.02-.02-.04.04-.17.04-.34,0-.51.03-.05.02-.1,0-.15.06-.21.02-.42.03-.62,0-.02-.01-.04-.02-.07,0-.07,0-.13,0-.2.06-.08.05-.17,0-.25,0-.11.01-.21.02-.32,0-.02,0-.05,0-.07,0-.11,0-.21,0-.32.05-.06-.01-.05-.04-.07.02-.26.01-.53.01-.78,0-.19.15-.53-.23-.62-.44-.08-.88-.06-1.32-.03-.16-.07-.27,0-.38.11-.05.03-.04.06,0,.09-.08.15-.07.3-.02.45,0,.05,0,.1,0,.15,0,.12-.01.24-.02.36,0,.05,0,.1,0,.15,0,.06,0,.12,0,.18,0,.02,0,.05,0,.07,0,.08,0,.17,0,.25,0,.02,0,.05,0,.07,0,.04,0,.08-.01.13-.12.23-.13.47,0,.7,0,.04,0,.09,0,.13-.12.15-.09.3.01.45,0,.3,0,.6,0,.9-.06.45-.06.9-.04,1.36,0,.04,0,.08,0,.12,0,.09-.02.17-.03.26-.02.02-.02.04,0,.05,0,1.03,0,2.06,0,3.09,0,.06,0,.12,0,.18-.04.26-.22.51.02.76-.02.34-.05.69-.01,1.03,0,.02.01.05.02.07,0,.09-.01.18-.02.26-.13.08-.13.16,0,.24,0,.35-.03.7-.03,1.05,0,.29.02.59-.05.88-.03.54.04,1.08.02,1.62-.02.34-.06.68.01,1.01-.02.04-.02.08.02.12.03.14.12.19.25.19.46,0,.93.02,1.39.01.2,0,.34-.09.31-.33,0-.08.01-.16.02-.24.03-.05.03-.09,0-.14,0-.26.01-.51.02-.77.03-.09.04-.17-.01-.25,0-.47,0-.94,0-1.41,0-.02,0-.05,0-.07.01-.26.04-.52.03-.78-.01-.27.08-.54-.07-.8.04-.01.07-.03.06-.07.07-.24,0-.47.01-.71,0-.02.01-.05.02-.07,0-.1,0-.21,0-.31,0-.04-.01-.09-.02-.13,0-.15.01-.3.02-.45,0-.02,0-.05,0-.07,0-.15,0-.29,0-.44,0-.04-.01-.09-.02-.13.01-.14.02-.27.03-.41l.02-.02s-.01,0-.02,0c0,0,0-.02,0-.02Z"/>
    <path class="cls-8" d="m98.75,41.65c.11.2,0,.43.11.63-.07.05-.09.12-.05.2,0,.28,0,.56,0,.83-.15.13-.05.3-.07.45,0,.08-.01.17-.02.25-.13.12-.17.33-.38.37-.04,0-.08.02-.12.03-1.63,0-3.25-.08-4.88,0-.02,0-.03,0-.05-.01-.04-.11-.13-.04-.2-.06,0,0,0,0,0,0,0-.04-.03-.06-.07-.05-.01-.01-.03-.02-.05-.02,0-.06,0-.11-.07-.12-.02-.05-.04-.09-.05-.14-.03-.09.03-.24-.14-.25,0-.25,0-.51-.01-.76.17-.07.11-.22.11-.33,0-.87,0-1.74,0-2.61,0-1.24.03-2.47.03-3.71,0-.14.12-.35-.12-.43h-.02s.02,0,.02,0c.17-.01.13-.16.13-.24,0-.63,0-1.27-.01-1.9v-.07c.04-.24.05-.48.02-.72.05-.51.22-.67.87-.64.06,0,.13,0,.19,0,.73.02,1.47.07,2.2.05.8-.02,1.6-.09,2.4.04,0,0,0,0,0,0,.17.11.32.23.27.47-.02.09.04.16.09.22,0,.17-.02.33-.02.5,0,.02-.01.04-.02.06.02.23-.04.47.03.71-.03.04-.04.09-.01.14-.02.08-.03.17,0,.25-.03.06-.04.13-.01.19,0,.3,0,.6.01.9,0,.04,0,.08-.01.13,0,.41,0,.82,0,1.23,0,.04,0,.08,0,.11,0,.08,0,.16,0,.25-.16.21-.17.43-.01.65,0,.06,0,.12.01.19-.02.07-.05.14-.01.21,0,.23-.04.46,0,.69,0,.11-.02.22-.02.34,0,.06,0,.12,0,.18,0,.02,0,.05,0,.07,0,.19,0,.38,0,.57,0,.02,0,.05,0,.07,0,.04,0,.08,0,.13-.12.19-.11.38-.01.57,0,.11,0,.21,0,.32-.04,0-.07.02-.06.07Zm-5.61,1.92s-.01.02-.01.02c0,.01.01.03.02.04-.04.09,0,.17.05.25.04.27.23.06.31.07,1.48.06,2.97.1,4.45.13.19,0,.5-.12.44-.28-.1-.28.05-.5.06-.73.03-.48.01-.97.02-1.45.01-.85.01-1.7.02-2.55,0-.06,0-.11,0-.17.01-.58.04-1.16.04-1.74,0-.66,0-1.33-.01-1.99v-.31s0-.05,0-.07c0-.15,0-.29,0-.44,0-.04,0-.09,0-.13,0-.04,0-.08,0-.12,0-.02,0-.05,0-.07,0-.13.01-.26.02-.39.02,0,.04-.01.05-.02-.02,0-.04-.01-.05-.02,0-.02,0-.05-.01-.07,0-.05,0-.09,0-.14.03-.41-.15-.74-.42-.67-.37.09-.71-.04-1.07-.04-.58,0-1.16,0-1.74-.03-.51-.02-1.04.09-1.55.02-.39-.05-.49.09-.55.4,0,.04,0,.09,0,.13,0,.04.02.09.02.13-.02.27-.2.55,0,.82,0,.04,0,.09,0,.13,0,.02,0,.05,0,.07-.03.34-.03.69.01,1.03-.06.1-.03.21,0,.31,0,.09,0,.17,0,.26,0,.02,0,.05,0,.07,0,.05-.01.1-.02.15-.02,0-.03,0-.05.01.02,0,.03,0,.05.01,0,.05,0,.1,0,.15-.02.02-.06.04-.06.05.03.5-.1,1,.08,1.49,0,.06-.01.12-.02.18,0,.05,0,.09,0,.14,0,.25,0,.51,0,.76,0,.02,0,.05,0,.07-.06.15,0,.3-.02.44-.11.58-.02,1.15,0,1.73,0,.06,0,.13.01.19-.03.05-.03.09,0,.14-.01.38-.02.76-.04,1.14,0,.07,0,.13,0,.2,0,.15,0,.3,0,.44-.03.05-.03.09,0,.13,0,.04,0,.08.01.13Z"/>
  </g>
  <text class="cls-1" transform="translate(57.2 86.11)"><tspan x="0" y="0">P60</tspan><tspan class="cls-7" x="18.7" y="0">-</tspan><tspan x="22.12" y="0">XK</tspan></text>
</svg>