<?xml version="1.0" encoding="UTF-8"?>
<svg id="P60K" xmlns="http://www.w3.org/2000/svg" viewBox="0 0 150 100">
  <defs>
    <style>
      .cls-1 {
        stroke-width: .75px;
      }

      .cls-1, .cls-2, .cls-3, .cls-4, .cls-5, .cls-6, .cls-7 {
        fill: none;
        stroke: #000;
      }

      .cls-1, .cls-2, .cls-7 {
        stroke-linecap: round;
        stroke-linejoin: round;
      }

      .cls-2 {
        stroke-width: .6px;
      }

      .cls-3 {
        stroke-width: .17px;
      }

      .cls-3, .cls-4, .cls-5, .cls-6 {
        stroke-miterlimit: 10;
      }

      .cls-4 {
        stroke-width: .18px;
      }

      .cls-8 {
        font-size: 9px;
      }

      .cls-8, .cls-9 {
        fill: #010101;
        font-family: MyriadPro-Regular, 'Myriad Pro';
      }

      .cls-5 {
        stroke-width: .18px;
      }

      .cls-6 {
        stroke-width: .16px;
      }

      .cls-9 {
        font-size: 13px;
      }

      .cls-7 {
        stroke-width: .64px;
      }
    </style>
  </defs>
  <path class="cls-2" d="m64.67,64.74c.58.27.66.43.59,1.07-.02.18-.03.36-.05.54"/>
  <path class="cls-2" d="m70.79,50c0,1.38.02,2.76.02,4.15"/>
  <path class="cls-2" d="m95.46,39.31c-.02-.1-.07-.21-.04-.29.37-.91.05-1.86.14-2.78.03-.31.06-.62.04-.93-.01-.3.17-.42.4-.43.5-.02,1.01,0,1.51.05.25.02.41.17.4.48-.04.93-.05,1.85-.05,2.78,0,.25.08.5.12.78.39-.02.72-.04,1.07-.06.5-1.31.53-2.77,1.27-4.04,1.15,0,2.24,0,3.33,0,.61,0,.78.18.78.78,0,4.72,0,9.43,0,14.15v10.05c0,.63,0,1.27,0,1.9,0,.4-.3.68-.68.68-1.38,0-2.76,0-4.15,0h-19.27"/>
  <path class="cls-7" d="m64.23,68.4c.4,1.01.78,2.02,1.2,3.02.06.13.32.28.49.28.66.03,1.32.01,2.1.01.47-1.11.94-2.23,1.42-3.37-.45-.07-.84-.12-1.32-.19,0-.96-.01-1.87,0-2.78,0-.41.38-.56.78-.58.88-.04,1.77-.04,2.65-.05.79,0,1.58,0,2.37,0,1,0,1.99.04,2.99.04,1.05,0,2.11-.04,3.16-.04,2.31,0,4.63.03,6.94.04,1.05,0,2.11.01,3.16,0,.21,0,.41-.12.62-.19"/>
  <path class="cls-2" d="m68.92,20.38c.07.05.19.1.19.15,0,.62-.04,1.24-.04,1.85,0,.65.03,1.3.04,1.95,0,.16-.05.33-.04.49,0,.08.09.16.14.24"/>
  <path class="cls-2" d="m69.06,25.07c0,.55,0,1.11,0,1.66,0,.05-.09.1-.14.15"/>
  <path class="cls-2" d="m87.85,64.49c.21.24.47.3.78.3,3.59,0,7.19,0,10.78,0h4.93c.76,0,1.53,0,2.29,0,.65,0,.92.31.89.88-.04.73.03,1.46.03,2.19,0,.15-.09.3-.14.44h-.95c.25.74.47,1.42.7,2.1.1.3.26.58.33.88.09.36.27.5.64.49.52-.02,1.04,0,1.63,0,.29-.78.58-1.53.85-2.29.12-.35.2-.71.3-1.07"/>
  <path class="cls-2" d="m68.92,16.58c.07.05.19.1.19.15,0,.81-.03,1.63-.04,2.44,0,.41,0,.81,0,1.22"/>
  <path class="cls-2" d="m70.96,54.15c-.42.08-.15.42-.17.59-.06.74-.04,1.49-.02,2.24.01.57.08,1.14.09,1.71,0,.36-.07.72-.08,1.07,0,.08.12.16.19.24"/>
  <path class="cls-2" d="m65.11,66.35c.07.26.15.52.19.78.03.24.05.5,0,.73-.04.15-.19.34-.33.38-.3.07-.61.05-.92.07"/>
  <path class="cls-2" d="m67.04,30.97c.09.96.87,1.52,1.68,1.52,4.31-.01,8.62-.01,12.93,0,1.63,0,3.25.03,4.88.05,1.27.01,2.54.05,3.81.04,1.92-.01,3.84-.08,5.76-.09,1.72,0,3.45.04,5.17.04.94,0,1.89-.03,2.83-.04.7,0,1.4-.02,2.1,0,1.13.04,2.29-.81,2.49-2.15.12-.75.29-1.5.43-2.25.14-.71-.12-1.01-.83-1.08-.76-.08-.75.05-.73-.77,0-.28,0-.55.03-.83v-.05s.02.02.02.02c.23-.06.45-.16.68-.16.83-.02,1.66,0,2.49-.01,1-.02,1.83.64,2.19,1.47.08.19.1.42.1.63.01.7,0,1.4,0,2.12-.39.04-.78.07-1.17.13-.4.06-.61.37-.62.73-.01.58.04,1.16.09,1.73.02.26.19.42.48.42.31,0,.62,0,.93,0,1.27,0,2.54,0,3.81,0,.11,0,.23.09.34.14"/>
  <path class="cls-2" d="m105.61,42.05c.07.07.18.13.19.2.02.36.01.72,0,1.07-.03,1.66-.07,3.32-.09,4.98,0,.57.03,1.14.05,1.71"/>
  <path class="cls-2" d="m64.11,9.7c-.04,1.16.46,2.09,1.2,2.92.5.56,1.18.69,1.9.63.27-.02.35-.22.35-.48,0-.41-.09-.85.17-1.22.98,0,1.53.74,1.35,1.66-.1.52-.02,1.07-.02,1.61v1.76"/>
  <path class="cls-1" d="m55.3,62.39c.25.02.51.05.76.05,2.57-.01,5.13-.03,7.7-.05,1.8,0,3.61,0,5.41,0,.08,0,.15-.09.23-.14"/>
  <path class="cls-2" d="m69.21,56.59c.07.05.19.1.19.15,0,.76-.04,1.53-.04,2.29,0,.63.03,1.27.04,1.9,0,.42,0,.85,0,1.25-.56.39-1.11.26-1.66.16"/>
  <path class="cls-2" d="m55.69,64.78c-.59.13-.65.58-.63,1.07"/>
  <path class="cls-2" d="m70.79,60.05c0,.41.02.81.02,1.22"/>
  <path class="cls-2" d="m54.96,65.86c.08.04.17.08.16.08-.02.47-.05.88-.06,1.29,0,.08.05.16.04.24-.03.74.05.83.78.83.34,0,.68,0,1.02,0"/>
  <path class="cls-2" d="m120.05,54.39c-.03.28-.05.56-.08.93-.61,0-1.17.03-1.72,0-1.73-.11-3.45-.25-5.17-.39-.67-.06-1.33-.16-2-.24-.49-.06-.98-.13-1.46-.19"/>
  <path class="cls-2" d="m61.84,5.79c-2.21.62-4.43,1.22-6.63,1.86-.48.14-.98.21-1.43.52-.77.54-1.06,1.28-1.06,2.16,0,1.28.04,2.57.04,3.85,0,.93-.04,1.85-.04,2.78,0,1.56.04,3.12.04,4.68,0,1.48-.03,2.96-.04,4.44,0,1.24,0,2.47,0,3.71,0,.37.03.75.05,1.12"/>
  <path class="cls-2" d="m70.96,38.92c-.07.18-.18.36-.19.54-.01,1.61,0,3.22,0,4.83,0,1.76,0,3.51,0,5.27,0,.13-.16.4.19.39"/>
  <path class="cls-2" d="m70.96,61.27c-.3-.02-.2.21-.19.34.02.2.09.39.16.68.23.04.52.14.81.14,1.5,0,2.99-.04,4.49-.04,1.35,0,2.7.03,4.05.05"/>
  <path class="cls-2" d="m108.78,54.46c-.75-.04-1.5-.06-2.24-.13-.58-.05-.84-.36-.83-.92.01-.96.02-1.92.05-2.88,0-.16.09-.33.14-.49"/>
  <path class="cls-2" d="m55.25,42.05c-.07-.08-.19-.16-.19-.24-.01-1.06-.01-2.11,0-3.17,0-.52.05-1.04.04-1.56,0-1.15-.03-2.31-.04-3.46,0-.6,0-1.2,0-1.81,0-.7.29-.96.98-.88,1.09.13,2.18.26,3.27.39,1.59.18,3.19.39,4.78.52.49.04.72.27.93.65.4.7.86,1.35,1.6,1.77.6.34,1.21.57,1.91.58.7.01.88.21.88.92,0,.2.01.39,0,.58,0,.06-.12.1-.19.15"/>
  <path class="cls-2" d="m70.87,38.92c-.02-.29-.04-.59-.05-.88,0-.65,0-1.3,0-1.95"/>
  <path class="cls-2" d="m66.52,20.63c-.08-.01-.17-.02-.25-.04,0-.05,0-.1,0-.15.15-.03.3-.05.44-.08.03.15.06.23.06.31.06,1.05-.11,2.07-.39,3.07-.28,1.04-.56,2.08-.83,3.12-.25.97-.48,1.95-.74,2.93-.11.41-.47.63-.97.58-.96-.1-1.92-.23-2.88-.34-1.15-.13-2.31-.26-3.46-.39-.72-.08-1.43-.17-2.11-.25-.38-.44-.31-.89-.3-1.36.03-1.22-.03-2.44-.03-3.66,0-2.23,0-4.46,0-6.68,0-.15-.16-.42.19-.44"/>
  <path class="cls-2" d="m122.78,24.82h-1.17c-.94,0-1.89,0-2.83,0-.58,0-.86.24-.92.83-.05.52-.05,1.04-.07,1.42.74.77,1.42,1.44,2.05,2.16.16.18.24.48.24.72,0,.55.03,1.13-.11,1.65-.17.67-.48.83-1.15.84-.63,0-1.27.03-1.9.05"/>
  <path class="cls-2" d="m64.62,64.59c-.08.05-.16.14-.24.14-.89.01-1.79,0-2.68,0-1.81.01-3.61.03-5.42.05-.13,0-.26.03-.39.05"/>
  <path class="cls-2" d="m68.92,27.02c-.13-.05-.26-.13-.39-.14-.18,0-.36.04-.54.06h-.05s.02.02.02.02c-.32,1.17-.63,2.34-.95,3.51-.04.15.26.41-.14.44"/>
  <path class="cls-2" d="m70.82,36.05c0-.11,0-.23,0-.34.06-.73.23-.88.97-.88,3.43,0,6.86-.01,10.3,0,1.82,0,3.64.07,5.46.09.7,0,1.4-.03,2.1-.04.08,0,.16.09.24.14"/>
  <path class="cls-2" d="m63.01,54.73c-.68.08-1.36.18-2.05.24-1.09.1-2.18.16-3.27.25-.7.06-1.4.14-2.05.21-.18-.1-.31-.18-.5-.29-.01-.21-.02-.45-.03-.7"/>
  <path class="cls-2" d="m95.41,38.92h-1.02c-.29-1.22-.56-2.34-.84-3.46-.09-.34-.48-.58-.92-.58-.91,0-1.82,0-2.73,0"/>
  <path class="cls-2" d="m119.56,54.25c.16.04.32.08.51.13v-19.18c-.29-.54-.78-.39-1.15-.4-1.33-.03-2.67.02-4,.03-.93,0-1.85-.05-2.78-.04-1.37.01-2.73.07-4.1.09-.44,0-.88-.03-1.32-.04-.74-.02-.93.25-.93.9,0,1.31-.03,2.62-.04,3.93,0,.8,0,1.59,0,2.39"/>
  <path class="cls-2" d="m66.67,20.38c.03-.44.08-.88.09-1.32.02-.76,0-1.53,0-2.29,0-.28.03-.56,0-.83-.05-.33-.23-.56-.57-.69-1.36-.54-2.43-1.43-3.12-2.73-.45-.83-.64-1.74-.68-2.68-.02-.41,0-.81,0-1.17-.34-.55-.8-.4-1.22-.29-1.79.48-3.58.96-5.37,1.47-.28.08-.52.28-.73.4,0,.4,0,.7,0,1,.02,1.58.03,3.16.05,4.73,0,.42,0,.85,0,1.27"/>
  <path class="cls-2" d="m55.08,42.1c0,2.57.02,5.14.02,7.71,0,.89-.03,1.79-.04,2.68,0,.62,0,1.24,0,1.85"/>
  <path class="cls-2" d="m119.56,62.39c-1.81.02-3.61.04-5.42.05-1.43,0-2.86-.04-4.29-.04-1.17,0-2.34.03-3.51.05-.34,0-.61-.35-.63-.83-.01-.41,0-.81,0-1.22,0-1.25-.01-2.5,0-3.76,0-.26.13-.53.2-.78.8,0,1.57-.04,2.33,0,1.79.12,3.58.28,5.37.43,1.33.11,2.67.23,4,.34.5.04,1.01.13,1.51.13.39,0,.68.12.93.41,0,1.49,0,2.99,0,4.48,0,.37-.09.64-.45.78"/>
  <path class="cls-2" d="m68.96,3.89s-.04,0-.05,0c0,0,0,.03,0,.05-.55-.08-1.05.12-1.56.29-.63.21-1.27.36-1.9.54-1.09.32-2.18.65-3.27.97-.08.02-.19-.06-.29-.09"/>
  <path class="cls-2" d="m120.15,68.01c-.03-.16-.09-.32-.09-.49-.01-.65.01-1.3-.01-1.95-.01-.25-.12-.5-.19-.78h-2.63c-.89,0-1.79,0-2.68,0-.94,0-1.89.04-2.83.04-.34,0-.68-.05-1.02-.04-.55.01-.81.27-.83.83-.01.7-.01,1.4,0,2.1,0,.17.07.33.11.48.42.07.81.13,1.2.2"/>
  <path class="cls-2" d="m68.92,3.99c.05.15.14.29.14.44.01.76.03,1.53,0,2.29-.03.69-.64,1.11-1.45.96-.02-.34-.04-.7-.06-1.06-.01-.41-.18-.6-.59-.58-.67.03-1.25.26-1.71.77-.52.57-.92,1.19-1.07,1.96-.04.22-.02.46-.06.68-.01.07-.12.13-.19.2"/>
  <path class="cls-2" d="m69.35,56.59c.08-.65-.14-.88-.78-.83-.83.07-1.66.17-2.49.24-1.22.09-2.44.16-3.66.25-.96.07-1.92.16-2.88.24-1.17.1-2.34.2-3.51.29-.69.05-.91.28-.93.98-.03,1.14-.06,2.28-.1,3.42"/>
  <path class="cls-2" d="m52.91,30.92c-.26.21-.2.51-.19.78.01,1.43.04,2.86.04,4.29,0,.99-.04,1.98-.04,2.98,0,1.32.05,2.63.04,3.95,0,.93-.09,1.85-.08,2.78,0,.96.08,1.92.08,2.88,0,1.58-.03,3.16-.04,4.73,0,1.85,0,3.71,0,5.56,0,.13-.03.26-.05.39"/>
  <path class="cls-2" d="m69.38,36.53c0,1.04.02,2.08.02,3.12,0,2.42,0,4.85,0,7.27,0,2.21,0,4.42,0,6.64,0,.53-.23.75-.78.78-.75.04-1.5.1-2.24.14"/>
  <path class="cls-2" d="m122.39,24.92c.02.76.04,1.53.05,2.29,0,.73,0,1.46,0,2.2v1.95c0,.88,0,1.76,0,2.63-.01,1.22-.04,2.44-.05,3.66,0,1.5,0,2.99,0,4.49,0,1.45.05,2.9.04,4.34,0,2-.03,4-.05,6-.01,1.22-.05,2.44-.04,3.66,0,2.28.04,4.55.04,6.83,0,2.68,0,5.37,0,8.05,0,.2-.03.39-.05.59"/>
  <line class="cls-2" x1="55.01" y1="61.17" x2="55.08" y2="62.44"/>
  <line class="cls-2" x1="52.71" y1="58.88" x2="52.79" y2="71.72"/>
  <line class="cls-2" x1="52.79" y1="71.72" x2="55.11" y2="71.72"/>
  <line class="cls-2" x1="55.11" y1="71.72" x2="56.91" y2="68.3"/>
  <line class="cls-2" x1="63.01" y1="54.73" x2="67.11" y2="54.44"/>
  <line class="cls-2" x1="108.78" y1="54.46" x2="110.42" y2="54.6"/>
  <line class="cls-2" x1="122.39" y1="71.77" x2="120.05" y2="71.77"/>
  <line class="cls-2" x1="120.15" y1="68.01" x2="118.41" y2="68.01"/>
  <line class="cls-2" x1="120.05" y1="71.77" x2="118.41" y2="68.01"/>
  <text class="cls-8" transform="translate(27.22 40.45)"><tspan x="0" y="0">58mm</tspan></text>
  <g>
    <g>
      <line class="cls-4" x1="39.34" y1="42.1" x2="39.34" y2="70.64"/>
      <path d="m39.34,71.72c-.19-.51-.51-1.14-.85-1.53l.85.31.85-.31c-.34.39-.66,1.02-.85,1.53Z"/>
    </g>
    <g>
      <line class="cls-6" x1="39.34" y1="34.16" x2="39.34" y2="4.98"/>
      <path d="m39.34,3.99c.17.47.47,1.04.78,1.4l-.78-.28-.78.28c.31-.36.61-.93.78-1.4Z"/>
    </g>
    <line class="cls-4" x1="40.27" y1="71.72" x2="38.41" y2="71.72"/>
    <line class="cls-6" x1="40.27" y1="3.99" x2="38.41" y2="3.99"/>
  </g>
  <g>
    <g>
      <line class="cls-5" x1="99.89" y1="76.07" x2="121.68" y2="76.07"/>
      <path d="m122.78,76.07c-.52.19-1.16.52-1.56.87l.31-.87-.31-.87c.4.35,1.04.68,1.56.87Z"/>
    </g>
    <g>
      <line class="cls-3" x1="74.8" y1="76.07" x2="53.06" y2="76.07"/>
      <path d="m52.05,76.07c.48-.18,1.06-.48,1.43-.8l-.29.8.29.8c-.37-.32-.96-.62-1.43-.8Z"/>
    </g>
    <line class="cls-5" x1="122.78" y1="75.14" x2="122.78" y2="76.99"/>
    <line class="cls-3" x1="52.05" y1="75.14" x2="52.05" y2="76.99"/>
  </g>
  <text class="cls-8" transform="translate(75.52 78.47)"><tspan x="0" y="0">60mm</tspan></text>
  <text class="cls-9" transform="translate(61.29 92.86)"><tspan x="0" y="0">P60K</tspan></text>
</svg>