<?xml version="1.0" encoding="UTF-8"?>
<svg id="T60-KB" xmlns="http://www.w3.org/2000/svg" viewBox="0 0 150 100">
  <defs>
    <style>
      .cls-1 {
        fill: #231f20;
        font-size: 12px;
      }

      .cls-1, .cls-2 {
        font-family: MyriadPro-Regular, 'Myriad Pro';
      }

      .cls-2 {
        fill: #010101;
        font-size: 9px;
      }

      .cls-3 {
        stroke-width: .14px;
      }

      .cls-3, .cls-4 {
        fill: none;
        stroke: #000;
        stroke-miterlimit: 10;
      }

      .cls-5 {
        fill: #292424;
      }

      .cls-4 {
        stroke-width: .15px;
      }
    </style>
  </defs>
  <g>
    <g>
      <line class="cls-4" x1="76.08" y1="12.36" x2="91.85" y2="12.36"/>
      <path d="m92.75,12.36c-.42.16-.94.42-1.27.7l.25-.7-.25-.7c.32.28.85.55,1.27.7Z"/>
    </g>
    <g>
      <line class="cls-3" x1="51.7" y1="12.36" x2="32.74" y2="12.36"/>
      <path d="m31.92,12.36c.39-.14.86-.39,1.16-.65l-.23.65.23.65c-.3-.26-.78-.5-1.16-.65Z"/>
    </g>
    <line class="cls-4" x1="92.75" y1="11.43" x2="92.75" y2="13.28"/>
    <line class="cls-3" x1="31.92" y1="11.43" x2="31.92" y2="13.28"/>
  </g>
  <g>
    <g>
      <line class="cls-4" x1="102.44" y1="36.76" x2="102.44" y2="20.99"/>
      <path d="m102.44,20.1c.16.42.42.94.7,1.27l-.7-.25-.7.25c.28-.32.55-.85.7-1.27Z"/>
    </g>
    <g>
      <line class="cls-3" x1="102.44" y1="53.06" x2="102.44" y2="72.02"/>
      <path d="m102.44,72.84c-.14-.39-.39-.86-.65-1.16l.65.23.65-.23c-.26.3-.5.78-.65,1.16Z"/>
    </g>
    <line class="cls-4" x1="101.52" y1="20.1" x2="103.37" y2="20.1"/>
    <line class="cls-3" x1="101.52" y1="72.84" x2="103.37" y2="72.84"/>
  </g>
  <g>
    <path class="cls-5" d="m92.56,20.6c.21.23.21.5.17.78-.25.28-.14.62-.14.93-.01,16.52-.01,33.04-.02,49.55,0,.27.02.54.02.81-.76.65-2.36.4-2.76-.46-.3-.64-.54-1.3-.85-1.93-.23-.49-.22-.8.41-.69.84.15.94-.24.92-.97-.05-1.82-.02-1.82-1.86-1.82-2.07,0-4.14,0-6.22,0-.07-.13-.14-.11-.2,0-.32.85-.09,1.73-.12,2.6-.02.36.34.36.61.34.5-.04.6.11.39.6-.29.67-.48,1.38-.69,2.08-.09.31-.27.44-.58.42-.08,0-.16,0-.24,0-.69-.04-1.64.31-2.02-.13-.6-.7-.85-1.71-1.19-2.61-.11-.28.1-.5.44-.5.27,0,.54-.02.8-.02.19-.07.2-.18.08-.33,0-.63,0-1.26,0-1.89.12-.08.09-.15-.02-.21.02-.26-.13-.32-.35-.32-.05-.08-.11-.13-.19-.02-5.38,0-10.75,0-16.13-.01-.08-.13-.14-.12-.21.01-.67-.28-1.34.03-2.01.02-5.03-.04-10.06-.03-15.09-.03-.07-.12-.14-.11-.2,0-.31.85-.1,1.74-.13,2.61,0,.36.34.36.62.34.51-.03.59.09.37.59-.3.66-.46,1.39-.69,2.08-.09.25-.22.48-.57.42-.24-.04-.48,0-.73,0-1.8,0-1.89-.06-2.38-1.79-.03-.1,0-.22-.03-.32q-.34-1.12.8-1.15c.41-.85.13-1.74.14-2.61,0-.25-.35-.37-.62-.11-2.53-.02-5.05-.04-7.58-.06-.09-.15-.15-.08-.2.03-.3.74-.16,1.51-.09,2.25.04.4.39.59.83.52.65-.1.65.21.4.67-.14.25-.26.51-.39.77q-.96,1.92-3.13,1.76c-.02-.1-.03-.2-.05-.31,0-.35.01-.7.01-1.05,0-16.38,0-32.76,0-49.14,0-.51.19-1.01.04-1.52.21-.22.43-.43.64-.65.2,0,.41,0,.61-.01.05.08.11.13.19.02,2.79,0,5.58,0,8.37,0,.08.11.14.06.19-.02.96.02,1.2.23,1.42,1.26-.1.04-.15.1-.09.21,0,7.31,0,14.62,0,21.93-.12.26-.02.38.25.38.04.43.33.48.69.47.69-.02,1.38-.09,2.06-.14,2-.14,4.01.06,6.02-.17,1.54-.18,3.09,0,4.65-.15,2.07-.2,4.17.04,6.26-.17,1.83-.19,3.69,0,5.54-.15,2.29-.18,4.61,0,6.91-.18,1.53-.11,3.07-.05,4.6-.01.75.02.99-.24.99-1.02-.03-6.92-.02-13.85-.01-20.77,0-.29.03-.58.05-.86.04-.53.27-.67.74-.63.05.08.11.13.19.02,2.95,0,5.9,0,8.85,0,.07.11.14.07.2-.01.28-.05.54-.04.78.13.16.12.32.23.47.35Zm-56.73,0c-.21-.25-.43-.22-.66-.02-.64-.01-1.28-.03-1.92-.04-.09-.13-.14-.05-.19.03-.43.02-.78.13-.79.65,0,.07.02.13.02.2v50.89c-.05.13,0,.18.13.17.29,0,.59.01.88.01.29,0,.56.05.73-.32.34-.75.73-1.49,1.11-2.24-1.26-.06-1.27-.06-1.27-1.31,0-.46.02-.91,0-1.37-.02-.67.25-1.01.96-.89.05.08.11.16.2.03,2.36,0,4.71,0,7.07,0,.09.13.14.05.2-.03.48-.04.93.04.79.66-.2.84-.24,1.65,0,2.48.08.3-.04.52-.39.56-.23.02-.48-.08-.72.11.25.62.5,1.25.75,1.88.07.17.12.34.33.42,1.06.4,2.11-.09,2.44-1.16.11-.35.37-.71.33-1.03-.07-.54-.74.04-.97-.36-.03-.07-.06-.14-.09-.21.02-.84.03-1.68.05-2.52.02-.18.03-.35.05-.53.16-.39.5-.33.81-.3.05.08.11.16.2.03,5.21,0,10.43,0,15.64,0,.11.11.16.07.16-.06.17-.31.56-.44.74-.27.44.44.94.32,1.43.33,4.99,0,9.98,0,14.97,0,.09.13.14.05.2-.03.69-.05.94.32.94.95,0,.43,0,.86,0,1.29q0,1.31-1.25,1.58c.16.39.37.77.45,1.17.19.96.74,1.32,1.68,1.15.1-.02.22-.02.32,0,.47.07.67-.11.84-.59.21-.58.37-1.18.57-1.75-.32-.21-.73.1-.99-.23,0-.18-.01-.35-.02-.53,0-.74,0-1.47,0-2.21,0-.07,0-.14,0-.21,0-.46.21-.64.7-.63,2.47.04,4.93.04,7.4.06.08.12.14.06.2-.02.76-.09.95.22.82.96-.09.57-.12,1.18.04,1.76.18.61-.23.8-.65.97-.21.08-.47-.06-.73.11.3.61.62,1.2.88,1.82.37.88,1.11.46,1.67.47.56,0,.37-.55.37-.89,0-16.71,0-33.42.01-50.13,0-.61-.16-.96-.81-.99-.07.03-.14.06-.2.09-.51,0-1.02,0-1.53,0-.3,0-.66-.04-.53.42.09.33-.36.92.46.92.59,0,.86.3.83.97-.06,1.61-.04,3.22-.03,4.83,0,.98-.11,1.13-1.14,1.13-1.69,0-3.38-.03-5.08.02-.65.02-1.01-.2-1.17-.8.09-.05.13-.12.07-.22,0-1.6,0-3.19,0-4.79.08-.18.06-.36.01-.54.08-.33.29-.72.61-.59,1.01.39.9-.23.89-.85,0-.16.07-.32.11-.52h-2.52c-.08-.13-.14-.05-.19.03-.15.08-.38-.11-.46.16.01.07.03.14.04.21,0,7.26,0,14.51,0,21.77-.07.11-.02.17.09.21-.19.41-.33.82-.92.81-1.04-.02-2.08.08-3.11.12-3.14.1-6.28-.02-9.41.19-1.47.1-2.93-.01-4.41.13-1.86.18-3.74,0-5.62.17-2.08.19-4.17,0-6.26.15-2.59.17-5.2.02-7.8.19-1.02.07-1.26-.23-1.26-1.26,0-7.3,0-14.59,0-21.89,0-.53-.05-.95-.65-1.08-.07.03-.14.06-.21.09-.59,0-1.18.01-1.78.02-.89,0-.37.67-.43,1.01-.07.37.16.56.61.43.55-.16.88.21.87.76-.04,1.69-.1,3.39,0,5.08.05.76-.26.98-.85.99-1.86.03-3.72.01-5.57.02-.5,0-.76-.25-.76-.72,0-1.88,0-3.77,0-5.65,0-.26.07-.58.34-.55,1.09.13.79-.6.78-1.16.17-.08.31-.23.52-.15.12.21.23.42.36.62.41.63,1.03.96,1.73.8.73-.17,1.51-.43,1.53-1.41-1.22,0-2.42,0-3.62,0Zm-.84,7.78c.22.24.5.13.76.13,1.34.01,2.68.02,4.02,0,.36,0,.75.13,1.08-.14.26-.18.12-.44.12-.66.01-1.59-.03-3.17.02-4.76.03-1.16-1.5-.16-1.54-1.18,0-.09-.18-.03-.25.05-.04.04-.07.09-.11.11-.91.45-1.79.7-2.72-.01-.66-.51-.92.87-1.64.45-.09-.05-.17.08-.18.2,0,.05,0,.11,0,.16,0,1.75.01,3.5,0,5.24,0,.36.21.37.46.4Zm55.01-.03c.27-.08.16-.22.05-.35,0-1.76,0-3.52,0-5.28.14-.09.05-.15-.04-.2-.38-.26-1.02-.03-1.2-.7-.06-.22-.23,0-.36.09-.92.6-1.84.69-2.78.02-.1-.07-.34-.42-.51-.06-.24.52-.67.56-1.13.51-.39-.04-.52.1-.51.49.02,1.69.02,3.38,0,5.07,0,.38.18.44.47.46.39.27.83.13,1.24.12,1.54-.04,3.09.15,4.63-.1.05,0,.1-.03.14-.06Zm-1.15-7.77h-3.59c.18.96.95,1.37,1.68,1.45.85.09,1.61-.52,1.91-1.45Z"/>
    <path class="cls-5" d="m46.31,64.88c-.56-.08-.8-.42-.8-.97,0-5.63,0-11.25,0-16.88,0-.66.14-.96.96-.77.67.16,1.42.07,2.15-.03.95-.12,1.93-.07,2.89-.09,3.46-.05,6.92-.12,10.38-.21,1.9-.05,3.81.05,5.7-.13,3.39-.31,6.79-.3,10.18-.33.53,0,1.09-.31,1.37.41.03.07,0,.16,0,.24-.1.04-.15.1-.09.21,0,5.8,0,11.61,0,17.41-.06.11,0,.17.09.21.12.5-.19.7-.59.84-.21-.02-.43-.06-.64-.06-10.31,0-20.61,0-30.92,0-.23,0-.49-.11-.67.14Zm-.45-17.94c0,5.72,0,11.45,0,17.17.22.54.69.31,1.05.31,10.13.01,20.26.01,30.39.01.24,0,.49-.03.73,0,.49.04.66-.17.66-.66-.01-5.82-.01-11.64,0-17.46,0-.39-.12-.5-.5-.49-1.99.02-3.99,0-5.98,0-.39,0-.71.09-.89.48-.23.51-.7.47-.93.15-.25-.34-.51-.32-.81-.31-2.25.08-4.5-.11-6.75.13-1.78.19-3.58.1-5.38.14-3.22.07-6.44.2-9.66.21-.54,0-1.08,0-1.62,0-.23,0-.36.06-.31.32Z"/>
    <path class="cls-5" d="m89.52,43.26c.7-.12.96.19.95.89-.01,6.57-.01,13.13,0,19.7,0,.43-.14.7-.48.92-2.99-.01-5.99-.02-8.98-.03-.16,0-.33-.02-.43.14-.68-.09-.8-.55-.8-1.14,0-4.46,0-8.93,0-13.39,0-1.42.04-2.85-.01-4.27-.03-.72.28-.93.93-.91,1.12.03,1.85-.54,2.34-1.51.15-.29.41-.44.79-.43,1.83.04,3.65.04,5.48.05.08.11.14.08.2-.01Zm-5.98.64c-.51,1.09-1.35,1.75-2.57,1.74-.66,0-.85.15-.84.84.03,5.71.03,11.42,0,17.14,0,.65.17.84.81.83,2.8-.03,5.6,0,8.41-.02.22,0,.49.12.66-.15.09-.05.18-.1.04-.2,0-6.67,0-13.33,0-20,.02-.07.05-.14.07-.21-.03-.15-.13-.22-.27-.27-.07.03-.14.06-.21.08-1.99.01-3.98.02-5.97.03-.12.01-.15.08-.13.19Z"/>
    <path class="cls-5" d="m35.35,43.27c1.66,0,3.31,0,4.97,0,.09.13.14.05.19-.03.69-.13.9.28.96.85.18,1.5,1.19,2.27,2.69,2.07.51-.07.83.23.85.78-.12.09-.19.2-.11.36,0,2.63,0,5.25,0,7.88-.05.1-.02.17.09.21.14.42-.17.6-.43.81-.07.04-.13.07-.2.11-3.09,0-6.18,0-9.27.01-.61,0-.93-.23-.93-.89.01-3.76.02-7.52,0-11.28,0-.75.24-1.05.98-.88.06.09.12.13.2.02Zm5.13.41c-1.87,0-3.74,0-5.61-.01-.09-.14-.15-.11-.2.03-.04.09-.13.18-.13.27,0,3.8,0,7.59-.02,11.39,0,.4.17.51.53.51,3.02,0,6.03,0,9.05.02.33,0,.46-.1.46-.47-.02-2.77-.01-5.55,0-8.32,0-.33-.06-.46-.43-.48-2.05-.13-2.61-.61-3.13-2.66-.06-.22-.16-.24-.32-.25-.05-.08-.11-.14-.19-.02Z"/>
    <path class="cls-5" d="m83.18,30.12c.03-.43.31-.48.67-.48,1.94.01,3.87.02,5.81,0,.57,0,.82.21.82.81-.02,3.47-.02,6.94-.03,10.41,0,.13,0,.27,0,.4.08,1.14.06,1.15-1.08,1.15-1.8,0-3.61-.02-5.41,0-.6,0-.88-.22-.91-.8.1-.04.15-.1.08-.21,0-3.64,0-7.29,0-10.93.01-.12.02-.25.04-.37Zm6.67-.12c-.07.02-.14.04-.21.06-1.97,0-3.94,0-5.91-.01-.11-.04-.16,0-.18.12,0,3.76-.01,7.52-.03,11.28,0,.48.14.65.65.65,1.83-.03,3.65-.01,5.48-.01.15.05.3.09.33-.14.01-.05.02-.09.03-.14.09-.05.17-.11.04-.2,0-3.7,0-7.4,0-11.1l.07-.21c-.04-.15-.12-.25-.28-.28Z"/>
    <path class="cls-5" d="m37.78,29.64c.94,0,1.89,0,2.83,0,.66,0,.92.26.75.92-.05.18-.02.37-.02.56,0,3.45.01,6.9.03,10.35,0,.66-.26.97-.96.96-1.78-.03-3.56,0-5.34-.01-.73,0-.92-.31-.89-1.06.04-1.16.01-2.32.01-3.48,0-2.45.02-4.9-.01-7.36-.01-.72.23-.94.94-.89.88.07,1.78.02,2.67.02,0,0,0,0,0-.01Zm2.87,12.42c.11.05.17,0,.2-.1.04-.06.12-.12.12-.18,0-3.78,0-7.56.02-11.33,0-.25-.09-.33-.31-.34-.88-.29-1.79-.13-2.69-.12-1.11,0-2.23-.17-3.33.1-.03.04-.1.08-.1.12-.01,3.79-.02,7.58-.03,11.37,0,.43.22.51.62.5,1.83-.03,3.66-.02,5.48-.02Z"/>
    <path class="cls-5" d="m44.09,56.86c.65-.16.89.17.93.76-.14.09-.18.2-.11.36,0,1.92,0,3.85,0,5.77-.06.11,0,.17.09.21.12.42-.14.62-.45.8-3.07,0-6.14-.02-9.21-.02-.18,0-.38-.06-.51.14-.73.17-.79-.51-.75-.82.24-2.11.04-4.22.09-6.32.01-.72.2-1.08.98-.87.12.14.29.11.45.11,2.68,0,5.37,0,8.05,0,.16,0,.33.03.44-.12Zm-4.47.43h0c-1.51,0-3.02.02-4.52,0-.41,0-.57.1-.57.54.02,1.99.01,3.99,0,5.98,0,.37.06.63.51.63,2.99,0,5.98,0,8.97,0,.36,0,.54-.15.54-.53,0-2.1,0-4.2,0-6.3,0-.34-.12-.33-.41-.33-1.51.03-3.02.01-4.52.01Z"/>
  </g>
  <text class="cls-1" transform="translate(57.52 89.54)"><tspan x="0" y="0">T60-KB</tspan></text>
  <text class="cls-2" transform="translate(51.87 15)"><tspan x="0" y="0">60mm</tspan></text>
  <text class="cls-2" transform="translate(93.83 47.65)"><tspan x="0" y="0">52mm</tspan></text>
</svg>