<?xml version="1.0" encoding="UTF-8"?>
<svg id="P60WKS" xmlns="http://www.w3.org/2000/svg" viewBox="0 0 150 100">
  <defs>
    <style>
      .cls-1 {
        stroke-width: .09px;
      }

      .cls-1, .cls-2, .cls-3, .cls-4, .cls-5, .cls-6 {
        fill: none;
        stroke: #000;
        stroke-miterlimit: 10;
      }

      .cls-7 {
        font-size: 12px;
      }

      .cls-7, .cls-8 {
        font-family: MyriadPro-Regular, 'Myriad Pro';
      }

      .cls-7, .cls-9 {
        fill: #231f20;
      }

      .cls-2 {
        stroke-width: .09px;
      }

      .cls-3 {
        stroke-width: .12px;
      }

      .cls-4 {
        stroke-width: .14px;
      }

      .cls-5 {
        stroke-width: .13px;
      }

      .cls-8 {
        fill: #010101;
        font-size: 6.46px;
      }

      .cls-6 {
        stroke-width: .12px;
      }
    </style>
  </defs>
  <g>
    <path class="cls-9" d="m93.15,27.69c-.02-.17-.03-.35-.04-.53-.19-.46-.45-.9-.43-1.42-.2-.69-.41-1.38-.6-2.08-.11-.41-.22-.83-.34-1.24-.31-1-.47-2.05-.93-3.01-.03-.06-.01-.11.04-.14-.18-.27-.47-.37-.75-.48-.05,0-.09,0-.14,0-.47-.1-.94-.02-1.41-.05-.1,0-.23.07-.29-.08-.05,0-.1,0-.14,0-.13.12-.27.11-.4,0l-.21-.02c-.23.03-.45.06-.68,0-.07,0-.14,0-.21,0-.4.01-.79.12-1.19.07-.08,0-.19.05-.22-.08-.05,0-.1,0-.15.01-.27.12-.54.14-.81,0-.05,0-.09,0-.14,0h-.08s-.09.01-.13.02c-.11.16-.18.03-.27-.02-.04,0-.09,0-.13.01-.05,0-.1,0-.15,0-.07,0-.14,0-.2,0-.24.14-.49.12-.74.01-.09,0-.18,0-.27,0-.02,0-.05,0-.07,0-.05,0-.09,0-.14-.01-.22.04-.45.05-.68,0-.05,0-.09,0-.14,0-1.06.05-2.12.04-3.19.01-.05,0-.1,0-.15,0-.41.06-.81,0-1.22-.01-.14,0-.27,0-.41,0-.34.04-.67.05-1.01.02-.05,0-.1-.01-.15-.02-.02,0-.04,0-.07,0-.11,0-.23,0-.34,0-.02,0-.04,0-.06,0-.14,0-.28,0-.41,0-.63.04-1.26.05-1.89,0-.07,0-.14,0-.21,0-.2,0-.4.07-.6,0-.05,0-.09,0-.14,0-.07.04-.13.04-.2,0-.05,0-.09,0-.14,0-.13.06-.27.04-.4,0-.05,0-.09,0-.14,0-.73.06-1.46.05-2.19.05-.86,0-1.71-.05-2.56.02-.93.07-1.85-.05-2.78,0-.97,0-1.94.02-2.91.03-.05.05-.1.05-.15,0-.09,0-.18-.01-.28-.02-.13.1-.27.02-.4.01-.16,0-.32.01-.48.02-.16,0-.31.05-.47-.02h-.41c-.29.08-.59.05-.88,0-.3,0-.59.01-.89.02-.07.03-.13.03-.2,0-.07,0-.14,0-.21,0-.48.04-.95.02-1.43,0-.11,0-.23,0-.34,0-.07.03-.13.02-.2,0h-.14c-.11.04-.22.04-.33,0-.05,0-.09,0-.14,0h-.13c-.16,0-.32,0-.48,0-.04,0-.09,0-.13,0-.07,0-.14,0-.21,0-.2.03-.4.03-.6,0-.05,0-.09,0-.14,0-.02,0-.04,0-.07,0-.22.22-.41-.02-.62-.02-.27.16-.56.04-.84.05-1.13.02-2.27.03-3.4.05-.1,0-.2,0-.3-.01-.22,0-.45,0-.67,0-.07,0-.14,0-.2,0-.16,0-.32,0-.47,0-.22.09-.45.16-.68.02-.55,0-1.1-.03-1.64.13-.25.23-.49.45-.74.68-.13.53-.16,1.08-.17,1.62,0,.21.08.42-.05.62,0,.13,0,.27-.01.4.02.06.04.12-.04.15,0,.18-.01.36-.02.54-.06.83-.1,1.65-.17,2.48-.04.53-.22,1.05-.17,1.59,0,.09.06.2-.05.28-.03.35.04.71-.16,1.04-.03.04.05.09.1.11.61,0,1.22,0,1.83,0,.74-.24.81-.35.73-1.08-.14-.03-.27-.08-.42-.08-.5,0-.66-.23-.48-.72.02-.07.04-.16.13-.18,0,0,.02-.02.02-.02.02-.05.05-.1.11-.12,0-.02.01-.03.03-.03.02-.08.09-.09.15-.09.14-.19.34-.26.55-.34.45-.29.93-.27,1.42-.14.48.07.83.35,1.16.68.13.05.14.16.13.28.09.05.04.14.07.2.08.02.06.08.05.14,0,.04,0,.08,0,.12-.08.18-.25.14-.4.14-.22,0-.42,0-.6.14-.11.49.14.8.53,1.02,1.2,0,2.4,0,3.6,0,.98,0,1.96-.02,2.94-.02.63,0,1.26.02,1.89.02.04,0,.06.01.05.06,0,.58.01,1.17.02,1.75,0,.29.07.55.34.71.4.04.8-.08,1.2.06.18.16.08.38.1.57.03.25-.02.52.2.71.43,0,.86.04,1.29-.06.16,0,.14-.11.14-.21,0-.25,0-.49,0-.74,0-.15.02-.27.2-.29.29-.12.59-.02.89-.05.67-.07,1.35,0,2.02,0,.07,0,.16-.03.21.06.36-.1.72-.06,1.08-.05.09,0,.07.07.07.12.02,1.47.02,2.94-.01,4.41,0,.03,0,.05,0,.08,0,.09,0,.18,0,.26-.01.08.06.12.12.16.04,0,.08.03.11.05.03.03.05.06.06.1,0,.02,0,.04,0,.06,0,.03,0,.06-.02.09,0,.03-.02.05-.05.07-.02.02-.04.04-.07.05-.03.01-.05.02-.09.02h0s-.03.01-.05.02c0,0,0,0,0,0,0,.02-.01.05-.02.07,0,.07,0,.13,0,.2,0,.05,0,.1,0,.15,0,.16,0,.31,0,.47,0,.12,0,.23,0,.35,0,.2,0,.4,0,.6,0,.03,0,.05,0,.08,0,.25,0,.49,0,.74,0,.05,0,.1,0,.15,0,.27,0,.54,0,.81,0,.03,0,.05,0,.08,0,.06,0,.13,0,.19,0,.03,0,.05-.01.08,0,.11,0,.22,0,.33,0,.03,0,.05,0,.08,0,.09,0,.17,0,.26.07.29-.03.41-.34.41-.98-.01-1.96-.03-2.94,0-.26,0-.52-.01-.78-.01-.25,0-.34-.09-.39-.34-.07-.31,0-.63-.06-.93,0,0,0,0,0,0-.11-.03-.25.06-.34-.08-.07,0-.14,0-.21,0-.26.15-.55.04-.82.06-.1,0-.14.06-.15.15,0,.13-.02.27,0,.4.04.38.05.75-.41.9.1.12.2.13.3.14.31-.12.45-.34.42-.67,0-.09,0-.18,0-.27-.04-.26.03-.41.33-.35.04,0,.09,0,.13,0,.2-.16.37-.16.52.07,0,.25,0,.49,0,.74,0,.05.01.1.02.14.06.26.26.33.49.36,1.25-.01,2.49-.06,3.74,0,.04,0,.09,0,.13,0,.11,0,.23,0,.34,0,.14-.08.33-.12.29-.34-.01-.05.02-.07.06-.07.02-.23.03-.46.05-.68-.03-.04-.05-.08-.02-.13,0-.05.01-.09.02-.14,0-.01-.01-.03-.02-.04,0,0,0-.02,0-.02,0-.07,0-.14,0-.21-.22-.1.05-.16.02-.25-.02-.13-.03-.25-.05-.38l.03-.18c-.16-.12-.13-.23.03-.33-.03-.38-.05-.77-.01-1.15,0-.02,0-.05,0-.07,0-.31,0-.63-.01-.94-.03-.11-.08-.23.08-.28h0c.05-.15.25-.22.2-.41-.07-.11-.14-.22-.21-.33-.18-.11-.1-.27-.08-.42,0-.06,0-.12.01-.19-.08-.66-.03-1.33-.01-2,0-.11,0-.22,0-.32,0-.02,0-.05,0-.07,0-.05,0-.09,0-.14,0-.02-.01-.04-.01-.06,0,0,.02-.01.02-.02,0-.45,0-.9,0-1.35,0-.02,0-.05,0-.07-.11-.23-.19-.5-.54-.43-.47,0-.94-.15-1.43,0-.21.06-.46.04-.67-.11-.05.01-.1.02-.15.04-.25,0-.5,0-.74,0-.05,0-.09,0-.14,0-.05,0-.09,0-.14,0-.16,0-.31.02-.47,0-.73-.06-.88.26-.84.82v.21c0,.06,0,.13,0,.19,0,.17-.13.12-.22.12-.19,0-.38,0-.57,0-.12,0-.24-.02-.18-.19,0-.22-.02-.45-.02-.67,0-.16-.06-.28-.2-.35-.04,0-.07-.01-.07-.05-.03-.02-.05-.04-.08-.06-.4-.03-.81.09-1.2-.08-.14-.19-.04-.41-.07-.62,0-.01-.02-.02-.03-.04,0,0,.01-.01.02-.02,0-.2,0-.41,0-.61,0-.02-.02-.03-.02-.05,0,0,.01-.01.02-.02,0-.07,0-.14-.01-.2-.02-.03-.02-.06.02-.08,0-.04,0-.08,0-.13-.01-.03-.03-.05-.04-.08,0-.22-.05-.42-.15-.61-1.83-.06-3.66,0-5.48.02-.91.01-1.82-.05-2.73,0-.45.02-.61-.13-.64-.46,0-.11.05-.07.09-.07.15-.01.32,0,.46-.04.42-.13.49-.29.39-.74-.02-.08-.02-.17-.03-.26-.18-.27-.28-.58-.59-.76-.14-.08-.36-.06-.43-.26-.13-.22-.38-.11-.55-.21-.39,0-.78,0-1.16,0-1.09.4-1.51.63-1.7,1.76-.03.2.17.48.38.51.1.01.2,0,.3,0,.12.03.31-.13.33.13.02.2-.26.45-.49.46-.29,0-.59,0-.88,0-.07,0-.14-.01-.2,0-.12,0-.26.16-.35-.02-.08-.17-.09-.35.04-.51.12-1.09.1-2.18.26-3.26.05-.32.02-.64.07-.97.06-.51.06-1.03.08-1.54-.09-.03-.06-.11-.06-.17.06-.56.1-1.12.19-1.67.02-.15.11-.31.26-.4.22-.25.45-.5.83-.47.25-.13.52-.05.79-.05.53,0,1.05-.01,1.58-.01.09,0,.2-.05.28.05.18,0,.35,0,.53,0,.32-.14.65-.05.98-.06.64-.02,1.28,0,1.92-.02.17,0,.31.02.45.11.61,0,1.22-.01,1.83-.02.09,0,.15.05.21.09-.02-.16.09-.15.19-.15.25,0,.5,0,.75,0,.63-.02,1.26-.11,1.89.01l.02.02c.07,0,.14,0,.21,0,.14,0,.27,0,.41-.01.18-.14.39-.05.59-.05,1.32-.02,2.64-.03,3.96-.04.07,0,.13.02.2.02.7,0,1.4-.01,2.1-.02.68-.08,1.36-.03,2.04-.04.23,0,.46-.05.68.05.23,0,.45,0,.68,0,.21-.12.43-.06.65-.06.42,0,.83,0,1.25.01.39,0,.78-.03,1.16.03.3.04.61.03.89,0,.52-.06,1.03-.03,1.55-.03,1.92,0,3.84,0,5.76,0,1.52,0,3.03-.01,4.55-.02,2.13,0,4.27,0,6.4,0,.58,0,1.15-.03,1.73-.01.5.01,1.01.06,1.35.52.23.31.28.69.38,1.05.24.86.47,1.72.74,2.57.19.61.32,1.24.48,1.86.2.77.4,1.53.62,2.3.05.17.05.33.08.49.11.09.26.23,0,.26-.46.04-.92.05-1.38-.03-.07-.01-.2-.01-.18-.15h0c-.1,0-.14-.05-.12-.15,0-.08-.05-.19.11-.19.09,0,.18,0,.27,0,.36-.03.48-.18.51-.52.06-.78-.33-1.22-1.01-1.56-.48-.23-.95-.25-1.45-.26-.39.04-.72.24-1.08.36-.03.02-.06.04-.08.06,0,.04-.02.06-.06.06h-.01c-.01.07-.07.08-.12.08h0s-.02.08-.07.06c-.38.31-.5.74-.54,1.19-.03.3.16.45.48.45.11,0,.22,0,.34,0,.2.01.23.1.12.26-.08.35-.36.42-.64.4-1.67-.11-3.33-.06-5-.03-.81.01-1.62-.12-2.43.03-.17.03-.29-.07-.21-.27,0-.06,0-.11,0-.17,0-.2-.16-.24-.31-.29-.3-.09-.61-.18-.91-.27-.09-.01-.19-.02-.27-.08-.26-.1-.54-.14-.82-.16-.11.03-.21.07-.33.08-.03,0-.05,0-.08,0,.03,0-.04,0-.04,0-.03.01-.03.01-.01,0-.01,0-.02.01-.03.02-.03.01-.05.03-.08.04-.01,0-.02,0-.03,0-.09.09-.24.08-.33.16-.03.18-.19.33-.15.54.03.06,0,.1-.03.15.02.05.02.11.02.17,0,0,0,0,0,0,0,0,0,0,0,0,0,.03,0,.05,0,.08,0,.02-.02.05-.02.08,0,0,0,0,0,0,0,0,0,.01,0,.02,0,.03,0,.06-.01.09,0,0,0,0,0,0,0,.05,0,.11,0,.16,0,.01,0,.03,0,.04,0,.04,0,.09,0,.14-.02.28-.1.55-.06.83.04.01.06.03.05.08,0,.09,0,.18,0,.26,0,.05,0,.1,0,.14,0,.47,0,.95,0,1.42.05.11.03.23,0,.35,0,.04,0,.09,0,.13,0,.03,0,.05,0,.08,0,.68.05,1.35-.02,2.03.03.07.03.14,0,.21,0,.04,0,.08,0,.13,0,.03,0,.05,0,.08,0,.04,0,.08,0,.13,0,.03,0,.05,0,.08,0,.06,0,.13,0,.19,0,.03,0,.05,0,.08,0,.25,0,.49,0,.74,0,.03,0,.05,0,.08,0,.07-.01.13-.02.2v.21c0,.2,0,.4,0,.6.04.12.02.23,0,.35,0,.2,0,.4,0,.6,0,.03,0,.05,0,.08,0,.06,0,.13,0,.19,0,.03,0,.05,0,.08,0,.81,0,1.62,0,2.44v.08s0,.13,0,.13c0,.12,0,.23,0,.35,0,.09,0,.17,0,.26,0,.03,0,.05,0,.08v.33s0,.05,0,.08c0,.13,0,.27,0,.4,0,.03,0,.05,0,.08,0,.32.03.63-.02.95.04.07.04.13.01.2,0,.04,0,.09,0,.13.04.07.03.14,0,.21,0,.07-.01.14-.02.21.04.04.04.08.02.13,0,.16,0,.31,0,.47,0,.02,0,.04,0,.05,0,0-.02,0-.03.01,0,.1,0,.19,0,.29,0,.05,0,.09.01.14,0,.07,0,.13,0,.2,0,.02.02.03.02.05,0,0-.01.01-.02.02,0,.11.01.22.02.34.04.07.04.13,0,.2,0,.16,0,.32,0,.48.05.09.07.18-.01.27,0,.04,0,.09,0,.13.04.07.03.14,0,.21,0,.09,0,.18,0,.27,0,.02,0,.05,0,.07,0,.25,0,.5.01.74.04.07.01.14-.02.21,0,.4.01.81.02,1.21.01.02.02.03.03.05,0,0-.01.02-.02.02,0,.04,0,.08,0,.12,0,.23.02.47.03.7.14.83.58,1.16,1.32,1.3.57-.03,1.13-.03,1.7,0,.28-.15.39-.39.35-.69-.04-.33.18-.26.36-.26.18,0,.36-.05.33.26-.03.36,0,.73,0,1.1.04.06.03.13,0,.2l-.03.14c0,.07,0,.14,0,.21,0,.04,0,.09,0,.13,0,.09.06.2-.05.27h0s-.06.07-.06.07h0c0,.09-.04.14-.13.14-.07.12-.16.21-.27.27-.1.14-.22.07-.34.05-.11,0-.22,0-.34,0h-.34c-.09,0-.18,0-.28.01-.32.04-.4-.16-.45-.42-.03-.03-.06-.05-.09-.08-.07-.03-.16-.03-.21-.11-.34.02-.69-.09-1.04.03-.37.12-.42.41-.46.72-.03.2-.01.41-.02.61,0,.09,0,.19,0,.28,0,.13,0,.27,0,.4,0,.23,0,.46,0,.69,0,.16,0,.31,0,.47,0,.05,0,.1,0,.14,0,.07,0,.13,0,.2,0,.14,0,.28,0,.41.05.69.32.9,1,.96.67.06,1.18-.15,1.57-.68.06-.08.16-.13.21-.22.34-.55.87-.39,1.36-.39.08,0,.06.07.08.12.03.01.06.03.05.07v1.89c.06.18-.06.22-.2.22-1.15,0-2.3-.01-3.45-.02-.07,0-.14,0-.21,0-.25.04-.5.02-.74,0-.05,0-.09.01-.14.02-.11.1-.23.1-.34,0-.05,0-.09,0-.14,0-.18.1-.36.1-.54,0-.07,0-.14,0-.21,0-.09.1-.18.1-.27,0-.2,0-.41-.02-.61-.02-.25.04-.5.04-.74,0-.07,0-.14,0-.21,0h-.61s-.28,0-.28,0c-.97.08-1.94,0-2.92,0-.05,0-.09,0-.14,0-.16.04-.32.03-.47,0-.2,0-.41,0-.61,0-.09,0-.18,0-.27,0-.23-.09-.45-.03-.67,0-.02,0-.05,0-.07,0-.07,0-.13,0-.2,0-.09.03-.18.03-.27,0h-.54c-.09.02-.18.05-.27,0-.14,0-.27,0-.41,0-.22.04-.45.02-.67,0-.07,0-.14,0-.21,0-1.15.05-2.31,0-3.46.01-.59,0-1.18-.03-1.78.04-.27.03-.59,0-.88-.06-.09,0-.18,0-.27,0-.16.03-.31.04-.47,0-.11,0-.23,0-.34,0-.02,0-.05,0-.07,0-.09,0-.18,0-.27,0h-.07s-.09,0-.14,0c-.04,0-.09,0-.13,0h-.14s-.09.03-.13,0h-.34s-.09,0-.14,0c-.05,0-.09,0-.14,0-.3,0-.6.15-.91.02-.08-.03-.14-.05-.15-.15,0-.99,0-1.98,0-2.97v-.14s0-.13,0-.13c0-.05,0-.1,0-.14v-.33c.02-.2-.22-.41,0-.61,0-.14,0-.28,0-.42-.14-.32-.12-.63.02-.95-.04-.09-.04-.18-.02-.27v-.08c0-.13,0-.26,0-.4,0-.03,0-.05,0-.08,0-.11,0-.22,0-.33,0-.05,0-.1,0-.14,0-.16,0-.31,0-.47v-.08c0-.11,0-.22,0-.33,0-.03,0-.05,0-.08,0-.56,0-1.12.01-1.69v-.07c0-.11,0-.22,0-.34,0-.05,0-.09,0-.14,0-.18-.01-.36-.02-.54l.03-.13s-.03-.1-.04-.14c-.12-.09-.12-.18.02-.26,0-.05,0-.09,0-.14,0-.03,0-.05,0-.08,0-.27.01-.54.02-.81,0-.03,0-.05,0-.08,0-.29,0-.58-.01-.88,0-.04.02-.09.03-.13l-.03-.68s0-.05,0-.08c0-.22,0-.45,0-.67,0-.03,0-.05,0-.08,0-.5,0-.99.01-1.49,0-.02-.01-.04-.01-.06,0,0,.01-.01.02-.02.02-.11-.05-.25.11-.32.15-.11.32-.06.49-.07.08,0,.16-.05.16-.14,0-.09-.1-.09-.16-.08-.14.02-.26-.07-.39-.07,0,0,0,.01,0,.01,0,.04-.02.06-.06.05-.32,0-.46.15-.46.46,0,.84-.02,1.69-.04,2.53,0,.05,0,.1,0,.16.04.22.05.44.02.66,0,.03,0,.05,0,.08,0,1.97,0,3.93,0,5.9.02.09.06.18.01.27,0,.36-.01.72-.02,1.08,0,.03,0,.05,0,.08,0,.36,0,.72,0,1.08,0,.05,0,.09.01.14,0,.34,0,.68-.01,1.01,0,.07,0,.14,0,.21,0,.27,0,.54,0,.81,0,.05,0,.1,0,.14,0,.34,0,.67,0,1.01.05.21.02.41,0,.62,0,.06,0,.13,0,.19,0,.03,0,.05,0,.08,0,.07-.02.13-.03.2.04.07.04.14.02.21,0,.09.02.18.03.27.08.11.19.19.21.33.07,0,.13,0,.2,0,.36-.07.72-.06,1.08,0,.75,0,1.5,0,2.25,0,.01-.04.03-.06.07-.04.04,0,.09,0,.13,0,.29,0,.59-.08.88.04.61,0,1.23,0,1.84,0,.03-.06.08-.06.13-.03.09,0,.18,0,.27,0,.02,0,.05,0,.07,0,.07,0,.14,0,.2-.01.16-.02.32-.07.48.03.04,0,.09,0,.13,0,.46-.13.94-.04,1.4-.05.89-.02,1.78.05,2.67-.01.4-.03.81,0,1.22-.04.36-.04.73.08,1.1.07.05,0,.1,0,.15,0h1.21s.09,0,.13,0c.02,0,.05,0,.07,0,.05,0,.09,0,.14,0,.83,0,1.65-.01,2.48-.02.05,0,.1.03.15.05.05,0,.1,0,.16,0,.32-.14.65-.04.97-.05,2.03-.01,4.05,0,6.08,0,.09,0,.18-.03.26.04.23,0,.47.02.7-.06.15-.09-.03-.2.02-.29,0-.16,0-.31,0-.47-.02-.12-.04-.23,0-.35,0-.16,0-.31.01-.47-.04-.16-.04-.32,0-.48,0-.04-.01-.09-.02-.13,0-.05,0-.1,0-.14-.11-.33-.27-.59-.67-.61-.44-.02-.86-.07-1.19.34-.26.32-.59.59-.88.88-.38.24-.79.12-1.19.11-.14,0-.26-.13-.23-.31,0,0,0,0,0,0-.09-.05-.1-.13-.08-.22,0-.06,0-.13,0-.19-.06-.13-.05-.27-.01-.41,0-.09,0-.18,0-.27-.03-.07-.04-.14,0-.21,0-.04,0-.09,0-.13-.02-.05-.03-.11.02-.15,0-.11-.02-.22-.03-.33,0-.09,0-.19,0-.28,0-.04,0-.09,0-.13,0-.16-.01-.32-.02-.48,0-.18-.04-.36-.01-.54.03-.25.03-.54.35-.65.43-.15.81,0,1.03.38.04.08.11.14.17.2.47-.08.93.05,1.4,0,.14-.01.29,0,.44,0,.3-.16.43-.5.69-.7.01-.02.02-.05.03-.07,0-.04,0-.09,0-.13,0-.02,0-.05.01-.07v-.13s0-.05,0-.07c0-.13,0-.27,0-.4-.01-.25-.05-.5.02-.75-.02-.16-.04-.32,0-.48,0-.02,0-.05,0-.07,0-.04,0-.09,0-.13-.03-.07-.02-.14,0-.21-.02-.1-.08-.17-.18-.21-.32,0-.64,0-.96,0-.05.02-.05.06-.07.1-.15.25.02.55-.13.8-.52.11-1.04.04-1.56.04-.4.01-.98-.4-1.08-.77-.14-.53-.09-1.06-.08-1.6.04-1.26.02-2.52.02-3.79-.14-.25-.1-.5-.02-.75,0-.09.02-.18.03-.27,0-.03,0-.05,0-.08,0-.61,0-1.22,0-1.82v-.08s0-.4,0-.4v-.08s0-.1-.02-.15l-.05-.02s.04-.01.05-.02c0-.03.01-.06.02-.08-.13-.11-.14-.22,0-.33,0-1.27,0-2.54,0-3.8,0-.07,0-.14,0-.21,0-.47,0-.95,0-1.42-.03-.06-.04-.1.03-.13,0-.02,0-.05,0-.07-.11-.1-.06-.23-.04-.35,0-.42,0-.85,0-1.27,0-.03,0-.05,0-.08,0-.18,0-.36,0-.54-.03-.07-.03-.14,0-.21,0-.18,0-.36,0-.54,0-.03,0-.05,0-.08,0-.11,0-.22,0-.33v-.08c0-.61,0-1.22,0-1.82,0-.02,0-.05.01-.07,0-.09-.01-.18-.02-.27,0-.03,0-.05,0-.08-.04-.19.06-.39-.02-.58,0-.19,0-.38,0-.58,0-.04,0-.06,0-.09,0-.01,0-.03-.01-.04,0-.04-.01-.08-.01-.12,0-.06,0-.12,0-.17,0-.04.01-.08.03-.11,0-.02,0-.04,0-.07.21-.68.65-.8,1.31-.69.47.08.86.36,1.35.4.29.02.14.31.16.49,0,.2.13.22.3.22,1.1,0,2.2,0,3.3,0,.06,0,.11,0,.15.06.07,0,.14,0,.22,0,.46-.13.93-.05,1.4-.06,1-.02,2,0,3,0,0,0,.02-.02.02-.02,0-.04.02-.06.06-.05.38-.04.46-.33.55-.62-.02-.41-.12-.5-.51-.5-.49,0-.58-.19-.32-.66,0-.12.06-.21.14-.29.78-.81,1.91-.89,2.86-.35.41.23.69.6.65,1.12,0,.24-.2.19-.33.2-.17.03-.35,0-.53.01-.26.56.07,1.1.67,1.17.52-.05,1.05.06,1.57-.07h.06c0-.17.01-.33.03-.5,0-.03-.02-.05-.02-.09Z"/>
    <path class="cls-9" d="m77.01,20.52s0-.1,0-.14c-.01-.02-.02-.04-.03-.06-.04,0-.06-.03-.06-.07h0c-.18-.16-.4-.19-.62-.19-1.12-.01-2.25-.01-3.37-.03-.11,0-.24.19-.35-.01-.06-.01-.13-.02-.19-.03-.55.07-1.09.1-1.64.03h-.21c-.47.04-.95.06-1.42.01-.05,0-.09,0-.14,0-.2.06-.41.02-.61,0-.05,0-.09,0-.14,0-.63.04-1.26.06-1.9.01-.05,0-.09,0-.14-.01-.54.07-1.08.09-1.61.05-.34-.02-.63.16-.96.09-.28.32-.21.71-.2,1.09.04.01.07.03.05.08,0,.58.01,1.17.02,1.75.01.02.03.03.03.05,0,0,0,.02-.01.03,0,.13-.01.27-.02.4,0,.02.01.03.02.05,0,0,0,.02,0,.03,0,.34.01.67.02,1.01v.21c0,.41.05.81-.02,1.22,0,.03,0,.05.01.08,0,.18,0,.36,0,.53,0,.03,0,.05,0,.08,0,.04,0,.09,0,.13,0,.03,0,.05,0,.08,0,.04,0,.08,0,.13,0,.05,0,.1.01.14,0,.07,0,.15.01.22.02,0,.04,0,.05.01-.02,0-.04.01-.05.02,0,.12-.01.24-.02.36,0,.07,0,.14.01.21.03.45.12.52.57.53,1.06,0,2.12.02,3.17.03.09,0,.19,0,.28,0,.25-.02.5,0,.74-.07,1.31,0,2.62,0,3.93,0,.94,0,1.88,0,2.82,0,.1,0,.2.02.3.03.14-.1.29-.16.44-.2,0,0,0-.02,0-.03,0-.04,0-.08,0-.12,0-.02,0-.05,0-.07,0-.01,0-.07,0-.02,0,0,0-.01,0-.02,0-.02,0-.06-.01-.08-.06-.38.07-.73.23-1.06.06-.12.11-.2.17-.24.01-.02.02-.04.04-.06.02-.02.04-.03.06-.05.02-.03.05-.07.07-.09.03-.03.07-.06.11-.08,0-.04.05-.09.13-.15.17-.13.36-.23.47-.43,0-.02.02-.05.03-.07,0-.07.02-.13.03-.2,0-.02-.01-.03-.02-.05,0,0,0-.02,0-.03-.01-.23-.02-.46-.03-.7-.02,0-.04,0-.05-.01.02,0,.04,0,.05-.01,0-.14.01-.28.02-.42-.04-.07-.03-.14,0-.21,0-.52-.01-1.04-.02-1.56-.13-.2-.07-.41-.04-.62,0-.11,0-.22,0-.33,0-.34-.06-.68,0-1.02,0-.04,0-.09,0-.13Zm-.28,5.24c-.26.21-.49.45-.78.62-.04.12-.09.23-.18.33,0,0,0,.01,0,.02-.23.33-.3.72-.32,1.12,0,.03,0,.05,0,.08v.12c-.03.15-.18.21-.27.2-.81-.13-1.62.03-2.43-.07h-.13c-.2.15-.43.07-.65.08-.79.03-1.59-.06-2.38.06-.09.01-.23.08-.29-.08-.09,0-.19,0-.28,0-.22.03-.45.03-.68,0-.27,0-.54,0-.81,0-.07,0-.14,0-.21,0h-.03s-.03,0-.03,0c-.42.15-.85.06-1.27.07-.61,0-1.23-.06-1.84,0-.14.02-.25-.02-.3-.15-.13-.39-.17-.79-.02-1.18,0-.12,0-.23,0-.35-.14-.29-.14-.58,0-.87,0-.05,0-.1,0-.15-.15-.29-.13-.58,0-.87,0-.57-.01-1.13-.02-1.7-.12-.1-.05-.23-.05-.35.1-.2,0-.4.03-.6,0-.02,0-.05,0-.07,0-.27,0-.54-.01-.81,0-.02.01-.05.02-.07-.01-.05-.02-.1-.03-.15-.14-.05-.13-.12-.02-.2,0-.09,0-.18,0-.27.02-.14.12-.14.23-.14.67,0,1.33,0,2,0,.64,0,1.28,0,1.92,0,.43-.12.86-.03,1.3-.04.6-.01,1.2-.06,1.8.04.02,0,.05,0,.07.01,1.26,0,2.51-.1,3.77-.05.55.02,1.1-.05,1.64.05.03.06.1.07.15.08.14.28.05.58.06.86,0,.09,0,.18,0,.26v.08c0,.11,0,.22,0,.33,0,.05,0,.1,0,.14,0,.09,0,.18,0,.26,0,.03,0,.05,0,.08.02.27-.02.54.05.81.03.09.03.18-.01.27,0,.09,0,.18,0,.27,0,.03.01.05.02.08,0,.04-.01.08-.02.13,0,.03,0,.05,0,.08,0,.04,0,.09,0,.13.02.07.03.14-.01.21,0,.07,0,.13,0,.2.05.07.04.14.02.21,0,.22,0,.45,0,.67.03.08.04.18-.02.23Z"/>
    <path class="cls-9" d="m77.05,29.1s-.03,0-.04.01c0,0,.01-.02.02-.02,0,0,.01,0,.02,0Z"/>
    <path class="cls-9" d="m75.79,35.38c0-.09,0-.17-.01-.26,0-.03,0-.05,0-.08v-.33s0-.1,0-.15c0-.16-.01-.31-.02-.47,0-.07,0-.14,0-.21v-.13s-.04-.06-.04-.08c-.06-.65,0-1.3.03-1.96,0-.23,0-.45.01-.68.04-.15-.17-.33.04-.47,0-.05-.01-.1-.02-.15-.22-.14,0-.35-.08-.53-.06-.14,0-.32,0-.49.01-.14-.08-.23-.15-.33-.07,0-.15.03-.2-.05,0,0-.01,0-.01,0-.04,0-.08-.01-.12-.02-.07,0-.14,0-.2,0h-.07s-.09,0-.13,0c-.86.05-1.72.06-2.58,0-.05,0-.09,0-.14,0-.54.03-1.09.05-1.63,0-.27,0-.55,0-.82,0-.52.04-1.04.07-1.56,0-.05,0-.09,0-.14,0-.07.01-.13.04-.2.04-1.23-.04-2.45.09-3.68.02-.35.06-.61.2-.56.62,0,.03,0,.05,0,.08,0,.34,0,.67,0,1.01v.55c0,.09,0,.18,0,.26,0,.14,0,.28,0,.42,0,.18,0,.36,0,.53,0,.03,0,.05,0,.08,0,.47,0,.94.01,1.41,0,.16.08.25.19.38.22.24.55.12.77.31.3-.05.55.17.87.15,0,.01-.01.01-.02.02.05,0,.09-.02.14-.02.05,0,.1.01.15.02.01,0,.03,0,.04.01.01,0,.08.01.02,0,.1.01.18.07.21.16,0,.01.02.02.02.04,0,.03.01.06,0,.09,0,.03-.01.06-.03.08-.02.02-.03.04-.05.06,0,0-.02.02-.03.02,0,0-.02.02-.03.02-.02.01-.05.02-.07.03,0,0-.01,0-.02,0-.02,0-.05,0-.07,0,0,0,0,0-.01,0,0,0-.01,0-.02,0-.02,0-.03,0-.05,0-.02,0-.04-.01-.06-.02-.04,0-.07,0-.12,0-.59-.09-1.18-.01-1.76.11-.1.17-.08.36-.09.54,0,.03,0,.05,0,.08,0,.16,0,.31-.01.47,0,.07.02.14.02.21.18.19.41.19.65.19.53,0,1.07.01,1.6.02.11.05.05.13.05.2,0,.04,0,.08,0,.12-.1.15-.25.18-.42.21-.61.13-1.21.31-1.79.54-.1.16-.18.35-.14.53.1.52-.01,1.05.04,1.57,0,.12,0,.23,0,.35,0,.27,0,.54,0,.81.02.05,0,.07-.04.08-.03.46-.27.8-.61,1.09-.21.2-.46.31-.74.31-1.11-.01-2.23.06-3.34-.05-.09,0-.18,0-.27.01-.25,0-.5,0-.74-.01-.04,0-.09,0-.13,0-.11.03-.23.04-.34,0-.07,0-.13,0-.2-.01-.11.05-.23.05-.35,0-.05.01-.09.03-.14.04-.1.01-.2.03-.3.03-.41,0-.54.15-.56.57-.01.33.09.67-.03.99v.68s0,.05,0,.07c0,.29-.01.58-.02.88,0,.02.01.05.02.07.02.34.04.68,0,1.01,0,.02,0,.05,0,.07.03.38.03.76,0,1.15,0,.05,0,.1,0,.14,0,.27,0,.54-.01.81.01.05.02.1.03.15,0,.04.02.07.03.11,0,.68,0,1.37.01,2.05-.13.44-.02.89-.06,1.33-.03.31.15.44.4.46.66.06,1.34,0,2,.09.17.03.34-.12.52-.05.39,0,.77,0,1.16-.01,1.02,0,2.04,0,3.06,0,.08-.16.29-.1.35-.08.61.13,1.22,0,1.83.05.02,0,.03.03.05.04.05,0,.11,0,.16,0,.52-.11,1.04-.03,1.57-.05.57-.03,1.14,0,1.71,0,.05,0,.1.03.15.05.03,0,.06,0,.1,0,.16-.12.35-.06.52-.06,1.13-.01,2.27,0,3.4,0,.03,0,.05.03.08.05.16,0,.32,0,.47,0,.44-.11.89-.03,1.33-.05.25,0,.51-.02.77,0,.16-.1.35-.18.34-.42-.11-.27-.12-.54.02-.81,0-.12,0-.23,0-.35-.11-.09-.12-.18,0-.26,0-.05,0-.09.01-.14-.04-.07-.04-.14,0-.21,0-.09-.02-.18-.02-.28-.17-.39-.02-.8-.08-1.2,0-.07,0-.13.1-.14,0-.2,0-.4,0-.61-.04-.53-.08-1.06-.02-1.59,0-.05-.01-.11-.02-.16,0,0-.02,0-.02,0,0,0,.02,0,.02,0v-.03s.02-.05.02-.08c0-.06.01-.12.02-.19-.03-.53-.05-1.06,0-1.59,0-.04,0-.08,0-.13-.04-.07-.04-.15,0-.22-.05-.05-.08-.11-.05-.18,0-.18-.07-.37.04-.55,0-.04.02-.09.02-.13,0-.05,0-.09,0-.14v-.81s0-.05,0-.08c-.01-.22-.02-.45-.04-.67-.07-.25-.08-.5.01-.75,0-.22.02-.45.03-.67,0-.05,0-.1.01-.14,0-.13,0-.27,0-.4v-.14c0-.07,0-.13,0-.2-.03-.09-.04-.19,0-.28v-.13s-.01-.08-.01-.08c-.03-.47,0-.94.02-1.42,0-.03,0-.05,0-.08-.03-.74-.03-1.49,0-2.23,0-.05,0-.1,0-.14,0-.11,0-.22.01-.33,0-.03,0-.05,0-.08Zm-.37-1.49c0,.18,0,.36,0,.54.07.04.07.08.02.14,0,.16,0,.31,0,.47,0,.03,0,.05,0,.08,0,.09-.01.18-.02.27.06.2.05.41.01.61,0,.29-.02.59-.03.88.05.09.05.18.02.27,0,.04,0,.09,0,.13,0,.03,0,.05,0,.08,0,.14,0,.27,0,.41.05.09.03.18,0,.27,0,.05,0,.09,0,.14l.02.07v.4c0,.52.06,1.04-.05,1.56,0,.12,0,.24,0,.35.1.1.05.22.03.33v.39c.03.35.01.69-.04,1.03-.11.57.07,1.13.01,1.69,0,.01.01.03.01.04,0,0,0,.02,0,.02,0,.27-.02.54-.03.81,0,.12,0,.23.01.35,0,.61,0,1.22,0,1.83,0,.02,0,.05,0,.07,0,.06,0,.13,0,.19.01.1.08.2-.04.28,0,.09,0,.18,0,.27,0,.21.1.4.05.61,0,.09,0,.18,0,.27,0,.05,0,.09,0,.14,0,.13,0,.27,0,.4,0,.05,0,.1,0,.14-.13.45.07.91-.05,1.36.12.26.07.54.05.82,0,.16,0,.31,0,.47,0,.05,0,.1,0,.14,0,.22,0,.45,0,.67.04.12-.04.12-.12.12-.2.06-.4.13-.61.09-.59,0-1.17.03-1.76-.01-.05,0-.09,0-.14,0-.32.06-.63.03-.95,0-.07,0-.14,0-.2,0-.23.05-.45.03-.68,0-.07,0-.14,0-.2-.01-.34.04-.68.03-1.02,0-.27.05-.54-.09-.81,0-.81.12-1.63,0-2.44.03-.69.03-1.36-.01-2.05-.03-.09,0-.18,0-.27,0-.79.05-1.59.08-2.38.01h-.34c-.07.03-.13.04-.2,0-1.62,0-3.24.01-4.87.02-.1,0-.23.04-.28-.11-.03-.03-.07-.06-.02-.11,0-.09,0-.18-.01-.28-.02-.18-.06-.36.01-.54,0-.16,0-.32,0-.48,0-.01-.01-.03-.02-.04,0,0,0-.02,0-.02,0-.09,0-.18.01-.28-.03-.15-.05-.31,0-.46,0-.12-.01-.23-.02-.35-.02-.05-.02-.09.02-.13,0-.12,0-.23,0-.35-.04-.07-.02-.13,0-.2v-.35s-.01-.03-.01-.05c0,0,.01-.01.02-.02,0-.29.01-.59-.01-.88-.01-.13.01-.2.06-.24-.04-.1-.04-.21-.02-.32-.11-.18-.03-.47-.03-.7,0-1.25.01-2.5.02-3.76-.07-.27.07-.34.3-.34.42,0,.83,0,1.25,0,.05,0,.09,0,.14,0,1.47,0,2.94,0,4.41,0,.46-.07.84-.25,1.15-.61.23-.27.37-.57.43-.91.01-.06.05-.12.08-.18,0-.05.02-.09.02-.14-.08-.18-.01-.36-.02-.54-.08-.43-.18-.86-.02-1.29,0-.05,0-.09,0-.14-.11-.13-.12-.27,0-.4,0-.56.15-.71.72-.82.48-.09.94-.26,1.41-.42.13-.04.19-.17.18-.33-.02-.26.09-.57-.28-.68-.6,0-1.21,0-1.81,0-.05,0-.09-.05-.14-.08-.16-.25-.06-.53-.06-.8,0-.13.17-.04.25-.09.48-.12.96-.1,1.44,0,.2.05.38-.04.55-.12.02-.06.05-.12.05-.18,0-.08.01-.13.07-.15,0-.09,0-.19,0-.28-.03-.04-.05-.11-.1-.14-.22-.16-.48-.23-.74-.27-.46-.07-.87-.32-1.34-.36-.15-.01-.18-.2-.18-.33,0-.56.01-1.12.02-1.69,0-.06,0-.13,0-.19,0-.03,0-.05,0-.08,0-.16-.01-.31-.02-.47-.02-.07-.03-.14.01-.21,0-.05,0-.09.01-.14-.04-.04-.03-.09,0-.13,0-.07,0-.14-.01-.2-.02-.07-.03-.14,0-.21,0-.09,0-.18-.01-.27,0-.21,0-.41,0-.62v-.12c0-.24.19-.21.34-.21,1.04,0,2.09-.01,3.13-.01.26,0,.51,0,.77,0,1.62,0,3.24,0,4.86.01.34,0,.67.08,1.02,0,.41-.1.84.08,1.26.08.3,0,.12.3.18.46.03.01.06.03.03.07v.13s0,.09,0,.14c0,.22,0,.45,0,.67,0,.03,0,.05,0,.08,0,.09,0,.18,0,.26,0,.21,0,.41.01.62,0,.04,0,.08,0,.13,0,.03,0,.05,0,.08l-.02.4s0,.09.01.14c0,.18,0,.36,0,.53,0,.03,0,.05,0,.08l.03.15.05.02s-.04.01-.05.02c0,.14-.01.28-.02.42.02.04,0,.06-.04.07Z"/>
    <path class="cls-9" d="m75.63,57.4c-.05.26-.25.34-.46.34-1.22,0-2.44-.01-3.65-.02-1.3,0-2.61,0-3.91,0-.63,0-1.27,0-1.9,0-.81-.03-1.62,0-2.43,0-2.38-.02-4.76,0-7.14.01-.44,0-.38-.34-.41-.61,0-.05-.01-.1-.02-.15.04-.18.04-.35,0-.53,0-.03,0-.05,0-.08,0-.38,0-.77,0-1.15,0-.02,0-.05,0-.07,0-.17.04-.34.02-.5-.06-.36.03-.62.41-.73,1.12,0,2.24.01,3.37,0,1.56,0,3.12-.04,4.68-.03.61,0,1.22-.07,1.82-.02.49.04.98.06,1.48.03.29-.02.59-.04.88-.05.2.06.41.01.61.01.57.01,1.13.02,1.7.04.36-.02.72.05,1.08-.03.05,0,.1.01.15.02.24,0,.47.02.71.02.92.03,1.84-.05,2.76.06.3.08.37.29.36.57-.01.49,0,.99,0,1.48,0,.03,0,.05,0,.08,0,.14,0,.28-.01.41-.02,0-.04.02-.05.02.02,0,.04.02.05.02,0,.07,0,.14,0,.22-.14.19-.04.41-.06.61Zm-3.67-3.13h0s-.07-.06-.11-.06c-.75,0-1.51,0-2.26,0-.05,0-.09,0-.14,0-1.15-.04-2.31-.02-3.46.01-.09,0-.18,0-.27,0-1.49-.03-2.99-.04-4.48,0-.29,0-.6-.09-.88.05-.34,0-.68,0-1.02,0-.47-.12-.95-.05-1.43-.05-.57,0-1.14-.07-1.7.05-.34.13-.15.4-.17.62,0,.39,0,.78,0,1.16,0,.4,0,.81,0,1.21.18.39.53.16.78.17,1.11.03,2.23,0,3.34,0,.71-.01,1.42.05,2.12-.05.09,0,.18.01.27.02.09.04.18.02.27,0,.09,0,.18,0,.27,0,.09.03.18.03.27,0,.11,0,.22,0,.33-.01.07.04.14.04.21.02.05,0,.09,0,.14,0,.11.05.22.03.33,0,.11,0,.23,0,.34,0,.11.04.23.03.34,0,.04,0,.09,0,.13.01.09.04.18.02.27,0,.09,0,.18,0,.28,0,.02,0,.04,0,.07,0,.11,0,.23.01.34.02.33.06.65.17.96-.06.21-.05.4.11.61.05.48.06.96,0,1.44.06.24.03.49.07.73-.06.07,0,.14,0,.21,0,.29.06.58.01.88,0,.07,0,.14,0,.21,0,1.29.1,2.58,0,3.87.07.11,0,.2-.03.28-.09.02,0,.03,0,.04-.02.1-.07.07-.15.04-.24,0-.04,0-.08,0-.12.03-.05.03-.09,0-.14,0-.07,0-.13,0-.2,0-.12,0-.23,0-.35,0-.07-.01-.13-.02-.2,0-.07,0-.13,0-.2,0-.05,0-.09,0-.14,0-.02,0-.05.01-.07,0-.13,0-.26,0-.4,0-.03,0-.05,0-.08v-.26s0-.1,0-.14c0-.04,0-.08,0-.13,0-.03,0-.05,0-.08,0-.06,0-.13,0-.19.01-.09-.02-.13-.11-.14h-.01s-.08-.06-.12-.06c-.82,0-1.64-.11-2.46,0-.04,0-.09,0-.13,0-.21-.06-.41-.03-.61.04Z"/>
    <path class="cls-9" d="m55.31,25.27s-.02-.03-.03-.05c0,0,.01-.01.02-.02l-.02-.89c-.15-.13-.09-.26-.02-.4v-.14c-.03-.07-.02-.14,0-.21,0-.61-.02-1.22-.03-1.84-.01-.01-.03-.03-.04-.04,0,0,.01-.02.02-.02,0-.04,0-.09,0-.13-.03-.11-.04-.22,0-.33,0-.16-.02-.32-.02-.48-.17-.11-.05-.33-.16-.47,0,0,0,0,0,0-.22.01-.43-.12-.65-.07-.44.09-.89-.09-1.32.06-.06.02-.16.03-.19-.07-.07,0-.14,0-.2,0-.48,0-.96.02-1.44.01-.3,0-.59.04-.88.13-.13.51-.06,1.04-.08,1.56-.03.19-.18.12-.29.14-.27.03-.44-.03-.42-.36.02-.28,0-.57,0-.85-.01-.46-.15-.6-.59-.59-.45,0-.9-.04-1.32.17,0,.11-.02.22-.02.33,0,.34.01.68.02,1.02,0,.32-.27.23-.44.28-.2.06-.28-.06-.29-.26-.02-.41-.12-.82-.06-1.24,0-.02-.01-.05-.02-.07-.1-.06-.26-.08-.32-.14-.17-.15-.38.13-.5-.09-.04,0-.09,0-.13.01-.27.08-.54.16-.82.01-.07,0-.14,0-.21,0-.08.12-.14.12-.2-.02-.06,0-.12.01-.18.02-.1,0-.21,0-.31-.01-.26.18-.54.05-.82.07-.07,0-.13,0-.2,0-.02,0-.05,0-.07,0-.02.02-.05.05-.07.07,0,.05.02.12-.06.14-.1.17-.07.36-.09.54.02.05,0,.07-.04.08,0,1.06-.14,2.11-.17,3.16-.01.35.22.65.5.57.63-.18,1.26-.13,1.9-.13.09,0,.19,0,.27.02,1,.35,1.8.92,2.19,1.97.06.16.11.38.35.41.47-.05.96.07,1.43-.07.33-.08.46-.25.39-.56-.08-.37.21-.35.41-.4.26-.07.29.1.27.3-.03.33.03.62.42.71,1.29-.03,2.58-.03,3.87,0,.09,0,.18,0,.27-.01.29-.14.37-.37.37-.68,0-.38-.03-.77.03-1.15Zm-10.83-5.04s0,.03,0,.04c0,0-.01-.01-.01-.02,0,0,0-.01.01-.02Zm10.48,6.08c0,.13.06.3-.11.39,0,.11-.06.13-.15.13-.48,0-.96-.06-1.42,0-.76.1-1.51-.06-2.27,0-.23.02-.4-.06-.36-.35.07-.24.12-.47-.13-.64-.03-.02-.05-.05-.06-.07-.06-.03-.13-.05-.19-.08,0,0-.01,0-.02,0-.05,0-.1-.02-.15-.03-.14.05-.28.06-.43.07-.09.07-.18.15-.26.21-.02.07-.06.16-.08.23,0,.09,0,.17,0,.26.02.35-.07.45-.41.43-.08,0-.12.03-.19.04-.67.1-1.02-.14-1.15-.8-.02-.05-.05-.09-.07-.14-.27-.2-.44-.49-.66-.73-.17-.19-.47-.16-.56-.42h0c-.58-.29-1.2-.41-1.84-.41-.33,0-.66.06-.99.12-.42.07-.51.02-.49-.4.01-.2-.09-.42.07-.61,0-.22,0-.45.01-.67-.03-.65,0-1.29.18-1.91,0-.13-.02-.27.13-.35.32-.16.66-.06.99-.07.44-.01.87,0,1.31,0,.05,0,.1,0,.15,0,.16,0,.32,0,.47,0,.3,0,.38.14.31.4,0,.07,0,.13,0,.2,0,.03,0,.05,0,.08.05.36-.1.75.17,1.07.36,0,.72.06,1.08-.06.02-.02.05-.04.07-.07.02-.02.03-.04.05-.07,0-.05,0-.09,0-.14,0-.02,0-.05-.01-.07,0-.09,0-.18,0-.27-.14-.25-.12-.82.04-1h0c.34-.21.7-.15,1.06-.08.03,0,.05.01.08.02.17-.04.18.09.18.2,0,.13,0,.26,0,.4,0,.04,0,.09,0,.13.03.07.04.14,0,.21,0,.04,0,.09,0,.13.05.07.04.14.02.21,0,.04,0,.09,0,.13,0,.05,0,.1.01.14,0,.03,0,.05,0,.08.39.15.78.09,1.17.02.02-.01.04-.03.06-.04.05-.39.03-.78,0-1.17-.02-.42.04-.51.44-.51,1.19,0,2.38,0,3.57,0,.07,0,.14-.01.18.06.02.03.05.05.07.08.09.05.07.12.05.2,0,.07,0,.13,0,.2,0,.07,0,.14,0,.21v.33s0,.05,0,.08c.01.56.03,1.12.04,1.69,0,.02,0,.05-.01.07,0,.11.01.23.02.34.05.11,0,.23,0,.34,0,.04.01.09.02.13,0,.02-.01.05-.02.07,0,.04,0,.09,0,.13,0,.03.01.05.02.08v.19s0,.05,0,.08c0,.41.08.82-.04,1.23-.04.12.04.24.05.35Z"/>
    <path class="cls-9" d="m77.59,25.47s-.01-.04-.02-.07c0-.07-.01-.14-.02-.21,0-.04,0-.08,0-.13,0-.05,0-.1,0-.14,0-.04-.01-.09-.02-.13,0-.03,0-.05.01-.08,0-.09-.01-.18-.02-.27.09-.36.01-.72,0-1.08,0-.05,0-.1,0-.15.06-.15.08-.31-.01-.46,0-.74,0-1.48,0-2.22,0-.22.08-.38.29-.47.2-.01.4-.02.6-.03.48-.04.96.04,1.44-.03.05,0,.09,0,.14,0,.89.04,1.78.04,2.67.03,1.37-.02,2.75-.01,4.12-.02.07,0,.14,0,.2,0,.05.02.09.02.13-.01.05,0,.1,0,.15,0,.2.16.4.14.59,0,.05,0,.09,0,.14,0,.09.04.18.04.27-.01.07,0,.14,0,.22,0,.35.13.72.12,1.08.11.21.07.22.27.27.44.2.7.35,1.42.58,2.1.13.38.23.75.32,1.13.12.52-.05.76-.59.75-.6-.01-1.18.03-1.73.31-.7.36-1.24.91-1.53,1.62-.2.49-.42.62-.99.58-.41-.1-.81-.07-1.22,0-.56,0-1.12,0-1.69-.03-.76-.04-1.44-.32-2.15-.49-.55-.13-1.12-.22-1.63-.44-.45-.2-.95-.14-1.38-.33-.11-.06-.13-.18-.2-.27Zm10.48-.84l.02-.02c.25-.19.61-.13.84-.36.06-.02.13-.08.18-.06.35.09.7-.07,1.05-.02.23.03.35-.01.26-.3-.15-.48-.26-.98-.4-1.46-.16-.58-.35-1.16-.49-1.75-.05-.21-.15-.28-.34-.28-.09-.11-.21-.06-.31-.06-1.11,0-2.21,0-3.32,0-1.95,0-3.91,0-5.86.02-.41,0-.83-.05-1.23.05-.12,0-.24,0-.37.01-.09,0-.24-.06-.25.12-.07.06-.07.13-.04.21,0,.11,0,.22,0,.33,0,.03,0,.05,0,.08,0,.11.02.22.02.33,0,0-.02.02-.02.03,0,.02,0,.04.01.06,0,.22,0,.44.01.66,0,0-.01.01-.01.02,0,.01,0,.03.01.04,0,.14,0,.27.01.41,0,.11,0,.23,0,.34,0,.16,0,.31,0,.47-.02.11-.05.23,0,.34v.13c0,.09,0,.19,0,.28,0,.04,0,.09,0,.13,0,.05,0,.1,0,.14,0,.04,0,.09,0,.13,0,.07,0,.14,0,.21,0,.09.01.18.02.26,0,0-.01.02-.01.03,0,.02,0,.03.02.05,0,.04,0,.08,0,.12,0,.08.07.05.1.08,0,.04.02.07.06.06.28.12.59.14.89.23.69.22,1.38.44,2.11.52.12,0,.24,0,.34.08.09.21.31.2.48.22.43.07.84.28,1.29.17.04,0,.08,0,.13,0,.17.07.32-.09.48-.06h0c.08.1.2.08.31.08.55.02,1.09.03,1.64.03.21,0,.51.19.69-.1.07-.15.17-.29.19-.44.04-.27.35-.37.36-.65.02-.02.04-.04.06-.07.02-.02.05-.05.07-.07.16-.02.24-.12.28-.27.16-.11.25-.32.47-.36.12.02.17-.07.23-.15Z"/>
    <path class="cls-9" d="m56.54,20.12c.16,0,.31-.02.47-.03.86.02,1.72.08,2.59,0,.04,0,.09,0,.13,0,.49,0,.99,0,1.48.01.53.02,1.07-.1,1.58.13.02.02.05.05.07.07,0,.19-.03.39.02.57.06.24-.12.5.07.72-.02.41.15.81,0,1.22,0,.3-.05.61,0,.9.04.24-.15.51.1.72,0,.07,0,.14,0,.22,0,.05,0,.09,0,.14,0,.05,0,.09,0,.14-.04.04-.04.09,0,.14,0,.07.02.14.03.22-.01.04-.02.08-.03.12,0,.11,0,.22.01.33,0,.02,0,.05,0,.07,0,.09-.02.18-.02.27,0,.14,0,.28,0,.41,0,.22,0,.45,0,.67,0,.03,0,.05,0,.08,0,.36,0,.73.01,1.09-.14.1-.15.21,0,.32,0,.07,0,.14.01.21,0,.02-.02.05-.03.07-.04.25.09.61-.36.62-.86.11-1.73.04-2.59.06-.49.01-.99-.03-1.48.06-.7,0-1.39-.01-2.09,0-.54.01-.74-.17-.79-.73,0-.08,0-.16-.01-.23.14-.31.06-.63.04-.95,0-.07,0-.13.01-.2,0-.11,0-.23-.01-.34,0-.09,0-.18,0-.27,0-.03,0-.05,0-.08-.05-.34-.06-.67,0-1.01.03-.12.02-.23-.02-.34.03-.22.03-.45-.01-.67.05-.1,0-.19-.02-.29,0-.11,0-.22,0-.33,0-.05,0-.1,0-.15,0-.56,0-1.13,0-1.69,0-.07,0-.14,0-.21,0-.36-.01-.72-.02-1.08,0,0,0-.02,0-.02,0-.02-.01-.03-.02-.04.01-.18.02-.36.03-.54,0-.03,0-.05,0-.08.05-.07.11-.13.16-.2.23-.04.45-.08.68-.12Zm1.29,9.22s.09.01.13-.02c.05,0,.09,0,.14,0,.11.03.22.05.34,0,.09,0,.18,0,.28,0,.2.01.4.06.61,0,.05,0,.09,0,.14,0,.05.03.09.03.13,0,.05,0,.09,0,.14,0,.45.09.91-.05,1.35.08.08.02.15-.04.21-.09.05,0,.09.01.14.02.02,0,.05,0,.07,0,.07,0,.14,0,.2-.01.25.06.51.03.77.02.09,0,.19,0,.17-.14-.02-.34.12-.67.06-1.01v-.22c.05-.33,0-.67,0-1,.02-.05-.01-.06-.05-.08-.03-.88.12-1.76.04-2.64,0-.03,0-.05,0-.08.04-.4-.05-.8-.07-1.2-.02-.44.1-.87,0-1.31,0-.02,0-.05,0-.07,0-.04,0-.09,0-.13,0-.07,0-.14,0-.21,0-.04,0-.09,0-.13v-.08s0-.08,0-.13c0-.05,0-.1-.01-.14v-.19c.03-.06.02-.1-.05-.11-.02-.01-.05-.02-.07-.03-.1-.1-.23-.06-.35-.06-.95,0-1.9,0-2.84.02-.6.02-1.21-.04-1.81.04-.11,0-.22-.01-.33,0-.37.03-.74-.06-1.1.08-.25.3-.15.62-.06.95,0,.04,0,.09.01.13,0,.03,0,.05,0,.08,0,.27.01.54.02.81-.06.12-.03.24,0,.36,0,.49.02.98.03,1.47,0,.09,0,.19,0,.28,0,1.4,0,2.8-.01,4.2-.17.16-.02.31.01.46.01.08.06.23.19.09.04,0,.09-.01.13-.02.43.07.86.04,1.29.01.05,0,.1,0,.14,0Z"/>
  </g>
  <g>
    <g>
      <line class="cls-5" x1="76.46" y1="14.93" x2="92.38" y2="14.93"/>
      <path d="m93.17,14.93c-.37.14-.83.37-1.12.62l.22-.62-.22-.62c.29.25.75.48,1.12.62Z"/>
    </g>
    <g>
      <line class="cls-6" x1="54.81" y1="14.93" x2="41.54" y2="14.93"/>
      <path d="m40.81,14.93c.34-.13.76-.34,1.02-.57l-.21.57.21.57c-.26-.23-.68-.44-1.02-.57Z"/>
    </g>
    <line class="cls-5" x1="93.17" y1="14.27" x2="93.17" y2="15.6"/>
    <line class="cls-6" x1="40.81" y1="14.27" x2="40.81" y2="15.6"/>
  </g>
  <g>
    <g>
      <line class="cls-1" x1="75.71" y1="63.17" x2="80.72" y2="63.17"/>
      <path d="m81.29,63.17c-.27.1-.6.27-.8.45l.16-.45-.16-.45c.2.18.53.35.8.45Z"/>
    </g>
    <g>
      <line class="cls-2" x1="58.37" y1="63.17" x2="54.92" y2="63.17"/>
      <path d="m54.41,63.17c.24-.09.55-.24.73-.41l-.15.41.15.41c-.19-.16-.49-.32-.73-.41Z"/>
    </g>
    <line class="cls-1" x1="81.29" y1="62.5" x2="81.29" y2="63.83"/>
    <line class="cls-2" x1="54.41" y1="62.5" x2="54.41" y2="63.83"/>
  </g>
  <text class="cls-8" transform="translate(56.63 16.79)"><tspan x="0" y="0">78mm</tspan></text>
  <g>
    <g>
      <line class="cls-4" x1="100.14" y1="41.3" x2="100.14" y2="58.23"/>
      <path d="m100.14,59.05c-.14-.39-.39-.86-.65-1.16l.65.23.65-.23c-.26.3-.5.77-.65,1.16Z"/>
    </g>
    <g>
      <line class="cls-3" x1="100.14" y1="29.91" x2="100.14" y2="19.45"/>
      <path d="m100.14,18.7c.13.35.35.79.59,1.06l-.59-.21-.59.21c.24-.27.46-.71.59-1.06Z"/>
    </g>
    <line class="cls-4" x1="100.8" y1="58.91" x2="99.47" y2="58.91"/>
    <line class="cls-3" x1="100.8" y1="18.7" x2="99.47" y2="18.7"/>
  </g>
  <text class="cls-8" transform="translate(91.79 37.32)"><tspan x="0" y="0">60mm</tspan></text>
  <text class="cls-8" transform="translate(58.37 65.1)"><tspan x="0" y="0">40mm</tspan></text>
  <text class="cls-7" transform="translate(54.37 85.62)"><tspan x="0" y="0">P60WKS</tspan></text>
</svg>