<?xml version="1.0" encoding="UTF-8"?>
<svg id="T80-88-DSS-ST" xmlns="http://www.w3.org/2000/svg" viewBox="0 0 150 100">
  <defs>
    <style>
      .cls-1 {
        letter-spacing: 0em;
      }

      .cls-2 {
        fill: #231e1e;
      }

      .cls-3 {
        stroke-width: .17px;
      }

      .cls-3, .cls-4, .cls-5, .cls-6, .cls-7, .cls-8, .cls-9, .cls-10 {
        fill: none;
        stroke: #000;
        stroke-miterlimit: 10;
      }

      .cls-11 {
        font-size: 12px;
      }

      .cls-11, .cls-12 {
        fill: #231f20;
        font-family: MyriadPro-Regular, 'Myriad Pro';
      }

      .cls-4 {
        stroke-width: .74px;
      }

      .cls-5 {
        stroke-width: .53px;
      }

      .cls-6 {
        stroke-width: .23px;
      }

      .cls-7 {
        stroke-width: .41px;
      }

      .cls-12 {
        font-size: 9px;
      }

      .cls-8 {
        stroke-width: .15px;
      }

      .cls-9 {
        stroke-width: .22px;
      }

      .cls-13 {
        letter-spacing: 0em;
      }

      .cls-10 {
        stroke-width: .63px;
      }
    </style>
  </defs>
  <g>
    <g>
      <line class="cls-6" x1="74.37" y1="59.36" x2="95.83" y2="59.36"/>
      <path d="m97.21,59.36c-.65.24-1.45.65-1.95,1.08l.39-1.08-.39-1.08c.5.43,1.3.84,1.95,1.08Z"/>
    </g>
    <g>
      <line class="cls-9" x1="45.09" y1="59.36" x2="23.74" y2="59.36"/>
      <path d="m22.44,59.36c.62-.23,1.38-.62,1.85-1.03l-.37,1.03.37,1.03c-.47-.41-1.24-.8-1.85-1.03Z"/>
    </g>
    <line class="cls-6" x1="96.96" y1="58.32" x2="96.96" y2="60.39"/>
    <line class="cls-9" x1="22.44" y1="58.32" x2="22.44" y2="60.39"/>
  </g>
  <text class="cls-12" transform="translate(47.7 62.15)"><tspan x="0" y="0">56mm</tspan></text>
  <g>
    <g>
      <path d="m97.03,27.43c-.03-.3.03-.63-.11-.93-.29-.8-.57-1.59-.72-2.43-.38-.74-.69-1.51-1.1-2.23-1.58-2.84-3.85-4.95-6.68-6.5-.72-.4-1.5-.66-2.25-.99-.6-.14-1.18-.36-1.77-.55-1.08-.18-2.16-.28-3.25-.31-.4-.01-.74.24-1.13.19-.04,0-.07,0-.11,0-.38,0-.75,0-1.13,0-6.32,0-12.64,0-18.95,0-6.32,0-12.64,0-18.95,0-.38,0-.75,0-1.13,0-.04,0-.07,0-.11,0-.39.04-.73-.21-1.13-.19-1.09.03-2.18.13-3.25.31-.59.18-1.17.41-1.77.55-.75.33-1.52.6-2.25.99-2.83,1.55-5.1,3.66-6.68,6.5-.4.73-.72,1.49-1.1,2.23-.16.84-.43,1.63-.72,2.43-.14.3-.09.62-.11.93-.06.7-.22,1.38-.17,2.09.35,5.05.06,10.11.16,15.16,0,.28.09.55.06.84-.01.16-.01.31-.09.47-.25.48,0,.98.53,1.1.17.04.35.05.53.05,1.16-.02,2.31-.05,3.46.02.7.04,1.45-.62,1.44-1.38,0-.38,0-.75,0-1.13-.01-.72-.47-1.04-1.15-.83-.27.08-.55.02-.82-.06-.12-.04-.12-.17-.13-.27-.08-.75-.16-1.51-.02-2.27.06-.36.31-.31.53-.27.86.15,1.6-.44,1.59-1.3,0-.35.04-.7-.04-1.05-.13-.56-.53-.95-1.09-1.04-.93-.16-.95-.16-1.05-1.09-.06-.55-.02-1.1.07-1.64.04-.22.19-.27.39-.25.94.13,1.88.07,2.82.07,2.3,0,4.6,0,6.9,0,.21,0,.26.08.29.26.11.73.07,1.46,0,2.18-.03.24-.2.36-.43.39-.33.04-.64.13-.91.32-.51.35-.63.86-.33,1.36.04.07.04.11,0,.18-.42.76.09,1.61.97,1.61.69,0,.71,0,.75.69.03.47.03.94.01,1.41-.02.53-.16.65-.68.64-.7,0-1.3.55-1.19,1.21.05.33.04.63,0,.95,0,0,0,0,0,.01.25-.01.5-.01.76-.02,0-.36,0-.71-.06-1.07-.05-.35.18-.49.5-.33.17.08.34.14.5.03.23-.15.43-.33.64-.51.16-.13.19-.3.19-.5-.01-.6,0-1.2,0-1.8,0-.96-.55-1.51-1.51-1.43-.25.02-.27-.07-.26-.26.01-.36.04-.74,0-1.09-.08-.57-.1-.55.45-.64.72-.12,1.37-.78,1.33-1.52-.03-.48,0-.97,0-1.45,0-.44-.14-.84-.48-1.13-.29-.25-.64-.38-1.01-.22-.16.07-.31.11-.47.11-2.64,0-5.28,0-7.92,0-.12,0-.24-.02-.35-.06-.74-.26-1.38.13-1.52.91-.13.69-.06,1.38-.05,2.07,0,.42.24.76.61.98.23.14.48.25.71.39.14.08.29.12.43.05.19-.09.3-.02.34.16.13.5.14,1-.03,1.5-.09.25-.26.31-.5.26-.92-.17-1.56.34-1.58,1.28,0,.47,0,.94,0,1.41,0,1.05.59,1.42,1.41,1.56.26.04.62-.14.76.08.12.19.02.53.02.8,0,.07,0,.14,0,.21-.01.56-.38.9-.93.89-1.11-.01-2.22-.03-3.32-.01-.29,0-.35-.07-.35-.35,0-3.71,0-7.42,0-11.13,0-1.07-.07-2.15.02-3.21.08-1.07-.29-2.09-.17-3.15.03-.29.15-.57.15-.86-.03-1.28.39-2.46.82-3.63.66-1.79,1.68-3.37,2.94-4.8,1.85-2.09,4.1-3.59,6.76-4.45,1.11-.36,2.26-.52,3.41-.66.38-.05.76-.11,1.14-.13.29-.02.49.19.78.17.4-.03.8,0,1.2,0,6.49,0,12.98,0,19.48,0,6.49,0,12.98,0,19.48,0,.4,0,.8-.02,1.2,0,.28.02.49-.19.78-.17.38.02.76.08,1.14.13,1.15.14,2.3.3,3.41.66,2.66.86,4.9,2.36,6.76,4.45,1.26,1.42,2.28,3.01,2.94,4.8.43,1.17.85,2.35.82,3.63,0,.29.11.57.15.86.12,1.06-.25,2.09-.17,3.15.08,1.07.02,2.14.02,3.21,0,3.71,0,7.42,0,11.13,0,.28-.06.35-.35.35-1.11-.02-2.22,0-3.32.01-.55,0-.91-.33-.93-.89,0-.07,0-.14,0-.21,0-.27-.1-.6.02-.8.14-.22.5-.04.76-.08.82-.14,1.4-.51,1.41-1.56,0-.47,0-.94,0-1.41-.02-.94-.65-1.45-1.58-1.28-.24.04-.41-.01-.5-.26-.17-.5-.17-1-.03-1.5.05-.18.15-.25.34-.16.14.07.29.03.43-.05.23-.13.48-.25.71-.39.37-.22.6-.56.61-.98.02-.69.08-1.38-.05-2.07-.14-.78-.78-1.16-1.52-.91-.11.04-.23.06-.35.06-2.64,0-5.28,0-7.92,0-.16,0-.31-.04-.47-.11-.37-.16-.72-.03-1.01.22-.34.3-.48.69-.48,1.13,0,.48.02.97,0,1.45-.04.74.61,1.4,1.33,1.52.56.09.53.07.45.64-.05.36-.02.73,0,1.09,0,.2,0,.28-.26.26-.96-.07-1.51.47-1.51,1.43,0,.6.01,1.2,0,1.8,0,.2.03.37.19.5.21.17.42.35.64.51.16.11.33.05.5-.03.32-.16.55-.02.5.33-.06.42-.06.84-.06,1.25.05,0,.1.01.15.03.12.04.24.1.35.16,0,0,0,0,.01,0,0,0,0,0,0,0,0,0,0,0,0,0,0,0,.02,0,.03,0,0,0,0,0,0,0,.05-.01.1-.04.16-.04,0,0,.02,0,.03,0,.02-.11.04-.22.02-.34-.04-.33-.06-.62,0-.95.1-.66-.5-1.22-1.19-1.21-.52,0-.66-.11-.68-.64-.02-.47-.02-.94.01-1.41.04-.69.06-.69.75-.69.88,0,1.39-.85.97-1.61-.04-.07-.04-.11,0-.18.3-.5.18-1-.33-1.36-.27-.19-.58-.28-.91-.32-.23-.03-.4-.15-.43-.39-.08-.73-.12-1.46,0-2.18.03-.17.08-.26.29-.26,2.3.01,4.6.02,6.9,0,.94,0,1.88.06,2.82-.07.2-.03.35.02.39.25.09.55.13,1.1.07,1.64-.1.93-.11.93-1.05,1.09-.57.1-.96.48-1.09,1.04-.08.35-.04.7-.04,1.05,0,.86.74,1.45,1.59,1.3.22-.04.47-.08.53.27.14.76.05,1.51-.02,2.27,0,.1,0,.23-.13.27-.27.08-.55.14-.82.06-.67-.21-1.14.12-1.15.83,0,.38,0,.75,0,1.13,0,.76.74,1.42,1.44,1.38,1.15-.06,2.31-.04,3.46-.02.18,0,.35-.01.53-.05.53-.11.78-.62.53-1.1-.08-.16-.08-.31-.09-.47-.02-.28.06-.56.06-.84.1-5.05-.19-10.11.16-15.16.05-.71-.11-1.4-.17-2.09Z"/>
      <path d="m83.5,31.81c1.46,0,2.92,0,4.39,0,1.52,0,3.04-.04,4.56.02.87.03,1.52-.75,1.5-1.4-.02-.84-.1-1.67-.2-2.5-.15-1.23-.53-2.39-1.03-3.5-.85-1.87-2.1-3.44-3.71-4.73-1.07-.86-2.24-1.52-3.51-2.03-.54-.22-1.1-.35-1.65-.54-.85-.31-1.69.14-1.71,1.13-.01.45-.02.89-.01,1.34.02,3.3.02,6.6.02,9.89,0,.22.01.45-.02.67-.14.86.51,1.66,1.38,1.66Zm-.64-13.89c.1-.27.3-.36.58-.29,1.79.5,3.51,1.15,4.99,2.32.88.69,1.66,1.48,2.35,2.37,1,1.31,1.7,2.76,2.11,4.34.27,1.05.44,2.13.43,3.23,0,.19-.07.36-.08.55,0,.61.04.7-.74.72-1.48.04-2.97.01-4.46.01h0c-1.4,0-2.81.02-4.21,0-.89-.01-1.06-.22-1.06-1.12,0-3.27.02-6.55.03-9.82,0-.59-.02-1.18-.04-1.77,0-.19.03-.37.1-.54Z"/>
      <path d="m37.53,19.59c0-.45,0-.89-.01-1.34-.03-.99-.87-1.44-1.71-1.13-.54.2-1.11.32-1.65.54-1.27.51-2.44,1.17-3.51,2.03-1.61,1.29-2.86,2.86-3.71,4.73-.5,1.11-.88,2.27-1.03,3.5-.1.83-.18,1.66-.2,2.5-.02.65.64,1.43,1.5,1.4,1.52-.05,3.04-.01,4.56-.02,1.46,0,2.92,0,4.39,0,.87,0,1.52-.8,1.38-1.66-.04-.22-.02-.45-.02-.67,0-3.3,0-6.6.02-9.89Zm-.65,10.46c0,.9-.17,1.11-1.06,1.12-1.4.02-2.81,0-4.21,0h0c-1.49,0-2.97.03-4.46-.01-.78-.02-.74-.11-.74-.72,0-.19-.07-.36-.08-.55-.01-1.1.15-2.18.43-3.23.41-1.58,1.11-3.03,2.11-4.34.68-.89,1.47-1.67,2.35-2.37,1.48-1.17,3.2-1.81,4.99-2.32.28-.08.47.01.58.29.07.17.11.35.1.54-.02.59-.04,1.18-.04,1.77,0,3.27.02,6.55.03,9.82Z"/>
    </g>
    <rect class="cls-10" x="38.94" y="17.05" width="41.77" height="14.48" rx="2.21" ry="2.21"/>
    <rect class="cls-5" x="39.53" y="34.46" width="40.58" height="10.31" rx="1.84" ry="1.84"/>
    <path class="cls-7" d="m69.34,46.78c-6.25.06-12.49.06-18.74,0"/>
    <g>
      <path class="cls-2" d="m72.64,48.69c-.22,0-.45.01-.67,0-.38-.02-.71-.09-.88-.53-.14-.35-.08-.67.13-.89,0,0,0,0,0,0,0-.08.02-.15.04-.22,0,0,0,0,0-.01,0-.02,0-.03-.01-.05-.02-.09-.04-.19-.04-.29,0-.05,0-.11,0-.16-.01,0-.03,0-.04,0-.03,0-.06,0-.09-.01-.03,0-.07,0-.1,0-.03,0-.07,0-.1,0-.09.08-.17.17-.26.31-.33.54-.27,1.12-.15,1.69.06.3.86.8,1.18.8.33,0,.66,0,.99,0,.24,0,.37.08.39.33.03.41.1.82-.01,1.23-.11.41-.31.56-.73.58-.55.02-1.11.02-1.66.02h-.64c.05.21.09.42.13.63.73,0,1.47,0,2.2,0,.07-.06.15-.04.23,0,.74-.13,1.2-.7,1.17-1.43-.01-.29,0-.59.01-.88.02-.7-.37-1.1-1.08-1.1Z"/>
      <path class="cls-2" d="m80.52,51.48c-.06,0-.12,0-.18,0h-.01c-.4.09-.81-.14-.9-.54-.1-.43-.05-.87-.03-1.3.01-.2.13-.32.34-.33.42-.01.85-.03,1.27-.04.66-.02,1.03-.48.84-1.09-.1-.32-.15-.59.05-.91.15-.24.05-.53-.17-.74-.1-.09-.2-.16-.31-.19-.06.06-.11.12-.17.18-.01.02-.02.02-.02.02,0,0,0,0,0,.02-.02.03-.07.13-.03.05-.04.1-.07.2-.11.3-.03.07-.06.13-.1.19.12.01.18.06.17.23-.02.32-.03.64,0,.95.03.31-.11.39-.39.38-.34-.02-.68,0-1.03-.02-.53-.02-.99.39-1.01.92-.02.48.07.96-.06,1.43-.02.06,0,.14.03.2.29.72.62.95,1.39.95.95,0,1.91,0,2.86,0,0-.21.02-.43.04-.65-.83,0-1.66,0-2.48,0Z"/>
      <path class="cls-10" d="m70.78,51.82c-.31,0-.77-.03-1.14-.33-.32-.25-.53-.7-.61-2.82-.02-.58-.03-1.27,0-2.04"/>
      <path class="cls-10" d="m82.57,51.82c.31,0,.77-.03,1.14-.33.32-.25.53-.7.61-2.82.02-.58.03-1.27,0-2.04v-1.04"/>
      <line class="cls-10" x1="71.22" y1="46.82" x2="81.59" y2="46.82"/>
    </g>
    <g>
      <path class="cls-2" d="m38.99,49.71c-.22,0-.45.01-.67,0-.38-.02-.71-.09-.88-.53-.14-.35-.08-.67.13-.89,0,0,0,0,0,0,0-.08.02-.15.04-.22,0,0,0,0,0-.01,0-.02,0-.03-.01-.05-.02-.09-.04-.19-.04-.29,0-.05,0-.11,0-.16-.01,0-.03,0-.04,0-.03,0-.06,0-.09-.01-.03,0-.07,0-.1,0-.03,0-.07,0-.1,0-.09.08-.17.17-.26.31-.33.54-.27,1.12-.15,1.69.06.3.86.8,1.18.8.33,0,.66,0,.99,0,.24,0,.37.08.39.33.03.41.1.82-.01,1.23-.11.41-.31.56-.73.58-.55.02-1.11.02-1.66.02h-.64c.05.21.09.42.13.63.73,0,1.47,0,2.2,0,.07-.06.15-.04.23,0,.74-.13,1.2-.7,1.17-1.43-.01-.29,0-.59.01-.88.02-.7-.37-1.1-1.08-1.1Z"/>
      <path class="cls-2" d="m46.87,52.5c-.06,0-.12,0-.18,0h-.01c-.4.09-.81-.14-.9-.54-.1-.43-.05-.87-.03-1.3.01-.2.13-.32.34-.33.42-.01.85-.03,1.27-.04.66-.02,1.03-.48.84-1.09-.1-.32-.15-.59.05-.91.15-.24.05-.53-.17-.74-.1-.09-.2-.16-.31-.19-.06.06-.11.12-.17.18-.01.02-.02.02-.02.02,0,0,0,0,0,.02-.02.03-.07.13-.03.05-.04.1-.07.2-.11.3-.03.07-.06.13-.1.19.12.01.18.06.17.23-.02.32-.03.64,0,.95.03.31-.11.39-.39.38-.34-.02-.68,0-1.03-.02-.53-.02-.99.39-1.01.92-.02.48.07.96-.06,1.43-.02.06,0,.14.03.2.29.72.62.95,1.39.95.95,0,1.91,0,2.86,0,0-.21.02-.43.04-.65-.83,0-1.66,0-2.48,0Z"/>
      <path class="cls-4" d="m37.14,52.84c-.31.01-.77-.04-1.14-.44-.32-.34-.53-.94-.61-3.8-.02-.79-.03-1.71,0-2.75"/>
      <path class="cls-10" d="m48.92,52.84c.31,0,.77-.03,1.14-.33.32-.25.53-.7.61-2.82.02-.58.03-1.27,0-2.04v-1.04"/>
      <line class="cls-10" x1="37.57" y1="47.84" x2="47.94" y2="47.84"/>
    </g>
  </g>
  <text class="cls-11" transform="translate(38.3 83.51)"><tspan x="0" y="0">T80-88-DS</tspan><tspan class="cls-1" x="51.86" y="0">S</tspan><tspan class="cls-13" x="57.84" y="0">-ST</tspan></text>
  <g>
    <g>
      <line class="cls-3" x1="113.53" y1="25.54" x2="113.53" y2="14.49"/>
      <path d="m113.53,13.49c.17.47.47,1.05.79,1.42l-.79-.28-.79.28c.32-.36.61-.95.79-1.42Z"/>
    </g>
    <g>
      <line class="cls-8" x1="113.53" y1="41" x2="113.53" y2="51.21"/>
      <path d="m113.53,52.13c-.16-.43-.43-.97-.72-1.3l.72.26.72-.26c-.29.33-.56.87-.72,1.3Z"/>
    </g>
    <line class="cls-3" x1="112.5" y1="13.62" x2="114.57" y2="13.62"/>
    <line class="cls-8" x1="112.5" y1="52.13" x2="114.57" y2="52.13"/>
  </g>
  <text class="cls-12" transform="translate(101.41 35.28)"><tspan x="0" y="0">30mm </tspan></text>
</svg>