<?xml version="1.0" encoding="UTF-8"?>
<svg id="T80FBB" xmlns="http://www.w3.org/2000/svg" viewBox="0 0 150 100">
  <defs>
    <style>
      .cls-1 {
        fill: #1d201f;
      }

      .cls-2 {
        stroke-width: .17px;
      }

      .cls-2, .cls-3, .cls-4, .cls-5 {
        fill: none;
        stroke: #000;
        stroke-miterlimit: 10;
      }

      .cls-3 {
        stroke-width: .18px;
      }

      .cls-6 {
        fill: #231f20;
        font-size: 12px;
      }

      .cls-6, .cls-7 {
        font-family: MyriadPro-Regular, 'Myriad Pro';
      }

      .cls-7 {
        fill: #010101;
        font-size: 9px;
      }

      .cls-4 {
        stroke-width: .18px;
      }

      .cls-5 {
        stroke-width: .16px;
      }
    </style>
  </defs>
  <g>
    <g>
      <line class="cls-3" x1="112.5" y1="50.62" x2="112.5" y2="71.63"/>
      <path d="m112.5,72.71c-.19-.51-.51-1.14-.85-1.53l.85.31.85-.31c-.34.39-.66,1.02-.85,1.53Z"/>
    </g>
    <g>
      <line class="cls-5" x1="112.5" y1="36.44" x2="112.5" y2="23.46"/>
      <path d="m112.5,22.48c.17.46.47,1.04.78,1.4l-.78-.28-.78.28c.31-.36.61-.93.78-1.4Z"/>
    </g>
    <line class="cls-3" x1="113.42" y1="72.54" x2="111.57" y2="72.54"/>
    <line class="cls-5" x1="113.42" y1="22.48" x2="111.57" y2="22.48"/>
  </g>
  <text class="cls-7" transform="translate(100.62 45.85)"><tspan x="0" y="0">27mm</tspan></text>
  <text class="cls-7" transform="translate(49.36 18.82)"><tspan x="0" y="0">40mm</tspan></text>
  <text class="cls-6" transform="translate(51.6 85.72)"><tspan x="0" y="0">T80FBB(I)</tspan></text>
  <g>
    <g>
      <line class="cls-4" x1="73.5" y1="16.17" x2="97.3" y2="16.17"/>
      <path d="m98.41,16.17c-.52.19-1.16.52-1.56.87l.31-.87-.31-.87c.4.35,1.04.68,1.56.87Z"/>
    </g>
    <g>
      <line class="cls-2" x1="48.95" y1="16.17" x2="26.15" y2="16.17"/>
      <path d="m25.14,16.17c.48-.18,1.06-.48,1.43-.8l-.29.8.29.8c-.37-.32-.96-.62-1.43-.8Z"/>
    </g>
    <line class="cls-4" x1="98.41" y1="15.25" x2="98.41" y2="17.1"/>
    <line class="cls-2" x1="25.14" y1="15.25" x2="25.14" y2="17.1"/>
  </g>
  <path class="cls-1" d="m98.6,57.87c-.03-.1-.06-.18.03-.25.03-.03.05-.07.04-.12-.09-.28,0-.58-.08-.86,0-.01,0-.03,0-.04.17-.2.02-.4-.01-.6,0-.04-.01-.09.03-.12.15-.07.1-.16.05-.27-.04-.08-.06-.17-.02-.27.03-.06.03-.13-.02-.2-.01-.02-.03-.05-.03-.07.11-.46,0-.92,0-1.38,0-.16-.04-.34.11-.47,0,0,.01-.02.02-.03.01-.16-.28-.52-.46-.54-.52-.08-1.04-.12-1.57-.07-.31.03-.61,0-.92.05-.24.03-.41.16-.49.33-.07.16-.13.36-.09.56.05.27.04.55,0,.83-.01.08-.04.16-.03.26.03.16-.05.24-.21.24-.46,0-.92,0-1.37.04-.22.02-.22-.17-.23-.29-.02-.31.03-.63-.02-.94-.04-.27.03-.54,0-.81-.04-.27-.03-.56-.01-.83.02-.33-.03-.66-.04-.99,0-.56-.02-1.11.04-1.66.02-.17-.06-.33-.04-.5.04-.34-.01-.69-.01-1.03,0-.03,0-.07,0-.09.12-.21.06-.42.02-.62-.04-.18.05-.36.03-.52-.03-.23-.03-.45-.04-.68-.01-.2.04-.28.24-.3.5-.04,1-.06,1.51-.02.12.01.18.05.17.2-.02.3-.07.59-.06.89,0,.33-.06.69.17.99.08.11.17.18.31.18.27,0,.53,0,.8-.01.42,0,.83.03,1.25,0,.1,0,.21-.01.3.05.02.01.05.02.07.02.15,0,.46-.28.5-.44.11-.44.11-.89.03-1.34-.02-.12-.04-.24.04-.36.04-.06,0-.13,0-.2-.01-.41-.06-.83-.03-1.24.04-.51.02-1.01,0-1.52-.02-.55,0-1.1-.02-1.65,0-.18-.05-.35-.07-.53,0-.05-.02-.12,0-.17.14-.38.1-.77.05-1.16-.03-.29-.06-.6,0-.9.01-.06,0-.12-.01-.18-.01-.04-.03-.09-.02-.13.15-.39,0-.78.03-1.17.01-.14-.04-.29-.04-.44,0-.1-.08-.22.08-.28,0,0,.01-.01,0-.01-.09-.14.03-.29,0-.43-.06-.26-.11-.53-.02-.79,0-.02,0-.04,0-.05-.19-.51-.04-1.04-.06-1.56-.01-.45,0-.9,0-1.35,0,0,0-.01,0-.02.21-.36-.11-.69-.04-1.04.09-.43-.04-.87.06-1.31.02-.11-.06-.19-.06-.3,0-.28.04-.56,0-.83-.04-.39-.02-.78-.03-1.17,0-.21,0-.42.04-.63.03-.17.02-.36,0-.53-.05-.3-.07-.59,0-.88.02-.09-.03-.17-.05-.25-.02-.1-.09-.2,0-.29,0,0,0-.01,0-.02-.15-.22,0-.45-.03-.69-.05-.29-.17-.52-.32-.76-.02-.04-.04-.07-.04-.11-.15-.12-.28-.25-.39-.41-.02,0-.04,0-.06,0-.19-.05-.39-.06-.56-.13-.44-.18-.91-.09-1.35-.18-.37-.08-.73.06-1.1.04-.85-.06-1.7-.02-2.55-.03-.83-.01-1.67,0-2.5.05-.39.02-.79,0-1.19.04-.12.01-.23-.03-.35-.04-.41-.04-.83.01-1.24,0-.8,0-1.6,0-2.4-.01-.44,0-.87.08-1.3.05-.35-.02-.7-.01-1.05-.08-.02,0-.02-.02-.04-.02-.03,0-.07.01-.1.01-.02,0-.05,0-.07,0-.01,0-.02.02-.04.02-.04.02-.09.03-.14.03-.01,0-.02,0-.03,0-.01,0-.03,0-.04,0-.04.02-.1.03-.2.03-.59.03-1.17.06-1.76-.02-.19-.02-.38,0-.57.07-.14.05-.28.07-.43.02-.17-.07-.36-.02-.54-.02-.54.02-1.08.03-1.62.02-.18,0-.36.01-.54.04-.23.03-.45-.05-.68-.07-.36-.02-.7.08-1.06.06-.75-.03-1.5.02-2.26.02-.29,0-.58-.08-.87-.05-.43.04-.86.04-1.29.04-.2,0-.42.04-.63.03-.08,0-.15-.03-.21-.07-.6.28-1.3.31-1.85.03-.22,0-.43.01-.65.01-.43,0-.87.02-1.3,0-.62-.04-1.25,0-1.87.02-.27,0-.55-.03-.81-.01-.29.02-.57,0-.86.04-.32.05-.65.06-.98,0-.05,0-.1-.02-.15,0-.32.08-.63,0-.95,0-.44,0-.87.03-1.31.07-.33.03-.67.04-1,.04-.74-.01-1.47.04-2.21.04-.32,0-.64,0-.96-.01-.31-.02-.63-.01-.94.02-.4.05-.8.11-1.2,0-.05-.01-.1-.03-.15-.01-.44.15-.9.03-1.35.06-.26.02-.52.1-.78.08-.11,0-.21-.08-.32-.06-.44.09-.88,0-1.32.03-.23.02-.48.06-.7.03-.42-.05-.84,0-1.26-.01-.35-.02-.71-.04-1.05,0-.08.01-.16.01-.23.02-1.19.27-2.59.23-3.57.17-.16,0-.32-.04-.46-.08-.52,0-1.04-.05-1.56.07-.11.03-.23-.01-.35-.01-.65.02-1.3-.09-1.94,0-.1.01-.21.01-.32,0-.61-.02-1.22.1-1.83.07-.39-.02-.77.06-1.14.03-.54-.05-1.08.02-1.61,0-.45-.02-.9.02-1.36.03-.32,0-.63,0-.95,0-.11,0-.21-.06-.24-.16-.1.02-.19.03-.29.03-.05.06-.11.11-.22.14-.27.07-.55.14-.83.16-.36.03-.68.16-1.01.28-.04.01-.09.05-.03.09.13.11.02.13-.06.13-.2.01-.34.2-.56.16-.04,0-.07.05-.08.11-.03.15-.23.33-.38.35-.06,0-.09-.02-.1-.06-.06.12-.12.24-.2.36,0,.03.02.05.03.08.04.08.1.17.03.24-.08.07-.19.05-.27,0-.04.05-.09.1-.13.15.06.03.13.07.18.13.04.04.08.07.07.12-.07.24.05.49,0,.73-.02.11-.07.17-.16.2-.05.02-.11.03-.17.04,0,.08,0,.17.02.25.09.03.17.09.24.16.04.04.06.08,0,.14-.1.11-.08.28-.07.4.02.35.11.4.47.42.08,0,.16,0,.24,0,.42-.03.85-.07,1.27.03.06.01.12.02.18-.02.1-.07.22-.09.34-.08.28,0,.56-.02.83.05.05.01.11.02.14,0,.12-.08.25-.06.36-.03.2.07.31-.03.42-.17.02-.03.02-.09.08-.09.08.02,0,.12.08.15.21-.17.14-.41.15-.62,0-.07-.02-.13.06-.18.14-.1.27-.15.45-.13.24.03.48.06.72.03.25-.03.5-.07.74-.05.54.03,1.08.01,1.62.01.34,0,.68-.03,1.02-.02.48.02.96,0,1.45,0,.49,0,.99-.04,1.49-.02.41.02.82-.02,1.23-.02.23,0,.48,0,.73-.04.37-.06.75-.04,1.13-.04.1,0,.21.05.31.03.27-.06.53-.04.8-.02.38.03.52.2.52.58,0,.17-.05.34-.03.5.06.43-.02.86.03,1.29.02.19,0,.39,0,.59,0,.26.04.51.03.77-.01.4.07.8-.07,1.19,0,.03,0,.07.01.09.09.13.07.28.06.43-.01.3-.09.39-.39.38-.43-.01-.85.04-1.27.14-.32.07-.52.49-.38.8.05.11.19.24.16.32-.05.2.07.23.17.31.08.06.14.17.23.21.22.1.23.48.56.41,0,0,.02.01.03.02.24.18.38.46.61.65.03.02.04.06.03.08-.07.13.04.17.11.23.22.2.5.34.64.63.02.05.07.13.14.09.1-.07.13-.03.16.05.03.07.09.1.15.13.09.04.19.09.21.18.03.2.35.19.29.44,0,.03.06.05.11.05.04,0,.08.02.09.05.06.26.32.39.44.6.03.06.09.12.18.11.13-.02.24.04.34.11.04.03.07.05.12.03.25-.12.57-.14.7-.45.04-.09.09-.16.03-.26-.02-.04-.04-.08-.03-.12.12-.28-.05-.58.06-.86.01-.03,0-.07-.02-.11-.06-.15-.08-.3-.08-.46,0-.22.01-.44.02-.67,0-.28-.05-.57.06-.85.01-.04,0-.06-.02-.08-.08-.13-.13-.25-.03-.4.02-.03.02-.08.02-.13-.04-.39.03-.78-.03-1.17-.05-.38,0-.75-.02-1.12-.02-.28,0-.56,0-.83,0-.12.05-.23.04-.35-.03-.21-.09-.4-.05-.63.04-.25.06-.53.03-.8-.03-.28.06-.57-.03-.82-.11-.3,0-.57,0-.86,0-.11.07-.25.15-.34.2-.22.47-.27.75-.25.08,0,.16.02.24,0,.41-.07.83-.02,1.24-.06.94-.08,1.9.03,2.85-.05.21-.02.42-.01.63,0,.54.04,1.08.01,1.62,0,.33,0,.66-.07.99-.02.06,0,.13,0,.18-.01.14-.05.28-.04.42-.02.27.04.53.07.8.03.33-.04.67-.05,1.01-.06.7-.02,1.4,0,2.1-.01.2,0,.39.07.58.04.32-.06.64-.06.96-.07.24,0,.47.09.7.04.32-.07.65-.09.98-.04.22.03.44.03.65-.01.22-.04.43-.04.65-.02.15.02.31.02.46.01.1,0,.19-.05.29-.02.23.07.45.03.68.01.26-.02.53-.08.79.03.14.06.27.13.33.27.05.12.06.26.04.38-.04.37.05.73,0,1.11-.02.18.04.38.02.58-.04.44,0,.88-.01,1.32-.02.37.03.74.03,1.12,0,.62.1,1.24-.03,1.85,0,.03,0,.07,0,.09.1.25.05.51.05.77.02,1.08.05,2.17.02,3.25,0,.12.04.23.08.34.02.06.06.09.11.04.1-.08.12.01.17.06.26.23.3.31.66.19.14-.04.17-.18.31-.21.14-.03.25-.1.32-.23.03-.06.07-.15.17-.11.15.07.16-.02.16-.13,0-.14.04-.28.18-.34.27-.12.44-.35.62-.57.13-.17.32-.28.43-.48.04-.09.28-.07.17-.27,0,0,.01-.02.02-.03.11-.05.14-.16.19-.25.08.03.04.13.13.14.13-.26.34-.45.58-.61.04-.02.07-.05.09-.09.06-.16.19-.26.31-.36.12-.11.29-.19.22-.41-.01-.04.02-.07.05-.09.15-.07.18-.34.42-.25,0,0,0,0,.01-.01.18-.13.28-.33.39-.52.03-.06-.01-.17.02-.22.11-.15.03-.21-.09-.28-.07-.05-.21-.13-.17-.19.12-.2-.07-.19-.13-.19-.16,0-.3-.05-.45-.1-.44-.14-.89.04-1.33-.05-.18-.04-.28-.1-.21-.27.1-.25.07-.5.04-.75-.07-.56-.02-1.12-.05-1.68-.01-.28.02-.57,0-.85-.02-.57-.06-1.15.06-1.72.01-.07.03-.18.08-.17.14.03.24-.07.36-.1.38-.09.77-.13,1.17-.09.28.03.55-.06.83-.05.28.01.56,0,.84.01.44.01.89-.02,1.33-.05.28-.02.55.08.83.03.78-.13,1.57,0,2.35-.05.03,0,.06,0,.09,0,.4.09.8,0,1.2-.03.4-.04.56.04.66.43.02.06.02.13.08.15.15.05.33.05.4.25,0,.01.07.01.11.01.54,0,1.08,0,1.62-.02.23,0,.48.02.69-.1.18-.1.42-.13.4-.43,0-.12.07-.19.22-.18.13,0,.26-.02.38-.06.26-.1.54-.07.8-.08.43,0,.86.03,1.3,0,.54-.03,1.09-.05,1.64,0,.46.04.92.06,1.37.02.62-.06,1.25-.06,1.87-.05.64.01,1.27-.06,1.91,0,.37.04.74-.04,1.11-.03.57.02,1.14-.06,1.7.04.17.03.45.22.41.32-.07.18,0,.37.04.51.11.33-.01.63-.04.93-.02.22-.08.41.02.63.11.24,0,.5.05.75.02.08.02.17,0,.26-.06.24-.05.5-.01.74.07.42-.02.82-.01,1.24,0,.21-.08.44.07.64.04.06.08.15-.03.22-.05.03-.1.09-.06.16.11.19.02.4.06.6.04.21,0,.45.01.68.01.62.03,1.25-.01,1.87-.01.2-.04.41-.02.6.02.19.02.39.03.57.03.54,0,1.08.03,1.63.02.41.03.82,0,1.23-.01.18.14.35,0,.53.11.15-.07.29,0,.46.08.24.05.51.08.77,0,.11-.02.19-.09.28-.2.26-.49.21-.75.21-.17,0-.34-.04-.51-.07-.13-.02-.31.05-.46.07-.23.03-.47.11-.71-.01-.07-.04-.14-.03-.22-.03-.66.02-1.32.05-1.97.07-.55.02-1.1.04-1.65.06-.12,0-.23,0-.33.08.13.14.13.13-.04.21-.09.04-.21.04-.26.15-.12.24-.23.48-.1.75.01.03.03.07.02.09-.16.17-.04.36-.05.53-.01.23-.05.45-.01.7.03.21.02.43.09.65.02.04.03.08.07.1.08.05.17.08.06.2-.05.06.05.09.09.09.14.01.27.02.41.02.3,0,.59-.01.89.04.08.02.22.03.19.13-.04.16.05.3,0,.46-.1.28.05.59-.07.87-.01.03.01.09.04.12.08.1.06.21.07.32.02.3-.06.59-.02.89.04.28-.11.57.02.85,0,.02,0,.05-.02.07-.09.11-.04.24-.05.36-.02.23.06.45.06.68,0,.27-.04.55-.01.82.06.56-.02,1.12.01,1.68.03.51-.03,1.01.04,1.52.04.24-.03.36-.22.46-.09.05-.17.03-.25,0-.06-.02-.12-.06-.2-.03-.17.06-.35.1-.52.15-.18.06-.34.14-.46.29-.12.14-.12.35-.15.51-.06.43.08.86.01,1.29-.05.36.1.71.1,1.08,0,.03.04.07.07.08.25.07.47.22.75.21.19-.01.37-.09.55-.05.19.05.36.02.53-.04.12-.04.24-.07.36-.02.1.04.19.04.29.04.38.02.77-.08,1.15.03.08.02.19.05.25,0,.11-.09.24-.08.35-.06.25.06.52-.05.76.06.04.02.1,0,.15,0,.42,0,.85-.14,1.27.03.18.07.52-.04.46.35,0,.01.02.03.03.04.07.07.08.17.1.26.03.15-.05.29-.04.44,0,.22-.09.38-.27.51-.09.06-.22.14-.19.27.04.15-.03.22-.11.3-.03.03-.08.08-.08.12,0,.24-.18.37-.29.54-.03.05-.08.09-.16.06-.12-.05-.18.02-.17.14.02.19-.15.35-.07.54,0,.02-.01.06-.03.06-.22.08-.29.32-.47.43-.08.05-.09.12-.09.21.01.14-.04.26-.15.36-.15.15-.24.34-.24.56,0,.21-.22.29-.28.47-.03.08-.12.03-.18.03-.06,0-.08.04-.11.09-.08.19-.24.34-.34.53-.1.2-.31.36-.27.62,0,.04-.02.07-.05.1-.27.27-.37.65-.58.95-.07.09-.11.24-.28.14-.06-.04-.1.02-.11.06-.05.16-.2.29-.17.48,0,.06-.02.14-.06.19-.3.34-.4.82-.74,1.13-.11.1-.06.27-.13.34-.13.14-.16.3-.24.45-.05.09-.12.17-.18.25-.03.04-.06.08-.12.05-.1-.05-.16-.01-.19.09-.03.09-.09.1-.15.1-.08.15-.16.3-.25.45.02.03.03.07.05.1.04.05.03.11,0,.16-.22.25-.1.59-.24.86,0,.02,0,.06.01.07.11.08.07.2.11.3.08.19.1.35.04.57-.04.14-.05.28-.06.42.08.03.17.05.26.07,0-.06,0-.11,0-.17,0-.05,0-.11.06-.12.18-.01.35-.1.53.02.14.1.31.13.46.09.3-.06.57-.18.77-.42.03-.03.04-.07.03-.1-.03-.19.11-.3.19-.44.04-.05.08-.13.19-.06.09.06.14-.08.15-.14.03-.24.26-.33.37-.51.12-.2.32-.33.29-.61-.01-.12.09-.24.18-.34.19-.2.4-.39.52-.64.01-.03.03-.06.06-.06.08.02.03.11.07.15.14-.19.27-.38.41-.57.03-.04.02-.07,0-.1-.02-.04-.03-.1.01-.12.16-.06.17-.18.18-.32,0-.07.08-.12.13-.18.18-.21.41-.38.49-.66.01-.04.05-.07.08-.1.1-.07.14-.16.13-.28,0-.11,0-.2.18-.18.13.02.23-.1.28-.23.11-.26.3-.47.49-.68.16-.18.36-.39.31-.69-.01-.08.03-.11.09-.15.15-.09.26-.22.33-.38.02-.04.04-.08.08-.07.18.05.21-.08.26-.21.11-.27.3-.49.53-.68.03-.03.09-.06.07-.1-.07-.16.05-.22.13-.3.02-.03.05-.06.06-.09.02-.22.15-.35.35-.44.06-.03.09-.05.07-.14-.06-.23.04-.34.28-.33.06,0,.1-.02.11-.07.03-.08.07-.14.15-.18.02-.01.05-.04.04-.06-.09-.28.28-.35.26-.6,0-.03.07-.06.11-.09.04-.03.1-.05.1-.1,0-.28.25-.4.37-.61.05-.09.07-.18.1-.28.04-.17-.02-.34.06-.49.01-.03.02-.06,0-.09-.08-.34-.07-.68-.04-1.02,0-.07,0-.14-.01-.2-.01-.15-.05-.29.04-.43.08-.11-.07-.18-.1-.28Zm-5.03-12.45c.44.03.87-.16,1.31.01-.33.08-1.22.09-1.31-.01Zm4.35,13.38c.01.09.06.18-.02.26,0,0,0,.04,0,.05.16.13.06.29.03.43-.02.08,0,.16.03.24.06.18.01.33-.12.45-.05.05-.1.09-.03.17.07.08-.01.14-.06.18-.12.1-.2.21-.22.37,0,.07-.05.11-.13.11-.24.02-.48.23-.51.46,0,.07-.04.11-.09.15-.12.09-.21.19-.15.35.02.05,0,.09-.05.11-.24.13-.28.41-.44.6-.13.15-.2.34-.36.47-.03.02-.05.07-.09.04-.13-.14-.14,0-.18.08-.05.11-.11.21-.08.33,0,.04,0,.09-.04.12-.26.29-.52.57-.69.93-.02.04-.06.08-.1.1-.21.1-.27.29-.26.51,0,.09-.22.27-.29.22-.14-.07-.17.04-.18.12-.02.16-.12.27-.21.4-.21.29-.52.52-.61.87-.09.34-.29.58-.5.83-.05.06-.1.15-.22.08-.05-.03-.09.03-.11.07-.14.27-.26.55-.55.71-.01,0-.03.02-.02.03.17.27-.14.38-.21.57-.1.29-.39.48-.55.75-.02.04-.06.07-.11.03-.14-.11-.19.01-.19.11,0,.26-.13.45-.28.65-.08.11-.15.23-.25.33-.11.11-.25.19-.32.36-.05.11-.24.11-.38.06-.12-.04-.23-.13-.23-.28,0-.21,0-.42.19-.58.1-.08.15-.21.13-.35-.02-.11.04-.18.13-.26.13-.12.25-.26.29-.45,0-.03,0-.07.03-.08.22-.19.21-.54.49-.69,0,0,.02-.02.02-.03-.07-.26.19-.41.23-.63.01-.06.05-.14.12-.11.13.05.16-.04.21-.12.12-.2.23-.39.42-.54.09-.07.12-.17.14-.29.04-.26.11-.52.31-.73.16-.16.27-.37.4-.56.04-.06.07-.17.19-.08.05.04.12-.03.11-.1,0-.13.08-.25.06-.38-.01-.08.04-.13.1-.17.19-.15.34-.32.43-.56.05-.13.19-.24.3-.34.05-.05.07-.08.02-.14-.03-.03-.05-.1-.03-.12.24-.1.13-.41.32-.53.05-.03.08-.09.1-.15.05-.12.07-.25.25-.18.07.03.1-.07.1-.13.03-.26.16-.48.29-.69.03-.04.05-.08.1-.1.04-.01.07-.04.08-.08,0-.31.25-.49.4-.73.19-.32.49-.6.49-1.02,0-.09,0-.21.16-.13.05.02.09,0,.11-.05.09-.23.22-.43.18-.71-.03-.25.03-.53.04-.8,0-.12,0-.22-.11-.3-.04-.03-.06-.08-.08-.12-.03-.12-.08-.16-.23-.16-.15,0-.31-.1-.45-.17-.39-.18-.8-.24-1.24-.2-.46.04-.93.04-1.39-.02-.3-.03-.59.05-.89.03-.33-.02-.66.05-.98.01-.24-.03-.5-.02-.73-.13-.17-.07-.34.01-.51.04-.19.03-.37-.05-.55-.03-.07,0-.11-.07-.11-.15.02-.46,0-.92-.02-1.37,0-.16.06-.19.2-.16.12.02.26,0,.38-.01.36-.04.74-.03,1.06-.26.05-.04.08-.07.08-.13.06-.67.04-1.34.03-2.01,0-.55.01-1.1,0-1.66,0-.19-.09-.39-.07-.58.03-.33,0-.65.03-.98.01-.09.03-.17,0-.26-.08-.28-.07-.59-.02-.85.1-.5-.06-.98,0-1.46.02-.18-.01-.35.02-.53.03-.17-.04-.36-.03-.54,0-.09-.02-.18.02-.27.06-.13-.08-.23-.06-.36.04-.22-.03-.44-.02-.66,0-.21-.12-.41-.33-.48-.16-.06-.32-.09-.49-.09-.17,0-.34-.02-.5,0-.35.05-.5-.24-.4-.53.03-.09.02-.18.02-.28,0-.28,0-.56,0-.84,0-.14.06-.24.2-.24.15,0,.31-.03.46.03.13.05.27.06.4.03.35-.08.72-.08,1.06-.08.57,0,1.14-.05,1.7.02.14.02.28-.02.43-.03.02,0,.07,0,.07-.02.05-.18.16-.07.23-.04.31.13.64.07.96.05.19,0,.37-.03.56-.05.31-.03.57-.19.79-.4.05-.05.05-.11.05-.17,0-.07-.03-.15.07-.2.05.08.02.16.03.23,0,.04,0,.1.06.09.05,0,.06-.04.06-.08,0-.21.04-.4.16-.58.01-.02.01-.05,0-.07-.14-.57-.04-1.15-.06-1.72-.03-.65,0-1.31-.02-1.97-.01-.46,0-.93-.01-1.39,0-1,0-2,0-2.99,0-1.37-.01-2.74,0-4.11,0-1.05-.06-2.09-.04-3.14,0-.04,0-.08-.01-.11,0-.03-.03-.06-.05-.07-.05-.02-.06.03-.08.06-.06.14-.05.29-.02.42.06.29-.03.58-.01.86.01.26.08.53.04.79,0,.04,0,.09-.01.13,0,.03-.02.06-.06.06-.04,0-.04-.04-.04-.07-.01-.19-.02-.38,0-.55.06-.43-.01-.85.03-1.27.03-.32-.11-.61-.13-.93,0-.03-.03-.07-.05-.07-.29-.07-.52-.26-.84-.29-.81-.09-1.62,0-2.43-.03-.26,0-.52.03-.77-.07-.05-.02-.11-.02-.16,0-.2.09-.41.07-.62.07-.7,0-1.41.03-2.11.01-1.04-.02-2.07,0-3.1,0-.34,0-.69.05-1.03.02-.27-.02-.54-.05-.79.09-.05.03-.08-.02-.12-.04-.13-.08-.27-.11-.41-.07-.18.06-.36.05-.55.03-.26-.02-.48.1-.71.18-.11.04-.14.12-.14.23.01.27-.23.55-.5.56-.4.01-.79,0-1.19,0-.19,0-.33-.07-.32-.3,0-.12-.13-.21-.07-.35.02-.04-.05-.08-.1-.09-.13-.02-.25-.09-.39-.08-.13.01-.21-.12-.32-.17-.08-.04-.16-.06-.25-.04-.26.06-.51.07-.78.06-.23,0-.47-.03-.7.04-.19.05-.38-.04-.57-.03-.86,0-1.73-.03-2.59.02-1.28.07-2.56.03-3.84.08-.36.01-.72.09-1.08.13-.09.01-.12.07-.09.15.03.1,0,.17-.06.24-.07.07-.17.12-.1.24,0,0-.01.04-.03.04-.2.08-.16.32-.3.44-.02.02-.03.06-.03.09.07.3-.09.62.04.92-.14.22.13.49-.09.7-.02.02-.03.09-.02.1.19.2.06.45.1.68.05.3,0,.6.04.91.02.19-.02.39-.06.57-.04.24.12.44.05.67-.01.04.02.07.04.1.02.02.04.05.04.06-.07.21-.1.46-.08.62,0,.05,0,.1-.01.15,0,.04,0,.1,0,.11.21.06.15.36.36.43.02,0,.04.02.04.03.03.24.16.12.28.08.09-.03.2-.03.29-.01.24.06.48.03.72.01.19-.01.21.03.17.21-.04.22-.23.29-.36.42-.13.11-.23.24-.22.42,0,.05-.02.08-.07.09-.06.02-.11.06-.13.13-.03.11-.08.18-.21.14-.03,0-.08,0-.1.03-.19.18-.43.31-.58.54-.14.21-.31.38-.52.51-.07.05-.19.08-.09.21,0,.01,0,.04,0,.05-.01.04-.4.31-.45.3-.13-.03-.18.05-.2.16-.05.24-.25.35-.44.46-.12.06-.23,0-.32-.09-.08-.08,0-.14.01-.21.02-.1.02-.21,0-.31-.05-.39.02-.78-.06-1.17-.03-.15.07-.28.08-.43.03-.35.04-.68-.02-1.03-.04-.24-.09-.51-.05-.75.11-.62-.02-1.22-.01-1.83,0-.4.01-.8.04-1.2.01-.24-.04-.5-.03-.75.02-.38.02-.77,0-1.15,0-.39.06-.79-.08-1.17-.06-.18-.12-.36-.29-.48-.05-.04-.14-.1-.12-.17.03-.2-.1-.16-.22-.18-.28-.06-.54-.17-.83-.17-.66,0-1.32-.03-1.99.04-.31.03-.63.12-.95,0-.09-.04-.21-.03-.31.02-.15.08-.32.1-.48.07-.12-.02-.24-.03-.37-.05-.22-.02-.44-.11-.67,0-.09.05-.23.03-.35-.02-.01,0-.03,0-.04,0-.29.02-.59.05-.88.08-.35.04-.69.05-1.04.05-.72,0-1.44.05-2.15.11-.03,0-.06,0-.08,0-.01,0-.02,0-.03,0-.65.03-1.3.12-1.95.11-.26,0-.52,0-.78,0-.14,0-.28,0-.42.01-1.27.02-2.54.02-3.81.02-.53,0-1.07,0-1.6.03-.22.01-.46.03-.68,0-.02,0-.06-.01-.07,0-.24.18-.52.1-.79.13-.16.02-.25.1-.32.21-.14.22-.27.44-.4.66,0,.02-.02.03-.02.05-.02.37-.08.75,0,1.12,0,.03.02.07,0,.09-.14.17-.03.34-.02.51.01.22.01.43-.03.64-.06.29-.01.58.02.88.02.14.03.29.03.43,0,.25.04.5-.02.74-.01.06,0,.12,0,.19.03.42.05.84.02,1.26-.02.22.01.43-.03.65-.03.15.06.35.07.53,0,.16-.03.32-.02.48.02.21,0,.39-.07.59-.04.12.08.27.08.43,0,.12-.07.2-.07.32,0,.17-.1.35.03.52.03.04-.01.09-.05.13-.07.08-.09.16,0,.24.03.03.04.06.02.1-.03.03-.07.01-.1.01-.31,0-.5-.16-.68-.4-.15-.21-.38-.38-.57-.56-.08-.07-.12-.19-.23-.23-.01,0-.03-.04-.03-.04.13-.24-.18-.27-.21-.43,0-.03-.07-.06-.09-.02-.1.15-.13.02-.19-.03-.22-.19-.4-.44-.6-.65-.13-.14-.25-.28-.36-.42-.02-.02-.06-.05-.06-.07.07-.23-.11-.21-.23-.26-.14-.06-.11-.2-.1-.31.01-.1.12-.06.19-.06.08,0,.16.03.24.05.13.04.25.07.35-.05.05-.06.13-.04.2-.04.16,0,.27-.04.32-.21.03-.11.08-.23.26-.16.09.04.11-.06.12-.13.01-.17.02-.33.02-.5.02-.56.05-1.12.05-1.69,0-.58-.06-1.16-.06-1.74,0-.6,0-1.2,0-1.8,0-.14-.05-.28-.04-.42,0-.07-.04-.15-.13-.12-.11.04-.14-.03-.19-.09-.12-.14-.28-.23-.46-.31-.56-.25-1.14-.1-1.71-.1-.05,0-.1.02-.15,0-.34-.13-.69-.05-1.03,0-.26.04-.51-.06-.76-.02-.35.05-.7-.02-1.06.04-.29.04-.61.05-.92,0-.58-.09-1.14.04-1.72.07-.22.01-.43,0-.65-.04-.15-.04-.31.03-.46.03-.59,0-1.18.04-1.77.02-.33,0-.68.02-1.02.03-.3,0-.6,0-.89.03-.23.02-.46.02-.68.05-.19.02-.29.12-.32.32-.04.32-.18.44-.5.46-.36.02-.72,0-1.07,0-.07,0-.14-.02-.21-.04.02-.06.04-.08.07-.08.09-.02.16-.06.14-.16-.02-.11-.1-.14-.21-.14-.3,0-.61,0-.91,0-.08,0-.18,0-.19-.08-.02-.14-.12-.29-.02-.43.07-.1.09-.19.05-.3-.06-.16.09-.26.13-.39.01-.03.05-.02.08,0,.11.14.15.03.17-.05.07-.29.29-.46.51-.6.47-.31,1-.41,1.54-.44.75-.17,1.58-.06,2.34-.06.32-.06.65-.01.98-.02.61-.02,1.21-.01,1.82-.03.24,0,.48.05.72.02.82-.09,1.64-.05,2.47-.05.45,0,.89-.05,1.34-.04.84.02,1.68.02,2.51-.05.14-.01.26.05.4.06.27,0,.53-.05.8-.06.05,0,.1,0,.13.02.09-.03.18-.03.26,0,.03,0,.06.01.09.02.05-.02.13-.02.19-.02.57.02,1.14-.05,1.71-.05.34,0,.67,0,1.01,0,.19-.12.41-.19.66-.2.35,0,.7-.03,1.04-.04.04-.05.12-.02.18-.03,1.15-.01,2.29-.02,3.44-.04.91-.01,1.81-.02,2.72-.04.2,0,.4-.05.6.05.12.06.22-.07.33-.08.19-.02.37,0,.55.03.27.04.54.02.81.01.16,0,.33-.07.5-.09.33-.04.66-.02.98-.02.82,0,1.64,0,2.46-.03.44-.02.89.07,1.34.04.71-.05,1.42,0,2.13-.02.95-.02,1.89.01,2.84-.03.39-.02.78.02,1.16,0,.21,0,.42-.06.64-.07.22-.01.42.03.62.06.01,0,.01,0,.02,0,.02,0,.04-.01.07-.02.11-.01.22,0,.33.01.05-.04.13-.07.28-.09.22-.03.44-.04.67.03.22.07.46.05.69,0,.07-.02.15-.03.22-.03.27-.01.55-.02.82-.03.12,0,.24.01.36.04.17.05.35.06.54,0,.29-.08.59-.04.88-.09.21-.03.44.02.66.04.16.02.32.05.46,0,.23-.06.46,0,.67-.03.31-.05.62-.03.93-.03.28,0,.56.08.85.04.12-.02.24-.01.36-.05.13-.04.3.02.45.03.03,0,.06.02.09.02.64-.13,1.28.03,1.92,0,.29-.01.59.08.87-.01.16-.05.32-.05.48-.07.19-.02.36.07.53.13,0,0,0,0,0,0,.03-.01.06-.03.08-.04-.02.02-.04.03-.06.05.04-.04.1-.07.15-.09.05-.01.09-.02.14,0,.03,0,.05.02.08.03.04-.03.1-.04.19-.04.39-.01.78.06,1.16.02.33-.03.65-.07.97-.05.61.04,1.21-.07,1.82-.02.1,0,.19.02.29.04.13.03.25.07.41.01.17-.06.36-.09.55-.06.64.08,1.27-.03,1.91,0,.64.03,1.28-.05,1.92-.03.79.02,1.59-.04,2.38.02.84.05,1.67-.03,2.51-.01.36,0,.71.09.99.36.07.07.16.14.28.1.12-.04.14.04.13.14,0,.09,0,.16.07.24.1.11.12.24.07.38,0,.03-.03.07-.01.09.13.18.02.4.09.59.05.13,0,.28,0,.42,0,.35,0,.71,0,1.06,0,.05-.02.1-.04.14-.03.07-.05.15-.02.22.12.32.12.63.03.95-.01.05-.01.1.02.14.03.04.05.09.04.14-.09.35.06.7-.02,1.06-.03.14.02.32.02.48,0,.09.03.2-.07.27-.04.03,0,.06,0,.1.07.23.1.46.03.69,0,.02-.02.05-.02.07.14.33-.04.69.12,1.01.05.1-.07.15-.07.25,0,.19,0,.38,0,.57,0,.28-.01.57-.02.85,0,.06.03.11.05.16.03.06.06.12.04.18-.08.22-.07.46-.09.69,0,.06-.02.12.04.17.03.02.06.07.03.1-.09.1.02.21,0,.28-.06.21,0,.44-.1.65-.01.03-.04.07-.03.08.18.26-.02.57.1.85.02.04,0,.08-.04.12-.03.04-.05.09-.02.12.12.13.06.28.07.43.02.34.01.67-.03,1-.02.13.07.23.08.36.02.4-.07.79-.08,1.18,0,.15.02.28.07.42.09.26.09.52,0,.78-.04.11-.02.21,0,.32.01.16.02.32.01.48-.01.17.05.34.02.52-.04.28,0,.56-.02.85-.02.35-.01.7.04,1.05.02.1-.06.23.08.3,0,0,0,.04-.01.05-.18.28-.06.6-.09.89-.02.25.06.49.01.74-.03.14.05.29.02.44-.01.07-.02.09-.08.11-.21.09-.43.07-.64.06-.27,0-.55,0-.82.02-.23.02-.26,0-.28-.23-.04-.47,0-.94,0-1.4,0-.18-.07-.32-.19-.45-.02-.02-.04-.05-.06-.04-.32.04-.59-.16-.89-.16-.21,0-.41.05-.62.06-.21.01-.41.01-.61-.03-.38-.07-.87.16-1.05.49-.03.05-.04.1-.02.16.04.09.04.18-.03.26-.02.03-.04.07-.01.1.1.15.06.31.06.47-.03.51,0,1.02.01,1.53,0,.32-.01.65,0,.97,0,.38,0,.75-.04,1.12-.01.13-.05.26-.04.4,0,.13,0,.26.07.38.03.05.04.11.03.16-.04.23-.01.47-.02.7,0,.57-.03,1.14-.04,1.71,0,.19,0,.38.05.57.04.16-.02.34,0,.51.02.18.07.37-.01.56-.05.1.02.21.07.28.13.19.05.48.29.62.08.05.15.08.24.09.61.04,1.22-.08,1.83.01.26.04.52-.1.78-.14.08-.01.13-.08.12-.14-.02-.14.04-.24.09-.35.1-.19.06-.4.05-.6-.02-.36,0-.72,0-1.08,0-.19.15-.22.27-.21.4.05.79,0,1.19-.02.22-.01.35.08.37.3.03.38.13.76.03,1.15-.01.05,0,.11,0,.16.05.15.04.31,0,.46,0,.04-.02.08-.01.11.13.35-.02.71.02,1.07.04.36-.01.75-.03,1.12,0,.09,0,.17.02.26.03.13.11.24.01.41-.06.1-.05.32-.03.48Z"/>
</svg>