<?xml version="1.0" encoding="UTF-8"?>
<svg id="P60-ZZT" xmlns="http://www.w3.org/2000/svg" viewBox="0 0 150 100">
  <defs>
    <style>
      .cls-1 {
        font-size: 12px;
      }

      .cls-1, .cls-2 {
        font-family: MyriadPro-Regular, 'Myriad Pro';
      }

      .cls-1, .cls-3 {
        fill: #231f20;
      }

      .cls-4 {
        stroke-width: .14px;
      }

      .cls-4, .cls-5, .cls-6, .cls-7 {
        fill: none;
        stroke: #000;
        stroke-miterlimit: 10;
      }

      .cls-2 {
        fill: #010101;
        font-size: 9px;
      }

      .cls-5 {
        stroke-width: .15px;
      }

      .cls-6 {
        stroke-width: .18px;
      }

      .cls-7 {
        stroke-width: .2px;
      }
    </style>
  </defs>
  <g>
    <g>
      <path class="cls-3" d="m87.13,69.44c-.06-.08-.04-.16,0-.24,0-.12-.02-.24-.02-.35-.2-.12-.2-.23,0-.34v-1.24s0-.06,0-.09c0-.16-.01-.32-.02-.49,0-.03.01-.06.02-.1-.01-.36-.06-.72-.02-1.09-.22-.2-.06-.47-.08-.69,0-.15.03-.32,0-.48-.1-.56.05-1.12,0-1.69-.05-.58-.02-1.16-.02-1.73,0-.09.04-.19.06-.28,0-.12,0-.24,0-.37,0-.02-.02-.03-.02-.05,0,0,.01-.01.02-.02,0-.14-.06-.29-.01-.44-.03-.05-.05-.1-.03-.16-.02-.75-.08-1.49.02-2.24-.1-.15-.05-.3-.02-.46,0-.04,0-.08.01-.13,0-.03-.01-.06-.02-.09,0-.14-.01-.28-.02-.43-.15-.14-.11-.29,0-.44,0-.07,0-.14,0-.21-.04-.1-.06-.2,0-.3,0-.05,0-.09,0-.14-.05-.1-.04-.2,0-.3,0-.12,0-.23.01-.35-.12-.13-.13-.28-.07-.44.07-.34.05-.68.06-1.02,0-.03,0-.06.01-.08,0-.07-.02-.15-.03-.22-.03-.05-.03-.09,0-.14,0-.07,0-.15.01-.22-.13-.1-.07-.25-.07-.37,0-.97,0-1.95,0-2.92,0-.05.02-.09.04-.14,0-.53-.01-1.06-.02-1.59-.09-.27-.18-.53-.02-.81,0-.46,0-.92,0-1.38-.14-.35-.07-.71-.08-1.08,0-.7.08-1.41-.07-2.11-.01-.07-.01-.15.09-.17,0-.05,0-.1,0-.14-.12-.27-.17-.53.02-.79,0-1.17-.02-2.33-.02-3.5-.15-.29-.13-.58-.01-.87,0-.14,0-.29-.01-.43-.06-.08-.05-.15.02-.22,0-.05,0-.1,0-.15,0-.02-.02-.03-.02-.05,0,0,.01-.01.02-.02,0-.17,0-.34,0-.51-.06-.07-.04-.15-.02-.23,0-.15,0-.29,0-.44-.26-.18.02-.33.03-.5,0-.19,0-.38,0-.57,0-.02-.02-.04-.02-.06,0,0,.01-.02.02-.02-.03-.17-.05-.33,0-.5,0-.03,0-.06,0-.09v-.49c-.06-.07-.04-.16-.04-.24,0-.38,0-.77,0-1.15-.07-.65-.18-1.31.05-1.96-.19-.01-.35-.2-.57-.11-.21.15-.48.08-.68.06-.68-.07-1.35,0-2.02,0-.24.08-.51.15-.55.44-.08.55-.06,1.1,0,1.66.06,0,.11.02.12.09,0,0,0,0,0,0,.05,0,.07.03.06.08.43.42.92.78,1.25,1.3.25.27.09.59.11.89.04.48-.07.88-.51,1.14-.15.12-.32.07-.48.06-.05,0-.1-.01-.15-.02-.36.07-.72.05-1.08.03-.34,0-.68,0-1.02,0-.12,0-.24,0-.36,0-.1,0-.2,0-.3,0-.05,0-.1,0-.14,0-.24,0-.48-.01-.72.02-.45.06-.77-.45-.73-.82.05-.52.09-1.02.77-1.1.02,0,.03-.03.05-.05,0-.05.02-.11.02-.16,0-.07,0-.14.01-.21-.18-.24-.16-.49-.03-.74,0-.28-.02-.55-.01-.83,0-.22.05-.46-.11-.61-.29-.3-.47-.71-.86-.92-.22-.03-.44.07-.66-.02-.05,0-.1,0-.15,0-.05.04-.09.04-.14,0-.15.05-.3.01-.45,0-.02.03-.04.03-.06,0-.1,0-.2,0-.31,0-.46.1-.91.08-1.37.04-.31.05-.39.26-.39.53,0,.14,0,.28,0,.43,0,.06,0,.12,0,.18.03.2,0,.42.24.51.41.01.82-.06,1.22.07.12.13.3.23.23.45-.17.56-.24,1.13-.28,1.71-.07.95-.8,1.59-1.51,1.58-.3.05-.6.1-.89,0-.99.09-1.97.05-2.96.04-.54,0-1.07.14-1.61.05-.51.1-1.02-.03-1.53,0-1.36.02-2.72.04-4.08.06-.15.06-.3.05-.44-.01-.04,0-.08,0-.13,0-.66.09-1.32.04-1.97.03-.05,0-.1,0-.15,0-.09.04-.19.02-.28,0-.36.11-.73.04-1.1.07-.37.03-.75-.08-1.11-.04-.87.1-1.73.02-2.6.04-.07.02-.15.03-.22,0-.05,0-.1-.01-.16-.02-.34.07-.67.07-1.01.02-.07,0-.15,0-.22,0-.31.07-.63.02-.94,0-.61,0-1.22,0-1.83.01-.02.04-.04.04-.06,0-.12,0-.25,0-.37,0-.02.03-.04.09-.07.09-.05,0-.06-.04-.07-.09-.08,0-.16,0-.24,0-.02.03-.03.03-.05,0-.4,0-.82,0-1.2.04-.65.07-1.28-.08-1.93,0-.37.05-.78-.02-1.18-.01-.34,0-.65-.03-.89-.31-.18-.03-.21-.15-.19-.31-.26-.59-.06-1.13.21-1.66-.1-.15,0-.26.08-.38,0-.07,0-.13,0-.2-.1-.2.07-.36.07-.54,0-.06-.01-.13-.02-.19.03-.17.11-.24.28-.17.25.02.47-.11.71-.14.02-.07-.04-.17.08-.21,0-.05,0-.1,0-.15-.13-.51-.06-1.02-.06-1.53,0-.17,0-.34,0-.51-.12-.29-.1-.58.01-.87,0-.22-.14-.42-.07-.65,0-.09-.05-.19.09-.23,0-.27,0-.54.01-.81-.17-.11-.16-.23,0-.35,0-.22,0-.43,0-.65,0-.03,0-.06,0-.09,0-.17,0-.33,0-.5,0-.03,0-.06,0-.08,0-.43,0-.87,0-1.3-.04-.08-.02-.15.01-.23,0-.16,0-.33.01-.49-.06-.1-.19-.19-.02-.3,0-.03,0-.05-.01-.08-.02,0-.03-.01-.05-.02.01-.02.03-.04.04-.05v-.21s-.03-.03-.04-.05c0,0,0-.02.02-.03,0-.06,0-.13,0-.19,0-.04,0-.08,0-.11,0-.23,0-.47,0-.7-.04-.06-.03-.11.02-.15.04-.24-.08-.45-.15-.65-.13-.38-.71-.63-1.17-.51-.4.1-.26.45-.28.72,0,.11,0,.22,0,.33,0,.08-.03.16-.11.17-.31.03-.64.07-.89-.13-.65-.54-1.12-1.2-1.15-2.09,0-.03.01-.06.02-.09,0-.07,0-.13-.01-.2-.02-.08-.03-.16,0-.24,0-.04,0-.08,0-.13,0-.02-.01-.04-.01-.07,0,0,.01-.02.02-.03.06-.68.41-1.21.86-1.7.23-.26.53-.22.82-.27.33-.06.5.09.42.45-.02.1-.04.19-.03.28.03.2.08.42.31.45.51.05,1.02,0,1.2-.72.03-.67-.07-1.34.04-2.01.01-.07,0-.15.07-.19.01-.02.03-.03.04-.05-.07-.11-.27-.1-.26-.28-.02,0-.04-.01-.05-.02-.02,0-.05,0-.07,0-.31.22-.67.18-1.02.21-.05.15-.17.18-.3.21-.89.17-1.74.51-2.62.72-.12.03-.11.21-.28.18-.26-.05-.52.04-.77.11-.46.13-.91.28-1.37.37-.67.14-1.32.37-1.98.54-.69.18-1.39.37-2.08.57-.44.13-.88.29-1.24.61-.5.45-.57,1.05-.58,1.66,0,.65,0,1.31,0,1.96,0,.02.02.04.02.06,0,0-.01.02-.02.02,0,.12,0,.24,0,.36.05.05.06.1.02.16,0,.07,0,.14,0,.2.07.22.05.45.02.67,0,.06,0,.13,0,.19,0,.08,0,.17,0,.25,0,.11,0,.23,0,.34,0,.2,0,.4,0,.6v.27s0,.06,0,.09c0,.26,0,.52,0,.78,0,.03,0,.06.01.09,0,.82.02,1.64.03,2.46.09.44.05.89,0,1.33,0,.06,0,.12.01.19,0,.03,0,.06,0,.09,0,.22-.01.44-.02.66,0,.02.01.05.02.07,0,.11.02.23.02.34v.09c0,.21,0,.42,0,.63,0,.03,0,.06,0,.09,0,.19-.01.37-.02.56v.1s.03.34.03.34v.09c0,.53,0,1.05,0,1.58,0,.03,0,.06,0,.09.06.75-.06,1.5.04,2.24.04.06.04.11-.01.16,0,.04,0,.08,0,.13,0,.02.02.04.02.06,0,0,0,.02-.01.03,0,.07,0,.13,0,.2,0,.03,0,.06,0,.09v.13c.06.18.08.35.01.53,0,.04,0,.09,0,.13.05.3.04.59.01.89,0,.1,0,.2.01.3.02,0,.04.01.06.02l-.05.03s-.01.05-.01.07c0,.2,0,.4,0,.6,0,.04,0,.09,0,.13v.16s0,.09,0,.13c.06.18.01.35-.01.53.02.7.03,1.4.05,2.09.04.02.05.05.02.09,0,.07-.01.14-.02.21,0,.02.02.04.02.06,0,0-.01.02-.02.02,0,.46,0,.92,0,1.38,0,.02.02.04.02.05,0,0,0,.02,0,.03,0,.04,0,.09,0,.13.1.22.02.45.02.68,0,.04,0,.08,0,.12.03.03.03.07,0,.09,0,.48.01.96.02,1.43,0,.05,0,.11,0,.16,0,.07,0,.13-.01.2,0,.03.01.06.02.09,0,.04,0,.08,0,.12,0,.03,0,.06,0,.09,0,.11,0,.23,0,.34,0,.03,0,.06,0,.09,0,.16,0,.33.01.49,0,.03,0,.06,0,.09v.2c-.01.1-.01.21-.01.31,0,.1,0,.19,0,.29.22.12.26,0,.27-.2.02-.25-.11-.53.12-.76v-.14c-.06-.05-.07-.1-.01-.16,0-.06,0-.12,0-.19-.18-.1-.11-.17.04-.22-.15-.68-.09-1.37-.04-2.06,0-.13.02-.25-.04-.36.03-.06.07-.11.1-.17-.01-.02-.02-.04-.03-.06-.08-.06-.07-.14-.05-.22,0-.04,0-.09.01-.13-.04-.1-.06-.21,0-.31,0-.17,0-.33-.01-.5.04-.1-.21-.18-.03-.3,0-.05,0-.09,0-.14v-.09c0-.07,0-.14,0-.21,0-.03,0-.05,0-.08,0-.14,0-.29-.01-.43,0-.15-.05-.3.01-.44,0-.04,0-.09,0-.13,0-.03,0-.06,0-.09,0-.12,0-.23,0-.35-.03-.06-.03-.11,0-.17,0-.05-.01-.1-.02-.14,0-.04,0-.09,0-.13,0-.1,0-.19,0-.29,0-.03,0-.06.01-.08,0-.07,0-.14,0-.21-.1-.41-.08-.83-.02-1.25,0-.04,0-.08,0-.12-.04-.18-.07-.35,0-.53,0-.04-.02-.09-.02-.13v-.09c.02-.14.03-.28.04-.42,0-.03,0-.05,0-.08,0-.07-.01-.14-.02-.21-.03-.03-.03-.07,0-.1,0-.14,0-.28,0-.41,0-.03,0-.06,0-.09,0-.04,0-.08,0-.12,0-.03.01-.06.02-.09,0-.04-.01-.08-.02-.13,0-.03,0-.06,0-.1,0-.07,0-.13,0-.2-.07-.3-.19-.59-.02-.89,0-.19,0-.38,0-.57,0-.03,0-.06,0-.09,0-.22,0-.43,0-.65-.18-.28-.07-.59-.09-.89-.03-.5,0-.99,0-1.49,0-.1-.02-.22.06-.31,0-.44.05-.88-.04-1.31-.08-.24-.04-.49-.02-.73,0-.12.01-.23.02-.35-.03-.05-.03-.11,0-.16,0-.09,0-.19,0-.28-.14-.19-.16-.39.02-.57,0-.05,0-.1,0-.15-.04-.1-.05-.2.02-.3-.01-.24-.03-.48-.04-.72.01-.05.02-.11.04-.16-.02-.07-.03-.14-.05-.22-.13-.12-.12-.24,0-.36,0-.2-.01-.39-.02-.59-.02-.02-.02-.04,0-.06,0-.43.01-.87.02-1.3,0-.06,0-.11,0-.17,0-.24-.02-.48-.02-.71-.09-.29-.05-.59-.04-.89.04-.08.04-.17.02-.25-.2-.14-.16-.29-.03-.45v-.5c-.03-.13-.01-.26.03-.39,0-.12-.02-.23-.02-.35-.17-.27-.15-.54.01-.8,0-.05-.01-.09-.02-.14-.15-.29-.14-.58-.02-.87.08-.33.06-.7.35-.95.08-.07.05-.24.22-.22.45-.27.91-.47,1.42-.59.56-.13,1.12-.29,1.66-.48.37-.13.76-.16,1.13-.28.73-.25,1.49-.44,2.25-.62.65-.16,1.29-.36,1.93-.52.75-.19,1.49-.41,2.23-.62.07-.02.14,0,.22-.01.03-.15.13-.16.25-.14.13.03.13.12.12.23-.01.17-.02.34-.03.51,0,.36,0,.72,0,1.09,0,.36-.23.52-.51.65-.13.06-.26.04-.26-.15,0-.13,0-.27,0-.4,0-.48-.31-.74-.78-.69-1,.12-1.57.74-1.92,1.62-.1.25-.14.52-.21.79,0,.02.02.04.02.05,0,0-.01.02-.02.02,0,.15-.01.29-.02.44.04.04.07.09.03.15,0,.09,0,.18,0,.27,0,.03,0,.06,0,.09.01.04.02.07.03.11.22.89.59,1.64,1.52,2.04.28.12.53.18.81.18.43,0,.59-.16.6-.58,0-.11-.01-.22,0-.33.02-.14-.08-.37.15-.38.16,0,.39.04.44.29,0,.04.04.08.07.13.24.32.12.69.11,1.04,0,.04,0,.07,0,.11,0,.06,0,.12,0,.18l.03,1.51c0,.15,0,.3-.01.45,0,.82,0,1.64.01,2.46.01.02.02.04.03.06,0,0-.01.02-.02.03,0,.05.02.09.03.14.08.15,0,.3,0,.44,0,.38,0,.76,0,1.14.23.45-.13.88-.05,1.33.01.41.14.81.05,1.22,0,.03,0,.06,0,.09,0,.07,0,.13.01.2.03.1.1.22-.06.28-.13.11-.28.07-.43.08-.1,0-.2,0-.29,0-.24.51-.33,1.07-.51,1.6.25.15-.1.2-.06.31-.06.22-.12.44-.17.67-.17.82.02,1.38,1.02,1.87,1.24-.01,2.49-.02,3.73-.03.94-.01,1.88-.05,2.82-.05,1.29,0,2.58.02,3.87.02.04,0,.09,0,.13,0,.71-.03,1.41-.06,2.12-.02l.2-.02c.04-.06.06-.04.08.01.05,0,.09.01.14.02.03,0,.06,0,.09,0h.2c.2-.06.39-.04.59-.01,1.09,0,2.18,0,3.27-.01.43-.17.88-.04,1.32-.05.73,0,1.46,0,2.19-.01.48-.15.98-.02,1.47-.07.14-.01.29,0,.43.01.04,0,.09,0,.13.01.34-.12.69-.04,1.03-.02.07,0,.14,0,.21.01.17-.05.34-.04.52-.02,1.38,0,2.76,0,4.14-.01.9,0,1.59-.49,1.92-1.32.21-.54.28-1.1.35-1.66.04-.31.17-.59.16-.91-.02-.34-.18-.5-.49-.56-.28-.05-.57-.08-.86-.07-.24.02-.4-.08-.33-.33.05-.21-.15-.43.04-.62.18-.18.41.08.6-.05.08,0,.16,0,.23,0l.13.02c.32-.07.64-.02.97-.01.04,0,.08,0,.12,0,.05,0,.11,0,.16,0,.19,0,.38,0,.57,0,.04-.02.07-.02.09.02.02,0,.03,0,.04.02l.05.07c.26.18.45.42.64.67.02.03.04.05.07.08h0c.11.14.08.29.03.44,0,.09,0,.18.01.27.03.11.02.21-.03.31l.03.2s0,.06,0,.09c0,.19,0,.38-.01.56.03.06.01.11-.03.15,0,.1-.04.14-.15.15-.3.03-.46.22-.54.5.02.06.02.12-.04.16l-.03.35c0,.08,0,.16.01.24-.06.54.16.91.67,1.1.58.03,1.16-.08,1.74.06.2,0,.39,0,.59-.01.41-.13.83-.05,1.25-.05.09,0,.19,0,.28,0,.17-.08.35,0,.52,0,.04,0,.09-.01.13-.02.05-.11.14-.08.23-.06.24-.09.44-.22.59-.43.04-.22.02-.46.13-.66.01-.09.03-.19.04-.28,0-.03,0-.06,0-.09,0-.05-.01-.09-.02-.13-.12-.25-.12-.49,0-.73-.2-.43-.53-.76-.91-1.03-.56-.4-.86-1.27-.64-1.94.05-.14.1-.31.31-.3.05-.07.13-.12.22-.11.78.1,1.56,0,2.33.03.14,0,.32-.02.25.22l-.02,1.07s0,.06,0,.09c0,.16,0,.33-.01.49.05.05.06.1.03.16,0,.2-.08.41,0,.61-.01.08-.03.16-.04.24.01.02.02.04.03.06,0,0-.01.02-.02.03,0,.04,0,.09,0,.13.03.05.03.11,0,.16,0,.09,0,.18,0,.27,0,.05,0,.11.01.16,0,.58,0,1.15,0,1.73,0,.05,0,.11,0,.16,0,.14,0,.28,0,.42,0,.08,0,.15,0,.23,0,.12,0,.23,0,.35v.16c0,.12,0,.23,0,.35,0,.03.01.05.02.08,0,.86,0,1.72,0,2.59,0,.13.02.26.02.39.06.06.06.11-.02.15,0,.1-.01.19-.02.29,0,.03,0,.06,0,.08,0,.17.01.33.02.5.11.06.08.15.05.23,0,.33,0,.66,0,1l.02.16c0,.34,0,.67,0,1.01.03.12.05.25,0,.37,0,.17,0,.33-.01.5,0,.03,0,.06,0,.09,0,.07,0,.14,0,.21,0,.03,0,.06,0,.09.08.24-.18.48,0,.71.04.11,0,.21-.02.32v.63c.04.42.14.83.09,1.25-.01.11.05.25-.13.29l-.02.15c.09.05.2.09.09.23,0,.14,0,.28,0,.42.04.03.04.06,0,.09,0,.07,0,.14.01.2.03.04.02.07-.02.09,0,.07,0,.14-.01.21.05.02.06.05,0,.08,0,.53-.03,1.06.03,1.58,0,.03,0,.06,0,.09,0,.38.06.77-.02,1.15,0,.03,0,.06.01.09.01.46.03.92.04,1.37.05.1.09.19,0,.29v.58c.04.05.07.1.01.16,0,.34,0,.67,0,1.01,0,.02.02.03.02.05,0,0-.02.01-.02.02,0,.09,0,.19,0,.28.05.03.06.06,0,.09-.06.14.02.28,0,.42.08.18.06.36,0,.54,0,.04.01.08.02.11,0,.03,0,.06,0,.09,0,.16,0,.33-.01.49,0,.03.01.06.02.09,0,.09,0,.18,0,.27.06.15.05.3.03.45-.01.19-.03.38-.04.57,0,.03,0,.06.01.1v.27s0,.06,0,.09c0,.04,0,.08,0,.13,0,.03,0,.06,0,.09,0,.17,0,.33.01.5,0,.03,0,.05,0,.08,0,.46,0,.92,0,1.38.12.09.12.19,0,.29-.06.17.01.34,0,.51,0,.02,0,.05,0,.07,0,.17,0,.34.01.51,0,.02,0,.04,0,.07,0,.07,0,.15,0,.22.03.05.04.1,0,.15,0,.05,0,.1.01.15.02.06,0,.08-.06.09.01.17-.1.35.04.51.01.01.03.02.04.04,0,0,0,.02-.01.03,0,.26,0,.52,0,.78,0,.03,0,.06,0,.09l.04.25s.04,0,.06,0c0,0-.02.02-.03.02,0,0-.02-.01-.03-.02,0,.06,0,.12-.01.18.04.08.04.16,0,.24,0,.04,0,.08,0,.13,0,.03-.01.06-.02.09,0,.14,0,.28,0,.43.05.07.05.15.03.23,0,.07,0,.13,0,.2.03.05.04.11,0,.16-.05.24-.06.47-.04.71.04.02.06.05.02.09,0,.21.02.43.03.64,0,.05,0,.11,0,.16,0,.48,0,.97.01,1.45.02.06-.01.08-.06.09,0,.11,0,.23,0,.34.21.63.15,1.27.04,1.91-.03.22-.19.38-.27.58.02.09-.02.13-.09.16,0,.01-.01.03-.02.03-.04.17-.17.21-.32.23-.09.13-.17.26-.36.23-.5.26-1.04.36-1.59.44h0c-.11.24-.36.09-.52.2-.07,0-.14.01-.22.02-.08.08-.18.07-.28.07-.11.09-.25.06-.37.08-.56.23-1.13.45-1.75.49-.74.22-1.48.45-2.22.66-.55.16-1.09.3-1.64.45-.08.08-.19.1-.3.11-.09.01-.19.02-.28.04-.07.11-.18.12-.29.13-.35.11-.71.17-1.08.22-.19.03-.15-.12-.15-.21.02-.56-.05-1.12.08-1.67-.03-.14.1-.23.16-.3.1-.12.24-.23.43-.2.22.04.04.27.18.35.01,0,0,.05,0,.07.04.28-.15.69.33.74.3.03.6.02.92-.08.65-.19,1.06-.62,1.32-1.2.51-1.17.49-2.32-.23-3.42-.44-.67-1.08-.96-1.86-.98-.26,0-.51.26-.54.58-.01.11,0,.22,0,.33,0,.14.07.33-.1.39-.15.06-.29-.05-.4-.17-.05-.05-.1-.11-.14-.16-.2-.14-.25-.31-.08-.51,0-.05-.01-.1-.02-.15-.17-.21-.15-.43,0-.64.01-.1.03-.2.04-.29,0-.03,0-.05,0-.08-.01-.04-.02-.09-.03-.13-.03-.08-.03-.16.01-.24,0-.04,0-.08,0-.13,0-.03,0-.06-.01-.09,0-.12,0-.24,0-.36-.23-.23-.07-.51-.08-.76-.02-.61-.01-1.23-.02-1.84,0-.09,0-.17.07-.23,0-.46,0-.92-.01-1.38-.07-.08-.07-.15,0-.22-.01-.31-.02-.62-.03-.93-.04-.04-.03-.08.02-.1v-.12c-.09-.06-.11-.11,0-.17,0-.09,0-.18,0-.27-.03-.03-.04-.06,0-.09,0-.07,0-.15,0-.22-.12-.17-.12-.4,0-.56,0-.19-.01-.39-.02-.58-.02-.04,0-.07.03-.09,0-.04,0-.08-.01-.12-.05-.05-.07-.1-.03-.17,0-.07,0-.13,0-.2-.02-.05,0-.07.05-.07.71-.04.69-.05.95-.74.28-.72.41-1.48.56-2.23.14-.68-.61-1.49-1.31-1.5-.9-.02-1.8-.1-2.71-.05-.38.02-.76.01-1.14.02-.03.03-.06.03-.08,0-.46,0-.92,0-1.38.01-.02,0-.05,0-.07,0-1.33.08-2.67.03-4,.06-.02.04-.05.05-.08.02-.07,0-.14,0-.21-.01-.02,0-.05,0-.07-.01-.05,0-.1,0-.15,0-.07.05-.14.05-.21.03-.05,0-.1-.02-.15-.02-.09.05-.18.06-.28.03-.17,0-.34.02-.51.02-.09.12-.19.12-.29.01-.19-.01-.39-.02-.58-.03-.1,0-.19,0-.29,0-.12,0-.24,0-.36,0-.03,0-.05,0-.08,0-.05,0-.1,0-.14.01-.02,0-.05,0-.07,0-1.09,0-2.19.02-3.28.03-.52.09-1.05.03-1.57.06-.18.01-.36,0-.54-.02-1.51,0-3.02,0-4.53.02-.54,0-1.08.1-1.61.05-.53-.05-1.05-.03-1.58-.04-.02.04-.04.04-.06,0-.07,0-.15,0-.22,0-.14.05-.29.07-.43,0-.07,0-.15,0-.22,0-.1.08-.19.07-.28-.01-.6.03-1.22-.02-1.81.1-.85.18-1.31.81-1.49,1.64-.13.62-.25,1.25-.36,1.88-.11.62.12.89.77.9.27,0,.55.05.82.08.04,0,.09,0,.1.02.1.2.06.43.04.63-.01.13-.09.29-.28.28-.54-.06-1.07.02-1.61-.02-.24-.02-.47.02-.7.03-.4.03-.62-.17-.83-.45-.1-.13-.23-.25-.34-.37-.09-.02-.09-.08-.05-.14,0-.12.01-.23.02-.35-.05-.29-.25-.58-.02-.88,0-.04,0-.07,0-.11-.02,0-.04,0-.06,0,0,0,.02-.02.03-.02,0,0,.02,0,.03.01,0-.11.01-.21.02-.32,0-.03,0-.06,0-.09,0-.04,0-.08,0-.13-.01-.04.01-.07.05-.08h0c.01-.09.06-.13.15-.14.38,0,.48-.3.57-.56.19-.55.1-1.08-.21-1.56-.14-.21-.4-.2-.61-.28-1.23,0-2.47-.02-3.7,0-.31,0-.62.04-.93.05-.48.1-.74.52-.72,1.16.01.36.02.72.03,1.08,0,.03,0,.06,0,.09v.13s.04.1.03.16c.31.3.63.58.89.92.26.09.36.32.5.52.02.01.04.02.05.02.18.23.19,1.01.02,1.3-.13.27-.32.35-.6.24-.22-.09-.45.03-.67.04-.57.02-1.14,0-1.71,0-.29-.19,0-.43-.06-.64,0-.14,0-.28,0-.42-.03-.06-.02-.11.02-.16v-.04c-.01-.07-.02-.14,0-.2.02-.06.04-.13.05-.2,0,0,0,0,0-.02,0-.01,0-.02,0-.03,0-.04,0-.08,0-.13,0-.07,0-.15,0-.22,0-.04,0-.08,0-.12,0-.02,0-.04,0-.06,0,.01,0,.02,0,.03,0,0,0-.02,0-.03-.1-.12-.06-.27-.06-.41-.06-.18-.05-.36-.01-.54,0-.04,0-.08,0-.13-.03-.06-.03-.12.02-.17,0-.06,0-.12,0-.18-.25-.24-.07-.5-.03-.75,0-.04,0-.09,0-.13-.06-.22-.14-.44-.09-.68.13-.84.09-1.68.04-2.53-.03-.06-.04-.11,0-.16,0-.24-.02-.48-.02-.72,0-.03,0-.06-.01-.09,0-.19.01-.37.02-.56,0-.03,0-.06.01-.09,0-.16-.02-.33-.03-.49,0-.03,0-.06,0-.09,0-.04,0-.08,0-.12,0-.13,0-.27,0-.4,0-.04,0-.09,0-.13-.21-.18-.01-.41-.08-.61-.01-.04.04-.09.03-.13-.02-.15-.01-.37-.2-.37-.2,0-.12.21-.14.34-.01.07-.01.14-.02.21,0,.24,0,.47,0,.71,0,.06,0,.11,0,.17,0,.04,0,.08,0,.13.04.13.04.26,0,.38,0,.04,0,.09,0,.13,0,.17.06.35,0,.52,0,.12,0,.23,0,.35,0,.08,0,.16,0,.24,0,.07,0,.13,0,.2,0,.03,0,.06,0,.09,0,.28,0,.57-.01.85,0,.03,0,.06,0,.09,0,.09.01.18.02.27.03.2.05.39-.04.58.07.04.06.1.05.15.16.26.04.55.05.82,0,.09,0,.18,0,.26,0,.03,0,.06,0,.09,0,.11,0,.23,0,.34,0,.03,0,.06.01.09,0,.58,0,1.15.01,1.73,0,.03,0,.05.01.08,0,.56,0,1.11,0,1.67,0,.02.02.04.02.06,0,0-.01.02-.02.02,0,.39,0,.77,0,1.16.1.08.11.19.12.3.11.11.25.05.38.06.4.03.79-.08,1.2-.01.43.07.89.04,1.33,0,.47-.04.73-.36.86-.8-.15-.14-.17-.28-.02-.43,0-.03,0-.06,0-.09-.02,0-.04-.02-.06-.02.02,0,.04-.02.06-.02l.02-.08s0-.06,0-.09c0-.16-.02-.33-.02-.49,0-.02-.02-.05-.02-.07-.04-.04-.08-.07-.13-.11-.11-.02-.14-.1-.15-.19,0,0,0,0,0,0-.15-.06-.25-.18-.36-.28,0,0,0,0,0,0-.05,0-.06-.03-.06-.07-.07-.13-.18-.22-.28-.32-.19-.2-.45-.33-.57-.6-.07-.05-.1-.11,0-.17,0-.36-.02-.73-.03-1.09-.1-.19-.02-.33.14-.44.11-.09.12-.26.32-.28.52-.05,1.04-.1,1.56-.08.05-.1.1-.14.18-.02.04,0,.07,0,.11,0,.06-.06.11-.04.17,0h.13c.25-.1.49-.06.74,0,.14,0,.29,0,.43,0,.31-.04.62-.15.93,0,0,0,.01.03.01.03.02.02.05.03.07.05.31-.04.54.07.65.38.05,0,.06.03.05.07,0,.07.01.13.02.2,0,.08,0,.16,0,.23,0,.12,0,.23,0,.35-.08.34-.25.56-.64.5-.26.13-.18.38-.19.59,0,.03,0,.06.01.09,0,.29-.02.57-.02.86.05.1.07.2.03.31,0,.09-.01.18-.02.28.06.1.06.2,0,.3.02.14-.02.32.13.39.21.11.32.31.49.46.15.14.27.33.55.32.95-.03,1.91-.02,2.86-.02.17,0,.34.02.46-.14,0-.06-.02-.12.06-.15,0-.05,0-.1,0-.14-.11-.34-.07-.68-.06-1.02-.06-.14-.21-.15-.31-.22-.26.03-.52,0-.78.08-.17.05-.38.04-.51-.15,0,0,0,0,0,0-.05,0-.08-.01-.07-.07-.06-.19.02-.36.07-.52.19-.65.15-1.34.37-1.98.16-.49.47-.94.97-1.02.57-.1,1.18-.08,1.77-.09,1.02-.03,2.03,0,3.05,0,1.63,0,3.26,0,4.9-.01.49-.15,1-.04,1.5-.06.13,0,.29-.07.41.06.75.02,1.51,0,2.26-.05.67-.04,1.35-.01,2.02-.02.41-.2.82-.03,1.23,0,.05,0,.1,0,.15,0,.25-.14.52-.06.77-.06.62,0,1.23-.06,1.85,0h2.69c.54-.12,1.08-.05,1.62-.07.6-.02,1.21,0,1.81,0,.05,0,.09,0,.14,0,.1,0,.2,0,.3,0,.05,0,.09,0,.14,0,.15-.03.3-.02.45,0,.67,0,1.33,0,2,0,.52,0,1.1.81.97,1.32-.19.75-.4,1.5-.59,2.26-.03.13-.09.17-.22.19-.7.09-.69.09-.76.72,0,.08.02.17.03.25,0,.07,0,.13,0,.2,0,.05,0,.11,0,.16,0,.44.01.87.02,1.31.01.02.03.03.04.05,0,0-.01.02-.02.03,0,.12,0,.23-.01.35,0,.02.02.04.03.06,0,0-.01.02-.02.03,0,.07,0,.14-.01.21,0,.02.01.03.02.05,0,0-.01.01-.02.02,0,.08,0,.15,0,.23,0,.01.02.03.02.04,0,0-.01,0-.02.02,0,.27.01.53.02.8,0,.03,0,.05,0,.08.05.27.01.53,0,.8.08.1.07.2,0,.3,0,.04,0,.08,0,.12.06.05.07.1.04.16-.02.26.03.53-.04.79.01.08.02.16.03.23l.02,1.88s0,.05,0,.08c0,.36,0,.72,0,1.09,0,.03,0,.05,0,.08.01.34,0,.67.07,1,.08.39.58.81.98.73.41-.08.44-.09.42-.74,0-.02,0-.05,0-.07,0-.46.23-.63.66-.48.09.03.16.15.25.19.98.41,1.25,1.26,1.33,2.2.07.9-.33,1.63-.96,2.24-.31.3-.87.43-1.2.27-.14-.05-.11-.13-.03-.21,0-.14,0-.28-.01-.41-.05-.08-.04-.16.02-.23,0-.24-.2-.28-.37-.3-.59-.07-1.06.35-1.09.95,0,.05,0,.1,0,.16,0,0,0,0,0,0,.02,0,.04.02.06.03-.02,0-.04.02-.06.02,0,.2,0,.39-.01.59,0,.08,0,.16,0,.24,0,.04,0,.08,0,.13,0,.03,0,.06,0,.09,0,.23,0,.47,0,.7.15.31.44.23.69.24.09-.01.18-.02.27-.04.17-.02.26-.26.47-.18.88-.24,1.74-.54,2.63-.75.87-.21,1.74-.48,2.59-.76.9-.29,1.82-.54,2.72-.79.51-.14,1.04-.25,1.55-.41.39-.12.79-.26,1.05-.62.02-.12.1-.16.21-.18l.03-.35c-.05-.13-.07-.26.11-.31,0,0,0,0,0,0-.01-.06,0-.12.06-.14l.03-.5s0-.06,0-.09c0-.6-.02-1.21-.03-1.81Z"/>
      <path class="cls-3" d="m79.65,44.32s.01.09.02.14c0,.03-.02.06-.03.09,0,.1-.06.21.06.28,0,.06-.02.11-.02.17,0,0-.02.03-.02.03-.13.13-.13.17,0,.24,0,.48.02.96.03,1.44-.07.48-.05.96-.04,1.44,0,.47-.03.95.08,1.42,0,.07,0,.14,0,.21-.04.08-.01.16.02.24,0,.28,0,.56,0,.84-.05.22-.19.45,0,.67,0,.17,0,.33,0,.5,0,.03,0,.06,0,.09,0,.16,0,.33,0,.49-.07.06-.12.13-.11.22-.07.11-.15.2-.28.23-.34,0-.69.01-1.03.02-.07,0-.14,0-.21,0-.73,0-1.46-.04-2.18.04-.66,0-1.31.01-1.97.02-.97,0-1.93,0-2.9,0-.06,0-.11.03-.17.05-.76-.03-1.52.08-2.28-.04-.28-.04-.58.08-.88.12-.13.02-.26,0-.4,0-.37-.13-.74-.04-1.11-.04-.04,0-.09,0-.13,0-.55,0-1.11-.02-1.66,0-.44.01-.88-.03-1.31.07-.38.18-.74-.06-1.12-.02-.62.07-1.25-.03-1.87.07-.73-.13-1.47-.06-2.2-.03-.07,0-.14,0-.2,0-.03,0-.06,0-.09.01-.09,0-.19,0-.28,0-.06-.04-.11-.04-.16.02-.09,0-.18,0-.27,0-.27-.09-.55-.05-.82,0-1.49,0-2.97,0-4.46,0-.31,0-.61.1-.92,0-.02,0-.05,0-.07,0-.05,0-.09,0-.14,0-.05,0-.11,0-.16,0-.12,0-.23,0-.35,0-.07,0-.15,0-.22-.01,0,0,0,0,0,0,0-.02-.01-.03-.02-.05-.02.02-.03.03-.05.05-.22,0-.43.01-.65.02-.1,0-.19-.02-.29-.03-.37-.22-.35-.6-.37-.95-.02-.29,0-.57,0-.86,0-.02,0-.05,0-.07,0-.17,0-.34,0-.51,0-.02,0-.05,0-.07,0-.05,0-.09,0-.14,0-.03,0-.05,0-.08,0-.29,0-.57-.01-.86,0-.05,0-.11-.01-.16,0-.14,0-.28,0-.42,0-.05,0-.11,0-.16,0-.05.01-.1.02-.15.02,0,.04-.01.06-.02-.02,0-.04-.02-.06-.02,0-.03,0-.06,0-.1.02,0,.04-.02.06-.03-.02,0-.04-.02-.06-.03,0-.05-.01-.1-.02-.14,0-.03,0-.06,0-.09,0-.04,0-.08,0-.12,0-.06,0-.12,0-.18,0-.14.02-.28.02-.41,0-.03-.01-.06-.02-.09,0-.26,0-.52,0-.78,0-.03,0-.06,0-.09,0-.04,0-.08,0-.13,0-.03,0-.06,0-.09,0-.11,0-.23-.01-.34,0-.03,0-.06-.01-.1,0-.16,0-.33.01-.49,0-.03-.01-.06-.02-.09,0-.14,0-.27,0-.41.02-.26.06-.52,0-.77,0-.03,0-.07.01-.1.04-.54.07-1.09-.06-1.63,0-.14,0-.28.01-.42,0-.03,0-.05.01-.08,0-.07-.02-.14-.02-.21,0-.03,0-.06,0-.09,0-.09,0-.18,0-.28,0-.03,0-.06,0-.09.04-.75.02-1.49-.01-2.24,0-.03,0-.06,0-.09,0-.04,0-.08,0-.13,0-.03,0-.06,0-.09,0-.07,0-.13,0-.2,0-.3,0-.59,0-.89,0-.12,0-.23,0-.35,0-.03.01-.06.02-.09.16-.58.62-.62,1.1-.6.03,0,.05,0,.08-.01.12,0,.24,0,.36.01.03,0,.05,0,.08,0,.99-.01,1.98-.03,2.97-.04.12.21.25.17.39.01.61.02,1.23.04,1.83.01,1.52-.07,3.04.01,4.56-.06.09.04.19.03.29,0,.05,0,.1,0,.15,0,.05,0,.1,0,.15-.01.24,0,.49,0,.73,0,.17.02.34.04.5-.02.12,0,.24,0,.36,0,.09.07.2,0,.29.01.68-.01,1.37-.03,2.05-.04.82.04,1.64.02,2.46-.02.1,0,.2,0,.3,0,.02.03.05.03.08,0,.73-.09,1.46-.03,2.2-.05.46-.01.91,0,1.37-.01.2,0,.37.02.53.14-.04.16-.22.14-.31.23-.73,0-1.45,0-2.18.01-.35-.07-.7-.03-1.05-.01-.69.04-1.39-.04-2.08.05-.05,0-.1,0-.15,0-.06-.03-.11-.03-.16.02-1.04.01-2.08.02-3.12.03-.1,0-.2,0-.31,0-.04,0-.09,0-.13,0-.32,0-.64-.08-.96.05-.1,0-.2,0-.3.01-.21-.14-.43-.04-.65-.04-.05,0-.09,0-.14,0-.59,0-1.17-.08-1.76.03-.56,0-1.12,0-1.67.01-.45-.09-.91-.08-1.36,0-.05,0-.11,0-.16.01-1.06-.09-2.13,0-3.19-.02-.42,0-.85-.09-1.26.07-.07,0-.14,0-.2,0-.36-.09-.73-.11-1.09,0-.08.01-.16.03-.17.13-.2.02-.17.19-.2.32-.05.27.07.52.07.79,0,.91-.03,1.82,0,2.73,0,.35-.11.72.09,1.06,0,.17-.02.34-.03.51,0,0,0,.02,0,.02,0,.01.01.03.02.04.01.37.03.73.04,1.1-.1,0-.11.08-.11.16,0,.64,0,1.29,0,1.93,0,.07,0,.15.1.16v.16c-.06.19-.16.38-.01.58,0,.14,0,.29,0,.43-.03.06-.01.11.03.16,0,.04,0,.09,0,.13,0,.03,0,.06,0,.09-.01.08-.02.17-.04.25h-.03s.03,0,.03,0c.1.4-.03.8.05,1.2,0,.03-.01.06-.02.09,0,.33,0,.66,0,1-.05.04-.03.06.02.08,0,.09.01.19.02.28,0,.03,0,.06,0,.09,0,.05-.01.09-.02.14,0,0,0,.02,0,.03,0,.02.01.03.02.05,0,.19,0,.38,0,.57,0,.2-.21.38-.04.59l.02.65s.01.07.06.08h0c-.01.35.25.27.44.27.71,0,1.42,0,2.13-.03.77-.03,1.54.04,2.31-.04.13,0,.25,0,.38,0,.46.02.92.11,1.37-.01.07,0,.15,0,.22,0,.12.02.24.06.36.01.05,0,.1,0,.15,0,.17.04.34.05.5,0h.22s.09,0,.14.01c.37,0,.74,0,1.1,0l2.76-.02c.53.05,1.08.04,1.6,0,.71-.06,1.42,0,2.13-.04.58-.04,1.16-.03,1.74-.04.1,0,.19,0,.29,0,.05,0,.1,0,.15,0,.29,0,.58.1.86-.03,1.58,0,3.16-.01,4.74-.02.68,0,1.36.05,2.03-.05.99,0,1.99,0,2.98,0,.29,0,.58-.02.87.02.36.04.7,0,1.02-.18.08-.06.07-.13.01-.2v-.29s.03-.02.03-.02c0-.02-.01-.04-.02-.06v-.36s.02-.02.02-.02c0-.02,0-.04-.01-.06,0-.04,0-.09,0-.13,0,0,.02-.02.01-.03,0-.02-.02-.03-.04-.04,0-.15.01-.3.02-.44,0,0,.02-.02.01-.03,0-.02-.01-.04-.02-.05,0-.12,0-.24.01-.35,0,0,.02-.02.02-.03,0-.02-.02-.04-.03-.05,0-.8-.01-1.6-.02-2.4.03-.08.02-.16-.02-.23.01-.12.03-.24.04-.35,0,0,0-.02,0-.03,0-.02-.01-.03-.02-.05,0-.38,0-.77-.01-1.15l-.02-.09.04-.21s.03-.03.05-.05l-.05-.02c0-.19-.02-.38-.03-.57.03-.14-.03-.26-.06-.39.02-.24.03-.47.05-.71.05-.08.03-.16,0-.23,0-.07.01-.13.02-.2,0-.03-.01-.06-.02-.09,0-.09,0-.18,0-.27,0-.03-.02-.07-.03-.1,0-.36,0-.71-.01-1.07,0-.03,0-.06,0-.09,0-.26,0-.52,0-.78.03-.05.03-.11-.01-.15-.03-.22.08-.44,0-.65,0,0,.02-.02.02-.02,0-.02-.02-.03-.03-.05,0-.87,0-1.74,0-2.62,0-.15,0-.3,0-.46,0-.09,0-.18,0-.27.01-.05,0-.08-.06-.08-.09-.04-.09-.18-.21-.2-.03.01-.06.03-.09.04-.04,0-.08-.01-.12-.02-.39-.02-.79-.11-1.18.03-.61-.05-1.21-.02-1.82.01-.37-.03-.74-.03-1.1,0-.12,0-.24,0-.35,0-.12,0-.24-.02-.36-.02-.78,0-1.56,0-2.35,0-.12,0-.28.04-.3-.16,0-.12.08-.14.19-.14.23,0,.47,0,.7,0,.41.17.82-.03,1.24,0,.05,0,.1,0,.15,0,.22.03.44.05.65-.01.19,0,.38-.01.57-.02.2.1.4.08.6,0,.07,0,.14-.02.21-.02.05.05.09.03.14,0,.1.03.2.04.3,0,.17.04.33.05.5,0,.1,0,.2,0,.31,0,.09.06.19.06.28,0,.05,0,.11,0,.16-.01.02.01.04.02.06.03.61-.07,1.23-.07,1.84.03.28.05.4.24.39.51-.07.15-.06.3,0,.45,0,.16,0,.33-.01.49-.12.28-.2.56,0,.84.01.5.02,1,.03,1.5,0,.02,0,.05,0,.07,0,.44,0,.87,0,1.31,0,.03,0,.05,0,.08,0,.07,0,.14,0,.21,0,.03,0,.05,0,.08,0,.07.01.13.02.2,0,.05-.01.11-.02.16,0,.36,0,.73.01,1.09-.1.24-.18.48,0,.72Z"/>
      <path class="cls-3" d="m36.71,44.7c0-.05.13-.08.03-.15-.18-.36.02-.72,0-1.08-.02-.39-.12-.78-.06-1.17.08-.04.06-.1.03-.16,0-.04,0-.08,0-.13,0-.03,0-.06,0-.09,0-.11,0-.23,0-.34,0-.03,0-.06-.01-.09,0-.07,0-.13,0-.2,0-.03,0-.06,0-.09,0-.07,0-.13.01-.2,0-.03,0-.06-.01-.09,0-.16,0-.33,0-.49,0-.05,0-.11,0-.16,0-.11-.01-.22-.02-.33.03-.06.06-.11,0-.17,0-.7,0-1.41-.01-2.11,0-.03,0-.05,0-.08,0-.41,0-.82,0-1.23,0-.06,0-.11,0-.17,0-.06,0-.13,0-.19,0-.06,0-.11,0-.17.04-.55.15-.64.71-.65.4,0,.81-.05,1.21-.08.07,0,.14,0,.21.01.03,0,.06,0,.08,0,.34.02.67.03,1.01-.01.47,0,.94.01,1.41.02.1,0,.19-.02.27-.08.12.07.21.25.37.07.07,0,.14-.01.21-.02.03,0,.06.01.08.02.05-.02.1-.04.15-.06.26.09.52.1.78.01.09.1.21.07.31.06.39-.07.66.1.86.41.11.17.27.3.39.45.48.59,1.15.76,1.85.87.2.03.4.08.59.12,0,.06.02.1.09.12.02.03.05.05.07.08-.03.39.04.78,0,1.17-.02.18-.06.41.1.58,0,.09,0,.19,0,.28,0,.03,0,.06,0,.08,0,.12.02.23.02.35-.05.15-.05.3,0,.45,0,.08,0,.15-.01.23-.02,0-.04,0-.06.01.02,0,.04,0,.06.01,0,0,.02.02.02.02-.02.1-.06.2-.02.31,0,.04,0,.09,0,.13-.03.08-.02.16.02.23,0,.19,0,.38-.01.57,0,.03,0,.06,0,.09,0,.24,0,.48.01.73-.16.05-.15.12-.02.21,0,.05.01.09.02.14-.03.03-.03.07,0,.1,0,.14.01.27.02.41-.06.03-.06.06,0,.09,0,.17.01.34.02.51,0,.19-.31.36-.04.57,0,.04-.01.08-.02.12,0,0-.02-.02-.03-.02,0,0-.02.01-.03.02.02,0,.04,0,.05,0,.1.25,0,.5.04.75-.07.75-.05,1.5-.05,2.25,0,.05.03.09.08.1,0,.05.01.1.02.16-.08.38-.2.76-.04,1.14,0,0,.02,0,.03.01,0,.07,0,.15-.01.22-.13.1-.13.19,0,.29.01.46.02.92.03,1.37-.03.72-.03,1.43,0,2.15-.06.21-.19.37-.41.43-.05,0-.11,0-.16,0-.07,0-.14,0-.21,0-.88-.01-1.75-.04-2.63.04-.05,0-.1,0-.15,0-.41-.08-.83,0-1.24-.04-.49-.19-.44-.69-.58-1.07-.08-.23-.09-.49-.16-.73-.05-.16-.1-.35-.34-.33-.14.01-.34-.07-.33.2,0,.03,0,.06,0,.09,0,.07,0,.13-.01.2-.1.37-.19.73,0,1.1,0,.1,0,.19,0,.29-.01.03-.03.05-.04.08-.54.21-1.11.31-1.68.21-.39-.07-.41-.38-.37-.71,0-.06,0-.11,0-.17,0-.14,0-.28,0-.42,0-.03-.01-.06-.02-.09,0-.02.01-.03.03-.03,0,0,.02,0,.02,0,0,0-.02,0-.02,0,0-.23,0-.46,0-.68.01-.05,0-.07-.06-.08-.37-.1-.49.1-.58.43-.14.47-.2.97-.4,1.42-.09.21-.58.46-.85.39-.27-.07-.5-.2-.51-.55,0-.22-.11-.44-.05-.67.04-.02.06-.04.04-.09,0-.06,0-.13,0-.19,0-.06,0-.12.01-.17,0-.12,0-.23.01-.35,0-.01.01-.02,0-.03,0-.02-.01-.04-.02-.06,0-.36,0-.72,0-1.07.01-.04,0-.07-.05-.08,0-.34,0-.68,0-1.02,0,0,.03-.01.03-.02,0-.02,0-.04-.01-.06,0-.17,0-.33,0-.5.07-.34.04-.68,0-1.01,0-.46,0-.92-.01-1.38,0-.03,0-.06,0-.08.05-.36-.02-.72,0-1.08,0-.03,0-.06,0-.09,0-.09-.01-.18-.02-.28Zm4.2,7.33l.02-.02v-.02s0-.05-.01-.07c.04-.05.07-.1.03-.17,0-.07,0-.13,0-.2,0-.05,0-.11,0-.16.02-.13-.02-.27.09-.38.36-.32,1.1-.12,1.23.34.11.39.22.77.3,1.16.08.42.31.6.73.55.04.1.09.11.15,0,.34-.01.67-.02,1.01-.04.08,0,.16,0,.23,0,.36,0,.72,0,1.08,0h.08c.07,0,.14,0,.21,0,.2,0,.4.06.6-.01.09,0,.18,0,.28.01.05.01.07,0,.06-.05.1-.1.19-.2.15-.36,0-.03,0-.06,0-.09,0-.14,0-.28,0-.42,0-.03,0-.06,0-.08,0-.16-.01-.33-.02-.49,0-.03,0-.06,0-.09,0-.65,0-1.3,0-1.95.02-.06.03-.12-.02-.17,0-.26,0-.52,0-.78.07-.1.08-.21,0-.31,0-.09.02-.18.03-.27v-.09c-.07-.67.05-1.35-.05-2.02,0-.1.13-.2,0-.3,0-.15,0-.29,0-.44.02,0,.03-.01.05-.02-.02-.02-.03-.03-.05-.05,0-.02-.01-.05-.02-.07,0-.03,0-.06,0-.09v-.35s0-.06,0-.09c0-.09,0-.19,0-.28,0-.03,0-.06,0-.09,0-.04,0-.09,0-.13v-.09s.02-.05.02-.07c.02-.01.03-.02.05-.03-.02,0-.03-.02-.05-.03h0c0-.08-.01-.16-.02-.23,0-.24,0-.48,0-.71,0-.01.02-.02.01-.03,0-.02-.02-.04-.02-.07,0-.04,0-.08-.01-.13,0-.05.01-.1.02-.16,0-.09,0-.18,0-.27.04-.2.07-.41-.01-.61-.01-.09-.02-.17-.03-.26.14-.32.05-.65.05-.97,0-.21,0-.42,0-.64.02-.05-.01-.07-.05-.08,0-.7.02-1.4.02-2.1,0-.01.02-.02.02-.03,0-.02-.02-.04-.03-.06-.05-.16-.17-.2-.33-.21-.96-.08-1.82-.38-2.45-1.15-.02-.18-.15-.28-.28-.38-.05-.05-.09-.1-.14-.15-.1-.11-.23-.15-.39-.15-.43.01-.87.02-1.3.02-.02,0-.04,0-.06,0-.44,0-.88,0-1.32,0-.02,0-.04,0-.07-.02-.02-.02-.03-.03-.05-.05,0,.02-.01.03-.02.05,0,0,0,0,0,0-.6,0-1.21-.03-1.81,0-.51.03-1.03-.07-1.54.06-.03.02-.05.04-.08.06-.08.02-.16.05-.13.16,0,.63,0,1.26,0,1.89-.1.02-.08.1-.08.17.02.46-.05.92.09,1.36,0,.04,0,.09,0,.13l.02.09c-.05.26-.03.52-.02.78,0,.03,0,.06,0,.09,0,.26.01.52.02.77-.09.3.01.6-.03.9.11.17-.02.34,0,.51.04.73.05,1.45.07,2.18,0,.07,0,.15,0,.22,0,.66.02,1.31.02,1.97-.13.13-.16.25.02.35,0,.46,0,.92,0,1.38,0,.03,0,.06,0,.09,0,.19.01.38.02.56-.03.03-.03.07,0,.1-.02.34-.04.67.01,1.01,0,0-.02.02-.02.02,0,.02.01.04.02.05-.08.43.05.86-.01,1.29,0,0-.02.02-.01.03,0,.02.02.04.03.06,0,.1,0,.19,0,.29-.07.05-.05.1,0,.15,0,.09,0,.19,0,.28-.06.05-.07.11,0,.16.01.21-.04.44.27.5.32.06.4-.16.46-.36.07-.25.13-.5.21-.74.11-.33.12-.69.31-.99.36-.01.72-.01,1.08.07,0,.02,0,.04.01.07.02.29-.03.59.05.88,0,.07,0,.14,0,.22-.15.89-.1.96.59.86.19,0,.39,0,.58,0,.08.02.18.07.19-.07,0-.04,0-.08,0-.12,0-.08,0-.16,0-.24,0-.16-.02-.33-.03-.49,0,0,.02-.02.02-.03,0-.02-.02-.04-.02-.06h0Z"/>
      <path class="cls-3" d="m76.52,63.32s0-.09,0-.13c.03-.05.04-.11,0-.16-.03-.46.13-.88.21-1.32.12-.71.36-1.37.5-2.07.21-1.06.51-2.11.8-3.16.11-.4.2-.8.29-1.2.04-.18.12-.36.3-.46.13,0,.25-.05.35-.14.08,0,.15-.01.23-.02.04,0,.08,0,.13,0,.63-.03,1.27.08,1.9-.03.07,0,.15,0,.22.01.1,0,.2,0,.29,0,.03,0,.05,0,.08,0,.1,0,.19,0,.29.01.22.12.43.12.65,0,.15,0,.29-.02.44-.03.12,0,.24,0,.36.01.12,0,.24,0,.36-.01.05,0,.1,0,.15-.01.12.01.24.03.36.04.08.15.15.02.22-.01.23,0,.24.24.36.35-.07.15-.06.28.06.4,0,.04,0,.07-.01.11,0,.11,0,.21.01.32-.01.07-.03.14-.04.21,0,.42.03.84,0,1.26-.02.27-.07.53.06.79,0,.09,0,.18,0,.28,0,.03,0,.06,0,.08,0,.75,0,1.5,0,2.25,0,.03,0,.06,0,.09,0,.1.02.19.03.29-.15.24-.17.48,0,.72,0,0-.02.02-.03.03-.02,0-.04,0-.06,0,.02,0,.04,0,.06,0,.01.03.02.06.03.1,0,.03-.01.06-.02.09,0,.53,0,1.05,0,1.58-.03.06-.02.11.02.16-.02.15-.02.29.02.44-.04.02-.05.04-.03.08-.04.12,0,.23.02.35,0,0-.02.02-.02.02,0,.02.02.04.03.06,0,.05,0,.09,0,.14-.05.02-.05.05,0,.08,0,.14-.01.28-.02.42,0,.03,0,.06,0,.09,0,.14,0,.28,0,.41,0,.03,0,.06.01.1.02.56.03,1.11.05,1.67-.16.08-.12.18-.02.29,0,.05.02.1.03.15-.14.11-.15.18-.04.29,0,.29.02.58.03.86,0,.08,0,.16,0,.24,0,.14,0,.29,0,.43-.13.31-.13.63,0,.94,0,.38.04.83-.45.93-.5.11-.98.32-1.48.41-.84.16-1.65.45-2.47.67-.52.14-.87-.02-.94-.41,0-.03,0-.06,0-.09,0-.36,0-.72-.01-1.07.01-.04,0-.07-.05-.08,0-.05-.01-.09-.02-.14.01-.05,0-.07-.05-.09-.12-.57-.43-1.06-.69-1.57-.25-.5-.73-.78-1.1-1.15-.2-.2-.52-.26-.79-.39-.33-.16-.55-.34-.54-.75,0-.41-.1-.82-.02-1.23.04-.08.04-.16,0-.23-.01-.67-.02-1.35-.03-2.02.04-.1.04-.21,0-.31Zm8.24-5.53c0-.07,0-.14,0-.2.06-.3.03-.59-.02-.89,0-.26-.02-.52-.03-.79,0-.03,0-.06,0-.09,0-.09,0-.18,0-.28.02-.13.05-.26-.04-.39-.04-.11-.14-.13-.23-.18-.76,0-1.52-.02-2.28,0-.38.01-.77-.06-1.14.05-.58,0-1.16,0-1.74,0-.28,0-.58.07-.59.39-.02.82-.41,1.55-.55,2.34-.11.61-.36,1.22-.53,1.83-.18.67-.26,1.37-.46,2.03-.17.56-.32,1.11-.27,1.71-.04.02-.08.06-.06.1,0,.02.05.02.08.04,0,.05,0,.1.01.15-.05.08-.06.15,0,.23,0,.11,0,.23.01.34-.08.08-.09.16-.01.25,0,.23,0,.46,0,.69-.04.03-.05.06-.02.1,0,.31,0,.62.01.92-.03.04-.02.07.02.1,0,.16,0,.33,0,.49-.05.08-.09.15,0,.23-.03.41.25.51.56.66,1,.46,1.77,1.19,2.21,2.22.26.61.59,1.21.5,1.92-.13.19-.06.39-.04.58.02.14.16.26.32.21.25-.08.54-.07.76-.27,1.03-.18,2.01-.54,3.03-.76.34-.07.67-.24.59-.7.03-.1.04-.2,0-.31,0-.07,0-.13,0-.2.02-.2.04-.41,0-.61,0-.04,0-.08,0-.12,0-.03-.01-.06-.02-.09,0-.29,0-.57,0-.86.03-.1.05-.2,0-.31,0-.04,0-.09-.01-.13,0-.03,0-.06.01-.09,0-.09,0-.18,0-.27,0-.03,0-.06,0-.1,0-.14,0-.28,0-.41.03-.06.03-.11,0-.16,0-.04,0-.09-.01-.13.04-.06.04-.11,0-.16.05-.67-.12-1.34-.06-2.01.05,0,.07-.03.06-.08,0-.22-.02-.44-.02-.65,0-.03,0-.06,0-.09,0-.31,0-.62,0-.93.03-.15.07-.3,0-.45,0-.19,0-.38,0-.57.04-.08.02-.16,0-.24,0-.38,0-.76,0-1.14.03-.11,0-.22-.02-.32,0-.06,0-.13,0-.19,0-.03,0-.06,0-.09,0-.09-.01-.18-.02-.27.04-.08.04-.16,0-.24,0-.16,0-.33,0-.49.03-.03.03-.06,0-.09.08-.36-.08-.72.03-1.07,0-.05,0-.11,0-.16Z"/>
      <path class="cls-3" d="m44.04,32.23c-.1.13-.01.25.04.36-.36.17-.21.54-.33.81-.12.28-.19.57-.53.66-.07,0-.15,0-.22,0-.07,0-.14,0-.21,0-.66-.11-1.32-.02-1.98-.05-.47-.02-.96,0-1.44.04-.34.03-.7-.1-1.03.06-.05,0-.09,0-.14,0-.39-.12-.78-.04-1.17-.06-.24,0-.34-.14-.37-.37-.03-.22-.1-.43-.05-.66.11-.08.06-.2.06-.3,0-.69.01-1.38,0-2.08-.01-.55.07-1.1-.09-1.64,0-.43,0-.85,0-1.28,0-.04,0-.07,0-.11,0-.31,0-.61,0-.92,0-.03,0-.06,0-.1,0-.07,0-.13,0-.2,0-.83,0-1.67-.01-2.5,0-.08-.02-.17-.03-.25,0-.11,0-.23,0-.34,0-.04.02-.07.03-.11,0-.3.05-.6-.04-.89,0-.33,0-.67-.01-1,.04-.08.03-.16,0-.24,0-.07,0-.13,0-.2,0-.32.05-.64-.01-.96,0-.12,0-.23.01-.35.03-.08.04-.15.01-.23,0-.12-.02-.23-.03-.35,0-.03,0-.06,0-.1,0-.41.2-.64.6-.76,1.14-.33,2.29-.61,3.42-.93.21-.06.43-.15.65-.18.28-.04.57.01.68.35,0,.17-.02.33,0,.5.03.42-.05.86.21,1.25,0,.48.32.83.55,1.21.52.86,1.26,1.49,2.18,1.89.14.06.34.08.35.31.02.15-.1.32.07.45.02.24.03.48.05.72-.05.07-.05.15-.02.23,0,.04,0,.08,0,.12,0,.03.01.06.02.09,0,.14-.01.28-.02.42,0,.03,0,.06,0,.09.01.19.03.38.04.57-.07.12-.09.24-.02.37,0,.04,0,.09,0,.13-.05.03-.05.06,0,.09,0,.26,0,.53,0,.79-.11.05-.11.1,0,.16-.01.81-.22,1.57-.43,2.34-.11.41-.27.82-.28,1.27-.01.32-.21.62-.27.94-.06.3-.23.57-.22.89Zm-2.55-14.71s-.03-.07-.07-.06c-.07-.02-.14-.07-.2-.06-.56.06-1.08.29-1.63.41-.54.12-1.08.28-1.61.47-.36.13-.83.01-1.07.44-.08.02-.16.06-.13.14.11.3,0,.63.12.93,0,.05,0,.09.01.14-.03.12-.1.21-.1.34,0,.59-.03,1.18.02,1.76.02.22-.14.47.07.67,0,.05.02.09.02.14,0,.08-.02.15-.03.23.01.12.03.24.04.35-.04.08-.05.15-.01.23,0,.12.01.24.02.36-.11.22-.06.44-.01.66,0,.19.01.38.02.57-.07.09-.07.2-.04.3,0,.24.02.48.03.71,0,.03,0,.06,0,.09l.03.51c-.05.07-.08.14-.03.22,0,.09.01.19.02.28-.07.07-.06.15-.01.23,0,.19.01.38.02.57-.11.46-.12.92-.01,1.38.01.34.03.67.04,1.01,0,.03,0,.06,0,.09,0,.04,0,.08,0,.12,0,.03,0,.06,0,.09,0,.14,0,.28,0,.42,0,.03,0,.06-.01.09,0,.07,0,.13.01.2,0,.03,0,.06,0,.09,0,.38,0,.76,0,1.15,0,.08,0,.16,0,.23.02.19-.08.39.08.56-.01.1.02.15.13.13.05,0,.09.01.14.02.14.04.29.04.43,0,.07,0,.15,0,.22.01l.03.02h.03c.83,0,1.66,0,2.48-.07.02,0,.05,0,.07,0,.1,0,.2.01.3.02.08.04.15.03.21-.02h.6s.05.02.07.03c.4-.01.8-.03,1.2-.04.18,0,.34-.06.37-.22.05-.29.19-.56.16-.87v-.07c.06-.17.19-.32.2-.5.08-.1.08-.21.05-.32.03-.03.07-.06.1-.09.01,0,.02-.02.04-.02,0,0-.02,0-.02-.01,0-.04,0-.08.01-.12,0-.06,0-.13,0-.19.23-.9.48-1.8.7-2.7.13-.54.35-1.06.28-1.63v-.09c0-.36,0-.72,0-1.08.03-.08.04-.15,0-.23,0-.07.01-.14.02-.21.02-.02.03-.03.05-.05-.02,0-.03-.02-.05-.03,0-.24-.02-.48-.02-.72,0-.03,0-.06,0-.09,0-.07,0-.14,0-.21.01-.01.03-.02.04-.03-.02-.01-.04-.02-.06-.03.01-.31.05-.63,0-.94,0-.06,0-.11,0-.17,0-.11,0-.23,0-.34.02-.05,0-.07-.05-.08-.24-.15-.54-.2-.76-.34-.96-.59-1.71-1.36-2.17-2.43-.17-.41-.22-.84-.36-1.25.03-.15.02-.3.04-.45.03-.21.11-.46-.1-.64h0Z"/>
      <path class="cls-3" d="m84.97,44.03c-.08.01-.08.06-.08.13.03,1,.05,2,.07,3,0,.35.04.7-.07,1.04-.03.08-.04.2.12.21.01.68.02,1.36.03,2.04-.14.07-.14.14,0,.22,0,.17.01.33.02.5,0,.03,0,.06,0,.1,0,0-.02.02-.02.02-.02,0-.04,0-.06.01h.06c0,.06.02.12.03.17-.16.19-.17.39-.02.59,0,.07,0,.15,0,.22-.19.33-.04.69-.08,1.03-.04.4-.48.45-.63.39-.28-.11-.49.04-.73.04-.18,0-.36,0-.54-.01-.04-.06-.1-.06-.16-.06-.61,0-1.21,0-1.82.01-.33-.08-.39-.35-.42-.64-.01-.13-.01-.27-.02-.4,0-.05,0-.1,0-.15,0-.53,0-1.06,0-1.59,0-.03,0-.06,0-.08,0-1.52-.01-3.05-.02-4.57,0-.57,0-1.13,0-1.7-.1-.18-.05-.38-.06-.57.17-.18.07-.4.06-.59-.02-.51.08-1.02-.08-1.52,0-.05,0-.09,0-.14,0-.03,0-.06,0-.09.03-.77.05-1.54-.02-2.31,0-.05,0-.11,0-.16,0-.02.02-.05.03-.07.02,0,.04-.02.06-.03-.02-.01-.04-.02-.06-.03,0,0,0,0,0,0-.01-.05-.02-.11-.03-.16,0-.26,0-.52.01-.78,0-.05,0-.11,0-.16,0-.09,0-.18,0-.27,0-.05,0-.11,0-.16,0-.06,0-.12,0-.18.02-.62.06-.67.68-.82.04,0,.09,0,.13,0,.22,0,.44,0,.66.01.07.06.15.03.23.03.61-.06,1.22-.05,1.83-.04.62,0,.78.15.81.77.03.64.02,1.27.03,1.91-.06.06-.05.11,0,.16,0,1.06.01,2.12.02,3.19,0,.05,0,.11,0,.16,0,.21,0,.43,0,.64,0,.03,0,.06,0,.09,0,.21,0,.43,0,.64Zm-4.09-6.95h-.03s.02,0,.03,0c.01.23.03.47.04.7-.07,0-.12.04-.12.11,0,.26,0,.51.01.77.12.29.09.62.1.92.04,1.22.01,2.44.01,3.65-.09.18-.14.35.06.5.06.38-.15.77.06,1.14,0,.04.02.07.02.11-.02,0-.04,0-.05.02-.11.02-.16.1-.16.21.01.38,0,.77.04,1.14.06.49,0,.99.02,1.48.02.43.05.86.09,1.3,0,.58,0,1.16.01,1.74,0,.03.01.06.02.09,0,.11,0,.23-.01.34-.03.11-.07.23-.08.34-.02.19-.12.41.11.55-.05.21,0,.43-.01.65-.01.48.04.51.53.51.39,0,.77-.01,1.16-.02.12-.01.23-.02.35-.04.06,0,.11,0,.17,0,.04,0,.08,0,.13,0,.06,0,.11,0,.17,0,.06.03.13.03.19,0,.06,0,.12.01.18.02.07.19.13.05.19,0,.08,0,.16,0,.24-.01.04.04.07.02.1-.02.24-.09.21-.29.2-.49,0-.03,0-.06,0-.09l.02-.35c.05-.11.06-.21-.04-.3l-.03-4.64c0-.06,0-.12,0-.17,0-.45,0-.9,0-1.36.05-.15.05-.31-.01-.46,0-.11,0-.23,0-.34.03-.05,0-.07-.04-.07,0,0,0,0,0,0,0-.06-.01-.11-.02-.17.02-.38.11-.75.07-1.14.04-.11.04-.22,0-.32-.02-1.96-.05-3.91-.07-5.87,0-.03,0-.06,0-.09,0-.09,0-.18,0-.27.02-.07.01-.12-.06-.15-.07-.13-.18-.19-.33-.17-.89.07-1.78.02-2.66.02-.18,0-.36,0-.49.16-.05,0-.13-.02-.09.08,0,.02-.02.02-.04.02Z"/>
    </g>
    <g>
      <g>
        <line class="cls-5" x1="73.48" y1="8.12" x2="85.93" y2="8.12"/>
        <path d="m86.86,8.12c-.44.16-.98.44-1.32.73l.27-.73-.27-.73c.34.29.88.57,1.32.73Z"/>
      </g>
      <g>
        <line class="cls-4" x1="49.25" y1="8.12" x2="35.44" y2="8.12"/>
        <path d="m34.58,8.12c.4-.15.9-.4,1.21-.67l-.24.67.24.67c-.31-.27-.81-.52-1.21-.67Z"/>
      </g>
      <line class="cls-5" x1="86.86" y1="7.19" x2="86.86" y2="9.04"/>
      <line class="cls-4" x1="34.58" y1="7.19" x2="34.58" y2="9.04"/>
    </g>
    <g>
      <g>
        <line class="cls-7" x1="103.07" y1="43.25" x2="103.07" y2="74.92"/>
        <path d="m103.07,76.13c-.21-.57-.57-1.27-.95-1.71l.95.34.95-.34c-.38.44-.74,1.14-.95,1.71Z"/>
      </g>
      <g>
        <line class="cls-6" x1="103.07" y1="34.99" x2="103.07" y2="14.56"/>
        <path d="m103.07,13.45c.19.52.52,1.16.87,1.56l-.87-.31-.87.31c.35-.4.68-1.04.87-1.56Z"/>
      </g>
      <line class="cls-7" x1="104" y1="75.91" x2="102.15" y2="75.91"/>
      <line class="cls-6" x1="104" y1="13.45" x2="102.15" y2="13.45"/>
    </g>
    <text class="cls-2" transform="translate(91.19 42)"><tspan x="0" y="0">72mm</tspan></text>
    <text class="cls-2" transform="translate(49.22 10.77)"><tspan x="0" y="0">60mm</tspan></text>
  </g>
  <text class="cls-1" transform="translate(54.19 93.77)"><tspan x="0" y="0">P60-ZZT</tspan></text>
</svg>