<?xml version="1.0" encoding="UTF-8"?>
<svg id="T80S_III_" data-name="T80S(III)" xmlns="http://www.w3.org/2000/svg" viewBox="0 0 150 100">
  <defs>
    <style>
      .cls-1 {
        stroke-width: .18px;
      }

      .cls-1, .cls-2, .cls-3, .cls-4, .cls-5, .cls-6 {
        fill: none;
        stroke: #000;
        stroke-miterlimit: 10;
      }

      .cls-2 {
        stroke-width: .22px;
      }

      .cls-3 {
        stroke-width: .19px;
      }

      .cls-7 {
        fill: #010101;
        font-size: 10.06px;
      }

      .cls-7, .cls-8 {
        font-family: MyriadPro-Regular, 'Myriad Pro';
      }

      .cls-4 {
        stroke-width: .15px;
      }

      .cls-8 {
        fill: #231f20;
        font-size: 12px;
      }

      .cls-5 {
        stroke-width: .2px;
      }

      .cls-9 {
        fill: #3a3d3c;
      }

      .cls-6 {
        stroke-width: .17px;
      }
    </style>
  </defs>
  <g>
    <g>
      <line class="cls-2" x1="74.43" y1="12.01" x2="94.96" y2="12.01"/>
      <path d="m96.3,12.01c-.63.24-1.42.64-1.91,1.06l.38-1.06-.38-1.06c.49.42,1.27.83,1.91,1.06Z"/>
    </g>
    <g>
      <line class="cls-5" x1="46.38" y1="12.01" x2="27.41" y2="12.01"/>
      <path d="m26.18,12.01c.58-.22,1.3-.58,1.75-.97l-.35.97.35.97c-.45-.39-1.17-.76-1.75-.97Z"/>
    </g>
    <line class="cls-2" x1="96.06" y1="10.98" x2="96.06" y2="13.05"/>
    <line class="cls-5" x1="26.18" y1="10.98" x2="26.18" y2="13.05"/>
  </g>
  <g>
    <g>
      <line class="cls-3" x1="71.15" y1="70.08" x2="78.26" y2="70.08"/>
      <path d="m79.43,70.08c-.55.21-1.24.56-1.66.93l.34-.93-.34-.93c.43.37,1.11.72,1.66.93Z"/>
    </g>
    <g>
      <line class="cls-1" x1="40.21" y1="70.08" x2="27.19" y2="70.08"/>
      <path d="m26.13,70.08c.5-.19,1.12-.5,1.5-.84l-.3.84.3.84c-.38-.34-1-.65-1.5-.84Z"/>
    </g>
    <line class="cls-3" x1="79.43" y1="69.04" x2="79.43" y2="71.11"/>
    <line class="cls-1" x1="26.13" y1="69.05" x2="26.13" y2="71.12"/>
  </g>
  <g>
    <g>
      <line class="cls-6" x1="108.78" y1="44.09" x2="108.78" y2="59.57"/>
      <path d="m108.78,60.58c-.18-.48-.48-1.07-.8-1.43l.8.29.8-.29c-.32.37-.62.96-.8,1.43Z"/>
    </g>
    <g>
      <line class="cls-4" x1="108.78" y1="35.53" x2="108.78" y2="21.97"/>
      <path d="m108.78,21.04c.16.44.44.98.73,1.31l-.73-.26-.73.26c.29-.34.57-.88.73-1.31Z"/>
    </g>
    <line class="cls-6" x1="109.82" y1="60.45" x2="107.75" y2="60.45"/>
    <line class="cls-4" x1="109.82" y1="21.04" x2="107.75" y2="21.04"/>
  </g>
  <text class="cls-7" transform="translate(47.19 14.83)"><tspan x="0" y="0">80mm</tspan></text>
  <text class="cls-7" transform="translate(42.21 73.16)"><tspan x="0" y="0">80mm</tspan></text>
  <text class="cls-7" transform="translate(96.77 42.39)"><tspan x="0" y="0">80mm</tspan></text>
  <path class="cls-9" d="m96.76,28.66c-.04-.31-.1-.62-.14-.94-.06-.16-.1-.33-.08-.47,0-.05.01-.09.02-.14-.01-.22-.01-.45.02-.67.06-.42.08-.84.07-1.26,0-.01,0-.02,0-.03-.09-.35-.15-.69-.2-1.05,0,0,0,0,0-.01,0,.05.01.1.02.16-.01-.08-.03-.15-.05-.23-.04-.09-.09-.18-.12-.28-.01-.1-.03-.21-.04-.31-.12-.52-.64-.8-.81-1.33,0,0,0,0,.01,0-.14-.08-.27-.16-.39-.27-1.26-.1-2.52-.27-3.78-.25-.01,0-.03-.01-.04-.02-.06,0-.12,0-.18.01-.71.05-1.43.03-2.14.02-1.53,0-3.05-.07-4.58-.08-1.3,0-2.59-.05-3.89-.05-.92,0-1.84-.08-2.76-.01-.24.02-.41-.21-.65-.18-.06,0-.11,0-.17,0-.82.1-1.64.11-2.47-.03-.38-.07-.82.04-1.23.04-2.83-.04-5.66-.1-8.5-.11-1.42,0-2.83-.05-4.25,0-.6.02-1.2.05-1.79.01-1.51-.09-3.03-.05-4.54-.1-.72-.03-1.46,0-2.19-.02-1.82-.04-3.64,0-5.47-.04-1.25-.02-2.5-.09-3.74-.05-2.18.07-4.36-.04-6.54-.02-.72,0-1.46.03-2.17-.02-1.64-.12-3.29.02-4.93-.08-.43-.03-.84.04-1.22.2-.13.05-.26.07-.39.08-.26.24-.47.54-.67.86.06.18.02.38-.16.55,0,.26-.02.52-.02.78,0,.03,0,.06,0,.09,0,.23.02.46.02.7.07.12,0,.19-.08.26.14.52.08,1.05.04,1.57.04.11.05.23.02.34v.17s0,.17,0,.17c0,.06,0,.12,0,.18,0,.03,0,.06,0,.09,0,.15,0,.29,0,.44,0,.26,0,.52,0,.78,0,.23,0,.47,0,.7,0,.03,0,.06,0,.09,0,.06,0,.12,0,.18.04.08.04.17,0,.25-.04.29-.08.58-.13.87.05.01.08.03.06.09,0,.16,0,.32,0,.48.15.2.23.42.26.66.41.02.82.26,1.24.08.32-.02.64-.04.96,0,.06,0,.12.01.18.02.35,0,.7,0,1.04-.01.22.02.33-.12.42-.28-.2-.39-.01-.79-.05-1.18-.04-.43-.22-.64-.67-.65-.03,0-.06,0-.09,0-.66,0-.81-.2-.65-.88.06-.26.36-.25.48-.23.31.07.6-.03.89-.01,1.27.08,2.54.07,3.8.08.11,0,.24-.05.31.08.05.01.08.03.06.09-.02.93-.07.94-.87.95-.27,0-.42.13-.6.27-.07.39,0,.78,0,1.17,0,.58.05.63.62.67.89,0,1.77-.01,2.66,0,.7,0,1.41.06,2.1.04.89-.03,1.79-.04,2.67-.05.72,0,1.46-.06,2.19.06.26.04.52.02.77.01.78-.03,1.55.14,2.33.11h.69c.69-.16,1.39-.02,2.08-.04.43-.01.87.07,1.29.01.27-.04.34.1.34.25.02.7.01,1.41.01,2.11,0,.1-.05.16-.15.17.02.21.03.42-.02.63v.09c.03.46.04.93,0,1.39,0,.03,0,.06,0,.09.05.26.03.52,0,.78,0,.03,0,.06,0,.09,0,.15,0,.3,0,.45.28.21.09.4-.02.59,0,.09,0,.18.01.27,0,.02.02.04.02.06,0,0,0,.02-.01.03,0,.12,0,.23,0,.35,0,.17.11.35-.05.51-.03.33,0,.65.26.89.18.28.09.47-.19.6-.03.14-.07.29-.1.43,0,.03,0,.07,0,.1,0,.06,0,.11,0,.17,0,.06,0,.12,0,.17,0,.2,0,.4,0,.6,0,.33,0,.66-.01,1,0,.04,0,.09-.02.13.05.19.07.38.04.58,0,.07.01.12.02.21,0,.18,0,.36-.08.53,0,.57.01,1.14.02,1.7,0,.16.02.32-.04.47,0,.03,0,.06,0,.09,0,.09.01.17.02.26.03.06.03.12,0,.18,0,.26-.02.52-.02.78.12.95.09.99-.83.99-1.59,0-3.19-.02-4.78-.03-.2,0-.39-.02-.55-.17h-.6c-.2.32-.5.13-.75.15-.92.07-1.84-.08-2.77-.01-.54.04-1.11-.06-1.67-.06-1.01.01-2.02,0-3.03,0-.6-.01-1.2-.07-1.81-.1-.13,0-.22.13-.36.11-.36-.07-.46.12-.44.44.05.27.02.53-.08.79l.03.43c.19.33.51.4.85.34.31-.05.58-.12.45.36,0,.03.03.08.04.12.05.57-.04.65-.62.66-.44,0-.87-.08-1.31.08-.32.11-.65-.07-.98-.08-.76-.04-1.51.21-2.26,0-.05-.01-.14.02-.17,0-.28-.32-.01-.66-.02-1,0-.26.2-.36.38-.28.35.16.63,0,.93-.1.02-.14.04-.29.05-.43.01-.09.02-.18.03-.27-.12-.34,0-.71-.08-1.06-.83-.15-1.67-.15-2.51-.15-.29,0-.59.06-.88.11-.16.03-.27.03-.3-.1-.03.01-.06.02-.09.04,0,0,0,0,0,0-.08.18-.21.34-.36.48.47.05-.03.36.1.51,0,.03,0,.07,0,.1,0,.11,0,.23,0,.34,0,.06,0,.12,0,.18,0,.09,0,.17,0,.26-.05.26.23.52,0,.78.01.03.02.06.03.09.02.02.04.03.06.05-.02,0-.04.02-.06.02,0,.03-.02.06-.03.1,0,.14,0,.29,0,.43,0,.09,0,.17,0,.26.04,1.28.03,2.56-.06,3.84,0,.11,0,.23,0,.34.04.6.09,1.2.12,1.8.24.15.47.33.63.6.06.1.09.22.13.33.15,0,.29.01.44.06,0,0,.01,0,.01,0,.66.03,1.32-.17,1.97-.07.79.12,1.59,0,2.38.15.35-.1.69.06,1.04,0,.16-.15.36-.08.53-.08.84,0,1.69,0,2.53.05,1.19.06,2.38-.05,3.56.05.41-.03.81.13,1.22.07.58-.06,1.15-.15,1.73,0,.61-.04,1.24.08,1.84-.15.41.29.89.12,1.33.13,1.93.08,3.87.08,5.8.1.23,0,.43.06.63.17.15.05.27-.14.43-.06.17-.18.34,0,.52-.01.48-.01.96-.12,1.45-.06.17.02.38-.1.49.14.35-.05.69-.02,1.03.01.06,0,.12,0,.18,0,.06,0,.11,0,.17,0,.06-.02.09.02.1.07.13,0,.27,0,.4,0,.26-.13.53-.09.81-.12.65-.07,1.28.17,1.93.02.21-.05.49.06.74.08,1.39.08,2.77.02,4.16.05.2,0,.4-.06.59.06,1.01-.01,2.02-.04,3.03.03,1.1,0,2.2,0,3.3,0,1.65.02,3.3.04,4.96.07.82.02,1.64.06,2.46.09.06,0,.12,0,.17,0,.29-.07.53-.18.52-.54-.07-.08-.02-.18-.03-.27-.16-.24-.15-.64.03-.87-.01-.31-.06-.63.02-.94,0-.03,0-.06,0-.09,0-.18,0-.35,0-.53-.19-.27-.05-.58-.08-.87-.1-.22-.18-.45-.38-.61-.71-.07-1.41-.16-2.12.05-.22.06-.28.29-.49.3-.02.06,0,.14-.08.18-.42.36-.81.75-1.15,1.19-.17.21-.4.3-.68.29-.38-.02-.75-.02-1.13,0-.42.02-.62-.24-.68-.58-.05-.29-.08-.6,0-.9,0-1.04,0-2.09,0-3.13,0-.03,0-.06,0-.09,0-.43-.06-.88,0-1.3.05-.33,0-.78.5-.88.34-.17.71-.11,1.05-.05.27.04.45.25.5.53.06.31.24.47.56.48.92.02,1.84-.02,2.76-.08.21-.01.26-.22.42-.27,0,0,0,0,0,0-.01-.36.34-.35.52-.52.06-.11.23-.11.26-.25-.16-.31-.05-.64-.07-.96-.02-.31-.12-.47-.46-.54-.56-.11-1.1-.29-1.65-.46-.24-.07-.56.05-.7-.24-.14-.3-.06-.63-.07-.94,0-.32.07-.62.16-.92-.07-.13-.07-.26-.01-.39-.05-.08-.04-.16,0-.24,0-.15-.02-.29-.03-.44,0-.64.02-1.29.03-1.93.01-.58.03-1.16.04-1.73v-.18c-.04-.1-.03-.19.03-.28-.19-.34-.19-.68,0-1.02,0-.09,0-.18-.01-.27-.19-.06-.11-.23-.1-.33.08-.92.06-1.84.07-2.76,0-.14.06-.25.16-.34-.03-.12-.05-.25-.07-.38-.03-.04-.04-.09-.02-.15,0-.02,0-.03,0-.04,0-.16,0-.33,0-.5-.01-.09-.02-.19,0-.28,0-.06,0-.12,0-.19,0-.14,0-.29.01-.43-.15-.23-.15-.46.02-.69-.06-.44-.08-.87,0-1.3-.05-.08-.15-.15-.12-.27.15-.54.08-1.1.08-1.65,0-.07.02-.11.03-.16-.02-.15-.02-.3.02-.44-.05-.05-.08-.12-.07-.24.01-.33,0-.65,0-.98.01-.27.18-.36.43-.37.62-.04,1.24.08,1.87.02.72-.07,1.46-.05,2.15,0,1.04.08,2.06-.01,3.09.06.39.03.78-.04,1.17.05.08-.04.16-.06.25,0l2.36.07h.17c.52,0,1.02-.07,1.47-.36h0s.06-.06.09-.08h0s.19-.61.19-.61c0-.19-.02-.39-.02-.58-.36-.19-.75-.22-1.15-.21-.53.01-.55-.02-.39-.51.03-.08.06-.17.09-.25,0-.6.51-.91.87-1.21.54-.46,1.23-.74,2-.64.2.03.41.01.61.03.22.02.44-.06.66.08.76.46,1.52.92,1.8,1.84.17.57.08.68-.5.69-.21,0-.45-.02-.64.05-.39.14-.54.84-.28,1.21.28.4.68.61,1.15.63.83.03,1.65.02,2.48.02.28,0,.27-.2.24-.4Zm-.98-.01c-.59,0-1.17-.03-1.76-.02-.27,0-.42-.19-.58-.33-.12-.11-.12-.36-.05-.54.06-.16.23-.08.35-.09.03,0,.06,0,.09,0,.84.04,1.05.05.98-1.07-.06-.9-.58-1.52-1.34-2-1.13-.71-2.35-.75-3.52-.38-.69.21-1.39.6-1.82,1.33-.32.54-.29,1.08-.3,1.64,0,.15.04.3.19.29.27-.02.5.12.76.11.17-.01.38-.07.43.17.06.24-.02.45-.21.6-.1.08-.23.15-.35.16-.82.08-1.63.05-2.45,0-.86-.06-1.72-.06-2.58-.02-.67.03-1.35-.05-2.02-.05-1.11,0-2.21-.09-3.32-.06-.44.01-.87.03-1.31-.02-.46-.05-.77.29-.8.8,0,.1.01.2.02.3.02.4.02.63-.04.76.14.28.15.61.04.89,0,.04,0,.08-.03.12,0,.43,0,.87,0,1.3,0,1.01-.01,2.02,0,3.03,0,.09-.02.14-.05.18.04.1.07.2.07.3v.18s-.01.08-.02.12c-.03.7-.04,1.4-.06,2.11-.03.09-.06.17-.08.26.17.11.09.29.09.43,0,1.13,0,2.27-.04,3.4-.02.53.04,1.05,0,1.57,0,.12.09.31-.15.34,0,.12,0,.23-.01.35.04.06.04.12,0,.18,0,.07,0,.13,0,.2.24.22.22.45.01.67-.02.6.05,1.2-.07,1.8-.08.38,0,.77.08,1.15.62.43,1.35.53,2.06.71.26.07.54.16.69.43.06.2.13.39.09.61.02.06,0,.08-.06.09h0c-.22.24-.43.49-.69.7-.31.24-.62.23-.96.08-.17,0-.35,0-.52,0-.23,0-.46,0-.69.02-.32.04-.51-.07-.68-.37-.24-.4-.62-.67-1.12-.69-.16,0-.33-.03-.49-.04,0,.02-.01.03-.03.03-.18.09-.35.23-.54.28-.52.13-.61.51-.63.95,0,.08-.06.12-.12.17.02.01.02.03,0,.05.11.8-.02,1.6,0,2.4.02.85,0,1.7-.06,2.54-.03.49.12.95.47,1.31.02,0,.04.02.04.04.18.03.24.19.36.29h0c.63,0,1.26,0,1.89,0,.36,0,.42-.37.67-.53.43-.26.68-.72,1.03-1.08.11-.11.23-.21.41-.21h0s.05-.07.07-.09h0c.01-.11,0-.21.15-.27.49-.21,1.23-.06,1.6.36.03.01.06.02.09.04.04,0,.07,0,.04.05,0,.12,0,.23.01.35v.17c0,.23-.01.47-.02.7.04.07.04.12-.04.16l-.02.61c.07.32,0,.64,0,.97.01.03.01.05,0,.08.06.27-.07.37-.33.35-.7-.06-1.4.02-2.09-.1-.23.05-.47.04-.7,0-.03,0-.06,0-.08,0-.06,0-.12,0-.17,0-1.9,0-3.79.04-5.69,0-.79-.02-1.58.02-2.36,0-2.38-.09-4.75-.13-7.13-.15-.99,0-1.99,0-2.97-.04-1.14-.03-2.28.03-3.41-.08-.59-.06-1.21,0-1.81.01-.89.03-1.79-.07-2.68-.09-.79-.02-1.57-.01-2.36.01-.92.03-1.84-.09-2.77-.08-.83.01-1.66,0-2.49-.01-1.74-.02-3.48-.02-5.21-.08-1.75-.06-3.49-.05-5.24-.08-.4,0-.81-.11-1.18-.09-.7.05-1.4-.04-2.09.06-.6.08-1.32-.47-1.47-1.06-.13-.53-.07-1.06-.03-1.58v-.2c-.07-.8.02-1.6.02-2.41,0-1.19.02-2.37.04-3.56.02-.72.02-.76.72-.81.65-.05,1.3-.02,1.95,0,.42.02.69.63.46,1-.05.08-.13.1-.22.1-.37.02-.75.05-1.12.08-.13.19-.15.42-.19.64,0,.09,0,.17,0,.26v.26s0,.06,0,.09c0,.06,0,.12,0,.17,0,.12.02.23.03.35h0c.4.41.91.23,1.36.24,1.47.04,2.95,0,4.43.02.58,0,.64-.04.67-.62.1-.44.13-.87-.03-1.3-.34-.2-.71-.06-1.06-.09-.23-.02-.35-.07-.31-.33.02-.12.02-.25-.01-.38-.06-.28.18-.45.45-.43.53.02,1.08.06,1.6-.03.23-.04.41.06.62.06,1.17-.02,2.33,0,3.5,0,.69.01,1.38.11,2.06.1.6,0,1.2,0,1.8-.04.55-.04,1.11.13,1.65-.1.83.48,1.74-.15,2.62.23.51.22,1.13-.05,1.71-.03.44.01.9.07,1.34-.07.01-.02.03-.03.05-.02.04-.11.11-.12.21-.09.28-.47.1-1,.22-1.5v-.08c0-.06,0-.12,0-.18-.03-.06-.02-.11.03-.15,0-.07,0-.15,0-.22-.18-.02-.15-.16-.13-.26.22-1.22-.02-2.44.08-3.65.02-.22-.05-.46.1-.67-.02-.32-.06-.64,0-.96-.03-.09-.04-.18,0-.27,0-.09,0-.18,0-.26-.11-.2-.09-.23.23-.51h.01c.04-.08.05-.18.17-.15.18-.16.07-.32,0-.47-.09-.02-.15-.08-.17-.17-.03-.03-.06-.06-.09-.09-.37-.39-.19-.87-.21-1.31-.03-.85.16-1.7.08-2.57-.08-.81.05-1.64.07-2.46,0-.1,0-.2,0-.31-.06-.13-.1-.27-.1-.41,0-.54-.06-1.08-.09-1.62-.07-.05-.15-.09-.24-.11-.52-.15-1.05-.14-1.58-.15-.62,0-1.24.07-1.86.04-1.17-.06-2.35-.08-3.52-.08-.62,0-1.25.06-1.86-.03-.88-.13-1.77-.12-2.64-.1-.95.02-1.9-.13-2.86.02-.48.07-1.02-.02-1.52-.06-.32-.03-.63,0-.95-.03-.13,0-.37.06-.39-.17-.03-.3-.08-.61.04-.89.02-.05.21-.02.33-.03.36-.01.73.06,1.01-.26h0c.07-.42.02-.84,0-1.25-.02-.37-.23-.59-.64-.59-1.43,0-2.86.02-4.29,0-.31,0-.61.01-.91,0-.4,0-.55.18-.55.55,0,.43,0,.86.01,1.3.06.12.16.2.28.26.11,0,.23-.01.35-.01.63,0,.61,0,.63.64,0,.32-.07.42-.4.4-.7-.03-1.41-.02-2.12,0-.37,0-.51-.15-.46-.49.04-.3-.09-.61.08-.89,0-1.25.02-2.49.03-3.74,0-.06,0-.12,0-.18-.05-.14-.03-.29,0-.43-.05-.94-.02-1.88.05-2.82,0-.09.07-.2.12-.22.02-.09.06-.18.1-.26-.02-.02-.04-.03-.07-.05.05-.03.1-.06.15-.09.12-.14.29-.24.5-.29.39-.2.78-.31,1.26-.14.3.11.6-.06.91-.04.77.04,1.55-.05,2.33-.02.69.03,1.4-.06,2.08.02.74.1,1.47.12,2.21.11.59,0,1.17-.03,1.74.13.05,0,.11-.02.16-.02.6-.19,1.21-.08,1.82-.07.66.01,1.33.14,1.98.06,1.35-.16,2.69.09,4.03.04,1.34-.05,2.69-.06,4.04.02.17.01.36-.15.51.05.06,0,.11.01.17.02.42-.18.87-.08,1.31-.09,1.52-.02,3.03.1,4.55.04.46-.02.94.03,1.41.03,1.04,0,2.09.07,3.13.05.86-.02,1.73,0,2.59,0,1.34,0,2.69,0,4.03.04.49.02.99.02,1.48.03.02,0,.04-.02.06-.03.21-.03.41-.06.62-.07.12,0,.25,0,.37,0,.18,0,.34.05.49.13,1,0,2.01,0,3.01,0,1.46-.01,2.92.05,4.38.04.21,0,.42.07.63.11.11,0,.23,0,.34,0,1.5-.01,3.01-.05,4.51-.03,2.47.03,4.94.06,7.41.15.87.03,1.77-.1,2.62.16.99.3,1.57.98,1.75,2.01.07.39.11.77.07,1.16-.09.92.34,1.77.3,2.68-.03.56.03.58-.52.58Z"/>
  <path class="cls-9" d="m74.37,25.75c-.07-.51.04-1.05.06-1.58-.02-.07,0-.16-.1-.19-.29-.16-.6-.22-.93-.24-.83-.05-1.67.03-2.5-.09-.1-.01-.22.06-.33.07-.16.02-.26,0-.33-.04-.05,0-.11,0-.16,0-.08,0-.16,0-.24-.03-.1.05-.26.04-.33.03-1.1-.06-2.19-.05-3.29-.06-1.72-.01-3.43-.08-5.15-.03-.95.02-1.9-.05-2.85-.05-1.62,0-3.24,0-4.87,0-.4,0-.73.33-.73.74-.03,1.44-.12,2.89-.07,4.33,0,.25.01.49.02.74.11.05.21.11.29.19.01.01.02.03.03.04,0-.02.01-.04.05-.05.08,0,.16,0,.21.11.09.16.1.32.1.5,0,.61-.03,1.21-.06,1.82.03.39.06.77.06,1.16,0,.15-.03.28-.09.4,0,.82.04,1.65.02,2.47-.01.48-.03.95-.04,1.43,0,.39.1.66.55.76.38.08.74.26,1.26.3-.05.03-.1.04-.15.06.06.03.12.05.17.08.18.03.36.07.53.14.07.03.09.09.11.15.08.08.09.22.03.32.04,0,.08,0,.11.02-.36.17-.66.13-.99.09-.42-.05-.86.03-1.28.09-.2.03-.31.2-.33.4-.06.62-.11,1.23.03,1.85.06.26.2.34.42.34.53-.01,1.05.14,1.59.1.15-.01.41-.11.42.14,0,.2,0,.48-.3.56-.41.11-.81.22-1.22.33-.06.01-.12,0-.17.02-.77.18-.85.29-.87,1.11-.01,1.08-.02,2.17-.03,3.26,0,.05,0,.1,0,.16.08.36-.07.7-.07,1.06,0,.14,0,.29,0,.43,0,.03,0,.06,0,.09v.87c0,.06-.01.11-.02.17v.26c.01.22.01.43.03.65.02.28-.05.46-.33.62-.51.29-.48.86-.47,1.34.02.7,0,1.4,0,2.11,0,.69,0,1.39,0,2.08-.05.24.23.26.29.42.8,0,1.59,0,2.39,0,1.61.02,3.22.07,4.82.08.6,0,1.22-.07,1.81-.04,1,.05,2,.15,3,.13.48,0,.95-.08,1.42.07.45,0,.9-.02,1.34.02.28.03.53-.14.8-.07.6,0,1.21.02,1.81.03.14-.07.33.01.44-.14.23-.61.18-1.24.17-1.87,0-1,.08-1.99-.04-2.99,0-.03.07-.07.11-.11,0-.14.02-.29.03-.43,0-.06,0-.12,0-.18,0-.14,0-.29,0-.43,0-.09,0-.18,0-.27.03-.63.15-1.23.69-1.65.05-.24.16-.41.39-.57.56-.39,1.15-.59,1.84-.57.57.01.63-.09.62-.65,0-.98,0-1.96,0-2.94,0-.08-.04-.18.07-.23,0-.73,0-1.45,0-2.18-.14-.47,0-.93.02-1.4.05-.69,0-1.38.02-2.08.02-.56-.1-1.12.04-1.67.01-.29.03-.57.04-.86,0,0,0-.01,0-.02-.04-.06-.09-.11-.11-.17-.06-.12-.09-.25-.09-.39v-.18c0-.16.04-.32.12-.46,0-.02-.01-.02-.01-.04.09-.86-.05-1.73.16-2.57-.07-.62,0-1.24,0-1.86-.08-.21-.09-.44-.05-.65-.02,0-.04,0-.06,0-.04,0-.1,0-.13-.01-.85-.49-1.77-.15-2.66-.25-.55-.06-.86-.47-.65-.98.16-.39.55-.28.82-.24.81.11,1.6.11,2.39-.13.29-.09.35-.35.34-.59-.02-.83.07-1.67-.05-2.51Zm-.4-.92s-.03.04-.06.05c.03.03.03.05,0,.08.07.35.03.7-.02,1.05.04.12.15.24-.01.35,0,.2-.02.41-.02.61,0,.03,0,.06,0,.09.04.17.05.35,0,.52,0,.03,0,.06,0,.09,0,.09,0,.17,0,.26.05.63-.03.65-.63.65-.68,0-1.36-.09-2.04.03-.62.03-.94.55-.81,1.29.02.14.03.28.03.42.07.07.17.15.28.23.03-.01.07-.01.13.02.37.23.73.09,1.1.08.56-.02,1.11.03,1.67.08.17.01.22.16.18.33,0,.15.02.29.02.44.02.01.04.02.06.04-.02.01-.04.02-.06.03v1.66c.03.44.04.88-.02,1.32,0,.05,0,.11,0,.16,0,.33,0,.65-.01.98l.03.02s.04,0,.06,0c-.02,0-.04,0-.06.01-.02.04-.04.07-.05.11.07.14.05.29.03.44-.01.12-.02.24-.03.36,0,.23.02.46.03.69,0,.43-.02.84-.09,1.27-.07.44,0,.9.04,1.36,0,.09-.02.16-.03.25,0,.03,0,.06,0,.09.04.49.04.99-.02,1.48,0,.03,0,.06,0,.09,0,.23,0,.46,0,.7,0,1.05,0,2.1-.02,3.15,0,.16.09.34-.03.5.1.41-.12.8-.05,1.21.22.55.06.85-.46.88-.57.03-1.01.34-1.49.61-.62.35-.98.89-1.3,1.48,0,.06-.01.12-.02.17.04.18-.06.31-.16.43,0,.45-.02.89-.15,1.32.07.08.06.16.03.25,0,1.02-.01,2.03-.08,3.05,0,.03.01.06.02.09,0,.12,0,.23.01.35,0,.37-.01.75,0,1.12.01.35-.17.45-.48.44-1.15-.03-2.31,0-3.46-.07-1.32-.07-2.64.03-3.96-.02-.1,0-.2,0-.3,0-.13,0-.22-.03-.28-.07-.14,0-.27,0-.41-.03-.06.02-.13.02-.22.03-1.1.06-2.2,0-3.3-.03-1.5-.05-3.01-.04-4.51-.11-.26-.01-.42-.09-.36-.39-.06-.4-.03-.81-.01-1.21-.1-.69.05-1.38,0-2.07,0-.07.03-.15,0-.21-.3-.73.1-1.13.68-1.45.22-.24-.01-.55.11-.8-.07-.17-.23-.35.03-.5,0-.07,0-.13,0-.2,0-.03,0-.05.01-.08,0-.06,0-.13,0-.19-.04-.11-.05-.22,0-.33-.03-.15-.04-.3,0-.45l-.02-.04.03-.03v-.28c0-.05,0-.1,0-.15-.05-.06-.05-.13,0-.2l-.02-.03.03-.03c0-.07-.01-.13-.02-.2-.01-.34-.15-.69.05-1.03,0-.5,0-.99,0-1.49-.16-.35-.14-.69.01-1.03,0-.12,0-.24-.01-.36-.19-.3-.12-.53.16-.75.52-.42,1.14-.48,1.75-.54.38-.04.67-.29.69-.68,0-.16,0-.32,0-.48,0-.31-.11-.49-.47-.52-.58-.05-1.16-.05-1.73-.06-.3,0-.41-.11-.37-.42.04-.27,0-.55,0-.82,0-.32.1-.45.49-.45.47,0,.92.16,1.4.11.38-.04.66-.1.67-.55,0-.11.06-.17.14-.2-.02-.13-.03-.26-.05-.39,0-.02,0-.04,0-.07,0-.04,0-.07,0-.11-.04-.05-.07-.11-.12-.15-.21-.19-.52-.2-.77-.26-.5-.12-.96-.36-1.45-.48-.17-.04-.25-.18-.25-.39,0-.85-.06-1.7,0-2.54.03-.52.01-1.04-.01-1.55-.02-.34.05-.51.22-.57-.03-.15-.03-.3,0-.45-.01,0-.03.01-.04.02-.01,0-.03,0-.07-.02.06-.8-.15-1.59-.09-2.4,0-.12.03-.22.07-.33h0c-.4-.3-.78-.72-.68-1.17.1-.48.08-.93.1-1.4.04-.76-.02-1.52.05-2.28.06-.65.08-.8.71-.7.62.11,1.21-.04,1.81-.03.63,0,1.27,0,1.9-.01.5-.02,1.07.07,1.6.12.2.14.4.05.61-.01.63,0,1.26,0,1.88,0,.36,0,.72,0,1.09,0,.11-.06.18.02.26.08.72-.14,1.45-.16,2.18-.02.21.04.42-.04.63-.05.62-.04,1.25.17,1.87-.02.1-.03.2,0,.24.12,0,0,0,0,0,.01.04.01.09.02.13.04.12.05.24.07.36.09,0-.12,0-.23.08-.2.47.19.93-.11,1.36.03.12.04.15.11.16.2.01,0,.02,0,.03,0,.05-.06.16-.09.26-.14.48-.23.98-.02,1.48-.08.35-.05.71.06,1.06-.07.08-.03.14.08.18.16.13,0,.25,0,.38,0,.3-.02.51.07.56.39-.06.09-.05.17,0,.26,0,0,0,0,0,0,0,0,0,0,0,0Z"/>
  <path class="cls-9" d="m28.49,57.18c0-.67.05-1.35.01-2.02-.02-.43.2-.59.54-.59.8.01,1.6-.04,2.41-.02.76.02,1.51.17,2.29.03.44-.08.92.1,1.38-.1.48-.21.78-.6,1.04-1.02.18-.29.2-.61.15-.96-.07-.54.28-.87.84-.83.65.04,1.3,0,1.96.04,1.32.07,2.64,0,3.97.1.77.06,1.58-.01,2.38,0,1.61.02,3.23.08,4.84.05.61-.01.81.24.81.84,0,.64.07,1.28,0,1.91-.11.95-.07,1.9-.11,2.85-.02.02-.03.04-.03.07-.5.26-1.04.24-1.55.16-.32-.05-.65-.05-.94-.03-.73.05-1.44-.03-2.17-.02-.53,0-1.07-.06-1.59.01-.67.1-1.31,0-1.97-.03-.76-.04-1.53-.14-2.28-.05-.53.06-1.04,0-1.56.02-.7.03-1.4-.11-2.12-.06-1.77.12-3.54-.14-5.32-.01-.95.07-1.91.04-2.86-.07,0,0,0,0,0,0-.03-.03-.06-.06-.08-.08,0-.06-.02-.11-.03-.17Zm22.05-3.14c.11-.32-.11-.64,0-.96v-.35c-.01-.06-.02-.11-.02-.17-.04-.14-.07-.25-.26-.27-.88-.11-1.75-.04-2.63-.04-.44,0-.89,0-1.31-.01-.85,0-1.71-.11-2.57-.07-.95.04-1.9-.11-2.86-.04-.06,0-.11,0-.17,0-.02-.06-.07-.09-.13-.08-.98.08-1.96.14-2.94,0-.55-.08-.77.12-.76.66,0,.1.01.2.02.3-.06.23-.13.46-.19.69-.53.62-1.04,1.26-1.98,1.25-.53,0-1.06.05-1.59.05-1.16,0-2.32,0-3.48-.01-.57,0-.61.05-.6.62,0,.36.04.72-.03,1.07-.03.14.06.34.16.3.48-.2.93.1,1.4.02.81-.14,1.63-.04,2.44-.02,1.38.03,2.77.01,4.15.08.9.04,1.81-.03,2.72,0,.98.03,1.96.05,2.95.03.65-.01,1.29.11,1.94.1.51,0,1.01-.04,1.53-.02,1.3.05,2.61.02,3.91.02.22,0,.31-.08.3-.31-.01-.68-.01-1.36-.02-2.04.05-.06.04-.12,0-.18.03-.09.04-.17,0-.26,0-.09,0-.18,0-.26,0-.03.01-.06.02-.09Z"/>
  <path class="cls-9" d="m28.96,23.49c.12-.25.32-.31.59-.3.9.03,1.79.04,2.69.02.89-.01,1.77.08,2.65.04,1.59-.08,3.18.07,4.76.05,1.76-.02,3.52-.03,5.28.03,1.28.04,2.55.12,3.83.14.67,0,1.34,0,2,.01.51.02.75.25.74.76-.03,1.44-.06,2.89-.08,4.33-.01.62-.17.82-.9.82-1.38,0-2.77.03-4.15-.05-.57-.03-1.16.04-1.73.01-.54-.03-1.07.07-1.63-.07-.52-.13-1.11,0-1.67,0-.81.02-1.62.04-2.41-.04-.51-.05-.97.13-1.46.07-.14,0-.28-.01-.42-.02-.01-.05-.04-.09-.1-.08l-.03-.02s-.03,0-.03,0c-.25-.33-.04-.75-.19-1.1.01-.09.02-.19.03-.28-.02-.17,0-.37-.21-.45-.25-.33-.48-.68-.88-.86-.35-.08-.58-.44-.97-.43-.77.01-1.54.04-2.31,0-1.04-.04-2.09-.08-3.13-.01-.22.01-.27-.07-.2-.28.06-.18.02-.38-.06-.56,0-.32,0-.65,0-.97,0,0,0-.02,0-.03,0-.02-.01-.03-.02-.05,0-.23-.02-.46-.02-.69Zm8.62.33c-.06-.11-.17-.09-.26-.09-.78,0-1.57.01-2.35.02-.06,0-.11,0-.17,0-.28.2-.54-.04-.81-.04-1.16-.03-2.32.03-3.48-.04-1-.06-1.06.02-1.01,1.04-.02.03-.02.06,0,.08-.03.12,0,.25-.05.38-.11.31-.08.51.35.49.46-.02.93.02,1.39.03.48.02.98-.13,1.47.04.13.05.34.09.48-.06.06,0,.12,0,.17-.01.4.11.81,0,1.21.03.09.01.17.02.26.03.54.2,1.13.21,1.58.66.36.36.68.71.79,1.21.11.25.05.52.08.78-.13.4.17.39.41.39,1.5.05,3.01.06,4.51.1.71.02,1.43,0,2.15.02.77.02,1.53-.04,2.3-.02,1.28.02,2.55.01,3.83.03.57,0,.62,0,.58-.57-.07-1.22.09-2.44-.02-3.67-.07-.76-.03-.77-.81-.77-.06,0-.12.01-.17.01-1.01,0-2.02.05-3.02.02-.85-.03-1.7-.02-2.55-.06-.05,0-.11.02-.16.02-.26,0-.53,0-.79-.01-.09,0-.17,0-.26,0-1.03-.03-2.06-.09-3.09-.07-.54.02-1.08-.12-1.62.05-.32,0-.64,0-.95,0Z"/>
  <path class="cls-9" d="m75.85,25.83c.12-.02.14-.11.11-.19-.17-.51.01-1.02.02-1.52,0-.33.28-.41.56-.38.64.07,1.29.02,1.94.05.67.04,1.35-.04,2.02-.01,1.22.05,2.45.02,3.67.09.44.03.91,0,1.37-.02.41-.02.79.06,1.12.31.2.16.21.41.2.64-.01.44-.27.79-.44,1.17-.25.56-.64.67-1.22.58-.61-.09-1.24-.05-1.86-.03-.74.02-1.48-.09-2.21.01-.05,0-.11,0-.16,0-.82-.09-1.63,0-2.45,0-.08,0-.17,0-.25,0-.12,0-.24,0-.36,0-.06,0-.11,0-.17,0-.54-.16-1.1-.05-1.65-.1-.08-.11-.16-.23-.24-.34,0,0,.01-.02,0-.03,0-.02-.01-.03-.02-.05,0-.06.01-.12.02-.18Zm8.76.23c.26.01.51.03.77.04.47.01.71-.19.7-.66,0-.21.09-.35.18-.51.14-.26.13-.48-.17-.59-.16-.06-.33-.08-.5-.09-1.23-.07-2.47-.01-3.71-.08-.93-.05-1.88.03-2.81.02-.77,0-1.54.03-2.3-.03-.29-.03-.3.05-.32.26-.04.4.08.8-.07,1.2-.06.15.08.33.32.36.64.08,1.27-.01,1.9,0,.69.02,1.38.09,2.06.09.54,0,1.1-.09,1.63-.04.78.07,1.55,0,2.32.05Z"/>
  <text class="cls-8" transform="translate(55.2 90.59)"><tspan x="0" y="0">T80S(III)</tspan></text>
</svg>