<?xml version="1.0" encoding="UTF-8"?>
<svg id="T80PKC" xmlns="http://www.w3.org/2000/svg" viewBox="0 0 150 100">
  <defs>
    <style>
      .cls-1 {
        fill: none;
        stroke: #231f20;
        stroke-miterlimit: 10;
        stroke-width: .2px;
      }

      .cls-2 {
        letter-spacing: -.02em;
      }

      .cls-3 {
        letter-spacing: 0em;
      }

      .cls-4 {
        font-size: 9px;
      }

      .cls-4, .cls-5 {
        fill: #231f20;
        font-family: MyriadPro-Regular, 'Myriad Pro';
      }

      .cls-5 {
        font-size: 13px;
      }
    </style>
  </defs>
  <path d="m106.84,43.22c0,7.58,0,15.16,0,22.75,0,.25,0,.51-.01.76,0,.16-.04.27-.24.27-.52-.01-1.04,0-1.55,0-.16,0-.3-.02-.35-.19-.2-.66-.55-1.28-.68-1.96-.08-.42-.03-.5.38-.59.21-.05.34-.15.33-.38,0-.84-.02-1.68-.02-2.51,0-.27-.15-.37-.4-.38-.44-.02-.88-.05-1.32-.05-7.69,0-15.38,0-23.06,0-.2,0-.4,0-.6.01-.57.04-.78.26-.78.85-.01.97,0,1.94,0,2.91,0,.68.01,1.37.03,2.05,0,.15-.06.2-.19.2-.55,0-1.1,0-1.66,0-.13,0-.22-.08-.27-.21-.2-.56-.41-1.12-.58-1.68-.17-.56-.1-.68.44-.88.11-.04.17-.11.16-.22-.02-.89.06-1.79-.05-2.68-.03-.21-.11-.32-.33-.33-.15,0-.31-.04-.46-.04-2.31,0-4.62,0-6.93,0-.31,0-.62.05-.92.06-.23,0-.36.13-.39.33-.11.7-.09,1.41-.03,2.11.01.13.09.22.22.26.11.04.22.1.33.16.46.28.5.44.26.91-.26.5-.51,1-.76,1.51-.05.11-.09.18-.24.17-.54,0-1.08,0-1.62,0-.14,0-.24-.05-.28-.18-.21-.63-.53-1.21-.67-1.86-.1-.46.03-.68.5-.71.29-.02.32-.14.29-.38-.09-.56,0-1.12,0-1.68,0-.5-.06-.61-.55-.67-.25-.03-.51-.03-.76-.03-10.61,0-21.23,0-31.84,0-.1,0-.2,0-.3,0-.48.02-.72.25-.74.74-.02.5,0,.99,0,1.49,0,.25.11.43.35.55.44.21.52.39.36.82-.21.57-.46,1.12-.62,1.7-.04.14-.13.19-.27.19-.52,0-1.04.03-1.56.03-.14,0-.3-.02-.34-.17-.18-.66-.56-1.25-.64-1.94-.05-.48-.02-.51.46-.63.16-.04.28-.08.27-.29-.02-.56-.02-1.13-.04-1.69-.02-.51-.33-.81-.86-.81-2.49,0-4.97,0-7.46,0-.65,0-.86.24-.86.89,0,.65,0,1.3-.02,1.95,0,.25.09.38.33.46.43.14.53.33.38.77-.2.59-.47,1.16-.64,1.77-.06.2-.24.22-.4.22-.5,0-.99-.02-1.49-.03-.2,0-.19-.14-.19-.27,0-.68,0-1.37,0-2.05,0-14.81,0-29.62,0-44.43,0-.4.07-.79.22-1.16.17-.42.48-.61.93-.61,2.44,0,4.88,0,7.32,0,.84,0,1.68,0,2.52,0,.79,0,1.1.27,1.2,1.06.07.54.03,1.08.03,1.62,0,5.71,0,11.41,0,17.12,0,.46-.04.93-.03,1.39.01.66.16.85.81.87,1.12.04,2.25.03,3.38.03,6.89,0,13.78,0,20.68,0,3.44,0,6.87.01,10.31.02.13,0,.27,0,.4-.03.38-.08.64-.19.64-.68,0-1.15.02-2.29.02-3.44,0-5.49,0-10.97,0-16.46,0-.06,0-.11,0-.17.03-.98.38-1.34,1.36-1.34,3.14,0,6.27,0,9.41.01.96,0,1.37.06,1.38,1.41.04,3.64.02,7.28.03,10.93,0,2.92.02,5.85,0,8.77,0,.73.38.98,1,.98,6.55,0,13.1,0,19.65,0,.11,0,.22,0,.33-.01.45-.05.68-.28.68-.73,0-2.11,0-4.22,0-6.32,0-4.54,0-9.07.01-13.61,0-.09,0-.18.01-.26.1-.89.42-1.17,1.32-1.17,1.31,0,2.63,0,3.94,0,.18,0,.36,0,.53.04.53.12.74.5.8,1.01.06.5.05.99.05,1.49,0,7.42,0,14.83,0,22.25h0Zm-.28-.17h.01c0-1.47,0-2.94,0-4.4,0-6.25,0-12.49-.01-18.74,0-.74-.42-1.17-1.16-1.18-1.23,0-2.45,0-3.68,0-.25,0-.51,0-.76.06-.12.03-.21.07-.26.18-.16.29-.29.58-.29.93,0,6.59,0,13.18.02,19.77,0,.74-.4,1.07-1.12,1.13-.67.05-1.35.05-2.02.05-4.99,0-9.98,0-14.98,0-1,0-2.01-.01-3.01-.04-.62-.02-.99-.42-1-1.03,0-1.23,0-2.45,0-3.68,0-5.36,0-10.73,0-16.09,0-.35-.01-.69-.2-.99-.06-.1-.12-.21-.27-.22-.25-.01-.5-.06-.76-.06-2.2,0-4.39-.01-6.59-.01-.93,0-1.86,0-2.78,0-.8.01-1.09.31-1.09,1.12,0,6.57,0,13.13,0,19.7,0,.84-.36,1.21-1.2,1.25-.61.02-1.21.04-1.82.05-6.18,0-12.37,0-18.55,0-3.69,0-7.38-.03-11.06-.02-.97,0-1.94-.02-2.91-.02-.75,0-1.14-.38-1.16-1.13,0-.25-.03-.51-.03-.76,0-5.58,0-11.16,0-16.74,0-.87.04-1.74-.02-2.61-.03-.54-.27-.86-.87-.83-1.49.07-2.98-.04-4.47,0-1.89.05-3.78.02-5.66,0-.23,0-.33.1-.44.26-.29.44-.24.92-.24,1.4,0,13.84,0,27.68,0,41.52,0,1.49,0,2.98,0,4.47,0,.29.1.37.37.36.32-.01.64-.03.96.03.13.02.26-.01.31-.14.26-.59.52-1.19.71-1.81.05-.17-.03-.27-.2-.31-.13-.03-.25-.07-.38-.11-.15-.04-.21-.12-.21-.29,0-.85,0-1.7,0-2.55,0-.26.12-.46.29-.65.29-.33.68-.29,1.05-.29,2.46,0,4.93,0,7.39,0,.61,0,.97.37.97,1,0,.64-.03,1.28-.02,1.92,0,.29-.07.44-.38.41-.25-.02-.32.11-.31.35,0,.33.2.58.3.87.39,1.08.39,1.06,1.56,1.02.35-.01.56-.08.64-.46.09-.46.39-.86.44-1.34.02-.23-.01-.39-.28-.43-.24-.03-.36-.19-.39-.42-.09-.75-.11-1.49.04-2.23.08-.4.46-.67.83-.67,10.87,0,21.73,0,32.6,0,.21,0,.42.02.62.08.36.1.51.29.51.67,0,.71,0,1.41,0,2.12,0,.47-.01.48-.49.47-.29,0-.31.12-.26.34.14.57.39,1.1.57,1.65.05.15.17.22.33.22.4,0,.8,0,1.19-.01.14,0,.25-.06.32-.2.23-.43.47-.85.68-1.28.17-.34.11-.49-.23-.66-.1-.05-.2-.09-.31-.13-.18-.06-.26-.17-.29-.36-.1-.66-.06-1.32-.05-1.98.01-.56.43-.93,1-.93,2.55,0,5.1,0,7.65,0,.89,0,1.04.16,1.05,1.03,0,.79-.03,1.59,0,2.38,0,.29-.02.41-.35.4-.4-.01-.47.14-.34.52.17.45.36.9.5,1.36.09.3.27.44.58.44.3,0,.6-.03.89-.03.22,0,.28-.09.28-.3-.01-.6,0-1.19,0-1.79,0-1.04-.01-2.07,0-3.11.01-.57.39-.9.95-.9.36,0,.73,0,1.09,0,7.89,0,15.77,0,23.66,0,.2,0,.39,0,.59.05.27.07.39.22.39.49,0,.97-.01,1.94,0,2.91,0,.24-.09.36-.33.4-.35.06-.42.17-.31.51.17.5.37.99.55,1.48.08.22.24.29.47.28.31-.02.62-.03.93-.03.21,0,.3-.09.29-.3-.01-.32-.02-.64-.02-.96,0-7.47,0-14.94,0-22.42Z"/>
  <path d="m19.22,14.16c.74-.28,1.47-.56,2.21-.85.16-.06.21,0,.22.16,0,.23-.13.53.03.65.15.11.44.01.67,0,.09,0,.2-.03.28.1-.27.09-.53.08-.78.02-.21-.05-.23.04-.22.2,0,.02,0,.04,0,.07.05.65.08.69-.62.41-.59-.23-1.19-.46-1.78-.69,0-.03-.01-.05-.02-.08Z"/>
  <path d="m106.16,14.17c-.82.33-1.56.62-2.3.92-.18.07-.25,0-.23-.17,0-.01,0-.02,0-.03q0-.55-.46-.69c.5-.04.55-.09.44-.62-.07-.3.06-.34.28-.28.76.22,1.46.58,2.27.87Z"/>
  <path d="m120.09,21.87c-.27-.12-.56-.07-.85-.08-.14,0-.18-.05-.12-.18.27-.67.55-1.34.82-2.02.03-.07.06-.15.15-.15.12,0,.08.1.1.17.21.54.43,1.08.65,1.62.05.12.09.25.14.37.04.12.01.19-.13.19-.25,0-.51-.02-.75.08Z"/>
  <path d="m119.8,63.72c.27-.04.62.06.97.04.21-.02.29.04.18.26-.22.47-.41.95-.61,1.43-.04.1-.07.21-.12.31-.04.09.05.26-.09.28-.16.02-.2-.16-.25-.27-.25-.58-.48-1.16-.72-1.74-.1-.24-.06-.35.23-.31.11.01.22,0,.41,0Z"/>
  <path d="m120,18.72c-.62,0-1.24,0-1.85,0-.15,0-.29-.01-.27-.19.01-.17.17-.15.28-.14,1.22.08,2.45.03,3.67.04.08,0,.15,0,.23.03.07.02.12.06.11.14,0,.07-.07.09-.12.1-.1.02-.2.03-.29.03-.58,0-1.17,0-1.75,0h0Z"/>
  <path d="m107.12,14.2c0,.63,0,1.26,0,1.89,0,.11.07.28-.12.29-.21.01-.18-.17-.18-.31,0-1.26,0-2.51,0-3.77,0-.13,0-.27.17-.27.16,0,.13.15.13.25,0,.64,0,1.28,0,1.92Z"/>
  <path d="m120.01,66.83c.63,0,1.26,0,1.89,0,.1,0,.25-.03.25.13,0,.14-.14.11-.23.11-1.27,0-2.54,0-3.81,0-.11,0-.25.01-.24-.15,0-.15.14-.11.23-.11.64.02,1.28-.07,1.92,0Z"/>
  <path d="m18.46,14.24c0,.63,0,1.26,0,1.89,0,.09.06.26-.11.25-.14,0-.11-.14-.11-.24,0-1.24-.01-2.47-.02-3.71,0-.07,0-.13,0-.2.01-.08.03-.17.13-.17.14,0,.11.12.11.19,0,.66,0,1.32,0,1.99h0Z"/>
  <path d="m120.11,52.85c-.06,1.84.13,3.68-.11,5.52.14-1.84-.13-3.68.11-5.52Z"/>
  <path d="m120.08,59.15c.13.19.06.37.06.54.02.82.02,1.65.02,2.47,0,.07-.02.14-.1.15-.1,0-.08-.08-.08-.14.06-.9.12-1.8.04-2.7,0-.09-.04-.2.06-.31Z"/>
  <path d="m120.12,25.76c.09.92-.12,1.84-.02,2.76-.03,0-.06,0-.09,0v-2.76h.1Z"/>
  <path d="m120.05,38.71c-.06-.85-.06-1.7.01-2.56.16.85.04,1.7-.01,2.56Z"/>
  <path d="m120.01,31.76c0-.66,0-1.32,0-1.98,0-.14-.02-.28-.03-.43,0-.07,0-.14.1-.13.08,0,.13.05.11.13-.17.74-.04,1.48-.06,2.23,0,.06-.02.12-.03.18-.03,0-.07,0-.1,0Z"/>
  <path d="m120.02,24.99c.03-.67.03-1.31-.03-1.95,0-.09,0-.16.11-.15.09,0,.09.07.08.15-.06.6-.06,1.2-.06,1.79,0,.06,0,.11-.11.16Z"/>
  <path d="m120.04,34.8v-2.06s.06,0,.09,0c-.06.69.11,1.38-.09,2.06Z"/>
  <path d="m120.07,51.49c-.09-.51-.05-1.03.02-1.54.01.51.13,1.03-.02,1.54Z"/>
  <path d="m92.76,15.14c-.33.08-.66.1-.99,0h.99Z"/>
  <path d="m120.05,63.5v-.81h.04v.8s-.03,0-.04,0Z"/>
  <path d="m27.15,14.23c-.29.1-.56.01-.85,0h.85Z"/>
  <path d="m56.74,42.33c3.99,0,7.97,0,11.96,0,2.63,0,5.26,0,7.88,0,.9,0,.89.02.89.91,0,4.47,0,8.94,0,13.41,0,.72,0,1.43,0,2.15,0,.41-.09.52-.5.53-2.96.07-5.92.08-8.87.02-1.58-.03-3.16-.05-4.74.03-.19,0-.38,0-.56,0-7.81,0-15.62,0-23.42,0-.9,0-1.81-.04-2.71-.06-.12,0-.24-.02-.36-.04-.43-.08-.49-.15-.49-.58,0-5.26,0-10.53,0-15.79,0-.38.13-.52.55-.54.56-.03,1.13-.04,1.69-.04,6.23,0,12.46,0,18.69,0h0Zm.52,16.71c6.27,0,12.54,0,18.82,0,.29,0,.57.04.86,0,.19-.02.28-.12.3-.29.01-.12.01-.24.01-.36,0-5.01,0-10.02,0-15.03,0-.78,0-.79-.79-.78-2.85,0-5.7,0-8.55,0-10.24,0-20.47,0-30.71,0-.3,0-.59.03-.89.06-.23.03-.29.13-.28.35.02.37.02.75.02,1.12,0,4.81,0,9.62-.01,14.43,0,.34.11.46.45.49.56.04,1.12,0,1.68,0,6.36,0,12.72,0,19.08,0Z"/>
  <path d="m91.6,59.38c-3.4,0-6.8,0-10.2,0-.76,0-1.52,0-2.28-.05-.55-.03-.82-.37-.82-.91,0-4.08,0-8.17,0-12.25,0-.95,0-1.9,0-2.85,0-.66.29-.98.95-.98,4.07-.01,8.15-.02,12.22-.02,2.54,0,5.08,0,7.62.02.32,0,.64-.03.95-.09.85-.15,1.46-.9,1.59-1.86.09-.67.05-1.34.06-2.02,0-.85.27-1.12,1.13-1.14.48,0,.97-.04,1.45.07.32.07.47.21.47.59-.01,6.73,0,13.46,0,20.19,0,.24-.02.49,0,.73.02.32-.13.45-.42.46-.75.04-1.5.1-2.25.1-3.49.01-6.98,0-10.47,0Zm-.11-.34h0c3.78,0,7.55,0,11.33,0,.41,0,.81.05,1.22,0,.32-.04.45-.14.45-.49-.02-1.63-.02-3.27-.02-4.9,0-5.21,0-10.42.01-15.63,0-.28-.09-.42-.36-.49-.42-.12-.84-.06-1.25-.06-.68,0-.92.26-.93.95,0,.7.1,1.43-.08,2.11-.23.84-.55,1.65-1.54,1.88-.44.1-.89.17-1.34.17-6.1,0-12.19,0-18.29,0-.47,0-.95-.01-1.42.01-.54.02-.71.21-.72.74-.01.6-.02,1.19-.02,1.79,0,4.33,0,8.65,0,12.98,0,.7.26.95.96.95,4,0,8,0,11.99,0Z"/>
  <path d="m19.97,44.86c0-2.23,0-4.46,0-6.69,0-.73.18-.93.93-.93,1.27,0,2.54,0,3.81,0,1.02,0,2.03,0,3.05,0,.51,0,.88.34.9.85.03.65.04,1.3.02,1.95-.02.74.34,1.31.79,1.84.25.3.63.33.99.39.78.12,1.56.04,2.35.06.33,0,.66.03.99,0,.43-.04.76.12,1.07.4.09.09.12.18.12.29,0,2.55,0,5.1,0,7.64,0,.59-.02.58-.64.61-2.86.18-5.72.39-8.59.55-1.76.09-3.52.28-5.28.37-.5.02-.5.02-.5-.48,0-2.28,0-4.57,0-6.85h0Zm.24-.33c0,1.29,0,2.3,0,3.32,0,1.27-.02,2.54-.04,3.81,0,.26.07.36.35.32.33-.05.66-.05.99-.07,2.58-.19,5.15-.38,7.73-.57.88-.06,1.76-.11,2.64-.18.8-.07,1.6-.16,2.41-.12.44.03.46.02.46-.4,0-2,0-3.99-.01-5.99,0-.5-.02-.99-.02-1.49,0-.31-.17-.44-.44-.52-.34-.09-.68-.06-1.02-.06-1.13-.02-2.28.09-3.4-.2-.15-.04-.32-.04-.43-.15-.5-.52-.95-1.09-.97-1.86-.02-.66,0-1.32,0-1.99,0-.25-.09-.44-.25-.62-.25-.28-.58-.29-.91-.29-2.08,0-4.15,0-6.23,0-.25,0-.48.04-.7.15-.15.07-.21.16-.2.33.08,2.28.04,4.57.05,6.58Z"/>
  <path d="m68.1,33.28c0-2.48,0-4.96,0-7.45,0-.56.18-.73.77-.79.65-.06,1.3-.02,1.95-.03,1.71,0,3.42-.02,5.13-.02.7,0,1.08.37,1.08,1.08,0,4.64,0,9.29,0,13.93,0,.18,0,.35.01.53.02.63-.29.99-.91.99-2.45,0-4.9,0-7.35,0-.55,0-.68-.16-.68-.7,0-2.52,0-5.03,0-7.55h0Zm.22-.06s0,0,0,0c0,2.31-.01,4.61,0,6.92,0,1.08-.21,1.09,1.14,1.11,1.91.03,3.82.01,5.73.01.29,0,.58.01.86-.02.53-.06.63-.18.68-.7.02-.16.04-.33.04-.49,0-2.73,0-5.45,0-8.18,0-1.88.01-3.75.02-5.63,0-.61-.35-1-.9-1-2.21.03-4.41.02-6.62,0-.22,0-.44.03-.65.11-.21.07-.29.19-.29.42,0,2.48,0,4.97,0,7.45Z"/>
  <path d="m35,55.67c0,.87-.03,1.74,0,2.61.03.78-.52,1.11-1.1,1.09-3.78-.11-7.57.05-11.35,0-.63,0-1.26-.03-1.88-.06-.62-.03-.74-.2-.72-.8.04-1.72.01-3.44-.02-5.16,0-.24.06-.38.33-.38,1.59.03,3.17-.18,4.76-.27,2.96-.17,5.92-.46,8.88-.67.79-.06,1.12.26,1.11,1.05,0,.86,0,1.72,0,2.58Zm-.25.02s0,0,0,0c0-.34,0-.68,0-1.03,0-.53.02-1.06.01-1.59,0-.61-.24-.83-.84-.83-.06,0-.11,0-.17,0-1.56.12-3.12.25-4.69.37-1.9.15-3.8.29-5.71.43-.96.07-1.91.17-2.87.23-.28.02-.29.15-.29.36,0,1.61.07,3.22-.02,4.83-.02.34.15.49.44.54.12.02.24.02.36.02,3.96,0,7.93,0,11.89,0,.4,0,.79.09,1.19.01.54-.1.7-.26.7-.81,0-.85,0-1.7,0-2.55Z"/>
  <path d="m104.72,28.34c0,2.52,0,5.03,0,7.55,0,.17.19.39-.02.51-.14.08-.34.06-.52.06-.6.01-1.19.04-1.79.02-.51-.02-.69-.26-.69-.84,0-2.49-.01-4.99-.01-7.48,0-2.37.02-4.74.02-7.12,0-.4.25-.75.65-.79.65-.05,1.3-.11,1.94.04.31.07.44.21.44.57-.02,2.49,0,4.99,0,7.48h-.02Zm-.24.11s0,0,0,0c0-2.44,0-4.88,0-7.32,0-.5-.03-.53-.52-.62-.45-.09-.9-.06-1.35-.03-.44.03-.68.36-.68.82.07,4.83-.04,9.66.05,14.5,0,.26.08.37.33.37.61,0,1.21,0,1.82.03.28.01.35-.08.35-.36-.01-2.46,0-4.92,0-7.38Z"/>
  <path d="m28.68,30.73c0,1.45,0,2.89,0,4.34,0,.36,0,.73-.13,1.08-.07.19-.18.3-.38.31-.25.01-.51.03-.76.03-2,0-4,0-6,0-.41,0-.81-.02-1.22-.04-.16,0-.28-.06-.26-.26.12-.85.04-1.7.04-2.54.01-2.68,0-5.36,0-8.04,0-.17.06-.26.2-.34.26-.15.55-.22.85-.22,2.05,0,4.11-.02,6.16-.02.21,0,.42-.02.63,0,.53.04.91.47.9,1.05-.03,1.56,0,3.11,0,4.67h0Zm-8.49.07s0,0,0,0c0,1.67,0,3.33,0,5,0,.29.07.41.39.4,2.46-.01,4.92-.01,7.39,0,.29,0,.43-.11.45-.39.01-.31.04-.62.04-.92,0-2.88,0-5.76,0-8.64,0-.55-.41-.99-.95-.99-2.07,0-4.15,0-6.22.01-.3,0-.59.02-.87.15-.17.08-.22.18-.22.36,0,1.68,0,3.35,0,5.03Z"/>
  <path d="m72.55,24.24c-1.08,0-2.16,0-3.25,0-.2,0-.4,0-.59-.04-.53-.08-.62-.21-.61-.73,0-.96.01-1.92,0-2.88,0-.3.12-.44.39-.52.27-.08.54-.12.81-.12.45,0,.91,0,1.36,0,.21,0,.33-.06.29-.32-.03-.2-.15-.47.09-.57.24-.1.26.22.36.34.23.29.42.51.85.56.66.08,1.06-.23,1.45-.66.11-.12.22-.35.41-.24.16.1.14.34.09.52-.06.22.03.3.24.33.36.05.73.04,1.09.04.24,0,.49,0,.73.02.44.04.76.37.76.81.01.86.01,1.72,0,2.58-.01.53-.41.89-.95.89-1.17,0-2.34,0-3.51,0h0Zm-1.3-4.72c-.08.06-.08.16-.07.23,0,.32-.16.37-.45.4-.6.06-1.19.02-1.79.04-.51.02-.65.18-.65.68.01.75.01,1.5.01,2.25,0,.76.08.85.85.85,1.84,0,3.69,0,5.53,0,.49,0,.97-.02,1.46-.05.37-.02.61-.21.62-.51.01-.82.03-1.63,0-2.45,0-.48-.33-.76-.81-.77-.54,0-1.08-.01-1.62-.02-.4,0-.41,0-.31-.41.02-.1.02-.17-.06-.24-.08-.07-.14-.01-.21.03-.15.09-.31.17-.37.36-.02.08-.08.13-.16.15-.46.16-.93.16-1.4.08-.34-.06-.4-.38-.55-.61,0,0-.02,0-.04,0Z"/>
  <path d="m24.28,24.25c-1.16,0-2.32-.01-3.48,0-.33,0-.55-.18-.81-.32-.08-.04-.08-.12-.08-.2.02-1.06.04-2.11.04-3.17,0-.24.11-.34.31-.44.51-.23,1.04-.14,1.57-.17.11,0,.22,0,.33,0q.41,0,.38-.42s0-.04,0-.07c.03-.16-.02-.39.15-.44.16-.05.22.17.3.3.49.82,1.48.91,2.13.21.13-.14.26-.27.39-.4.06-.06.12-.14.23-.08.08.05.13.12.13.21,0,.15,0,.31,0,.46,0,.17.05.23.23.22.5-.01.99,0,1.49,0,.7.01,1.08.37,1.1,1.08.02.74.03,1.48.02,2.22,0,.64-.41,1-1.03,1-1.13,0-2.25,0-3.38,0,0,0,0,0,0,0Zm-.09-.27h0c.29,0,.57,0,.86,0,.93-.01,1.85.04,2.78-.05.41-.04.62-.21.62-.55,0-.78.01-1.57,0-2.35-.01-.6-.3-.85-.9-.85-.4,0-.79,0-1.19.01-.2,0-.42.05-.59-.02-.24-.1-.03-.38-.12-.57-.03-.06.02-.17-.08-.19-.09-.02-.13.07-.19.12-.21.2-.36.48-.66.59-.63.23-1.26.07-1.71-.42-.06-.07-.11-.21-.23-.14-.11.06-.04.18-.01.27.08.25.01.33-.26.33-.58,0-1.17.02-1.75.06-.26.02-.56.06-.56.42,0,.93,0,1.85.03,2.78,0,.41.19.56.6.56,1.13,0,2.25,0,3.38,0Z"/>
  <text class="cls-5" transform="translate(54.47 87.45)"><tspan x="0" y="0">T80P</tspan><tspan class="cls-2" x="26.71" y="0">K</tspan><tspan class="cls-3" x="33.54" y="0">C</tspan></text>
  <text class="cls-4" transform="translate(107.82 46.84)"><tspan x="0" y="0">50mm</tspan></text>
  <text class="cls-4" transform="translate(51.58 16.84)"><tspan x="0" y="0">80mm</tspan></text>
  <line class="cls-1" x1="21.44" y1="14.25" x2="50.81" y2="14.25"/>
  <line class="cls-1" x1="104.67" y1="14.2" x2="76.07" y2="14.2"/>
</svg>