<?xml version="1.0" encoding="UTF-8"?>
<svg id="P60SS" xmlns="http://www.w3.org/2000/svg" viewBox="0 0 150 100">
  <defs>
    <style>
      .cls-1 {
        stroke-width: .14px;
      }

      .cls-1, .cls-2, .cls-3, .cls-4 {
        fill: none;
        stroke: #000;
        stroke-miterlimit: 10;
      }

      .cls-5 {
        font-size: 12px;
      }

      .cls-5, .cls-6 {
        font-family: MyriadPro-Regular, 'Myriad Pro';
      }

      .cls-5, .cls-7 {
        fill: #231f20;
      }

      .cls-2 {
        stroke-width: .11px;
      }

      .cls-3 {
        stroke-width: .11px;
      }

      .cls-4 {
        stroke-width: .13px;
      }

      .cls-6 {
        fill: #010101;
        font-size: 6.46px;
      }
    </style>
  </defs>
  <text class="cls-6" transform="translate(77.21 13.72)"><tspan x="0" y="0">40mm</tspan></text>
  <text class="cls-6" transform="translate(43.38 41.14)"><tspan x="0" y="0">45mm</tspan></text>
  <g>
    <line class="cls-1" x1="52.08" y1="41.7" x2="52.08" y2="65.08"/>
    <path d="m52.08,65.95c-.15-.41-.41-.92-.69-1.24l.69.25.69-.25c-.28.32-.54.82-.69,1.24Z"/>
  </g>
  <g>
    <line class="cls-4" x1="52.08" y1="36.94" x2="52.08" y2="20.95"/>
    <path d="m52.08,20.15c.14.38.38.84.63,1.13l-.63-.23-.63.23c.25-.29.49-.76.63-1.13Z"/>
  </g>
  <line class="cls-1" x1="52.75" y1="65.79" x2="51.42" y2="65.79"/>
  <line class="cls-4" x1="52.75" y1="20.15" x2="51.42" y2="20.15"/>
  <g>
    <line class="cls-2" x1="94.63" y1="12.15" x2="105.9" y2="12.15"/>
    <path d="m106.59,12.15c-.33.12-.73.33-.98.55l.2-.55-.2-.55c.25.22.66.43.98.55Z"/>
  </g>
  <g>
    <line class="cls-3" x1="76.94" y1="12.15" x2="66.76" y2="12.15"/>
    <path d="m66.12,12.15c.3-.11.67-.3.9-.5l-.18.5.18.5c-.23-.2-.6-.39-.9-.5Z"/>
  </g>
  <line class="cls-2" x1="106.59" y1="11.48" x2="106.59" y2="12.81"/>
  <line class="cls-3" x1="66.12" y1="11.48" x2="66.12" y2="12.81"/>
  <path class="cls-7" d="m66.12,58.72c.17-.37.08-.77.09-1.14.02-2.14,0-4.28,0-6.42,0-1.51.03-3.02.01-4.53,0-.51-.05-1.04-.05-1.55,0-.47.06-.95.06-1.43,0-.98,0-1.95,0-2.93,0-.75.01-1.49.02-2.24,0-.09.03-.19-.07-.25-.07-.17,0-.33.04-.49,0-.7.02-1.39.03-2.09,0-.05,0-.09,0-.14.03-.12.03-.24-.03-.36,0-.08,0-.17,0-.25.03-.02.04-.05.01-.08,0-.05,0-.1,0-.15.07-.12.03-.24,0-.36.1-.16-.12-.26-.07-.4.07-.01.1-.05.1-.12,0-.39.02-.79.01-1.18,0-.57-.03-1.14-.02-1.71.02-1.07.02-2.14,0-3.21,0-.27,0-.55,0-.82.02-.12.03-.24,0-.35-.1-.6.09-1.2,0-1.8,0-.21,0-.43,0-.64,0-.09,0-.18,0-.27,0-.03,0-.05,0-.08,0-.04,0-.09,0-.13,0-.03,0-.05,0-.08,0-.35,0-.69.01-1.04,0-.03,0-.05,0-.08,0-.18,0-.37,0-.55,0-.03,0-.05,0-.08,0-.12.02-.23.01-.35-.07-.62.26-.97.78-1.2.61.07,1.22-.07,1.83-.08,1.62,0,3.24.02,4.86,0,.85-.01,1.71.08,2.56-.08.31-.06.66.09.98.09,1.09,0,2.19.03,3.28-.08.62-.06,1.27-.13,1.87,0,.66.14,1.31.01,1.96.06.72.05,1.46.06,2.2-.06.52-.08,1.07.03,1.61-.01.55-.05,1.11.02,1.66.08.84.1,1.67-.15,2.53,0,.66.11,1.36.02,2.05.01.75,0,1.51-.08,2.26-.03,1.07.08,2.14.05,3.21.08.7.02,1.41.08,2.12-.03.16-.02.33-.01.48.02.43.08.86.03,1.28.02.83-.02,1.64-.1,2.43.24,0,0,0,0,0,0,.04.17.07.35.21.48.04.07.07.14.11.2.01.01.03.03.04.04.01.34.03.67.04,1.01,0,.02-.01.05-.02.07,0,.04,0,.09,0,.13,0,.03,0,.05,0,.08,0,.05.01.09.02.14-.02.08-.03.16-.05.23-.02.1.07.27-.13.25-.17-.02-.33-.11-.29-.31.09-.46.01-.92.05-1.38.02-.27-.11-.45-.36-.55-.21-.29-.52-.17-.8-.21-.06-.11-.16-.06-.25-.06-.61,0-1.23,0-1.84,0-.09,0-.19.03-.27-.03-.17-.12-.34-.06-.52-.02-.38.08-.77.18-1.15.11-.31-.06-.62-.05-.93-.04-.71-.06-1.43-.04-2.14-.03-1.38.03-2.75,0-4.12.02-2.19.01-4.37,0-6.56,0-.17-.15-.67-.15-.94,0-.04-.02-.08-.06-.12-.05-.38.07-.75.02-1.13,0-.46-.02-.92-.04-1.38.03-.43-.15-.87-.1-1.31-.02-.02,0-.05,0-.07-.01-.12.06-.24.05-.36.05-.3,0-.6-.05-.89.02-.05,0-.09,0-.14-.01-.11-.05-.23-.04-.35,0-.07,0-.14,0-.21,0-.05,0-.09,0-.14,0-.05,0-.09,0-.14,0-.23-.07-.46.01-.69,0h-.02c-.03-.16-.16-.12-.25-.12-.35,0-.7,0-1.06.01-.12,0-.25-.07-.34.07-.14-.07-.26.04-.39.04-.95.03-1.9-.09-2.86-.03-.91.06-1.83.02-2.74.02-.82,0-1.64,0-2.46,0-.18-.18-.37-.16-.55,0-.27-.02-.54,0-.82-.05-.69-.12-1.16.25-1.21.89-.07.14-.02.28-.03.42,0,.21.02.42.02.62-.2.21-.07.43-.05.66.03.44.02.88.02,1.32,0,2.23-.01,4.46-.04,6.68,0,.74.02,1.48.02,2.22,0,.12,0,.23,0,.35-.13.14-.13.27,0,.41,0,.26,0,.51,0,.77,0,.03,0,.05,0,.08,0,.11,0,.23,0,.34v.08s0,.09,0,.13c0,.03,0,.05,0,.08,0,.14.01.27.02.41,0,.03,0,.05,0,.08,0,.09,0,.18-.01.27,0,.05,0,.1,0,.16,0,.16,0,.31,0,.47,0,.05,0,.1,0,.16,0,.04,0,.09,0,.13-.02.05-.02.1.01.14,0,.05,0,.1.01.14-.09.16-.19.32-.01.48,0,.23,0,.46-.01.69,0,.03,0,.05,0,.08-.03.21-.04.41,0,.61-.03.12-.06.26-.06.37,0,.25-.15.51.04.75,0,.16,0,.33,0,.49,0,.05,0,.1,0,.14,0,.16,0,.33,0,.49-.13.11-.12.23-.01.35.05.25-.04.51.03.76.06.1-.21.16-.04.28,0,.09.01.18.02.27,0,.03,0,.05,0,.08,0,.21,0,.42.01.62v.14c-.01.16-.01.32-.01.49-.19.21.12.42,0,.63,0,.04,0,.09.01.13-.04.07-.02.14,0,.21,0,.14,0,.27,0,.41,0,.03,0,.05,0,.08,0,.51,0,1.02-.01,1.53-.1.03-.08.08-.03.14.01.16.02.32.03.48-.04.05-.04.09,0,.14,0,.39,0,.79,0,1.18-.21.45-.03.92-.1,1.38,0,0,.05.02.08.03.08.48-.07.97.05,1.45h0c-.06.3-.03.6-.03.91-.04.08.03.14.03.21-.03.44-.05.88-.08,1.31-.11.49-.04,1-.12,1.5-.06.39.04.81.05,1.21.02,1.44-.03,2.88-.07,4.32-.03.88.04,1.76.06,2.64,0,.11-.01.22.14.23,0,.07,0,.14,0,.21-.01.05,0,.07.06.07.05.05.09.09.14.14.1.22.28.29.51.28.41,0,.81,0,1.22,0,.08,0,.16,0,.24,0,.17,0,.26-.05.26-.23,0-.14,0-.28,0-.41,0-.15-.06-.21-.21-.18-.13,0-.25-.03-.38,0-.39.06-.55-.16-.63-.48,0-.08,0-.15,0-.23,0-.04,0-.08,0-.13,0-.07,0-.14,0-.21,0-.07.01-.14.02-.21.08-.06.06-.14.05-.22,0-.04.02-.09.03-.13.21,0,.3-.22.55-.21,1.21.03,2.43,0,3.64,0,.24,0,.48.08.74.01.16-.04.35-.03.51,0,.41.08.5.39.48.75,0,.05,0,.09,0,.14-.11.14-.12.28,0,.42,0,.05,0,.09-.01.14-.02.13-.22.12-.21.28-.25.03-.5.06-.75.07-.18,0-.25.07-.23.25.01.1.01.21.01.31-.07.28.12.28.3.28.38,0,.77-.03,1.14.01.41.05.69-.11.9-.44.13-.17.06-.36.07-.55.02-.09.03-.19.05-.28,0-.23,0-.46,0-.69,0-.02,0-.05.01-.07,0-.06-.01-.13-.02-.19-.12-.15.1-.29.01-.44,0-.04,0-.09-.01-.13,0-.14,0-.28,0-.42,0-.11,0-.23,0-.34.02-.08.04-.15-.01-.22,0-.05,0-.09,0-.14.03-.01.08-.02.09-.04.02-.06-.03-.08-.08-.08.05-.4.01-.8-.01-1.19,0-.05,0-.09,0-.14,0-.14.01-.28.02-.42,0-.05,0-.1,0-.14v-.13s.01-.05.01-.08c0-.14,0-.27,0-.41.03-.12.02-.24,0-.36,0-.07.02-.14.03-.21.02,0,.04-.02.06-.03-.02,0-.04-.02-.06-.03l-.03-.07s0-.05,0-.08c0-.28.01-.55.02-.83.01-.19.03-.37-.02-.56,0-.18.01-.37.02-.55,0-.03,0-.05,0-.08,0-.04,0-.09,0-.13.02-.05,0-.07-.05-.08.12-.27.05-.55.07-.83.02-.02.03-.03.05-.05-.02,0-.03-.02-.05-.02,0-.05,0-.09-.01-.14.13-.08.13-.15-.02-.2,0-.07,0-.14,0-.21.04-.12.03-.24.01-.36,0-.07,0-.14,0-.2,0-.03,0-.05,0-.08,0-.09,0-.18,0-.27,0-.05,0-.1-.01-.14.07-.83.01-1.67.01-2.5,0-.07.1-.16-.02-.22-.09-.26.05-.51.05-.77,0-.55-.01-1.11-.02-1.66.07-.03.05-.09.05-.15,0-.74,0-1.49,0-2.23l.03-.13c.09-.13.06-.36.27-.38.3-.03.58-.25.91-.12h.21c.67,0,1.34,0,2.01.02.52.01,1.03.07,1.55.04.45-.03.9-.05,1.35-.05.81,0,1.62,0,2.42-.02.04,0,.09,0,.13,0,.65.03,1.3.03,1.95,0,.23,0,.46,0,.69,0,1.27,0,2.54.03,3.82,0,.22,0,.47-.17.52-.47.07-.03.05-.09.06-.15.12-.13.04-.28.03-.42.05-.28.06-.55.02-.83.02-.07.02-.14-.01-.21.09-.37-.07-.73-.03-1.1.04-.01.09-.02.05-.09,0-.04,0-.09-.01-.13,0-.05,0-.1,0-.16.04-.25.04-.5.02-.76.04-.05.02-.1-.01-.15.01-.23.05-.46,0-.69,0-.03,0-.05,0-.08,0-.16.01-.32.02-.49,0-.05,0-.09,0-.14,0-.21,0-.42,0-.62,0-.02,0-.05,0-.07,0-.32,0-.65-.01-.97,0-.03,0-.05,0-.08,0-.11,0-.23,0-.34,0-.14,0-.29,0-.43,0-.11,0-.22,0-.34,0-.03,0-.05,0-.08,0-.14,0-.27,0-.41,0-.03,0-.05,0-.08,0-.23,0-.46,0-.69,0-.17.05-.33,0-.5,0-.72.01-1.44.02-2.15,0-.02,0-.05,0-.07.02-.23.03-.46.05-.69.04-.04.04-.09.02-.15l-.02-.13c.01-.45-.07-.9.09-1.33.03,0,.05,0,.08,0,.49-.01.98.07,1.47-.04.02,0,.05,0,.07-.02.24.02.49.01.73.03.46.03.9.04,1.36,0,.29-.03.59.17.87-.08.01,0,.05,0,.06.01.35.3.78.19,1.17.16.26-.02.54-.07.78-.02.26.05.39-.06.53-.23h0s.07-.02.07-.06c.02-.12.08-.23.04-.35.01-.2.13-.52-.1-.54-.33-.03-.35-.28-.5-.44-.03-.12-.06-.24-.09-.36.18-.01.14-.14.14-.26,0-.76,0-1.52,0-2.28-.01-1.15.05-2.31.01-3.46.09-.43.41-.5.78-.5.38.22.79-.05,1.19.04.13.03.34.18.49-.02.04,0,.09-.01.13-.02.07.03.14.04.22,0,.04,0,.09,0,.13,0,.23.05.47.05.7,0,.12.05.23.01.35,0,.74.02,1.49.05,2.23.07.07.02.12.11.2.07.34.17.24.51.32.79.03.1-.08.24.11.27,0,.19,0,.37,0,.56-.14.12-.07.24.02.35-.05.3-.04.6-.01.9-.03.05-.03.1,0,.14,0,.05,0,.09,0,.14,0,.02,0,.05,0,.07,0,.28,0,.56,0,.84-.07,0-.09.03-.11.1-.11.32-.04.63,0,.95.05.56,0,1.12-.08,1.67-.12.07-.03.19-.07.28-.1.08-.19.15-.33.14-.13-.02-.24.06-.22.19.04.18,0,.38.15.52.07.14.28.11.33.27-.03.14.07.23.16.2.24-.08.46.06.69,0,.32-.06.55-.22.63-.55.07-.05.14-.09.14-.21-.01-.33.04-.66-.03-.98,0-.03,0-.05,0-.08,0-.48,0-.96,0-1.44.11-.26.11-.53.02-.8.01-.13.03-.27.04-.4.02-.1.03-.2-.11-.22-.04-.52.2-1.04,0-1.57-.03-.09.03-.15.09-.2.04-.05.04-.09-.02-.12,0-.08,0-.15.01-.23.06-.11-.05-.25.07-.35.31.28.36.64.34,1.02,0,.55,0,1.11,0,1.66,0,.03,0,.05,0,.08,0,.51,0,1.02-.01,1.53-.14.32-.09.65-.01.98-.01.37-.03.74.02,1.11,0,.05-.01.1-.02.14-.01.05-.03.09-.04.14-.03.09-.06.19-.1.28-.05.15-.15.24-.3.28-.16.05-.32.11-.41.27-.48-.07-.97.02-1.45.02-.2-.24-.5-.41-.51-.78.03-.25-.02-.48-.13-.7.05-.15-.18-.19-.13-.34.19-.03.34-.18.56-.15.28.04.41-.16.42-.39.02-.66,0-1.31,0-1.97-.1-.15-.03-.33-.08-.49.06-.09.07-.19.07-.29.02-1,.04-1.99,0-2.99.02-.35-.22-.34-.46-.34-.65,0-1.3.11-1.96.02-.57-.08-1.16-.03-1.74-.02-.59.01-1.18-.05-1.76.14-.14.09-.12.22-.1.35-.02.12-.02.23.02.35,0,.02,0,.05-.01.07,0,.07,0,.14,0,.2,0,.02,0,.05,0,.07,0,.04.02.08.03.13-.04.09-.04.19-.03.29,0,.11,0,.23,0,.34,0,.16,0,.33,0,.49,0,.04,0,.09,0,.13,0,.03,0,.05,0,.08-.05.09-.05.18-.02.27,0,.02,0,.05,0,.07-.04.42,0,.84.05,1.26,0,.04,0,.09,0,.13-.06.16-.03.33,0,.49,0,.02,0,.05,0,.07,0,.1,0,.19,0,.29-.18.16-.12.32,0,.48,0,.05-.01.1-.02.14-.24.24,0,.44.09.61.11.19.35.05.53.05.18.14.18.29.08.48-.1.21-.26.4-.21.66.02.42-.28.59-.58.77-.04,0-.09.01-.13.02-.42,0-.84,0-1.25,0-.05.02-.11.07-.15.06-.69-.22-1.39.01-2.09-.11-.45-.08-.92-.02-1.39-.02-.26-.11-.52-.03-.79-.05-.12,0-.26-.07-.32.11-.12,0-.23,0-.35,0-.13,0-.23.04-.19.21,0,.03,0,.05,0,.08,0,.07,0,.14-.01.2,0,.05,0,.1,0,.15,0,.21,0,.42.01.62,0,.05-.02.1-.02.14-.04.83-.02,1.67,0,2.5-.03.07-.03.15,0,.22,0,.32,0,.64.01.97-.1.37-.19.74-.02,1.11,0,.16,0,.33,0,.49-.03.07-.05.13-.03.21,0,.12.01.23.02.35,0,.03,0,.05,0,.08,0,.23,0,.46,0,.69,0,.03.01.05.02.08,0,.42-.02.83-.02,1.25,0,.02,0,.05,0,.07,0,.12,0,.23,0,.35,0,.02,0,.04,0,.07,0,.07,0,.14.01.21-.04.07-.05.14,0,.21,0,.14.02.28.02.42,0,.03,0,.05,0,.08,0,.53,0,1.07,0,1.6-.14.44-.06.88-.06,1.33,0,.67-.36,1.34-1.25,1.33-.5,0-1.01.09-1.51.05-.94-.06-1.89.09-2.83-.06-1.09-.03-2.18-.04-3.27,0-.47-.06-.93.03-1.39.07-.76-.24-1.55-.06-2.32-.11-.45-.03-.93-.02-1.4.03-.6.06-1.21-.11-1.79.14-.02,0-.04.01-.06.02-.13.02-.15.11-.14.23.01.25.02.5.03.74,0,.07,0,.13,0,.2,0,.07,0,.14,0,.21-.04.07-.02.14,0,.21-.11.32-.05.65-.02.98,0,.04,0,.09,0,.13,0,.03,0,.05,0,.08,0,.04,0,.09-.01.13-.02.05,0,.1.02.14-.05.16-.02.32,0,.48,0,.02,0,.05-.01.07,0,.51,0,1.02,0,1.53-.03.07,0,.14.02.21,0,.09,0,.18,0,.27-.03.07-.03.15,0,.22,0,.06,0,.13,0,.19,0,.07,0,.15,0,.22,0,.6,0,1.2,0,1.8-.03.05-.03.1,0,.15,0,.04.02.08.03.12,0,.05,0,.1,0,.15-.03.37-.05.74-.01,1.12-.14.13-.11.27-.05.42,0,.09.01.18.02.28-.03.05-.02.1,0,.14-.02.16-.04.32,0,.48-.03.05-.03.1,0,.15-.07.3-.02.6-.01.9-.1.16-.12.33.01.49v.21c-.12.4-.09.79,0,1.19,0,.37-.01.74-.02,1.11-.06.13-.04.27-.04.41.01,1.12-.04,2.24.06,3.36-.13.13-.12.31-.14.48-.23.37-.44.71-.95.78-.67.09-1.33-.02-1.99,0-.17-.03-.13-.24-.27-.3,0-.32,0-.64,0-.96.07-.1.13-.2.2-.3.1-.02.2-.03.3-.05.22-.05.53.13.65-.14.09-.21.03-.47.03-.71,0-.1-.03-.16-.14-.12-.02,0-.04,0-.07,0-.52,0-1.05,0-1.57-.01-1-.01-2.01-.02-3.01-.04-.26,0-.41.1-.43.36,0,.12,0,.23-.02.35-.02.23.06.35.31.33.2-.02.39,0,.59,0,.07.07.14.14.21.21,0,.37,0,.74,0,1.11-.08.12-.11.29-.29.32-.34,0-.69-.01-1.03-.02-.29,0-.57.07-.87,0-.57-.12-.86-.46-.96-1,0-.44,0-.87,0-1.31,0-.1-.02-.15-.12-.16,0-.05,0-.09,0-.14.22-.06.13-.25.13-.38,0-1.22,0-2.44,0-3.65,0-.09.05-.19-.09-.22,0-.09,0-.19,0-.28Z"/>
  <path class="cls-7" d="m89.99,32.01s0,.06,0,.09c-.13.07-.14.14,0,.2,0,.05,0,.1.01.14-.13.28-.14.56,0,.84-.02,0-.03.02-.03.04,0,0-.02-.02-.02-.02-.04,0-.04.02,0,.03,0,0,.02-.01.02-.02.01.27.02.54.03.81-.02.1-.07.2-.06.3.06.62.02,1.24,0,1.86-.01.37-.12.75.02,1.12,0,.07,0,.13,0,.2,0,.05,0,.1.01.15-.02.12-.1.19-.19.27-.34.29-.34.45-.02.75.07.07.13.15.19.23-.21.17.1.32.02.49,0,.05,0,.09-.01.14-.04.12-.03.23-.01.35,0,.11.01.23.02.34-.02.07-.05.14-.01.22,0,.28,0,.55,0,.83,0,.03,0,.05,0,.08,0,.23,0,.46,0,.69,0,.03,0,.05,0,.08,0,.04,0,.09,0,.13-.01.14-.06.28,0,.43.05.43,0,.83-.36,1.13-.51,0-1.03-.03-1.54,0-.29.02-.61-.13-.89.09-.07-.05-.15-.03-.23-.02-.28-.13-.55-.12-.83,0-.07,0-.14,0-.21,0-.09-.12-.23-.07-.35-.07-.33,0-.66.03-.97-.08,0,0,0,0,0,0-.02-.02-.04-.05-.05-.07,0,0-.01-.01-.01-.01-.03-.07-.09-.05-.14-.06,0,0,0,0,0,0-.05-.1-.1-.09-.15,0-.11.06-.22.11-.33.17-.41.07-.82.03-1.23.05-.24,0-.5-.09-.73.08-.02,0-.05,0-.07.01-.1-.09-.23-.1-.36-.09-.49,0-.99,0-1.48.02-.29.01-.59-.08-.88.05-1.45.02-2.89.04-4.34.07,0-.09-.06-.11-.14-.11-.23,0-.46,0-.69,0-.19-.07-.36-.18-.46-.37-.2.12-.31.38-.58.37-.95,0-1.91-.01-2.86,0-.23,0-.48-.09-.7.05-.12,0-.24.01-.36.02-.22-.13-.47-.06-.7-.06-.58-.09-.37-.6-.48-.93,0-.02,0-.04,0-.06.05-.04.04-.09.03-.13,0-.08,0-.15,0-.23,0-.06,0-.13,0-.19.03-.4.04-.8,0-1.19,0-.12,0-.23.01-.35.02-.28.03-.56-.01-.84,0-.05,0-.09.01-.14,0-.03,0-.05,0-.08,0-.07,0-.14.01-.21.07-.04.08-.09,0-.14,0-.02,0-.05,0-.07.02,0,.03-.01.05-.02-.02-.01-.03-.03-.05-.04,0-.02-.01-.05-.02-.07,0-.03,0-.05,0-.08-.05-.31.22-.44.36-.64.07-.1.12-.12-.04-.2-.21-.11-.25-.38-.32-.61,0-.05,0-.1,0-.15,0-.04,0-.09,0-.13.03-.08.05-.16-.04-.23.08-.13.04-.27.03-.4,0-.03,0-.05,0-.08,0-.83,0-1.67,0-2.5,0-.09,0-.19,0-.28,0-.11,0-.23-.01-.34,0-.14,0-.28.01-.42,0-.04,0-.09,0-.13,0-.03,0-.05,0-.08,0-.09,0-.18,0-.27,0-.17,0-.33.01-.5.05-.49.01-.97,0-1.46-.05-.09.19-.18,0-.28-.03-.67.05-1.35-.02-2.02,0-.03,0-.05,0-.08,0-.09.02-.18.03-.28.17-.17.5-.21.43-.57-.09-.16-.36-.16-.37-.41.01-.05-.02-.06-.06-.07,0-.07-.01-.14-.02-.21,0-.09,0-.19,0-.28,0-.21,0-.41.01-.62.05-.07.06-.14.01-.21,0-.53,0-1.07,0-1.6.11-.37.1-.74-.02-1.11,0-.21.02-.42.02-.62.21-.39.58-.46.98-.49.71-.05,1.41.05,2.12,0,.44-.04.88,0,1.32,0,.35,0,.69-.02.98.26.09.09.27.14.42-.01.21-.22.49-.24.79-.24,1.78.03,3.56-.01,5.34.04.62.02,1.25-.03,1.88-.05.61-.02,1.22,0,1.83,0,.23,0,.39.09.52.28.15.24.42.21.55-.04.04-.08.1-.15.15-.22.04,0,.08-.02.12-.03.73.07,1.47.03,2.21.05.63.02,1.27-.04,1.91-.03.33,0,.66.02.81.41.02.06.05.16.16.15,0,.39.02.79.02,1.18-.08.28-.15.55-.03.84,0,.09,0,.18,0,.27-.04.01-.07.03-.05.08,0,.14,0,.27.01.41,0,.44,0,.89.01,1.33,0,.07,0,.14,0,.21-.03.05-.03.1.03.13.03.16-.05.26-.18.34-.38.25-.39.27-.09.6.04.04.08.08.13.11.06.13-.09.31.1.41,0,.23,0,.47,0,.7.07.09-.2.19.02.27,0,.11-.02.21-.03.32-.02,0-.04,0-.05,0,.02,0,.04,0,.05,0,0,.1,0,.2.01.3-.04.1-.03.19.03.28,0,.04,0,.09,0,.13-.09.54,0,1.08-.03,1.62,0,0-.01.01-.01.01-.02,0-.04.01-.06.02l.06.02Zm-21.53-9.6v.02c-.08.05-.07.11-.04.18,0,.07-.01.14-.02.21,0,.03,0,.05,0,.08,0,.21,0,.41,0,.62,0,.05,0,.1,0,.14,0,.05,0,.09,0,.14,0,.03,0,.05,0,.08,0,.03-.02.06-.03.08l-.06.02s.04.01.06.02c0,.08.01.15.02.23-.13.18-.16.37.01.54,0,.08,0,.15,0,.23-.13,0-.09.11-.09.18,0,.39,0,.78,0,1.17,0,.32.08.62.38.82.16.1.24.27.23.47-.16.21-.32.42-.48.63-.21.05-.17.15-.07.28,0,.05,0,.09,0,.14-.05.01-.07.05-.07.1,0,.55,0,1.1,0,1.65,0,.06,0,.12.08.13,0,.21,0,.42,0,.63,0,.03,0,.05,0,.08-.01.67-.04,1.34,0,2.01,0,.03,0,.05-.01.08,0,.04,0,.09-.01.13-.03.17-.02.33,0,.5,0,.95-.02,1.9-.02,2.85-.07.47-.2.96.38,1.25.15.07.18.26.11.36-.1.17-.15.39-.36.48-.13.06-.18.15-.17.32.03.68.03,1.37.04,2.06,0,.09,0,.18,0,.28,0,.02,0,.04-.01.06,0,.14,0,.28,0,.41,0,0-.01.02,0,.02,0,.01.01.03.02.04,0,.19,0,.38-.01.56,0,0-.01.02,0,.02,0,.01.01.03.02.04,0,.05,0,.11.01.16-.01.02-.03.04-.04.05-.02.14-.05.29.06.41.16.25.42.19.64.19,1.16.02,2.31,0,3.47.02.2,0,.34-.07.48-.2.05-.03.11-.05.15-.09.13-.12.17-.31.43-.29.25.02.36.18.51.31.07.07.13.13.24.11.11.13.25.14.41.14.25-.01.49-.01.74,0,.64.03,1.27-.09,1.91-.14.05,0,.1,0,.15,0,.32.11.65,0,.97.01.06.04.13.07.21.05.24-.01.5-.1.71-.03.35.12.7.06,1.05.1.27.03.55-.17.77-.09.63.21,1.26.1,1.89.09.22,0,.49.03.68-.18h0c.11-.03.15-.13.21-.21.07-.02.06-.08.07-.13.13-.02.27-.05.4-.07h0c.21.54.73.56,1.16.58,1.18.05,2.36.02,3.54.02.1,0,.22.02.23-.13h.03s.06-.02.08-.06c.12-.07.04-.18.04-.27,0-.03.02-.07.02-.1-.03-.7,0-1.4-.03-2.1-.02-.51.06-1.04.05-1.57,0-.17-.01-.32-.22-.36-.09-.09-.21-.17-.25-.28-.08-.19-.34-.39-.08-.59.15-.12.25-.28.39-.4.14.03.15-.05.15-.16-.01-.47.03-.95.04-1.42,0-1.28-.03-2.56-.04-3.84.05-.03.05-.08.04-.13,0-.12,0-.24,0-.36,0-.04,0-.08,0-.13,0-.19,0-.38,0-.58v-.2c.02-.44.06-.89-.04-1.33.06-.45-.05-.89-.07-1.34,0-.14-.15-.3-.18-.3-.35-.02-.33-.33-.44-.53.19,0,.22-.24.38-.28.29-.08.36-.33.36-.58.01-.64-.01-1.29,0-1.93.02-.54-.08-1.07,0-1.6-.1-.25.09-.59-.26-.75-.67-.1-1.35-.1-2.02,0-.66,0-1.31,0-1.97-.02-.21,0-.37.08-.5.24-.34.42-.67.41-.99-.04-.09-.13-.21-.2-.38-.19-.44.01-.88,0-1.32,0-.56-.09-1.13-.05-1.7-.05-.31,0-.64-.1-.94.05-.61,0-1.22,0-1.82,0-.43-.1-.86-.05-1.29,0-.58,0-1.16,0-1.74,0-.23,0-.42.07-.6.24-.5.47-.55.46-.96.1,0-.12-.07-.18-.16-.23,0-.02,0-.03-.03-.04-.08-.15-.22-.1-.34-.1-.44,0-.87-.03-1.31,0-.55.04-1.1-.07-1.65.02-.05,0-.1.01-.15.02-.3,0-.61-.09-.9.06-.02,0-.05.01-.07.02-.05-.01-.07,0-.06.06Z"/>
  <path class="cls-7" d="m94.78,29.23c-1.11,0-2.23-.12-3.34-.07-.43.02-.59-.19-.64-.62,0-.8.02-1.61-.01-2.41-.01-.38.09-.78-.07-1.15.01-.16.02-.32.04-.49.11-.72.03-1.44.04-2.17.07-.08.07-.18.08-.28.61-.33,1.28-.21,1.92-.21,1.15,0,2.3.04,3.45.07.09,0,.18.01.27.02.16.53.12,1.1.13,1.64.04,1.33,0,2.66,0,3.98,0,.42.07.85-.06,1.27-.03.16-.11.27-.29.28-.17.03-.34.1-.53.04-.34-.1-.68.01-1.01.08Zm1.47-5.29h0c-.02-.1.06-.21-.06-.29-.06-.07-.08-.16.01-.19.17-.05.13-.19.1-.28-.05-.18-.04-.34-.03-.52.01-.21-.06-.44-.4-.4-.34.04-.69,0-1.03,0-.39-.09-.77-.15-1.16,0-.57-.01-1.14.03-1.71-.06-.64-.1-.8.09-.76.73,0,.06.01.11.02.17,0,.08-.22.16-.02.25-.02.05-.03.09-.05.14,0,0-.02,0-.02-.01,0,0,.02,0,.03,0,.02.34.03.67.05,1.01-.03.04-.03.09,0,.13-.04.56-.05,1.12,0,1.68-.05.07-.05.14,0,.21,0,.63,0,1.25-.01,1.88-.07.18-.02.29.18.31.16.02.32.06.48.05,1.33-.06,2.66.03,3.99,0,.28,0,.39-.1.4-.36,0-.39.05-.79.01-1.18-.03-.31-.08-.6.02-.9.03-.07.09-.15-.02-.21,0-.65-.02-1.3-.03-1.95,0-.03,0-.05,0-.08,0-.02.01-.05.02-.07.02-.01.03-.02.05-.03-.02-.01-.03-.02-.05-.03Z"/>
  <path class="cls-7" d="m73.9,58.93s.01.09.02.13c0,.03,0,.05,0,.08,0,.11,0,.23,0,.34v.08c0,.14,0,.28,0,.42-.12.09-.12.18,0,.27,0,.14-.04.28,0,.41.08.38-.14.62-.38.85-.49.01-.99.03-1.48.04-.78.02-1.56-.09-2.34.04-.36,0-.72,0-1.08,0-.56-.01-.73-.26-.73-.71,0-1.37.01-2.75,0-4.12,0-.54-.07-1.07-.06-1.61.01-.6.08-1.19.03-1.79,0-.1,0-.19.01-.29.03-.07.04-.13,0-.2.02-.1.04-.19,0-.29.12-.51-.08-1-.04-1.51.17-.03.09-.15.08-.24,0-.13-.01-.26-.02-.4.07-.73.03-1.45.02-2.18,0-.04,0-.09-.01-.13,0-.02,0-.05.01-.07,0-.07-.02-.14-.02-.21,0-.02,0-.04,0-.06,0-.12.02-.23.03-.35,0,0,.01-.02,0-.03,0-.02-.01-.03-.02-.05,0-.19.01-.37.02-.56.18-.11-.05-.18-.03-.27,0-.04,0-.09,0-.13,0-.1.02-.2.03-.3,0,0,.02-.03.02-.03s.02,0,.02,0h-.02c-.05-.19-.03-.39-.02-.59.05-.04.05-.08.02-.13-.02-.31.16-.45.43-.5.12.05.2-.07.32-.06,1.16,0,2.31,0,3.47,0,.18,0,.35.13.54.07.29-.1.56,0,.83.05.23.04.38.21.38.49,0,.28-.07.57.04.85,0,.49-.05.98,0,1.46-.11.34.02.7-.13,1.03-.04.08.02.15.11.17,0,.04,0,.07,0,.11-.07.21-.04.43,0,.64,0,.16,0,.33,0,.49,0,0-.01.02-.01.02,0,.02,0,.03.01.05,0,.07,0,.14,0,.21-.06.15,0,.29.01.43,0,.04,0,.08,0,.12-.01.11-.03.23-.03.34.03.92-.06,1.85,0,2.77.02.27-.07.56-.05.81.03.37.06.72-.02,1.08-.02.11-.1.27.06.37.02.24-.02.47.04.71,0,.04,0,.09,0,.13-.04.07-.04.14-.01.21-.04.18-.23.36-.02.55,0,.04,0,.09.01.13,0,.05,0,.11,0,.16,0,0-.02.01-.02.01-.02,0-.04,0-.06.01.02,0,.04,0,.06.01,0,.19,0,.38.01.58,0,.03,0,.05,0,.08Zm-3.72-13.75h0c-.41,0-.83-.02-1.24,0-.24.01-.59-.02-.6.34,0,.56-.06,1.12.02,1.68-.03.08,0,.15.02.22,0,0-.02.01-.02.02,0,.02.01.03.02.05v.2s-.05.05-.03.08c0,.09-.02.19-.03.28-.08.01-.08.07-.08.13,0,.36-.02.73,0,1.09.02.29-.09.61.1.88-.05.16,0,.33,0,.49-.14.19-.15,1.01-.01,1.23,0,.07-.01.14-.02.22,0,.03,0,.05,0,.08,0,.11,0,.23.01.34,0,.03,0,.05,0,.08,0,.04,0,.09-.01.13,0,.14,0,.28,0,.43v.69c-.04.14-.05.3-.05.43,0,.3-.12.62.07.91,0,.06,0,.13,0,.19,0,.05,0,.11,0,.16,0,.09-.02.18-.03.27-.12.05-.07.16-.07.24,0,.5-.01,1.01,0,1.51,0,.13-.08.3.07.41,0,.05,0,.1,0,.15-.02,0-.04.02-.06.02.02,0,.04.01.06.02.01.03.02.06.03.09-.04.06-.11.09-.1.17.06.81-.06,1.62.05,2.44.03.26.15.3.36.3.79,0,1.57,0,2.36,0,.65,0,1.29.02,1.94.02.47,0,.51-.06.51-.52,0-.17.03-.35.03-.52.03-1.57.03-3.13-.03-4.7.08-.1.04-.21.03-.32,0-.08-.02-.15-.03-.23,0-.04.01-.08.02-.12.08-.43-.06-.85-.04-1.27-.1-.25.06-.51-.05-.76.12-.12.1-.27.1-.42,0-1.49,0-2.98,0-4.47,0-.04,0-.09,0-.13,0-.16.04-.33-.03-.49.04-.14.04-.27,0-.41,0-.05,0-.11,0-.16.05-.3.04-.59,0-.89,0-.14.1-.29-.05-.41-.57-.18-1.16-.1-1.73-.15-.46-.03-.93-.11-1.39,0-.02,0-.04-.01-.07-.02-.02-.02-.04-.03-.05-.05,0,.02-.02.03-.03.05Z"/>
  <text class="cls-5" transform="translate(61.53 84.94)"><tspan x="0" y="0">P60SS</tspan></text>
</svg>