<?xml version="1.0" encoding="UTF-8"?>
<svg id="P60-FZT-2" data-name="P60-FZT" xmlns="http://www.w3.org/2000/svg" viewBox="0 0 150 100">
  <defs>
    <style>
      .cls-1 {
        stroke-width: .15px;
      }

      .cls-1, .cls-2, .cls-3, .cls-4 {
        fill: none;
        stroke: #000;
        stroke-miterlimit: 10;
      }

      .cls-5 {
        fill: #323232;
      }

      .cls-6 {
        fill: #231f20;
        font-size: 12px;
      }

      .cls-6, .cls-7 {
        font-family: MyriadPro-Regular, 'Myriad Pro';
      }

      .cls-2 {
        stroke-width: .2px;
      }

      .cls-7 {
        fill: #010101;
        font-size: 9px;
      }

      .cls-3 {
        stroke-width: .16px;
      }

      .cls-4 {
        stroke-width: .18px;
      }
    </style>
  </defs>
  <g>
    <g>
      <line class="cls-3" x1="93.96" y1="74.37" x2="110.38" y2="74.37"/>
      <path d="m111.34,74.37c-.45.17-1.02.46-1.36.76l.27-.76-.27-.76c.35.3.91.59,1.36.76Z"/>
    </g>
    <g>
      <line class="cls-1" x1="68.92" y1="74.37" x2="56.22" y2="74.37"/>
      <path d="m55.34,74.37c.42-.15.93-.42,1.25-.7l-.25.7.25.7c-.32-.28-.83-.54-1.25-.7Z"/>
    </g>
    <line class="cls-3" x1="111.34" y1="73.44" x2="111.34" y2="75.3"/>
    <line class="cls-1" x1="55.34" y1="73.45" x2="55.34" y2="75.3"/>
  </g>
  <text class="cls-7" transform="translate(69.6 77.01)"><tspan x="0" y="0">60mm</tspan></text>
  <text class="cls-7" transform="translate(38 34.63)"><tspan x="0" y="0">60mm</tspan></text>
  <g>
    <g>
      <line class="cls-2" x1="50.12" y1="35.9" x2="50.12" y2="66.05"/>
      <path d="m50.12,67.23c-.21-.55-.56-1.24-.93-1.67l.93.34.93-.34c-.37.43-.72,1.11-.93,1.67Z"/>
    </g>
    <g>
      <line class="cls-4" x1="50.12" y1="28.26" x2="50.12" y2="8.41"/>
      <path d="m50.12,7.33c.19.51.51,1.14.85,1.53l-.85-.31-.85.31c.34-.39.66-1.02.85-1.53Z"/>
    </g>
    <line class="cls-2" x1="51.05" y1="67.03" x2="49.2" y2="67.03"/>
    <line class="cls-4" x1="51.05" y1="7.33" x2="49.2" y2="7.33"/>
  </g>
  <g>
    <path class="cls-5" d="m111.65,53.91c-.23.19-.49.04-.73.05-.59.03-1.19,0-1.78,0-.1.06-.2.1-.29.17-.47.38-.51,1.1-.1,1.41.24.18.5.06.75.08.24.01.33.08.33.33,0,.56-.33.94-.68,1.26-.79.72-1.74.91-2.77.65-.32-.04-.64-.05-.86-.33,0,0,0,0,0,0-.23-.22-.59-.32-.69-.68h0c-.12-.09-.17-.21-.17-.35-.24-.14-.13-.38-.16-.58-.05-.29.06-.42.38-.38.18.03.38.05.56,0,.25-.07.49-.18.45-.52-.06-.53-.39-1-.8-1.03-.37-.03-.74-.06-1.1-.09h-.08c-.06,0-.12,0-.18,0-.03,0-.06,0-.08,0-.09,0-.17,0-.26,0-1.18-.02-2.36.08-3.53-.07-.15,0-.3.06-.45-.01-.05,0-.11,0-.16,0-.06,0-.12,0-.18,0-.78.14-1.57.08-2.36.03-.52-.04-1.06,0-1.58,0-.16,0-.31-.02-.47-.03-.09,0-.17,0-.26,0-.75,0-1.5,0-2.25-.01-.12.11-.23.1-.34,0-.06,0-.12,0-.18,0-.09,0-.17-.01-.26-.02-.06,0-.12,0-.17.01-.08,0-.17,0-.25,0-.03,0-.06,0-.1,0-.06,0-.12,0-.17,0-.17.04-.34.06-.51.02-.06,0-.12,0-.18,0-.18,0-.37.03-.55.02-.13-.01-.3-.06-.13-.25,0-.11.01-.23.02-.34v-.36c.01-.11.01-.22,0-.33v-.1c0-.08.01-.15.02-.23-.06-.12-.09-.25,0-.37,0-.08,0-.15,0-.23-.04-.27-.1-.54.03-.8,0-1.56,0-3.11,0-4.67,0-.03.01-.06.02-.1,0-.06-.01-.11-.02-.16-.17-.16-.09-.3.03-.44-.07-1.21-.02-2.41,0-3.62,0-.03,0-.07,0-.1v-.59s0-.07,0-.1c0-.14,0-.27.01-.41-.05-.24-.05-.49-.11-.73-.03-.12-.1-.31.1-.4,0-.1,0-.21-.08-.28-.31-.23-.24-.43.04-.63.06-.04.07-.15.11-.22-.11-.14-.1-.28-.02-.43,0-.14,0-.28-.01-.43-.03-.04-.03-.08.02-.11,0-.05,0-.1,0-.15-.06-.04-.05-.07,0-.1,0-.11-.01-.21-.02-.32-.05-.03-.05-.07-.01-.12v-.68c-.2-.13-.06-.32-.05-.46.05-.66-.12-1.33.11-1.97-.05-.69-.02-1.37,0-2.06,0-.03,0-.07,0-.1,0-.11,0-.22,0-.33-.05-.09-.05-.18.01-.27,0-.05,0-.11,0-.16-.05-.09-.05-.18-.02-.27,0-.2,0-.39,0-.59,0-.02-.02-.04-.02-.07,0-.01,0-.02.01-.04,0-.2,0-.39-.01-.59,0-.03.01-.07.02-.1,0-.11,0-.22,0-.33v-.1s0-.5,0-.5c0-1.19,0-2.38-.01-3.57,0-.08.04-.16.06-.24,0-.4,0-.8.01-1.2-.04-.12-.06-.24.01-.36,0-.05,0-.1,0-.15-.04-.14-.06-.27.14-.29.15-.42.43-.72.85-.88.04-.1.14-.07.22-.09,0,0,.03-.02.03-.02h.04c1.44-.18,2.87-.02,4.31-.04.22-.07.33-.18.39-.45.12-.57.05-1.13.07-1.7-.18-.15-.06-.35-.09-.52-.03-.06-.06-.11-.1-.17-.39-.49-.96-.3-1.46-.35-.37-.04-.74.01-1.11-.02-.43-.04-.6.33-.9.5,0,.02-.02.04-.04.04-.04.11-.14.15-.23.21,0,.02-.02.03-.04.03-.04.16-.19.08-.28.13-.11.07-.34,0-.34.18,0,.16.2.17.34.21.06.02.11.03.17.04.32-.12.58-.3.79-.58.23-.3.55-.43.93-.37.51.04,1.03-.13,1.53.08.1.11.2.22.3.33.05.01.08.05.06.1,0,.14,0,.28,0,.42,0,.09,0,.18,0,.27,0,.14,0,.28,0,.42,0,.03,0,.07,0,.1,0,.11,0,.22,0,.33.02.07.05.15-.06.18h0c-.06.23-.29.26-.43.24-.37-.05-.73-.05-1.09.01-.06,0-.11-.02-.12-.09-.06,0-.12-.02-.18-.03-.55.14-1.09,0-1.64,0-.06.01-.12.02-.18.03-.2.14-.4-.07-.6,0-.15.06-.3.14-.46.19-.61.19-1.21.93-1.29,1.58-.04.28.02.55-.01.82,0,.06,0,.12,0,.19,0,.23,0,.45,0,.68,0,.03,0,.07,0,.1l-.02.25c.06.05.07.11.04.18,0,.05-.01.11-.02.16.05.09.05.18.01.27,0,.08,0,.16,0,.25,0,.03,0,.07,0,.1,0,.37,0,.74,0,1.11l-.02.1c0,.08.01.16.02.25.05.09.04.18,0,.27,0,.23-.02.45-.03.68.03.2.05.4,0,.61,0,.06,0,.11,0,.17,0,.02.02.04.02.06,0,0-.01.02-.02.03.02.12.05.23-.02.34,0,.03,0,.06,0,.08.06.14.05.28.03.43.06,1.33.05,2.67-.06,4,.07.77,0,1.55.01,2.33.16.08.15.17,0,.26-.01.14-.02.28-.03.42v.1c0,.14,0,.28,0,.42,0,.03,0,.07,0,.1,0,.14,0,.28,0,.42,0,.03,0,.07,0,.1,0,.08,0,.16,0,.24.03.06,0,.08-.06.1-.04.09,0,.18-.08.28-.37.48-.36.48.06.95.02.01.04.02.06.04,0,.01-.02.02-.02.03.01.08.02.16.03.25.07.13.01.24-.03.35,0,.06,0,.11,0,.17.07.09.05.18.02.27,0,.11,0,.22,0,.33,0,.03,0,.07,0,.1,0,.2,0,.39-.01.59,0,.03,0,.07,0,.1,0,.37,0,.73,0,1.1,0,.81.02,1.62.02,2.42,0,.15-.06.31-.1.46.04.54.05,1.08,0,1.62,0,.09,0,.19,0,.28,0,.06.02.11.02.17.02,0,.04.02.06.03l-.06.06c0,.26-.02.51-.03.77,0,.03,0,.07,0,.1,0,.17,0,.34,0,.5.03.09.03.19,0,.28,0,.17,0,.33,0,.5,0,.03,0,.07,0,.1,0,.11,0,.22,0,.33.03.15.05.3-.01.45l.04.08.06.02s-.04.04-.06.06c-.01.05-.02.11-.03.16,0,.07,0,.13,0,.2,0,.04.01.08.02.11-.02.12-.04.25-.06.37.01.07.02.14.03.21,0,.05,0,.09,0,.14,0,.07-.02.14-.03.21.07.19.03.38.02.58,0,.03-.01.07-.02.1,0,.17.01.33.02.5v.21c.15.29.39.47.72.49.5-.19,1.01-.06,1.51-.07,1.73-.04,3.46-.02,5.19-.01.19,0,.4-.03.58.08.74,0,1.48-.05,2.22,0,.52.04,1.04.1,1.56.08.04-.1.12-.11.21-.11,1.06.01,2.12.03,3.18.05.28.03.55.09.84.09.32,0,.43.3.52.54.05.14-.03.29-.22.29-.13,0-.26,0-.39-.02-.43-.08-.75.15-.77.58-.03.78.32,1.35.93,1.83.38.3.75.58,1.24.66.54.14,1.1.09,1.65.08.55-.27,1.18-.37,1.65-.82.5-.48.71-1.03.69-1.71-.01-.41-.22-.57-.59-.59-.09,0-.18.02-.26,0-.18-.04-.51.1-.5-.16.01-.21,0-.58.42-.63.12-.01.26-.07.4-.09.56,0,1.11-.02,1.67-.01.21,0,.29.1.14.29-.2.74-.33,1.49-.57,2.22-.37,1.13-.57,2.32-.94,3.45-.27.83-.48,1.67-.73,2.5-.29.99-.54,2-.8,3-.16.63-.6,1.01-1.1,1.36-.2.14-.42,0-.62.06-.03,0-.06,0-.09,0-.17,0-.34,0-.52,0-.06.04-.12.03-.17-.02-.35,0-.7-.01-1.05-.02-1.19,0-2.38,0-3.56-.01-.31,0-.62-.02-.93.07-.08.01-.15,0-.18-.09-.54.03-1.09.09-1.62-.04-.06,0-.13,0-.19.01-.4.05-.8.03-1.2,0-.09,0-.18-.01-.27-.02-.03,0-.05,0-.08,0-.06,0-.12,0-.18,0-.2.09-.39.05-.58,0-.07,0-.13,0-.2,0-.06.05-.11.04-.17,0-.06,0-.11,0-.17,0-.06.05-.12.06-.18,0-.08,0-.16,0-.24,0-.41.08-.81.14-1.22-.02-.06,0-.12,0-.18,0-.23.12-.46.13-.69-.02-.15,0-.29,0-.44,0-.03,0-.05,0-.08,0h-.27c-.4.02-.8.05-1.2-.02-.23,0-.46,0-.69,0-.21.05-.41-.02-.62-.03-.23,0-.45.01-.68.02-.14,0-.29,0-.43,0-.08,0-.16,0-.25,0-1.33-.01-2.67-.03-4-.04-.14,0-.29.03-.42-.05-.09,0-.17,0-.26,0-.43.09-.87.01-1.31.01-.05,0-.1,0-.16,0-1.24.02-2.48.03-3.72-.02-.09,0-.18,0-.27,0-.76.03-1.51,0-2.27,0-.57,0-1.14,0-1.71.01-1.1,0-2.19,0-3.29.02-.23.02-.46-.09-.69,0-.32,0-.64.1-.96-.05-.06,0-.11,0-.17,0-.18.11-.35.12-.52-.01-.46,0-.92-.01-1.38-.02-.03,0-.06,0-.09,0-.06,0-.11.02-.17.03-.35.12-.69.13-1.04,0-.06,0-.12,0-.17,0-.09.12-.17.12-.26,0-.09,0-.17,0-.26,0-.12.12-.24.13-.34-.02h-.34s-.09-.01-.09-.01h-1.2c-.15-.01-.3-.02-.45-.03-.43.03-.86.07-1.29-.02-.03,0-.06,0-.09.01-.25.07-.51.03-.77.04-.24.03-.49.06-.72-.05-.17-.08-.3-.22-.23-.45-.4-1.22-.66-2.49-1-3.73-.17-.61-.27-1.28-.44-1.88-.2-.68-.37-1.37-.58-2.05-.24-.77-.32-1.59-.58-2.37-.34-.99-.56-2.01-.8-3.03-.16-.67-.45-1.3-.51-1.99.49-.16.98-.17,1.47,0,.22.52.69.44,1.09.41.42-.03.82.1,1.23.02.28-.18.58-.06.87-.06,1.41-.02,2.83-.02,4.24-.02h0c0-.06.03-.09.1-.07.12-.02.22-.05.26-.18-.01-.06,0-.09.07-.1.02-.08.04-.16.06-.24-.11-.2-.21-.39-.04-.61,0-.06,0-.12,0-.18-.26-.21.1-.41.02-.62v-.41c-.05-.1-.03-.19.02-.29-.05-.37,0-.73.03-1.1-.1-.81-.1-1.62,0-2.43v-.43s0-.06,0-.09c0-.08,0-.17,0-.25-.07-.15-.02-.3,0-.44,0-.17,0-.34,0-.51-.05-.12-.22-.23-.01-.35,0-.09,0-.17,0-.26-.15-.06-.09-.19-.09-.29.03-.43.08-.85.12-1.28,0-.31,0-.62,0-.93,0-.03,0-.07,0-.1,0-.11,0-.22,0-.33,0-.03,0-.07.01-.1,0-.06,0-.11,0-.17-.29-.29.08-.58,0-.87,0-.11.02-.22.03-.33,0-.03.01-.06.02-.09,0-.09,0-.17,0-.26-.05-.06-.05-.12-.01-.18,0-.06.01-.11.02-.17-.05-.08-.07-.17-.01-.26,0-.2,0-.39.01-.59-.08-.09-.05-.18,0-.27l-.02-.18c-.06-.12-.06-.24.03-.35-.01-.11-.03-.22-.04-.33-.02-.49-.03-.99-.04-1.48,0-.09-.03-.21.09-.25,0-.52,0-1.03,0-1.55-.13-.52-.2-1.04,0-1.56,0-.09,0-.17,0-.26-.13-.21-.18-.41.06-.59-.08-.43-.05-.87-.05-1.31,0-.03,0-.07,0-.1,0-.31,0-.62,0-.94,0-.06,0-.13,0-.19,0-.09,0-.17,0-.26-.2-.18-.12-.35.02-.52,0-.11,0-.22,0-.33,0-.03,0-.07,0-.1,0-.08,0-.16,0-.24-.03-.09-.04-.18.01-.27,0-.05,0-.1,0-.16,0-.03.02-.07.03-.1,0-.08-.02-.17-.03-.25-.04-.15-.07-.31.04-.44,0-.05-.01-.1-.02-.15-.01-.15-.25-.28-.02-.44v-.26c0-.09,0-.18-.02-.27,0-.05,0-.1-.01-.16-.01-.1-.07-.21.08-.27,0-.2,0-.4,0-.6,0-.03,0-.06,0-.09l.02-.86s0-.07,0-.1c0-.05,0-.11,0-.16v-.1c0-.17,0-.34.01-.51-.24-.51-.04-1.06-.11-1.59-.02-.12-.1-.32.1-.41,0-.12,0-.24,0-.35-.19-.36-.18-.71.03-1.05-.06-.1-.04-.21-.03-.32,0-.06,0-.12,0-.19,0-.17,0-.33,0-.5l.03-.1c0-.17-.02-.34-.03-.51-.03-.09-.02-.18.04-.26-.01-.12-.03-.23-.04-.35.01-.17.03-.35.04-.52,0-.11,0-.23-.01-.34,0-.03,0-.07,0-.1,0-.17,0-.34.01-.5,0-.03,0-.06,0-.09,0-.11-.02-.22-.03-.34,0-.09.01-.18.02-.27,0-.08-.02-.17-.02-.25-.03-.09-.01-.18.03-.26,0-.09,0-.18-.01-.26-.01-.75-.16-1.5.02-2.25,0-.03,0-.06,0-.09-.02-.02-.04-.03-.06-.05l.06-.02s0-.07,0-.1c-.2-.41-.13-.81,0-1.22,0-.11,0-.23,0-.35-.01-.59.2-.77.79-.62.4.1.79-.11,1.19-.05.03,0,.06-.01.09-.02h0s.03-.07.03-.07c.02.02.04.04.06.06.02.01.05.02.08.02,1.37,0,2.74,0,4.1,0,.05,0,.09.05.14.07,1.5-.09,3,.18,4.5,0,.57,0,1.13,0,1.7,0,.04-.02.07-.05.11-.07.02-.09.1-.08.16-.09l.02-1.63c-.02-.07.03-.08.08-.07.37-.02.45.17.37.49.05.09.05.18.03.27,0,.23-.01.45-.02.68,0,.09.01.18.02.27.3.25.63.23.97.09.01-.05.04-.08.1-.08v-.02c0-.1.02-.17.14-.16-.01-.05-.03-.09-.04-.14.02-.08.04-.16.06-.24-.15-.23-.22-.45.02-.67v-.18c-.14,0-.16-.09-.16-.21,0-.12.07-.14.17-.12.11,0,.22,0,.32,0,.06,0,.08.01.06.07.04.37.03.74,0,1.11.05.12.04.24.01.36.08.25.27.35.52.34.74-.01,1.49-.05,2.23-.03.25,0,.72-.16.59.43.05.03.06.08.02.12,0,.25,0,.5,0,.76,0,.41.01.82.02,1.23.06.09.12.18.18.26.69.06,1.38-.07,2.06.09,1.76,0,3.53,0,5.29,0,.05-.02.11-.03.15-.02.01,0,.03-.01.04-.02.05-.02.11-.02.16,0,0,0,0,0,0,0,.03-.04.07-.06.12-.05.56.16,1.13-.03,1.69.1.06,0,.11,0,.17,0,.32-.08.64-.05.96-.02.12.01.3-.03.31.19,0,.22,0,.44,0,.67,0,.03,0,.07,0,.1,0,.11,0,.22,0,.33,0,.03-.01.07-.02.1.08.55-.06,1.09-.04,1.63-.09.31-.25.47-.61.4-.22-.04-.45.01-.68.01-.19,0-.36-.06-.46-.25-.02,0-.04-.02-.05-.04-.05-.01-.07-.04-.08-.08-.04-.05-.09-.09-.13-.13-.09-.03-.15-.11-.2-.2-.05-.05-.1-.1-.15-.15-.02,0-.04-.02-.04-.04-.04-.04-.08-.08-.12-.12-.03-.02-.07-.04-.08-.08-.12-.11-.23-.24-.35-.35-.18-.16-.38-.37-.61-.45-.05-.02-.1-.02-.14-.03-.23.06-.47.07-.71-.03-.12,0-.24.01-.36.02-.12.05-.25.05-.38.03-.21.03-.43.06-.63.12-.01,0-.01.01-.02.02-.09.09-.15.21-.16.37,0,.09-.05.17-.08.24,0,.06-.01.13-.02.19,0,.06,0,.12,0,.18v.33c0,.21.09.41.02.62v.26s0,.09,0,.09c0,.08,0,.17,0,.25.03.12.08.23,0,.35,0,.17,0,.34,0,.51,0,.03,0,.06,0,.09,0,.29-.02.57-.02.86,0,.03,0,.07,0,.1,0,.11,0,.22-.01.33.03.12.05.24,0,.36,0,.31,0,.62,0,.94v.1c0,.28.17.46.38.62.24.02.47.03.71.05.07,0,.14,0,.21-.01.05-.06.1-.06.14,0,.07,0,.14,0,.22.01.13-.28.07-.43-.27-.41-.17.01-.33,0-.51.03-.31.06-.51-.2-.4-.47v-.18s-.05-.03-.07-.05c.02,0,.04-.01.06-.02,0-.61,0-1.21,0-1.82,0-.06.01-.12.02-.19,0-.14,0-.28,0-.42-.02-.2-.26-.42.04-.6,0-.06-.01-.12-.02-.18,0-.03,0-.07,0-.1,0-.11,0-.22,0-.33,0-.06,0-.13,0-.19,0-.05,0-.1,0-.16-.04-.09-.03-.18.01-.27-.02-.37-.07-.73.04-1.1-.02-.17.11-.2.21-.2.53-.02,1.07-.03,1.6-.03.04,0,.08.07.11.11.02,0,.04.02.06.03.1,0,.19.02.18.15,0,0,0,0,0,0,.2.15.39.29.49.53.18.36.61.5.81.84.03.03.05.06.08.09l.09.09s.06.05.08.08h0s.06.01.08.02c.05,0,.11,0,.16,0,.49-.06.99-.04,1.48-.01l.15-.1c0-.12.06-.18.18-.17.1-.11.19-.2.2-.37.06-1.05.08-2.11.07-3.17-.09-.02-.1-.08-.09-.16,0,0,0,0,0,0-.2-.24-.43-.22-.73-.2-.65.03-1.32.06-1.98-.03-.3-.05-.63.03-.94.06-.53.05-1.04-.12-1.58-.08-.8.05-1.61.14-2.41.06-.58-.06-1.15-.03-1.72-.04-.43-.01-.87-.02-1.3,0-.35.02-.47-.13-.46-.45,0-.57,0-1.14,0-1.72,0-.52-.25-.79-.75-.73-.73.09-1.46.03-2.19.02-.51,0-.62-.29-.33-.76l-.02-.18c-.21-.22-.09-.46-.07-.7-.17-.19-.38-.28-.64-.26-.15.01-.3.02-.45.03-.13.06-.19.17-.2.31,0,.1,0,.2.01.29,0,.1,0,.2,0,.3,0,.17.04.33.04.5,0,.1.03.2,0,.3-.04.14-.2.14-.31.08-.06-.04-.08-.09-.09-.16,0-.06-.03-.12-.05-.18-.1-.33-.02-.66-.03-.99,0-.13.01-.27-.1-.35-.06-.05-.14-.06-.21-.08,0,0,0,0-.01,0-.01,0-.02-.01-.03-.02,0,0,0,0,0,0-.08,0-.15,0-.23-.01-.51-.08-.65.09-.72.59,0,.06,0,.13.01.19,0,.05,0,.1,0,.16,0,.31.01.61.02.92,0,0-.02.03-.02.03-.02,0-.04-.02-.05-.03-.4.05-.81.06-1.21.02-.92.05-1.84.02-2.76,0-.99,0-1.99,0-2.98.02-.6,0-1.2-.04-1.8-.07-.8-.03-1.61-.02-2.41,0-.49.01-1.01-.14-1.45.22-.13,0-.21.06-.2.21,0,.05,0,.1-.01.15.03.08,0,.14-.07.18l-.03.17c.06.09.05.18.02.27,0,.28,0,.57,0,.85.03.09.04.18,0,.27,0,.2,0,.39,0,.59,0,.03,0,.07,0,.1v.16s0,.07,0,.1c0,.05,0,.1,0,.16,0,.03,0,.07,0,.1,0,.08-.02.16-.02.25,0,.02.02.04.02.07,0,.01,0,.02,0,.04,0,.14.01.28.02.42,0,.06,0,.13-.01.19-.02.83-.04,1.66-.07,2.49,0,.03,0,.07,0,.1l.05.25s.03.08-.02.11c0,.05-.01.11-.02.16.06.11.17.21.04.34l-.04.95s-.04.07-.07.11c0,.11.11.18.1.31-.03.61-.03,1.22-.04,1.83v.1c0,.92,0,1.84,0,2.75,0,.09,0,.18,0,.27,0,.11,0,.22,0,.33,0,.03,0,.07,0,.1,0,.43.06.85-.01,1.28v.1c0,.14,0,.28,0,.42,0,.06,0,.12,0,.19,0,.08,0,.16,0,.25-.02.26.06.53-.02.79,0,.05-.01.11-.02.16,0,.02.02.04.03.07,0,.01,0,.02,0,.04,0,.28-.02.57-.03.85,0,.03.02.07.03.1l-.02.25c.01.06.02.12.04.18,0,.54-.02,1.09-.03,1.63.06.18.07.37-.02.54v1.1s.02.05.01.07c0,0-.02.01-.03.02,0,.11,0,.22,0,.33.12.35.04.7-.02,1.05,0,.23-.01.46-.02.68.06.15.03.3.01.45v.33s0,.07,0,.1l.02,1.03s.02.03.03.05c0,0,0,.02,0,.03l-.05.61c0,.06,0,.13,0,.19,0,.05,0,.11,0,.16,0,.09,0,.18,0,.27,0,.05,0,.1,0,.16.05.09.04.18.01.27,0,.08,0,.16,0,.25v.1c0,.14,0,.28,0,.42,0,.06,0,.13,0,.19l-.04,3.17s.05.07.02.11c0,.45.01.91.02,1.36-.03.78.07,1.57-.07,2.35,0,.17,0,.34,0,.51.04.09.05.18.01.27.04.32,0,.63-.03.94,0,.02.02.04.03.06,0,.01,0,.02,0,.04,0,.49.07.98-.05,1.46.09.11.06.23.03.36,0,.08,0,.16,0,.25,0,.12,0,.24-.01.36.06.4.03.8,0,1.2l-.02.1c0,.05,0,.11-.01.16.01.03.02.07.03.1v.33c.03.08.04.15-.06.19,0,.34-.02.68-.03,1.02-.01.21-.18.2-.31.2-.41,0-.82.07-1.23-.04-.06,0-.11,0-.17,0-.09.04-.18.04-.26,0-.06,0-.12,0-.17,0-1.1.04-2.21.07-3.31-.04-.2-.02-.38.14-.58.04-.21,0-.43,0-.64.01-.2.01-.3-.06-.31-.26-.08-.03-.08-.1-.08-.17h0c-.77-.03-1.54-.11-2.32.01-.11.28.24.48.13.76.16.21.15.46.18.7.2.6.35,1.21.49,1.82.09.38.32.69.38,1.07.11.66.15,1.34.42,1.97.12.05.09.15.08.25,0,.03.01.06.02.09.11.19.18.39.16.61,0,.08,0,.16,0,.24.01.05.02.11.03.16h0c.14.07.07.18.06.28.24.77.45,1.55.63,2.34.21.9.5,1.79.75,2.69.27,1,.41,2.02.75,3,.04.06.08.12.12.18.12.06.23.12.35.19,1.22,0,2.43,0,3.65,0,.73,0,1.46.01,2.19.01.19,0,.37,0,.55.08.52,0,1.05,0,1.57,0h5.28c.23,0,.46,0,.68,0,.62-.08,1.25.09,1.87-.09.11-.03.17.07.22.16,1.15,0,2.3,0,3.46.01.52-.17,1.05-.07,1.57-.07,1.59,0,3.17.03,4.76.06.02,0,.04,0,.07,0,.07,0,.15-.02.22,0,.15,0,.29.01.44.04.05-.02.11-.02.16-.02,1.12,0,2.24,0,3.36,0,.05,0,.1.05.15.08,1.28,0,2.56.03,3.83,0,1.83-.03,3.66.09,5.5.09.39-.17.81-.09,1.21-.08.57.02,1.15-.08,1.72.07.55-.01,1.1-.03,1.66-.04.58-.08,1.15.04,1.73-.04.12-.02.29-.04.4.09.19,0,.37-.02.56,0,.91.07,1.55-.36,1.92-1.14.24-.51.35-1.09.5-1.64.46-1.66.94-3.31,1.36-4.97.13-.52.34-1.01.44-1.52.07-.42.18-.82.35-1.2.07-.46.04-.95.44-1.3.06-.43.07-.88.2-1.29.12-.36.08-.53-.29-.61Z"/>
    <path class="cls-5" d="m88.91,51.45s-.01,0-.02-.01c.01,0,.03,0,.04,0,0,0-.02.01-.03.01Z"/>
    <path class="cls-5" d="m75.5,20.98c.09,0,.17.01.26.02.43.18.87.13,1.29-.02.08,0,.17,0,.25.01.35.01.7.02,1.05.03.43-.02.86-.04,1.29-.06.03.05.06.05.09,0,.11,0,.23,0,.34-.01.93.08,1.86.07,2.79.02.98.06,1.96.03,2.94.03.31.17.63.05.95.01.4.05.78.14.88.62,0,.03.01.07.02.1,0,.17,0,.34-.01.5,0,.03,0,.07.01.1,0,.05,0,.11,0,.16-.07.12-.07.24,0,.36,0,.08,0,.17,0,.25-.05.09-.04.18,0,.27,0,.05,0,.11,0,.16,0,.03,0,.07,0,.1,0,.08,0,.16.01.25-.05.09-.05.18-.01.27-.01.37-.02.74-.03,1.12-.09.02-.09.1-.09.17.01,1.19.02,2.37.03,3.56,0,.25.01.51.02.76-.03.05-.02.08.03.11,0,.23,0,.47,0,.7-.32.16-.04.35-.02.53,0,.16,0,.31.01.47-.06.06-.08.12-.04.2,0,.05.01.11.02.16,0,.06,0,.13,0,.19,0,.05.01.1.02.16,0,.03,0,.07,0,.1,0,.11-.01.22-.02.33-.04.06-.04.13,0,.19,0,.08,0,.16,0,.24,0,.06,0,.13,0,.19,0,.08,0,.16,0,.24,0,.03,0,.07,0,.1,0,.11-.02.23-.02.34-.26.32-.03.64.01.96-.01.2-.03.4-.04.6-.12.44-.14.87,0,1.3,0,.43,0,.86.01,1.29,0,.06,0,.12,0,.18-.04.46-.03.92-.17,1.37-.05.16.06.3.12.43,0,.1,0,.2,0,.3,0,.19,0,.38,0,.57-.04.05-.03.09.02.11,0,.13,0,.26,0,.39-.28.27-.16.54.02.81,0,.05,0,.1,0,.15-.17.02-.15.15-.14.26.05.44,0,.87-.01,1.3,0,.1-.04.24.14.26,0,.2-.01.41-.02.61-.17.29-.22.57,0,.86,0,.09,0,.17,0,.26,0,.06,0,.13-.01.19,0,.08,0,.16.01.25-.21.38-.15.76,0,1.14,0,.14-.02.28-.03.42,0,.03,0,.06,0,.1,0,.14,0,.28,0,.42,0,.03,0,.07.01.1-.02.89-.06,1.78,0,2.67-.19.24-.1.52-.1.79-.04.26-.22.37-.44.44-1.87-.01-3.74-.03-5.61-.04-.06,0-.12.02-.19.03-.24-.04-.5-.17-.72.06-.35.07-.67-.1-1.02-.11-.26,0-.51-.01-.77.04-.05-.09-.14-.09-.23-.08-.97.13-1.95-.02-2.92,0-1.41.03-2.82.03-4.24,0-.42,0-.86-.18-1.27.07-.4,0-.8,0-1.2,0-.49-.16-.98-.04-1.48-.06-.21-.14-.57-.14-.53-.53,0-.06,0-.12,0-.19,0-.66.02-1.32.02-1.98,0-.01.01-.02.01-.03,0-.02-.01-.04-.02-.06,0-.05-.01-.11-.02-.16.03-.15.1-.3.04-.46,0-.17,0-.33,0-.5.04-.15.03-.3-.03-.44,0-.17.08-.34.02-.51.04-.12.07-.23,0-.35.02-.11.06-.23,0-.34.04-.07.05-.13-.02-.19,0-.05,0-.1,0-.15.07-.09.05-.18.02-.28,0-.06,0-.11,0-.17.06-.11.07-.23.02-.35,0-.23,0-.45,0-.68.05-.12.05-.24-.03-.36.07-.28.03-.57.02-.86.05-.18.06-.35,0-.53,0-.08.01-.16.02-.25,0-.03,0-.07,0-.1.07-.74,0-1.49.02-2.23,0-.07,0-.13,0-.2.05-1.49.05-2.99.03-4.48,0-.03,0-.06,0-.09.02-.83.03-1.67.05-2.5.02-.23.03-.47-.05-.69.02-.17.03-.35.05-.52,0-.06-.02-.12-.03-.19.01-.34.02-.68.03-1.03,0-.06,0-.13,0-.19,0-.37.01-.74.02-1.11,0-.29-.01-.59-.02-.88,0-.29-.01-.57-.02-.86.1-.08.11-.19.11-.31,0-.68.03-1.36,0-2.03-.02-.35.09-.71-.03-1.05,0-.05-.01-.1-.02-.14,0,0,.03-.02.03-.03,0-.02-.02-.05-.03-.07,0-.08,0-.16.01-.24.11-.09.07-.18-.01-.27,0-.09,0-.18.01-.27,0,0,.03-.02.03-.03,0-.02-.03-.04-.04-.06.01-.14.02-.28.03-.42.06-.13.03-.24-.03-.36,0-.16.02-.32.03-.49.04-.05.04-.09-.02-.13-.01-.32-.1-.65.17-.92.22-.06.4-.21.64-.22,1.05-.03,2.11-.1,3.16.02.06,0,.11,0,.17,0,.55-.03,1.1.06,1.66-.02.08,0,.16-.02.23-.03.18.02.36.06.54,0,.4,0,.81.06,1.21,0,.03,0,.06,0,.09,0,.2,0,.4,0,.6,0,.03,0,.06,0,.09,0Zm11.51,26.18s0-.06,0-.09c0-.06,0-.11.01-.17.05-.07.02-.13-.03-.18.08-.4.08-.8.03-1.2,0-.03.02-.07.02-.1,0-.11,0-.22,0-.33,0-.1-.02-.19-.03-.29.01-.08.02-.15.03-.23,0-.03,0-.07,0-.1,0-.08,0-.16,0-.24,0-.03,0-.07,0-.1,0-.14,0-.28,0-.42,0-.03,0-.07,0-.1,0-1.38,0-2.77.01-4.15.07-.14.07-.28.01-.43,0-.06,0-.12.01-.17.05-.09.07-.18-.02-.26,0-.06,0-.11,0-.17.08-.09.06-.17-.02-.24.04-.26.07-.52.03-.79,0-.01.03-.02.03-.03,0-.02-.01-.05-.02-.07,0-.29,0-.57.01-.86,0-.01.02-.03.02-.03-.01-.02-.03-.04-.04-.06,0-.08,0-.16.01-.24.04-.03.05-.07.01-.11v-.16c.04-.18.07-.35,0-.53.01-.23.02-.45.03-.68,0-.06-.01-.12-.02-.19,0-.08,0-.16,0-.24,0-.03,0-.07,0-.1,0-.17,0-.34,0-.5.03-.2.08-.41-.04-.61.02-.17.03-.35.05-.52,0-.09-.02-.18-.03-.27.06-.08.02-.17,0-.25,0-.03.01-.07.02-.1,0-.23.01-.45.02-.68,0-.03,0-.07,0-.1v-1.54s0-.07,0-.1c0-.37,0-.74.01-1.11,0-.18,0-.36,0-.53,0-.08,0-.16,0-.25.02-.09.03-.18-.01-.27l.03-1.98c.13-.35.06-.7.05-1.06-.17-.22,0-.44,0-.67,0-.03,0-.07.01-.1,0-.05,0-.1,0-.15,0-.47,0-.93.02-1.4,0-.2-.09-.28-.25-.33-.01-.03-.02-.06-.03-.08-.47-.09-.95-.12-1.42-.02-.09,0-.18,0-.26,0-.09-.1-.21-.07-.32-.07-1.44,0-2.87,0-4.31,0-.1,0-.23-.07-.31.07-.31,0-.62,0-.93,0-.6-.17-1.22-.04-1.83-.07-.06,0-.12,0-.18,0-.72,0-1.43-.02-2.15,0-.44.01-.88-.09-1.31.07-.05,0-.11,0-.16,0-.04-.03-.09-.08-.13-.08-1.75,0-3.49-.06-5.24.02-.16.06-.31,0-.47-.01-.21-.03-.43-.03-.48.26-.09.02-.17.04-.16.16.01.41-.07.83.11,1.23,0,.17,0,.34,0,.51,0,.03-.01.07-.02.1,0,.14,0,.28,0,.42-.04.06-.05.12-.03.18,0,.14,0,.29,0,.43,0,.03,0,.06,0,.09,0,.23,0,.46.01.68.09.26-.27.52,0,.78,0,.06.02.11.02.17-.02.23-.27.46-.03.7-.01,1.21-.02,2.42-.04,3.63-.14.29-.04.58-.05.88,0,.05,0,.1.01.16.01.03.02.07.04.1,0,.11-.01.22-.02.33,0,.21-.05.42.03.63,0,.08,0,.16,0,.23-.06.09-.06.18-.02.28,0,.05,0,.11,0,.16-.05.07-.03.13,0,.2,0,.07,0,.15.01.22-.05.06-.08.12-.02.19,0,.2,0,.4,0,.59,0,.03,0,.07,0,.1,0,.06,0,.12.01.17-.05,0-.11,0-.11.08,0,.07.06.07.11.07-.01.05-.02.1-.04.14-.01,0-.02-.02-.03-.02-.01,0-.02.01-.03.02.02,0,.04,0,.06,0,0,.13-.01.26-.02.39-.17.34-.08.7-.06,1.04.02.28-.19.6.08.86,0,.29.01.58.02.86-.04.06-.05.12-.01.19-.06.83-.05,1.67-.03,2.5,0,.03,0,.06,0,.09,0,.34,0,.68.01,1.03,0,.03,0,.07-.01.1,0,.23,0,.46-.01.68-.11.11-.06.23-.04.36,0,.05,0,.11.01.16-.02.15-.06.29,0,.44-.03.29-.05.57,0,.86-.04.06-.04.12,0,.19,0,.11.01.22.02.34,0,.06,0,.12,0,.18,0,.2,0,.4,0,.6-.08.35-.26.69-.02,1.05.01.08.02.17.03.25-.01.03-.02.07-.03.1,0,.11,0,.22,0,.33-.05.15-.06.3-.02.45,0,.11,0,.22,0,.33v.1c0,.11,0,.22,0,.33,0,.06,0,.12,0,.19,0,.08,0,.16,0,.25,0,.06,0,.12,0,.19v.24s0,.07,0,.1c0,.54-.02,1.09-.02,1.63-.04.3.06.46.39.44.2-.01.4,0,.6,0,1.5-.02,3-.04,4.51-.05,1.59,0,3.19.24,4.78.03.26,0,.52,0,.78,0,.38-.05.75.21,1.12.02.06-.01.11-.02.17-.03.11.11.25.14.4.11,1.01-.2,2.03,0,3.05-.03,1.18-.03,2.35.02,3.53.03.25,0,.46-.04.45-.36,0-.4.01-.8.02-1.2,0,0,.02-.02.02-.03,0-.02,0-.04-.02-.06.01-.14.04-.28-.01-.42-.12-.34-.09-.69.05-1.02.02-.18.07-.37-.02-.55,0-.11,0-.23,0-.34,0-.06,0-.12.01-.19v-.59s-.01-.07-.02-.1c0-.06,0-.11-.01-.17Z"/>
    <path class="cls-5" d="m84.93,53.26c.06,0,.11,0,.17,0,.63.03,1.26.16,1.9.11.27.07.32.32.4.53.27.72.6,1.37,1.39,1.66.14.05.24.2.35.31.02.12.04.25.06.37.01.08.02.17.03.25-.08.14-.04.29-.01.44,0,.05,0,.11-.01.16,0,.01-.02.03-.01.04,0,.02.02.04.03.07,0,.08,0,.17,0,.25-.01.03-.02.07-.03.1,0,.34,0,.69-.01,1.03-.17.29-.19.58.01.86,0,.14,0,.29.01.43-.04.06-.04.12,0,.19,0,.08.02.17.02.25-.08.11-.08.23-.04.35,0,.08,0,.16.01.25-.19.43-.16.87-.07,1.31.02.46.03.92.05,1.38-.23.27-.08.58-.09.87-.03.34.08.71-.27.96-1.27.15-2.54.01-3.81.09-.05,0-.11,0-.16,0-.43-.01-.86-.03-1.29-.04-.43.17-.86.05-1.29,0-.88-.16-1.77-.07-2.65-.09-.99-.02-2,0-2.99.03-.31.07-.63.16-.95,0-.35,0-.71-.02-1.06-.03-1.57-.04-3.15,0-4.72-.06-1.19-.05-2.38,0-3.56.01-.35-.05-.69-.05-1.03.06-.06-.02-.13-.07-.19-.07-.89,0-1.78,0-2.66,0-.35-.01-.7.03-1.05,0-.32-.02-.45-.22-.5-.45-.19-.83-.4-1.67-.64-2.49-.32-1.12-.51-2.27-.88-3.37-.14-.42-.22-.9-.34-1.34-.26-.94-.51-1.89-.68-2.85-.03-.18-.1-.35-.19-.51-.24-.44-.13-.9.39-1.14.63,0,1.26.04,1.88,0,1.14-.07,2.28.21,3.41-.03.05,0,.1-.02.14-.02.15.04.29.13.45.05.12,0,.23,0,.35,0,.09.04.17.03.26,0,.09,0,.17,0,.26,0,.06,0,.12,0,.17,0,.11,0,.23-.01.34-.02.15,0,.27.27.43.04.11,0,.23-.02.34-.03.03,0,.06,0,.1,0,.06,0,.11,0,.17,0,.14.12.28.2.43.03.09,0,.18,0,.27,0,.01.02.02.05.03.07.01-.02.02-.05.03-.07.03,0,.06-.01.09-.02.15.04.29.03.44,0,.14,0,.28,0,.42,0,.13-.02.21.09.35.08.56-.02,1.13.07,1.69,0,.39-.06.78.03,1.17-.06.09,0,.17-.02.25-.02.03,0,.07,0,.1,0,.06,0,.11.02.17.02.12.21.23.06.34-.01.4,0,.81.01,1.21.02.05.04.1.06.16.02.15,0,.3-.01.45-.02.06,0,.11,0,.17,0,.23,0,.47,0,.7,0,.11.06.23.03.34,0,.2.1.41,0,.61.01.14.09.28,0,.42,0,.12,0,.24,0,.36,0,1.47.11,2.94.1,4.4.04.06,0,.12,0,.18,0,.75.05,1.51.09,2.26.14.2.01.4-.02.58-.11.09,0,.17,0,.26,0,.06,0,.12,0,.18,0Zm-14.8.32c-.6,0-1.21-.02-1.81-.02-.18,0-.37,0-.55,0-.62.05-1.25-.1-1.87.07-.2,0-.41,0-.61,0-.05-.1-.14-.09-.22-.09-1.17-.05-2.34.09-3.51-.06-.19-.02-.5-.06-.7.14-.08,0-.15,0-.23,0-.01-.02-.03-.07-.04-.07-.56-.06-1.13.05-1.7-.08-.08-.02-.14.08-.18.16-.17.12-.3.21-.21.48.07.18.18.37.19.55.08.82.43,1.55.6,2.35.3,1.42.76,2.81,1.12,4.22.28,1.1.55,2.19.82,3.3.05.34.25.45.59.45,1.18-.02,2.37-.02,3.55-.02.68.03,1.37.08,2.05.08.98,0,1.96-.06,2.95-.05.55,0,1.11.07,1.65.04.98-.05,1.96-.02,2.94-.03.23.03.47.06.69-.02h.27c.29.02.59.04.88.05.83-.14,1.66.11,2.49.02.11.02.17.21.33.1.22-.14.46-.09.71-.09.87,0,1.73-.01,2.6-.02.06,0,.12,0,.17,0,.69.04,1.38.06,2.08,0,.06,0,.11,0,.17,0,.12.04.23.06.35,0,.06,0,.12,0,.18,0,.05.03.09.1.14.1.65.01,1.3.07,1.93,0,.24-.03.61.11.78-.24,0-.92,0-1.84-.01-2.76.03-.06,0-.09-.06-.1,0-.02,0-.05,0-.07.25-.54.14-1.1.1-1.65v-.68c.05-.09.05-.18-.03-.26,0-.2.01-.39.02-.59.04-.38.13-.76.02-1.15,0-.08.01-.16.02-.25,0-.03,0-.07,0-.1,0-.11,0-.22,0-.33.04-.12.02-.24-.01-.36,0-.05,0-.11,0-.16,0-.03,0-.07,0-.1,0-.05,0-.1,0-.16.02-.06,0-.08-.06-.1-.89-.48-1.59-1.13-1.77-2.19,0-.02-.09-.03-.14-.05-.13-.14-.3-.15-.47-.15-1.25,0-2.51,0-3.76,0-.06,0-.11,0-.17,0-.58-.08-1.16-.01-1.74,0-.37.1-.74-.04-1.11,0-.18-.02-.35-.05-.53,0-.06,0-.11,0-.17-.01-.09-.05-.18-.05-.26,0-.17,0-.34,0-.51,0-.03,0-.06,0-.09,0-.09,0-.17,0-.26-.01-.06-.03-.11-.04-.17,0-.08,0-.17,0-.25,0-.37-.11-.75-.03-1.13-.03-2.02,0-4.04,0-6.06-.01Z"/>
    <path class="cls-5" d="m101.36,55.7c.06,0,.12,0,.18,0,.2.01.4.18.6,0,.51.22.88.54.97,1.13.03.19.2.36.31.53,0,.07-.01.15.09.17.03.03.06.06.1.08.17.4.51.63.86.86.04.14.22.05.27.17.15.25.42.29.67.35,0,0,.01.01.01.01.04.11.15.12.24.15.79.3,1.63.2,2.45.24.36.21.4.53.3.9-.2.78-.46,1.55-.57,2.35-.04.3-.22.56-.28.87-.09.44-.25.88-.34,1.32-.12.58-.4.79-1,.81-.62.01-1.23,0-1.85,0-.07-.07-.16-.06-.24-.06-1.04,0-2.08,0-3.12,0-.05,0-.11,0-.16,0-.15,0-.29,0-.44,0-.06,0-.11,0-.17,0-.78-.04-1.56-.07-2.34-.02-.06.01-.11.02-.17.03-.87-.18-1.73-.02-2.6-.02-.04,0-.08,0-.13,0-.06-.03-.13-.09-.19-.08-.67.05-1.34-.06-2-.01-.53.04-1.06-.14-1.58.07-.16,0-.31,0-.47,0-.6,0-.8-.16-.92-.77,0-.03,0-.07-.01-.1,0-.08,0-.16,0-.25,0-.03,0-.07,0-.1.07-.2.05-.4.02-.6.05-.12.06-.24-.01-.35,0-.32,0-.63,0-.95,0-.03,0-.06,0-.09,0-.06,0-.11,0-.17.05-.12.06-.24-.02-.35,0-.11,0-.22,0-.33.05-.09.05-.18.02-.27,0-.08,0-.17.01-.25.08-.06.06-.12.02-.19,0-.05,0-.1,0-.15,0-.04,0-.07,0-.11,0-.05,0-.1.01-.16,0-.09,0-.18,0-.27,0-.08,0-.16,0-.24.02-.07.03-.13-.03-.18.05-.14.04-.29,0-.43.07-.17.05-.35,0-.52,0-.08.01-.16.02-.25,0-.01.01-.03,0-.04,0-.02-.02-.04-.03-.07,0-.08.02-.16.02-.25,0-.06,0-.13,0-.19,0-.08,0-.16,0-.25,0-.09,0-.18,0-.27,0-.05,0-.11,0-.16.02-.07.02-.13-.03-.19,0-.05.02-.11.02-.16,0-.03,0-.07,0-.1,0-.08,0-.16,0-.25,0-.12.02-.23.02-.35,0,0,0,0,0,0,.09-.03.1-.1.06-.18.04-.06.07-.11.11-.17.59-.29,1.23-.21,1.85-.24.74-.03,1.48.05,2.22.05,1.82,0,3.63,0,5.45-.01.05,0,.11,0,.16,0,.43.05.87.05,1.3,0,.06,0,.12,0,.18,0,.03,0,.06,0,.08,0Zm3.02,9.53h.02c.11-.01.23-.01.34-.02.23,0,.46,0,.69,0,.2.05.41.03.62.09.46.12.71-.07.75-.52,0-.67.37-1.25.52-1.89.18-.73.27-1.49.54-2.19.09-.24.17-.48.14-.74-.02-.16-.14-.21-.27-.2-.31,0-.62.02-.93.03l-.17-.02h-.08c-.56.06-1.03-.25-1.5-.44-1.21-.49-1.97-1.47-2.49-2.64-.1-.22-.19-.44-.42-.55-.06-.09-.15-.08-.23-.08-.89,0-1.78-.04-2.66,0-.36.01-.74-.12-1.08.09-.28-.13-.57-.08-.86-.07-1.18-.01-2.37-.08-3.55,0-.99,0-1.97,0-2.96,0-.16,0-.21.13-.32.18-.18.03-.16.17-.16.29,0,.31,0,.61,0,.92h-.01s-.04.02-.06.02c.02.02.04.03.06.05,0,.06.02.13.02.19-.2.14-.17.28,0,.42,0,.04-.02.07-.03.11-.02.01-.04.03-.06.04.02,0,.04,0,.06.01,0,.03.02.07.02.1-.21.52-.11,1.04-.02,1.57h0s-.04.02-.06.02c.02.02.04.03.06.05,0,.06,0,.12.01.18,0,.06,0,.12,0,.19,0,.05,0,.11,0,.16-.05.12-.02.24.01.35,0,.28,0,.57,0,.85,0,.06,0,.12,0,.18,0,.14,0,.28,0,.43-.09.52-.1,1.05-.02,1.58,0,.05,0,.09,0,.14-.06.04-.05.08,0,.11v.15c-.06.03-.07.07-.01.12,0,.07,0,.15,0,.22,0,.01-.03.02-.02.03,0,.02.02.05.04.07.01.06.03.12.04.17,0,.28.17.17.3.15.06,0,.11,0,.17,0,.35.04.7.04,1.04,0,.06,0,.11,0,.17,0,.35.03.69.07,1.04,0,.12,0,.23,0,.35,0,.09,0,.17,0,.26,0,.14,0,.29.01.43.02.21.12.41-.02.61-.03l.86.02s.05,0,.08,0c.21,0,.41,0,.62,0,1.18.16,2.36,0,3.54.06.06,0,.12,0,.18-.01.03,0,.06,0,.09,0,.06,0,.11,0,.17,0,.09.04.17.05.26,0h.52c.52.04,1.03.06,1.55,0,.06,0,.12,0,.18,0,.49.14.98.1,1.46,0,.04.01.07.02.11.03,0,.02.02.05.02.07.01-.02.02-.04.03-.07Z"/>
    <path class="cls-5" d="m78.46,17.15c0,.06,0,.11,0,.17-.15.35-.17.69,0,1.04,0,.34-.02.68-.02,1.02-.02.71-.19.88-.9.89-.07,0-.14.01-.21.02-.65,0-1.29-.03-1.94-.01-.59.02-1.19-.07-1.78.07-.03,0-.07,0-.1,0-.07-.1-.17-.09-.27-.09-1.9.02-3.8-.07-5.7.02-.23-.12-.56-.14-.53-.52,0-.21-.01-.41-.02-.62,0-.42-.01-.85-.02-1.27,0-.07,0-.14.01-.21,0-.11,0-.21,0-.32,0-.03,0-.07,0-.1.01-.29.02-.58.03-.87.02-.01.05-.02.07-.03-.02-.01-.05-.02-.07-.03,0-.06-.02-.12-.03-.17,0-.06,0-.13,0-.19,0-.17,0-.34.01-.5,0-.03,0-.07,0-.1,0-.51,0-1.02-.01-1.54,0-.07,0-.13,0-.2,0-.08,0-.16,0-.24.03-.1.03-.19-.04-.27.09-.31.03-.63.05-.94.03-.06,0-.09-.06-.11-.03-.32.17-.61.08-.93,0-.14,0-.29,0-.43,0-.26,0-.52,0-.78.09-.04.1-.1.07-.18.04-.08.08-.16.11-.25.32.03.61-.1.93-.1,1.88.01,3.76,0,5.64,0,.31,0,.63,0,.94,0,.07.02.13.06.2.06,1.11.02,2.22.04,3.33.06,0,0,0,0,0,0,.01.13.06.25.16.33.12.13.06.28.06.42,0,.03,0,.07,0,.1,0,.2.01.39.02.59,0,.03-.01.07-.02.1,0,.14,0,.28,0,.42-.19.4-.09.81-.04,1.22,0,1.47,0,2.94.01,4.4,0,.03,0,.07,0,.1Zm-10.93,2.59h0c.07.18.22.15.36.17.29.04.55-.09.84-.08,1.1.01,2.2.14,3.3.06.26-.19.51.02.77,0,.15.03.29.02.44-.02.06,0,.11,0,.17,0,.23.17.46.18.69.02.09,0,.18,0,.28,0,0,.02.02.05.03.07.01-.02.02-.05.04-.07.03,0,.06-.01.09-.02.03,0,.06,0,.09,0,.06,0,.11.01.17.02.32.24.63-.06.95-.02.06,0,.11,0,.17,0,.14.09.27.22.43.04.06-.01.11-.02.17-.03.09,0,.18.01.27.02,1.27-.05,1.28-.06,1.17-1.28.01-.47.11-.93,0-1.4,0-.05,0-.11,0-.16v-.19c0-.14.01-.28.02-.42.02,0,.04-.02.06-.03-.02-.02-.04-.04-.06-.06,0-.14-.02-.28-.02-.42,0-.03,0-.07,0-.1,0-.06,0-.11.01-.17.09-.4.13-.81.02-1.21,0-.35,0-.69,0-1.04v-.08c0-.14,0-.29,0-.43.13-.4.07-.81.03-1.21,0-.06,0-.11,0-.17.04-.07.01-.12-.03-.17.08-.17.06-.35.02-.52.02-.2.09-.41-.02-.6,0-.06,0-.11.01-.17,0-.01.02-.02.02-.03-.02-.01-.04-.03-.06-.04-.05-.04-.1-.08-.15-.11-.04-.04-.08-.1-.12-.1-.6.04-1.2-.05-1.8.05-.03,0-.05-.02-.08-.03-.01-.02-.02-.04-.03-.07l-.07.06s-.05.02-.07.02c-.27-.01-.54-.04-.82-.04-.2,0-.43-.15-.59.09-1.12-.02-2.24-.04-3.37-.07-.74-.16-1.49-.06-2.24-.08-.36.12-.76,0-1.12.18-.09.04-.09.09-.04.16,0,.08,0,.17,0,.25-.07.15,0,.3-.02.44.01.11.03.21.04.32-.03.15-.08.3-.04.46,0,.14.01.28.02.42,0,.09-.01.18-.02.27,0,.17,0,.34,0,.5,0,.03,0,.07-.01.1,0,.69,0,1.37,0,2.06,0,.06,0,.12,0,.19,0,.08,0,.17,0,.25,0,.03,0,.06,0,.1,0,.17,0,.34,0,.51v.1c0,.11,0,.22.02.33l-.02.1c0,.23,0,.45,0,.68,0,.03,0,.06-.01.09,0,.8-.04,1.59.02,2.39-.04.07-.03.11.06.12Z"/>
    <path class="cls-5" d="m79.11,19.04c0-.05,0-.11,0-.16,0-.03,0-.07,0-.1,0-.14,0-.28,0-.42.04-.06.05-.12.02-.18,0-.31,0-.63,0-.94,0-.03,0-.07,0-.1,0-.14,0-.28,0-.42,0-.09,0-.18,0-.27.08-.09.07-.17,0-.26.12-.37.1-.75.03-1.12,0-.06,0-.11,0-.17.03-.32.08-.64.02-.96,0-.11,0-.22,0-.33.03-.07.02-.13-.01-.19,0-.17.02-.34.03-.51,0-.06-.01-.13-.02-.19,0-.08,0-.16.01-.24,0-.06,0-.13-.01-.19,0-.14.01-.28.02-.42,0-.15,0-.3,0-.45.01-.11.03-.23-.03-.33,0-.01,0-.02,0-.03,0-.02-.01-.04-.02-.06.08-.23.05-.46.05-.69,0-.03,0-.07,0-.1,0-.14,0-.28.01-.42.26-.33.59-.46,1.01-.44.31.02.63-.06.94-.02.51.06,1.13-.12,1.41.55.14.43.1.91.37,1.29.33.47.77.79,1.3,1.02.03,0,.06-.01.1-.02.11,0,.23,0,.34.01.2.17.4.17.6.02.09,0,.17,0,.26,0,.16.24.29-.04.44-.03.05,0,.11,0,.16,0,.03,0,.06,0,.09,0,.09,0,.18,0,.26-.01.17.22.42-.02.6.1.22,0,.42.05.52.28,0,.1-.06.2.07.26,0,.49.01.98.02,1.46,0,.03,0,.07,0,.1,0,.08,0,.16,0,.24,0,.03,0,.07,0,.1,0,.49,0,.98,0,1.46-.14.33-.16.72-.12,1.01.13.88,0,1.75.03,2.62.02.19-.16.25-.25.37-.6.19-1.23.08-1.84.08-1.99,0-3.98-.07-5.97,0-.34-.1-.46-.33-.44-.67,0-.16,0-.31,0-.47,0-.03,0-.07,0-.1Zm.5-2.75l-.03.02h-.07s.05.02.07.03c0,.05,0,.1,0,.15-.02,0-.05,0-.07.01.02,0,.05,0,.07,0l.03.03c-.03.09-.06.18,0,.27v.34s0,.07-.02.1c0,.17,0,.34,0,.5-.06.12-.01.24.01.36.01.08.02.17.03.25,0,.03,0,.07-.01.1,0,.11,0,.22,0,.33,0,.06,0,.12,0,.19,0,.05,0,.11,0,.16,0,.03,0,.07,0,.1,0,.05,0,.1.01.16-.04.47.1.65.51.6.82-.1,1.65-.08,2.47-.09.54,0,1.08.15,1.62.06.66-.11,1.31-.07,1.96,0,.34.04.74.19.98-.23.14-.8.09-1.6.06-2.41.05-.09.04-.18,0-.27,0-.17.01-.34.02-.51-.08-.18.26-.34.01-.53,0-.49-.01-.97-.02-1.46,0-.15,0-.3,0-.45,0-.28,0-.57,0-.85,0-.03,0-.07,0-.1.05-.33-.07-.51-.41-.52-.37-.17-.75-.03-1.12-.06-.03,0-.06,0-.08,0-.32.06-.64-.15-.96,0-.34-.05-.66-.06-1.01-.23-.92-.45-1.41-1.15-1.49-2.15,0-.12-.03-.22-.1-.31-.08-.18-.24-.12-.36-.12-.51,0-1.01,0-1.52,0-.09,0-.18,0-.27.01-.15-.05-.18.03-.19.15h-.01c-.1.04-.12.1-.08.19.01.69.02,1.38.03,2.08-.05.09-.04.18,0,.27,0,.11,0,.23,0,.34-.07.01-.09.05-.09.12,0,.97.02,1.94.03,2.92.01.11.03.23.04.34,0,.03-.02.07-.03.1Z"/>
  </g>
  <text class="cls-6" transform="translate(54.58 91.46)"><tspan x="0" y="0">P60-FZT</tspan></text>
</svg>