<?xml version="1.0" encoding="UTF-8"?>
<svg id="T80-88-DSS" xmlns="http://www.w3.org/2000/svg" viewBox="0 0 150 100">
  <defs>
    <style>
      .cls-1 {
        stroke-width: .14px;
      }

      .cls-1, .cls-2, .cls-3, .cls-4 {
        fill: none;
        stroke: #000;
        stroke-miterlimit: 10;
      }

      .cls-5 {
        fill: #231e1e;
      }

      .cls-6 {
        font-size: 12px;
      }

      .cls-6, .cls-7 {
        fill: #231f20;
        font-family: MyriadPro-Regular, 'Myriad Pro';
      }

      .cls-2 {
        stroke-width: .21px;
      }

      .cls-3 {
        stroke-width: .23px;
      }

      .cls-7 {
        font-size: 9px;
      }

      .cls-4 {
        stroke-width: .15px;
      }
    </style>
  </defs>
  <text class="cls-6" transform="translate(46.12 79.43)"><tspan x="0" y="0">T80-88-DSS</tspan></text>
  <g>
    <g>
      <line class="cls-3" x1="75.9" y1="55.77" x2="97.35" y2="55.77"/>
      <path d="m98.73,55.77c-.65.24-1.45.65-1.95,1.08l.39-1.08-.39-1.08c.5.43,1.3.84,1.95,1.08Z"/>
    </g>
    <g>
      <line class="cls-2" x1="46.61" y1="55.77" x2="26.78" y2="55.77"/>
      <path d="m25.52,55.77c.59-.22,1.33-.6,1.79-.99l-.36.99.36.99c-.46-.4-1.19-.77-1.79-.99Z"/>
    </g>
    <line class="cls-3" x1="98.48" y1="54.73" x2="98.48" y2="56.8"/>
    <line class="cls-2" x1="25.52" y1="54.73" x2="25.52" y2="56.8"/>
  </g>
  <g>
    <g>
      <line class="cls-4" x1="113.21" y1="28.35" x2="113.21" y2="19.5"/>
      <path d="m113.21,18.61c.16.42.42.95.71,1.27l-.71-.26-.71.26c.28-.33.55-.85.71-1.27Z"/>
    </g>
    <g>
      <line class="cls-1" x1="113.21" y1="40.85" x2="113.21" y2="49.03"/>
      <path d="m113.21,49.85c-.14-.39-.39-.87-.65-1.17l.65.23.65-.23c-.26.3-.51.78-.65,1.17Z"/>
    </g>
    <line class="cls-4" x1="112.18" y1="18.71" x2="114.25" y2="18.71"/>
    <line class="cls-1" x1="112.18" y1="49.85" x2="114.25" y2="49.85"/>
  </g>
  <text class="cls-7" transform="translate(49.03 58.41)"><tspan x="0" y="0">50mm</tspan></text>
  <text class="cls-7" transform="translate(101.09 37.68)"><tspan x="0" y="0">22mm</tspan></text>
  <path class="cls-5" d="m98.24,28.57c-.02-.24.02-.5-.09-.73-.23-.63-.45-1.26-.57-1.92-.3-.58-.55-1.19-.87-1.76-1.24-2.24-3.04-3.9-5.27-5.13-.57-.31-1.18-.52-1.77-.78-.48-.11-.93-.29-1.4-.43-.85-.14-1.7-.22-2.57-.24-.31,0-.58.19-.89.15-.03,0-.06,0-.09,0-.3,0-.6,0-.89,0-19.11,0-38.22,0-57.33,0-.07.03-.13.03-.2,0-.22.04-.4-.12-.61-.14-.54-.06-1.02.33-1.02,1.07,0,1.25,0,2.51,0,3.76,0,2.75,0,5.5.01,8.25.03.12.06.24-.03.35,0,.06,0,.13,0,.19.08.58.52,1,.93.99.75-.02,1.5,0,2.25,0,6.59,0,13.18,0,19.78,0,.66,0,1.32.04,1.97-.06.28-.04.41.13.33.41-.02.06-.01.1,0,.14.01.06.02.12-.02.17,0,.09-.02.19-.02.28.06.06.06.11,0,.17,0,.06.01.13.01.19,0,3.6,0,7.21,0,10.81,0,.35-.05.7.03,1.05.02.07.03.25-.15.27-.15.02-.31.05-.46.05-5.08,0-10.15,0-15.22,0-2.63,0-5.26,0-7.89,0-.11,0-.24.06-.33-.07-.09-.13-.23-.11-.36-.08-.31.06-.51.25-.68.51-.24.37-.12.75-.12,1.14.02.28.05.56-.03.84-.1.38.18.61.36.88.09.14.2.2.36.2.45,0,.89,0,1.34,0,9.97,0,19.93,0,29.9,0,2.04,0,4.09,0,6.13,0-.03-.17-.06-.33-.1-.5-6.76,0-13.52,0-20.28,0-5.43,0-10.86,0-16.29,0-.11,0-.22,0-.33-.02-.34-.03-.53-.2-.54-.54,0-.56-.12-1.11-.01-1.68.04-.19.13-.19.27-.19.76,0,1.52,0,2.29,0,7.06,0,14.12,0,21.17,0,.46,0,.91.04,1.3-.28.21-.17.36-.54.27-.8-.07-.19-.09-.39-.09-.6,0-3.78.04-7.56-.02-11.34,0-.18,0-.35.11-.51.07-.09.06-.19.04-.29-.1-.45-.61-1.01-1.23-.71-.15.07-.33.04-.5.04-6.58,0-13.17,0-19.75,0-1.05,0-2.1,0-3.15,0-.48,0-.7-.11-.7-.68.01-3.61,0-7.23,0-10.84,0-.41-.06-.81-.06-1.22,0-.07,0-.15.01-.22q.12-.51.75-.51c7.01,0,14.02-.01,21.03-.01,12.43,0,24.86,0,37.3,0,.32,0,.63-.02.95,0,.22.02.39-.15.61-.14.3.02.6.06.9.1.91.11,1.82.24,2.69.52,2.1.68,3.87,1.86,5.33,3.51,1,1.12,1.8,2.37,2.32,3.78.34.92.67,1.85.65,2.86,0,.23.09.45.11.68.09.84-.2,1.65-.13,2.49.07.84.01,1.69.01,2.54,0,2.93,0,5.85,0,8.78,0,.22-.05.28-.28.27-.87-.01-1.75,0-2.62.01-.43,0-.72-.26-.73-.7,0-.06,0-.11,0-.17,0-.21-.08-.48.02-.63.11-.17.39-.03.6-.06.64-.11,1.11-.4,1.11-1.23,0-.37,0-.74,0-1.11-.01-.74-.52-1.15-1.24-1.01-.19.04-.33,0-.39-.21-.14-.39-.13-.79-.03-1.18.04-.14.12-.2.27-.12.11.05.23.03.34-.04.18-.11.38-.2.56-.31.29-.17.47-.44.48-.77.01-.54.06-1.09-.04-1.63-.11-.62-.62-.92-1.2-.72-.09.03-.18.04-.27.04-2.08,0-4.17,0-6.25,0-.13,0-.25-.03-.37-.08-.29-.13-.57-.02-.79.18-.27.23-.38.54-.38.89,0,.38.01.76,0,1.14-.03.58.48,1.1,1.05,1.2.44.07.42.06.36.5-.04.28-.02.57,0,.86,0,.16,0,.22-.2.21-.75-.06-1.19.37-1.19,1.13,0,.47,0,.95,0,1.42,0,.16.02.29.15.4.17.14.33.28.51.4.13.09.26.04.39-.02.25-.12.44-.01.4.26-.05.37-.05.74-.05,1.11,0,.22-.15.2-.29.21-.43,0-.74.18-.95.55-.09.17-.15.33-.15.52,0,1.16,0,2.32,0,3.48,0,.37-.06.46-.45.47-.43.02-.86,0-1.28,0-3.94,0-7.88,0-11.82,0-.02.18-.03.35-.03.51,4.33,0,8.67,0,13,0,.44,0,.77-.15,1.07-.44.16-.15.23-.31.12-.52-.06-.12-.07-.25-.07-.38-.01-.97,0-1.93-.04-2.9-.02-.46.25-.78.71-.83.51-.05.86-.48.79-.96-.04-.26-.04-.49,0-.75.08-.52-.39-.96-.94-.96-.41,0-.52-.09-.54-.51-.01-.37-.01-.74,0-1.11.04-.55.05-.55.59-.55.7,0,1.1-.67.76-1.27-.03-.06-.03-.08,0-.14.24-.39.14-.79-.26-1.07-.22-.15-.46-.22-.72-.26-.18-.02-.32-.12-.34-.31-.06-.57-.09-1.15,0-1.72.02-.14.07-.2.23-.2,1.81,0,3.63.01,5.44,0,.74,0,1.48.05,2.22-.05.16-.02.28.02.31.19.07.43.1.86.06,1.3-.08.73-.09.73-.83.86-.45.08-.76.38-.86.82-.07.28-.03.55-.03.83,0,.68.58,1.14,1.26,1.02.18-.03.37-.07.42.22.11.6.04,1.19-.02,1.79,0,.08,0,.18-.1.21-.21.06-.44.11-.65.05-.53-.16-.9.09-.9.66,0,.3,0,.59,0,.89,0,.6.59,1.12,1.14,1.09.91-.05,1.82-.03,2.73-.01.14,0,.28,0,.41-.04.42-.09.62-.49.42-.86-.07-.13-.06-.24-.07-.37-.02-.22.05-.44.05-.66.08-3.98-.15-7.97.12-11.95.04-.56-.09-1.1-.13-1.65Z"/>
  <path class="cls-5" d="m70.98,48.6s-.09,0-.14,0h0c-.32.07-.64-.11-.71-.43-.08-.34-.04-.68-.02-1.03,0-.16.1-.25.27-.26.33-.01.67-.02,1-.03.52-.02.81-.38.66-.86-.08-.25-.12-.47.04-.72.12-.19.04-.42-.14-.59-.18-.17-.37-.24-.6-.13-.13.07-.26.08-.4.08-2.19,0-4.37,0-6.56,0-.09,0-.19,0-.28-.02-.47-.15-.67-.08-.93.33-.26.42-.21.88-.12,1.33.05.24.68.63.93.63.26,0,.52,0,.78,0,.19,0,.29.06.31.26.02.32.08.65,0,.97-.09.32-.24.44-.58.45-.44.01-.87.02-1.31.02h-.5c.04.17.07.33.1.5.58,0,1.16,0,1.74,0,.06-.04.12-.03.18,0,.58-.1.94-.55.92-1.13,0-.23,0-.46,0-.7.01-.55-.29-.87-.85-.87-.18,0-.35,0-.53,0-.3-.02-.56-.07-.69-.42-.15-.39-.02-.74.38-.88.13-.04.22.03.34.03.73,0,1.47,0,2.2,0,1.61,0,3.22,0,4.82-.02.16,0,.21.03.2.19-.02.25-.02.5,0,.75.02.25-.09.31-.31.3-.27-.01-.54,0-.81-.01-.42-.01-.78.31-.8.73-.01.38.05.76-.04,1.13-.01.05,0,.11.03.16.23.57.49.75,1.1.75.75,0,1.5,0,2.25,0,0-.17.02-.34.03-.51-.65,0-1.31,0-1.96,0Z"/>
  <path class="cls-5" d="m64.77,42.89c1.35,0,2.7,0,4.06,0,.41,0,.81,0,1.22,0-1.7-.39-3.63-.57-5.28,0Z"/>
  <path class="cls-5" d="m85.74,21.04c.16-.6-.61-1.2-1.07-1.02-.29.11-.59.14-.9.13-.37,0-.74-.02-1.11-.02-4.74,0-9.48,0-14.23,0-4.97,0-9.95.01-14.92.01-.34,0-.69.07-1-.15-.07-.05-.19-.02-.29.02-.54.2-.77.56-.77,1.2,0,2.75,0,5.5,0,8.25,0,.52.22.86.66,1.08.1.05.15.09.11.21-.11.29-.08.59-.07.9,0,.94,0,1.88,0,2.81,0,.15,0,.29.11.42.16.19.33.36.45.57.07.12.18.2.31.22.45.08.85.33,1.32.3.13,0,.19.05.2.2.02.51.03.51-.46.7-.08.03-.15.07-.22.11-.09.05-.17.07-.26,0-.31-.23-.6-.11-.83.11-.35.33-.61.71-.6,1.23,0,.18.03.36,0,.53-.08.58.28.93.66,1.26.07.06.14.12.25.15.34.09.67.07,1-.04.3-.1.46.05.39.35-.03.16-.06.31-.05.46.02.18-.08.24-.23.28-.33.08-.66.13-.99.09-.2-.02-.37.03-.5.19-.3.39-.58.78-.55,1.31.02.43,0,.85,0,1.28,0,.52-.03,1.04.02,1.56.03.33.46.74.79.74,2.5,0,5,0,7.5,0,.22,0,.39-.1.55-.22.33-.24.44-.57.43-.97-.03-1.04.4-1.84,1.32-2.34.24-.13.53-.3.81-.2.29.1.56.09.85.09.12,0,.23,0,.35,0,1.64-.57,3.58-.39,5.28,0,.4,0,.8,0,1.2,0,.16,0,.29-.1.46-.11.41-.01.75.16,1.1.36.74.42,1.18,1.33.93,2.14-.14.45.25,1.07.71,1.18.58.13,1.18.06,1.77.06,2.52,0,5.04,0,7.56,0,.25,0,.46-.07.66-.19.34-.2.54-.59.43-.9-.11-.3-.1-.6-.1-.9,0-4.04,0-8.08,0-12.12,0-.25.07-.33.31-.33.39,0,.76-.56.64-.94-.08-.24-.09-.48-.09-.73.03-2.77.03-5.54,0-8.3,0-.36.02-.71.12-1.06Zm-.64,10.15c0,.16.02.29-.23.29-.26,0-.58.47-.61.85-.02.26-.01.52-.01.78,0,3.79,0,7.58,0,11.37,0,.39-.02.78.02,1.17.03.31-.15.36-.37.36-.41,0-.82,0-1.23,0-1.08,0-2.16,0-3.24,0h0c-1.43,0-2.86,0-4.29,0-.18,0-.37-.03-.55-.07-.24-.05-.38-.23-.31-.46.2-.61.05-1.16-.23-1.69-.31-.6-.78-1.03-1.39-1.31-.33-.15-.68-.19-1.03-.25-.04,0-.1,0-.13.02-.32.2-.68.14-1.03.14-2.03,0-4.05,0-6.08,0-.09,0-.19.03-.27-.03-.24-.19-.5-.13-.77-.08-1,.17-1.69.74-2.13,1.63-.12.25-.22.53-.26.8-.04.29-.24.53-.2.84,0,.02-.05.06-.03.09.29.36-.08.3-.23.34-.14.04-.29.03-.44.03-2.22,0-4.44,0-6.67,0-.19,0-.36-.01-.51-.16-.13-.13-.21-.27-.21-.46,0-.83,0-1.65,0-2.48,0-.3.14-.54.26-.78.1-.21.34-.13.52-.18.25-.07.51-.08.76-.13.44-.08.87-.46.85-1.1-.02-.53-.21-.91-.79-1.06-.11-.03-.22-.06-.32.01-.25.18-.51.16-.78.07-.14-.04-.25-.12-.29-.27-.1-.35-.26-.7-.25-1.08,0-.19.17-.35.19-.49.05-.49.38-.38.67-.38.75,0,1.35-.37,1.55-.98.17-.51-.27-1.13-.8-1.14-.2,0-.41,0-.6-.06-.64-.25-.91-.6-.94-1.32-.04-.89,0-1.78-.03-2.67,0-.21.16-.33.14-.54-.03-.41-.19-.72-.56-.89-.17-.08-.22-.18-.24-.33-.04-.29-.02-.57-.02-.86,0-2.43-.01-4.87-.01-7.3,0-.23.05-.46.05-.69,0-.16.09-.18.18-.14.25.09.51.05.77.05,10.48,0,20.96,0,31.44,0,.21,0,.4-.06.6-.07.14,0,.15.04.15.15,0,.19-.07.38-.07.57,0,3.3,0,6.6.01,9.89Z"/>
  <path class="cls-5" d="m38.92,30.46c-3.5,0-7.01,0-10.51,0-.63,0-1.13-.51-1.12-1.11,0-2.75,0-5.5,0-8.25,0-.47.2-.85.64-1.05.18-.08.36-.12.56,0,.12.08.26.08.4.08.59,0,1.17-.01,1.76-.01,5.65,0,11.31,0,16.96,0,.4,0,.8,0,1.2.01.22,0,.44,0,.65-.12.1-.06.21-.05.32-.02.59.16.86.66.67,1.25-.04.12-.05.26-.05.38.02.53.01,1.05.02,1.58.03,1.9,0,3.81,0,5.71,0,.1,0,.21.03.3.2.61-.21,1.2-.86,1.23-.08,0-.17,0-.25,0-3.48,0-6.95,0-10.43,0Zm.57-.49h0c3.15,0,6.3,0,9.45,0,.22,0,.45,0,.67-.02.14,0,.34-.1.29-.2-.09-.18-.02-.33-.02-.49,0-2.2-.01-4.4,0-6.6,0-.62-.05-1.24.1-1.85.04-.15-.05-.2-.21-.22-.29-.02-.57.06-.85.06-6.82,0-13.65,0-20.47,0-.07,0-.15,0-.22,0-.38-.06-.45,0-.45.4,0,2.04,0,4.09,0,6.13,0,.7,0,1.39,0,2.09,0,.51.16.63.62.71.43.07.84,0,1.26,0,3.27,0,6.54,0,9.82,0Z"/>
  <path class="cls-5" d="m91.03,32.02c-1.15,0-2.31,0-3.46,0-.69,0-1.2-.63-1.09-1.31.03-.17.02-.35.02-.53,0-2.6,0-5.2-.02-7.8,0-.35,0-.7.01-1.06.02-.78.68-1.13,1.35-.89.43.16.87.26,1.3.43,1,.41,1.93.92,2.77,1.6,1.27,1.02,2.26,2.26,2.92,3.73.4.88.7,1.79.81,2.76.08.66.14,1.31.16,1.97.01.52-.5,1.13-1.19,1.11-1.2-.04-2.4-.01-3.6-.01Zm.12-.5h0c1.17,0,2.34.02,3.51-.01.62-.02.58-.09.59-.57,0-.15.06-.28.06-.44.01-.87-.12-1.72-.34-2.55-.32-1.24-.88-2.39-1.67-3.42-.54-.7-1.16-1.32-1.85-1.87-1.16-.92-2.52-1.43-3.93-1.83-.22-.06-.37,0-.45.23-.05.14-.08.28-.08.43.02.46.03.93.03,1.39,0,2.58-.01,5.16-.02,7.75,0,.71.14.88.83.89,1.11.02,2.21,0,3.32,0Z"/>
</svg>