<?xml version="1.0" encoding="UTF-8"?>
<svg id="P60-MB" xmlns="http://www.w3.org/2000/svg" viewBox="0 0 150 100">
  <defs>
    <style>
      .cls-1 {
        stroke-width: .19px;
      }

      .cls-1, .cls-2, .cls-3, .cls-4 {
        fill: none;
        stroke: #000;
        stroke-miterlimit: 10;
      }

      .cls-2 {
        stroke-width: .09px;
      }

      .cls-3 {
        stroke-width: .09px;
      }

      .cls-5 {
        fill: #464545;
      }

      .cls-6 {
        fill: #231f20;
        font-size: 12px;
      }

      .cls-6, .cls-7 {
        font-family: MyriadPro-Regular, 'Myriad Pro';
      }

      .cls-7 {
        fill: #010101;
        font-size: 9px;
      }

      .cls-4 {
        stroke-width: .2px;
      }
    </style>
  </defs>
  <g>
    <text class="cls-7" transform="translate(70.53 54.91)"><tspan x="0" y="0">100mm</tspan></text>
    <text class="cls-7" transform="translate(17.23 36.23)"><tspan x="0" y="0">25mm</tspan></text>
    <g>
      <path class="cls-5" d="m132.76,33.41v-.07s-.03-.05-.04-.07c-.04,0-.06-.02-.05-.06.01-.07.05-.17.03-.2-.18-.19-.1-.41-.09-.62-.14-.4-.45-.69-.64-1.07-.03-.06-.07-.13-.11-.19v-.02c-.2-.11-.34-.27-.49-.43-.18-.19-.43-.36-.68-.44-.47-.15-.91-.38-1.41-.45-.76-.1-1.51-.05-2.27-.06-.13,0-.16-.08-.15-.19,0-.04,0-.07,0-.11,0-.03,0-.05,0-.08,0-.05-.01-.1-.02-.15,0,0,0,0-.01,0,0,0,0,0,.01,0,0,0,.02-.02.02-.02,0-.02.01-.05.02-.07,0-.1,0-.2,0-.31-.03-.09-.05-.18-.02-.27,0-.19,0-.38,0-.57,0-.09,0-.17,0-.26-.06-.05-.02-.12-.03-.18,0-.02,0-.05,0-.07,0-.36-.03-.72.02-1.08,0-.06-.2-.13,0-.18,0-.08,0-.17,0-.25,0-.05-.01-.1-.02-.16,0-.19,0-.37,0-.56,0-.05,0-.09,0-.14.04-.28-.31-.37-.31-.63-.06-.03-.12-.05-.17-.08-.13.05-.13-.16-.26-.11-.74,0-1.48,0-2.22.01-.98.02-1.96-.02-2.95.03-.48.02-.99.02-1.48-.09-.07.01-.13.02-.2.03-.48,0-.96.1-1.44.03-.21-.03-.45-.07-.68.08-.12.08-.34.06-.5.02-.68-.17-1.37-.07-2.06-.09-.02,0-.04-.02-.06-.03-.05,0-.09,0-.14,0-1.05.05-2.11.16-3.17.11-.19-.01-.38,0-.56,0-1.52-.09-3.05-.14-4.57-.07-1.03.05-2.06.05-3.09.07-.66.01-1.33,0-1.99.02-.58.02-1.15-.06-1.72-.03-.61.03-1.21-.01-1.82.03-.38.03-.77.01-1.15.04-.41.03-.86-.02-1.26,0-.74.06-1.46-.14-2.19-.03-.02,0-.04,0-.06-.01-.19-.09-.38-.1-.57,0-.66.03-1.32.06-1.98.04-.96-.03-1.92-.02-2.88-.02-.37,0-.74.02-1.11.04-.23.02-.42-.11-.67-.09-.55.04-1.11.12-1.65.09-1.29-.08-2.57-.04-3.86-.05-1.72-.01-3.43,0-5.15.01-2.15.01-4.31.04-6.46.04-.85,0-1.7-.01-2.54,0-.56.01-1.12,0-1.68-.01-.06,0-.12,0-.18,0-.82-.02-1.63.05-2.45,0-.08,0-.16,0-.24,0-.3.03-.61.04-.91,0h-.24c-.41.05-.82-.03-1.23-.01-.81.03-1.63,0-2.44.01-1.46,0-2.92.02-4.37.02-.41,0-.83.05-1.24-.01-.04,0-.08,0-.12,0-.73,0-1.46,0-2.19.03-1.4.06-2.79.05-4.19.02-.44,0-.88.1-1.31.01-.02,0-.05,0-.07.01,0,.03-.02.06-.06.02-.04.01-.08.03-.12.04-.07.07-.14.11-.22.12,0,0,0,0,0,0-.02.03-.06.05-.08.07.01,0,.02,0,.03,0-.02.02-.03.03-.05.05l-.03.76c.03.07.03.13,0,.2-.02.21.04.42-.02.62,0,.05,0,.1,0,.16.06.25.02.5.02.75v.14c.01.19.01.38.02.56,0,.02,0,.05,0,.07,0,.38,0,.76,0,1.14,0,.03,0,.05,0,.08,0,.04,0,.08,0,.12,0,.03,0,.05,0,.08-.01.51,0,1.02.28,1.47.17.13.22.43.52.4.2.02.3.23.54.2.59-.07,1.18-.07,1.77-.11.47-.03.97-.05,1.45.09.43.12.86.28,1.1.62.38.52.78,1.08.63,1.81.07.04.09.08,0,.13-.03.46-.17.88-.51,1.22,0,.07-.03.13-.11.14,0,0,0,0,0,0-.43.55-.99.81-1.68.81-.57,0-1.13-.06-1.7-.09-.53-.03-1.07-.02-1.6.11-.03,0-.07,0-.1,0-.04.02-.08.05-.13.07-.03.03-.06.06-.09.09.03,0,.05.02.06.06.03.13-.09.19-.21.22-.07.21-.21.4-.21.64.05.09.02.17-.01.26,0,.15,0,.29-.01.44,0,.07,0,.14,0,.21,0,.03,0,.07-.01.1,0,.05,0,.11,0,.16l.02.36s0,.05,0,.08v.18c.05.06.07.13.02.19,0,.04,0,.08,0,.12v.08c0,.08-.01.16-.02.25,0,.05.02.09.02.14,0,.42,0,.85.02,1.27.03.62-.08,1.25.07,1.86.03.03.06.05.09.08.1.11.24.11.38.11,1.38,0,2.76,0,4.15,0,.49-.07.99-.02,1.49-.03.93-.02,1.86,0,2.79,0,.19,0,.38-.03.57.06.02,0,.05-.02.07-.02.35-.1.71-.05,1.06-.05.92.01,1.84.02,2.76,0,.5,0,.99,0,1.49,0,0,0,.03,0,.03,0h.03c.32,0,.64,0,.97-.01.07,0,.15-.03.19.06.88,0,1.75,0,2.63,0,.02,0,.04-.02.06-.03.04,0,.08,0,.12-.01.02,0,.05,0,.07,0,.04,0,.08,0,.13,0,.7,0,1.41,0,2.11-.01.06,0,.13,0,.19,0,.47,0,.94,0,1.41,0,.2.08.42.09.62.05.5-.11,1,.1,1.49-.05.15,0,.3,0,.45,0,.04,0,.08,0,.12,0,.47.02.95-.09,1.42.04.81-.07,1.62-.05,2.42-.05.68,0,1.37,0,2.05,0h.13c.17,0,.34,0,.51,0,.04,0,.08,0,.13,0,.49-.03.98-.02,1.47,0,.41,0,.81,0,1.22,0h1.16c.11,0,.21,0,.32,0,.02,0,.04,0,.06,0,.04,0,.09,0,.13,0,.06,0,.13,0,.19,0,.09,0,.17,0,.26,0,.68,0,1.36,0,2.05,0,.34.03.68-.04,1.02.05.19-.12.39-.05.58-.04.04,0,.08,0,.12,0,.11,0,.22,0,.32,0,.04,0,.08,0,.12,0h.51c.3,0,.6.03.9,0,.34,0,.68,0,1.02,0,.49.04.98-.02,1.47-.02,1.85.02,3.69,0,5.54,0,1.81,0,3.62,0,5.43,0,1.83,0,3.66,0,5.49.01.39-.17.79-.01,1.19-.04.6-.04,1.21-.01,1.81-.02.08,0,.17-.01.24.05.09,0,.18,0,.27,0,.61-.1,1.22-.04,1.83-.04.35,0,.7-.09,1.04.04.05,0,.1,0,.14,0,.31-.14.63-.04.94-.05,1.41-.02,2.82,0,4.24,0,.06,0,.13,0,.19,0,.07,0,.13,0,.2,0,.36,0,.72,0,1.08,0,.02,0,.04,0,.06,0,.42,0,.83,0,1.25-.01.06,0,.13-.01.16.06.16-.05.32-.04.49-.04.23,0,.47.06.69.03.74-.08,1.48-.04,2.22-.05,1.31-.02,2.62,0,3.92,0,.19,0,.43.01.51-.23.07-.22.21-.41.18-.66-.02-.07-.04-.13,0-.2,0-.15,0-.29.01-.44,0-.05,0-.09-.01-.14,0-.04,0-.08,0-.12,0-.05,0-.09,0-.14,0-.1,0-.21.01-.31-.02-.15-.07-.31,0-.46,0-.11,0-.21-.01-.32-.16-.17-.15-.55.01-.77,0-.19,0-.38,0-.57v-.08c-.04-.25-.01-.5,0-.76v-.08c-.05-.26.13-.24.29-.25.76-.03,1.53.03,2.29-.06.42-.05.83-.19,1.19-.39.45-.25.86-.57,1.22-.95.12-.15.24-.3.37-.46,0-.04.02-.08.02-.12.17-.32.27-.67.4-1.02.08-.22-.03-.47.15-.66,0-.1,0-.21,0-.31-.02-.05-.03-.09,0-.14v-.12Zm-.44.63c-.08.28-.11.56-.2.84-.14.43-.35.82-.67,1.14-.24.24-.46.51-.79.65,0,.04-.03.07-.07.05-.02,0-.04,0-.05.02-.02.07-.07.06-.13.06h0c-.31.16-.61.35-.97.37-.09.08-.21.06-.32.08-.02.06-.07.08-.13.06-.04,0-.09,0-.13,0h-.06s-.12-.01-.12-.01c-.74.05-1.49,0-2.23.09-.19.18-.04.41-.07.62-.04.23,0,.46,0,.7.04.01.06.03.04.08,0,.7-.01,1.4-.02,2.1,0,.03,0,.05,0,.08v.56s0,.05-.02.07c.05.15,0,.29,0,.44,0,.03,0,.05.01.08-.02.17.12.37-.09.52-.12.21-.3.09-.46.1l-.25.02c-.15.08-.3-.08-.45-.02-.04,0-.08,0-.12,0-.06,0-.13,0-.19,0-.04,0-.08,0-.13,0-.17.03-.35.03-.52,0-.1,0-.21,0-.31,0h-.2s-.38,0-.38,0c-.13.04-.25.02-.38,0-.04,0-.08,0-.12,0-.04,0-.09,0-.13,0-.11,0-.21,0-.32,0-.15.01-.3.04-.45,0h-.45s-.04,0-.06,0c-.04,0-.09,0-.13,0l-.02.02h-.03c-.09-.02-.18-.02-.27-.03-.15,0-.3,0-.45,0-.04,0-.09,0-.13,0-.06.03-.13.03-.19,0h-.19s-.05.1-.07.1c-.58,0-1.16.09-1.72-.09-.11,0-.21,0-.32,0-.02,0-.04,0-.07,0-.04,0-.09,0-.13.01-.05,0-.06-.02-.06-.06-.1-.15-.17.05-.26.02-.02.08-.07.08-.13.04-.06,0-.13,0-.19,0-.21,0-.42,0-.64,0-.04,0-.09,0-.13,0-.13.06-.25,0-.38,0-.04,0-.09,0-.13,0h-.18s0,0,0,0c0,.13-.1.11-.18.11-.97,0-1.94,0-2.92,0-.1,0-.19-.01-.23-.13-.04,0-.08,0-.12,0-.22.21-.5.12-.75.12-1.31.01-2.63,0-3.94-.01-1.08,0-2.16,0-3.25.01-.11,0-.24.05-.32-.08-.22.09-.43-.03-.65-.03,0,.13-.1.11-.18.11-1.14,0-2.28.01-3.42.01-1.95,0-3.9,0-5.85,0-1.24,0-2.49,0-3.73,0-1.99,0-3.99,0-5.98,0-.44,0-.89-.04-1.32-.06-.28,0-.57-.01-.86,0-.09,0-.22.06-.29-.07-.04,0-.08,0-.12,0-.02.05-.03.12-.09.12-.33,0-.66-.01-.98-.04-.28-.02-.55-.11-.83.01-.28.12-.59.03-.88.03-.31,0-.62.01-.93.01-.75,0-1.51,0-2.26,0-1.81,0-3.62-.01-5.43,0-.93,0-1.86,0-2.79,0-.3,0-.61.08-.91.05-.15-.02-.32.03-.39-.17-.03,0-.06,0-.09.01-.04.18-.18.11-.28.11-1.64,0-3.28.01-4.93.02-1.78,0-3.57.02-5.35.03-.58,0-1.16-.07-1.74-.04-.41.02-.82.02-1.23.03-.77,0-1.54,0-2.31,0-.04,0-.08,0-.11,0-.42.02-.85-.06-1.26-.03-.6.05-1.2.03-1.8.04-.69.01-1.38,0-2.07-.01-.04,0-.08,0-.12,0-.11.03-.22.02-.32,0-.04,0-.08,0-.12,0-.11,0-.22,0-.34,0-.09,0-.17.02-.24.07-.19.02-.38.04-.55-.06-.13-.07-.16-.18-.14-.32v-1.65s-.01-.09-.01-.13v-.51c-.04-.15-.17-.31.03-.44-.03-.19-.04-.39-.01-.58v-.07c0-.15,0-.29,0-.44-.1-.47-.15-.95.05-1.41.08-.29.26-.49.51-.64.2-.19.45-.12.69-.12.22,0,.44,0,.66,0,.2.11.42.05.64.05.47-.08.94-.04,1.41-.03.53-.16,1.09-.3,1.49-.71.26-.27.56-.53.66-.94.05-.2.21-.38.18-.61-.03-.11.12-.22,0-.33.01-.53-.03-1.04-.26-1.53-.21-.45-.55-.78-.98-1.02-.31-.15-.61-.33-.95-.4-.04,0-.08-.01-.12-.02-.44,0-.89.02-1.33.01-.55-.02-1.09.11-1.64.07-.25-.02-.45-.12-.61-.32,0-.08-.04-.13-.08-.18-.27-.11-.36-.31-.29-.59,0-.1,0-.2,0-.3,0-.03,0-.05,0-.08v-1.02c-.12-.12-.11-.25,0-.38,0-.06,0-.12,0-.19v-.08c0-.97,0-1.93,0-2.9,0-.27.21-.27.37-.27.43-.02.87-.01,1.3-.02.81,0,1.61,0,2.42,0,.46-.09.92-.04,1.38-.04.24,0,.48-.05.71.03,1.18,0,2.36,0,3.54,0,.56-.04,1.13-.08,1.69.01.56,0,1.13.03,1.69-.05h.38c.09,0,.17,0,.26.01.28-.04.55-.03.83-.02.85,0,1.71-.04,2.56,0,.34.02.68.04,1.03.01.32-.04.64-.03.96-.01,1.6-.05,3.2.1,4.8-.01.96,0,1.92-.05,2.88,0,.04,0,.08,0,.13,0,.7-.05,1.41,0,2.11,0,1.58,0,3.17.03,4.75-.01.31,0,.64.06.95-.04.11-.04.22.03.33.06.82-.07,1.64-.1,2.46,0,.2-.04.39-.09.59-.04.58,0,1.15-.01,1.73-.02.06,0,.13,0,.17.06.47,0,.94,0,1.41,0,.11,0,.23,0,.33-.05.04,0,.09,0,.13.01.05,0,.09,0,.14,0,.59,0,1.18-.06,1.77.03.63,0,1.26,0,1.88,0,.35-.08.71-.06,1.06,0,.22,0,.44,0,.66,0,.36-.11.73-.04,1.09-.03.55.02,1.09-.09,1.64.04.18,0,.37,0,.55,0,.24-.13.5-.05.75-.05.94-.02,1.88,0,2.82,0,.3.15.6.01.9,0,.43,0,.85-.06,1.28.04.24,0,.47,0,.71,0,.43-.13.87-.05,1.31-.06.33,0,.67-.04,1-.06.48.16.97.13,1.46.1.44-.11.88-.05,1.32-.05,1.66-.01,3.31,0,4.97,0,.87,0,1.74,0,2.61.01,2.05,0,4.1,0,6.15-.01,1.24,0,2.48,0,3.72,0,.33-.11.67-.04,1-.05.75-.02,1.5,0,2.26,0,.1.02.2.04.3.06.13.03.21.09.22.25.06,1.49.05,2.98,0,4.47,0,.02,0,.05.01.07l-.02.13s0,.04,0,.06c.04.13.08.26.13.39.6,0,1.21,0,1.81.01.16,0,.32-.06.46.05.47,0,.9.14,1.35.28.6.18.99.6,1.41,1.04.23.25.38.52.53.8.09.09.12.19.06.31.24.25.08.56.14.83.23.11.26.38.07.63Z"/>
      <path class="cls-5" d="m49.8,34.37c.06-.2.02-.39,0-.59,0-.04,0-.08,0-.12,0-.11.06-.23-.04-.32-.07-.56-.3-1.02-.65-1.5-.41-.53-.92-.83-1.47-1.11-.47-.24-.96-.23-1.48-.18-.57.06-1.14.03-1.72.05-.07,0-.15,0-.22,0-.61,0-.9-.39-.76-1.01.03-.13,0-.27.01-.41,0-.17,0-.35-.01-.52,0-.1,0-.21.01-.31.02-.06.01-.1-.05-.13.08-.21.03-.43.05-.64.03-.09.02-.18-.02-.26.02-.13.03-.26-.02-.38,0-.04.02-.09.03-.13,0-.06-.01-.12-.02-.19.07-.15.04-.3.02-.45,0-.42.12-.73.6-.78.52,0,1.04.04,1.56,0,.46-.03.93.06,1.39-.06.06,0,.13,0,.19,0,.26.02.51.05.77,0,.05,0,.09,0,.14,0,.19,0,.38,0,.57-.01.04,0,.08,0,.13,0,.56-.02,1.12.16,1.67-.02.08,0,.16,0,.24,0,.62,0,1.25,0,1.87,0,.04,0,.08,0,.11,0,.07,0,.15.02.22.02,1.57.03,3.15-.05,4.72,0,.84.02,1.68,0,2.52.02,1.05.02,2.1,0,3.15-.01.34,0,.62.09.74.45,0,.06,0,.12.01.18-.03.44-.11.89-.07,1.33.05.52.05,1.04.04,1.55-.03,1.24,0,2.48-.03,3.73-.03.84,0,1.69.01,2.54.02.56-.05,1.12,0,1.67.05.65,0,1.29.02,1.94.04.98-.03,1.96.02,2.93,0,.04,0,.08,0,.12,0,.02,0,.05,0,.07-.06.19-.15.35-.34.44-.37.04-.75-.04-1.12.07-.28-.11-.56,0-.83-.01-.66-.01-1.33.05-1.99-.03-.16-.02-.35.05-.52.02-.15-.14-.32-.03-.48-.03-.48,0-.96-.09-1.44.03-.71,0-1.42.03-2.13,0-1.23-.04-2.45,0-3.68-.01-.78,0-1.57,0-2.35.01-.08,0-.17-.01-.24.05-.02,0-.03,0-.05,0,0,0-.01,0-.01,0-.77-.12-1.53-.09-2.3,0,0,0,0,0,0,0-.49-.16-.99-.06-1.48,0h-.03s-.03,0-.03,0c-.34-.11-.69-.03-1.03-.05-.32-.02-.47-.17-.49-.51-.02-.49-.02-.99-.03-1.48,0-.11,0-.22-.01-.33,0-.06,0-.12,0-.18,0-.05,0-.09,0-.14,0-.12,0-.24-.01-.37.03-.05.03-.1,0-.14.03-.34.02-.68,0-1.02.01-.07.03-.14-.01-.21,0-.12,0-.25.01-.37.13-.33.35-.53.72-.57.13-.01.27.17.4,0,.04,0,.08,0,.13,0,0,.13.09.11.17.13.57.14,1.16.02,1.74.07.34.03.63-.08.92-.24.08-.05.16-.1.25-.14.23-.03.46-.05.6-.27,0,0,.02-.02.02-.02.22-.05.32-.22.41-.4,0,0,0,0,0,0,.27-.09.44-.27.45-.57,0,0,0,0,0,0,.39-.27.42-.71.53-1.11,0-.04,0-.07,0-.11Zm-.21,1.6h-.01s-.05.03-.05.07c-.33.32-.61.67-1.02.92-.66.39-1.34.64-2.12.61-.65-.02-1.31-.05-1.96-.06-.14,0-.3-.04-.43.07-.04,0-.06.02-.05.06h0c-.16.19-.22.37-.04.56,0,.05,0,.09,0,.14-.14.1-.12.2-.01.31,0,.38,0,.77,0,1.15,0,.05,0,.09,0,.14,0,.17-.01.34-.02.5,0,0,0,.02,0,.02,0,.02.01.03.02.05,0,.13,0,.26.04.38,0,.02-.02.05-.03.07,0,.19,0,.37,0,.56-.02.14-.05.29.12.38h0c0,.06.01.07.06.06.96.01,1.92.02,2.88-.05.04.06.08.08.13.01.04,0,.08,0,.11,0,.96.03,1.93.1,2.89-.03.06,0,.12,0,.18,0,.33.18.7.06,1.04.06.7-.01,1.41.07,2.11-.05.06,0,.13,0,.19,0,.09.03.17.02.26,0,.04,0,.09,0,.13.01.55,0,1.1,0,1.65,0,1.49,0,2.98,0,4.47,0,.46,0,.91-.01,1.37-.02h.18c.58.05,1.15.14,1.73.02.24-.05.34-.14.34-.4-.02-.64-.01-1.27-.02-1.91-.02-1.05.07-2.1-.07-3.14,0-.06,0-.12.01-.19.04-.02.06-.05.06-.1,0-1.6,0-3.21,0-4.81,0-1.44,0-2.87,0-4.31,0-.02,0-.03,0-.05,0-.24.05-.48,0-.72-.02-.15.02-.3-.14-.44-.16-.14-.32-.13-.49-.1-.04-.15-.16-.19-.27-.14-.15.07-.29.03-.43.06-.06,0-.12,0-.18,0-.19,0-.39,0-.58,0-.21.04-.42.09-.63,0-.26,0-.53-.08-.77.06-.04,0-.08,0-.12,0-.09-.07-.18-.08-.3-.08-.63,0-1.26,0-1.88,0-.07,0-.15-.02-.2.06-.04,0-.08,0-.12.01-.11-.11-.26-.07-.39-.07-1.04,0-2.08,0-3.11,0-.24,0-.48-.06-.71.05-.02,0-.05.02-.07.03-.38-.1-.76-.14-1.14.04-.14.06-.26-.11-.4-.05-.39-.12-.78-.09-1.17-.04-.02,0-.03.05-.04.08-1.98-.07-3.97.02-5.95.02-.07,0-.13,0-.2,0-.04,0-.08,0-.12,0-.02,0-.04,0-.07,0-.04,0-.08.01-.12.02-.01.01-.03.02-.04.04l-.02.02c-.18.11-.11.28-.11.43,0,.55,0,1.1,0,1.66,0,.05,0,.09-.01.14,0,.13,0,.25,0,.38-.19.13.06.26,0,.39,0,.25,0,.5,0,.75,0,.17-.1.34.06.49.01.01.03.02.05.03,0,.1.06.12.15.12.29,0,.59.04.88-.08.17-.02.35.04.52-.04.02,0,.04,0,.05,0h.19s.04,0,.06,0c.07,0,.14,0,.21,0,.06.05.12.07.17,0,.49-.06.95.07,1.41.18.32.17.69.26.94.55.05.06.13.06.21.05h0c.04.09.11.14.2.16.02.03.04.06.07.09.08.11.17.23.25.34,0,.02.01.03.03.04.2.09.26.31.4.45,0,.02.02.04.02.06.05.08.01.2.1.26.05.17.1.34.16.5.1.51,0,1.04.13,1.55-.15.37-.17.78-.34,1.14-.06.13-.12.26-.18.39h0s-.03.05-.05.07Z"/>
      <path class="cls-5" d="m84.92,41.86c-.12.14-.23.28-.35.43-.89,0-1.78.01-2.68.02-.68,0-1.36,0-2.04,0-.47.03-.94.05-1.41.01-.37,0-.74-.02-1.11-.02-1,0-1.99.01-2.99.02-.21.02-.42.1-.64.05-.41-.08-.81-.09-1.22,0-.21.06-.43-.07-.64,0-.42-.12-.85-.03-1.28-.05-.08,0-.17,0-.25,0-.66,0-1.32,0-1.99,0-.32.04-.64.08-.96.04-.45-.11-.89-.05-1.34.01-.02,0-.05,0-.07-.01-.05-.1-.14-.06-.22-.06-.33,0-.66.01-1,.02-.13,0-.25-.02-.27-.2-.02-.2-.29-.28-.26-.52,0-.37.03-.74.05-1.11.05-1.6-.07-3.2-.03-4.8.01-.53,0-1.06-.04-1.6-.04-.49.06-1,.07-1.5,0-1.22-.01-2.43-.02-3.65,0-.96,0-1.93,0-2.89.02-.07.03-.14.05-.21.08-.04.14-.1.13-.2,0-.15.1-.21.22-.23.16-.04.32-.09.5-.09.57,0,1.13-.02,1.7,0,1.09.03,2.18-.05,3.27,0,.95.04,1.91,0,2.87,0,.79,0,1.59,0,2.38,0,.05-.01.09-.03.14-.04.62.02,1.24.05,1.85,0,.04,0,.09,0,.13,0,.9-.02,1.8.03,2.7.02,1.32,0,2.64-.05,3.96.05.31.02.62.03.72.4.01.05.07.04.11.05,0,.08.01.16.02.24-.05.1-.04.21-.04.31,0,1.21,0,2.42,0,3.63,0,.84,0,1.67.02,2.51,0,.22.06.47-.03.64-.23.43-.06.86-.1,1.28-.02.23.13.41.11.63-.09,1.59.09,3.19-.08,4.79-.07.67,0,1.36.04,2.04Zm-.35-13.54v-.02s-.02-.05-.02-.08c0-.06,0-.12.01-.18,0-.09-.02-.18-.03-.27,0-.04.01-.08.02-.12,0-.03,0-.05,0-.08,0-.04,0-.08,0-.12,0-.02,0-.05,0-.07l.02-.06s.03-.02.05-.03c-.02,0-.04-.02-.05-.02l-.05-.39c.08-.19.04-.38-.02-.56.05-.15.15-.3,0-.45-.07-.04.01-.17-.11-.19h-.03c-.65-.11-1.31-.06-1.97-.06-1.35,0-2.71,0-4.06,0-.77,0-1.54-.06-2.31.04-.03,0-.07,0-.1,0-.59-.09-1.17-.06-1.76-.01-1.39,0-2.78,0-4.16.01-.26-.02-.52-.03-.78,0-.22,0-.45,0-.67,0-1.07,0-2.13-.01-3.2,0-.59,0-.68.1-.67.71,0,.2-.02.4,0,.61.04.75-.05,1.51.03,2.26-.07.41-.11.82-.01,1.23,0,.02,0,.04,0,.07-.08.1-.05.21,0,.31v.14c-.06.17-.07.35-.02.52,0,.06.02.12.03.17-.02.05-.06.1-.06.15,0,.96-.04,1.93,0,2.89.04,1.14-.02,2.28,0,3.42.01.6-.04,1.21.06,1.8,0,.04,0,.09,0,.13-.11.34-.03.69-.04,1.03l.02.12s0,.05,0,.07c0,.06,0,.12,0,.18-.01.44.07.56.43.5.51-.08,1.01,0,1.52-.07.04,0,.08,0,.12.01.05,0,.09,0,.14,0h.24c.2.03.39.01.59,0,.1,0,.21,0,.31,0,.07,0,.13,0,.2,0,.04,0,.08,0,.11,0,.13.03.26.02.4,0,.04,0,.08,0,.12,0,.05,0,.09,0,.14,0,.17,0,.34,0,.51,0,.22.19.43-.06.65-.01.17,0,.34.01.5.02.13.05.26,0,.39-.01.04,0,.08,0,.12,0,.09,0,.18,0,.27,0,.04,0,.08,0,.12,0,.26.03.53.1.78.07.53-.08,1.06.03,1.59-.04.55-.08,1.11,0,1.66,0,1.63-.02,3.25,0,4.88-.01.8,0,1.59-.06,2.39,0,.44.03.88.01,1.32,0,.32,0,.42-.15.36-.45.05-.34.03-.68.02-1.01v-.07c.01-.13.01-.25.01-.38.03-.13.05-.25-.01-.38,0-.3.01-.6.02-.9,0,0,0-.02,0-.03,0-.02,0-.03-.01-.05v-.12s0-.02,0-.02c0-.01,0-.03-.01-.04,0-.31-.01-.62-.02-.93h.02s-.01-.03-.01-.03c.06-.16-.01-.31,0-.47,0,0,.02,0,.02-.01,0-.01,0-.03-.01-.04.03-.07.04-.13,0-.2,0-.02,0-.04,0-.06.05-.14.02-.29.02-.43.02-.06.01-.11-.02-.16.01-.57.02-1.14.03-1.71,0-.03,0-.05,0-.08,0-.06,0-.12,0-.18,0-.04-.02-.09-.03-.13,0-.08.01-.17.02-.25,0-.05,0-.09,0-.14,0-.06,0-.12,0-.18,0-.03,0-.05,0-.08,0-.3,0-.59-.01-.89,0-.05,0-.09.01-.14,0-.08,0-.16,0-.24,0-.03,0-.05,0-.08,0-.04,0-.08,0-.12.02-.05.02-.1-.04-.12,0-.02,0-.05,0-.07.08-.02.06-.08.05-.14,0-.04,0-.07,0-.11.04-.22.02-.44,0-.66,0-.29,0-.58,0-.88.02-.07.02-.14-.02-.2.01-.28.02-.57.03-.85,0,0,.01,0,.02,0l-.02-.02c0-.19,0-.37,0-.56h.02s-.02,0-.02,0Z"/>
      <path class="cls-5" d="m105.75,41.16c0,.12,0,.24,0,.37-.03.11-.06.22-.08.33-.11.43-.47.45-.81.45-1.61,0-3.21-.02-4.82-.02-1.16,0-2.32.01-3.48.01-1.93,0-3.87,0-5.8,0-.07,0-.15,0-.22,0-.31,0-.61-.02-.92-.02-.89,0-1.78.02-2.66.02-.36,0-.72,0-1.08,0-.52,0-.6-.06-.76-.55,0-1.05,0-2.1,0-3.15,0-1.46.02-2.93.02-4.39,0-1.4.04-2.79-.02-4.19-.03-.54.05-1.08.04-1.62-.01-.79.03-1.59-.07-2.38.1-.15.13-.33.14-.5.12-.02.17-.13.25-.19,0,0,0,0,0,0,.43.03.86-.07,1.3-.07,1.23.02,2.45,0,3.68.02.51,0,1.01-.01,1.52.03.56.05,1.14-.02,1.71-.04.81-.03,1.61.05,2.42-.02.04,0,.09.01.13.02.1.12.24.06.36.05.34,0,.68-.05,1.01-.05,1.32,0,2.64,0,3.96.03.69.02,1.4-.04,2.1-.04.55,0,1.1-.07,1.66.07.41.1.43.36.44.63.04.74-.09,1.48-.01,2.23.06.54-.02,1.1-.02,1.65,0,1.34,0,2.68,0,4.02,0,1.01.02,2.01,0,3.02-.02.84,0,1.67,0,2.51,0,.58-.04,1.17.02,1.75Zm-.44.35s.02,0,.03,0c0-.01,0-.03-.01-.04,0-.08,0-.17.01-.25.02-.09.04-.17-.02-.25,0-.38,0-.77.01-1.15.03-.05.03-.09,0-.13,0-.15,0-.3,0-.44,0-.09.04-.17,0-.26,0-.08,0-.17,0-.25,0,0,.01-.02,0-.02,0-.01,0-.03-.02-.04,0-.34,0-.68,0-1.02.03-.04.04-.08.02-.13,0-.15,0-.29,0-.44.03-.07.03-.13,0-.2,0-.04-.01-.07-.02-.11,0-.14,0-.28,0-.42,0-.03.02-.07.03-.1,0-.02-.01-.05-.02-.07,0-.06,0-.12,0-.18,0,0,.01-.02.01-.02,0-.02,0-.03-.01-.05,0-.17,0-.34,0-.51.01-.26.06-.51,0-.77,0-.08,0-.17.01-.25.04-.07.03-.14,0-.21,0-.3,0-.59,0-.89.07-.08.04-.17.01-.25,0-.26,0-.51,0-.77.05-.04.05-.08,0-.12-.06-.32.04-.64,0-.96.02-.04,0-.06-.03-.08,0-.08.02-.16.03-.24,0-.48.05-.95-.03-1.43.04-.07.03-.16.03-.24.03-.07.02-.13-.03-.19,0-.05.02-.09.02-.14.08-.11.02-.21,0-.32,0-.09,0-.17,0-.26.09-.12-.05-.2-.05-.31.07-.15.05-.3.03-.45.04-.22,0-.44-.01-.66,0-.19,0-.37-.01-.56,0,0,.02-.01.02-.02,0-.01,0-.03-.01-.04.04-.12.05-.25,0-.37-.02-.02-.04-.04-.07-.05.01-.14-.03-.22-.19-.21-.28.01-.55.01-.83,0-.4-.02-.81.06-1.2-.06-.04-.01-.06,0-.06.05-.15,0-.31,0-.46.01-.17-.06-.35.01-.52,0h-.12s-.06,0-.07.04c-.1,0-.2.11-.31,0-.03-.02-.07-.06-.1-.06-.52,0-1.05.01-1.57.02-.04,0-.08,0-.12,0-.11,0-.22,0-.33,0-.04,0-.08,0-.12,0-.11-.02-.22-.06-.32.04-.11,0-.21,0-.32,0-.02-.02-.05-.05-.07-.05-.81,0-1.62,0-2.44,0-.06,0-.12,0-.18,0-.04,0-.09,0-.13,0-.04,0-.09,0-.13,0-.04,0-.08-.02-.13-.02-1.34,0-2.69-.01-4.03.01-.41,0-.82-.08-1.22.04-.11,0-.22,0-.33,0-.89-.08-1.78-.06-2.66.01-.47,0-.94.01-1.41,0-.17,0-.27.05-.34.19-.23.3-.1.63-.07.96,0,.75.01,1.49.02,2.24-.03.07-.03.13,0,.2,0,.1,0,.21,0,.31-.02.09-.06.18-.06.28,0,.76-.04,1.53.05,2.29,0,.21-.01.42-.02.63-.08.6-.08,1.2,0,1.8.03.6.05,1.19,0,1.79-.05.05-.06.09.01.13,0,.38.03.76-.04,1.14,0,.07-.05.15.05.2,0,.68.01,1.37.02,2.05-.04.17-.09.34-.04.51,0,.25,0,.5.01.75,0,.22-.09.45.07.66h0c.07.09.17.12.28.12.53,0,1.06,0,1.59-.01.04,0,.08,0,.11,0,.07,0,.14,0,.21,0,.08,0,.16,0,.24,0,.45.03.9.02,1.36,0,.04,0,.08,0,.12,0,.35,0,.69,0,1.04,0,.06,0,.12,0,.17,0,.05,0,.1,0,.15,0,.14,0,.29,0,.43,0,1.39,0,2.78,0,4.18.01.75,0,1.51,0,2.26,0,.1,0,.21.06.29-.05.19,0,.38,0,.57,0,.24.13.49.04.74.05,1.87.03,3.74-.05,5.61,0,.14,0,.28.02.36-.13,0,0,0-.01,0-.01.02-.02.03-.04.05-.05,0-.04,0-.08,0-.11,0-.03,0-.06,0-.08h.02Z"/>
      <path class="cls-5" d="m120.69,25.19c.17.02.34.04.51.06.32.1.64-.07.96,0,.04,0,.08,0,.12,0,.32.02.64-.09.96,0,.08.02.14-.03.2-.07.04,0,.08,0,.12.01.12.12.24.09.36,0,.05,0,.09,0,.14,0,.09.03.18.02.27,0,.07,0,.13,0,.2.01.06.03.13.02.19-.01.04,0,.08,0,.13,0,.08.02.17.05.25.01.07.01.13.03.2.04.1.03.2.07.31.1.3.19.22.53.26.8.04.29.05.61-.04.91.01.13-.09.28.07.39,0,.43,0,.86,0,1.29-.11.13-.14.25.01.37,0,.05,0,.09,0,.14-.21.16-.06.38-.07.57-.03.4-.06.82.06,1.22,0,.04,0,.08,0,.13-.14.28-.14.56,0,.84,0,.13,0,.26-.01.38-.15.13-.06.3-.07.45.04.78.01,1.56.02,2.34,0,.84-.02,1.69.02,2.53.01.27,0,.55.01.82-.04.04-.04.08,0,.13-.08.6-.03,1.2-.04,1.79,0,.38-.07.76-.02,1.15.03.28-.13.48-.39.59-.19-.09-.34.12-.52.07-.1,0-.21,0-.31,0-.09,0-.17,0-.26-.01h-.03s-.03,0-.03,0c-.02,0-.05,0-.07,0-.04,0-.08,0-.12,0-.02,0-.05,0-.07,0-.21,0-.42,0-.63,0-.04,0-.09,0-.13,0-.08,0-.17,0-.25,0-.04,0-.09,0-.13,0-.06,0-.13,0-.19,0-.24-.04-.47-.02-.71,0-.23-.04-.47-.02-.7,0-.28-.04-.56-.02-.84,0-.06,0-.12,0-.18,0-.32-.02-.65-.07-.96.05-.48.02-.97,0-1.45-.05-.26-.03-.53.11-.8.01-.68,0-1.37-.02-2.05,0-.19,0-.39-.1-.58.03-.06,0-.11,0-.17.01-.1-.1-.22-.06-.33-.06-.36,0-.72.02-1.08.02-.62,0-1.25-.02-1.87-.02-.82,0-1.65,0-2.47.02-.46.02-.92-.06-1.38.03-.36.07-.67-.07-.98-.22-.25-.13-.21-.39-.2-.62,0-.08.01-.16,0-.24,0-1.08.02-2.16.02-3.24,0-.99-.04-1.99-.02-2.98.01-.82,0-1.64.02-2.46.02-.79-.1-1.57-.01-2.36.05-.45.03-.9.02-1.35,0-.7.03-1.4-.04-2.08-.04-.42,0-.81.07-1.21,0-.18.16-.17.27-.2.37-.07.73-.1,1.11-.09.26.01.54.08.8-.03,0,0,0,0,0,0,.04-.01.09-.02.13-.04.04,0,.07.02.11.02.06.11.17.07.25.07.49,0,.98-.01,1.47,0,.26,0,.53.05.79-.04.19-.04.38,0,.57.03.23,0,.47.02.7.01.67,0,1.34-.06,2.01-.03.66.03,1.31.04,1.97.03.8-.02,1.6-.05,2.39-.02.6.02,1.2-.07,1.8-.01.1,0,.21.05.31-.02Zm-14.32,9.87c-.1.32-.14.64-.01.96,0,.87,0,1.75,0,2.62v.07c0,.74-.05,1.49,0,2.23,0,.02,0,.05,0,.07,0,.19,0,.37,0,.56,0,.18.08.23.25.28.25.07.48-.09.71,0,.42.16.86.04,1.28.03.76,0,1.53.02,2.29-.02,1.13-.05,2.26.03,3.39-.01,1-.04,2.01-.02,3.01.03.43.02.85-.08,1.27-.03.04,0,.09-.02.13-.02.07.06.14.09.23.08.56-.03,1.13.01,1.69-.07.04,0,.09,0,.13,0,.02,0,.05,0,.07,0,.04,0,.08,0,.12,0h.39s.08,0,.13,0c.06.03.13.03.19,0,.13,0,.26,0,.38,0h1.22c.11,0,.21,0,.32,0,.58.01,1.15.05,1.73-.01.1,0,.18-.05.2-.16.06-.06.06-.13,0-.19,0-.13,0-.26,0-.39.06-.08.04-.17,0-.25.03-.09.01-.18-.01-.26.12-.15.08-.29,0-.44,0-.3.01-.59.02-.89,0-.02,0-.05,0-.07,0-.1,0-.2,0-.3.05-.18.06-.36-.01-.54,0-.03,0-.06,0-.1.05-.07.05-.14-.01-.2,0-.26,0-.53,0-.79,0-.08,0-.16.01-.24,0-.04,0-.09.01-.13.03-.09.04-.17.01-.26,0-.04-.01-.08-.02-.13.04-.11.05-.21,0-.32,0-.04.01-.08.02-.12.03-.04,0-.06-.03-.07-.04-.09.07-.16.04-.24-.16-.54.04-1.07-.03-1.62-.06-.52,0-1.06,0-1.59,0,0,.01-.02,0-.03,0-.02-.01-.03-.02-.05,0-.15,0-.29,0-.44,0,0,0-.02,0-.02,0-.02-.01-.03-.02-.05,0-.04,0-.09,0-.13,0-.02,0-.05,0-.07v-.37c.05-.07.03-.13-.02-.19,0-.09.02-.18.03-.26,0-.05,0-.1,0-.15,0-.04,0-.07,0-.11v-.07c0-.08,0-.16,0-.24,0-.54.08-1.08-.04-1.62,0-.1,0-.2,0-.3,0-.2,0-.4,0-.59.01-.58.02-1.16.03-1.74,0-.46,0-.47-.47-.5-.28-.15-.58-.04-.87-.04-.58,0-1.16-.09-1.74.04-.07,0-.14,0-.2,0-.51-.07-1.02-.06-1.53,0-.36,0-.73.04-1.09-.03-.09,0-.19,0-.28,0-.54.01-1.08-.05-1.62.04-.4,0-.81,0-1.21,0-3.17,0-6.35,0-9.52,0-.44,0-.48.03-.59.45-.11.13-.13.25,0,.38,0,.13,0,.26,0,.38,0,.05,0,.09,0,.14,0,.34,0,.68,0,1.01-.03.08-.17.16-.01.26,0,.11,0,.21.01.32-.03.11-.05.22-.01.33,0,.21,0,.43,0,.64-.16.28-.07.55.02.83-.05.66-.07,1.32-.01,1.98,0,.03,0,.05,0,.08v.31s0,.1,0,.14v.5s0,.05,0,.08c0,.44,0,.89,0,1.33,0,.03,0,.05,0,.08v.25Z"/>
      <path class="cls-5" d="m130.67,31.29c.07.18.18.32.37.4.19.08.25.28.33.44.14.27.19.58.4.83,0,.03,0,.06,0,.08-.02,0-.03,0-.05.01.02,0,.03,0,.05.01.43,1.81-1.01,3.45-2.64,3.61-.59,0-1.19,0-1.78,0-.22.03-.43.08-.65.06-.27-.01-.36-.18-.31-.4.07-.28.03-.54.02-.82,0-.02,0-.05,0-.07,0-.06.02-.12.03-.18,0-.05,0-.09-.01-.14,0-1.12.02-2.23.01-3.35,0-.31-.07-.62-.04-.94.17-.21.4-.21.64-.2.42.02.85,0,1.27.01.85.02,1.64.25,2.39.63h0Zm.42,1.09s-.02-.05-.05-.06c-.05-.06-.09-.12-.14-.17-.41-.42-.82-.86-1.46-.93-.02-.14-.12-.11-.21-.13-.66-.11-1.33-.07-2-.06-.44.01-.44.02-.37.45-.04.19-.02.37,0,.56,0,.07,0,.15,0,.22,0,.04,0,.07-.01.11,0,.03,0,.05,0,.08,0,.72,0,1.44-.01,2.16.05.15-.26.31.01.45l-.02.26s0,.05.01.08c0,.23,0,.46,0,.69-.04.23.14.18.25.18.64.01,1.27.04,1.91,0,.66-.03,1.27-.23,1.67-.82-.01-.1.07-.14.11-.2.17-.25.45-.41.52-.74.12-.56.17-1.11-.02-1.67.04-.19-.03-.33-.18-.44v-.02Z"/>
    </g>
    <g>
      <g>
        <line class="cls-4" x1="100.17" y1="52.27" x2="131.54" y2="52.27"/>
        <path d="m132.77,52.27c-.58.21-1.29.58-1.73.96l.35-.96-.35-.96c.44.39,1.16.75,1.73.96Z"/>
      </g>
      <g>
        <line class="cls-1" x1="71.04" y1="52.27" x2="43.65" y2="52.27"/>
        <path d="m42.53,52.27c.53-.2,1.18-.53,1.59-.88l-.32.88.32.88c-.41-.35-1.06-.69-1.59-.88Z"/>
      </g>
      <line class="cls-4" x1="132.77" y1="51.34" x2="132.77" y2="53.19"/>
      <line class="cls-1" x1="42.53" y1="51.34" x2="42.53" y2="53.2"/>
    </g>
    <g>
      <g>
        <line class="cls-2" x1="29.35" y1="30.4" x2="29.35" y2="25.05"/>
        <path d="m29.35,24.49c.1.26.27.59.44.8l-.44-.16-.44.16c.18-.2.34-.53.44-.8Z"/>
      </g>
      <g>
        <line class="cls-3" x1="29.36" y1="38.61" x2="29.36" y2="42.71"/>
        <path d="m29.36,43.22c-.09-.24-.24-.54-.41-.73l.41.15.41-.15c-.16.19-.32.49-.41.73Z"/>
      </g>
      <line class="cls-2" x1="28.43" y1="24.49" x2="30.28" y2="24.49"/>
      <line class="cls-3" x1="28.43" y1="43.22" x2="30.28" y2="43.22"/>
    </g>
  </g>
  <text class="cls-6" transform="translate(55.73 72.8)"><tspan x="0" y="0">P60-MB</tspan></text>
</svg>