<?xml version="1.0" encoding="UTF-8"?>
<svg id="T88PK" xmlns="http://www.w3.org/2000/svg" viewBox="0 0 150 100">
  <defs>
    <style>
      .cls-1 {
        fill: #272322;
      }

      .cls-2 {
        stroke-width: .16px;
      }

      .cls-2, .cls-3, .cls-4, .cls-5 {
        fill: none;
        stroke: #000;
        stroke-miterlimit: 10;
      }

      .cls-6 {
        fill: #231f20;
        font-size: 12px;
      }

      .cls-6, .cls-7, .cls-8 {
        font-family: MyriadPro-Regular, 'Myriad Pro';
      }

      .cls-3 {
        stroke-width: .13px;
      }

      .cls-7 {
        font-size: 9px;
      }

      .cls-7, .cls-8 {
        fill: #010101;
      }

      .cls-4 {
        stroke-width: .15px;
      }

      .cls-5 {
        stroke-width: .18px;
      }

      .cls-8 {
        font-size: 8.67px;
      }
    </style>
  </defs>
  <g>
    <g>
      <line class="cls-5" x1="100.15" y1="13.47" x2="129.53" y2="13.47"/>
      <path d="m130.6,13.47c-.5.19-1.12.5-1.51.84l.3-.84-.3-.84c.39.34,1.01.65,1.51.84Z"/>
    </g>
    <g>
      <line class="cls-2" x1="74.56" y1="13.47" x2="45.14" y2="13.47"/>
      <path d="m44.16,13.47c.46-.17,1.03-.46,1.38-.77l-.28.77.28.77c-.35-.31-.92-.6-1.38-.77Z"/>
    </g>
    <line class="cls-5" x1="130.6" y1="12.54" x2="130.6" y2="14.39"/>
    <line class="cls-2" x1="44.16" y1="12.54" x2="44.16" y2="14.4"/>
  </g>
  <text class="cls-7" transform="translate(75.26 15.58)"><tspan x="0" y="0">60mm</tspan></text>
  <g>
    <path class="cls-1" d="m130.54,21.45c.02.14.04.28.05.42,0,6.24-.02,12.48-.02,18.72,0,9.45,0,18.9.01,28.36,0,.64,0,1.28-.03,1.92-.03.5-.19.94-.77,1.06-.07.02-.13.05-.2.07-6.61,0-13.22.02-19.83.01-.53,0-1.06.1-1.61-.1-1.26-.45-1.89-1.27-1.89-2.62,0-.81-.04-1.62.03-2.43.05-.58-.25-.73-.7-.76-.57-.03-1.15.04-1.72,0-.52-.04-.6.18-.6.63.02,1.49.01,2.98,0,4.47,0,.24.13.52-.13.73-.07.03-.13.06-.2.09-.66,0-1.32,0-1.98-.01-.07-.03-.13-.05-.2-.08-.42-.82-.83-1.66-1.28-2.46-.24-.43-.12-.55.32-.53.4.02.79-.03,1.11-.3,0-.74-.01-1.49-.02-2.23.03-.18,0-.29-.22-.29-2.61.01-5.22.02-7.83.03-.03,0-.06.07-.09.11-.22.85-.24,1.69.01,2.54.31.34.75,0,1.09.21-.3.98-.6,1.96-.9,2.94-.07.03-.13.05-.2.08-.77,0-1.53,0-2.3,0-.11-.04-.21-.08-.32-.12-.32-.96-.73-1.88-.94-2.87.12-.15.29-.08.43-.09.53-.06.92-.2.81-.88-.1-.63.28-1.49-.15-1.85-.37-.31-1.2-.08-1.82-.08-4.57,0-9.14,0-13.71,0-5.64,0-11.28.01-16.92-.01-.64,0-.9.14-.82.81.05.41.04.84,0,1.25-.04.55.11.87.73.77.41-.06.45.21.36.47-.3.84-.62,1.66-.94,2.49-.06.04-.11.07-.17.11-.76,0-1.53,0-2.29-.01-.07-.02-.13-.05-.2-.07-.45-.92-.58-1.97-1.13-2.91.45-.09.86-.18,1.28-.26.14,0,.18-.05.07-.16,0-.66,0-1.32,0-1.99.1-.1.12-.22.08-.36-.13-.26-.37-.13-.55-.13-2.33,0-4.65.02-6.98-.02-.65-.01-.87.27-.92.84-.11,1.37-.01,1.5,1.37,1.84.28.07.52.22.21.52-.65.64-.92,1.52-1.39,2.28-.25.4-.47.52-.88.49-.23-.02-.47-.03-.7,0-.61.08-.81-.15-.81-.78.02-16.43.01-32.86.01-49.29,0-.18.02-.36.03-.55.1-.16.21-.33.31-.49.18-.2.42-.16.65-.16,3.06,0,6.11,0,9.17,0,.69,0,1.16.6,1.05,1.27-.04.2-.05.41-.05.62,0,6.97,0,13.95-.01,20.92,0,.56.15.74.71.72,1.24-.04,2.48-.09,3.72-.14,4.08-.17,8.17.03,12.26-.15,4.47-.19,8.96.03,13.44-.18,1.67-.08,3.34.03,5.01-.04.56-.02,1.22.1,1.68-.43,0-.06-.02-.13-.03-.19,0-7.04,0-14.07,0-21.11,0-.07,0-.14,0-.22.02-.79.5-1.07,1.21-1.07,2.71,0,5.43.02,8.14.01,1.56,0,1.81.25,1.81,1.84,0,6.37,0,12.74,0,19.11,0,.23.03.47-.01.7-.16.9-.02,1.1.9,1.07,3.2-.11,6.39.08,9.59-.12,3.03-.18,6.08.07,9.12-.17.36-.03.54-.09.52-.46.09-.05.12-.12.05-.21,0-6.93,0-13.86,0-20.79.01-.17.03-.35.04-.52.09-.43.4-.46.77-.45,1.69.02,3.39.02,5.08,0,.32,0,.6.1.89.19.1.16.21.31.31.47Zm-82.48-.25c-.01.7.5,1.04,1,1.29.97.47,1.89-.01,2.5-1.22.11-.02.22-.05.33-.07,0,.06.02.13.03.19-.01.08-.02.15-.03.23-.12.57-.13.99.69.93.52-.03.83.22.74.92-.12.95-.08,1.92-.02,2.88.05.88-.15,1.19-1,1.2-1.67.01-3.33,0-5,0-.59,0-.94-.31-.95-.89-.03-1.17,0-2.34,0-3.51,0-.48.32-.74.67-.59.62.26.6-.08.61-.49,0-.28.02-.57.02-.85-.7-.18-1.39-.14-2.09-.02-.08,0-.17,0-.25,0-.1-.11-.16-.07-.21.04-.37.06-.59.25-.59.64,0,.21-.03.42-.03.62,0,15.59,0,31.17,0,46.76,0,.21.02.42.03.62,0,.37-.02.73-.01,1.1,0,.27-.11.65.26.74.39.09.88.17,1.18-.15.55-.58.97-1.26,1.3-1.99.06-.13.15-.27-.01-.32-1.47-.42-1.19-1.62-1.15-2.66.02-.47.23-1.06.86-.93.68.14,1.35.1,2.02.09,1.84-.04,3.69.14,5.54-.1.53-.07.79.34.63.82-.24.72-.18,1.45-.08,2.15.07.5-.05.59-.45.62-.18,0-.36.02-.52.03-.08.34.1.59.19.84.52,1.59.63,1.65,2.29,1.48.23-.02.45-.07.48-.29.12-.71.61-1.3.67-1.97-.32-.27-.86.24-.99-.4,0-.06-.01-.12-.02-.19,0-.77,0-1.54,0-2.31v-.2c.04-.51.36-.69.79-.56.34.11.67.08,1,.08,4.57,0,9.14,0,13.71,0,.42,0,.89.14,1.17-.36.08-.14.32-.15.42-.02.42.59,1.03.39,1.57.38,4.95-.07,9.91.16,14.86-.1.38-.02.74.31.65.69-.14.57-.07,1.13-.08,1.7-.03,1.13,0,1.13-1.13,1.26.1.26.2.52.29.78.59,1.65.58,1.64,2.32,1.52.29-.02.44-.13.49-.37.16-.66.55-1.25.58-1.96-.32-.15-.97.24-.99-.5-.03-.86-.04-1.72,0-2.58.02-.38.3-.57.7-.53,2.49.22,4.97.16,7.46.03.51-.03.88.29.74.78-.19.66-.18,1.29,0,1.95.13.48-.11.8-.65.83-.22,0-.45,0-.72,0,.15.31.32.55.39.82.35,1.37,1.24,1.79,2.56,1.52.32-.12.17-.4.17-.6,0-1.63,0-3.25,0-4.88.15-.29.33-.56.72-.43.58.19,1.13.17,1.72,0,.63-.19,1.48.56,1.31,1.17-.23.83-.11,1.65-.12,2.48-.02,1.32.95,2.28,2.27,2.29,6.66.02,13.32.02,19.99.02,1.13,0,1.4-.28,1.4-1.41,0-11.47,0-22.94,0-34.4,0-4.52,0-9.04,0-13.56,0-.59-.15-1.01-.78-1.12-1.73,0-3.46-.01-5.19-.01-.17,0-.37-.08-.45.17-.01.29-.03.57-.03.86,0,6.81,0,13.62,0,20.43,0,.75-.29,1.09-.97,1.1-2.45.06-4.89,0-7.34.14-2.24.13-4.49.03-6.73.03-1.61,0-3.21,0-4.82.14-.57.05-1.15-.12-1.12-.91.24-.18.14-.43.14-.65,0-6.65,0-13.31,0-19.96,0-.25.08-.53-.14-.74-.08-.44-.4-.55-.78-.58-.86-.01-1.72-.12-2.58.06-.08,0-.15,0-.23,0-1.02-.13-2.03-.13-3.05,0-.08,0-.15,0-.23,0-1.02-.11-2.03-.2-3.05.04-.6.08-.45.54-.45.9,0,7,0,14,0,20.99,0,.94-.07.99-1.03,1.02-1.76.06-3.53.04-5.29.12-4.08.18-8.17-.04-12.26.18-3.48.18-6.97-.08-10.46.14-2.52.16-5.06.02-7.6.04-.6,0-.85-.25-.83-.84.02-.76,0-1.51,0-2.27,0-6.48,0-12.95,0-19.43,0-.53,0-1.03-.76-.94-.7-.03-1.4-.11-2.1.05-.08,0-.15,0-.23,0-1.28-.14-2.56-.15-3.84,0Zm1.75,6.01c.78,0,1.56.02,2.34-.01.33-.01.78.04.78-.51,0-1.12,0-2.24,0-3.36,0-.21-.02-.38-.28-.33-.58.1-.99-.1-1.26-.62-.45.29-.91.55-1.45.61-.25.03-.55.05-.76-.06-.59-.3-1.13-.61-1.69.04-.06.07-.25.04-.38.02-.42-.07-.46.16-.45.5.02.94.04,1.88,0,2.81-.03.66.31.89.87.91.76.02,1.51,0,2.27,0Z"/>
    <path class="cls-1" d="m110.37,45.46c2.01-.02,4.02-.08,6.03-.03,3.57.08,7.12-.27,10.69-.17.18,0,.35-.02.53-.07.6-.17.92.1.92.72-.01,7.57-.02,15.13-.03,22.7,0,.18,0,.37.03.55.07.49-.11.8-.6.92-.07,0-.14,0-.21,0-6.2,0-12.41,0-18.61,0-.12,0-.24-.01-.36-.02-.45-.09-.64-.36-.61-.82.09-1.14-.03-2.28.08-3.42.09-.99-.87-1.65-1.72-1.62-1.2.04-2.39,0-3.59.04-.59.02-.91-.23-1.05-.77,0-.06-.02-.13-.02-.19,0-5.56,0-11.11,0-16.67,0-1.38.27-1.58,1.55-1.13.18.06.34.09.52.09,2.09,0,4.17-.01,6.26-.02.07-.03.13-.06.2-.09Zm-4.08,18.34c1.43-.16,2.4.8,2.3,2.29-.11.05-.15.12-.03.21,0,.92,0,1.84,0,2.76-.13.1-.04.15.05.2-.07.56.33.46.65.46,6.02,0,12.05,0,18.07,0,.26,0,.52.02.73-.17.04,0,.08,0,.12-.01l-.05-.16c0-7.82,0-15.64-.01-23.47.03-.07.05-.14.08-.21-.17-.26-.43-.12-.64-.12-1.16.02-2.33.07-3.49.11-3.64.15-7.29-.04-10.94.16-2.42.14-4.85.02-7.28.03-.26,0-.53,0-.77.06-.64.17-1.27.15-1.89-.06-.98-.34-.98-.34-.98.76,0,4.28,0,8.56,0,12.84,0,1.17,0,2.35,0,3.52,0,.42.08.77.61.77.05.09.12.12.21.05,1.02,0,2.04,0,3.07,0,.09.07.16.05.21-.04Z"/>
    <path class="cls-1" d="m60.94,46.51c.2-.32.39-.39.85-.37,1.84.08,3.68.21,5.52-.06.23-.03.46-.03.7-.03,2.76,0,5.53-.02,8.29-.02.07-.03.13-.06.2-.08,2.22-.02,4.44-.05,6.66-.03.53,0,1.01-.26,1.53-.17,1.03.19,2.08.27,3.09.12,1.54-.23,3.1.05,4.63-.27.86-.18,1.02.04,1.02.9,0,5.64,0,11.27.02,16.91,0,.54-.21.81-.74.83-.29.01-.57,0-.86,0-10.02,0-20.05,0-30.07,0-.63,0-.95-.27-.94-.91.12-.05.14-.12.04-.21,0-5.42-.02-10.83-.03-16.25.1-.1.13-.21.1-.34Zm.78,17.28c.05.09.12.13.21.05,10.17,0,20.34,0,30.51,0,.07.02.14.04.21.06.26-.1.45-.19.45-.57-.02-5.56-.02-11.13,0-16.69,0-.51-.17-.65-.62-.58-1.37.2-2.74.11-4.12.17-.94.04-1.92-.29-2.81.29-.08.05-.33.02-.36-.04-.21-.42-.58-.27-.89-.26-1.43.04-2.86.11-4.27.11-5.09,0-10.18.2-15.26.2-.91,0-1.83.05-2.74,0-.64-.04-.77.2-.77.78.02,5.23.01,10.45.01,15.68,0,.16.03.32.01.47-.05.39.25.31.46.35Z"/>
    <path class="cls-1" d="m128.52,33.42c0,3.37,0,6.74,0,10.11,0,.46-.14.76-.58.94-.7.3-1.44.2-2.14.1-.28-.04-.77-.37-.49-.95.1-.21.05-.51.05-.77,0-6.37,0-12.75,0-19.12,0-1.11.04-1.13,1.15-1.06.35.02.71.05,1.08-.06.62-.2.93.06.93.7,0,3.37,0,6.74,0,10.11,0,0,0,0-.01,0Zm-.4-10.08c.09-.05.11-.12.07-.2-.55-.32-1.15-.04-1.72-.14-.6-.1-.78.11-.77.74.03,6.54.02,13.09.02,19.63,0,.18,0,.37,0,.55.01.28.17.44.45.41.64-.09,1.27-.2,1.9-.3.08-.05.16-.11.03-.19,0-6.83,0-13.66.01-20.49Z"/>
    <path class="cls-1" d="m97.63,64.22c-.89,0-1.78,0-2.66,0-.84,0-1.17-.46-.99-1.29.05-.25.05-.52.05-.78,0-5.46.01-10.91,0-16.37,0-.96.22-1.17,1.16-1.17,1.81-.02,3.63.15,5.45-.08.28-.04,1.06.02.63.8-.18.33,0,.69,0,1.03-.01,5.66-.01,11.33.01,16.99,0,.68-.34.85-.89.86-.91.01-1.83,0-2.74,0Zm3.13-.48c.05-.09.11-.19.16-.28,0-3.55.02-7.09.02-10.64,0-2.53-.02-5.06-.03-7.58.04-.25-.08-.3-.31-.29-1.85.01-3.71.02-5.56.01-.49,0-.68.16-.68.68.02,5.87,0,11.75,0,17.62,0,.25-.07.54.28.63,1.85,0,3.7.02,5.55.02.2,0,.43.05.56-.18Z"/>
    <path class="cls-1" d="m52.5,43.24c.68-.16.87.27.93.81.14,1.31.99,2.13,2.33,2.12,1.24-.01,2.48.13,3.73-.09.35-.06.72.18.71.7-.01,2.79-.02,5.59,0,8.38,0,.56-.37.74-.78.74-4.13.02-8.25.02-12.38.01-.48,0-.69-.31-.69-.76,0-3.76.01-7.52,0-11.28,0-.71.41-.73.93-.62.06.09.13.11.22.04,1.6,0,3.19,0,4.79,0,.1.08.16.03.21-.06Zm7.33,3.57c.05-.43-.25-.28-.46-.28-1.17,0-2.35,0-3.52,0-1.53,0-2.42-.73-2.75-2.24-.08-.38-.2-.64-.68-.63-1.75.03-3.49.02-5.24,0-.37,0-.5.11-.5.48,0,3.62.01,7.24,0,10.87,0,.34.13.47.44.48.05.1.11.12.21.07,4.01,0,8.01,0,12.02,0,.14.06.27.07.36-.09.04-.05.08-.11.12-.16,0-.07-.02-.14-.02-.2,0-2.7,0-5.4,0-8.1,0-.07.02-.14.02-.2Z"/>
    <path class="cls-1" d="m101.24,36.13c0,2.32-.02,4.65.01,6.97,0,.7-.28.92-.92.91-1.7-.01-3.4,0-5.09,0-1.19,0-1.22-.05-1.21-1.26.01-3.84,0-7.68,0-11.52,0-.73,0-1.46,0-2.19.01-.75.2-.81.94-.79,1.8.06,3.6.1,5.4,0,.72-.04.88.17.88.76,0,2.38,0,4.75,0,7.13,0,0,0,0,0,0Zm-.33-7.35c-.06-.23-.24-.14-.38-.14-1.85,0-3.71.02-5.56-.01-.48,0-.62.11-.62.6.02,4.6.02,9.19,0,13.79,0,.52.16.67.67.67,1.72-.03,3.45,0,5.17-.01.26,0,.6.11.72-.28,0-4.87,0-9.74,0-14.61Z"/>
    <path class="cls-1" d="m47.29,42.73c-.87-.07-1.05-.3-.95-1.11.03-.21,0-.42,0-.63,0-3.94,0-7.89,0-11.83,0-.98.05-.93,1-.89,1.69.07,3.39.05,5.09,0,.72-.02.95.13.86.84-.03.23-.01.47-.01.7,0,3.79,0,7.57,0,11.36,0,.27.08.56-.13.86-.32-.24-.2-.55-.2-.8,0-4-.01-7.99,0-11.99,0-.47-.07-.62-.58-.61-1.72.04-3.45.03-5.17,0-.4,0-.53.09-.53.51.02,4.15,0,8.31.02,12.46,0,.72.67.69,1.12.7,1.62.04,3.24,0,4.86,0,.19,0,.63-.18.3.32-.1-.03-.16.01-.2.1-1.76,0-3.53,0-5.29,0-.07-.1-.13-.07-.19.01Z"/>
    <path class="cls-1" d="m53.29,64.22c-1.98,0-3.97,0-5.95,0-.84,0-1.03-.28-1-1.15.05-1.8.02-3.6.02-5.4,0-.97.19-1.15,1.19-1.15,3.65,0,7.31,0,10.96,0q1.66,0,1.66,1.71c0,1.67-.03,3.34.02,5.01.02.77-.29.99-1.01.98-1.96-.03-3.92-.01-5.87-.01,0,0,0,0,0,0Zm-5.79-.38c3.9,0,7.79,0,11.69,0,.08.07.15.06.22-.03.15-.04.35.02.42-.19,0-.07-.01-.13-.02-.2v-6.22c.06-.1,0-.16-.09-.2-.06-.04-.12-.12-.18-.12-4.15,0-8.3,0-12.45-.02-.38,0-.41.18-.41.47,0,2.01.02,4.02,0,6.03,0,.39.18.42.46.42.1.15.22.16.36.06Z"/>
    <path class="cls-1" d="m99.52,21.26c.11,0,.21,0,.32,0-.01.17-.04.34-.09.52-.13.42-.02.78.53.73.81-.07,1.02.32.98,1.07-.05.98,0,1.97,0,2.95,0,.23.15.55-.27.6-.03-1.28-.05-2.57-.07-3.85,0-.08,0-.22,0-.22-.57-.12-1.25.06-1.59-.64,0,0-.19.05-.27.11-1.09.77-2.1.62-3.04-.3-.19.53-.52.84-1.09.76-.48-.07-.56.16-.54.58.02.83,0,1.67,0,2.5,0,1.02.13,1.14,1.19,1.14,1.43,0,2.87,0,4.3,0,.32,0,.61-.06.9-.17.07.03.13.07.2.1-.14.38-.46.4-.8.4-1.72,0-3.44,0-5.17,0-.62,0-.96-.33-.96-.96,0-1.1,0-2.19,0-3.29,0-.55.16-.93.85-.67.42.16.57-.08.57-.47,0-.3-.06-.62.16-.89.1,0,.21,0,.31,0,.22.72.63,1.2,1.43,1.26,1.02.08,1.82-.19,2.16-1.27Z"/>
  </g>
  <text class="cls-6" transform="translate(59.36 88.95)"><tspan x="0" y="0">T88PK</tspan></text>
  <g>
    <g>
      <line class="cls-4" x1="28.01" y1="37.04" x2="28.01" y2="21.85"/>
      <path d="m28.01,20.97c.15.41.41.93.69,1.24l-.69-.25-.69.25c.28-.32.54-.83.69-1.24Z"/>
    </g>
    <g>
      <line class="cls-3" x1="28.01" y1="52.74" x2="28.01" y2="71"/>
      <path d="m28.01,71.8c-.14-.38-.38-.85-.63-1.14l.63.23.63-.23c-.25.29-.49.76-.63,1.14Z"/>
    </g>
    <line class="cls-4" x1="27.09" y1="20.97" x2="28.94" y2="20.97"/>
    <line class="cls-3" x1="27.09" y1="71.8" x2="28.94" y2="71.8"/>
  </g>
  <text class="cls-8" transform="translate(19.4 47.53) scale(1.04 1)"><tspan x="0" y="0">52mm</tspan></text>
</svg>