<?xml version="1.0" encoding="UTF-8"?>
<svg id="P60ST" xmlns="http://www.w3.org/2000/svg" viewBox="0 0 150 100">
  <defs>
    <style>
      .cls-1 {
        stroke-width: .19px;
      }

      .cls-1, .cls-2, .cls-3, .cls-4, .cls-5, .cls-6 {
        fill: none;
        stroke: #000;
        stroke-miterlimit: 10;
      }

      .cls-2 {
        stroke-width: .16px;
      }

      .cls-3 {
        stroke-width: .23px;
      }

      .cls-7 {
        fill: #231f20;
        font-size: 12px;
      }

      .cls-7, .cls-8, .cls-9 {
        font-family: MyriadPro-Regular, 'Myriad Pro';
      }

      .cls-8 {
        font-size: 11.89px;
      }

      .cls-8, .cls-9 {
        fill: #010101;
      }

      .cls-9 {
        font-size: 8px;
      }

      .cls-4 {
        stroke-width: .15px;
      }

      .cls-5 {
        stroke-width: .21px;
      }

      .cls-6 {
        stroke-width: .21px;
      }

      .cls-10 {
        fill: #403e3d;
      }
    </style>
  </defs>
  <g>
    <g>
      <g>
        <line class="cls-5" x1="99.29" y1="49.57" x2="99.29" y2="68.55"/>
        <path d="m99.29,69.79c-.22-.58-.59-1.31-.98-1.76l.98.35.98-.35c-.39.45-.76,1.18-.98,1.76Z"/>
      </g>
      <g>
        <line class="cls-1" x1="99.29" y1="36.92" x2="99.29" y2="20.4"/>
        <path d="m99.29,19.26c.2.54.54,1.2.9,1.61l-.9-.32-.9.32c.36-.41.7-1.08.9-1.61Z"/>
      </g>
      <line class="cls-5" x1="100.51" y1="69.62" x2="98.06" y2="69.62"/>
      <line class="cls-1" x1="100.51" y1="19.26" x2="98.06" y2="19.26"/>
    </g>
    <g>
      <g>
        <line class="cls-2" x1="75.7" y1="76.42" x2="78.95" y2="76.42"/>
        <path d="m79.91,76.42c-.45.17-1.01.45-1.36.76l.27-.76-.27-.76c.35.3.91.59,1.36.76Z"/>
      </g>
      <g>
        <line class="cls-4" x1="53.79" y1="76.42" x2="50.54" y2="76.42"/>
        <path d="m49.65,76.42c.41-.15.93-.42,1.25-.69l-.25.69.25.69c-.32-.28-.83-.54-1.25-.69Z"/>
      </g>
      <line class="cls-2" x1="79.81" y1="75.2" x2="79.81" y2="77.65"/>
      <line class="cls-4" x1="49.65" y1="75.2" x2="49.65" y2="77.65"/>
    </g>
    <g>
      <g>
        <line class="cls-3" x1="81.59" y1="12.87" x2="93.79" y2="12.87"/>
        <path d="m95.15,12.87c-.64.24-1.43.64-1.93,1.07l.39-1.07-.39-1.07c.49.43,1.29.83,1.93,1.07Z"/>
      </g>
      <g>
        <line class="cls-6" x1="49.65" y1="12.87" x2="35.94" y2="12.87"/>
        <path d="m34.7,12.87c.59-.22,1.31-.59,1.76-.98l-.36.98.36.98c-.45-.39-1.18-.76-1.76-.98Z"/>
      </g>
      <line class="cls-3" x1="94.95" y1="11.65" x2="94.95" y2="14.09"/>
      <line class="cls-6" x1="34.7" y1="11.65" x2="34.7" y2="14.09"/>
    </g>
    <text class="cls-8" transform="translate(83.27 46.69)"><tspan x="0" y="0">60mm</tspan></text>
    <text class="cls-9" transform="translate(54 78.77)"><tspan x="0" y="0">36mm</tspan></text>
    <text class="cls-8" transform="translate(49.65 16.36)"><tspan x="0" y="0">72mm</tspan></text>
    <g>
      <path class="cls-10" d="m95,30.85c-.14-.14-.22-.36-.23-.7-.07-.44-.23-.85-.35-1.28-.08-.54-.29-1.05-.42-1.57-.19-.78-.39-1.56-.59-2.34-.3-1.11-.54-2.23-.88-3.33-.16-.52-.2-1.08-.49-1.56-.11-.34-.36-.57-.56-.84-.23-.02-.47,0-.7-.08-.29.06-.56-.04-.84-.07-.09,0-.19,0-.28,0-.05,0-.09,0-.14,0-.05,0-.09,0-.14,0-.72.04-1.44.05-2.16.01-.05,0-.1,0-.15,0-.09.03-.19.03-.28-.01-.05,0-.09,0-.14,0-.35,0-.69.01-1.04.02-.42,0-.83,0-1.25-.01-.82-.02-1.64-.03-2.46-.05-.13.2-.27.19-.42.01-.05,0-.1.02-.15.03-.07.14-.2.08-.31.08-.99-.03-1.99-.06-2.98-.09-.02.01-.04.01-.06,0-.24.13-.47.16-.69-.04-.12,0-.24.01-.35.02-.03.05-.06.05-.09,0-.04,0-.08,0-.13,0-.49.09-.98.06-1.47,0-.21-.05-.44.06-.64-.07-.04,0-.08,0-.12,0-.09.11-.21.07-.32.07-.41,0-.82,0-1.23-.01-.1.03-.2.05-.29-.04-.18.03-.37.06-.55.03-.56.02-1.12.06-1.68-.03-1.49,0-2.98-.02-4.48-.02-.98.14-1.96-.02-2.94.02-.65.02-1.3,0-1.95-.02-.05,0-.1,0-.14,0-.19.02-.37.05-.56,0-.05,0-.09,0-.14,0-.14.03-.28.05-.42,0-.05,0-.09,0-.14,0-.64-.04-1.27.14-1.93.05-.28-.03-.61-.1-.93.02-.29.11-.61-.06-.92-.07-.09,0-.19,0-.28,0-.54.05-1.07.08-1.61,0-.05,0-.09,0-.14-.01-.33.03-.65.07-.98.01-.07,0-.15.01-.22.02-1.93,0-3.86.01-5.79.02-.02,0-.04-.01-.06-.02-.02,0-.05,0-.07-.01-.11.03-.2-.01-.28-.07-.44.16-.89.04-1.34.08-.21.02-.42,0-.63,0-.43,0-.87.07-1.3-.06-.12.08-.25.05-.37.05-1.24.03-2.48-.04-3.71.06-.64.06-1.49.73-1.58,1.34-.12.79-.43,1.53-.62,2.3-.09.37-.22.74-.31,1.11-.19.85-.42,1.68-.68,2.51-.09.3-.29.58-.25.92.03.13.02.23-.12.29,0,.07-.01.13-.02.2.02.08.05.16-.04.22-.17.6-.34,1.21-.51,1.81.02.16-.01.28-.21.29l-.03.55s.02.06-.02.09c0,0,0,0,0,0-.05.19,0,.33.2.39.33.07.65-.01.97-.04.33,0,.65-.06.98,0,.04-.07.11-.06.17-.08.26-.09.54-.14.72-.38.04-.23.08-.46.12-.69-.07-.21-.23-.27-.43-.27-.19,0-.37,0-.56,0-.25,0-.33-.14-.27-.36.15-.52.38-.98.88-1.27.5-.29,1.02-.52,1.58-.51.9.02,1.66.39,2.21,1.13.19.25.29.55.12.86-.13.24-.37.12-.56.15-.13.02-.26,0-.38.04-.16.05-.29.15-.25.36.14.74.33.95,1.12,1.02.73,0,1.45,0,2.18,0,.42-.05.83.11,1.25,0,.61,0,1.22-.08,1.82.04,1.49-.01,2.98.07,4.47-.05.64-.05.65-.04.64-.64-.03-.11-.04-.24.08-.26.58-.13,1.13-.41,1.74-.43l.13-.02c.49-.26,1-.18,1.34.2,0,0,.01.01.01.01.08.02.12.07.1.16.03.03.05.05.08.08.04,0,.07.01.06.06h0s.05.04.03.08c.01.09.02.19.04.28.02,0,.04.02.06.02l-.06.02s0,.05-.01.07v.09c0,.32,0,.64,0,.96,0,.03.01.06.02.09,0,.57-.01,1.15-.02,1.72,0,.08,0,.16,0,.24,0,.97,0,1.94,0,2.91,0,.05,0,.11,0,.16v1.05s.05.01.07.02c-.02,0-.04.01-.06.02,0,.12,0,.25,0,.37l.06.03s-.04.02-.06.03c0,.05-.02.09-.03.14v.09c0,.34-.01.69-.02,1.03,0,.03,0,.06,0,.09,0,.53,0,1.06-.01,1.59,0,.02.02.04.03.06,0,0-.01.02-.02.03,0,.13,0,.27,0,.4,0,.03,0,.06,0,.09-.01.18-.02.36-.03.54,0,.02.02.04.03.05,0,0-.01.02-.02.02-.01.41-.02.83-.03,1.24,0,.03,0,.06.01.09v.76s.01.05.01.08c0,.14,0,.28,0,.41.04.08.03.15,0,.22v.34s-.01.21-.01.21c0,.07,0,.14,0,.22,0,.05,0,.1,0,.15,0,.04,0,.07,0,.11,0,.12.01.24.02.37h0s.03.03.05.04c-.02,0-.03.01-.05.02-.01.02-.02.04-.02.06,0,.05,0,.1,0,.16,0,.04,0,.08,0,.12,0,.24,0,.48,0,.72,0,.2,0,.4,0,.6,0,.12.04.25,0,.37,0,.39-.02.78-.03,1.17.05.17.06.33,0,.5,0,.3,0,.59,0,.89,0,.03,0,.06-.01.09,0,.04,0,.08.01.12,0,.02,0,.04,0,.06,0,0-.02.01-.03.02v.27s.03.04.04.06c0,0,0,.02-.02.03-.01.34-.03.69-.04,1.03,0,.03,0,.06,0,.09,0,.41,0,.83,0,1.24v.09c0,.14,0,.27.01.41.11.37.06.75,0,1.12,0,.14-.02.27-.03.41,0,.03,0,.06.01.09,0,.55.02,1.09.02,1.64,0,.22.03.44-.08.65,0,.15-.09.25-.22.31l-.02.02c-.01.05-.04.09-.09.1-.34.43-.78.61-1.33.53-.12.06-.24.02-.35-.02-.37.06-.74,0-1.11.02-.08.03-.15.03-.22-.01-.19-.2-.14-.44-.14-.68,0-.22.04-.44-.27-.48-.45-.01-.9-.04-1.34.08-.12.12-.07.28-.07.42,0,.89,0,1.77,0,2.66,0,.03,0,.05,0,.08.11.38.5.54.71.84.12.17.31.18.52.21.47.07.93-.02,1.4-.02.83,0,.84-.01.88-.85.01-.26.2-.47.38-.44.34.06.67.02,1,.05.2.02.29.12.29.31,0,.5,0,1,.01,1.49.04.05.04.1,0,.15,0,.16,0,.32.01.48.03.06.02.11-.03.15,0,.07,0,.14,0,.2.06.05.05.1,0,.16,0,.16,0,.31,0,.47,0,.02.02.04.02.06,0,0-.02.02-.02.02,0,.04,0,.09,0,.13.05.06.03.1-.02.15.06.36,0,.72-.03,1.07-.02.35.11.76-.26,1.02-.02.01-.05.02-.07.04-.06.02-.13.04-.19.05-.03,0-.06.01-.09.02-.13,0-.27,0-.4,0-.3-.03-.63.16-.9-.12-.05-.07-.11-.13-.16-.2-.15-.08-.34-.13-.34-.35-.03-.02-.05-.05-.08-.07-.04,0-.07-.01-.07-.05,0,0-.01,0-.01,0-.09,0-.12-.06-.13-.13,0,0,0,0,0,0-.14-.09-.25-.21-.34-.35-.19-.09-.25-.34-.48-.37-.38.07-.75-.08-1.13,0-.51-.05-.67.27-.76.64-.02.11-.02.23-.03.34l.02.15c0,.32,0,.64-.01.97,0,.03,0,.06,0,.09,0,.44.01.88.02,1.32.09.03.19.06.28.09.27.2.56.02.84.06,1.26,0,2.53-.01,3.79-.01,1.28,0,2.56,0,3.84.02.92.02,1.85-.08,2.77.05.26,0,.52,0,.78,0,.91-.06,1.82-.01,2.74-.01.6,0,1.2.01,1.8.02.05,0,.09,0,.14,0,.47-.02.94-.05,1.4.02.05,0,.09,0,.14,0,.26-.04.52-.08.77.03,0,0,.03,0,.03,0h.03c.25-.13.52-.05.78-.06.57-.01,1.13,0,1.7,0,.07,0,.14-.01.18.06.39.02.79.01,1.18-.04.26-.04.52-.04.78.03.09,0,.18,0,.27,0,.8-.08,1.59-.07,2.39-.01.09,0,.18,0,.26,0,.08-.05.15-.04.23.01.06,0,.13,0,.19.01.79-.04,1.59-.1,2.38,0,.03.01.06.01.09.01,0,0,0,0,0,0,0,0,0,0,0,0,.01,0,.02,0,.03,0,.03,0,.05,0,.08-.02.02,0,.04-.01.07-.02,0,0,.01,0,.02-.01.01,0,.02-.01.03-.02.04-.07.08-.15.13-.22-.04-.1-.07-.19.06-.28,0-.05,0-.09,0-.14-.02-.02-.06-.03-.07-.06-.01-.05.03-.08.08-.08,0-.09,0-.19-.01-.28-.07-.05-.05-.1.01-.14.02-.21.03-.42.05-.64-.04-.04-.07-.09-.02-.15,0-.23-.01-.45-.02-.68-.04-.1-.03-.2,0-.3-.04-.35-.3-.51-.58-.63-.04.01-.06,0-.07-.04-.09-.06-.18-.05-.28-.02-.1.1-.19.12-.28-.01-.05,0-.1,0-.15,0-.16.14-.33.11-.5.02-.06.03-.15.04-.18.09-.19.31-.47.53-.73.77-.29.26-.5.62-.87.78-.44.04-.89.12-1.32-.04-.05-.08-.12-.14-.21-.16-.24.04-.19-.19-.2-.27-.01-.86.02-1.71,0-2.57,0-.37-.06-.74.02-1.11,0-.05,0-.09.01-.14-.16-.36-.04-.73-.04-1.09,0-.12-.17-.33.1-.4,0-.11.09-.15.18-.19.41-.11.82-.1,1.23,0,.36.14.2.44.22.68.02.22-.03.45.21.59.16.08.35-.14.5.05.05,0,.09,0,.14,0,.16-.11.32-.09.49,0,.14,0,.28-.01.41.01.51.11.9-.06,1.22-.45.14-.17.31-.31.47-.46l.04-.15v-.2c-.05-.08-.07-.16,0-.23v-.41c-.16-.04-.14-.12-.05-.21,0-.19,0-.37,0-.56,0-.01-.02-.03-.03-.04.02,0,.05-.02.07-.02,0-.16-.01-.32-.02-.49-.03-.1-.04-.21.02-.3,0-.11,0-.22-.01-.32,0-.03.01-.06.02-.09.03-.25-.08-.38-.32-.37-.36,0-.73.02-1.09.04-.14,0-.16.12-.19.25-.05.27-.02.54-.12.8-.03.03-.06.09-.09.09-.77,0-1.54.04-2.3-.09-.14-.08-.3-.15-.43-.25-.39-.31-.57-.73-.58-1.23.01-.1-.06-.2,0-.3v-.4s.02-.09.02-.09c0-.18,0-.36,0-.54,0-.03,0-.06,0-.09v-.19c-.03-.12-.05-.25.02-.36,0-.13-.02-.27-.03-.4,0-.03.01-.06.02-.09l-.02-.47s.02-.06.03-.09c-.04-.12-.03-.24,0-.35-.04,0-.09,0-.09-.06,0-.05.05-.05.09-.06,0-.14,0-.27,0-.41-.02-.66-.11-1.32,0-1.98,0-.56.01-1.12.02-1.69,0-.04,0-.08-.01-.12,0-.09.01-.19.02-.28,0-.03,0-.05,0-.08,0-.63,0-1.25,0-1.88-.11-.27-.07-.53.04-.78,0-.04,0-.07,0-.11-.05-.1-.05-.2-.02-.3,0-.04,0-.08,0-.12,0-.05,0-.11-.01-.16v-.54c-.04-.08-.02-.15,0-.23,0-.04,0-.08,0-.12-.02-.08-.03-.16.05-.22,0-.03,0-.06,0-.08-.01-.02-.02-.05-.03-.07,0-.08,0-.17,0-.25-.09-.15-.05-.29,0-.44,0-.28,0-.55,0-.83-.07-.1-.03-.19.01-.29,0-.14-.01-.27-.02-.41,0-.05,0-.11,0-.16,0-.34-.01-.68-.02-1.02,0-.13-.06-.26.02-.38,0-.06,0-.12,0-.18-.01-.19-.07-.39,0-.58,0-.04,0-.08,0-.12,0-.05-.01-.11-.02-.16,0-.14,0-.28-.01-.41-.01-.09,0-.14.02-.18-.01-.06-.03-.12-.03-.19,0-.11.02-.21.06-.31,0-.03,0-.07,0-.1l-.02-.03s.01-.03.01-.03c0-.14.01-.28.02-.43,0-.02,0-.05,0-.07-.02-.18-.04-.37-.06-.55.06-.14-.09-.31.07-.43,0-.05-.01-.09-.02-.14-.11-.14-.1-.28,0-.42,0-.23,0-.46,0-.69,0-.03,0-.05,0-.08,0-.25,0-.51,0-.76-.12-.33-.13-.65,0-.98,0-.14,0-.27,0-.41-.04-.22-.04-.43.02-.64l-.02-.61c-.01-.17-.23-.33,0-.5v-.22c-.15-.16-.15-.32.02-.48,0-.26-.01-.51-.02-.77,0-.03,0-.06-.01-.09,0-.04,0-.08,0-.12-.01-.05.01-.07.05-.08,0,0,0,0,0,0,0-.19-.19-.38,0-.56,0-.12-.01-.24.07-.34-.04-.22.1-.26.27-.28.01-.01.03-.02.04-.03.22-.27.53-.22.8-.2.48.04.95.17,1.41.31.05.01.08.07.12.11.21.05.41.1.62.15.19.03.13.17.14.29.02.19-.06.38.06.56.11.02.22.06.33.06.87,0,1.74,0,2.61.01.59,0,1.17-.07,1.75.04.07,0,.14,0,.21.01.39-.14.8-.08,1.19-.07.63.01,1.26-.07,1.88.05.07,0,.14,0,.21.01.58-.1,1.17-.1,1.75,0,.3,0,.59-.05.86-.19.38-.2.5-.86.24-1.19-.25.04-.49-.11-.76-.01-.11.04-.27-.02-.27-.21.1-.18,0-.4.07-.58.27-.72,1.25-1.36,2.03-1.37.71-.01,1.33.23,1.92.58.21.12.39.31.55.48.11.12.06.39.09.6.05.33-.06.47-.41.44-.19-.02-.39-.02-.59.05-.19.06-.29.22-.25.36.13.37.18.81.62.99.79,0,1.59.02,2.38.02.08-.02.16-.04.24-.05,0-.04-.02-.07-.02-.11,0-.05.02-.09.03-.14Zm-.95-.03c-.44-.02-.89.09-1.33-.04-.15,0-.27-.06-.37-.16-.12-.12-.21-.3-.16-.46.05-.18.21-.04.32-.04,0,0,.02-.02.03-.02.26-.05.61.06.74-.2.17-.35.15-.76-.01-1.13-.23-.53-.58-.91-1.17-1.11-.33-.11-.62-.35-.98-.43-.07.04-.14.04-.21.02-.05,0-.09-.01-.14-.02-.21.05-.42.03-.63.02-.31.2-.68.21-1,.42-.92.59-1.25,1.08-1.19,2.01.02.24.18.33.37.4.03,0,.06,0,.08,0,.21,0,.41,0,.62,0,.07-.02.11,0,.11.08-.03.43-.16.56-.6.61-.08.09-.19.07-.29.07-.58,0-1.16,0-1.74,0-.09,0-.19.03-.26-.05-.37.08-.75.05-1.12.04-.32,0-.65.02-.97-.05-.12,0-.24.02-.36.02-.26.06-.52.02-.77,0-.29-.05-.58,0-.87.01-.34.02-.68-.02-1.02-.03-.6.16-1.21-.07-1.81.06-.17.03-.35-.02-.53-.05-.14-.02-.19-.13-.18-.26,0-.07-.02-.16,0-.23-.15-.1-.26-.25-.44-.31-.08-.03-.11-.09-.13-.15-.14-.05-.29-.11-.43-.14-.78-.19-1.53-.46-2.35-.42-.29.16-.53.37-.7.65-.11.19-.13.41-.16.62-.01.17.04.34-.05.5,0,.05,0,.09,0,.14.04.02.04.05.01.08.04.13.03.27,0,.4.05.1.04.2.01.3,0,.06,0,.13,0,.19.04.1.04.2,0,.3l-.03.4s.01.06.02.09c0,.06,0,.13,0,.19,0,.14.03.29-.04.43l.04.34c.03.08.03.15-.02.23.01.21.04.42-.02.62.07.19.08.38.02.57,0,.3-.02.61-.03.91.03.07.07.13,0,.2,0,.09,0,.18.01.27.04.03.04.06,0,.09v.4c.03.15.13.3,0,.45,0,.09-.02.17-.02.26,0,.02.02.03.03.05,0,0,0,.02-.01.03,0,.06,0,.13,0,.19,0,.16.08.33-.03.49l.02.14c.03.07.08.15,0,.22,0,.25-.01.51-.02.76.02.12.03.24,0,.36,0,.13,0,.27,0,.4.04.12.03.24,0,.36,0,.04,0,.08,0,.12,0,.03,0,.06,0,.09,0,.16,0,.32,0,.47,0,.17,0,.34,0,.51l-.02.81c.05.19.04.39.02.59.01.49.02.98.03,1.47l.02.02v.03c-.03.21-.04.42-.05.64,0,.03,0,.06,0,.08,0,.09,0,.18-.01.26,0,.05,0,.1,0,.16,0,.16,0,.31,0,.47,0,.08,0,.15,0,.23,0,.13,0,.27,0,.4l-.04.31c.01.15.02.31.03.46,0,.03,0,.06,0,.09,0,.06,0,.13,0,.19v.23s0,.26,0,.26c.02.12.04.25,0,.37l-.02.6c.03.15.07.31,0,.46,0,.04,0,.08,0,.11.1.24.02.48,0,.72,0,.04,0,.07,0,.11,0,.03,0,.06,0,.09,0,.11,0,.21,0,.32.04.17.05.35,0,.52-.05.39-.07.78-.04,1.17.05.02.08.05,0,.07l-.03.2s0,.06,0,.09c0,.16,0,.32,0,.47,0,.03,0,.06,0,.09,0,.3,0,.6,0,.89,0,.05,0,.1,0,.16,0,.23,0,.45,0,.68,0,.06,0,.11-.01.17,0,.08,0,.17,0,.25,0,.08,0,.16,0,.24,0,.04,0,.07,0,.11.02.1.04.2,0,.31v.26c-.02.1.19.18.02.29l-.02.34v.16c.06.29-.06.59.05.88.37.92,1.03,1.32,2,1.22.58-.05,1.17.04,1.76-.07.23-.12.43-.23.42-.55-.02-.58.02-.6.61-.57.05,0,.09.01.14.02.05,0,.11-.02.1.07v.18s.01.06.01.09c-.01.14-.03.27-.04.41.05.07.08.14.03.22,0,.07-.02.13-.03.2.09.07.06.14.01.21,0,.13,0,.27.01.4.04.05.02.1-.03.14,0,.02,0,.05,0,.07.04.02.05.05.02.08,0,.11,0,.22,0,.33.03.03.02.06-.01.09,0,.07,0,.13,0,.2.06.05.05.1-.01.14-.33.56-.84.77-1.47.76-.33,0-.65-.01-.98,0-.21.01-.28-.07-.27-.26,0-.09.02-.18.03-.28.03-.35-.13-.66-.43-.72-.51-.11-1.03-.12-1.55,0-.25.06-.34.21-.37.46-.04.38,0,.77-.04,1.15.04.08.04.15.01.23-.08.39.05.79-.09,1.18l.05.22c.02.83.03,1.67.05,2.5.02.55.28.84.8.92.51-.07,1.02.02,1.53-.02.45-.56,1.03-.98,1.49-1.53,0-.04,0-.07.05-.07h.02c.4-.1.79-.11,1.18,0,.23.16.24.39.22.63,0,.02.02.04.02.05,0,0-.01.02-.02.03,0,.16.01.32.02.47,0,.12.07.25-.03.36v.14c.05.12.06.24,0,.36,0,.18,0,.36,0,.55.04.07.07.14-.02.2-.02.03-.05.05-.07.08-.21.18-.45.07-.68.08-.24.02-.48.01-.71-.06-.07,0-.13,0-.2,0-.23.06-.47.06-.71.01h-.14c-.09.01-.18.03-.28,0-.07,0-.14,0-.21,0-.03,0-.05,0-.08,0-2.3-.01-4.59-.02-6.89-.03-.96,0-1.93,0-2.89,0-.05.1-.1.09-.14,0-.05,0-.09,0-.14,0-.07.13-.14.12-.21,0-.63,0-1.25-.02-1.88-.02-.03,0-.06,0-.09,0-.16,0-.32-.01-.48-.02-.07.04-.15.04-.22,0-.65.03-1.3.02-1.95-.02-.03.03-.05.03-.07,0-.35,0-.7,0-1.05,0-.02.04-.05.03-.07,0-.07,0-.14,0-.2,0-.03.03-.05.03-.08,0-.07,0-.14,0-.21,0-.1.04-.19.04-.28,0-.05,0-.09,0-.14,0-.46.02-.92.07-1.38-.03h-.28c-1.43,0-2.85.09-4.28-.03l-.35.03c-.09.05-.18.04-.28,0-.05,0-.1,0-.14,0-.02,0-.05,0-.07-.01l-.14-.02c-.09.05-.19.04-.28.01-.12,0-.23,0-.35-.01-.35,0-.7.2-1.05-.01-.09,0-.19.02-.28.03-.05.09-.09.05-.13,0-.05,0-.1,0-.14,0-.2.11-.34.13-.28-.17,0-.05,0-.09,0-.14,0-.02,0-.05,0-.07.01-.65.02-1.3.03-1.95-.03-.08-.06-.16.04-.22,0-.16.09-.27.22-.35.37-.11.74-.1,1.12,0,.58.5,1.1,1.06,1.6,1.63h1.75c.5-.16.69-.53.7-1.03,0-.47,0-.94.01-1.41,0-.03,0-.06.01-.09v-2.22c0-.1,0-.2,0-.31,0-.06,0-.12,0-.18-.02-.08-.03-.16.02-.23,0-.16,0-.31,0-.47-.18-.09-.1-.24-.1-.38-.03-.21-.23-.25-.37-.34-.08.03-.15.01-.2-.06l-.43-.02s-.05,0-.07,0c-.21,0-.42,0-.63.01l-.02.02h-.03s-.09.02-.13.03c-.03.07-.1.08-.17.07h-.02c0,.05-.02.07-.06.07-.03.03-.05.05-.08.08-.01.06-.06.08-.12.09l-.03.88c-.09.31-.26.06-.39.05-.03,0-.06.02-.09.02,0,.02-.01.04-.02.05,0-.02,0-.04-.01-.06-.03,0-.06-.01-.08-.02-.03,0-.06,0-.08,0-.37,0-.74,0-1.11.01-.05,0-.09,0-.14,0-.45-.34-.94-.65-.82-1.34.04-.24.02-.48.02-.73,0-.03,0-.06-.01-.09,0-.07,0-.13,0-.2-.16-.28-.13-.56,0-.84,0-.09.01-.18.02-.27-.02-.04-.01-.07.03-.09.19-.12.4-.06.6-.04.18.02.25.11.25.32-.01.34.01.7.42.85.35.05.71-.1,1.05.05.02,0,.05,0,.07,0,.44-.13.89-.04,1.33-.05.46-.06.76-.4,1.08-.67.22-.19.44-.46.4-.82-.02-.21,0-.41-.01-.62,0-.03,0-.05,0-.08v-.9s0-.05.01-.08v-.12s0-.06,0-.09c-.09-.51,0-1.01,0-1.52,0-.03,0-.06,0-.08,0-.04,0-.09,0-.13-.14-.07-.13-.14,0-.21,0-.37.01-.74.02-1.11v-.09c0-.3,0-.6,0-.9-.22-.29-.03-.56.02-.84,0-.11,0-.22,0-.33-.03-.03-.03-.06,0-.09,0-.53,0-1.06,0-1.58,0-.03,0-.06,0-.09l-.02-.46c-.02-.08-.05-.16.02-.23,0-.35.02-.69.02-1.04,0-.05,0-.11,0-.16,0-.3-.05-.6,0-.89.03-.12-.2-.23-.02-.36v-.14c-.18-.29,0-.57.03-.85,0-.07,0-.13,0-.2-.15-.05-.1-.17-.09-.26.04-.46,0-.92-.02-1.39,0-.13.12-.19.09-.31v-.69c-.11-.05-.11-.1,0-.14,0-.04,0-.09.01-.13-.02-.19-.03-.39.01-.58,0-.16,0-.31,0-.47,0-.03,0-.06,0-.09,0-.06,0-.13,0-.19-.02-.06-.02-.11.02-.16,0-.32-.01-.64-.02-.96-.05-.08-.03-.15,0-.23,0-.23.02-.45.02-.68,0-.02-.02-.04-.02-.06,0,0,.01-.02.02-.02l-.02-.19v-.09s0-.08,0-.12c-.01-.21-.05-.43.02-.64-.01-.09-.02-.19-.03-.28-.1-.1-.02-.19.01-.28,0-.16,0-.32,0-.49-.15-.08-.13-.17-.03-.27,0-.17,0-.35,0-.52h-.02s.02,0,.02,0c.02-.36.04-.72.06-1.09-.05-.02-.05-.04,0-.06,0-.1,0-.19,0-.29-.04-.04-.05-.09-.02-.14,0-.16,0-.32,0-.48,0-.03,0-.06,0-.08,0-.07,0-.13,0-.2,0-.05-.01-.11-.02-.16-.09-.22.16-.46-.03-.68.02-.26-.1-.53.07-.78,0-.05,0-.09,0-.14-.01,0-.03,0-.03,0-.05-.33-.13-.66.05-.97,0-.16-.02-.33-.03-.49-.12-.37-.19-.76-.49-1.04-.45-.24-.92-.24-1.42-.19-.76.07-1.43.42-2.18.54-.16.02-.29.13-.26.34.02.14,0,.28,0,.42,0,.04,0,.07-.05.07h0c-.32.14-.66.04-.99.06-.36.02-.73.03-1.1-.03-.05,0-.1,0-.14,0-.35.07-.7.02-1.04-.02-.07,0-.15,0-.22,0-.67.1-1.34.09-2.01,0-.6-.02-1.2,0-1.8.02-.86.02-1.72-.05-2.58,0-.26.02-.45-.09-.62-.25-.09-.08-.14-.22-.08-.35.05-.12.17-.1.27-.1.02,0,.05,0,.07,0,.8.03.94-.22.76-1.09-.05-.23-.16-.45-.24-.67-.23-.16-.47-.3-.63-.54-.44-.27-.91-.44-1.42-.52-.71-.12-1.35.08-1.97.37-.65.3-1.09.79-1.26,1.53-.15.65.14,1.01.79.88.13-.02.29-.11.39.1.09.19,0,.3-.12.42-.23.23-.47.27-.8.24-.47-.05-.95.01-1.43-.03.04-.18.07-.36.11-.54.22-.67.27-1.4.62-2.03.08-.66.29-1.28.49-1.9.11-.32.15-.66.26-.98.17-.65.26-1.33.56-1.95.23-.89.44-1.79.71-2.68.22-.74.73-1.18,1.53-1.22.03,0,.06,0,.08,0,.07,0,.13,0,.2,0,.7-.04,1.4-.05,2.1,0,.07,0,.14,0,.21,0,.38,0,.75-.08,1.12.05h0c.09,0,.18.01.27.01.25-.01.51,0,.76-.06.5-.04.99-.03,1.48.01.07,0,.13,0,.2-.01.47,0,.93,0,1.4,0,.04,0,.08,0,.13.01.03,0,.06,0,.09,0,.06,0,.13,0,.19,0h.43s.13-.02.13-.02c.02-.02.03-.03.05-.05,0,.02.02.03.03.05h0s.05.05.07.07c.25,0,.51,0,.76,0,.13-.1.28-.03.42-.04.07,0,.13.02.2.03.07,0,.15-.01.22-.02.04,0,.08,0,.11,0,.17-.01.35-.08.52,0,.06,0,.12,0,.18,0,.08,0,.15,0,.23,0,.07,0,.13,0,.2,0,.1,0,.19,0,.29,0,.09,0,.18,0,.27,0,.12-.03.24-.04.36,0,.07,0,.14,0,.2-.01.42-.04.84-.03,1.26,0h.13c.28,0,.57-.07.85,0,.04,0,.09,0,.13-.01.03,0,.05,0,.08,0,.13,0,.27,0,.4,0,.94-.04,1.87-.02,2.81,0h.13c1.21-.03,2.43-.04,3.64,0,.04,0,.09,0,.13,0,.12-.04.23-.02.35,0h.21c.16-.04.32-.05.48-.01.05,0,.1,0,.15,0,.09,0,.18,0,.28,0,.07,0,.14,0,.21,0,.56,0,1.12.01,1.68.02.07,0,.13,0,.2,0,.31,0,.61,0,.92,0,.04,0,.09.01.13.02.47-.05.95-.06,1.42,0,.04,0,.08,0,.12-.01.21-.04.43-.02.64,0h.55c.21,0,.43,0,.64,0,.04,0,.08,0,.13,0,.12,0,.24,0,.36,0h.2c.49-.05.99-.04,1.48.03.16-.04.32-.02.48,0,.24-.11.48,0,.71,0,1.31,0,2.62,0,3.93,0,.09,0,.19-.04.25.06.05,0,.1,0,.16,0,.16-.13.32-.09.49-.03.04,0,.07,0,.11,0,.58-.05,1.17-.08,1.75.03h.31c.25-.14.52-.05.78-.05.49,0,.98.02,1.48-.02.07,0,.14-.02.18.06.25,0,.51,0,.76.01.03,0,.05,0,.08,0,.86,0,1.72,0,2.58,0,.21-.02.43-.04.64,0,.04,0,.08,0,.12,0,.07,0,.15,0,.22,0,.04,0,.08,0,.13,0,.03,0,.06,0,.08,0h.13c.07-.03.15-.03.22,0,.04,0,.09,0,.13,0,.03,0,.05,0,.08,0,.09,0,.18,0,.28,0,.05,0,.09,0,.14,0,.3-.02.6-.04.9.02.4-.04.8-.08,1.2.03.34.02.68.03.97.26.42.33.53.81.67,1.26.24.79.41,1.6.61,2.4.24.94.49,1.89.73,2.83.3,1.16.61,2.33.92,3.49.07.25.11.51.18.76.1.33-.14.35-.39.32Z"/>
      <path class="cls-10" d="m56.94,39.44s0-.09,0-.13c.16-.54.03-1.08.05-1.62,0-.35,0-.71,0-1.06.02,0,.04,0,.06,0-.02,0-.04,0-.06-.01,0-.04,0-.08,0-.11.02,0,.04-.01.06-.02-.02,0-.04,0-.06-.01,0-.24-.01-.47-.02-.71,0-.03,0-.06,0-.09,0-.12.02-.23.03-.35.02,0,.04-.02.06-.03-.02,0-.04-.02-.06-.03,0-.03,0-.06,0-.09.02,0,.04-.02.06-.03-.02,0-.04-.02-.06-.03,0-.33,0-.65,0-.98,0-.07-.01-.15-.02-.22,0-.11,0-.22,0-.32,0-.08,0-.16,0-.24,0-.06,0-.12.01-.18,0-.06,0-.11-.01-.17.03-.23.08-.46.1-.7.02-.25.15-.35.38-.34.54.03,1.07-.03,1.6-.04.53-.01,1.06.05,1.59.01.53-.04,1.08-.05,1.62,0,.45.05.92-.03,1.38-.05.23.11.46.06.69.01.07,0,.14,0,.21,0,.27.11.56,0,.84.04.39,0,.79,0,1.18,0,.21-.01.42.06.63-.04.09,0,.19.01.28.02.4.03.79.1,1.19-.01.09,0,.18-.02.27-.02.12.03.25.08.37.08.88,0,1.76.03,2.64.05.4.01.74.04,1.05.3.01.02.02.04.03.05-.05.13.04.24.05.36,0,.09,0,.18,0,.28,0,.02,0,.05,0,.07,0,.09,0,.19,0,.28-.04.12-.04.24.02.36,0,.07-.02.14-.03.2-.01.02-.01.04,0,.06,0,.07,0,.14,0,.21-.13.58-.09,1.17-.01,1.75,0,.09,0,.18,0,.27,0,.03,0,.06,0,.09,0,.72,0,1.43.01,2.15-.04.07-.06.15-.02.23,0,.11,0,.22,0,.33-.16.31-.11.62,0,.93,0,.04,0,.08.01.12,0,.03,0,.06,0,.09,0,.04-.01.08-.02.12,0,.03,0,.06,0,.09,0,.09.01.17.02.26-.03.05-.03.11,0,.16,0,.09-.01.17-.02.26,0,.03,0,.06,0,.09,0,.41,0,.82,0,1.24,0,.03,0,.06,0,.09-.01.28-.02.55-.03.83-.14.54-.01,1.08-.06,1.62-.01.13-.09.3.09.4,0,.07,0,.14,0,.21-.07.09-.06.19-.03.29,0,.13-.01.27-.02.4-.03.03-.03.06,0,.09,0,.08,0,.17,0,.25-.06.1-.04.2,0,.3,0,.09,0,.18,0,.27,0,0-.02.02-.02.03,0,.02.02.04.03.05,0,.04,0,.09,0,.13-.06.05-.04.1,0,.15,0,.14,0,.27,0,.41,0,.05,0,.1,0,.16,0,.11-.01.22-.02.33-.04.06-.03.11,0,.16-.01.2-.02.4-.03.61.01.05.02.11.04.16,0,.07,0,.13,0,.2-.18.18-.17.36-.01.55,0,.14,0,.28,0,.41,0,.05,0,.11,0,.16.01.22.06.45,0,.67-.02.03-.02.07.01.1,0,.16,0,.31.01.47-.04.1-.07.2,0,.3,0,.06,0,.13,0,.19,0,.01-.01.02-.01.03,0,.02.02.04.03.06,0,.49-.02.97-.02,1.46-.13.44-.14.88,0,1.32,0,.05-.01.1-.02.15-.02.01-.03.02-.05.04.02,0,.03.01.05.02,0,.05,0,.1,0,.15-.14.35-.09.7,0,1.05,0,.04,0,.08,0,.13,0,.03,0,.06,0,.09,0,.16,0,.32,0,.47,0,.03,0,.06,0,.09-.05.3.03.6-.04.9-.04.28-.1.56.03.84.03.07.03.14,0,.21-.13.21-.11.42-.01.63,0,.05,0,.09.01.14-.08.11-.06.24-.06.37,0,.53,0,1.07,0,1.6-.1.12-.19.23-.29.35-.4-.02-.8-.02-1.2.05-.04,0-.08,0-.12,0-.06-.06-.14-.07-.23-.07-1.21,0-2.42.01-3.63.02-.51,0-1.03,0-1.54,0-.12-.06-.25-.05-.37-.05-.59,0-1.18,0-1.77,0-.66,0-1.31-.05-1.97.05-.21.03-.43-.09-.64,0-.03-.06-.08-.08-.15-.08-1.28.07-2.55,0-3.83,0-.14-.16-.34-.29-.32-.55,0-.03,0-.06,0-.09,0-1.04,0-2.08.01-3.13,0-.03,0-.06,0-.09,0-.34,0-.69,0-1.03.02-.08.06-.17-.05-.22-.05-.1.08-.17.05-.27,0-.03,0-.06,0-.08,0-.23,0-.46,0-.69,0-.05,0-.1,0-.15,0-.16.01-.32.02-.49.02-.05.03-.09,0-.14,0-.16,0-.33-.06-.48.04-.01.06-.04.05-.08,0-.07,0-.13,0-.2,0-.03,0-.06,0-.08,0-.44,0-.88.01-1.32.06-.02.07-.05,0-.07,0-.04-.01-.09-.02-.13,0-.03,0-.06,0-.09,0-.04,0-.09,0-.13.05-.59.13-1.17.04-1.76,0-.04,0-.07,0-.11.03-.1.03-.2-.03-.3,0-.09,0-.18,0-.26,0,0,.02-.02.02-.03,0-.02,0-.04-.02-.06,0-.23,0-.46,0-.68.03-.03.03-.06,0-.09,0-.06,0-.13,0-.19.07-.05.06-.1.02-.16,0-.25,0-.5,0-.75,0-.03,0-.06,0-.09,0-.11,0-.22,0-.33,0-.03,0-.06,0-.09,0-.37.02-.73.03-1.1,0-.03,0-.06,0-.09,0-.35.01-.69.02-1.04.02-.02.03-.03.05-.05l-.05-.02c0-.7-.02-1.39-.02-2.09,0-.03,0-.06-.01-.09.02-.11.04-.22,0-.32,0-.08,0-.16,0-.24.07-.65.02-1.29.02-1.94,0-.03,0-.05,0-.08,0-.46.01-.92.02-1.39.02-.02.03-.04.05-.05l-.05-.03Zm15.65,19.09h0s.03-.03.05-.04c-.02,0-.03-.02-.05-.02-.01-.02-.02-.04-.02-.06,0-.03,0-.06,0-.09,0-.06,0-.13.01-.19,0-.03,0-.05,0-.08,0-.28,0-.55,0-.83-.01-.03-.02-.06-.03-.09,0-.06,0-.13,0-.19,0-.03.01-.06.02-.09,0-.06,0-.13,0-.19,0-.05,0-.11,0-.16,0-.04,0-.08,0-.12,0-.08,0-.15,0-.23.03-.46.06-.93.02-1.39.03-.04.05-.09,0-.14,0-.16,0-.32,0-.48,0,0,.02-.02.02-.02,0-.02-.02-.03-.03-.05,0-.32.01-.65.02-.97.05-.03.04-.06,0-.09,0-.15,0-.31,0-.46.03-.03.04-.06.01-.09,0-.11,0-.22,0-.33,0-.03,0-.06.01-.09-.03-.41.05-.83-.03-1.24.05,0,.11,0,.12-.07.01-.05-.02-.07-.07-.08-.01-.04-.02-.08-.04-.12,0-.06,0-.12,0-.18.01-.37.02-.73.03-1.1,0-.05,0-.1-.01-.15,0-.16.01-.32.02-.48,0-.02-.01-.05-.02-.07,0-.07,0-.13,0-.2.02-.19.03-.39-.01-.58,0-.09,0-.18,0-.26v-.16c0-.11,0-.22,0-.33v-.09c0-.56,0-1.11.01-1.67,0-.03,0-.05,0-.08,0-.32,0-.65,0-.97.02-.05.01-.1-.02-.15,0-.16,0-.32,0-.47,0-.03,0-.06,0-.09,0-.37,0-.75,0-1.12,0,0,.02-.01.02-.01,0-.01-.01-.03-.02-.04.01-.07.02-.14.04-.21.04-.17.04-.33-.03-.5,0-.09,0-.18.01-.27,0-.03,0-.06,0-.09,0-.18,0-.36,0-.54,0,0,.02-.02.02-.02,0-.02-.02-.03-.03-.05,0-.07,0-.14,0-.21,0,0,.02-.01.02-.02-.01-.01-.02-.03-.04-.04-.07-.61.03-1.22,0-1.83.05-.04.06-.09.03-.14v-.4c0-.06,0-.12,0-.17,0-.05,0-.11,0-.16,0-.06.01-.12.02-.18,0-.04,0-.07,0-.11,0-.06,0-.12,0-.17,0-.2,0-.4,0-.6,0-.03,0-.06-.01-.09,0-.08,0-.16,0-.25.09-.27.05-.54.01-.81,0-.08.01-.17.02-.25,0-.05,0-.1,0-.16v-.12s0-.06,0-.09c-.01-.06-.02-.13-.03-.19,0-.03,0-.06,0-.09,0-.04,0-.08.01-.12.06-.14.05-.29,0-.43,0-.04,0-.08,0-.12.04-.06.02-.11-.04-.14,0-.05,0-.1,0-.15.07-.04.06-.1.04-.16,0-.15,0-.31.01-.46,0-.05,0-.1,0-.16,0-.09,0-.17-.01-.26.02-.04,0-.06-.04-.07-.07-.11-.17-.13-.3-.13-.51,0-1.02,0-1.53-.02-.56-.04-1.11-.07-1.68-.06-1.42.03-2.83-.01-4.25,0-.44,0-.89-.07-1.33.05h-.41c-.3-.13-.61-.03-.92-.04-.04,0-.09,0-.13,0-.33,0-.67-.04-1-.01-.35.02-.7-.09-1.04.06-.27,0-.55,0-.82,0-.49-.12-.99-.04-1.48-.05-.08-.02-.14.04-.2.07-.06-.02-.12-.02-.14.06h0c-.11.06-.05.14-.04.22,0,.09,0,.17,0,.26,0,.03,0,.06,0,.09v.26c0,.08,0,.15,0,.23,0,.04,0,.08,0,.12,0,.03,0,.06,0,.09,0,.04,0,.08,0,.12-.05.18-.02.36-.07.54-.04.13-.1.32.07.44,0,.3-.06.6,0,.9-.04.07-.04.15-.02.22,0,.09,0,.19,0,.28l-.02.02v.03c.01.19.02.39.03.58,0,.05.01.1.02.15-.03.48-.03.97,0,1.45v.08c0,.18,0,.36,0,.55-.02.13-.06.25-.07.38-.01,1.09-.02,2.17-.03,3.26-.03.21-.02.42.03.63,0,.08.01.15.02.23v.12s0,.06-.01.09c0,.08.02.16.03.25,0,.08-.01.16-.02.24,0,.06,0,.12,0,.19,0,.03,0,.06,0,.09,0,.04,0,.08,0,.12-.04.08-.02.15,0,.23,0,.09,0,.17,0,.26,0,.03,0,.06.01.09,0,.09,0,.18,0,.26,0,.05,0,.11,0,.16,0,.23,0,.45,0,.68-.04.07-.05.15-.02.23v1.52c-.08.24-.18.47-.02.71.05.75-.08,1.5-.02,2.25.05.57,0,1.15,0,1.73-.04.05-.05.1-.02.15v.12s0,.06,0,.09c0,.13.01.26.02.39,0,.03-.02.06-.03.09,0,.41.01.83.02,1.24,0,.05-.01.11-.02.16,0,.06,0,.13,0,.19-.03.05-.02.11,0,.16,0,.07-.01.13-.02.2-.17.36-.04.73-.07,1.1,0,.1-.06.23.09.3,0,.12,0,.24.01.36-.18.18-.16.36-.01.55,0,.05-.01.1-.02.14-.12.12-.15.24.03.34,0,.05,0,.09,0,.14-.03.05-.04.1-.02.16-.02.84-.05,1.67,0,2.51-.09.26-.22.53.04.77,0,.02.02.03.03.05.04.22.2.14.33.13.7-.06,1.41-.01,2.11-.01,1,0,2,.06,3.01-.01.13,0,.26,0,.39,0,.03,0,.06,0,.08-.01.17,0,.35,0,.52.01,1.01,0,2.02.02,3.03.02h.07c.51,0,1.02,0,1.54,0,.05,0,.09,0,.14-.01.53,0,1.07,0,1.6,0,.03,0,.05,0,.08,0,.11,0,.23,0,.34-.01.12.04.24.06.36,0,.05,0,.09,0,.14,0,.04.03.09.03.14,0,.37,0,.75,0,1.12,0,.13.05.2,0,.2-.14.02-.44.04-.87.06-1.31,0-.03,0-.06-.01-.09,0-.25,0-.5,0-.75,0-.05,0-.11,0-.16,0-.06,0-.13,0-.19-.01-.05-.03-.1-.04-.15.07-.23.04-.46.04-.69l.02-.08Z"/>
      <path class="cls-10" d="m43.21,20.86c.05-.2.28-.08.37-.21.05,0,.1-.01.14-.02.06.02.11.02.15-.03.04,0,.08,0,.12,0,.66.08,1.31,0,1.97.03.04,0,.09,0,.13,0,.21.15.55,0,.69.31.01.01.02.03.03.05,0,.1-.05.21.06.29,0,.05,0,.09,0,.14-.12.21-.12.42,0,.63-.01.16-.07.32,0,.49-.05.09-.08.19,0,.29,0,.16-.02.32-.02.49-.02.01-.04.02-.07.04.02,0,.03.02.05.03.05.19-.06.41.11.58.26.11.52.02.78.01.03,0,.06-.07-.01-.09,0-.28.02-.56.02-.84.09-.09.08-.19.02-.29,0-.06.01-.13.02-.19,0-.03,0-.06,0-.09,0-.04,0-.08-.01-.12,0-.03,0-.06.01-.09,0-.18,0-.36,0-.54,0-.07,0-.15.01-.22-.04-.46.08-.65.57-.85.35-.01.71.05,1.06-.01.07,0,.13-.02.2-.03.12.06.23.08.35,0,.02,0,.05-.01.07-.02.21.07.42.06.64.05.07,0,.13,0,.2,0,.47.04.93.08,1.39-.02.07,0,.14.02.22.03.05.03.1.03.15-.02.07,0,.14,0,.22-.01.23.12.45.04.68,0,.05,0,.1,0,.15,0,.22.11.47.03.7.1.52.22.36.68.4,1.08,0,.08,0,.15,0,.23,0,.06,0,.13,0,.19,0,.03,0,.06,0,.09,0,.11.02.23.02.34-.07.06-.06.14-.04.22,0,.25,0,.5,0,.75,0,.03,0,.06.01.09.01.25-.05.51.03.76,0,.03,0,.05,0,.08,0,.18-.02.36-.03.54,0,.03,0,.06,0,.09,0,.16,0,.31.01.47,0,.03,0,.06,0,.09,0,.04,0,.08,0,.12,0,.03,0,.06,0,.09,0,.11,0,.22-.01.33-.12.28-.19.56.01.84-.01.52-.36.7-.8.79-.9.17-1.75.51-2.64.7-.94.21-1.84.51-2.77.74-.44.11-.75-.13-.76-.57,0-.13,0-.26,0-.38-.01-.03-.03-.06-.04-.08,0-.09,0-.18.01-.26,0-.03,0-.06,0-.09,0-.04,0-.08,0-.12,0-.03,0-.06-.01-.09,0-.18-.02-.37-.02-.55.05-.07.04-.14,0-.21.05-.25,0-.51,0-.76.04-.02.04-.05,0-.07,0,0,0,0,0,0-.05-.11-.1-.08-.15,0-.16,0-.32,0-.48,0-.13-.09-.25-.14-.25.1,0,.06,0,.12-.01.18-.05.14-.02.29,0,.44,0,.09,0,.18,0,.26,0,.03,0,.06,0,.08,0,.11.01.22.02.33,0,.05,0,.11,0,.16,0,.16,0,.31,0,.47.02.17-.12.33-.02.5.07.61-.2.74-.72.76-.61.02-1.22.02-1.84-.02-.32-.02-.65.05-.97-.05-.16-.05-.26-.12-.34-.31-.44-.98-.99-1.86-2.05-2.34-.53-.24-1.07-.39-1.63-.44-.26-.02-.55.03-.82.04-.44.01-.65-.39-.57-.72.12-.55.32-1.09.44-1.64.16-.75.45-1.46.61-2.21.09-.42.12-.97.75-1.04.37-.02.75.03,1.11-.05.16,0,.32.01.49.02.03.04.06.03.08,0,.04,0,.09,0,.13,0,.02.01.05.03.08.04,0,0,.02,0,.02,0,.09.02.18.03.26.05.2.04.29.17.31.36.09.13.07.28.07.44-.01.61-.05,1.22,0,1.83,0,.02,0,.05,0,.07-.03.66.06.72.7.55.21-.06.18-.19.18-.31,0-.27-.02-.53.01-.8.06-.1.04-.2.02-.31,0-.22,0-.45,0-.67,0-.05-.02-.11-.02-.16,0-.16.02-.31.02-.47,0-.03,0-.06,0-.09,0-.09,0-.18.07-.26Zm-4.31,2.37h0c-.16.21-.16.46-.2.7-.14.48-.28.95-.42,1.43-.1.34.04.52.4.51.17,0,.35-.09.51-.05.46.11.95.1,1.4.27,1.12.41,1.96,1.11,2.46,2.22.11.24.12.64.52.68.38.02.75.08,1.12-.02.47,0,.94,0,1.41-.01.14,0,.29,0,.31-.19.07-.33.03-.67,0-1,0-.2,0-.41,0-.61,0-.03,0-.06,0-.09v-.26s0-.06.01-.08c0-.11,0-.22-.01-.34,0-.08,0-.15,0-.23.05-.15.05-.34.23-.42.05-.02.09-.05.14-.07.05,0,.09-.02.14-.02.3.09.6.04.9.03.07.03.14.05.21.08.09.32.05.67.04.98-.03.61.03,1.22-.03,1.82,0,.1-.06.25.14.25.04.03.09.06.13.09.05.08.1.08.14,0,.24-.04.5,0,.72-.13.23-.13.48-.19.74-.16.05.01.06-.01.06-.06h0c.15-.1.34-.02.49-.14.1-.01.16-.12.28-.1.03,0,.06,0,.09-.01.06-.02.13-.03.19-.05.11,0,.21-.03.3-.09.9-.23,1.81-.46,2.71-.68.04.01.07,0,.08-.03.02,0,.04-.02.05-.03.24-.1.16-.3.14-.48v-.2s0-.04.01-.07c0-.09,0-.19-.01-.28.04-.09.04-.19,0-.28,0-.42,0-.85,0-1.27.06-.06.07-.13,0-.2,0-.04,0-.09.01-.13.05-.03.04-.06,0-.08,0-.16,0-.32.01-.48.03-.07.04-.15,0-.22,0-.13,0-.26.01-.39.06-.44,0-.88.02-1.32.05-1.09.1-1.04-1.1-.99-.02,0-.05,0-.07-.01-.02-.05-.04-.07-.08-.01-.02,0-.04,0-.06.01-.34,0-.67-.02-1.01-.02-1.19-.01-2.38.04-3.58-.04-.21-.02-.37.1-.33.36,0,.13,0,.26-.01.39-.05.08-.04.15,0,.23,0,.28,0,.56,0,.83-.02,0-.04.02-.06.03.01.01.02.02.03.04,0,.37,0,.75,0,1.12-.06.11.07.26-.07.36-.35.1-.71.03-1.06.06-.26.02-.45-.04-.57-.27,0-.07,0-.15,0-.22,0-.11,0-.22,0-.34.1-.54.12-1.08.01-1.62,0-.07,0-.14,0-.2.03-.12.03-.24,0-.36v-.13s0-.07-.05-.09c-.2-.17-.44-.11-.66-.12-.19-.14-.41-.03-.61-.03-.46-.01-.92-.11-1.38.04-.06.04-.11.08-.17.13-.1.09-.14.2-.13.34.02.5.04,1,.05,1.49,0,.06,0,.13,0,.19-.04.1-.05.2-.01.3,0,.21,0,.41.01.62-.02.02-.03.05-.05.07-.02.02-.05.05-.07.07-.43.15-.89-.02-1.33.08h-.02s-.08-.06-.12-.09c-.05-.22-.05-.45-.05-.68,0-.03-.01-.06-.02-.08v-.62s.01-.06.01-.09c0-.13.01-.27.02-.4.02-.06.02-.11-.02-.16,0-.06.01-.13.02-.19-.01-.03-.02-.06-.03-.09.01-.06.02-.12.04-.18,0-.03,0-.06,0-.1,0-.03,0-.06,0-.09,0,0,.02-.01.02-.02,0,0-.02,0-.02,0-.01-.44-.09-.51-.52-.5-.2,0-.39,0-.59,0-.36-.14-.72-.08-1.08,0-.13.05-.25.12-.28.27-.1.55-.29,1.07-.43,1.61,0,.03,0,.06,0,.08-.02.06-.04.13-.05.19,0,.03-.02.05-.03.08Z"/>
      <path class="cls-10" d="m84.33,29.46c-.25.02-.5.05-.75.05-.38.01-.59-.33-.57-.9.1-.06.07-.14.03-.22,0-.37,0-.73,0-1.1,0-.03,0-.06,0-.09,0-.21-.02-.42.01-.62.04-.32-.07-.46-.4-.41-.11.02-.23,0-.35,0-.06-.01-.12-.02-.1.08,0,.04,0,.07,0,.11,0,.12-.24.23,0,.35,0,.37-.01.74-.02,1.12,0,.03,0,.06,0,.09,0,.16.01.31.02.47,0,.05-.02.11-.03.16-.01.24.02.49-.16.69-.02.02-.04.04-.06.06,0,0,0,0,0,0-.24.17-.51.01-.76.08-.11-.12-.31-.02-.42-.15-.28-.18-.58-.24-.91-.2-.14-.05-.27-.1-.41-.15-.61-.26-1.24-.49-1.91-.56-.24-.02-.42-.25-.68-.14-.05-.02-.09-.04-.14-.06-.26-.16-.54-.18-.84-.14,0,0-.01,0-.01,0-.16-.12-.32-.24-.47-.36,0-.09-.02-.17-.03-.26,0-.06,0-.11-.01-.17,0-.13,0-.26.01-.4.02-.1.05-.21-.02-.3,0-.04-.01-.08-.02-.12.09-.06.1-.13.05-.22,0-.44-.01-.88-.02-1.32.13-.47.1-.94.01-1.41,0-.3,0-.61.01-.91.09-.11.07-.23.04-.36,0-.09,0-.17-.01-.26.04-.17.03-.34.01-.51,0-.04,0-.08,0-.12.04-.07.03-.15.01-.22.13-.27.35-.37.64-.36.45.02.89-.05,1.34.04.02,0,.05-.04.07-.07.32.03.64.06.97,0,.94,0,1.88.02,2.82.03.74,0,.87.2.93.94.02.2,0,.39,0,.59.04.1-.22.17-.03.29,0,.07,0,.13.01.2,0,.03,0,.06.01.09,0,.18-.02.36-.03.54,0,.03,0,.06,0,.09,0,.13,0,.27,0,.4-.03.06-.04.11.02.16,0,0,0,.02,0,.02.02.04.05.05.09.03.16.1.33.08.5.04.12-.03.19-.07.19-.22,0-.52.11-1.03.07-1.55.12-.42.02-.84.05-1.27.04-.24.32-.15.43-.3.24.04.47.07.69-.05.05,0,.11,0,.16,0,.01.03.03.03.03,0,.49,0,.97,0,1.46,0,.59.01.78.22.86.91-.06.03-.06.05,0,.08,0,.25-.01.5-.02.75,0,.03,0,.06,0,.09,0,.09,0,.18,0,.28-.16.07-.14.16-.04.27,0,.24.02.49,0,.73-.02.22.05.31.28.31.59.02.59.03.6-.75,0-.08,0-.15,0-.23,0-.02.01-.04.02-.07.02,0,.04-.02.06-.03l-.06-.03s-.02-.04-.02-.07c.03-.15.04-.3,0-.45-.1-.38-.02-.78-.02-1.16,0-.36.37-.63.78-.64.52-.01,1.05-.01,1.57,0,.46.01.66.19.78.62.28.98.56,1.96.79,2.96.08.36.18.72.32,1.07.22.57-.03.9-.68.96-.5.05-1.01-.02-1.5.11-.16,0-.35-.07-.43.16-.02,0-.03.02-.04.03-.16.04-.33.06-.43.22,0,0-.02,0-.02,0-.04,0-.06.02-.06.06,0,0,0,0,0,0-.11-.02-.16.05-.2.14-.73.43-1.16,1.1-1.5,1.84-.07.16-.2.3-.25.47-.05,0-.11,0-.13.06,0,0-.02.01-.02.01-.74,0-1.48.01-2.22.02Zm-2.45-5.16v-.02c0-.52,0-1.03-.05-1.55.06-.22-.06-.44.04-.66.02,0,.04,0,.06,0-.02,0-.04,0-.06,0,0-.11.02-.24-.02-.34-.09-.2.11-.52-.24-.61-.07-.08-.17-.07-.26-.07-.64,0-1.27,0-1.91.01-.05,0-.09,0-.14,0-.83,0-1.67-.02-2.5-.02-.17,0-.37-.11-.52.06-.13.01-.27.02-.4.03-.04,0-.14-.03-.07.08-.05.12-.05.25-.03.38,0,.03,0,.06,0,.09-.01.48-.03.97-.04,1.45,0,.08,0,.15,0,.23,0,.07-.01.13-.02.2,0,.03,0,.05,0,.08,0,.06,0,.13,0,.19-.05.42-.17.84,0,1.27.01.04.02.08.04.12-.09.12-.06.25-.02.38v.11c-.04.1-.05.21,0,.31,0,.11-.01.22-.02.34-.1.05-.1.1,0,.14,0,.02,0,.05,0,.07-.02,0-.03.01-.05.02.02.02.03.03.05.05,0,.02,0,.05,0,.07-.11.14-.12.28-.01.42,0,.09,0,.18.01.27.01.13.12.18.22.19.61.1,1.2.29,1.8.43.63.17,1.28.3,1.9.51.63.21,1.25.43,1.93.39.21-.04.22-.21.22-.37,0-.29,0-.59-.07-.88.1-.13.07-.28.08-.43,0-.37,0-.74.02-1.11,0-.15.05-.33.23-.34.37-.02.74-.02,1.11,0,.11,0,.18.09.2.21-.01.05.01.07.06.07,0,.05.02.1.02.14-.16.23-.14.46,0,.69,0,.05,0,.1-.01.15-.02,0-.04.02-.06.02.02,0,.04.01.06.02,0,.03,0,.06,0,.09-.06.28-.16.56,0,.83,0,.09,0,.18,0,.27,0,.05,0,.1.01.16v.12c-.06.08-.04.15-.02.23-.02.1.01.19.08.27,0,.01-.01.02-.01.03,0,0,.02.02.02.02.18,0,.36.06.53-.02.09,0,.18,0,.27,0,.08.05.15.05.22,0,.07,0,.14,0,.21,0,.18.14.38.04.57.05.35,0,.7.09,1.05-.04.32-.33.39-.8.66-1.17.38-.52.82-.96,1.32-1.33.21-.16.44-.32.72-.38.68-.14,1.36-.24,2.05-.21.29.01.39-.13.34-.38-.12-.56-.25-1.13-.42-1.68-.17-.54-.26-1.1-.43-1.64-.13-.41-.12-.87-.48-1.19-.18-.11-.38-.07-.57-.06-.46.03-.92-.11-1.38.06-.26.18-.14.46-.19.7-.12.49-.12.98-.03,1.47,0,.37.07.75-.08,1.11-.46.03-.92.04-1.38.01-.27-.18-.09-.46-.16-.69,0-.06,0-.11,0-.17.01-.07.02-.13.03-.2.02-.08,0-.15-.05-.21.07-.44.02-.88.03-1.31,0-.08,0-.15,0-.23.02-.2.04-.39-.21-.46-.05-.08-.13-.08-.21-.08-.72-.02-1.44.05-2.16-.04-.07,0-.08.07-.1.12-.16.05-.24.14-.21.33.03.19.04.38.05.57-.09.09-.05.19-.01.29-.01.28-.02.55-.03.83-.13.09-.12.18,0,.28,0,.2,0,.39.02.59.01.19-.04.33-.23.4-.44-.07-.91.12-1.34-.13Z"/>
      <path class="cls-10" d="m73.15,30.21c-.19.28-.03.56,0,.84-.19.02-.29.17-.43.27-.16,0-.32.01-.48.02-.04,0-.09,0-.13,0-.28-.1-.56-.05-.85,0-.44,0-.88,0-1.32-.01-.05-.09-.14-.07-.22-.07-.53,0-1.06,0-1.59,0-1.7,0-3.41-.02-5.11,0-.4,0-.8-.1-1.19.08-.77-.13-1.55-.02-2.32-.05-.57-.02-1.14-.01-1.71,0-.62.01-.74-.2-.8-.77-.09-.82-.34-1.56-1.11-2.02-.21-.12-.33-.34-.48-.52-.01-.05-.02-.09-.03-.14,0-.04,0-.08-.01-.11,0-.39.01-.78,0-1.17-.02-.62.06-1.24-.03-1.85,0-.07-.01-.14-.02-.2,0-.02.01-.05.02-.07,0-.07,0-.14-.01-.21,0-.03,0-.06,0-.08,0-.06,0-.13,0-.19,0-.03,0-.06-.01-.09,0-.13.01-.27.02-.4,0-.05,0-.1,0-.15,0-.62,0-1.25,0-1.87,0-.5.2-.75.64-.79.05,0,.1-.01.14-.02.23-.01.47-.02.7-.03.07.05.14.06.2,0,.14,0,.28,0,.43,0,.12.09.23.04.34,0,.12,0,.23,0,.35.01.03.04.05.04.07,0,.05,0,.09,0,.14,0,.19.09.38.07.57,0,.25,0,.5-.04.75.01.1.06.2.04.29-.02.49,0,.98-.01,1.46-.02.03,0,.05,0,.08,0,.04,0,.08,0,.13,0,.09,0,.19.01.28.02.17,0,.33.01.5.02.07.05.14.05.21,0,.04,0,.08,0,.13,0,.04.06.09.06.15.02.09,0,.18-.01.27-.02.12.05.24.07.36.01.06,0,.13-.01.19-.02.65.09,1.31.03,1.97.04.14,0,.28,0,.41,0,.63.05,1.26-.09,1.89.08.1.03.21,0,.28-.09.05,0,.09,0,.14,0,1.19.03,2.38.06,3.57.09.28-.08.56.05.83,0,.02,0,.05,0,.07-.01.05-.01.09-.02.14-.03.2.05.41.06.61,0,.05,0,.1,0,.16,0,.11.01.23.02.34.03.11.02.23.04.34.07.1.05.09.21.21.24.01.09.01.19.08.27,0,.03,0,.05,0,.08,0,.11,0,.23,0,.34,0,.05,0,.1,0,.15,0,.35,0,.69,0,1.04,0,.03,0,.05,0,.08,0,.14,0,.27,0,.41,0,.03,0,.06,0,.09,0,.14-.01.28-.02.41,0,0,0,.02,0,.02,0,.02.01.03.02.04,0,.05,0,.09,0,.14-.16.23-.02.47-.03.7,0,.07,0,.14.01.21-.02.05-.05.11-.05.16,0,.95,0,1.9,0,2.85-.17.24-.32.5-.63.57-.21.06-.15.27-.23.41-.38.03-.35.39-.5.61-.21.12-.15.33-.18.51l-.02.13Zm-10.7.68h.35c.14,0,.28,0,.42,0,.03,0,.05,0,.08,0,.09,0,.19-.01.28-.02.35,0,.69.23,1.05.03.23,0,.47-.01.7-.02.09.2.18-.03.28,0,.15,0,.3,0,.45,0,.75.03,1.49-.03,2.24.06.31.04.64.09.94-.09.15.01.3.03.45.03.89,0,1.79,0,2.68.03.31.01.4-.09.36-.37.06-.55.21-1.07.5-1.54.07-.11.14-.23.21-.34.09-.04.15-.1.09-.21.11,0,.24.02.24-.15.48-.24.66-.59.65-1.15-.03-1.66.02-3.31.03-4.97,0-.06,0-.12,0-.17,0-.11,0-.22,0-.32.04-.08.04-.15,0-.23,0-.14,0-.29-.17-.35-.03-.09-.09-.09-.17-.09-.72-.01-1.43-.02-2.15-.04-.04,0-.08,0-.13,0-.08,0-.16,0-.23,0-.07,0-.13-.02-.2-.03-.33,0-.65.01-.98.02-.07,0-.13,0-.2,0-.05,0-.1,0-.15,0h-.13c-.17-.05-.34-.04-.51,0-.04,0-.08,0-.12,0-.19-.03-.38-.05-.58,0-.05,0-.09,0-.14,0-1.02,0-2.05,0-3.07,0-.24,0-.47,0-.71,0-.68-.12-1.38-.06-2.06-.06-.3,0-.62-.1-.92.06-.35-.02-.71.04-1.06-.06-.12,0-.25-.04-.37-.02-.3.06-.61-.09-.89.06-.72,0-1.45,0-2.17,0-.41-.09-.83-.08-1.24,0-.44-.03-.35.29-.36.55-.05.1-.07.19,0,.29,0,.23,0,.46,0,.69-.07.09-.05.19-.03.29,0,.04.01.08.02.12,0,.03,0,.06,0,.09-.02.02-.03.05-.05.07-.02,0-.03,0-.05.01.01.02.03.03.04.05,0,.2.13.37.08.58-.12.1-.07.22-.04.34,0,.32,0,.64,0,.96-.05.03-.06.06,0,.09,0,.09,0,.17,0,.26-.03.02-.04.05-.02.09,0,.04,0,.08,0,.12,0,.01-.01.02,0,.03,0,.02.01.04.02.06,0,.04,0,.08,0,.13,0,.03,0,.06-.01.09,0,.06.01.12.02.19-.04.02-.05.05-.02.09,0,.05-.02.1-.02.15-.02,0-.04.01-.06.02.02,0,.04.02.06.03,0,.05,0,.1,0,.15-.11.19-.15.38.03.55,0,.04,0,.09,0,.13,0,.03.01.06.02.09-.06.32.02.58.31.77.79.52,1.22,1.26,1.27,2.2.03.59.22.75.8.65.22-.04.47-.07.68-.05.48.06.95.02,1.42.03.47.03.94.03,1.4,0h.03s.03,0,.03,0c.21,0,.43,0,.64,0,.04,0,.09,0,.13,0Z"/>
      <path class="cls-10" d="m72.95,64.39s-.02.09-.03.14c-.04.64-.65.5-1,.7-.11.07-.26.1-.39.11-.33.03-.4.21-.31.5.02.09.1.09.16.09.42,0,.85-.01,1.27-.02.15.14.29.28.23.51-.04.08-.02.15,0,.23,0,.11,0,.23-.01.34-.16.18-.1.37-.02.56-.06.31-.32.38-.56.4-.41.04-.83.02-1.25.02-.44-.1-.88-.06-1.32,0-.07,0-.13,0-.2-.01-.24-.06-.48-.07-.72,0-.06,0-.13,0-.19,0-.6-.06-1.2-.04-1.8-.03-.64,0-1.29-.07-1.93.02-.13,0-.26,0-.39.01-.12-.1-.24-.09-.37-.03-.06.01-.13.02-.19.03-.03-.02-.06-.06-.08-.06-.76,0-1.53,0-2.29,0-.05,0-.11,0-.16,0-.72,0-1.43,0-2.15,0-.65.13-1.3-.05-1.95,0-.26.02-.52-.32-.53-.63,0-.3.02-.6,0-.9-.02-.29.1-.45.36-.54.05.03.1.03.15,0,.09,0,.18,0,.27,0,.03,0,.05,0,.08,0,.16,0,.32,0,.49,0,.09.04.18.08.27-.02.19-.39.18-.43-.21-.52-.32-.07-.62-.21-.95-.26-.31-.04-.49-.43-.44-.83.03-.28.36-.52.69-.57.68-.1,1.32-.34,1.97-.55.12-.01.23-.02.35-.03.04,0,.09,0,.13,0,.05,0,.1,0,.15-.01.09,0,.18,0,.28,0,.07.05.14.04.21,0,1.45.02,2.9.03,4.35.05.11,0,.23-.02.34.04.28.04.56.1.83-.03.05,0,.1-.02.14-.02.06.06.14.08.22.08,1.25,0,2.51,0,3.76,0,.13.1.28.06.42.08.06.13.15.18.29.11.04.01.09.02.13.03.24.12.48.26.77.2.24.06.47.14.71.19.37.08.31.41.42.64Zm-3.38-.91c-.06,0-.13,0-.19,0-.12-.08-.24-.05-.36,0-.05,0-.09,0-.14-.01-.49,0-.99-.1-1.48,0-.06,0-.13,0-.19,0-.17-.1-.34-.08-.51,0-.04,0-.09.01-.13.02-.12-.06-.24-.17-.37-.03l-.18.02c-.15-.09-.29-.09-.43,0-.07,0-.13,0-.2,0-.1-.08-.2-.04-.29,0-.04,0-.08-.01-.12-.02-.06-.1-.12-.09-.16.01-.04,0-.08,0-.12,0-.03-.05-.06-.05-.09,0h-.12c-.08-.07-.15-.07-.23,0-.13,0-.26-.01-.4-.02-.12-.05-.24-.08-.37-.02-.04,0-.08,0-.12,0-.42-.06-.84-.01-1.27-.02-.93.11-1.86.02-2.79.08-.06,0-.12,0-.17.02-.58.26-1.23.33-1.81.6-.09.04-.21,0-.19.17.01.13,0,.24.17.29.31.1.62.23.93.32.57.16.58.16.58.75,0,.46-.09.55-.56.57-.35.01-.7-.05-1.04.03-.04,0-.05.02-.05.05,0,.04-.01.07-.02.11,0,.06.01.11.02.17,0,.08,0,.17,0,.25-.19.4-.15.54.19.66.81,0,1.61.01,2.42.02.03,0,.06,0,.08,0,.79,0,1.58,0,2.37.01.09.13.18.12.28.01.07,0,.14,0,.21,0,.04.1.09.1.14,0,.05,0,.09-.01.14-.02.44.1.88.08,1.32.02.09,0,.19,0,.28.01.03,0,.07.02.1.02,1.21.01,2.41.03,3.62.03.51,0,1.02.06,1.53-.02.05,0,.09,0,.14.01.02.07.07.08.13.08.73,0,1.46,0,2.18-.11.14-.1.2-.22.19-.4,0-.25,0-.5,0-.75.02-.21-.16-.15-.26-.19-.36-.11-.71-.01-1.07,0-.24-.08-.4-.19-.3-.49.06-.16.07-.33.09-.5.01-.1.05-.21.15-.2.4.02.71-.24,1.09-.29.18-.03.3-.06.3-.28,0-.19-.03-.29-.25-.37-.46-.17-.95-.21-1.41-.38-.19-.07-.36-.21-.58-.16-.21-.21-.46-.14-.71-.08Z"/>
    </g>
  </g>
  <text class="cls-7" transform="translate(59.71 90.59)"><tspan x="0" y="0">P60ST</tspan></text>
</svg>