<?xml version="1.0" encoding="UTF-8"?>
<svg id="T80ST" xmlns="http://www.w3.org/2000/svg" viewBox="0 0 150 100">
  <defs>
    <style>
      .cls-1 {
        fill: none;
        stroke: #231f20;
        stroke-miterlimit: 10;
        stroke-width: .2px;
      }

      .cls-2 {
        font-size: 12px;
      }

      .cls-2, .cls-3 {
        fill: #231f20;
        font-family: MyriadPro-Regular, 'Myriad Pro';
      }

      .cls-3 {
        font-size: 9px;
      }
    </style>
  </defs>
  <path d="m81.27,18.82c8.42,0,16.83,0,25.25,0,1.62,0,3.24-.05,4.86,0,1.62.05,2.89.81,3.22,2.69.36,2.05.81,4.09,1.13,6.15.23,1.49.19,1.42-1.14,1.45-.83.01-1.66.02-2.47-.16-.6-.13-1.03-.93-.85-1.51.07-.21.17-.33.41-.32.19,0,.39-.02.58-.05.6-.11.73-.29.65-.9-.18-1.35-.49-2.66-.82-3.98-.05-.21-.13-.34-.38-.34-1.23.01-2.46-.02-3.7.02-1.19.04-1.67.49-1.91,1.65-.21,1.01-.16,2.02-.16,3.04,0,.42.23.52.57.55.19.01.39.06.58.02.38-.07.5.14.56.44.12.59-.37,1.33-.96,1.46-.45.1-.9.1-1.35.1-4.39,0-8.79,0-13.18,0-1.08,0-1.75.46-2.11,1.39-.15.4-.14.8-.04,1.19.2.85.42,1.69.67,2.53.22.74.19,1.51.19,2.26,0,4.77,0,9.54,0,14.31,0,.89.01.94.86,1.19.9.26,1.81.48,2.72.71.43.11.66.29.59.8-.05.38-.03.77-.08,1.16-.15,1.04-.7,1.63-1.76,1.73-.79.08-1.59.05-2.38.07-.24,0-.28-.15-.31-.34-.1-.6-.28-.76-.89-.79-1.42-.07-1.69.13-1.73,1.56-.05,1.73-.05,3.46-.03,5.19.01,1.04.24,1.27,1.29,1.47.89.17,1.69.11,2.33-.67.33-.4.74-.72,1.13-1.06.37-.33.78-.57,1.31-.53.39.03.78,0,1.17,0,.58.02.73.16.74.72,0,1.36,0,2.72.01,4.07,0,.37-.16.49-.49.5-.29,0-.58.01-.88.01-8.84,0-17.68,0-26.51,0-1.08,0-1.09,0-1.1-1.05-.01-1.05,0-2.1,0-3.15,0-.13.02-.26.04-.38q.13-.72.87-.72c.37,0,.75.03,1.12-.01.7-.09,1.16.25,1.58.73.39.43.8.85,1.21,1.26.58.57,2.39.49,2.93-.12.29-.33.43-.71.43-1.15,0-1.67,0-3.33,0-5,0-.03,0-.06,0-.1-.03-1.35-1.06-1.98-2.29-1.4-.25.12-.39.33-.48.58-.11.32-.28.44-.65.4-.71-.08-1.42.03-2.13-.13-.49-.11-.89-.37-1.28-.66-.16-.12-.21-.27-.21-.46,0-.6.03-1.2-.02-1.79-.03-.46.18-.64.57-.75.95-.25,1.9-.53,2.86-.74.34-.08.43-.19.43-.54-.01-5.19,0-10.38-.01-15.57,0-1.05.48-2,.65-3.02.11-.67.32-1.31.35-2,.05-.95-.68-1.6-1.54-1.66-.34-.02-.68-.02-1.02-.02-4.43,0-8.85,0-13.28,0-1.2,0-1.55-.31-1.72-1.44-.05-.36.09-.54.51-.57,1.23-.09,1.12.05,1.18-1.17.04-.71,0-1.42-.04-2.13-.07-1.1-.81-1.88-1.92-1.93-1.34-.06-2.69-.03-4.04-.04-.21,0-.33.09-.37.3-.21,1.44-.42,2.87-.64,4.31-.07.43.07.65.52.65.18,0,.36.03.53.03.53,0,.66.14.64.66-.04.76-.4,1.15-1.14,1.26-1.03.16-2.07.04-3.11.08-.33.01-.32-.19-.32-.41.02-.9.27-1.75.42-2.63.25-1.38.51-2.76.73-4.15.11-.68.32-1.32.64-1.92.42-.8,1.17-1.11,2.01-1.13,1.73-.04,3.47-.04,5.2-.05,6,0,12-.01,18-.02,2.4,0,4.8,0,7.2,0,0,0,0,0,0,.01Zm.02.39h0c-2.04.01-4.09.01-6.13.01-7.96,0-15.93.02-23.89,0-1.49,0-2.4.97-2.65,2.32-.32,1.75-.65,3.49-.98,5.24-.1.52-.2,1.05-.27,1.57-.03.19-.08.44.28.43.81-.02,1.62,0,2.43-.02.31,0,.61-.1.88-.26.29-.18.39-.48.35-.79-.05-.31-.34-.23-.55-.26-.06,0-.13-.03-.19-.03-.96-.14-1.07-.28-.92-1.23.21-1.39.45-2.77.65-4.16.05-.32.2-.51.53-.52,1.51-.02,3.02-.13,4.52.03.86.09,1.61.9,1.79,1.74.22,1.03.09,2.06.14,3.09.02.47-.17.72-.54.91-.21.1-.43.15-.65.18-.5.07-.61.34-.3.75.37.49.91.58,1.48.58,4.44,0,8.89-.02,13.33-.02.32,0,.65,0,.97.05,1.05.15,1.66.85,1.69,1.9.02.56-.05,1.09-.24,1.62-.62,1.78-.96,3.58-.92,5.5.1,4.61.04,9.22.05,13.82,0,.32-.11.51-.44.58-.72.17-1.44.37-2.16.57-1.28.36-1.26.04-1.24,1.63.01,1.03.37,1.44,1.4,1.62.63.11,1.26.05,1.89.08.19,0,.31-.08.37-.25.18-.58.67-.76,1.18-.88,1.24-.29,2.22.33,2.27,1.56.08,1.87.06,3.75.02,5.62-.01.67-.37,1.23-1.02,1.54-.75.36-1.55.26-2.34.21-.16-.01-.29-.14-.4-.26-.42-.45-.83-.91-1.28-1.33-.27-.25-.4-.67-.87-.7-.63-.04-1.26-.05-1.9-.02-.26.01-.44.13-.44.41,0,1.24.03,2.49.04,3.73,0,.3.12.41.45.41,5.58-.02,11.16-.03,16.74-.02,3.53,0,7.07-.06,10.6.07.34.01.47-.12.47-.45,0-1.05,0-2.1,0-3.15,0-.98,0-.96-1-1.01-.73-.04-1.38.09-1.91.64-.43.44-.89.85-1.31,1.3-.34.36-.75.5-1.22.48-.57-.02-1.12-.13-1.66-.32-.52-.18-.73-.51-.78-1.04-.19-2.07-.06-4.14-.07-6.2,0-.21.04-.42.08-.62.08-.38.3-.65.67-.76.46-.13.93-.19,1.4-.11.57.09,1.14.23,1.18.98,0,.14.08.2.22.19.76-.07,1.52.05,2.28-.11.52-.11.89-.42,1.08-.89.2-.48.23-1,.23-1.52,0-.38-.17-.59-.58-.68-1.01-.21-2.01-.49-3.02-.72-.41-.09-.55-.32-.54-.73.02-.71.02-1.42.02-2.13,0-4.24,0-8.47-.02-12.71,0-.5,0-1-.06-1.5-.17-1.14-.61-2.2-.87-3.32-.38-1.64.72-3.09,2.37-3.09,4.54,0,9.08.02,13.62.03.36,0,.72,0,1.06-.13.35-.13.63-.33.7-.73.05-.3-.03-.47-.37-.48-.29,0-.58-.03-.87-.09-.25-.05-.45-.16-.44-.48.02-1.03,0-2.07.03-3.1.01-.41.07-.83.31-1.2.46-.71,1.11-1.07,1.95-1.08,1.18-.02,2.37.01,3.55-.05.55-.03.78.17.88.66.22,1.03.45,2.05.66,3.08.08.41.22.81.19,1.24-.03.65-.29.91-.93,1.01-.25.04-.64-.07-.69.3-.04.38.24.66.55.84.25.15.55.2.84.2.45,0,.91,0,1.36,0,1.28.02,1.29,0,1.04-1.3-.38-1.97-.74-3.93-1.11-5.9-.16-.82-.49-1.53-1.26-1.97-.53-.3-1.09-.39-1.68-.39-10.02,0-20.04,0-30.07,0Z"/>
  <path d="m43.79,43.9c.1.4.07.76.07,1.11,0,2.36-.06,4.71.03,7.07.03.86-.12,1.73-.09,2.59.09,2.24,0,4.49.03,6.73,0,.35.15.43.46.46.86.07.86.08.54.89-.27.68-.53,1.35-.8,2.03-.06.16-.09.35-.32.46-.21-.54-.42-1.07-.63-1.6-.1-.25-.2-.51-.3-.77-.11-.28-.39-.58-.3-.85.13-.35.54-.12.82-.15.34-.04.36-.26.36-.51,0-1.21.02-2.42.01-3.63,0-1.5-.06-3.01-.02-4.51.07-2.97-.02-5.93.01-8.9,0-.12-.04-.26.11-.42Z"/>
  <path d="m43.68,28.3c0-1.11,0-2.21,0-3.32,0-.32-.04-.65-.03-.97.01-.42-.18-.57-.59-.54-.67.04-.65.03-.41-.6.34-.89.83-1.71,1.02-2.65.22,0,.23.17.28.29.36.85.7,1.7,1.07,2.54.13.31.16.48-.27.46-1.05-.04-1.04-.03-.92,1.01.14,1.25-.02,2.51,0,3.76h-.14Z"/>
  <path d="m48.18,15.46c.85-.51,1.68-.79,2.49-1.09.98-.37.98-.36.96.68,0,.43.02.87.02,1.3,0,.24-.06.42-.38.27-.96-.45-1.95-.82-3.09-1.16Z"/>
  <path d="m114.39,15.5c-.91.24-1.76.64-2.63.98-.62.24-.74.17-.66-.47.06-.52.02-1.03,0-1.54-.02-.26.06-.45.35-.33.95.37,1.88.76,2.82,1.14.07.03.14.09.14.23Z"/>
  <path d="m43.83,66.44c-.74,0-1.49,0-2.23,0-.21,0-.42-.03-.63-.05-.08,0-.18-.02-.17-.13,0-.09.08-.14.16-.15.19-.03.38-.07.57-.07,1.62,0,3.23,0,4.85,0,.16,0,.43-.08.43.17,0,.24-.27.24-.46.23-.84-.05-1.68-.08-2.52,0Z"/>
  <path d="m40.68,18.94c.41-.15.83-.14,1.24-.13,1.39.03,2.78,0,4.17-.02.13,0,.26-.01.39.01.13.03.32.01.3.23-.02.17-.17.18-.3.17-1.8,0-3.59,0-5.39,0-.16,0-.33-.02-.41-.26Z"/>
  <path d="m115.68,12.18c.22.17.16.38.16.56.02,1.76.03,3.52.03,5.27,0,.15.05.39-.16.4-.26.01-.21-.23-.21-.4,0-1.55,0-3.1,0-4.65,0-.4.03-.79.18-1.18Z"/>
  <path d="m110.95,15.36c-4.16.17-8.31.16-12.47,0h12.47Z"/>
  <path d="m47.23,12.22c.17.16.11.33.12.49.03,1.76.05,3.52.08,5.29,0,.17.01.39-.18.39-.23,0-.22-.26-.22-.42,0-1,.03-2,.04-3.01,0-.74,0-1.49.02-2.23,0-.17-.03-.36.15-.51Z"/>
  <path d="m64.17,15.37c-3.35.21-6.7.09-10.05.04,3.35-.03,6.7-.11,10.05-.04Z"/>
  <path d="m64.62,15.29h1.97c-.19.24-1.58.28-1.97,0Z"/>
  <path d="m88.51,43.91c0,2.64-.01,5.27,0,7.91,0,.5-.21.83-.6,1.08-.11.07-.22.14-.34.18-1.72.65-2.22,2.09-2.28,3.71-.07,1.91-.02,3.82-.02,5.72,0,1.12-.37,1.56-1.47,1.5-1.69-.09-3.37,0-5.05-.04-.1,0-.19,0-.29-.02-.72-.07-.81-.17-.82-.91,0-1.89,0-3.78,0-5.68,0-.82-.15-1.6-.41-2.37-.32-.94-.89-1.62-1.89-1.93-.62-.19-.93-.65-.93-1.32,0-5.11,0-10.22.01-15.33,0-.85.21-1.69.39-2.53.18-.85.46-1.68.5-2.56,0-.21.04-.42.11-.62.14-.4.39-.61.87-.61,3.42.02,6.84,0,10.26,0,.67,0,.89.14.92.79.05,1.48.52,2.85.93,4.24.12.41.12.83.12,1.25,0,2.51,0,5.01,0,7.52,0,0-.01,0-.02,0Zm-.32.14s-.02,0-.03,0c0-2.28-.03-4.56.01-6.84.02-1.2-.2-2.33-.57-3.47-.24-.75-.5-1.5-.52-2.3q-.02-.95-.98-.97c-.1,0-.19,0-.29,0-3,0-6,0-9,0-.16,0-.32,0-.49.02-.33.03-.5.18-.56.54-.12.73-.29,1.46-.44,2.18-.21,1.02-.57,2.01-.57,3.08.02,5.13.01,10.25,0,15.38,0,.57.17.89.71,1.09.63.22,1.17.55,1.58,1.13.77,1.07,1,2.24.97,3.52-.03,1.86.01,3.72.02,5.58,0,.34.04.54.5.55,1.59.03,3.18.04,4.76.03,1.6-.01,1.69-.08,1.62-1.68-.08-1.84-.08-3.69.06-5.52.11-1.54.65-2.95,2.33-3.53.18-.06.35-.17.52-.25.27-.12.36-.34.36-.63,0-2.64,0-5.27,0-7.91Z"/>
  <path d="m81.37,21.46c3.42,0,6.84,0,10.26,0,.4,0,.81-.01,1.21-.05.43-.04.69.12.75.55.05.35.11.7.12,1.06.02.82.04,1.65.01,2.47-.04.99-.31,1.24-1.32,1.27-.42.01-.84-.04-1.26.01-1.25.15-2.28.68-3.05,1.69-.28.37-.62.58-1.11.6-2.33.07-4.67.03-7,.04-1.25,0-2.5-.05-3.74.02-.75.04-1.26-.23-1.71-.78-.76-.91-1.71-1.5-2.94-1.58-.55-.04-1.1-.02-1.65-.11-.44-.07-.63-.28-.64-.69-.04-1.39-.04-2.78.05-4.17.02-.34.25-.31.48-.31,3.84,0,7.69,0,11.53,0,0,0,0,0,0-.01Zm.11.35s0,.01,0,.02c-1.34,0-2.69,0-4.03,0-2.45,0-4.89,0-7.34.01-.23,0-.48-.04-.48.3,0,1.23-.06,2.45,0,3.68.02.34.2.51.51.53.45.04.9.06,1.36.07.85.03,1.63.22,2.31.76.45.35.87.72,1.28,1.11.24.22.46.48.86.47.96-.03,1.91-.03,2.87-.03,2.64,0,5.28.02,7.92.03.42,0,.81-.05,1.07-.43.8-1.15,1.9-1.76,3.3-1.86.44-.03.87-.03,1.31-.07.67-.05.93-.24.95-.85.03-1.16.13-2.32-.07-3.48-.04-.22-.12-.28-.35-.28-3.82,0-7.65,0-11.47,0Z"/>
  <path d="m99.47,21.46c1.33,0,2.66,0,3.99,0,.58,0,.75.15.79.73.01.22-.02.45-.05.67-.14.88-.16,1.77-.15,2.66.01.94-.26,1.24-1.19,1.24-2.33.02-4.67.02-7,0-.9,0-1.22-.35-1.22-1.25,0-1.05,0-2.1.02-3.15,0-.83.07-.9.92-.9,1.3,0,2.59,0,3.89,0h0Zm.07.37h0c-1.2,0-2.4,0-3.6,0-.21,0-.42,0-.63.04-.16.03-.31.08-.3.3,0,1.1-.12,2.19-.06,3.29.03.63.39.96,1.03.96,2.16,0,4.31,0,6.47,0,.23,0,.45-.03.67-.08.41-.09.61-.33.61-.74-.01-1.08.06-2.16.18-3.24.05-.4-.1-.55-.52-.54-1.28.02-2.56,0-3.84,0Z"/>
  <path d="m63.49,21.45c1.33,0,2.66-.01,3.98,0,.6,0,.78.19.8.79.02,1.1.02,2.2,0,3.29-.02.86-.32,1.2-1.17,1.21-2.35.03-4.7.03-7.04,0-.95-.01-1.19-.32-1.15-1.27.03-.78-.11-1.54-.28-2.3-.05-.23-.08-.48-.08-.72,0-.73.28-1,1-1,1.31,0,2.62,0,3.93,0,0,0,0-.01,0-.02Zm.15,4.98h0c1.07,0,2.14,0,3.21-.01.83,0,1.1-.27,1.1-1.07,0-.92,0-1.84,0-2.76,0-.73,0-.75-.78-.76-2.48-.01-4.95-.02-7.43-.01-.86,0-1.06.26-.8,1.09.24.79.29,1.58.28,2.39,0,.85.14,1.01.98,1.12.18.02.36.02.53.02.97,0,1.94,0,2.92,0Z"/>
  <text class="cls-3" transform="translate(69.6 17.11)"><tspan x="0" y="0">52mm</tspan></text>
  <line class="cls-1" x1="112.73" y1="15.36" x2="94.03" y2="15.36"/>
  <line class="cls-1" x1="51.41" y1="15.36" x2="69.6" y2="15.36"/>
  <text class="cls-3" transform="translate(34.12 43.32)"><tspan x="0" y="0">36mm</tspan></text>
  <line class="cls-1" x1="43.76" y1="23.57" x2="43.76" y2="36.28"/>
  <text class="cls-2" transform="translate(59.92 87.43)"><tspan x="0" y="0">T80ST</tspan></text>
</svg>