<?xml version="1.0" encoding="UTF-8"?>
<svg id="ZTC" xmlns="http://www.w3.org/2000/svg" viewBox="0 0 150 100">
  <defs>
    <style>
      .cls-1 {
        stroke-width: .16px;
      }

      .cls-1, .cls-2, .cls-3, .cls-4 {
        fill: none;
        stroke: #000;
        stroke-miterlimit: 10;
      }

      .cls-5 {
        fill: #231f20;
        font-size: 12px;
      }

      .cls-5, .cls-6 {
        font-family: MyriadPro-Regular, 'Myriad Pro';
      }

      .cls-7 {
        letter-spacing: -.03em;
      }

      .cls-6 {
        fill: #010101;
        font-size: 9px;
      }

      .cls-8 {
        fill: #383b3c;
      }

      .cls-2 {
        stroke-width: .18px;
      }

      .cls-3 {
        stroke-width: .17px;
      }

      .cls-4 {
        stroke-width: .17px;
      }
    </style>
  </defs>
  <text class="cls-6" transform="translate(92.82 48.41)"><tspan x="0" y="0">60mm</tspan></text>
  <text class="cls-6" transform="translate(48.58 17.58)"><tspan x="0" y="0">80mm</tspan></text>
  <text class="cls-5" transform="translate(65.38 86.95)"><tspan x="0" y="0">Z</tspan><tspan class="cls-7" x="6.64" y="0">T</tspan><tspan x="12.28" y="0">C</tspan></text>
  <path class="cls-8" d="m83.73,47.22c-.07-.25-.02-.5,0-.75,0-.07,0-.14,0-.2,0-.02,0-.04,0-.06-.02-.09-.02-.19.01-.28-.13-.18-.15-.36,0-.54,0-.06-.01-.12-.02-.18-.06-.11-.04-.21.01-.31,0-.06,0-.11,0-.17-.04-.05-.05-.1-.01-.15,0-.1,0-.21-.01-.31,0-.04,0-.07,0-.11,0-.03,0-.07,0-.1-.01-.05-.02-.11-.02-.17-.03,0-.05-.02-.05-.06-.01-.22-.02-.46.04-.67-.01-.08.03-.19.02-.27,0-.03,0-.07,0-.1,0-.12,0-.25,0-.37-.06-.15-.26-.12-.33-.26-.13,0-.26-.01-.39,0-.27.03-.45-.11-.59-.32-.02-.09-.04-.17-.06-.26-.09-.05-.04-.11-.02-.17,0-.03,0-.07,0-.1-.03-.08-.03-.17-.02-.26,0-.11,0-.21-.01-.32-.12-.21-.07-.42-.01-.63h0c-.21-.27-.48-.34-.82-.33-.52.02-1.05.05-1.57.06-.93.01-1.85-.05-2.78-.03-1.11.03-2.21-.02-3.32,0-1.59.04-3.19.02-4.78.03-.82,0-1.63,0-2.45,0-.12,0-.24.15-.36,0-.04,0-.07,0-.11,0-.16.05-.31.01-.47,0-.06,0-.11,0-.17.01h-.02s-.02,0-.02,0c-.16,0-.32,0-.48,0-.6.08-1.21.02-1.82.04-.11,0-.24.06-.34-.04-.21,0-.42,0-.63,0-.36.09-.72.03-1.08.05-.39.02-.79-.01-1.18.01-.53.03-1.06-.02-1.6,0-.54.01-1.08.03-1.62.01-.2,0-.33.21-.53.13-.03,0-.07,0-.1.01-.3.17-.57.4-.95.36-.03.02-.07.04-.1.06-.04.09-.12.13-.22.16-.4.15-.8.32-1.19.49-.27.12-.34.37-.34.64,0,.27.01.54.02.81,0,.02,0,.04,0,.06.02.16.02.32,0,.48,0,.51.06,1.02.01,1.53,0,.01,0,.02,0,.03,0,0,0,.01,0,.02,0,.26,0,.53,0,.79,0,.02,0,.04,0,.05-.01.56.05,1.13-.02,1.69.03.05.04.1,0,.14,0,.11,0,.22,0,.32,0,.02,0,.03,0,.05,0,.32.01.63.02.95,0,.02,0,.04,0,.06,0,.65.04,1.3-.03,1.95-.04.35-.02.71.09,1.05.12.09.25.17.37.26.02,0,.03.01.05.01.08-.01.17-.04.22.05.02,0,.03.01.03.03.27.09.52.24.81.29.06.01.05.08.05.13.07.02.14.04.2.07.25.03.52.03.7.25.11.13.32-.01.41.17.03.02.07.04.1.06.28-.11.57-.06.85-.06.57-.01,1.14-.02,1.71-.02.13,0,.26.01.39.02.04,0,.08,0,.11,0,.4-.08.8,0,1.2-.03.04,0,.07,0,.11,0,.21,0,.42,0,.63,0,.16,0,.32,0,.47,0,.12-.03.25-.02.37,0,.07,0,.14,0,.21,0,.23-.03.46-.02.68,0,.04,0,.07,0,.11,0,.07-.02.14-.02.21,0,.05,0,.11,0,.16,0,.09,0,.17,0,.26,0,.74,0,1.48,0,2.22,0,.07-.07.16-.05.25-.05.79,0,1.59,0,2.38,0,.12,0,.25,0,.37,0,.68-.01,1.37-.04,2.05,0,.07,0,.14,0,.21,0,.59,0,1.19,0,1.78-.01.17.02.34.08.52.04.02-.05.06-.06.1-.06.75,0,1.5-.02,2.25-.02.7,0,1.39,0,2.09,0,.04,0,.07,0,.11-.01.23,0,.46,0,.69,0,.05,0,.11,0,.16,0,.53,0,1.06-.07,1.58.03.25.04.5,0,.75-.05.2-.03.38.1.6.02.27-.09.4-.25.47-.5-.01-.1-.17-.2-.02-.31,0-.26,0-.53,0-.79.05-.17-.15-.41.14-.52h.01c.03-.11.04-.23.2-.21.27-.13.57.01.84-.12.04-.06.04-.14.13-.17,0-.01,0-.02.02-.02.04-.25.02-.51.01-.76,0-.07,0-.12.03-.16-.01-.06-.02-.12-.02-.17,0-.14.02-.28.02-.43,0,0,.01-.01.02-.02,0-.18-.02-.36.01-.54,0-.31-.01-.63-.02-.94Zm-.32-.74s0,.04.01.06c-.05.24-.05.47,0,.71.03.16,0,.33,0,.49,0,.05,0,.11,0,.16,0,.2,0,.4,0,.6,0,.07,0,.14,0,.21,0,0,.01.01,0,.02-.03.19-.03.38-.04.57.04,0,.06.03.05.12.03.11.03.22,0,.32.05.43.03.47-.4.46-.12,0-.23.06-.35.04l-.1.02c-.03.18-.21.15-.32.21-.11.32-.3.63-.26.98.04.28.02.55.04.83,0,.03,0,.05,0,.08.03.25-.27.32-.33.29-.21-.1-.4-.02-.6-.03-.48,0-.96-.05-1.43-.04-.89.03-1.78-.05-2.67-.03-.48.01-.96.02-1.44.04-.98.05-1.96.02-2.93.02-.71,0-1.42,0-2.13,0h-.02s-.02,0-.02,0c-.66,0-1.31,0-1.97,0-1.19,0-2.38-.01-3.57.01-.81.02-1.62-.02-2.42.04-.13,0-.21,0-.27-.04-.03,0-.06,0-.09,0h-.24s-.06.03-.13.03c-.3,0-.61,0-.91,0-.24,0-.49,0-.73,0-.03,0-.07,0-.1,0-.04.02-.08.01-.11,0-.05,0-.1,0-.15,0-.42.08-.85.11-1.27,0-.03,0-.07,0-.1,0-.05.03-.11.02-.17,0-.03,0-.07,0-.1,0-.02.12-.11.09-.18.09-.47,0-.95.04-1.41,0-.27-.03-.53-.18-.79-.29-.38-.16-.77-.32-1.15-.48-.02,0-.04-.03-.06-.05h0c-.31-.04-.56-.25-.85-.34-.07-.02-.08-.1-.09-.17-.07-.26-.09-.51.02-.76,0-.07,0-.14,0-.21-.04-.12-.03-.25,0-.37,0-.3,0-.59,0-.89,0-.02,0-.04,0-.06-.02-.47-.05-.94,0-1.42,0-.02,0-.04,0-.06l-.06-.95c-.05-.06-.08-.12.04-.14-.01-.05-.02-.1-.03-.14h0c.05-.39-.01-.78,0-1.16,0-.2.01-.4.02-.6,0-.02,0-.04,0-.06,0-.03.01-.07.02-.1,0-.02,0-.04,0-.05,0-.1-.01-.21-.02-.31,0-.02,0-.04,0-.06l-.02-2c-.17-.16-.12-.31,0-.46-.06-.36.26-.24.41-.33.15-.14.31-.27.53-.26h0s.02-.06.06-.04c.2.04.27-.17.43-.21.37-.08.66-.3,1-.44.15-.06.32-.09.48-.15.38-.05.77-.06,1.15,0,.36,0,.73-.03,1.09-.03,1.09,0,2.18-.08,3.27,0,.2.01.39,0,.59-.01.34-.01.69,0,1.03-.02.51-.02,1.03-.01,1.54-.02.62,0,1.24-.01,1.86,0,.67,0,1.34,0,2.01-.03.28-.07.57-.02.85-.02.85-.03,1.7-.01,2.54-.02.06,0,.12,0,.18.01.05,0,.11,0,.16,0,.47,0,.95,0,1.42,0,.99,0,1.98-.01,2.97-.02,1.44,0,2.89-.02,4.33-.02.16,0,.34-.05.45.12.12.05.1.15.1.24,0,.24,0,.47,0,.71-.02.27.03.53.12.79.11.11.08.31.26.38.22.05.44.05.66.04.12,0,.19.07.24.16h0c.23,0,.13.17.13.28v.2c.04.16.02.26-.11.31.23.4.26.91.12,1.37v.05s0,.04,0,.06c0,.58.03,1.15,0,1.73Z"/>
  <path class="cls-8" d="m88.71,47.43s-.02-.08,0-.11c0-.26-.01-.52-.02-.78-.08-.14-.02-.29,0-.43-.03-.1-.02-.21,0-.31-.03-.03-.03-.07,0-.1,0-.04,0-.08,0-.12-.15-.1-.07-.25-.07-.37-.02-.23.05-.45,0-.68-.01-.06-.05-.16.08-.19,0-.04,0-.08,0-.11,0-.02,0-.04,0-.06,0-.31,0-.63,0-.94v-.05c0-.11-.01-.21-.02-.32-.1-.09-.09-.17,0-.26,0-.04,0-.07,0-.11-.04,0-.05-.02-.04-.05l-.02-.14c-.15-.09-.31-.18-.46-.27-.05,0-.1-.01-.15-.02-.21.02-.42.04-.63,0-.18,0-.35,0-.53,0-.1.02-.2.08-.31.01-.05,0-.11,0-.16-.01-.02,0-.03,0-.05,0-.07.04-.15.04-.22,0h-.05c-.07,0-.14,0-.21,0-.14.07-.28,0-.42,0-.03,0-.06.02-.09.03-.04.14-.15.08-.23.08-.25,0-.48.03-.69.16-.1.09-.03.22-.1.32,0,.18.01.36.01.54,0,.09-.01.16-.08.16,0,.04.01.07.01.11.02.01.03.03.04.05.01.09.02.18,0,.28.06.03.05.1.05.16,0,.15-.02.29-.03.44,0,.03,0,.06,0,.09,0,.59.01,1.17.02,1.76.01.03-.01.04-.03.05.06.81.03,1.63.04,2.44,0,.02-.01.04-.02.06,0,.02.01.04.01.05.01.11-.03.21-.05.32-.01.07,0,.13,0,.2,0,0,0,.01,0,.02.07.04.07.14.06.35,0,.21.05.41.06.62.06.11.15.17.27.17.46,0,.91,0,1.37,0,.05,0,.1,0,.16,0,.02,0,.03,0,.04.02,0,0,.02,0,.03,0,.11-.02.21-.02.32,0,.04-.01.08-.02.13-.02.4,0,.81,0,1.21,0,.27,0,.54.03.74-.21.05-.1.07-.2.07-.32-.01-.45,0-.9,0-1.36,0-.04,0-.07,0-.11,0-.07,0-.14-.01-.22-.03-.05-.02-.1,0-.15,0-.21,0-.42.01-.63Zm-.33,1.26s0,.04,0,.06c0,.16.06.31,0,.47.02.07.03.14,0,.21.03.12.03.24.01.37.05.29,0,.32-.27.37-.49.09-.97.02-1.46,0-.04,0-.06,0-.08-.02-.11.15-.34.17-.47.05-.04.01-.07.02-.12,0-.33-.09-.66-.01-.99-.03-.39-.02-.4-.03-.36-.43,0-.07,0-.14,0-.21,0-.02,0-.04,0-.05,0-.07,0-.14,0-.21-.03-.07-.04-.13.01-.18,0-.03-.02-.06-.02-.09,0-.09.02-.17.05-.25-.03,0-.06,0-.08-.02-.09-.08-.05-.24-.01-.37.02-.05.02-.1.03-.15,0-.33-.03-.67.02-1-.03-.1-.04-.21,0-.31-.04-.4-.03-.81-.02-1.21,0-.02,0-.04,0-.06-.05-.54-.02-1.09,0-1.63,0-.01,0-.02-.01-.04,0,0,0-.01,0-.02,0-.03,0-.07,0-.1-.01-.03,0-.04,0-.05-.03-.13-.02-.26,0-.38-.02-.03-.02-.06,0-.1,0-.05,0-.1,0-.15,0-.02,0-.04.01-.06,0-.05,0-.11,0-.16-.05-.18-.14-.36.04-.52.16-.21.38-.12.58-.13.47-.01.95.06,1.42,0,.42-.05.84.1,1.26-.02.13-.04.39-.01.43.24.07.17.03.35.02.53,0,.21,0,.42,0,.63v.06c0,.07,0,.14.01.21v.05s0,.15,0,.15c0,.04,0,.07,0,.11,0,.07,0,.14,0,.21.02.04.02.07,0,.11,0,.03,0,.07,0,.1.02.09.04.18,0,.26,0,.09,0,.18-.01.26.03.05.03.1.01.16,0,.05,0,.1,0,.15,0,.02,0,.04,0,.06,0,.03,0,.07,0,.1.03.09.03.18,0,.27,0,.09,0,.17,0,.26.01.07.03.14,0,.22v.31s0,.04,0,.06c.03.12.01.24,0,.36,0,.04,0,.07,0,.11,0,.15.03.3-.02.45,0,.03.01.05.02.08.04.1,0,.21,0,.31.04.07.03.14,0,.21,0,.12,0,.24,0,.37Z"/>
  <path class="cls-8" d="m90.14,55.92c0-.06,0-.11,0-.17,0-.1,0-.2,0-.31,0-.02,0-.04,0-.06-.02-.51-.04-1.02,0-1.52,0-.02,0-.04,0-.06-.03-.09-.02-.17,0-.26-.02-.09-.03-.18,0-.27-.04-.4,0-.81,0-1.21-.07-.28-.04-.56-.02-.84,0-.04,0-.07,0-.11-.04-.45-.08-.91,0-1.36-.02-.27-.03-.53,0-.8,0-.01-.01-.02-.01-.03,0,0,0-.01.01-.02,0-.28-.01-.56-.02-.84,0-.02,0-.04,0-.06,0-.25-.02-.5.02-.75-.07-.08-.17-.16,0-.24-.05-.44-.03-.89-.03-1.33,0-.02,0-.04,0-.06,0-.41-.01-.82-.02-1.22-.01,0-.03,0-.04-.01.01,0,.03-.01.04-.02,0-.11.01-.22.02-.32,0-.02,0-.04,0-.06,0-.49-.05-.99,0-1.48-.04-.02-.11-.04-.11-.06.01-.3-.05-.6.01-.9,0-.02.04-.02.07-.04,0-.3,0-.6,0-.9-.2-.74-.07-1.5-.1-2.25-.03-.74-.04-1.48-.01-2.23-.04-.03-.08-.06-.12-.09-.66.01-1.32-.01-1.97.04-.15.01-.31.02-.46.03-.14.03-.25.15-.37.23-.03.02-.05.04-.07.07.02.05-.02.11-.08.19,0,.04,0,.07,0,.11,0,.02,0,.04,0,.06,0,.03,0,.07,0,.1.02.05.02.11,0,.16,0,.11,0,.21.01.32.11.07.04.18.05.27-.01.14.07.21.16.3.4.39.78.8,1.17,1.2.06.03.06.08.03.13,0,.05,0,.11,0,.16.03.05.04.1.02.16.01.3.03.61-.08.9-.01.27-.23.25-.4.26-.41.02-.83,0-1.24,0-.04,0-.07,0-.11,0-.23.03-.45.03-.68,0-.04,0-.08,0-.11,0-.5.04-.99.06-1.49.05-.32-.01-.48-.18-.51-.49-.01-.14.01-.28-.01-.42-.05-.31.25-.56.59-.67h0s.03-.04.05-.06c0-.02,0-.03.01-.05.03-.19-.08-.4.06-.58v-1.28c-.15-.22-.3-.45-.55-.58-.04-.02-.05-.06-.04-.09-.1-.02-.2-.05-.29-.08-.07-.02-.14-.06-.2-.1-.06-.04-.13-.08-.2-.08-.03,0-.05-.03-.06-.05-.13,0-.26.01-.39.02-.03.04-.05.08-.08.12.08.01.07.06.01.21-.05.54-.28,1.04-.39,1.57-.06.09-.14.12-.25.09-.07,0-.14,0-.2,0-.16.03-.32.02-.48,0-.03,0-.07,0-.1,0-.05.02-.11.03-.16,0-.23,0-.46,0-.68,0-.51.06-1.03.04-1.54.04-.93,0-1.87,0-2.8,0-.37,0-.75,0-1.12.02-.1,0-.19-.03-.28-.07-.04,0-.07,0-.11,0-.35.09-.7.08-1.06,0-.05,0-.1,0-.16,0-.09.1-.21.05-.32.05-.59,0-1.18-.02-1.76,0-.77.03-1.55-.04-2.32,0-.55.03-1.09-.03-1.63,0-2.34.16-4.67.05-7.01.1-.72.02-1.44,0-2.16,0-.27,0-.37-.1-.38-.37,0-.18,0-.37.01-.55,0-.03,0-.06,0-.09-.03-.25-.06-.51,0-.76-.04-.06-.03-.13-.02-.2,0-.02,0-.04,0-.06v-.31c-.04-.09-.01-.18,0-.27,0-.04,0-.07.01-.11-.02-.05-.04-.1-.01-.16,0-.07,0-.14,0-.21-.02-.07-.03-.14,0-.22,0-.03,0-.07,0-.1-.03-.07-.01-.14,0-.21-.02-.37-.03-.73,0-1.1,0-.04,0-.07,0-.11,0-.03,0-.07,0-.1-.03-.09-.03-.18-.01-.27v-.95c-.09-.51-.01-1.02-.02-1.53,0-.07,0-.13,0-.2,0-.02,0-.05,0-.07,0-.08,0-.17,0-.25-.03-.05-.02-.1,0-.15,0-.38-.04-.77,0-1.15.01-.41-.37-.7-.68-.77-.33-.07-.46,0-.52.33-.02.12,0,.25-.02.37-.02.12.06.32-.08.35-.18.04-.39.1-.57-.06-.08-.06-.19-.09-.28-.14-.39-.21-.54-.58-.69-.96-.06-.26-.25-.48-.2-.77-.04-.29-.02-.57.1-.86.13-.34.24-.71.49-.96.3-.3.69-.48,1.14-.37.04,0,.05,0,.04.04.02.05.03.1,0,.15,0,.02,0,.04,0,.06.04.14.03.28,0,.42,0,.01.01.02.01.04,0,0,0,.01,0,.02.03.06.05.12.08.18.26.14.51,0,.76-.03,0,0,0,0,0,0,.02-.01.03-.03.05-.04,0,0,0,0,0,0,0-.14.1-.15.2-.17,0-.02.01-.03.02-.04,0-.03,0-.05.04-.05,0,0,0,0,0,0,.02-.12.04-.25.05-.37,0-.21,0-.42,0-.63-.03-.04-.03-.07,0-.11,0-.35,0-.7-.01-1.05-.1,0-.2,0-.29,0-.12.04-.24.07-.38.08-.2.02-.39.07-.58.12-.01.14-.16.13-.23.14-.59.08-1.16.3-1.72.47-.63.19-1.26.37-1.89.56-.7.21-1.41.39-2.1.61-.48.15-.97.25-1.44.44-.45.18-.94.28-1.41.42-.61.18-1.22.36-1.83.55-.27.08-.55.14-.82.26-.19.09-.48.15-.74.14-.03,0-.07,0-.1,0,0,.05-.02.1-.09.11-.63.09-1.22.35-1.84.49-.03,0-.05,0-.08.01-.1.05-.2.1-.31.13-.08.01-.15.02-.23.03-.49.09-.94.31-1.43.4-.48.08-.93.27-1.39.42-.42.14-.85.29-1.29.38-.47.1-.91.31-1.38.4-.04,0-.09,0-.13,0-.05,0-.1,0-.16,0-.06.13-.17.09-.27.08l-.1.02c-.04.18-.17.09-.27.09-.11.06-.24.06-.36.07-.07.13-.22.07-.32.13-.27.16-.55.31-.82.48-.12.08-.11.33-.34.28,0,0,0,0,0,0-.09.14-.19.27-.31.4.03.22.07.44.03.66,0,.02-.01.04-.02.06,0,.59-.04,1.18.02,1.76-.01.08-.03.16-.04.25v.02s0,.02,0,.02c.04.11.04.22.01.33.04.16.04.31,0,.47,0,.03,0,.07,0,.1,0,.02,0,.04,0,.05,0,.07,0,.14.01.21.03.07.02.14,0,.21,0,.05,0,.11,0,.16,0,.07,0,.14,0,.21,0,.23,0,.45,0,.68,0,.02,0,.04,0,.06,0,.35,0,.7,0,1.05,0,.02,0,.04,0,.06,0,.1,0,.21.02.31.04.22-.12.44,0,.65.06.06.04.12.01.18,0,.09,0,.18,0,.27,0,.01.01.02.01.04,0,0-.01,0-.02.01,0,.14,0,.29,0,.43,0,0,.01.02.01.03,0,0,0,.01-.01.02,0,.18,0,.36,0,.53,0,0,0,.02.01.03,0,0,0,0,0,.01,0,.09.04.18,0,.27,0,.02,0,.03,0,.05v.12s.01.02.01.02v.02c.05.33,0,.67,0,1,0,.01.01.02.01.04,0,0,0,.01,0,.02,0,.03,0,.07,0,.1,0,.02,0,.04,0,.06-.02.11.03.22,0,.33,0,.04,0,.08,0,.12,0,0,0-.01,0-.02,0,.07,0,.13,0,.2,0,.01,0,.02,0,.03.02.02.03.06,0,.13,0,.07,0,.13.01.2,0,.11,0,.22,0,.33,0,.31,0,.63,0,.94,0,.02,0,.04,0,.06.03.11-.04.22.01.33.01,0,.03,0,.04,0-.01,0-.03,0-.04,0,0,.02-.01.04-.02.06.1.16.06.32,0,.48,0,.05,0,.1,0,.15,0,.02,0,.04,0,.06v.36s0,.04,0,.06c0,.16,0,.31,0,.47,0,.02,0,.04,0,.06.01.21.03.42,0,.63,0,.02,0,.04,0,.06,0,.26,0,.52.01.78,0,.02,0,.04,0,.06,0,.42,0,.84,0,1.26,0,0,.02,0,.03,0,.1.14.08.77-.03.89,0,.4,0,.8,0,1.21.03,0,.08,0,.08.05,0,.26,0,.52,0,.78,0,.11-.08.09-.14.12.06.29.06.59.06.89.11,0,.08.09.08.16.02.5-.04,1,.02,1.5,0,.01-.04.03-.05.04,0,.26,0,.52-.01.79.13.83.05,1.67.08,2.51.03.79.01,1.57.01,2.36,0,.07.03.14-.03.2-.05.14-.02.28.03.42.03.04.03.08,0,.12v.2c0,.09,0,.18,0,.26-.04.54.21.97.5,1.4.03.01.05.02.08.03.32.21.64.42,1.01.52.36.09.73.14,1.08.26.47.15.95.31,1.42.41.63.13,1.22.4,1.87.45.26.02.48.17.73.22.34.06.67.13.99.27.04-.01.05,0,.05.04.02,0,.03.01.05.02.49.07.97.17,1.44.29.5.13.98.3,1.49.39.41.07.83.13,1.19.37.08-.03.14.02.21.04.26-.09.47.06.69.16.14.12.33.02.47.12.21-.05.35.11.54.14.26.04.55.02.76.14.45.25.96.27,1.43.42.49.15,1.01.28,1.53.38.34.07.68.17,1.01.28.37.13.77.14,1.14.26.63.21,1.28.32,1.91.53.62.2,1.27.32,1.91.49.24.06.49.08.72.21.14.08.32.13.48.03,0-.36,0-.72.01-1.07,0-.1.02-.19.04-.29-.02-.11-.04-.21-.02-.32v-.05c-.05-.14.06-.31-.08-.44-.04,0-.05,0-.04-.04,0-.05,0-.1-.06-.12-.25-.26-.57-.27-.9-.25l-.02.05c0,.05-.04.09-.08.11-.1.2-.06.42-.05.63.06.04.05.07,0,.11h0c-.1.2-.32.17-.45.14-.18-.04-.39-.1-.49-.3h0c-.14-.04-.25-.11-.26-.27h0c-.08-.06-.24-.05-.2-.21-.07-.23-.28-.38-.33-.62-.07-.39-.09-.78,0-1.17.12-.55.33-1.05.82-1.39.24-.16.49-.23.78-.21.1,0,.14.06.13.15,0,.1,0,.19-.01.29,0,.04.01.09,0,.13-.05.28.13.44.34.52.16.07.35-.02.51-.14.3-.21.44-.47.37-.83-.01-.07.01-.14.02-.21,0-.02,0-.04,0-.06,0-.08,0-.17,0-.25,0-.06,0-.11,0-.17,0-.53-.01-1.06-.02-1.59v-.02s0-.02,0-.02c0-.11-.04-.22-.01-.33-.03-.07-.04-.13,0-.2,0-.06,0-.11,0-.17-.03-.05-.03-.1-.01-.15,0-.05,0-.11.01-.16,0-.01-.01-.02-.02-.03,0,0,0-.01,0-.02v-.11s-.02-.06,0-.09c0-.06,0-.11,0-.17,0-.01,0-.02-.01-.03,0,0,0-.01,0-.02,0-.18,0-.35,0-.53,0-.01,0-.02-.01-.04,0,0,0-.01,0-.02,0-.1-.04-.21.01-.31v-.12s-.03-.1,0-.15c-.18-.22-.01-.43.01-.64-.1-.31.02-.63-.04-.94-.15-.2.04-.39.03-.59,0-.04,0-.08-.01-.11-.01-.09-.03-.17-.03-.26,0-.06.02-.12.02-.17-.05-.44,0-.88-.03-1.32,0-.05,0-.11.05-.13,0-.1.06-.16.16-.17.36-.07.73-.04,1.09-.05.17,0,.33.01.5.02.26-.02.52-.02.78-.02.08,0,.15-.02.23-.02.27-.02.54-.02.81,0,.1,0,.19.02.29.03.12,0,.25,0,.37,0,.21-.07.42-.02.63-.03.04.01.09.02.13.03.08-.06.15-.04.22,0,.45,0,.89-.06,1.34-.06,1.64.01,3.28,0,4.91,0,.37-.13.76-.02,1.14-.04.46-.03.92-.01,1.38-.02.06,0,.13-.03.16.05.32.06.64-.06.96-.05.88.02,1.75,0,2.63,0,.23,0,.46-.15.69.01.03-.02.05-.07.08-.07.36,0,.72-.07,1.07.02.19-.07.39.02.58,0,.03-.05.08-.13.13-.1.18.1.39-.04.55.1.09,0,.18,0,.26,0,.02-.05.06-.05.11-.05.87,0,1.75-.01,2.62,0,.18,0,.4-.04.54.15.21.41.36.83.42,1.29.06.41.27.58.68.56.15,0,.29.04.45-.12.23-.24.52-.45.71-.73,0-.61-.04-1.23,0-1.84-.02-.02-.03-.04-.05-.06-.1-.19-.31-.22-.47-.3-.13-.07-.19-.14-.16-.28-.01-.07,0-.15-.03-.23-.14-.52.18-.93.71-.93.25,0,.5.01.74-.04.3,0,.6,0,.89,0,.01,0,.02,0,.03,0h.26s.02,0,.03,0h0s0,0,0,0c.01,0,.03,0,.04,0,.04-.03.11-.03.16-.03.24,0,.49,0,.73,0,.07,0,.14,0,.21,0,.14-.03.26,0,.37.09.2-.01.32.07.37.27.11.15.08.31.05.48.02.14.04.28,0,.42-.01.15.07.32-.04.46-.25.2-.45.44-.64.7-.02.08-.09.09-.16.09,0,0,0,.01,0,.01,0,.07,0,.14-.09.15-.27.18-.41.42-.4.74.04.34.03.68.03,1.01,0,.02,0,.03.01.05.03,0,.05.02.04.06l.07.1c.98,0,1.96,0,2.93,0,.01-.01.01-.03,0-.05-.08-.1.06-.18.03-.27,0-.03,0-.06,0-.09Zm-.31-.85v.31s.01.04.01.06c0,.09,0,.17,0,.26,0,.02,0,.04,0,.06,0,.05,0,.1,0,.15,0,.02,0,.04,0,.07h0c-.03.09-.09.08-.15.08-.71,0-1.42,0-2.12,0-.1,0-.25.04-.21-.16,0-.33,0-.66,0-.99-.02-.05-.02-.09.04-.1.38-.4.75-.8,1.13-1.2.03-.04.08-.06.12-.09.07-.47.02-.95.02-1.42-.02-.09,0-.18-.06-.26-.22-.22-.49-.36-.8-.43-.03,0-.07,0-.1,0-.02,0-.04,0-.05,0-.05,0-.11,0-.16,0-.27.02-.54.03-.8.06-.11.01-.17-.04-.2-.1-.04.01-.08.03-.12.04-.09.02-.17.03-.26,0,0,0,0,0,0,0-.06.02-.15.02-.3,0h-.16c-.35-.02-.7.07-1.05,0-.09.01-.18.02-.27.03-.26.02-.46.17-.62.36-.05.06-.09.09-.16.09-.1.34-.09.7-.04,1.04.04.26.21.45.47.53.07.02.08.08.13.12.13.03.16.11.15.23,0,.43-.01.86,0,1.28,0,.12-.03.2-.14.25h0s-.02.05-.05.05c-.04.22-.29.25-.37.43-.28.19-.61.14-.68-.11-.17-.13-.11-.34-.15-.51-.06-.29-.24-.55-.23-.86-.07-.03-.12-.08-.09-.16h0s-.03-.04-.04-.06h-.02c-.07.02-.11-.01-.14-.07-.01,0-.02,0-.03-.02-.55-.11-1.11-.06-1.67-.05-1.01.02-2.01.03-3.02.03-.36,0-.72.02-1.07-.04-.07-.01-.14-.01-.15-.11-.1,0-.2,0-.31,0-.02.16-.2.15-.24.13-.31-.14-.63,0-.92,0-.61.02-1.22,0-1.83.02-.57.02-1.14.01-1.71.03-.38.01-.76-.02-1.15-.02-1.01,0-2.02.02-3.03.02-.42,0-.85-.04-1.27-.03-.61,0-1.22.02-1.82.05-.85.04-1.69-.03-2.54,0-.4.01-.81.08-1.21-.01-.09,0-.17,0-.26,0-.04,0-.07,0-.11,0-.07.02-.14.03-.21,0-.16,0-.32,0-.48,0-.03,0-.07,0-.1,0-.28.11-.58.03-.87.04-.3,0-.57.03-.76.29-.12.09-.03.25-.1.35.01.14.03.28.03.42,0,.03,0,.06,0,.09,0,.07,0,.13,0,.2,0,.12,0,.24,0,.36,0,.15,0,.3,0,.45,0,.02,0,.05-.01.07,0,.34,0,.68.02,1.03,0,.08-.02.13-.06.19,0,.03,0,.07,0,.1,0,.25,0,.49,0,.74h0s.05.02.03.06c.01.31.04.63,0,.94,0,.02,0,.04,0,.06,0,.28,0,.56,0,.84.04.07.02.14,0,.21,0,.32,0,.63,0,.95,0,.01.02.02.03.03,0,0,0,.01-.01.02.05.09-.02.18-.01.27.04.07.03.13,0,.2.07.65-.05,1.3-.02,1.95,0,.08.03.16-.03.22h0c-.04.11-.16.14-.23.21-.12.1-.27.1-.32-.11-.05-.21-.03-.43,0-.64,0-.02-.01-.04-.02-.05-.07.01-.11-.02-.11-.09h0c-.07,0-.1-.04-.1-.11h0c-.14,0-.28,0-.42,0-.03,0-.07,0-.1,0-.01.17-.16.1-.24.12-.25.07-.49.16-.7.3h0c-.01.07-.04.13-.11.16-.16.25-.36.48-.43.79-.02.11.07.26-.11.32,0,.4-.1.8,0,1.22.04.17.09.34.17.48.19.34.31.74.68.96.21.13.43.24.69.25.22.02.43,0,.63-.06.19-.03.25-.14.22-.33-.02-.14,0-.28,0-.42,0-.16.04-.19.19-.14.21.06.38.26.39.49,0,.15-.01.31.05.46.03.07.02.14,0,.21,0,.07,0,.14,0,.21,0,.02,0,.04,0,.06,0,.14,0,.28,0,.42,0,.17-.03.2-.17.15-.15-.05-.31-.04-.45-.14-.09-.07-.23-.07-.34-.09-.02,0-.03,0-.04-.01-.24-.08-.53-.01-.74-.21-.03,0-.07-.02-.1-.03-.5-.07-.97-.23-1.46-.35-.56-.13-1.11-.31-1.67-.44-.3-.07-.61-.2-.92-.25-.35-.06-.68-.19-1.01-.31-.1,0-.21,0-.31-.01l-.48-.21s-.07,0-.1-.01c-.65-.1-1.29-.28-1.91-.49-.32-.11-.67-.15-1.01-.22-.89-.21-1.78-.39-2.66-.64-.38-.11-.79-.16-1.16-.33-.18-.08-.42-.04-.6-.18h-.1c-.29.01-.55-.14-.83-.19-.72-.11-1.41-.37-2.12-.52-.39-.09-.79-.19-1.18-.33-.44-.16-.92-.2-1.37-.34-.38-.12-.79-.12-1.16-.31-.27-.14-.61-.11-.91-.2-.32-.11-.68-.2-.89-.51h0c-.08-.06-.15-.12-.13-.23-.01-.01-.02-.03-.02-.04-.14-.06-.17-.19-.21-.32h0s-.05-.02-.04-.05c0-.05,0-.1-.01-.16-.09-.03-.05-.1-.05-.16,0-.02,0-.03,0-.05,0-.05,0-.11,0-.16,0-.12,0-.24,0-.37-.03-.04-.02-.07,0-.11-.05-.65,0-1.3-.01-1.95-.16-.12-.07-.28-.08-.42-.02-.34-.06-.69-.05-1.02.01-.43.03-.85.03-1.28,0-1.14,0-2.28,0-3.41,0-1.45-.02-2.91-.03-4.36,0-.74.04-1.49-.02-2.23-.08-.91,0-1.82-.05-2.73,0-.05-.03-.13.06-.15,0-.02,0-.05,0-.07-.01,0-.03,0-.04-.01.01,0,.03,0,.04-.01,0-.04.01-.08.02-.13-.16-.22-.06-.46-.05-.69,0-.02,0-.03.02-.04,0-.04,0-.07,0-.11,0-.05.02-.09.02-.14-.03-.03-.04-.09-.02-.17,0-.09.01-.17.02-.26-.03-.07-.04-.15,0-.22-.02-.24-.03-.49,0-.73-.03-.04-.03-.07,0-.11,0-.23,0-.46,0-.68-.06-.3-.05-.6-.02-.9v-.1c-.04-.05-.03-.1,0-.16,0-.04,0-.08.01-.12-.13-.11-.11-.23,0-.35,0-.05-.02-.09-.02-.14.01-.03.02-.06.03-.09-.18-.07-.05-.22-.07-.33-.02-.15-.1-.35.05-.5,0-.03-.01-.06-.02-.09.05-.07.01-.16.03-.24,0-.02-.01-.04-.02-.05,0-.18,0-.36-.01-.55-.01,0-.03,0-.04,0h.04s0-.06.01-.08c-.18-.14.02-.28,0-.42,0-.16,0-.31,0-.47,0-.02,0-.04,0-.06,0-.05,0-.1,0-.15,0-.02,0-.04,0-.06,0-.14,0-.28,0-.42,0-.02,0-.04,0-.06,0-.16,0-.32,0-.47-.1-.17-.06-.35-.02-.53,0-.47,0-.95,0-1.42,0-.1.02-.2.03-.31,0-.04,0-.07,0-.11,0-.03,0-.06.01-.08-.03-.04-.01-.06.02-.07,0-.03,0-.07,0-.1.04-.1.07-.21.12-.3.04-.18.12-.35.28-.47.02-.01.04-.02.07-.03.21-.31.54-.43.89-.53.74-.2,1.46-.45,2.21-.62.51-.11.97-.35,1.5-.39.19-.01.36-.16.56-.21.57-.16,1.13-.36,1.7-.51.7-.18,1.39-.39,2.09-.55.39-.09.8-.18,1.17-.38.16-.09.35-.14.53-.16.26-.03.51-.1.73-.23.11-.06.2-.03.29-.03.3,0,.53-.23.82-.26.53-.05,1-.32,1.52-.41,0-.01,0-.03.02-.04-.01-.04,0-.04.03-.04.05,0,.11-.01.16-.02.04-.06.1-.04.15-.05h0c.06-.08.13-.05.2-.04.41-.07.77-.26,1.16-.37.49-.13.96-.29,1.44-.43.65-.18,1.31-.33,1.95-.54.36-.12.71-.23,1.08-.3.71-.24,1.42-.48,2.14-.7.32-.1.65-.16.98-.23.15-.03.22.04.15.2,0,.03,0,.06,0,.09.05.46.03.91.02,1.37,0,.02-.05.04-.07.06,0,.03,0,.07-.01.1-.08.17-.25.21-.4.2-.24,0-.11-.19-.11-.31,0-.1,0-.19-.01-.29,0-.32-.33-.56-.62-.45-.17.07-.38.01-.53.16-.02.06-.06.08-.11.08-.03,0-.07.02-.1.03-.01.07-.06.05-.1.05h0c-.14.23-.36.38-.52.58-.16.31-.32.63-.34.99,0,.07.06.16-.05.21,0,.11-.02.21-.02.32,0,.25.08.49.13.74.08.46.35.82.66,1.16.2.22.44.32.72.37.22,0,.45,0,.67,0l.12-.05c.08-.21.06-.43.05-.65-.01-.29.11-.36.4-.24h.02s.08,0,.1.05c.06.02.05.07.05.11.18.11.1.27.09.42v.26s.02.03.02.04c0,0,0,.01-.01.02,0,.05,0,.1,0,.15,0,.02,0,.04,0,.06,0,.05,0,.1,0,.15,0,.06,0,.11,0,.17.02.09.02.17,0,.26.02.09.04.18,0,.27,0,.18.02.36-.04.54-.05.14.04.29.05.43,0,.29,0,.57,0,.86.04.04.04.08,0,.12,0,.04,0,.07-.01.11,0,.01,0,.02.01.03,0,0,0,.01,0,.02.05.19,0,.39,0,.58.05.12.04.24,0,.36.03.25.02.5,0,.74.03.07.03.14,0,.21,0,.16,0,.32,0,.47.1.05.11.1,0,.15,0,.19,0,.39,0,.58,0,.02,0,.04,0,.06,0,.05,0,.1,0,.15,0,.05.02.11-.01.16,0,.03,0,.07-.01.1.03.11.05.22.02.33,0,.16,0,.31,0,.47,0,.02,0,.04-.01.06,0,.09.02.18.03.27.12.09-.04.17,0,.26,0,.16,0,.31,0,.47v.06s0,.07,0,.1c.02.09.05.18.07.26.05.05.1.11.16.16.59.14,1.2.02,1.8.07.08.06.17.03.26.04.3-.11.6-.04.9-.04.4.06.81-.01,1.21,0,.83,0,1.65,0,2.48,0,.31-.1.63-.02.94-.03.8-.02,1.6,0,2.4,0,.09,0,.19-.03.28.04.15.04.28-.08.43-.04.88,0,1.75,0,2.63,0,.04,0,.07,0,.11,0,.54-.02,1.09-.02,1.63,0,.75,0,1.51-.01,2.26-.01.41,0,.82,0,1.23,0,.35-.07.71-.04,1.06,0,.46.02.91.01,1.37-.04.18-.04.35-.01.53,0,.07-.03.14-.02.21,0,.07,0,.14,0,.21,0,.03,0,.07,0,.1,0,.09-.03.18-.01.27,0,.09,0,.17,0,.26,0,.02,0,.04,0,.05,0,.45.06.9-.02,1.35-.03.17,0,.35-.03.52-.02.09,0,.17,0,.24-.06-.02-.12.1-.1.15-.15h0s.03-.04.04-.06l.03-.1c-.04-.06-.01-.12.03-.17,0-.03,0-.07.01-.1-.02-.08,0-.15.04-.22.08-.32.16-.64.25-.95.02-.05.02-.11.06-.13.12-.08.55.06.64.19h0c.22.18.44.34.5.64,0,.1,0,.2,0,.31v.12c0,.3,0,.59.02.89.05.21-.03.36-.24.41-.16.04-.16.24-.33.26h0c-.03.1-.03.2-.1.28,0,.12-.01.25-.02.37.04.09.03.17.02.26.1.09.04.23.1.34.16.29.42.38.71.4.3.02.59,0,.89,0,.35-.08.7-.03,1.05-.02.04,0,.08,0,.12,0,.16,0,.31,0,.47,0,.37-.05.75-.03,1.12-.05.4-.03.59-.25.75-.55v-.06c0-.46-.02-.91-.02-1.37-.28-.13-.43-.39-.58-.63-.02,0-.03,0-.04-.02-.26-.11-.4-.36-.61-.53-.07-.05-.16-.13-.18-.24,0-.14,0-.28,0-.42-.12-.33-.05-.62.16-.73.3-.11.61-.03.91-.06.43-.09.87-.01,1.3-.04.17-.01.21.14.21.3,0,1.29.01,2.57.02,3.86.02.06.03.13,0,.19,0,.63.02,1.27.03,1.91,0,1.2,0,2.4,0,3.59v.36c0,.43,0,.85,0,1.28,0,.14,0,.28,0,.41.02.05.03.11,0,.16,0,.37,0,.73,0,1.1,0,.06,0,.11,0,.17,0,.03,0,.06.01.1,0,.01.01.02.01.04,0,0,0,.01,0,.02,0,.49,0,.98,0,1.47,0,.02,0,.04,0,.06l-.02.16c.09.36.06.73.04,1.1.03.09.02.18,0,.26,0,.02,0,.04.01.06,0,.14,0,.28,0,.42,0,.04,0,.07,0,.11,0,.09,0,.17,0,.26,0,.05,0,.11,0,.16v.52c0,.05,0,.11,0,.16.02.11.03.21,0,.32.03.07.01.14,0,.21Z"/>
  <path class="cls-8" d="m33.22,38.34s.02,0,.03,0c0,0,0,0,0,0,0,0-.01,0-.02-.01Z"/>
  <path class="cls-8" d="m52.66,50.86c0-.23.03-.46.04-.69,0-.05,0-.11,0-.16,0-.01-.01-.02-.02-.03,0,0,0,0,.01-.01,0-.03,0-.07,0-.1-.02-.02-.07-.05-.07-.06.1-.18.01-.39.06-.57-.02-.19,0-.38.01-.58-.13-.17-.08-.34,0-.51-.05-.12-.01-.24,0-.35,0-.01-.02-.02-.03-.03h.02s0-.09,0-.12c-.03-.01-.07-.01-.07-.06,0-.01.04-.02.06-.03-.01-.07-.03-.14-.04-.2.01-.03.03-.06.04-.08-.05-.12-.18-.23-.01-.35v-.49c-.12-.1-.15-.2-.01-.3,0-.05,0-.09-.01-.14,0,0-.01.01-.02.01-.03,0-.03-.02,0-.02,0,0,.01,0,.02.01v-1.51c-.15-.1.01-.21.01-.31,0-.63-.02-1.26-.03-1.89-.02-.01-.03-.02-.05-.03.02-.01.03-.02.05-.04,0-.25.06-.51-.14-.73,0-.02,0-.04-.01-.05,0,0-.01-.01-.02-.02-.27,0-.53,0-.8.02-.38.03-.75.18-1.13.15-.08,0-.16-.04-.22-.09-.2.04-.4.07-.59.08-.38.01-.75.07-1.13.09-.04.03-.08.06-.12.07-.05.02-.11.02-.16.03-.03,0-.06,0-.08,0-.01,0-.02,0-.03,0-.05.02-.09.04-.14.04h-.12c-.06,0-.14-.03-.19-.07-.42.11-.85-.03-1.27.11-.34.12-.73.08-1.1.16-.67.13-1.35.14-2.01.26-.34.06-.7.02-1.05.04-.49.03-.96.17-1.44.18-.65.02-1.3.12-1.94.16-.1,0-.21,0-.31,0l-.15.03c-.23.17-.52.05-.77.14-.14.05-.3.03-.45.05-.03,0-.07,0-.1,0-.71.06-1.42.09-2.12.27-.06.02-.14,0-.21,0-.18.09-.3.23-.33.44.02.05.02.11,0,.16,0,.03,0,.07,0,.1,0,.02,0,.04,0,.06,0,.1,0,.21,0,.31.03.18.03.35,0,.53v1s0,.04,0,.06c0,.03,0,.07,0,.1.02.05.03.11,0,.16,0,.03,0,.07,0,.1.03.05.03.11,0,.16,0,.16,0,.31,0,.47,0,.04,0,.07,0,.11,0,.05,0,.1,0,.15v.06s0,.07,0,.1c0,.05,0,.11,0,.16,0,.09,0,.17,0,.26,0,.05,0,.11,0,.16,0,.09,0,.17,0,.26,0,.02,0,.04,0,.06,0,.07,0,.14.01.2,0,.02,0,.04,0,.06,0,.12,0,.24,0,.36.03.08.06.16-.04.21.01.05.02.1.03.16,0,.05,0,.11,0,.16,0,.19,0,.38,0,.58,0,.02,0,.04,0,.06-.03.32.09.57.41.67.14.05.3.05.46.07.55-.04,1.11-.04,1.64.04.44.06.88.05,1.31.17.03,0,.07,0,.1,0,.04-.07.07-.07.11,0,.05,0,.1,0,.16.01.84-.05,1.66.12,2.48.24h.1c.07-.07.14-.07.21,0,.7-.02,1.4.08,2.1.12.21,0,.43-.07.64.08.09.06.24-.08.37-.03.14-.03.27.07.42.05.06,0,.13-.04.16.04.05,0,.1,0,.16,0,.13-.02.25-.02.37.05.02,0,.03,0,.05.01.48-.06.95.03,1.43.05.03,0,.07,0,.1,0,.68.02,1.36,0,2.03.18.03,0,.07.01.1,0,.88-.02,1.75.14,2.63.11.11,0,.23,0,.34,0,.09-.06.13-.18.25-.21h0s.03-.07.04-.1c0-.05-.02-.1.05-.11,0-.05,0-.11,0-.16-.12-.09-.05-.21-.05-.31Zm-.25.15c0,.13.05.27-.09.36h0c-.17.11-.35.12-.56.13-.67.01-1.33-.13-2-.13-.59,0-1.18-.02-1.76-.12-.61-.11-1.22-.11-1.83-.14-.75-.04-1.52-.05-2.26-.17-.59-.09-1.17-.09-1.76-.15-.57-.06-1.14-.04-1.7-.11-.36-.05-.71-.14-1.07-.15-.25,0-.5-.02-.76-.04-.62-.03-1.24-.07-1.86-.07-.24,0-.49-.06-.73-.12-.25-.07-.53,0-.79-.04-.17-.02-.44.01-.4-.31l-.02-1.62s-.04-.07,0-.12c0-.05,0-.11,0-.16,0-.01,0-.02-.01-.03,0,0,0-.01,0-.02-.02-.07-.03-.14,0-.22-.12-.26-.14-.52-.01-.78,0-.04,0-.08,0-.12-.14-.23-.08-.45,0-.67,0-.05,0-.11,0-.16,0-.01-.01-.02-.01-.04,0,0,0-.01,0-.02-.01-.1-.02-.21,0-.31,0-.02,0-.04,0-.05,0-.04,0-.08-.01-.12-.15-.28-.09-.56,0-.84,0-.1,0-.2,0-.31-.07-.28-.09-.57,0-.86.02-.06.02-.12.09-.14.24-.14.52-.16.78-.16.61-.01,1.21-.13,1.82-.13.48,0,.95-.13,1.43-.18.49-.05.98-.11,1.48-.12.54-.02,1.06-.11,1.59-.19.15-.02.3,0,.44-.03.19-.13.41-.06.6-.08.76-.06,1.51-.17,2.27-.24.03,0,.05,0,.08,0,.03,0,.07,0,.1,0,.38.03.73-.12,1.11-.11.3.03.6-.05.89-.1.21-.11.43-.04.65-.04,0,0,0,0,0,.01.32-.13.68-.17,1.03-.19.22-.01.43,0,.65,0,.04,0,.07,0,.11,0,0,0-.02,0-.03.01.12,0,.24.02.36.05.58-.23,1.19-.29,1.82-.29.09,0,.14.06.2.1.04-.01.05,0,.05.04.01.01.02.03.01.04,0,.01.01.02.02.04,0,0,0,.01-.01.02,0,.21,0,.42,0,.64,0,.02,0,.03,0,.05.06.21-.02.41,0,.62.03.04.02.08,0,.12,0,.14,0,.28,0,.42,0,.05,0,.11,0,.16,0,.07-.01.14-.02.21.02.03.03.07,0,.11.02.35.02.7,0,1.05,0,.02,0,.04,0,.06.03.1.02.21.01.31,0,.04,0,.07,0,.11-.06,1.05.06,2.09,0,3.14,0,.06,0,.12,0,.18.03.24.06.49,0,.73-.04.21.06.42,0,.63.03.11.07.22,0,.33l.02.31Z"/>
  <path class="cls-8" d="m56.33,37.84c-.04-.47-.05-.95-.01-1.42,0-.03,0-.07,0-.1-.04-.04-.03-.08-.02-.12,0-.19.01-.38.02-.58-.03-.03-.03-.07-.01-.1,0-.14,0-.28,0-.42-.03-.23-.15-.45,0-.68v-.37s0-.06,0-.06c-.01-.51-.05-1.01,0-1.52v-.06c0-.54-.01-1.09-.02-1.63-.12-.12-.18-.28-.26-.42-.02-.02-.04-.03-.06-.05-.56.03-1-.24-1.39-.6l-.02-.02c-.27-.26-.46-.57-.64-.89-.22-.39-.34-.8-.33-1.25l-.04-.07s0,0,0,0c0,0,0,0,0,0,.01-.04.02-.09.03-.13,0-.01,0-.02-.01-.03,0,0,0-.01,0-.02-.03-.14-.02-.28,0-.42,0-.03,0-.07,0-.1-.03-.09-.03-.19-.1-.27-.31-.36-.69-.19-1.03-.09-.19.06-.37.13-.56.18-.89.24-1.78.5-2.66.78-.06.02-.12,0-.18,0-.02,0-.03,0-.05.01-.07.17-.23.09-.35.11-.3.03-.54.24-.84.29-.59.1-1.14.36-1.73.49-.65.15-1.28.36-1.91.55-.68.21-1.37.37-2.04.58-.03,0-.07,0-.1,0-.03,0-.06,0-.1,0-.36.21-.77.27-1.17.35,0,.01-.02.02-.04.01-.05.03-.09.08-.16.07-.06.05-.13.09-.21.09-.13,0-.24.08-.38.05-.01.01-.03.02-.05.02-.13.09-.29.05-.43.09-.03,0-.07.01-.1.02-.05.15-.19.14-.31.16-.05.04-.1.04-.16.04-.05,0-.09.02-.14.03,0,0-.01,0-.01,0-.01.03-.04.03-.06.01-.02,0-.04,0-.07.01-.04.19-.22.15-.34.17-.37.07-.71.21-1.07.31-.03,0-.07,0-.1,0-.09.02-.17.05-.26.07-.46.18-.94.29-1.42.42-.29.08-.57.22-.86.25,0,0-.02.02-.03.02-.03.03-.06.05-.09.08-.01.01-.02.02-.04.04,0,0,0,0,0,0-.02.03-.04.07-.06.1.06.1.06.22,0,.36,0,.12,0,.24.01.36,0,.05,0,.1,0,.16,0,.09,0,.18-.01.26,0,.04,0,.07,0,.11.05.48,0,.95,0,1.43.05.02.04.06.03.1,0,.03,0,.07,0,.1,0,.02,0,.04,0,.05,0,.26,0,.53,0,.79.02.09.04.18,0,.26,0,.04-.01.07-.02.11.02.03.02.07,0,.1v.11s.02.02.02.04c0,0,0,.01,0,.02,0,.03,0,.07,0,.1.03.09,0,.17-.03.25.01.06.02.11.04.17,0,.02,0,.04,0,.06v.1s-.01.04-.01.06c0,.03,0,.06,0,.1,0,.09,0,.18,0,.27,0,.05,0,.1,0,.15.03.06.02.11,0,.17,0,.14,0,.27,0,.41.04.03.04.07.01.12,0,.14-.01.28-.02.42,0,.02,0,.04,0,.06,0,.03,0,.07,0,.1v.06s0,.07,0,.1c0,.02,0,.04,0,.06,0,.05,0,.1,0,.15,0,.02,0,.04,0,.06.03.49.02.98.02,1.47.06.41.02.81.01,1.22v.1c.05.07.03.14.02.21.18.25.41.37.73.31.27-.05.54-.07.82-.1.29-.07.59-.09.9-.1.6-.01,1.19-.12,1.79-.17.11-.11.27-.07.39-.08.58-.02,1.15-.1,1.72-.13.03,0,.07-.02.1-.03.57-.12,1.14-.15,1.72-.19.5-.04,1.01-.09,1.51-.12.19-.01.41-.05.6-.13.25-.1.5-.02.76-.05.31-.04.62-.07.94-.07.44,0,.88-.03,1.31-.14.05-.01.11-.02.16-.02,0,0,.01,0,.02,0,.06-.01.12-.02.18-.02.06,0,.11,0,.17,0,0,0,.01,0,.02,0,.05-.01.09-.01.14,0,.04,0,.08-.01.13-.02.73-.12,1.47-.12,2.2-.23.78-.12,1.57-.14,2.35-.23.36-.04.65-.24.96-.37.43-.18.82-.44,1.28-.53.14-.07.27-.16.42-.22.35-.14.55-.37.53-.77-.01-.3,0-.61,0-.91Zm-.34,1.26c-.19.22-.44.23-.7.21-.13.11-.27.2-.42.28,0,0-.01.02-.02.02-.37.2-.72.45-1.15.5h0c-.21.15-.44.25-.71.26-.55.03-1.11.1-1.66.1-.05.02-.1.04-.16.02-.86.29-1.76.19-2.64.3-.07,0-.13.03-.2.05-.11.04-.19.03-.22-.02h-.21c-.02.05-.07.09-.19.1-.32.03-.64.12-.97.07-.05,0-.1,0-.15,0-.19.12-.42.1-.63.11-.6.03-1.19.15-1.79.21-.42.04-.85.04-1.27.06-.09,0-.17.01-.26.02-.16.15-.36.07-.54.11-.22.05-.44.06-.66.09-.11.01-.19,0-.23-.06-.22.1-.45.14-.67.12-.18.03-.37.04-.55.03-.52-.01-1.01.14-1.52.18-.45.04-.89.1-1.34.15-.58.06-1.17.1-1.75.2-.14.03-.3,0-.45,0-.08,0-.12-.05-.14-.13-.06-.19-.09-.37,0-.55,0-.49,0-.98,0-1.47-.07-.3-.03-.6-.04-.9,0-.4,0-.8,0-1.21,0-.03,0-.07,0-.1-.03-.14-.03-.28.01-.42,0-.12,0-.25-.01-.37-.01-.34-.02-.69-.04-1.03,0-.1.03-.13.1-.13,0-.04-.01-.07-.01-.11-.04,0-.07,0-.09-.05-.06-.12-.05-.3-.03-.44.03-.15-.08-.3.03-.44,0-.03.01-.07.02-.1v-.06c0-.05,0-.1,0-.15,0-.04,0-.07,0-.11,0-.1,0-.21,0-.31-.03-.07-.03-.14,0-.21,0-.14,0-.28,0-.42,0-.02,0-.04,0-.06,0-.11,0-.21,0-.32,0-.04,0-.07.01-.11.02-.19-.05-.39,0-.58-.03-.03-.04-.06-.02-.1.05-.17.07-.36.17-.49.12-.16.36-.12.55-.18.33-.11.68-.18,1.02-.28.56-.16,1.13-.32,1.69-.48.41-.12.84-.2,1.24-.39.23-.11.52-.1.73-.21.45-.23.98-.18,1.42-.43.22-.13.51-.16.77-.17.28-.01.47-.23.74-.25.15-.01.31-.04.46-.09.53-.16,1.05-.36,1.58-.48.47-.11.93-.29,1.4-.39.29-.07.55-.24.85-.26.53-.05.98-.35,1.5-.43.44-.07.86-.29,1.3-.4.66-.16,1.29-.44,1.96-.51,0-.03,0-.07.01-.07.34-.12.68-.21,1.05-.18.05,0,.09.05.09.11,0,.03,0,.07,0,.1,0,.09,0,.18,0,.27,0,.09,0,.17,0,.26,0,.02,0,.04,0,.06,0,.05,0,.1,0,.15,0,.04,0,.07,0,.11.08.79.41,1.47.93,2.06.29.33.62.62,1.03.79.09,0,.18-.04.25.04.02,0,.04,0,.06.01.33.01.44.13.44.44,0,.57,0,1.15,0,1.72,0,.05,0,.09-.01.14.05.78.02,1.56.01,2.34,0,.1,0,.2,0,.31,0,.02,0,.04,0,.06,0,.07,0,.14,0,.21,0,.04,0,.07,0,.11-.02,1.07.05,2.14,0,3.2Z"/>
  <path class="cls-8" d="m56.45,60.82c-.03-.39-.01-.77,0-1.16-.12-.52-.05-1.06-.06-1.58,0-.45-.07-.91,0-1.36.03-.21.02-.42.01-.63-.05-.14-.09-.3-.08-.46,0-.04,0-.07.01-.11,0,.02,0,.04,0,.06,0,0,0-.02,0-.03,0-.02,0-.04,0-.06,0-.07.02-.14.03-.21.01-.09.03-.17.06-.25-.04-.1-.03-.21,0-.33,0-.07,0-.14,0-.21-.03-.04-.02-.07,0-.11v-.48c-.19-.38-.57-.45-.92-.59-.59-.24-1.17-.52-1.77-.73-.38-.13-.8-.18-1.21-.16-.18,0-.37-.06-.55-.1-.02,0-.04,0-.05-.01-.25,0-.5.07-.74-.04-.07,0-.14,0-.21,0-.65-.04-1.31,0-1.95-.14-.14-.03-.29.04-.43-.06-.03,0-.07,0-.1,0-.58,0-1.17,0-1.75-.12h-.1c-.53.04-1.06.02-1.58-.11-.07-.02-.14-.03-.21-.03-.88.02-1.76-.1-2.64-.13-.82-.02-1.63-.2-2.45-.22-.7-.02-1.38-.15-2.08-.14-.38,0-.76-.06-1.13-.14-.23-.05-.47.06-.68-.08h-.1c-.23.03-.45,0-.68,0-.13,0-.26.01-.38.05-.27.23-.22.53-.21.83,0,.53,0,1.06,0,1.59.05.55.07,1.1,0,1.64,0,.03.01.07.02.1.04.05.03.1.01.16,0,.03,0,.07,0,.1,0,.02,0,.04,0,.06,0,.03,0,.07,0,.1.03.05.02.11,0,.16v.02s.02,0,.02,0c0,0,0,0,0,0-.01.04-.02.09-.03.13,0,.01.01.02.01.03,0,0,0,.01,0,.02,0,.05.01.11.02.16.1.09.09.17,0,.26,0,.09,0,.18,0,.27.02.02.05.03.05.05,0,.04-.04.05-.07.05,0,.13,0,.25,0,.38.03.07.03.14,0,.21-.05.12.03.24,0,.36v.06c0,.14,0,.28,0,.42.12.27.07.55.08.82.03.77.02,1.55.02,2.32,0,.04-.01.08-.02.13.04.16.16.26.27.37.14.13.33.09.48.14.52.19,1.06.3,1.59.46.44.13.91.22,1.37.33.55.13,1.09.35,1.65.43.26.03.46.21.72.22.33,0,.65.08.95.22.21.1.43.1.64.15.61.15,1.23.3,1.83.51.13.05.31-.08.39.11.07,0,.14.01.2.02.73.12,1.42.39,2.15.53.52.1,1.03.27,1.55.37.13.03.3.07.41.19.05,0,.1,0,.16.01.17.03.34.04.48.14.23-.02.42.09.63.14.37.09.74.19,1.11.27.5.11.97.31,1.49.37.67.08.72.14,1.04-.19,0-.24,0-.49,0-.73,0-.08-.05-.18.08-.21-.03-.07-.05-.15-.03-.23.13-.45.16-.93.48-1.31.01-.13.08-.21.19-.27,0,0,0,0,0,0,.09-.32.36-.48.63-.63,0,0,.01,0,.01,0,.08-.11.19-.14.31-.14.01-.01.02-.02.04-.02.02-.18.18-.14.28-.17.22-.05.42-.12.58-.27,0-.01.01-.02.02-.02v-.02s.03,0,.03,0c.02-.1.04-.19.06-.29,0-.02,0-.04,0-.06,0-.33,0-.66,0-.99-.02-.07-.04-.14-.01-.22Zm-.35-5.38v.12s0,.1,0,.15c0,.02,0,.04,0,.06,0,.45,0,.91,0,1.36,0,.02,0,.04,0,.06,0,.09,0,.17,0,.26,0,.05,0,.11,0,.16,0,.26,0,.52,0,.79,0,.02,0,.04,0,.06,0,.85.05,1.69-.02,2.54-.03.38-.02.77.04,1.15.03.1,0,.13-.11.17-.45.14-.88.34-1.26.61-.26.03-.31.29-.48.43,0,.24-.23.34-.32.53,0,.03-.01.07-.02.1.02.07,0,.12-.05.16-.13.07-.17.2-.23.33-.04.14.02.31-.12.42,0,.39-.01.78.01,1.17.01.25-.06.39-.31.38-.2-.01-.42,0-.56-.2,0,.05-.06.05-.08.04-.33-.16-.72-.12-1.05-.24-.46-.17-.93-.26-1.39-.37-.35-.09-.72-.15-1.04-.27-.58-.23-1.2-.28-1.8-.45-.49-.14-.99-.24-1.47-.41-.03,0-.07-.01-.1-.02-.21.06-.41-.03-.58-.1-.34-.15-.71-.12-1.05-.24-.45-.16-.92-.19-1.36-.39-.3-.14-.68-.1-.99-.23-.47-.19-.99-.17-1.46-.41-.25-.13-.56-.16-.85-.17-.22,0-.35-.17-.55-.19-.63-.09-1.24-.28-1.85-.47-.27-.08-.55-.1-.81-.21h-.02s-.02,0-.02,0c-.15.07-.26-.07-.39-.1-.21-.04-.41-.1-.62-.16-.21-.06-.33-.19-.32-.43,0-.41-.03-.82,0-1.23,0-.11-.2-.23,0-.33-.01-.04-.02-.08-.03-.12.01,0,.03-.01.03-.02-.11-.3-.08-.63-.06-.92.03-.41.02-.81.03-1.21.01-.31,0-.63,0-.94,0-.07,0-.14,0-.2-.03-.07,0-.14,0-.21-.03-.21-.02-.42,0-.64-.04-.09-.03-.17,0-.26-.02-.12-.03-.25,0-.37,0-.01-.01-.02-.01-.03,0,0,0-.01,0-.02,0-.16,0-.32-.01-.48-.1-.19-.1-.39.02-.57,0-.12-.01-.25-.02-.37,0-.04,0-.07,0-.11,0-.14,0-.28,0-.42v-.06c0-.07,0-.14,0-.21-.12-.1.03-.18.02-.27-.03-.17-.06-.34-.01-.51,0-.02,0-.04-.01-.06,0-.05,0-.1,0-.15,0-.09-.05-.23.13-.2.55-.04,1.09.08,1.63.06.18,0,.35,0,.53,0,.53.18,1.08.18,1.63.2.62.02,1.23.07,1.84.12.2-.06.4-.04.58.04.49.11,1,.09,1.49.15.5.07,1.01.06,1.51.07.12-.07.24-.08.36-.01.23.13.48-.03.72.05.03.01.07.01.08.05.3,0,.6.01.9.1.19.06.4,0,.6,0,.29,0,.58.06.87.08.3.02.61,0,.91.04.7.06,1.39.18,2.08.19.5,0,.99.11,1.49.08.26,0,.52-.03.77.04.31.08.63.13.93.26.41.18.81.38,1.23.54.19.07.38.15.56.25.37.2.4.2.37.63,0,.02,0,.04,0,.06,0,.1,0,.21,0,.31.02.04.02.07,0,.11.02.19.02.38,0,.57Z"/>
  <g>
    <g>
      <line class="cls-2" x1="104.94" y1="50.49" x2="104.94" y2="68.26"/>
      <path d="m104.94,69.36c-.19-.51-.52-1.15-.86-1.55l.86.31.86-.31c-.34.4-.67,1.03-.86,1.55Z"/>
    </g>
    <g>
      <line class="cls-4" x1="104.94" y1="40.49" x2="104.94" y2="24.55"/>
      <path d="m104.94,23.55c.17.47.47,1.06.79,1.42l-.79-.29-.79.29c.32-.36.61-.95.79-1.42Z"/>
    </g>
    <line class="cls-2" x1="105.98" y1="69.36" x2="103.91" y2="69.36"/>
    <line class="cls-4" x1="105.98" y1="23.55" x2="103.91" y2="23.55"/>
  </g>
  <g>
    <g>
      <line class="cls-3" x1="73.24" y1="14.65" x2="89.11" y2="14.65"/>
      <path d="m90.14,14.65c-.48.18-1.09.49-1.46.81l.29-.81-.29-.81c.37.32.97.63,1.46.81Z"/>
    </g>
    <g>
      <line class="cls-1" x1="48.23" y1="14.65" x2="33.88" y2="14.65"/>
      <path d="m32.93,14.65c.44-.16.99-.45,1.34-.74l-.27.74.27.74c-.34-.3-.89-.58-1.34-.74Z"/>
    </g>
    <line class="cls-3" x1="90.14" y1="13.62" x2="90.14" y2="15.69"/>
    <line class="cls-1" x1="32.93" y1="13.62" x2="32.93" y2="15.69"/>
  </g>
</svg>